 0
SECTION
 2
HEADER
 9
$ACADVER
 1
AC1009
 9
$CLAYER
 8
Couche_1
 9
$HANDLING
70
 0
9
$INSBASE
10
0
20
0
30
0
9
$THICKNESS
40
0
9
$UCSNAME
2
UCS_F1
9
$WORLDVIEW
70
1
9
$LTSCALE
40
15
0
ENDSEC
0
SECTION
2
TABLES
 0
TABLE
 2
APPID
70
 1
 0
APPID
 2
TASK
 70
 0
 0
ENDTAB
 0
TABLE
  2
LTYPE
 70
 2
 0
LTYPE
  2
CONTINUOUS
 70
 0
 3
Solid line
 72
65
 73
0
 40
0
  0
LTYPE
  2
ACAD_ISO03W100
 70
 0
 3
CAO pointillé long
 72
65
 73
2
 40
30
 49
12
 49
-18.0
  0
LTYPE
 2
ACAD_ISO07W100
 70
0
 3
CAO pointillé fin
 72
65
 73
2
 40
3
 49
0
 49
-3.0
  0
LTYPE
  2
ACAD_ISO02W100
 70
0
 3
CAO pointillé extra long
 72
65
 73
2
 40
15
 49
12
 49
-3
  0
LTYPE
  2
AXES
 70
0
 3
CAO Axe
 72
65
 73
4
 40
50.8
 49
31.75
 49
-6.35
 49
6.35
 49
-6.35
  0
ENDTAB
0
TABLE
2
LAYER
 70
20
 0
LAYER
 2
COUCHE_1
 70
 64
 62
 7
 6
CONTINUOUS
 0
ENDTAB
 0
TABLE
 2
UCS
 70
 6
 0
UCS
 2
UCSF1
 70
 64
 10
0.000000
 20
0.000000
 30
20.000000
 11
1.000000
 21
0.000000
 31
0.000000
 12
0.000000
 22
-1.000000
 32
0.000000
 0
ENDTAB
 0
ENDSEC
 0
SECTION
 2
ENTITIES
0
POLYLINE
5
2B
 8
0
62
0
 6
ACAD_ISO07W100
 66
 1
 10
0
 20
0
 30
0
 70
1
 0
VERTEX
 5
33
  8
0
 10
23600
 20
-9200
 0
VERTEX
 5
33
  8
0
 10
39800
 20
-9200
 0
VERTEX
 5
33
  8
0
 10
39800
 20
-34600
 0
VERTEX
 5
33
  8
0
 10
23600
 20
-34600
 0
SEQEND
 5
37
 8
0
 0
LINE
8
COUCHE_1
 6
CONTINUOUS
62
0
10
30400
20
-25000
11
30800
21
-25000
 0
LINE
8
COUCHE_1
 6
CONTINUOUS
62
0
10
30800
20
-25000
11
30800
21
-25400
 0
LINE
8
COUCHE_1
 6
CONTINUOUS
62
0
10
30800
20
-25400
11
30600
21
-25600
 0
LINE
8
COUCHE_1
 6
CONTINUOUS
62
0
10
30600
20
-25600
11
30400
21
-25400
 0
LINE
8
COUCHE_1
 6
CONTINUOUS
62
0
10
30400
20
-25400
11
30400
21
-25000
 0
LINE
8
COUCHE_1
 6
CONTINUOUS
62
0
10
30400
20
-25200
11
30600
21
-25200
 0
LINE
8
COUCHE_1
 6
CONTINUOUS
62
0
10
30800
20
-25400
11
30600
21
-25400
0
POLYLINE
5
2B
 8
0
62
0
 6
CONTINUOUS
 66
 1
 10
0
 20
0
 30
0
 70
1
 0
VERTEX
 5
33
  8
0
 10
30800
 20
-14800
 0
VERTEX
 5
33
  8
0
 10
30800
 20
-19200
 0
VERTEX
 5
33
  8
0
 10
28800
 20
-19200
 0
VERTEX
 5
33
  8
0
 10
28800
 20
-14800
 0
SEQEND
 5
37
 8
0
 0
LINE
8
COUCHE_1
 6
CONTINUOUS
62
0
10
30130
20
-16740
11
29530
21
-17340
 0
LINE
8
COUCHE_1
 6
CONTINUOUS
62
0
10
29830
20
-16840
11
30130
21
-16740
 0
LINE
8
COUCHE_1
 6
CONTINUOUS
62
0
10
30030
20
-17040
11
30130
21
-16740
 0
LINE
8
COUCHE_1
 6
ACAD_ISO07W100
62
0
10
30800
20
-15700
11
28900
21
-15700
 0
LINE
8
COUCHE_1
 6
CONTINUOUS
62
0
10
30800
20
-18300
11
30050
21
-18300
 0
CIRCLE
8
COUCHE_1
62
0
 6
CONTINUOUS
10
29830
20
-17040
40
600
0
POLYLINE
5
2B
 8
0
62
1
 6
CONTINUOUS
 66
 1
 10
0
 20
0
 30
0
 70
1
 0
VERTEX
 5
33
  8
0
 10
29700
 20
-13900
 0
VERTEX
 5
33
  8
0
 10
29900
 20
-13900
 0
VERTEX
 5
33
  8
0
 10
29900
 20
-14100
 0
VERTEX
 5
33
  8
0
 10
29700
 20
-14100
 0
SEQEND
 5
37
 8
0
 0
LINE
8
COUCHE_1
 6
CONTINUOUS
62
1
10
29800
20
-14000
11
29800
21
-14800
0
TEXT
8
COUCHE_1
 10
30400
 20
-14200
 11
30400
 21
-14200
 40
300
 1
1
50
0
 72
0
 73
3
62
0
0
POLYLINE
5
2B
 8
0
62
1
 6
CONTINUOUS
 66
 1
 10
0
 20
0
 30
0
 70
1
 0
VERTEX
 5
33
  8
0
 10
29700
 20
-19900
 0
VERTEX
 5
33
  8
0
 10
29900
 20
-19900
 0
VERTEX
 5
33
  8
0
 10
29900
 20
-20100
 0
VERTEX
 5
33
  8
0
 10
29700
 20
-20100
 0
SEQEND
 5
37
 8
0
 0
LINE
8
COUCHE_1
 6
CONTINUOUS
62
1
10
29800
20
-20000
11
29800
21
-19200
0
TEXT
8
COUCHE_1
 10
30400
 20
-19400
 11
30400
 21
-19400
 40
300
 1
2
50
0
 72
0
 73
3
62
0
0
TEXT
8
COUCHE_1
 10
31000
 20
-16600
 11
31000
 21
-16600
 40
200
 1
6bar 
50
0
 72
0
 73
3
62
0
 0
LINE
8
COUCHE_1
 6
CONTINUOUS
62
0
10
27800
20
-21600
11
27800
21
-23200
 0
LINE
8
COUCHE_1
 6
CONTINUOUS
62
0
10
31000
20
-21600
11
31000
21
-23200
 0
LINE
8
COUCHE_1
 6
CONTINUOUS
62
0
10
29400
20
-21600
11
29400
21
-23200
 0
LINE
8
COUCHE_1
 6
CONTINUOUS
62
0
10
27800
20
-21600
11
31000
21
-21600
 0
LINE
8
COUCHE_1
 6
CONTINUOUS
62
0
10
27800
20
-23200
11
31000
21
-23200
 0
LINE
8
COUCHE_1
 6
CONTINUOUS
62
0
10
29800
20
-23200
11
29800
21
-22900
 0
LINE
8
COUCHE_1
 6
CONTINUOUS
62
0
10
29800
20
-22900
11
29700
21
-22900
 0
LINE
8
COUCHE_1
 6
CONTINUOUS
62
0
10
29700
20
-22900
11
29900
21
-22900
 0
LINE
8
COUCHE_1
 6
CONTINUOUS
62
0
10
30600
20
-23200
11
29800
21
-21600
 0
LINE
8
COUCHE_1
 6
CONTINUOUS
62
0
10
28200
20
-23200
11
28200
21
-21600
 0
LINE
8
COUCHE_1
 6
CONTINUOUS
62
0
10
29000
20
-23200
11
29000
21
-22900
 0
LINE
8
COUCHE_1
 6
CONTINUOUS
62
0
10
29000
20
-22900
11
28900
21
-22900
 0
LINE
8
COUCHE_1
 6
CONTINUOUS
62
0
10
28900
20
-22900
11
29100
21
-22900
 0
LINE
8
COUCHE_1
 6
CONTINUOUS
62
0
10
28200
20
-21600
11
28050
21
-21800
 0
LINE
8
COUCHE_1
 6
CONTINUOUS
62
0
10
28200
20
-21600
11
28350
21
-21800
 0
LINE
8
COUCHE_1
 6
CONTINUOUS
62
0
10
30600
20
-23200
11
30450
21
-23100
 0
LINE
8
COUCHE_1
 6
CONTINUOUS
62
0
10
30600
20
-23200
11
30600
21
-23000
 0
LINE
8
COUCHE_1
 6
CONTINUOUS
62
0
10
30600
20
-23200
11
30450
21
-23100
 0
LINE
8
COUCHE_1
 6
CONTINUOUS
62
0
10
31000
20
-22100
11
31050
21
-22000
 0
LINE
8
COUCHE_1
 6
CONTINUOUS
62
0
10
31050
20
-22000
11
31450
21
-22800
 0
LINE
8
COUCHE_1
 6
CONTINUOUS
62
0
10
31450
20
-22800
11
31850
21
-22000
 0
LINE
8
COUCHE_1
 6
CONTINUOUS
62
0
10
31850
20
-22000
11
32250
21
-22800
 0
LINE
8
COUCHE_1
 6
CONTINUOUS
62
0
10
32250
20
-22800
11
32650
21
-22000
 0
LINE
8
COUCHE_1
 6
CONTINUOUS
62
0
10
32650
20
-22000
11
32700
21
-22100
 0
LINE
8
COUCHE_1
 6
CONTINUOUS
62
0
10
26800
20
-22800
11
27800
21
-22800
 0
LINE
8
COUCHE_1
 6
CONTINUOUS
62
0
10
26800
20
-22800
11
26800
21
-22000
 0
LINE
8
COUCHE_1
 6
CONTINUOUS
62
0
10
26800
20
-22000
11
27800
21
-22000
 0
LINE
8
COUCHE_1
 6
CONTINUOUS
62
0
10
27400
20
-22000
11
27000
21
-22800
0
POLYLINE
5
2B
 8
0
62
1
 6
CONTINUOUS
 66
 1
 10
0
 20
0
 30
0
 70
1
 0
VERTEX
 5
33
  8
0
 10
29700
 20
-23900
 0
VERTEX
 5
33
  8
0
 10
29900
 20
-23900
 0
VERTEX
 5
33
  8
0
 10
29900
 20
-24100
 0
VERTEX
 5
33
  8
0
 10
29700
 20
-24100
 0
SEQEND
 5
37
 8
0
 0
LINE
8
COUCHE_1
 6
CONTINUOUS
62
1
10
29800
20
-24000
11
29800
21
-23200
0
TEXT
8
COUCHE_1
 10
30000
 20
-23400
 11
30000
 21
-23400
 40
200
 1
1
50
0
 72
0
 73
3
62
0
0
POLYLINE
5
2B
 8
0
62
1
 6
CONTINUOUS
 66
 1
 10
0
 20
0
 30
0
 70
1
 0
VERTEX
 5
33
  8
0
 10
30500
 20
-23900
 0
VERTEX
 5
33
  8
0
 10
30700
 20
-23900
 0
VERTEX
 5
33
  8
0
 10
30700
 20
-24100
 0
VERTEX
 5
33
  8
0
 10
30500
 20
-24100
 0
SEQEND
 5
37
 8
0
 0
LINE
8
COUCHE_1
 6
CONTINUOUS
62
1
10
30600
20
-24000
11
30600
21
-23200
0
TEXT
8
COUCHE_1
 10
30800
 20
-23400
 11
30800
 21
-23400
 40
200
 1
3
50
0
 72
0
 73
3
62
0
0
POLYLINE
5
2B
 8
0
62
1
 6
CONTINUOUS
 66
 1
 10
0
 20
0
 30
0
 70
1
 0
VERTEX
 5
33
  8
0
 10
29700
 20
-20700
 0
VERTEX
 5
33
  8
0
 10
29900
 20
-20700
 0
VERTEX
 5
33
  8
0
 10
29900
 20
-20900
 0
VERTEX
 5
33
  8
0
 10
29700
 20
-20900
 0
SEQEND
 5
37
 8
0
 0
LINE
8
COUCHE_1
 6
CONTINUOUS
62
1
10
29800
20
-20800
11
29800
21
-21600
0
TEXT
8
COUCHE_1
 10
30000
 20
-21000
 11
30000
 21
-21000
 40
200
 1
2
50
0
 72
0
 73
3
62
0
0
POLYLINE
5
2B
 8
0
62
1
 6
CONTINUOUS
 66
 1
 10
0
 20
0
 30
0
 70
1
 0
VERTEX
 5
33
  8
0
 10
27300
 20
-21100
 0
VERTEX
 5
33
  8
0
 10
27500
 20
-21100
 0
VERTEX
 5
33
  8
0
 10
27500
 20
-21300
 0
VERTEX
 5
33
  8
0
 10
27300
 20
-21300
 0
SEQEND
 5
37
 8
0
 0
LINE
8
COUCHE_1
 6
CONTINUOUS
62
1
10
27400
20
-21200
11
27400
21
-22000
0
TEXT
8
COUCHE_1
 10
27500
 20
-21300
 11
27500
 21
-21300
 40
200
 1

50
0
 72
0
 73
3
62
0
0
POLYLINE
5
2B
 8
0
62
1
 6
CONTINUOUS
 66
 1
 10
0
 20
0
 30
0
 70
1
 0
VERTEX
 5
33
  8
0
 10
26900
 20
-23500
 0
VERTEX
 5
33
  8
0
 10
27100
 20
-23500
 0
VERTEX
 5
33
  8
0
 10
27100
 20
-23700
 0
VERTEX
 5
33
  8
0
 10
26900
 20
-23700
 0
SEQEND
 5
37
 8
0
 0
LINE
8
COUCHE_1
 6
CONTINUOUS
62
1
10
27000
20
-23600
11
27000
21
-22800
0
TEXT
8
COUCHE_1
 10
27100
 20
-22900
 11
27100
 21
-22900
 40
200
 1

50
0
 72
0
 73
3
62
0
0
TEXT
8
COUCHE_1
 10
26000
 20
-22200
 11
26000
 21
-22200
 40
300
 1
V0
50
0
 72
0
 73
3
62
0
 0
LINE
8
COUCHE_1
 6
CONTINUOUS
62
2
10
24400
20
-11000
11
26400
21
-11000
 0
LINE
8
COUCHE_1
 6
CONTINUOUS
62
2
10
24400
20
-13400
11
24400
21
-11000
 0
LINE
8
COUCHE_1
 6
CONTINUOUS
62
2
10
26400
20
-11000
11
26400
21
-13400
 0
LINE
8
COUCHE_1
 6
CONTINUOUS
62
2
10
24400
20
-13400
11
26400
21
-13400
 0
LINE
8
COUCHE_1
 6
CONTINUOUS
62
2
10
24400
20
-11000
11
26400
21
-13400
 0
LINE
8
COUCHE_1
 6
CONTINUOUS
62
2
10
26200
20
-11300
11
26000
21
-11300
 0
LINE
8
COUCHE_1
 6
CONTINUOUS
62
2
10
26000
20
-11300
11
25200
21
-11600
 0
LINE
8
COUCHE_1
 6
CONTINUOUS
62
2
10
25200
20
-11300
11
24900
21
-11300
 0
LINE
8
COUCHE_1
 6
CONTINUOUS
62
2
10
25000
20
-12500
11
25300
21
-12500
 0
LINE
8
COUCHE_1
 6
CONTINUOUS
62
2
10
25300
20
-12500
11
25300
21
-13100
 0
LINE
8
COUCHE_1
 6
CONTINUOUS
62
2
10
25000
20
-12500
11
24700
21
-12500
 0
LINE
8
COUCHE_1
 6
CONTINUOUS
62
2
10
24700
20
-12500
11
24700
21
-13100
 0
LINE
8
COUCHE_1
 6
CONTINUOUS
62
2
10
24700
20
-13100
11
25300
21
-13100
0
TEXT
8
COUCHE_1
 10
24800
 20
-12664
 11
24800
 21
-12664
 40
200
 1
P
50
0
 72
0
 73
3
62
0
0
POLYLINE
5
2B
 8
0
62
1
 6
CONTINUOUS
 66
 1
 10
0
 20
0
 30
0
 70
1
 0
VERTEX
 5
33
  8
0
 10
24100
 20
-11700
 0
VERTEX
 5
33
  8
0
 10
24300
 20
-11700
 0
VERTEX
 5
33
  8
0
 10
24300
 20
-11900
 0
VERTEX
 5
33
  8
0
 10
24100
 20
-11900
 0
SEQEND
 5
37
 8
0
 0
LINE
8
COUCHE_1
 6
CONTINUOUS
62
1
10
24200
20
-11800
11
24400
21
-11800
0
TEXT
8
COUCHE_1
 10
24000
 20
-11700
 11
24000
 21
-11700
 40
200
 1
1
50
0
 72
0
 73
3
62
0
0
POLYLINE
5
2B
 8
0
62
1
 6
CONTINUOUS
 66
 1
 10
0
 20
0
 30
0
 70
1
 0
VERTEX
 5
33
  8
0
 10
26500
 20
-11700
 0
VERTEX
 5
33
  8
0
 10
26700
 20
-11700
 0
VERTEX
 5
33
  8
0
 10
26700
 20
-11900
 0
VERTEX
 5
33
  8
0
 10
26500
 20
-11900
 0
SEQEND
 5
37
 8
0
 0
LINE
8
COUCHE_1
 6
CONTINUOUS
62
1
10
26600
20
-11800
11
26400
21
-11800
0
TEXT
8
COUCHE_1
 10
26400
 20
-12200
 11
26400
 21
-12200
 40
200
 1
3
50
0
 72
0
 73
3
62
0
0
POLYLINE
5
2B
 8
0
62
1
 6
CONTINUOUS
 66
 1
 10
0
 20
0
 30
0
 70
1
 0
VERTEX
 5
33
  8
0
 10
24100
 20
-12500
 0
VERTEX
 5
33
  8
0
 10
24300
 20
-12500
 0
VERTEX
 5
33
  8
0
 10
24300
 20
-12700
 0
VERTEX
 5
33
  8
0
 10
24100
 20
-12700
 0
SEQEND
 5
37
 8
0
 0
LINE
8
COUCHE_1
 6
CONTINUOUS
62
1
10
24200
20
-12600
11
24400
21
-12600
0
TEXT
8
COUCHE_1
 10
24000
 20
-13000
 11
24000
 21
-13000
 40
200
 1
4
50
0
 72
0
 73
3
62
0
0
TEXT
8
COUCHE_1
 10
25400
 20
-10400
 11
25400
 21
-10400
 40
200
 1
B0
50
0
 72
0
 73
3
62
0
 0
LINE
8
COUCHE_1
 6
CONTINUOUS
62
0
10
28800
20
-31900
11
28400
21
-31900
 0
LINE
8
COUCHE_1
 6
CONTINUOUS
62
0
10
28800
20
-31900
11
28400
21
-32900
 0
LINE
8
COUCHE_1
 6
CONTINUOUS
62
0
10
28800
20
-32900
11
28400
21
-32900
 0
LINE
8
COUCHE_1
 6
CONTINUOUS
62
0
10
28800
20
-32900
11
28400
21
-31900
 0
LINE
8
COUCHE_1
 6
CONTINUOUS
62
0
10
29000
20
-31900
11
29000
21
-32900
 0
LINE
8
COUCHE_1
 6
CONTINUOUS
62
0
10
29000
20
-32900
11
30600
21
-32900
 0
LINE
8
COUCHE_1
 6
CONTINUOUS
62
0
10
30600
20
-31900
11
30600
21
-32900
 0
LINE
8
COUCHE_1
 6
CONTINUOUS
62
0
10
29000
20
-31900
11
30600
21
-31900
 0
LINE
8
COUCHE_1
 6
CONTINUOUS
62
0
10
29800
20
-31600
11
29800
21
-31900
 0
LINE
8
COUCHE_1
 6
CONTINUOUS
62
0
10
29800
20
-32900
11
29800
21
-33200
 0
LINE
8
COUCHE_1
 6
CONTINUOUS
62
0
10
29000
20
-32500
11
28650
21
-32500
 0
LINE
8
COUCHE_1
 6
CONTINUOUS
62
0
10
29000
20
-32300
11
28650
21
-32300
0
POLYLINE
5
2B
 8
0
62
1
 6
CONTINUOUS
 66
 1
 10
0
 20
0
 30
0
 70
1
 0
VERTEX
 5
33
  8
0
 10
29700
 20
-30700
 0
VERTEX
 5
33
  8
0
 10
29900
 20
-30700
 0
VERTEX
 5
33
  8
0
 10
29900
 20
-30900
 0
VERTEX
 5
33
  8
0
 10
29700
 20
-30900
 0
SEQEND
 5
37
 8
0
 0
LINE
8
COUCHE_1
 6
CONTINUOUS
62
1
10
29800
20
-30800
11
29800
21
-31600
0
TEXT
8
COUCHE_1
 10
30000
 20
-30900
 11
30000
 21
-30900
 40
200
 1
1
50
0
 72
0
 73
3
62
0
0
POLYLINE
5
2B
 8
0
62
1
 6
CONTINUOUS
 66
 1
 10
0
 20
0
 30
0
 70
1
 0
VERTEX
 5
33
  8
0
 10
29700
 20
-33900
 0
VERTEX
 5
33
  8
0
 10
29900
 20
-33900
 0
VERTEX
 5
33
  8
0
 10
29900
 20
-34100
 0
VERTEX
 5
33
  8
0
 10
29700
 20
-34100
 0
SEQEND
 5
37
 8
0
 0
LINE
8
COUCHE_1
 6
CONTINUOUS
62
1
10
29800
20
-34000
11
29800
21
-33200
0
TEXT
8
COUCHE_1
 10
30000
 20
-33500
 11
30000
 21
-33500
 40
200
 1
2
50
0
 72
0
 73
3
62
0
0
TEXT
8
COUCHE_1
 10
29800
 20
-32100
 11
29800
 21
-32100
 40
200
 1
EV0
50
0
 72
1
 73
3
62
0
 0
LINE
8
COUCHE_1
 6
CONTINUOUS
62
0
10
29800
20
-28600
11
29200
21
-28000
 0
LINE
8
COUCHE_1
 6
CONTINUOUS
62
0
10
29200
20
-28000
11
29800
21
-27400
 0
LINE
8
COUCHE_1
 6
CONTINUOUS
62
0
10
29800
20
-27400
11
30400
21
-28000
 0
LINE
8
COUCHE_1
 6
CONTINUOUS
62
0
10
30400
20
-28000
11
29800
21
-28600
 0
LINE
8
COUCHE_1
 6
CONTINUOUS
62
0
10
30100
20
-28300
11
30100
21
-27700
 0
LINE
8
COUCHE_1
 6
ACAD_ISO07W100
62
0
10
29200
20
-28000
11
30100
21
-28000
0
POLYLINE
5
2B
 8
0
62
1
 6
CONTINUOUS
 66
 1
 10
0
 20
0
 30
0
 70
1
 0
VERTEX
 5
33
  8
0
 10
29750
 20
-28950
 0
VERTEX
 5
33
  8
0
 10
29850
 20
-28950
 0
VERTEX
 5
33
  8
0
 10
29850
 20
-29050
 0
VERTEX
 5
33
  8
0
 10
29750
 20
-29050
 0
SEQEND
 5
37
 8
0
 0
LINE
8
COUCHE_1
 6
CONTINUOUS
62
1
10
29800
20
-29000
11
29800
21
-28600
0
TEXT
8
COUCHE_1
 10
29500
 20
-28900
 11
29500
 21
-28900
 40
100
 1

50
0
 72
0
 73
3
62
0
0
POLYLINE
5
2B
 8
0
62
1
 6
CONTINUOUS
 66
 1
 10
0
 20
0
 30
0
 70
1
 0
VERTEX
 5
33
  8
0
 10
29750
 20
-26950
 0
VERTEX
 5
33
  8
0
 10
29850
 20
-26950
 0
VERTEX
 5
33
  8
0
 10
29850
 20
-27050
 0
VERTEX
 5
33
  8
0
 10
29750
 20
-27050
 0
SEQEND
 5
37
 8
0
 0
LINE
8
COUCHE_1
 6
CONTINUOUS
62
1
10
29800
20
-27000
11
29800
21
-27400
0
TEXT
8
COUCHE_1
 10
29500
 20
-27200
 11
29500
 21
-27200
 40
100
 1

50
0
 72
0
 73
3
62
0
0
TEXT
8
COUCHE_1
 10
30600
 20
-28000
 11
30600
 21
-28000
 40
150
 1
F2
50
0
 72
1
 73
3
62
0
 0
CIRCLE
8
COUCHE_1
62
0
 6
CONTINUOUS
10
29800
20
-36400
40
200
 0
CIRCLE
8
COUCHE_1
62
0
 6
CONTINUOUS
10
29800
20
-36400
40
100
0
POLYLINE
5
2B
 8
0
62
1
 6
CONTINUOUS
 66
 1
 10
0
 20
0
 30
0
 70
1
 0
VERTEX
 5
33
  8
0
 10
29750
 20
-35750
 0
VERTEX
 5
33
  8
0
 10
29850
 20
-35750
 0
VERTEX
 5
33
  8
0
 10
29850
 20
-35850
 0
VERTEX
 5
33
  8
0
 10
29750
 20
-35850
 0
SEQEND
 5
37
 8
0
 0
LINE
8
COUCHE_1
 6
CONTINUOUS
62
1
10
29800
20
-35800
11
29800
21
-36200
 0
LINE
8
COUCHE_1
 6
CONTINUOUS
62
0
10
27000
20
-24400
11
27000
21
-23600
 0
LINE
8
COUCHE_1
 6
CONTINUOUS
62
0
10
23200
20
-24400
11
27000
21
-24400
 0
LINE
8
COUCHE_1
 6
CONTINUOUS
62
0
10
27400
20
-21200
11
27400
21
-20400
 0
LINE
8
COUCHE_1
 6
CONTINUOUS
62
0
10
23200
20
-20400
11
27400
21
-20400
 0
LINE
8
COUCHE_1
 6
CONTINUOUS
62
0
10
29800
20
-14200
11
29800
21
-14000
 0
LINE
8
COUCHE_1
 6
CONTINUOUS
62
0
10
29800
20
-20800
11
29800
21
-20000
 0
LINE
8
COUCHE_1
 6
CONTINUOUS
62
0
10
29800
20
-10000
11
30000
21
-10000
 0
LINE
8
COUCHE_1
 6
CONTINUOUS
62
0
10
29800
20
-10000
11
43000
21
-10000
 0
LINE
8
COUCHE_1
 6
CONTINUOUS
62
0
10
30600
20
-25000
11
30600
21
-24000
 0
LINE
8
COUCHE_1
 6
CONTINUOUS
62
0
10
22800
20
-20400
11
23200
21
-20400
 0
LINE
8
COUCHE_1
 6
CONTINUOUS
62
0
10
29800
20
-14200
11
29800
21
-10000
 0
LINE
8
COUCHE_1
 6
CONTINUOUS
62
0
10
29800
20
-10000
11
30000
21
-10000
 0
LINE
8
COUCHE_1
 6
CONTINUOUS
62
0
10
22400
20
-24400
11
23200
21
-24400
 0
LINE
8
COUCHE_1
 6
CONTINUOUS
62
0
10
26600
20
-11800
11
29800
21
-11800
 0
LINE
8
COUCHE_1
 6
CONTINUOUS
62
0
10
14800
20
-11800
11
24200
21
-11800
 0
LINE
8
COUCHE_1
 6
CONTINUOUS
62
0
10
14800
20
-12600
11
24200
21
-12600
 0
LINE
8
COUCHE_1
 6
CONTINUOUS
62
0
10
13200
20
-12200
11
24400
21
-12200
 0
LINE
8
COUCHE_1
 6
CONTINUOUS
62
0
10
14200
20
-11800
11
14800
21
-11800
 0
LINE
8
COUCHE_1
 6
CONTINUOUS
62
0
10
14200
20
-12600
11
14800
21
-12600
 0
LINE
8
COUCHE_1
 6
CONTINUOUS
62
0
10
12600
20
-12200
11
13200
21
-12200
 0
LINE
8
COUCHE_1
 6
CONTINUOUS
62
0
10
29800
20
-30800
11
29800
21
-29000
 0
LINE
8
COUCHE_1
 6
CONTINUOUS
62
0
10
29800
20
-27000
11
29800
21
-24000
 0
LINE
8
COUCHE_1
 6
CONTINUOUS
62
0
10
22400
20
-20400
11
22800
21
-20400
 0
LINE
8
COUCHE_1
 6
CONTINUOUS
62
0
10
29800
20
-34000
11
29800
21
-35800
 0
CIRCLE
8
COUCHE_1
62
5
 6
CONTINUOUS
10
29800
20
-11800
40
40
0
POLYLINE
5
2B
 8
0
62
1
 6
CONTINUOUS
 66
 1
 10
0
 20
0
 30
0
 70
1
 0
VERTEX
 5
33
  8
0
 10
43200
 20
-10000
 0
VERTEX
 5
33
  8
0
 10
43100
 20
-10200
 0
VERTEX
 5
33
  8
0
 10
43400
 20
-10000
 0
VERTEX
 5
33
  8
0
 10
43100
 20
-9800
 0
SEQEND
 5
37
 8
0
 0
LINE
8
COUCHE_1
 6
CONTINUOUS
62
1
10
43000
20
-10000
11
43200
21
-10000
0
TEXT
8
COUCHE_1
 10
43500
 20
-10000
 11
43500
 21
-10000
 40
150
 1
Terminal
50
0
 72
0
 73
2
62
1
0
POLYLINE
5
2B
 8
0
62
1
 6
CONTINUOUS
 66
 1
 10
0
 20
0
 30
0
 70
1
 0
VERTEX
 5
33
  8
0
 10
22200
 20
-24400
 0
VERTEX
 5
33
  8
0
 10
21900
 20
-24200
 0
VERTEX
 5
33
  8
0
 10
22000
 20
-24400
 0
VERTEX
 5
33
  8
0
 10
21900
 20
-24600
 0
SEQEND
 5
37
 8
0
 0
LINE
8
COUCHE_1
 6
CONTINUOUS
62
1
10
22400
20
-24400
11
22200
21
-24400
0
TEXT
8
COUCHE_1
 10
21900
 20
-24400
 11
21900
 21
-24400
 40
150
 1
EV_0
50
0
 72
2
 73
2
62
1
0
POLYLINE
5
2B
 8
0
62
1
 6
CONTINUOUS
 66
 1
 10
0
 20
0
 30
0
 70
1
 0
VERTEX
 5
33
  8
0
 10
14000
 20
-11800
 0
VERTEX
 5
33
  8
0
 10
13700
 20
-11600
 0
VERTEX
 5
33
  8
0
 10
13800
 20
-11800
 0
VERTEX
 5
33
  8
0
 10
13700
 20
-12000
 0
SEQEND
 5
37
 8
0
 0
LINE
8
COUCHE_1
 6
CONTINUOUS
62
1
10
14200
20
-11800
11
14000
21
-11800
0
TEXT
8
COUCHE_1
 10
13700
 20
-11800
 11
13700
 21
-11800
 40
150
 1
B0_24
50
0
 72
2
 73
2
62
1
0
POLYLINE
5
2B
 8
0
62
1
 6
CONTINUOUS
 66
 1
 10
0
 20
0
 30
0
 70
1
 0
VERTEX
 5
33
  8
0
 10
14000
 20
-12600
 0
VERTEX
 5
33
  8
0
 10
13700
 20
-12400
 0
VERTEX
 5
33
  8
0
 10
13800
 20
-12600
 0
VERTEX
 5
33
  8
0
 10
13700
 20
-12800
 0
SEQEND
 5
37
 8
0
 0
LINE
8
COUCHE_1
 6
CONTINUOUS
62
1
10
14200
20
-12600
11
14000
21
-12600
0
TEXT
8
COUCHE_1
 10
13700
 20
-12600
 11
13700
 21
-12600
 40
150
 1
B0_0
50
0
 72
2
 73
2
62
1
0
POLYLINE
5
2B
 8
0
62
1
 6
CONTINUOUS
 66
 1
 10
0
 20
0
 30
0
 70
1
 0
VERTEX
 5
33
  8
0
 10
12400
 20
-12200
 0
VERTEX
 5
33
  8
0
 10
12500
 20
-12400
 0
VERTEX
 5
33
  8
0
 10
12200
 20
-12200
 0
VERTEX
 5
33
  8
0
 10
12500
 20
-12000
 0
SEQEND
 5
37
 8
0
 0
LINE
8
COUCHE_1
 6
CONTINUOUS
62
1
10
12600
20
-12200
11
12400
21
-12200
0
TEXT
8
COUCHE_1
 10
12200
 20
-12200
 11
12200
 21
-12200
 40
150
 1
CO_B0
50
0
 72
2
 73
2
62
1
0
POLYLINE
5
2B
 8
0
62
1
 6
CONTINUOUS
 66
 1
 10
0
 20
0
 30
0
 70
1
 0
VERTEX
 5
33
  8
0
 10
22200
 20
-20400
 0
VERTEX
 5
33
  8
0
 10
21900
 20
-20200
 0
VERTEX
 5
33
  8
0
 10
22000
 20
-20400
 0
VERTEX
 5
33
  8
0
 10
21900
 20
-20600
 0
SEQEND
 5
37
 8
0
 0
LINE
8
COUCHE_1
 6
CONTINUOUS
62
1
10
22400
20
-20400
11
22200
21
-20400
0
TEXT
8
COUCHE_1
 10
21900
 20
-20400
 11
21900
 21
-20400
 40
150
 1
24-T1-Pz
50
0
 72
2
 73
2
62
1
0
TEXT
8
COUCHE_1
 10
29000
 20
-37000
 11
29000
 21
-37000
 40
200
 1
Arrivée air
50
0
 72
0
 73
3
62
0
0
TEXT
8
COUCHE_1
 10
30400
 20
-25600
 11
30400
 21
-25600
 40
200
 1
Ech2
50
0
 72
0
 73
3
62
0
0
TEXT
8
COUCHE_1
 10
27600
 20
-40600
 11
27600
 21
-40600
 40
300
 1
Schéma    pneumatique  (I)
50
0
 72
0
 73
3
62
0
0
TEXT
8
COUCHE_1
 10
15800
 20
-20000
 11
15800
 21
-20000
 40
250
 1
Avec l'arret d'urgence
50
0
 72
0
 73
3
62
0
0
TEXT
8
COUCHE_1
 10
23600
 20
-8400
 11
23600
 21
-8400
 40
250
 1
MS4-1-4-C4J5D4-F3A1-W-P
50
0
 72
0
 73
3
62
0
 0
LINE
8
COUCHE_1
 6
CONTINUOUS
62
0
10
1200
20
-1200
11
59000
21
-1200
 0
LINE
8
COUCHE_1
 6
CONTINUOUS
62
0
10
1600
20
-1600
11
59000
21
-1600
 0
LINE
8
COUCHE_1
 6
CONTINUOUS
62
0
10
3200
20
-1200
11
3200
21
-1600
 0
LINE
8
COUCHE_1
 6
CONTINUOUS
62
0
10
4800
20
-1200
11
4800
21
-1600
 0
LINE
8
COUCHE_1
 6
CONTINUOUS
62
0
10
6400
20
-1200
11
6400
21
-1600
 0
LINE
8
COUCHE_1
 6
CONTINUOUS
62
0
10
8000
20
-1200
11
8000
21
-1600
 0
LINE
8
COUCHE_1
 6
CONTINUOUS
62
0
10
9600
20
-1200
11
9600
21
-1600
 0
LINE
8
COUCHE_1
 6
CONTINUOUS
62
0
10
11200
20
-1200
11
11200
21
-1600
 0
LINE
8
COUCHE_1
 6
CONTINUOUS
62
0
10
12800
20
-1200
11
12800
21
-1600
 0
LINE
8
COUCHE_1
 6
CONTINUOUS
62
0
10
14400
20
-1200
11
14400
21
-1600
 0
LINE
8
COUCHE_1
 6
CONTINUOUS
62
0
10
16000
20
-1200
11
16000
21
-1600
 0
LINE
8
COUCHE_1
 6
CONTINUOUS
62
0
10
17600
20
-1200
11
17600
21
-1600
 0
LINE
8
COUCHE_1
 6
CONTINUOUS
62
0
10
19200
20
-1200
11
19200
21
-1600
 0
LINE
8
COUCHE_1
 6
CONTINUOUS
62
0
10
20800
20
-1200
11
20800
21
-1600
 0
LINE
8
COUCHE_1
 6
CONTINUOUS
62
0
10
22400
20
-1200
11
22400
21
-1600
 0
LINE
8
COUCHE_1
 6
CONTINUOUS
62
0
10
24000
20
-1200
11
24000
21
-1600
 0
LINE
8
COUCHE_1
 6
CONTINUOUS
62
0
10
25600
20
-1200
11
25600
21
-1600
 0
LINE
8
COUCHE_1
 6
CONTINUOUS
62
0
10
27200
20
-1200
11
27200
21
-1600
 0
LINE
8
COUCHE_1
 6
CONTINUOUS
62
0
10
28800
20
-1200
11
28800
21
-1600
 0
LINE
8
COUCHE_1
 6
CONTINUOUS
62
0
10
30400
20
-1200
11
30400
21
-1600
 0
LINE
8
COUCHE_1
 6
CONTINUOUS
62
0
10
32000
20
-1200
11
32000
21
-1600
 0
LINE
8
COUCHE_1
 6
CONTINUOUS
62
0
10
33600
20
-1200
11
33600
21
-1600
 0
LINE
8
COUCHE_1
 6
CONTINUOUS
62
0
10
35200
20
-1200
11
35200
21
-1600
 0
LINE
8
COUCHE_1
 6
CONTINUOUS
62
0
10
36800
20
-1200
11
36800
21
-1600
 0
LINE
8
COUCHE_1
 6
CONTINUOUS
62
0
10
38400
20
-1200
11
38400
21
-1600
 0
LINE
8
COUCHE_1
 6
CONTINUOUS
62
0
10
40000
20
-1200
11
40000
21
-1600
 0
LINE
8
COUCHE_1
 6
CONTINUOUS
62
0
10
41600
20
-1200
11
41600
21
-1600
 0
LINE
8
COUCHE_1
 6
CONTINUOUS
62
0
10
43200
20
-1200
11
43200
21
-1600
 0
LINE
8
COUCHE_1
 6
CONTINUOUS
62
0
10
44800
20
-1200
11
44800
21
-1600
 0
LINE
8
COUCHE_1
 6
CONTINUOUS
62
0
10
46400
20
-1200
11
46400
21
-1600
 0
LINE
8
COUCHE_1
 6
CONTINUOUS
62
0
10
48000
20
-1200
11
48000
21
-1600
 0
LINE
8
COUCHE_1
 6
CONTINUOUS
62
0
10
49600
20
-1200
11
49600
21
-1600
 0
LINE
8
COUCHE_1
 6
CONTINUOUS
62
0
10
51200
20
-1200
11
51200
21
-1600
 0
LINE
8
COUCHE_1
 6
CONTINUOUS
62
0
10
52800
20
-1200
11
52800
21
-1600
 0
LINE
8
COUCHE_1
 6
CONTINUOUS
62
0
10
54400
20
-1200
11
54400
21
-1600
 0
LINE
8
COUCHE_1
 6
CONTINUOUS
62
0
10
56000
20
-1200
11
56000
21
-1600
 0
LINE
8
COUCHE_1
 6
CONTINUOUS
62
0
10
57600
20
-1200
11
57600
21
-1600
 0
LINE
8
COUCHE_1
 6
CONTINUOUS
62
0
10
59000
20
-1200
11
59000
21
-1600
 0
LINE
8
COUCHE_1
 6
CONTINUOUS
62
0
10
1200
20
-41600
11
59000
21
-41600
0
TEXT
8
COUCHE_1
 10
2400
 20
-1250
 11
2400
 21
-1250
 40
150
 1
A
50
0
 72
1
 73
3
62
0
0
TEXT
8
COUCHE_1
 10
4000
 20
-1250
 11
4000
 21
-1250
 40
150
 1
B
50
0
 72
1
 73
3
62
0
0
TEXT
8
COUCHE_1
 10
5600
 20
-1250
 11
5600
 21
-1250
 40
150
 1
C
50
0
 72
1
 73
3
62
0
0
TEXT
8
COUCHE_1
 10
7200
 20
-1250
 11
7200
 21
-1250
 40
150
 1
D
50
0
 72
1
 73
3
62
0
0
TEXT
8
COUCHE_1
 10
8800
 20
-1250
 11
8800
 21
-1250
 40
150
 1
E
50
0
 72
1
 73
3
62
0
0
TEXT
8
COUCHE_1
 10
10400
 20
-1250
 11
10400
 21
-1250
 40
150
 1
F
50
0
 72
1
 73
3
62
0
0
TEXT
8
COUCHE_1
 10
12000
 20
-1250
 11
12000
 21
-1250
 40
150
 1
G
50
0
 72
1
 73
3
62
0
0
TEXT
8
COUCHE_1
 10
13600
 20
-1250
 11
13600
 21
-1250
 40
150
 1
H
50
0
 72
1
 73
3
62
0
0
TEXT
8
COUCHE_1
 10
15200
 20
-1250
 11
15200
 21
-1250
 40
150
 1
I
50
0
 72
1
 73
3
62
0
0
TEXT
8
COUCHE_1
 10
16800
 20
-1250
 11
16800
 21
-1250
 40
150
 1
J
50
0
 72
1
 73
3
62
0
0
TEXT
8
COUCHE_1
 10
18400
 20
-1250
 11
18400
 21
-1250
 40
150
 1
K
50
0
 72
1
 73
3
62
0
0
TEXT
8
COUCHE_1
 10
20000
 20
-1250
 11
20000
 21
-1250
 40
150
 1
L
50
0
 72
1
 73
3
62
0
0
TEXT
8
COUCHE_1
 10
21600
 20
-1250
 11
21600
 21
-1250
 40
150
 1
M
50
0
 72
1
 73
3
62
0
0
TEXT
8
COUCHE_1
 10
23200
 20
-1250
 11
23200
 21
-1250
 40
150
 1
N
50
0
 72
1
 73
3
62
0
0
TEXT
8
COUCHE_1
 10
24800
 20
-1250
 11
24800
 21
-1250
 40
150
 1
O
50
0
 72
1
 73
3
62
0
0
TEXT
8
COUCHE_1
 10
26400
 20
-1250
 11
26400
 21
-1250
 40
150
 1
P
50
0
 72
1
 73
3
62
0
0
TEXT
8
COUCHE_1
 10
28000
 20
-1250
 11
28000
 21
-1250
 40
150
 1
Q
50
0
 72
1
 73
3
62
0
0
TEXT
8
COUCHE_1
 10
29600
 20
-1250
 11
29600
 21
-1250
 40
150
 1
R
50
0
 72
1
 73
3
62
0
0
TEXT
8
COUCHE_1
 10
31200
 20
-1250
 11
31200
 21
-1250
 40
150
 1
S
50
0
 72
1
 73
3
62
0
0
TEXT
8
COUCHE_1
 10
32800
 20
-1250
 11
32800
 21
-1250
 40
150
 1
T
50
0
 72
1
 73
3
62
0
0
TEXT
8
COUCHE_1
 10
34400
 20
-1250
 11
34400
 21
-1250
 40
150
 1
U
50
0
 72
1
 73
3
62
0
0
TEXT
8
COUCHE_1
 10
36000
 20
-1250
 11
36000
 21
-1250
 40
150
 1
V
50
0
 72
1
 73
3
62
0
0
TEXT
8
COUCHE_1
 10
37600
 20
-1250
 11
37600
 21
-1250
 40
150
 1
W
50
0
 72
1
 73
3
62
0
0
TEXT
8
COUCHE_1
 10
39200
 20
-1250
 11
39200
 21
-1250
 40
150
 1
X
50
0
 72
1
 73
3
62
0
0
TEXT
8
COUCHE_1
 10
40800
 20
-1250
 11
40800
 21
-1250
 40
150
 1
Y
50
0
 72
1
 73
3
62
0
0
TEXT
8
COUCHE_1
 10
42400
 20
-1250
 11
42400
 21
-1250
 40
150
 1
Z
50
0
 72
1
 73
3
62
0
0
TEXT
8
COUCHE_1
 10
44000
 20
-1250
 11
44000
 21
-1250
 40
150
 1
AA
50
0
 72
1
 73
3
62
0
0
TEXT
8
COUCHE_1
 10
45600
 20
-1250
 11
45600
 21
-1250
 40
150
 1
AB
50
0
 72
1
 73
3
62
0
0
TEXT
8
COUCHE_1
 10
47200
 20
-1250
 11
47200
 21
-1250
 40
150
 1
AC
50
0
 72
1
 73
3
62
0
0
TEXT
8
COUCHE_1
 10
48800
 20
-1250
 11
48800
 21
-1250
 40
150
 1
AD
50
0
 72
1
 73
3
62
0
0
TEXT
8
COUCHE_1
 10
50400
 20
-1250
 11
50400
 21
-1250
 40
150
 1
AE
50
0
 72
1
 73
3
62
0
0
TEXT
8
COUCHE_1
 10
52000
 20
-1250
 11
52000
 21
-1250
 40
150
 1
AF
50
0
 72
1
 73
3
62
0
0
TEXT
8
COUCHE_1
 10
53600
 20
-1250
 11
53600
 21
-1250
 40
150
 1
AG
50
0
 72
1
 73
3
62
0
0
TEXT
8
COUCHE_1
 10
55200
 20
-1250
 11
55200
 21
-1250
 40
150
 1
AH
50
0
 72
1
 73
3
62
0
0
TEXT
8
COUCHE_1
 10
56800
 20
-1250
 11
56800
 21
-1250
 40
150
 1
AI
50
0
 72
1
 73
3
62
0
 0
LINE
8
COUCHE_1
 6
CONTINUOUS
62
0
10
1200
20
-1200
11
1200
21
-41600
 0
LINE
8
COUCHE_1
 6
CONTINUOUS
62
0
10
1600
20
-1600
11
1600
21
-41600
 0
LINE
8
COUCHE_1
 6
CONTINUOUS
62
0
10
1200
20
-3200
11
1600
21
-3200
 0
LINE
8
COUCHE_1
 6
CONTINUOUS
62
0
10
1200
20
-4800
11
1600
21
-4800
 0
LINE
8
COUCHE_1
 6
CONTINUOUS
62
0
10
1200
20
-6400
11
1600
21
-6400
 0
LINE
8
COUCHE_1
 6
CONTINUOUS
62
0
10
1200
20
-8000
11
1600
21
-8000
 0
LINE
8
COUCHE_1
 6
CONTINUOUS
62
0
10
1200
20
-9600
11
1600
21
-9600
 0
LINE
8
COUCHE_1
 6
CONTINUOUS
62
0
10
1200
20
-11200
11
1600
21
-11200
 0
LINE
8
COUCHE_1
 6
CONTINUOUS
62
0
10
1200
20
-12800
11
1600
21
-12800
 0
LINE
8
COUCHE_1
 6
CONTINUOUS
62
0
10
1200
20
-14400
11
1600
21
-14400
 0
LINE
8
COUCHE_1
 6
CONTINUOUS
62
0
10
1200
20
-16000
11
1600
21
-16000
 0
LINE
8
COUCHE_1
 6
CONTINUOUS
62
0
10
1200
20
-17600
11
1600
21
-17600
 0
LINE
8
COUCHE_1
 6
CONTINUOUS
62
0
10
1200
20
-19200
11
1600
21
-19200
 0
LINE
8
COUCHE_1
 6
CONTINUOUS
62
0
10
1200
20
-20800
11
1600
21
-20800
 0
LINE
8
COUCHE_1
 6
CONTINUOUS
62
0
10
1200
20
-22400
11
1600
21
-22400
 0
LINE
8
COUCHE_1
 6
CONTINUOUS
62
0
10
1200
20
-24000
11
1600
21
-24000
 0
LINE
8
COUCHE_1
 6
CONTINUOUS
62
0
10
1200
20
-25600
11
1600
21
-25600
 0
LINE
8
COUCHE_1
 6
CONTINUOUS
62
0
10
1200
20
-27200
11
1600
21
-27200
 0
LINE
8
COUCHE_1
 6
CONTINUOUS
62
0
10
1200
20
-28800
11
1600
21
-28800
 0
LINE
8
COUCHE_1
 6
CONTINUOUS
62
0
10
1200
20
-30400
11
1600
21
-30400
 0
LINE
8
COUCHE_1
 6
CONTINUOUS
62
0
10
1200
20
-32000
11
1600
21
-32000
 0
LINE
8
COUCHE_1
 6
CONTINUOUS
62
0
10
1200
20
-33600
11
1600
21
-33600
 0
LINE
8
COUCHE_1
 6
CONTINUOUS
62
0
10
1200
20
-35200
11
1600
21
-35200
 0
LINE
8
COUCHE_1
 6
CONTINUOUS
62
0
10
1200
20
-36800
11
1600
21
-36800
 0
LINE
8
COUCHE_1
 6
CONTINUOUS
62
0
10
1200
20
-38400
11
1600
21
-38400
 0
LINE
8
COUCHE_1
 6
CONTINUOUS
62
0
10
1200
20
-40000
11
1600
21
-40000
 0
LINE
8
COUCHE_1
 6
CONTINUOUS
62
0
10
1200
20
-41600
11
1600
21
-41600
 0
LINE
8
COUCHE_1
 6
CONTINUOUS
62
0
10
1200
20
-41600
11
1600
21
-41600
 0
LINE
8
COUCHE_1
 6
CONTINUOUS
62
0
10
59000
20
-1200
11
59000
21
-41600
0
TEXT
8
COUCHE_1
 10
1400
 20
-2250
 11
1400
 21
-2250
 40
150
 1
1
50
0
 72
1
 73
3
62
0
0
TEXT
8
COUCHE_1
 10
1400
 20
-3850
 11
1400
 21
-3850
 40
150
 1
2
50
0
 72
1
 73
3
62
0
0
TEXT
8
COUCHE_1
 10
1400
 20
-5450
 11
1400
 21
-5450
 40
150
 1
3
50
0
 72
1
 73
3
62
0
0
TEXT
8
COUCHE_1
 10
1400
 20
-7050
 11
1400
 21
-7050
 40
150
 1
4
50
0
 72
1
 73
3
62
0
0
TEXT
8
COUCHE_1
 10
1400
 20
-8650
 11
1400
 21
-8650
 40
150
 1
5
50
0
 72
1
 73
3
62
0
0
TEXT
8
COUCHE_1
 10
1400
 20
-10250
 11
1400
 21
-10250
 40
150
 1
6
50
0
 72
1
 73
3
62
0
0
TEXT
8
COUCHE_1
 10
1400
 20
-11850
 11
1400
 21
-11850
 40
150
 1
7
50
0
 72
1
 73
3
62
0
0
TEXT
8
COUCHE_1
 10
1400
 20
-13450
 11
1400
 21
-13450
 40
150
 1
8
50
0
 72
1
 73
3
62
0
0
TEXT
8
COUCHE_1
 10
1400
 20
-15050
 11
1400
 21
-15050
 40
150
 1
9
50
0
 72
1
 73
3
62
0
0
TEXT
8
COUCHE_1
 10
1400
 20
-16650
 11
1400
 21
-16650
 40
150
 1
10
50
0
 72
1
 73
3
62
0
0
TEXT
8
COUCHE_1
 10
1400
 20
-18250
 11
1400
 21
-18250
 40
150
 1
11
50
0
 72
1
 73
3
62
0
0
TEXT
8
COUCHE_1
 10
1400
 20
-19850
 11
1400
 21
-19850
 40
150
 1
12
50
0
 72
1
 73
3
62
0
0
TEXT
8
COUCHE_1
 10
1400
 20
-21450
 11
1400
 21
-21450
 40
150
 1
13
50
0
 72
1
 73
3
62
0
0
TEXT
8
COUCHE_1
 10
1400
 20
-23050
 11
1400
 21
-23050
 40
150
 1
14
50
0
 72
1
 73
3
62
0
0
TEXT
8
COUCHE_1
 10
1400
 20
-24650
 11
1400
 21
-24650
 40
150
 1
15
50
0
 72
1
 73
3
62
0
0
TEXT
8
COUCHE_1
 10
1400
 20
-26250
 11
1400
 21
-26250
 40
150
 1
16
50
0
 72
1
 73
3
62
0
0
TEXT
8
COUCHE_1
 10
1400
 20
-27850
 11
1400
 21
-27850
 40
150
 1
17
50
0
 72
1
 73
3
62
0
0
TEXT
8
COUCHE_1
 10
1400
 20
-29450
 11
1400
 21
-29450
 40
150
 1
18
50
0
 72
1
 73
3
62
0
0
TEXT
8
COUCHE_1
 10
1400
 20
-31050
 11
1400
 21
-31050
 40
150
 1
19
50
0
 72
1
 73
3
62
0
0
TEXT
8
COUCHE_1
 10
1400
 20
-32650
 11
1400
 21
-32650
 40
150
 1
20
50
0
 72
1
 73
3
62
0
0
TEXT
8
COUCHE_1
 10
1400
 20
-34250
 11
1400
 21
-34250
 40
150
 1
21
50
0
 72
1
 73
3
62
0
0
TEXT
8
COUCHE_1
 10
1400
 20
-35850
 11
1400
 21
-35850
 40
150
 1
22
50
0
 72
1
 73
3
62
0
0
TEXT
8
COUCHE_1
 10
1400
 20
-37450
 11
1400
 21
-37450
 40
150
 1
23
50
0
 72
1
 73
3
62
0
0
TEXT
8
COUCHE_1
 10
1400
 20
-39050
 11
1400
 21
-39050
 40
150
 1
24
50
0
 72
1
 73
3
62
0
0
TEXT
8
COUCHE_1
 10
1400
 20
-40650
 11
1400
 21
-40650
 40
150
 1
25
50
0
 72
1
 73
3
62
0
 0
LINE
8
COUCHE_1
 6
CONTINUOUS
62
0
10
1600
20
-40200
11
59000
21
-40200
 0
LINE
8
COUCHE_1
 6
CONTINUOUS
62
0
10
59000
20
-40200
11
57200
21
-41600
 0
LINE
8
COUCHE_1
 6
CONTINUOUS
62
0
10
12400
20
-41600
11
12400
21
-40200
 0
LINE
8
COUCHE_1
 6
CONTINUOUS
62
0
10
51000
20
-41600
11
51000
21
-40200
 0
LINE
8
COUCHE_1
 6
CONTINUOUS
62
0
10
57200
20
-41600
11
57200
21
-40200
0
TEXT
8
COUCHE_1
 10
58200
 20
-41100
 11
58200
 21
-41100
 40
200
 1
2
50
0
 72
0
 73
3
62
0
0
TEXT
8
COUCHE_1
 10
57500
 20
-40400
 11
57500
 21
-40400
 40
200
 1
1
50
0
 72
0
 73
3
62
0
0
TEXT
8
COUCHE_1
 10
56100
 20
-40400
 11
56100
 21
-40400
 40
150
 1
14/02/2018
50
0
 72
2
 73
3
62
0
0
TEXT
8
COUCHE_1
 10
56100
 20
-40800
 11
56100
 21
-40800
 40
150
 1
1/2
50
0
 72
2
 73
3
62
0
0
TEXT
8
COUCHE_1
 10
51200
 20
-40400
 11
51200
 21
-40400
 40
150
 1
Dessiné le :
50
0
 72
0
 73
3
62
0
0
TEXT
8
COUCHE_1
 10
51200
 20
-40800
 11
51200
 21
-40800
 40
150
 1
Echelle :
50
0
 72
0
 73
3
62
0
0
TEXT
8
COUCHE_1
 10
56100
 20
-41200
 11
56100
 21
-41200
 40
150
 1
DN_DM
50
0
 72
2
 73
3
62
0
0
TEXT
8
COUCHE_1
 10
51200
 20
-41200
 11
51200
 21
-41200
 40
150
 1
Par : 
50
0
 72
0
 73
3
62
0
 0
ENDSEC
 0
EOF
