 0
SECTION
 2
HEADER
 9
$ACADVER
 1
AC1009
 9
$CLAYER
 8
Couche_1
 9
$HANDLING
70
 0
9
$INSBASE
10
0
20
0
30
0
9
$THICKNESS
40
0
9
$UCSNAME
2
UCS_F1
9
$WORLDVIEW
70
1
9
$LTSCALE
40
15
0
ENDSEC
0
SECTION
2
TABLES
 0
TABLE
 2
APPID
70
 1
 0
APPID
 2
TASK
 70
 0
 0
ENDTAB
 0
TABLE
  2
LTYPE
 70
 2
 0
LTYPE
  2
CONTINUOUS
 70
 0
 3
Solid line
 72
65
 73
0
 40
0
  0
LTYPE
  2
ACAD_ISO03W100
 70
 0
 3
CAO pointillé long
 72
65
 73
2
 40
30
 49
12
 49
-18.0
  0
LTYPE
 2
ACAD_ISO07W100
 70
0
 3
CAO pointillé fin
 72
65
 73
2
 40
3
 49
0
 49
-3.0
  0
LTYPE
  2
ACAD_ISO02W100
 70
0
 3
CAO pointillé extra long
 72
65
 73
2
 40
15
 49
12
 49
-3
  0
LTYPE
  2
AXES
 70
0
 3
CAO Axe
 72
65
 73
4
 40
50.8
 49
31.75
 49
-6.35
 49
6.35
 49
-6.35
  0
ENDTAB
0
TABLE
2
LAYER
 70
20
 0
LAYER
 2
COUCHE_1
 70
 64
 62
 7
 6
CONTINUOUS
 0
ENDTAB
 0
TABLE
 2
UCS
 70
 6
 0
UCS
 2
UCSF1
 70
 64
 10
0.000000
 20
0.000000
 30
20.000000
 11
1.000000
 21
0.000000
 31
0.000000
 12
0.000000
 22
-1.000000
 32
0.000000
 0
ENDTAB
 0
ENDSEC
 0
SECTION
 2
ENTITIES
 0
LINE
8
COUCHE_1
 6
ACAD_ISO07W100
62
0
10
46400
20
-15800
11
44800
21
-15800
 0
LINE
8
COUCHE_1
 6
CONTINUOUS
62
0
10
13600
20
-41600
11
13600
21
-40000
 0
LINE
8
COUCHE_1
 6
CONTINUOUS
62
0
10
51200
20
-41600
11
51200
21
-40000
 0
LINE
8
COUCHE_1
 6
CONTINUOUS
62
0
10
57000
20
-41600
11
57000
21
-40000
 0
LINE
8
COUCHE_1
 6
CONTINUOUS
62
0
10
57000
20
-41600
11
59000
21
-40000
 0
LINE
8
COUCHE_1
 6
CONTINUOUS
62
0
10
45200
20
-15000
11
45800
21
-16800
0
POLYLINE
5
2B
 8
0
62
1
 6
CONTINUOUS
 66
 1
 10
0
 20
0
 30
0
 70
1
 0
VERTEX
 5
33
  8
0
 10
45100
 20
-17300
 0
VERTEX
 5
33
  8
0
 10
45300
 20
-17300
 0
VERTEX
 5
33
  8
0
 10
45300
 20
-17500
 0
VERTEX
 5
33
  8
0
 10
45100
 20
-17500
 0
SEQEND
 5
37
 8
0
 0
LINE
8
COUCHE_1
 6
CONTINUOUS
62
1
10
45200
20
-17400
11
45200
21
-16600
0
POLYLINE
5
2B
 8
0
62
1
 6
CONTINUOUS
 66
 1
 10
0
 20
0
 30
0
 70
1
 0
VERTEX
 5
33
  8
0
 10
45100
 20
-14100
 0
VERTEX
 5
33
  8
0
 10
45300
 20
-14100
 0
VERTEX
 5
33
  8
0
 10
45300
 20
-14300
 0
VERTEX
 5
33
  8
0
 10
45100
 20
-14300
 0
SEQEND
 5
37
 8
0
 0
LINE
8
COUCHE_1
 6
CONTINUOUS
62
1
10
45200
20
-14200
11
45200
21
-15000
0
TEXT
8
COUCHE_1
 10
45000
 20
-16400
 11
45000
 21
-16400
 40
300
 1

50
0
 72
0
 73
3
62
0
 0
LINE
8
COUCHE_1
 6
CONTINUOUS
62
0
10
46000
20
-15000
11
46600
21
-16600
 0
LINE
8
COUCHE_1
 6
CONTINUOUS
62
0
10
46300
20
-15800
11
46600
21
-15800
 0
LINE
8
COUCHE_1
 6
CONTINUOUS
62
0
10
47100
20
-15800
11
46800
21
-15800
 0
LINE
8
COUCHE_1
 6
CONTINUOUS
62
0
10
47100
20
-15800
11
47100
21
-15600
 0
LINE
8
COUCHE_1
 6
CONTINUOUS
62
0
10
47100
20
-15600
11
47100
21
-15400
 0
LINE
8
COUCHE_1
 6
CONTINUOUS
62
0
10
47100
20
-16000
11
47100
21
-15800
 0
LINE
8
COUCHE_1
 6
CONTINUOUS
62
0
10
47100
20
-16200
11
47100
21
-16000
 0
LINE
8
COUCHE_1
 6
CONTINUOUS
62
0
10
46800
20
-15800
11
46700
21
-16000
 0
LINE
8
COUCHE_1
 6
CONTINUOUS
62
0
10
46700
20
-16000
11
46600
21
-15800
 0
ARC
8
COUCHE_1
62
0
10
47000
20
-15800
40
400
50
290
51
70
0
POLYLINE
5
2B
 8
0
62
1
 6
CONTINUOUS
 66
 1
 10
0
 20
0
 30
0
 70
1
 0
VERTEX
 5
33
  8
0
 10
45900
 20
-17300
 0
VERTEX
 5
33
  8
0
 10
46100
 20
-17300
 0
VERTEX
 5
33
  8
0
 10
46100
 20
-17500
 0
VERTEX
 5
33
  8
0
 10
45900
 20
-17500
 0
SEQEND
 5
37
 8
0
 0
LINE
8
COUCHE_1
 6
CONTINUOUS
62
1
10
46000
20
-17400
11
46000
21
-16600
0
POLYLINE
5
2B
 8
0
62
1
 6
CONTINUOUS
 66
 1
 10
0
 20
0
 30
0
 70
1
 0
VERTEX
 5
33
  8
0
 10
45900
 20
-14100
 0
VERTEX
 5
33
  8
0
 10
46100
 20
-14100
 0
VERTEX
 5
33
  8
0
 10
46100
 20
-14300
 0
VERTEX
 5
33
  8
0
 10
45900
 20
-14300
 0
SEQEND
 5
37
 8
0
 0
LINE
8
COUCHE_1
 6
CONTINUOUS
62
1
10
46000
20
-14200
11
46000
21
-15000
0
TEXT
8
COUCHE_1
 10
45800
 20
-15400
 11
45800
 21
-15400
 40
200
 1
Sr
50
0
 72
0
 73
3
62
0
 0
LINE
8
COUCHE_1
 6
CONTINUOUS
62
0
10
41000
20
-11600
11
18800
21
-11600
 0
LINE
8
COUCHE_1
 6
CONTINUOUS
62
0
10
41000
20
-11600
11
41000
21
-18000
 0
LINE
8
COUCHE_1
 6
CONTINUOUS
62
0
10
18800
20
-19600
11
18800
21
-11600
 0
LINE
8
COUCHE_1
 6
CONTINUOUS
62
0
10
39600
20
-19600
11
39600
21
-18000
 0
LINE
8
COUCHE_1
 6
CONTINUOUS
62
0
10
39600
20
-18000
11
37600
21
-18000
 0
LINE
8
COUCHE_1
 6
CONTINUOUS
62
0
10
37600
20
-18000
11
37600
21
-19600
 0
LINE
8
COUCHE_1
 6
CONTINUOUS
62
0
10
37700
20
-11600
11
37700
21
-13200
 0
LINE
8
COUCHE_1
 6
CONTINUOUS
62
0
10
37700
20
-13200
11
39700
21
-13200
 0
LINE
8
COUCHE_1
 6
CONTINUOUS
62
0
10
39700
20
-13200
11
39700
21
-11600
 0
LINE
8
COUCHE_1
 6
CONTINUOUS
62
0
10
20200
20
-11600
11
20200
21
-13200
 0
LINE
8
COUCHE_1
 6
CONTINUOUS
62
0
10
20200
20
-13200
11
21800
21
-13200
 0
LINE
8
COUCHE_1
 6
CONTINUOUS
62
0
10
21800
20
-13200
11
21800
21
-11600
 0
LINE
8
COUCHE_1
 6
CONTINUOUS
62
0
10
36800
20
-19600
11
36800
21
-18000
 0
LINE
8
COUCHE_1
 6
CONTINUOUS
62
0
10
36800
20
-18000
11
35200
21
-18000
 0
LINE
8
COUCHE_1
 6
CONTINUOUS
62
0
10
35200
20
-18000
11
35200
21
-19600
 0
LINE
8
COUCHE_1
 6
CONTINUOUS
62
0
10
35200
20
-11600
11
35200
21
-13200
 0
LINE
8
COUCHE_1
 6
CONTINUOUS
62
0
10
35200
20
-13200
11
36800
21
-13200
 0
LINE
8
COUCHE_1
 6
CONTINUOUS
62
0
10
36800
20
-13200
11
36800
21
-11600
 0
LINE
8
COUCHE_1
 6
CONTINUOUS
62
0
10
41000
20
-19600
11
23800
21
-19600
 0
LINE
8
COUCHE_1
 6
CONTINUOUS
62
0
10
24600
20
-11600
11
24600
21
-13200
 0
LINE
8
COUCHE_1
 6
CONTINUOUS
62
0
10
24600
20
-13200
11
23000
21
-13200
 0
LINE
8
COUCHE_1
 6
CONTINUOUS
62
0
10
23000
20
-13200
11
23000
21
-11600
 0
LINE
8
COUCHE_1
 6
CONTINUOUS
62
0
10
23000
20
-11600
11
23000
21
-13200
 0
LINE
8
COUCHE_1
 6
CONTINUOUS
62
0
10
23100
20
-18000
11
24700
21
-18000
 0
LINE
8
COUCHE_1
 6
CONTINUOUS
62
0
10
26200
20
-13200
11
26200
21
-11600
 0
LINE
8
COUCHE_1
 6
CONTINUOUS
62
0
10
26200
20
-11600
11
26200
21
-13200
 0
LINE
8
COUCHE_1
 6
CONTINUOUS
62
0
10
26200
20
-13200
11
24600
21
-13200
 0
LINE
8
COUCHE_1
 6
CONTINUOUS
62
0
10
24600
20
-13200
11
24600
21
-11600
 0
LINE
8
COUCHE_1
 6
CONTINUOUS
62
0
10
24600
20
-11600
11
24600
21
-13200
 0
LINE
8
COUCHE_1
 6
CONTINUOUS
62
0
10
24700
20
-18000
11
26300
21
-18000
 0
LINE
8
COUCHE_1
 6
CONTINUOUS
62
0
10
26300
20
-18000
11
26300
21
-19600
 0
LINE
8
COUCHE_1
 6
CONTINUOUS
62
0
10
20200
20
-19600
11
20200
21
-18000
 0
LINE
8
COUCHE_1
 6
CONTINUOUS
62
0
10
20200
20
-18000
11
21800
21
-18000
 0
LINE
8
COUCHE_1
 6
CONTINUOUS
62
0
10
21800
20
-18000
11
21800
21
-19600
 0
LINE
8
COUCHE_1
 6
CONTINUOUS
62
0
10
30700
20
-19600
11
30700
21
-18000
 0
LINE
8
COUCHE_1
 6
CONTINUOUS
62
0
10
30700
20
-18000
11
32300
21
-18000
 0
LINE
8
COUCHE_1
 6
CONTINUOUS
62
0
10
33800
20
-13200
11
33800
21
-11600
 0
LINE
8
COUCHE_1
 6
CONTINUOUS
62
0
10
33800
20
-11600
11
33800
21
-13200
 0
LINE
8
COUCHE_1
 6
CONTINUOUS
62
0
10
33800
20
-13200
11
32200
21
-13200
 0
LINE
8
COUCHE_1
 6
CONTINUOUS
62
0
10
32200
20
-11600
11
32200
21
-13200
 0
LINE
8
COUCHE_1
 6
CONTINUOUS
62
0
10
23800
20
-19600
11
18800
21
-19600
 0
LINE
8
COUCHE_1
 6
CONTINUOUS
62
0
10
41000
20
-18000
11
41000
21
-19600
 0
LINE
8
COUCHE_1
 6
CONTINUOUS
62
0
10
29400
20
-13200
11
27800
21
-13200
 0
LINE
8
COUCHE_1
 6
CONTINUOUS
62
0
10
27800
20
-13200
11
27800
21
-11600
 0
LINE
8
COUCHE_1
 6
CONTINUOUS
62
0
10
27800
20
-11600
11
27800
21
-13200
 0
LINE
8
COUCHE_1
 6
CONTINUOUS
62
0
10
27900
20
-18000
11
29500
21
-18000
 0
LINE
8
COUCHE_1
 6
CONTINUOUS
62
0
10
24600
20
-13200
11
24600
21
-11600
 0
LINE
8
COUCHE_1
 6
CONTINUOUS
62
0
10
29400
20
-11600
11
29400
21
-13200
 0
LINE
8
COUCHE_1
 6
CONTINUOUS
62
0
10
27800
20
-13200
11
26200
21
-13200
 0
LINE
8
COUCHE_1
 6
CONTINUOUS
62
0
10
26200
20
-13200
11
26200
21
-11600
 0
LINE
8
COUCHE_1
 6
CONTINUOUS
62
0
10
26200
20
-11600
11
26200
21
-13200
 0
LINE
8
COUCHE_1
 6
CONTINUOUS
62
0
10
26300
20
-18000
11
27900
21
-18000
 0
LINE
8
COUCHE_1
 6
CONTINUOUS
62
0
10
29400
20
-13200
11
29400
21
-11600
 0
LINE
8
COUCHE_1
 6
CONTINUOUS
62
0
10
27800
20
-13200
11
27800
21
-11600
 0
LINE
8
COUCHE_1
 6
CONTINUOUS
62
0
10
32300
20
-18000
11
32300
21
-19600
 0
LINE
8
COUCHE_1
 6
CONTINUOUS
62
0
10
23100
20
-18000
11
23100
21
-19600
 0
LINE
8
COUCHE_1
 6
CONTINUOUS
62
0
10
24700
20
-18000
11
24700
21
-19600
 0
LINE
8
COUCHE_1
 6
CONTINUOUS
62
0
10
27800
20
-18000
11
27800
21
-19600
 0
LINE
8
COUCHE_1
 6
CONTINUOUS
62
0
10
29500
20
-18000
11
29500
21
-19600
0
TEXT
8
COUCHE_1
 10
32700
 20
-15200
 11
32700
 21
-15200
 40
400
 1
PILZ PNOZ X2.8 24vdc
50
0
 72
0
 73
3
62
0
0
POLYLINE
5
2B
 8
0
62
1
 6
CONTINUOUS
 66
 1
 10
0
 20
0
 30
0
 70
1
 0
VERTEX
 5
33
  8
0
 10
20800
 20
-11400
 0
VERTEX
 5
33
  8
0
 10
21200
 20
-11400
 0
VERTEX
 5
33
  8
0
 10
21200
 20
-11800
 0
VERTEX
 5
33
  8
0
 10
20800
 20
-11800
 0
SEQEND
 5
37
 8
0
 0
LINE
8
COUCHE_1
 6
CONTINUOUS
62
1
10
21000
20
-11600
11
21000
21
-11600
0
TEXT
8
COUCHE_1
 10
20600
 20
-12000
 11
20600
 21
-12000
 40
400
 1
A1
50
0
 72
0
 73
3
62
0
0
POLYLINE
5
2B
 8
0
62
1
 6
CONTINUOUS
 66
 1
 10
0
 20
0
 30
0
 70
1
 0
VERTEX
 5
33
  8
0
 10
35800
 20
-11400
 0
VERTEX
 5
33
  8
0
 10
36200
 20
-11400
 0
VERTEX
 5
33
  8
0
 10
36200
 20
-11800
 0
VERTEX
 5
33
  8
0
 10
35800
 20
-11800
 0
SEQEND
 5
37
 8
0
 0
LINE
8
COUCHE_1
 6
CONTINUOUS
62
1
10
36000
20
-11600
11
36000
21
-11600
0
TEXT
8
COUCHE_1
 10
35400
 20
-12000
 11
35400
 21
-12000
 40
400
 1
s11
50
0
 72
0
 73
3
62
0
0
POLYLINE
5
2B
 8
0
62
1
 6
CONTINUOUS
 66
 1
 10
0
 20
0
 30
0
 70
1
 0
VERTEX
 5
33
  8
0
 10
35800
 20
-19400
 0
VERTEX
 5
33
  8
0
 10
36200
 20
-19400
 0
VERTEX
 5
33
  8
0
 10
36200
 20
-19800
 0
VERTEX
 5
33
  8
0
 10
35800
 20
-19800
 0
SEQEND
 5
37
 8
0
 0
LINE
8
COUCHE_1
 6
CONTINUOUS
62
1
10
36000
20
-19600
11
36000
21
-19600
0
TEXT
8
COUCHE_1
 10
35400
 20
-18400
 11
35400
 21
-18400
 40
400
 1
s12
50
0
 72
0
 73
3
62
0
0
POLYLINE
5
2B
 8
0
62
1
 6
CONTINUOUS
 66
 1
 10
0
 20
0
 30
0
 70
1
 0
VERTEX
 5
33
  8
0
 10
38300
 20
-11400
 0
VERTEX
 5
33
  8
0
 10
38700
 20
-11400
 0
VERTEX
 5
33
  8
0
 10
38700
 20
-11800
 0
VERTEX
 5
33
  8
0
 10
38300
 20
-11800
 0
SEQEND
 5
37
 8
0
 0
LINE
8
COUCHE_1
 6
CONTINUOUS
62
1
10
38500
20
-11600
11
38500
21
-11600
0
TEXT
8
COUCHE_1
 10
38100
 20
-12000
 11
38100
 21
-12000
 40
400
 1
s21
50
0
 72
0
 73
3
62
0
0
POLYLINE
5
2B
 8
0
62
1
 6
CONTINUOUS
 66
 1
 10
0
 20
0
 30
0
 70
1
 0
VERTEX
 5
33
  8
0
 10
38200
 20
-19400
 0
VERTEX
 5
33
  8
0
 10
38600
 20
-19400
 0
VERTEX
 5
33
  8
0
 10
38600
 20
-19800
 0
VERTEX
 5
33
  8
0
 10
38200
 20
-19800
 0
SEQEND
 5
37
 8
0
 0
LINE
8
COUCHE_1
 6
CONTINUOUS
62
1
10
38400
20
-19600
11
38400
21
-19600
0
TEXT
8
COUCHE_1
 10
38100
 20
-18400
 11
38100
 21
-18400
 40
400
 1
s22
50
0
 72
0
 73
3
62
0
0
POLYLINE
5
2B
 8
0
62
1
 6
CONTINUOUS
 66
 1
 10
0
 20
0
 30
0
 70
1
 0
VERTEX
 5
33
  8
0
 10
31300
 20
-19400
 0
VERTEX
 5
33
  8
0
 10
31700
 20
-19400
 0
VERTEX
 5
33
  8
0
 10
31700
 20
-19800
 0
VERTEX
 5
33
  8
0
 10
31300
 20
-19800
 0
SEQEND
 5
37
 8
0
 0
LINE
8
COUCHE_1
 6
CONTINUOUS
62
1
10
31500
20
-19600
11
31500
21
-19600
0
TEXT
8
COUCHE_1
 10
31100
 20
-18400
 11
31100
 21
-18400
 40
400
 1
s34
50
0
 72
0
 73
3
62
0
0
POLYLINE
5
2B
 8
0
62
1
 6
CONTINUOUS
 66
 1
 10
0
 20
0
 30
0
 70
1
 0
VERTEX
 5
33
  8
0
 10
32800
 20
-11400
 0
VERTEX
 5
33
  8
0
 10
33200
 20
-11400
 0
VERTEX
 5
33
  8
0
 10
33200
 20
-11800
 0
VERTEX
 5
33
  8
0
 10
32800
 20
-11800
 0
SEQEND
 5
37
 8
0
 0
LINE
8
COUCHE_1
 6
CONTINUOUS
62
1
10
33000
20
-11600
11
33000
21
-11600
0
TEXT
8
COUCHE_1
 10
32500
 20
-11900
 11
32500
 21
-11900
 40
400
 1
s52
50
0
 72
0
 73
3
62
0
0
POLYLINE
5
2B
 8
0
62
1
 6
CONTINUOUS
 66
 1
 10
0
 20
0
 30
0
 70
1
 0
VERTEX
 5
33
  8
0
 10
23600
 20
-11400
 0
VERTEX
 5
33
  8
0
 10
24000
 20
-11400
 0
VERTEX
 5
33
  8
0
 10
24000
 20
-11800
 0
VERTEX
 5
33
  8
0
 10
23600
 20
-11800
 0
SEQEND
 5
37
 8
0
 0
LINE
8
COUCHE_1
 6
CONTINUOUS
62
1
10
23800
20
-11600
11
23800
21
-11600
0
TEXT
8
COUCHE_1
 10
23500
 20
-12000
 11
23500
 21
-12000
 40
400
 1
13
50
0
 72
0
 73
3
62
0
0
POLYLINE
5
2B
 8
0
62
1
 6
CONTINUOUS
 66
 1
 10
0
 20
0
 30
0
 70
1
 0
VERTEX
 5
33
  8
0
 10
23700
 20
-19400
 0
VERTEX
 5
33
  8
0
 10
24100
 20
-19400
 0
VERTEX
 5
33
  8
0
 10
24100
 20
-19800
 0
VERTEX
 5
33
  8
0
 10
23700
 20
-19800
 0
SEQEND
 5
37
 8
0
 0
LINE
8
COUCHE_1
 6
CONTINUOUS
62
1
10
23900
20
-19600
11
23900
21
-19600
0
TEXT
8
COUCHE_1
 10
23500
 20
-18400
 11
23500
 21
-18400
 40
400
 1
14
50
0
 72
0
 73
3
62
0
0
POLYLINE
5
2B
 8
0
62
1
 6
CONTINUOUS
 66
 1
 10
0
 20
0
 30
0
 70
1
 0
VERTEX
 5
33
  8
0
 10
25200
 20
-11400
 0
VERTEX
 5
33
  8
0
 10
25600
 20
-11400
 0
VERTEX
 5
33
  8
0
 10
25600
 20
-11800
 0
VERTEX
 5
33
  8
0
 10
25200
 20
-11800
 0
SEQEND
 5
37
 8
0
 0
LINE
8
COUCHE_1
 6
CONTINUOUS
62
1
10
25400
20
-11600
11
25400
21
-11600
0
TEXT
8
COUCHE_1
 10
25000
 20
-12000
 11
25000
 21
-12000
 40
400
 1
23
50
0
 72
0
 73
3
62
0
0
POLYLINE
5
2B
 8
0
62
1
 6
CONTINUOUS
 66
 1
 10
0
 20
0
 30
0
 70
1
 0
VERTEX
 5
33
  8
0
 10
25300
 20
-19400
 0
VERTEX
 5
33
  8
0
 10
25700
 20
-19400
 0
VERTEX
 5
33
  8
0
 10
25700
 20
-19800
 0
VERTEX
 5
33
  8
0
 10
25300
 20
-19800
 0
SEQEND
 5
37
 8
0
 0
LINE
8
COUCHE_1
 6
CONTINUOUS
62
1
10
25500
20
-19600
11
25500
21
-19600
0
TEXT
8
COUCHE_1
 10
25100
 20
-18400
 11
25100
 21
-18400
 40
400
 1
24
50
0
 72
0
 73
3
62
0
0
POLYLINE
5
2B
 8
0
62
1
 6
CONTINUOUS
 66
 1
 10
0
 20
0
 30
0
 70
1
 0
VERTEX
 5
33
  8
0
 10
20800
 20
-19400
 0
VERTEX
 5
33
  8
0
 10
21200
 20
-19400
 0
VERTEX
 5
33
  8
0
 10
21200
 20
-19800
 0
VERTEX
 5
33
  8
0
 10
20800
 20
-19800
 0
SEQEND
 5
37
 8
0
 0
LINE
8
COUCHE_1
 6
CONTINUOUS
62
1
10
21000
20
-19600
11
21000
21
-19600
0
TEXT
8
COUCHE_1
 10
20600
 20
-18400
 11
20600
 21
-18400
 40
400
 1
A2
50
0
 72
0
 73
3
62
0
0
POLYLINE
5
2B
 8
0
62
1
 6
CONTINUOUS
 66
 1
 10
0
 20
0
 30
0
 70
1
 0
VERTEX
 5
33
  8
0
 10
28400
 20
-11400
 0
VERTEX
 5
33
  8
0
 10
28800
 20
-11400
 0
VERTEX
 5
33
  8
0
 10
28800
 20
-11800
 0
VERTEX
 5
33
  8
0
 10
28400
 20
-11800
 0
SEQEND
 5
37
 8
0
 0
LINE
8
COUCHE_1
 6
CONTINUOUS
62
1
10
28600
20
-11600
11
28600
21
-11600
0
TEXT
8
COUCHE_1
 10
28300
 20
-12000
 11
28300
 21
-12000
 40
400
 1
41
50
0
 72
0
 73
3
62
0
0
POLYLINE
5
2B
 8
0
62
1
 6
CONTINUOUS
 66
 1
 10
0
 20
0
 30
0
 70
1
 0
VERTEX
 5
33
  8
0
 10
28500
 20
-19400
 0
VERTEX
 5
33
  8
0
 10
28900
 20
-19400
 0
VERTEX
 5
33
  8
0
 10
28900
 20
-19800
 0
VERTEX
 5
33
  8
0
 10
28500
 20
-19800
 0
SEQEND
 5
37
 8
0
 0
LINE
8
COUCHE_1
 6
CONTINUOUS
62
1
10
28700
20
-19600
11
28700
21
-19600
0
TEXT
8
COUCHE_1
 10
28300
 20
-18400
 11
28300
 21
-18400
 40
400
 1
42
50
0
 72
0
 73
3
62
0
0
POLYLINE
5
2B
 8
0
62
1
 6
CONTINUOUS
 66
 1
 10
0
 20
0
 30
0
 70
1
 0
VERTEX
 5
33
  8
0
 10
26800
 20
-11400
 0
VERTEX
 5
33
  8
0
 10
27200
 20
-11400
 0
VERTEX
 5
33
  8
0
 10
27200
 20
-11800
 0
VERTEX
 5
33
  8
0
 10
26800
 20
-11800
 0
SEQEND
 5
37
 8
0
 0
LINE
8
COUCHE_1
 6
CONTINUOUS
62
1
10
27000
20
-11600
11
27000
21
-11600
0
TEXT
8
COUCHE_1
 10
26600
 20
-12000
 11
26600
 21
-12000
 40
400
 1
33
50
0
 72
0
 73
3
62
0
0
POLYLINE
5
2B
 8
0
62
1
 6
CONTINUOUS
 66
 1
 10
0
 20
0
 30
0
 70
1
 0
VERTEX
 5
33
  8
0
 10
26900
 20
-19400
 0
VERTEX
 5
33
  8
0
 10
27300
 20
-19400
 0
VERTEX
 5
33
  8
0
 10
27300
 20
-19800
 0
VERTEX
 5
33
  8
0
 10
26900
 20
-19800
 0
SEQEND
 5
37
 8
0
 0
LINE
8
COUCHE_1
 6
CONTINUOUS
62
1
10
27100
20
-19600
11
27100
21
-19600
0
TEXT
8
COUCHE_1
 10
26700
 20
-18400
 11
26700
 21
-18400
 40
400
 1
34
50
0
 72
0
 73
3
62
0
0
TEXT
8
COUCHE_1
 10
19800
 20
-14800
 11
19800
 21
-14800
 40
600
 1
KA1
50
0
 72
0
 73
3
62
0
 0
LINE
8
COUCHE_1
 6
CONTINUOUS
62
0
10
34200
20
-27600
11
32600
21
-28200
 0
LINE
8
COUCHE_1
 6
CONTINUOUS
62
0
10
33400
20
-28200
11
33400
21
-28000
 0
LINE
8
COUCHE_1
 6
CONTINUOUS
62
0
10
33400
20
-28600
11
33400
21
-28400
 0
LINE
8
COUCHE_1
 6
CONTINUOUS
62
0
10
33400
20
-28600
11
33600
21
-28600
 0
LINE
8
COUCHE_1
 6
CONTINUOUS
62
0
10
33600
20
-28600
11
33600
21
-28400
 0
LINE
8
COUCHE_1
 6
CONTINUOUS
62
0
10
33400
20
-28600
11
33200
21
-28600
 0
LINE
8
COUCHE_1
 6
CONTINUOUS
62
0
10
33200
20
-28600
11
33200
21
-28400
0
POLYLINE
5
2B
 8
0
62
1
 6
CONTINUOUS
 66
 1
 10
0
 20
0
 30
0
 70
1
 0
VERTEX
 5
33
  8
0
 10
31700
 20
-27500
 0
VERTEX
 5
33
  8
0
 10
31900
 20
-27500
 0
VERTEX
 5
33
  8
0
 10
31900
 20
-27700
 0
VERTEX
 5
33
  8
0
 10
31700
 20
-27700
 0
SEQEND
 5
37
 8
0
 0
LINE
8
COUCHE_1
 6
CONTINUOUS
62
1
10
31800
20
-27600
11
32600
21
-27600
0
POLYLINE
5
2B
 8
0
62
1
 6
CONTINUOUS
 66
 1
 10
0
 20
0
 30
0
 70
1
 0
VERTEX
 5
33
  8
0
 10
34900
 20
-27500
 0
VERTEX
 5
33
  8
0
 10
35100
 20
-27500
 0
VERTEX
 5
33
  8
0
 10
35100
 20
-27700
 0
VERTEX
 5
33
  8
0
 10
34900
 20
-27700
 0
SEQEND
 5
37
 8
0
 0
LINE
8
COUCHE_1
 6
CONTINUOUS
62
1
10
35000
20
-27600
11
34200
21
-27600
0
TEXT
8
COUCHE_1
 10
33000
 20
-27200
 11
33000
 21
-27200
 40
200
 1
Srm
50
0
 72
0
 73
3
62
0
 0
LINE
8
COUCHE_1
 6
CONTINUOUS
62
0
10
23800
20
-32800
11
24200
21
-32400
 0
LINE
8
COUCHE_1
 6
CONTINUOUS
62
0
10
23800
20
-32800
11
23400
21
-33200
 0
LINE
8
COUCHE_1
 6
CONTINUOUS
62
0
10
23800
20
-32800
11
24200
21
-33200
 0
LINE
8
COUCHE_1
 6
CONTINUOUS
62
0
10
23800
20
-32800
11
23400
21
-32400
 0
LINE
8
COUCHE_1
 6
CONTINUOUS
62
0
10
23800
20
-32200
11
23800
21
-32600
 0
CIRCLE
8
COUCHE_1
62
0
 6
CONTINUOUS
10
23800
20
-32800
40
600
0
POLYLINE
5
2B
 8
0
62
1
 6
CONTINUOUS
 66
 1
 10
0
 20
0
 30
0
 70
1
 0
VERTEX
 5
33
  8
0
 10
23700
 20
-31900
 0
VERTEX
 5
33
  8
0
 10
23900
 20
-31900
 0
VERTEX
 5
33
  8
0
 10
23900
 20
-32100
 0
VERTEX
 5
33
  8
0
 10
23700
 20
-32100
 0
SEQEND
 5
37
 8
0
 0
LINE
8
COUCHE_1
 6
CONTINUOUS
62
1
10
23800
20
-32000
11
23800
21
-32200
0
POLYLINE
5
2B
 8
0
62
1
 6
CONTINUOUS
 66
 1
 10
0
 20
0
 30
0
 70
1
 0
VERTEX
 5
33
  8
0
 10
23700
 20
-32700
 0
VERTEX
 5
33
  8
0
 10
23900
 20
-32700
 0
VERTEX
 5
33
  8
0
 10
23900
 20
-32900
 0
VERTEX
 5
33
  8
0
 10
23700
 20
-32900
 0
SEQEND
 5
37
 8
0
 0
LINE
8
COUCHE_1
 6
CONTINUOUS
62
1
10
23800
20
-32800
11
23800
21
-32600
0
TEXT
8
COUCHE_1
 10
23400
 20
-33600
 11
23400
 21
-33600
 40
250
 1
LV1
50
0
 72
0
 73
3
62
0
 0
LINE
8
COUCHE_1
 6
CONTINUOUS
62
0
10
28800
20
-32800
11
29200
21
-32400
 0
LINE
8
COUCHE_1
 6
CONTINUOUS
62
0
10
28800
20
-32800
11
28400
21
-33200
 0
LINE
8
COUCHE_1
 6
CONTINUOUS
62
0
10
28800
20
-32800
11
29200
21
-33200
 0
LINE
8
COUCHE_1
 6
CONTINUOUS
62
0
10
28800
20
-32800
11
28400
21
-32400
 0
LINE
8
COUCHE_1
 6
CONTINUOUS
62
0
10
28800
20
-32200
11
28800
21
-32600
 0
CIRCLE
8
COUCHE_1
62
0
 6
CONTINUOUS
10
28800
20
-32800
40
600
0
POLYLINE
5
2B
 8
0
62
1
 6
CONTINUOUS
 66
 1
 10
0
 20
0
 30
0
 70
1
 0
VERTEX
 5
33
  8
0
 10
28700
 20
-31900
 0
VERTEX
 5
33
  8
0
 10
28900
 20
-31900
 0
VERTEX
 5
33
  8
0
 10
28900
 20
-32100
 0
VERTEX
 5
33
  8
0
 10
28700
 20
-32100
 0
SEQEND
 5
37
 8
0
 0
LINE
8
COUCHE_1
 6
CONTINUOUS
62
1
10
28800
20
-32000
11
28800
21
-32200
0
POLYLINE
5
2B
 8
0
62
1
 6
CONTINUOUS
 66
 1
 10
0
 20
0
 30
0
 70
1
 0
VERTEX
 5
33
  8
0
 10
28700
 20
-32700
 0
VERTEX
 5
33
  8
0
 10
28900
 20
-32700
 0
VERTEX
 5
33
  8
0
 10
28900
 20
-32900
 0
VERTEX
 5
33
  8
0
 10
28700
 20
-32900
 0
SEQEND
 5
37
 8
0
 0
LINE
8
COUCHE_1
 6
CONTINUOUS
62
1
10
28800
20
-32800
11
28800
21
-32600
0
TEXT
8
COUCHE_1
 10
28400
 20
-33600
 11
28400
 21
-33600
 40
250
 1
LV2
50
0
 72
0
 73
3
62
0
 0
LINE
8
COUCHE_1
 6
CONTINUOUS
62
0
10
16200
20
-7400
11
16600
21
-7400
 0
LINE
8
COUCHE_1
 6
CONTINUOUS
62
0
10
16000
20
-24400
11
16200
21
-24400
 0
LINE
8
COUCHE_1
 6
CONTINUOUS
62
0
10
15800
20
-24400
11
16000
21
-24400
 0
LINE
8
COUCHE_1
 6
CONTINUOUS
62
0
10
45200
20
-14200
11
45200
21
-12000
 0
LINE
8
COUCHE_1
 6
CONTINUOUS
62
0
10
45200
20
-20200
11
45200
21
-17400
 0
LINE
8
COUCHE_1
 6
CONTINUOUS
62
0
10
45200
20
-12000
11
45200
21
-6400
 0
LINE
8
COUCHE_1
 6
CONTINUOUS
62
0
10
45200
20
-21400
11
45200
21
-20200
 0
LINE
8
COUCHE_1
 6
CONTINUOUS
62
0
10
16600
20
-7400
11
21000
21
-7400
 0
LINE
8
COUCHE_1
 6
CONTINUOUS
62
0
10
16200
20
-24400
11
21000
21
-24400
 0
LINE
8
COUCHE_1
 6
CONTINUOUS
62
0
10
45200
20
-16600
11
45800
21
-16600
 0
LINE
8
COUCHE_1
 6
CONTINUOUS
62
0
10
46000
20
-16600
11
46800
21
-16600
 0
LINE
8
COUCHE_1
 6
CONTINUOUS
62
0
10
46000
20
-14200
11
46000
21
-11600
 0
LINE
8
COUCHE_1
 6
CONTINUOUS
62
0
10
46000
20
-22400
11
46000
21
-17400
 0
LINE
8
COUCHE_1
 6
CONTINUOUS
62
0
10
21000
20
-7400
11
21000
21
-11600
 0
LINE
8
COUCHE_1
 6
CONTINUOUS
62
0
10
21000
20
-24400
11
21000
21
-19600
 0
LINE
8
COUCHE_1
 6
CONTINUOUS
62
0
10
38600
20
-11600
11
38600
21
-6000
 0
LINE
8
COUCHE_1
 6
CONTINUOUS
62
0
10
38600
20
-6000
11
45200
21
-6000
 0
LINE
8
COUCHE_1
 6
CONTINUOUS
62
0
10
45200
20
-6400
11
45200
21
-6000
 0
LINE
8
COUCHE_1
 6
CONTINUOUS
62
0
10
38400
20
-22400
11
38400
21
-19600
 0
LINE
8
COUCHE_1
 6
CONTINUOUS
62
0
10
38400
20
-22400
11
45200
21
-22400
 0
LINE
8
COUCHE_1
 6
CONTINUOUS
62
0
10
45200
20
-22400
11
45200
21
-21400
 0
LINE
8
COUCHE_1
 6
CONTINUOUS
62
0
10
36200
20
-27600
11
45600
21
-27600
 0
LINE
8
COUCHE_1
 6
CONTINUOUS
62
0
10
36000
20
-27600
11
36200
21
-27600
 0
LINE
8
COUCHE_1
 6
CONTINUOUS
62
0
10
36000
20
-27600
11
36000
21
-19600
 0
LINE
8
COUCHE_1
 6
CONTINUOUS
62
0
10
33000
20
-10400
11
33000
21
-11600
 0
LINE
8
COUCHE_1
 6
CONTINUOUS
62
0
10
33000
20
-10400
11
36000
21
-10400
 0
LINE
8
COUCHE_1
 6
CONTINUOUS
62
0
10
31400
20
-27600
11
31800
21
-27600
 0
LINE
8
COUCHE_1
 6
CONTINUOUS
62
0
10
31400
20
-27600
11
31400
21
-19800
 0
LINE
8
COUCHE_1
 6
CONTINUOUS
62
0
10
35000
20
-27600
11
36000
21
-27600
 0
LINE
8
COUCHE_1
 6
CONTINUOUS
62
0
10
46000
20
-7000
11
46000
21
-11600
 0
LINE
8
COUCHE_1
 6
CONTINUOUS
62
0
10
27000
20
-24600
11
27000
21
-19600
 0
LINE
8
COUCHE_1
 6
CONTINUOUS
62
0
10
36000
20
-3400
11
36000
21
-11600
 0
LINE
8
COUCHE_1
 6
CONTINUOUS
62
0
10
36000
20
-3400
11
46000
21
-3400
 0
LINE
8
COUCHE_1
 6
CONTINUOUS
62
0
10
46000
20
-7000
11
46000
21
-3400
 0
LINE
8
COUCHE_1
 6
CONTINUOUS
62
0
10
45600
20
-27600
11
46000
21
-27600
 0
LINE
8
COUCHE_1
 6
CONTINUOUS
62
0
10
46000
20
-27600
11
46000
21
-22400
 0
LINE
8
COUCHE_1
 6
CONTINUOUS
62
0
10
27000
20
-6000
11
27000
21
-11600
 0
LINE
8
COUCHE_1
 6
CONTINUOUS
62
0
10
25400
20
-6000
11
25400
21
-11600
 0
LINE
8
COUCHE_1
 6
CONTINUOUS
62
0
10
25400
20
-24600
11
25400
21
-19600
 0
LINE
8
COUCHE_1
 6
CONTINUOUS
62
0
10
23800
20
-11600
11
23800
21
-6000
 0
LINE
8
COUCHE_1
 6
CONTINUOUS
62
0
10
23800
20
-19600
11
23800
21
-30800
 0
LINE
8
COUCHE_1
 6
CONTINUOUS
62
0
10
23800
20
-30800
11
23800
21
-32000
 0
LINE
8
COUCHE_1
 6
CONTINUOUS
62
0
10
22400
20
-32800
11
22200
21
-32800
 0
LINE
8
COUCHE_1
 6
CONTINUOUS
62
0
10
59000
20
-40000
11
1600
21
-40000
 0
LINE
8
COUCHE_1
 6
CONTINUOUS
62
0
10
23800
20
-32800
11
22200
21
-32800
 0
LINE
8
COUCHE_1
 6
CONTINUOUS
62
0
10
28600
20
-11600
11
28600
21
-8800
 0
LINE
8
COUCHE_1
 6
CONTINUOUS
62
0
10
28600
20
-8800
11
23800
21
-8800
 0
LINE
8
COUCHE_1
 6
CONTINUOUS
62
0
10
28800
20
-19600
11
28800
21
-29200
 0
LINE
8
COUCHE_1
 6
CONTINUOUS
62
0
10
28800
20
-29200
11
28800
21
-32000
 0
LINE
8
COUCHE_1
 6
CONTINUOUS
62
0
10
27400
20
-32800
11
27600
21
-32800
 0
LINE
8
COUCHE_1
 6
CONTINUOUS
62
0
10
28800
20
-32800
11
27400
21
-32800
 0
CIRCLE
8
COUCHE_1
62
5
 6
CONTINUOUS
10
36000
20
-27600
40
40
 0
CIRCLE
8
COUCHE_1
62
5
 6
CONTINUOUS
10
39200
20
-53600
40
40
 0
CIRCLE
8
COUCHE_1
62
5
 6
CONTINUOUS
10
36000
20
-10400
40
40
 0
CIRCLE
8
COUCHE_1
62
5
 6
CONTINUOUS
10
23800
20
-8800
40
40
0
POLYLINE
5
2B
 8
0
62
1
 6
CONTINUOUS
 66
 1
 10
0
 20
0
 30
0
 70
1
 0
VERTEX
 5
33
  8
0
 10
16000
 20
-7400
 0
VERTEX
 5
33
  8
0
 10
15700
 20
-7200
 0
VERTEX
 5
33
  8
0
 10
15800
 20
-7400
 0
VERTEX
 5
33
  8
0
 10
15700
 20
-7600
 0
SEQEND
 5
37
 8
0
 0
LINE
8
COUCHE_1
 6
CONTINUOUS
62
1
10
16200
20
-7400
11
16000
21
-7400
0
TEXT
8
COUCHE_1
 10
15700
 20
-7400
 11
15700
 21
-7400
 40
150
 1
A_24_B3
50
0
 72
2
 73
2
62
1
0
POLYLINE
5
2B
 8
0
62
1
 6
CONTINUOUS
 66
 1
 10
0
 20
0
 30
0
 70
1
 0
VERTEX
 5
33
  8
0
 10
15600
 20
-24400
 0
VERTEX
 5
33
  8
0
 10
15300
 20
-24200
 0
VERTEX
 5
33
  8
0
 10
15400
 20
-24400
 0
VERTEX
 5
33
  8
0
 10
15300
 20
-24600
 0
SEQEND
 5
37
 8
0
 0
LINE
8
COUCHE_1
 6
CONTINUOUS
62
1
10
15800
20
-24400
11
15600
21
-24400
0
TEXT
8
COUCHE_1
 10
15300
 20
-24400
 11
15300
 21
-24400
 40
150
 1
A_0_B3
50
0
 72
2
 73
2
62
1
0
POLYLINE
5
2B
 8
0
62
1
 6
CONTINUOUS
 66
 1
 10
0
 20
0
 30
0
 70
1
 0
VERTEX
 5
33
  8
0
 10
27000
 20
-5800
 0
VERTEX
 5
33
  8
0
 10
26800
 20
-5500
 0
VERTEX
 5
33
  8
0
 10
27000
 20
-5600
 0
VERTEX
 5
33
  8
0
 10
27200
 20
-5500
 0
SEQEND
 5
37
 8
0
 0
LINE
8
COUCHE_1
 6
CONTINUOUS
62
1
10
27000
20
-6000
11
27000
21
-5800
0
TEXT
8
COUCHE_1
 10
27000
 20
-5500
 11
27000
 21
-5500
 40
150
 1
24-T1-P
50
0
 72
1
 73
1
62
1
0
POLYLINE
5
2B
 8
0
62
1
 6
CONTINUOUS
 66
 1
 10
0
 20
0
 30
0
 70
1
 0
VERTEX
 5
33
  8
0
 10
27000
 20
-24800
 0
VERTEX
 5
33
  8
0
 10
26800
 20
-24700
 0
VERTEX
 5
33
  8
0
 10
27000
 20
-25000
 0
VERTEX
 5
33
  8
0
 10
27200
 20
-24700
 0
SEQEND
 5
37
 8
0
 0
LINE
8
COUCHE_1
 6
CONTINUOUS
62
1
10
27000
20
-24600
11
27000
21
-24800
0
TEXT
8
COUCHE_1
 10
27000
 20
-25000
 11
27000
 21
-25000
 40
150
 1
24-T1-Pz
50
0
 72
1
 73
3
62
1
0
POLYLINE
5
2B
 8
0
62
1
 6
CONTINUOUS
 66
 1
 10
0
 20
0
 30
0
 70
1
 0
VERTEX
 5
33
  8
0
 10
25400
 20
-5800
 0
VERTEX
 5
33
  8
0
 10
25200
 20
-5500
 0
VERTEX
 5
33
  8
0
 10
25400
 20
-5600
 0
VERTEX
 5
33
  8
0
 10
25600
 20
-5500
 0
SEQEND
 5
37
 8
0
 0
LINE
8
COUCHE_1
 6
CONTINUOUS
62
1
10
25400
20
-6000
11
25400
21
-5800
0
TEXT
8
COUCHE_1
 10
25400
 20
-5500
 11
25400
 21
-5500
 40
150
 1
A_0_B4
50
0
 72
1
 73
1
62
1
0
POLYLINE
5
2B
 8
0
62
1
 6
CONTINUOUS
 66
 1
 10
0
 20
0
 30
0
 70
1
 0
VERTEX
 5
33
  8
0
 10
25400
 20
-24800
 0
VERTEX
 5
33
  8
0
 10
25200
 20
-24700
 0
VERTEX
 5
33
  8
0
 10
25400
 20
-25000
 0
VERTEX
 5
33
  8
0
 10
25600
 20
-24700
 0
SEQEND
 5
37
 8
0
 0
LINE
8
COUCHE_1
 6
CONTINUOUS
62
1
10
25400
20
-24600
11
25400
21
-24800
0
TEXT
8
COUCHE_1
 10
25400
 20
-25000
 11
25400
 21
-25000
 40
150
 1
A_0_B4
50
0
 72
1
 73
3
62
1
0
POLYLINE
5
2B
 8
0
62
1
 6
CONTINUOUS
 66
 1
 10
0
 20
0
 30
0
 70
1
 0
VERTEX
 5
33
  8
0
 10
23800
 20
-5800
 0
VERTEX
 5
33
  8
0
 10
23600
 20
-5500
 0
VERTEX
 5
33
  8
0
 10
23800
 20
-5600
 0
VERTEX
 5
33
  8
0
 10
24000
 20
-5500
 0
SEQEND
 5
37
 8
0
 0
LINE
8
COUCHE_1
 6
CONTINUOUS
62
1
10
23800
20
-6000
11
23800
21
-5800
0
TEXT
8
COUCHE_1
 10
23800
 20
-5500
 11
23800
 21
-5500
 40
150
 1
A_24_B4
50
0
 72
1
 73
1
62
1
0
POLYLINE
5
2B
 8
0
62
1
 6
CONTINUOUS
 66
 1
 10
0
 20
0
 30
0
 70
1
 0
VERTEX
 5
33
  8
0
 10
22200
 20
-32800
 0
VERTEX
 5
33
  8
0
 10
21900
 20
-32600
 0
VERTEX
 5
33
  8
0
 10
22000
 20
-32800
 0
VERTEX
 5
33
  8
0
 10
21900
 20
-33000
 0
SEQEND
 5
37
 8
0
 0
LINE
8
COUCHE_1
 6
CONTINUOUS
62
1
10
22400
20
-32800
11
22200
21
-32800
0
TEXT
8
COUCHE_1
 10
21900
 20
-32800
 11
21900
 21
-32800
 40
150
 1
A_0_B5
50
0
 72
2
 73
2
62
1
0
POLYLINE
5
2B
 8
0
62
1
 6
CONTINUOUS
 66
 1
 10
0
 20
0
 30
0
 70
1
 0
VERTEX
 5
33
  8
0
 10
27400
 20
-32800
 0
VERTEX
 5
33
  8
0
 10
27100
 20
-32600
 0
VERTEX
 5
33
  8
0
 10
27200
 20
-32800
 0
VERTEX
 5
33
  8
0
 10
27100
 20
-33000
 0
SEQEND
 5
37
 8
0
 0
LINE
8
COUCHE_1
 6
CONTINUOUS
62
1
10
27600
20
-32800
11
27400
21
-32800
0
TEXT
8
COUCHE_1
 10
27100
 20
-32800
 11
27100
 21
-32800
 40
150
 1
A_0_B5
50
0
 72
2
 73
2
62
1
0
TEXT
8
COUCHE_1
 10
11000
 20
-7200
 11
11000
 21
-7200
 40
200
 1
Alimentation PILZ
50
0
 72
0
 73
3
62
0
0
TEXT
8
COUCHE_1
 10
48600
 20
-15600
 11
48600
 21
-15600
 40
200
 1
Arret d'urgence
50
0
 72
0
 73
3
62
0
0
TEXT
8
COUCHE_1
 10
46800
 20
-15000
 11
46800
 21
-15000
 40
100
 1
RS 546644
50
0
 72
0
 73
3
62
0
0
TEXT
8
COUCHE_1
 10
32000
 20
-29000
 11
32000
 21
-29000
 40
200
 1
Réarmement manuel
50
0
 72
0
 73
3
62
0
0
TEXT
8
COUCHE_1
 10
24600
 20
-25600
 11
24600
 21
-25600
 40
200
 1
Sorties après urgence
50
0
 72
0
 73
3
62
0
0
TEXT
8
COUCHE_1
 10
22000
 20
-34600
 11
22000
 21
-34600
 40
200
 1
Lampe de signalisation
50
0
 72
0
 73
3
62
0
0
TEXT
8
COUCHE_1
 10
22400
 20
-35200
 11
22400
 21
-35200
 40
150
 1
Fonctionnement BON
50
0
 72
0
 73
3
62
0
0
TEXT
8
COUCHE_1
 10
30200
 20
-40600
 11
30200
 21
-40600
 40
300
 1
Protection   PILZ   PNOZ   X2.8
50
0
 72
0
 73
3
62
0
0
TEXT
8
COUCHE_1
 10
51400
 20
-40200
 11
51400
 21
-40200
 40
200
 1
Dessiné le : 14/02/2018
50
0
 72
0
 73
3
62
0
0
TEXT
8
COUCHE_1
 10
51400
 20
-40600
 11
51400
 21
-40600
 40
200
 1
Echelle : 1/2
50
0
 72
0
 73
3
62
0
0
TEXT
8
COUCHE_1
 10
51400
 20
-41000
 11
51400
 21
-41000
 40
200
 1
Dessinateur : DN_DM
50
0
 72
0
 73
3
62
0
0
TEXT
8
COUCHE_1
 10
57400
 20
-40400
 11
57400
 21
-40400
 40
250
 1
11
50
0
 72
0
 73
3
62
0
0
TEXT
8
COUCHE_1
 10
58200
 20
-41000
 11
58200
 21
-41000
 40
250
 1
14
50
0
 72
0
 73
3
62
0
0
TEXT
8
COUCHE_1
 10
27200
 20
-34600
 11
27200
 21
-34600
 40
200
 1
Lampe de signalisation
50
0
 72
0
 73
3
62
0
0
TEXT
8
COUCHE_1
 10
28200
 20
-35200
 11
28200
 21
-35200
 40
150
 1
Arret Urgence
50
0
 72
0
 73
3
62
0
 0
LINE
8
COUCHE_1
 6
CONTINUOUS
62
0
10
1200
20
-1200
11
59000
21
-1200
 0
LINE
8
COUCHE_1
 6
CONTINUOUS
62
0
10
1600
20
-1600
11
59000
21
-1600
 0
LINE
8
COUCHE_1
 6
CONTINUOUS
62
0
10
3200
20
-1200
11
3200
21
-1600
 0
LINE
8
COUCHE_1
 6
CONTINUOUS
62
0
10
4800
20
-1200
11
4800
21
-1600
 0
LINE
8
COUCHE_1
 6
CONTINUOUS
62
0
10
6400
20
-1200
11
6400
21
-1600
 0
LINE
8
COUCHE_1
 6
CONTINUOUS
62
0
10
8000
20
-1200
11
8000
21
-1600
 0
LINE
8
COUCHE_1
 6
CONTINUOUS
62
0
10
9600
20
-1200
11
9600
21
-1600
 0
LINE
8
COUCHE_1
 6
CONTINUOUS
62
0
10
11200
20
-1200
11
11200
21
-1600
 0
LINE
8
COUCHE_1
 6
CONTINUOUS
62
0
10
12800
20
-1200
11
12800
21
-1600
 0
LINE
8
COUCHE_1
 6
CONTINUOUS
62
0
10
14400
20
-1200
11
14400
21
-1600
 0
LINE
8
COUCHE_1
 6
CONTINUOUS
62
0
10
16000
20
-1200
11
16000
21
-1600
 0
LINE
8
COUCHE_1
 6
CONTINUOUS
62
0
10
17600
20
-1200
11
17600
21
-1600
 0
LINE
8
COUCHE_1
 6
CONTINUOUS
62
0
10
19200
20
-1200
11
19200
21
-1600
 0
LINE
8
COUCHE_1
 6
CONTINUOUS
62
0
10
20800
20
-1200
11
20800
21
-1600
 0
LINE
8
COUCHE_1
 6
CONTINUOUS
62
0
10
22400
20
-1200
11
22400
21
-1600
 0
LINE
8
COUCHE_1
 6
CONTINUOUS
62
0
10
24000
20
-1200
11
24000
21
-1600
 0
LINE
8
COUCHE_1
 6
CONTINUOUS
62
0
10
25600
20
-1200
11
25600
21
-1600
 0
LINE
8
COUCHE_1
 6
CONTINUOUS
62
0
10
27200
20
-1200
11
27200
21
-1600
 0
LINE
8
COUCHE_1
 6
CONTINUOUS
62
0
10
28800
20
-1200
11
28800
21
-1600
 0
LINE
8
COUCHE_1
 6
CONTINUOUS
62
0
10
30400
20
-1200
11
30400
21
-1600
 0
LINE
8
COUCHE_1
 6
CONTINUOUS
62
0
10
32000
20
-1200
11
32000
21
-1600
 0
LINE
8
COUCHE_1
 6
CONTINUOUS
62
0
10
33600
20
-1200
11
33600
21
-1600
 0
LINE
8
COUCHE_1
 6
CONTINUOUS
62
0
10
35200
20
-1200
11
35200
21
-1600
 0
LINE
8
COUCHE_1
 6
CONTINUOUS
62
0
10
36800
20
-1200
11
36800
21
-1600
 0
LINE
8
COUCHE_1
 6
CONTINUOUS
62
0
10
38400
20
-1200
11
38400
21
-1600
 0
LINE
8
COUCHE_1
 6
CONTINUOUS
62
0
10
40000
20
-1200
11
40000
21
-1600
 0
LINE
8
COUCHE_1
 6
CONTINUOUS
62
0
10
41600
20
-1200
11
41600
21
-1600
 0
LINE
8
COUCHE_1
 6
CONTINUOUS
62
0
10
43200
20
-1200
11
43200
21
-1600
 0
LINE
8
COUCHE_1
 6
CONTINUOUS
62
0
10
44800
20
-1200
11
44800
21
-1600
 0
LINE
8
COUCHE_1
 6
CONTINUOUS
62
0
10
46400
20
-1200
11
46400
21
-1600
 0
LINE
8
COUCHE_1
 6
CONTINUOUS
62
0
10
48000
20
-1200
11
48000
21
-1600
 0
LINE
8
COUCHE_1
 6
CONTINUOUS
62
0
10
49600
20
-1200
11
49600
21
-1600
 0
LINE
8
COUCHE_1
 6
CONTINUOUS
62
0
10
51200
20
-1200
11
51200
21
-1600
 0
LINE
8
COUCHE_1
 6
CONTINUOUS
62
0
10
52800
20
-1200
11
52800
21
-1600
 0
LINE
8
COUCHE_1
 6
CONTINUOUS
62
0
10
54400
20
-1200
11
54400
21
-1600
 0
LINE
8
COUCHE_1
 6
CONTINUOUS
62
0
10
56000
20
-1200
11
56000
21
-1600
 0
LINE
8
COUCHE_1
 6
CONTINUOUS
62
0
10
57600
20
-1200
11
57600
21
-1600
 0
LINE
8
COUCHE_1
 6
CONTINUOUS
62
0
10
59000
20
-1200
11
59000
21
-1600
 0
LINE
8
COUCHE_1
 6
CONTINUOUS
62
0
10
1200
20
-41600
11
59000
21
-41600
0
TEXT
8
COUCHE_1
 10
2400
 20
-1250
 11
2400
 21
-1250
 40
150
 1
A
50
0
 72
1
 73
3
62
0
0
TEXT
8
COUCHE_1
 10
4000
 20
-1250
 11
4000
 21
-1250
 40
150
 1
B
50
0
 72
1
 73
3
62
0
0
TEXT
8
COUCHE_1
 10
5600
 20
-1250
 11
5600
 21
-1250
 40
150
 1
C
50
0
 72
1
 73
3
62
0
0
TEXT
8
COUCHE_1
 10
7200
 20
-1250
 11
7200
 21
-1250
 40
150
 1
D
50
0
 72
1
 73
3
62
0
0
TEXT
8
COUCHE_1
 10
8800
 20
-1250
 11
8800
 21
-1250
 40
150
 1
E
50
0
 72
1
 73
3
62
0
0
TEXT
8
COUCHE_1
 10
10400
 20
-1250
 11
10400
 21
-1250
 40
150
 1
F
50
0
 72
1
 73
3
62
0
0
TEXT
8
COUCHE_1
 10
12000
 20
-1250
 11
12000
 21
-1250
 40
150
 1
G
50
0
 72
1
 73
3
62
0
0
TEXT
8
COUCHE_1
 10
13600
 20
-1250
 11
13600
 21
-1250
 40
150
 1
H
50
0
 72
1
 73
3
62
0
0
TEXT
8
COUCHE_1
 10
15200
 20
-1250
 11
15200
 21
-1250
 40
150
 1
I
50
0
 72
1
 73
3
62
0
0
TEXT
8
COUCHE_1
 10
16800
 20
-1250
 11
16800
 21
-1250
 40
150
 1
J
50
0
 72
1
 73
3
62
0
0
TEXT
8
COUCHE_1
 10
18400
 20
-1250
 11
18400
 21
-1250
 40
150
 1
K
50
0
 72
1
 73
3
62
0
0
TEXT
8
COUCHE_1
 10
20000
 20
-1250
 11
20000
 21
-1250
 40
150
 1
L
50
0
 72
1
 73
3
62
0
0
TEXT
8
COUCHE_1
 10
21600
 20
-1250
 11
21600
 21
-1250
 40
150
 1
M
50
0
 72
1
 73
3
62
0
0
TEXT
8
COUCHE_1
 10
23200
 20
-1250
 11
23200
 21
-1250
 40
150
 1
N
50
0
 72
1
 73
3
62
0
0
TEXT
8
COUCHE_1
 10
24800
 20
-1250
 11
24800
 21
-1250
 40
150
 1
O
50
0
 72
1
 73
3
62
0
0
TEXT
8
COUCHE_1
 10
26400
 20
-1250
 11
26400
 21
-1250
 40
150
 1
P
50
0
 72
1
 73
3
62
0
0
TEXT
8
COUCHE_1
 10
28000
 20
-1250
 11
28000
 21
-1250
 40
150
 1
Q
50
0
 72
1
 73
3
62
0
0
TEXT
8
COUCHE_1
 10
29600
 20
-1250
 11
29600
 21
-1250
 40
150
 1
R
50
0
 72
1
 73
3
62
0
0
TEXT
8
COUCHE_1
 10
31200
 20
-1250
 11
31200
 21
-1250
 40
150
 1
S
50
0
 72
1
 73
3
62
0
0
TEXT
8
COUCHE_1
 10
32800
 20
-1250
 11
32800
 21
-1250
 40
150
 1
T
50
0
 72
1
 73
3
62
0
0
TEXT
8
COUCHE_1
 10
34400
 20
-1250
 11
34400
 21
-1250
 40
150
 1
U
50
0
 72
1
 73
3
62
0
0
TEXT
8
COUCHE_1
 10
36000
 20
-1250
 11
36000
 21
-1250
 40
150
 1
V
50
0
 72
1
 73
3
62
0
0
TEXT
8
COUCHE_1
 10
37600
 20
-1250
 11
37600
 21
-1250
 40
150
 1
W
50
0
 72
1
 73
3
62
0
0
TEXT
8
COUCHE_1
 10
39200
 20
-1250
 11
39200
 21
-1250
 40
150
 1
X
50
0
 72
1
 73
3
62
0
0
TEXT
8
COUCHE_1
 10
40800
 20
-1250
 11
40800
 21
-1250
 40
150
 1
Y
50
0
 72
1
 73
3
62
0
0
TEXT
8
COUCHE_1
 10
42400
 20
-1250
 11
42400
 21
-1250
 40
150
 1
Z
50
0
 72
1
 73
3
62
0
0
TEXT
8
COUCHE_1
 10
44000
 20
-1250
 11
44000
 21
-1250
 40
150
 1
AA
50
0
 72
1
 73
3
62
0
0
TEXT
8
COUCHE_1
 10
45600
 20
-1250
 11
45600
 21
-1250
 40
150
 1
AB
50
0
 72
1
 73
3
62
0
0
TEXT
8
COUCHE_1
 10
47200
 20
-1250
 11
47200
 21
-1250
 40
150
 1
AC
50
0
 72
1
 73
3
62
0
0
TEXT
8
COUCHE_1
 10
48800
 20
-1250
 11
48800
 21
-1250
 40
150
 1
AD
50
0
 72
1
 73
3
62
0
0
TEXT
8
COUCHE_1
 10
50400
 20
-1250
 11
50400
 21
-1250
 40
150
 1
AE
50
0
 72
1
 73
3
62
0
0
TEXT
8
COUCHE_1
 10
52000
 20
-1250
 11
52000
 21
-1250
 40
150
 1
AF
50
0
 72
1
 73
3
62
0
0
TEXT
8
COUCHE_1
 10
53600
 20
-1250
 11
53600
 21
-1250
 40
150
 1
AG
50
0
 72
1
 73
3
62
0
0
TEXT
8
COUCHE_1
 10
55200
 20
-1250
 11
55200
 21
-1250
 40
150
 1
AH
50
0
 72
1
 73
3
62
0
0
TEXT
8
COUCHE_1
 10
56800
 20
-1250
 11
56800
 21
-1250
 40
150
 1
AI
50
0
 72
1
 73
3
62
0
 0
LINE
8
COUCHE_1
 6
CONTINUOUS
62
0
10
1200
20
-1200
11
1200
21
-41600
 0
LINE
8
COUCHE_1
 6
CONTINUOUS
62
0
10
1600
20
-1600
11
1600
21
-41600
 0
LINE
8
COUCHE_1
 6
CONTINUOUS
62
0
10
1200
20
-3200
11
1600
21
-3200
 0
LINE
8
COUCHE_1
 6
CONTINUOUS
62
0
10
1200
20
-4800
11
1600
21
-4800
 0
LINE
8
COUCHE_1
 6
CONTINUOUS
62
0
10
1200
20
-6400
11
1600
21
-6400
 0
LINE
8
COUCHE_1
 6
CONTINUOUS
62
0
10
1200
20
-8000
11
1600
21
-8000
 0
LINE
8
COUCHE_1
 6
CONTINUOUS
62
0
10
1200
20
-9600
11
1600
21
-9600
 0
LINE
8
COUCHE_1
 6
CONTINUOUS
62
0
10
1200
20
-11200
11
1600
21
-11200
 0
LINE
8
COUCHE_1
 6
CONTINUOUS
62
0
10
1200
20
-12800
11
1600
21
-12800
 0
LINE
8
COUCHE_1
 6
CONTINUOUS
62
0
10
1200
20
-14400
11
1600
21
-14400
 0
LINE
8
COUCHE_1
 6
CONTINUOUS
62
0
10
1200
20
-16000
11
1600
21
-16000
 0
LINE
8
COUCHE_1
 6
CONTINUOUS
62
0
10
1200
20
-17600
11
1600
21
-17600
 0
LINE
8
COUCHE_1
 6
CONTINUOUS
62
0
10
1200
20
-19200
11
1600
21
-19200
 0
LINE
8
COUCHE_1
 6
CONTINUOUS
62
0
10
1200
20
-20800
11
1600
21
-20800
 0
LINE
8
COUCHE_1
 6
CONTINUOUS
62
0
10
1200
20
-22400
11
1600
21
-22400
 0
LINE
8
COUCHE_1
 6
CONTINUOUS
62
0
10
1200
20
-24000
11
1600
21
-24000
 0
LINE
8
COUCHE_1
 6
CONTINUOUS
62
0
10
1200
20
-25600
11
1600
21
-25600
 0
LINE
8
COUCHE_1
 6
CONTINUOUS
62
0
10
1200
20
-27200
11
1600
21
-27200
 0
LINE
8
COUCHE_1
 6
CONTINUOUS
62
0
10
1200
20
-28800
11
1600
21
-28800
 0
LINE
8
COUCHE_1
 6
CONTINUOUS
62
0
10
1200
20
-30400
11
1600
21
-30400
 0
LINE
8
COUCHE_1
 6
CONTINUOUS
62
0
10
1200
20
-32000
11
1600
21
-32000
 0
LINE
8
COUCHE_1
 6
CONTINUOUS
62
0
10
1200
20
-33600
11
1600
21
-33600
 0
LINE
8
COUCHE_1
 6
CONTINUOUS
62
0
10
1200
20
-35200
11
1600
21
-35200
 0
LINE
8
COUCHE_1
 6
CONTINUOUS
62
0
10
1200
20
-36800
11
1600
21
-36800
 0
LINE
8
COUCHE_1
 6
CONTINUOUS
62
0
10
1200
20
-38400
11
1600
21
-38400
 0
LINE
8
COUCHE_1
 6
CONTINUOUS
62
0
10
1200
20
-40000
11
1600
21
-40000
 0
LINE
8
COUCHE_1
 6
CONTINUOUS
62
0
10
1200
20
-41600
11
1600
21
-41600
 0
LINE
8
COUCHE_1
 6
CONTINUOUS
62
0
10
1200
20
-41600
11
1600
21
-41600
 0
LINE
8
COUCHE_1
 6
CONTINUOUS
62
0
10
59000
20
-1200
11
59000
21
-41600
0
TEXT
8
COUCHE_1
 10
1400
 20
-2250
 11
1400
 21
-2250
 40
150
 1
1
50
0
 72
1
 73
3
62
0
0
TEXT
8
COUCHE_1
 10
1400
 20
-3850
 11
1400
 21
-3850
 40
150
 1
2
50
0
 72
1
 73
3
62
0
0
TEXT
8
COUCHE_1
 10
1400
 20
-5450
 11
1400
 21
-5450
 40
150
 1
3
50
0
 72
1
 73
3
62
0
0
TEXT
8
COUCHE_1
 10
1400
 20
-7050
 11
1400
 21
-7050
 40
150
 1
4
50
0
 72
1
 73
3
62
0
0
TEXT
8
COUCHE_1
 10
1400
 20
-8650
 11
1400
 21
-8650
 40
150
 1
5
50
0
 72
1
 73
3
62
0
0
TEXT
8
COUCHE_1
 10
1400
 20
-10250
 11
1400
 21
-10250
 40
150
 1
6
50
0
 72
1
 73
3
62
0
0
TEXT
8
COUCHE_1
 10
1400
 20
-11850
 11
1400
 21
-11850
 40
150
 1
7
50
0
 72
1
 73
3
62
0
0
TEXT
8
COUCHE_1
 10
1400
 20
-13450
 11
1400
 21
-13450
 40
150
 1
8
50
0
 72
1
 73
3
62
0
0
TEXT
8
COUCHE_1
 10
1400
 20
-15050
 11
1400
 21
-15050
 40
150
 1
9
50
0
 72
1
 73
3
62
0
0
TEXT
8
COUCHE_1
 10
1400
 20
-16650
 11
1400
 21
-16650
 40
150
 1
10
50
0
 72
1
 73
3
62
0
0
TEXT
8
COUCHE_1
 10
1400
 20
-18250
 11
1400
 21
-18250
 40
150
 1
11
50
0
 72
1
 73
3
62
0
0
TEXT
8
COUCHE_1
 10
1400
 20
-19850
 11
1400
 21
-19850
 40
150
 1
12
50
0
 72
1
 73
3
62
0
0
TEXT
8
COUCHE_1
 10
1400
 20
-21450
 11
1400
 21
-21450
 40
150
 1
13
50
0
 72
1
 73
3
62
0
0
TEXT
8
COUCHE_1
 10
1400
 20
-23050
 11
1400
 21
-23050
 40
150
 1
14
50
0
 72
1
 73
3
62
0
0
TEXT
8
COUCHE_1
 10
1400
 20
-24650
 11
1400
 21
-24650
 40
150
 1
15
50
0
 72
1
 73
3
62
0
0
TEXT
8
COUCHE_1
 10
1400
 20
-26250
 11
1400
 21
-26250
 40
150
 1
16
50
0
 72
1
 73
3
62
0
0
TEXT
8
COUCHE_1
 10
1400
 20
-27850
 11
1400
 21
-27850
 40
150
 1
17
50
0
 72
1
 73
3
62
0
0
TEXT
8
COUCHE_1
 10
1400
 20
-29450
 11
1400
 21
-29450
 40
150
 1
18
50
0
 72
1
 73
3
62
0
0
TEXT
8
COUCHE_1
 10
1400
 20
-31050
 11
1400
 21
-31050
 40
150
 1
19
50
0
 72
1
 73
3
62
0
0
TEXT
8
COUCHE_1
 10
1400
 20
-32650
 11
1400
 21
-32650
 40
150
 1
20
50
0
 72
1
 73
3
62
0
0
TEXT
8
COUCHE_1
 10
1400
 20
-34250
 11
1400
 21
-34250
 40
150
 1
21
50
0
 72
1
 73
3
62
0
0
TEXT
8
COUCHE_1
 10
1400
 20
-35850
 11
1400
 21
-35850
 40
150
 1
22
50
0
 72
1
 73
3
62
0
0
TEXT
8
COUCHE_1
 10
1400
 20
-37450
 11
1400
 21
-37450
 40
150
 1
23
50
0
 72
1
 73
3
62
0
0
TEXT
8
COUCHE_1
 10
1400
 20
-39050
 11
1400
 21
-39050
 40
150
 1
24
50
0
 72
1
 73
3
62
0
0
TEXT
8
COUCHE_1
 10
1400
 20
-40650
 11
1400
 21
-40650
 40
150
 1
25
50
0
 72
1
 73
3
62
0
 0
LINE
8
COUCHE_1
 6
CONTINUOUS
62
0
10
1600
20
-81600
11
118400
21
-81600
 0
LINE
8
COUCHE_1
 6
CONTINUOUS
62
0
10
116500
20
-83000
11
116500
21
-81600
 0
LINE
8
COUCHE_1
 6
CONTINUOUS
62
0
10
116500
20
-83000
11
118100
21
-81600
 0
LINE
8
COUCHE_1
 6
CONTINUOUS
62
0
10
11200
20
-83000
11
11200
21
-81600
 0
LINE
8
COUCHE_1
 6
CONTINUOUS
62
0
10
110800
20
-83200
11
110800
21
-81800
0
TEXT
8
COUCHE_1
 10
117400
 20
-82500
 11
117400
 21
-82500
 40
200
 1
14
50
0
 72
0
 73
3
62
0
0
TEXT
8
COUCHE_1
 10
116700
 20
-81800
 11
116700
 21
-81800
 40
200
 1
11
50
0
 72
0
 73
3
62
0
0
TEXT
8
COUCHE_1
 10
114300
 20
-82000
 11
114300
 21
-82000
 40
150
 1
14/02/2018
50
0
 72
2
 73
3
62
0
0
TEXT
8
COUCHE_1
 10
114300
 20
-82400
 11
114300
 21
-82400
 40
150
 1
1/2
50
0
 72
2
 73
3
62
0
0
TEXT
8
COUCHE_1
 10
111000
 20
-82000
 11
111000
 21
-82000
 40
150
 1
Dessiné le :
50
0
 72
0
 73
3
62
0
0
TEXT
8
COUCHE_1
 10
111000
 20
-82400
 11
111000
 21
-82400
 40
150
 1
Echelle :
50
0
 72
0
 73
3
62
0
0
TEXT
8
COUCHE_1
 10
114300
 20
-82800
 11
114300
 21
-82800
 40
150
 1
NOM DESSINATEUR
50
0
 72
2
 73
3
62
0
0
TEXT
8
COUCHE_1
 10
111000
 20
-82800
 11
111000
 21
-82800
 40
150
 1
Par : 
50
0
 72
0
 73
3
62
0
 0
ENDSEC
 0
EOF
