 0
SECTION
 2
HEADER
 9
$ACADVER
 1
AC1009
 9
$CLAYER
 8
Couche_1
 9
$HANDLING
70
 0
9
$INSBASE
10
0
20
0
30
0
9
$THICKNESS
40
0
9
$UCSNAME
2
UCS_F1
9
$WORLDVIEW
70
1
9
$LTSCALE
40
15
0
ENDSEC
0
SECTION
2
TABLES
 0
TABLE
 2
APPID
70
 1
 0
APPID
 2
TASK
 70
 0
 0
ENDTAB
 0
TABLE
  2
LTYPE
 70
 2
 0
LTYPE
  2
CONTINUOUS
 70
 0
 3
Solid line
 72
65
 73
0
 40
0
  0
LTYPE
  2
ACAD_ISO03W100
 70
 0
 3
CAO pointillé long
 72
65
 73
2
 40
30
 49
12
 49
-18.0
  0
LTYPE
 2
ACAD_ISO07W100
 70
0
 3
CAO pointillé fin
 72
65
 73
2
 40
3
 49
0
 49
-3.0
  0
LTYPE
  2
ACAD_ISO02W100
 70
0
 3
CAO pointillé extra long
 72
65
 73
2
 40
15
 49
12
 49
-3
  0
LTYPE
  2
AXES
 70
0
 3
CAO Axe
 72
65
 73
4
 40
50.8
 49
31.75
 49
-6.35
 49
6.35
 49
-6.35
  0
ENDTAB
0
TABLE
2
LAYER
 70
20
 0
LAYER
 2
COUCHE_1
 70
 64
 62
 7
 6
CONTINUOUS
 0
ENDTAB
 0
TABLE
 2
UCS
 70
 6
 0
UCS
 2
UCSF1
 70
 64
 10
0.000000
 20
0.000000
 30
20.000000
 11
1.000000
 21
0.000000
 31
0.000000
 12
0.000000
 22
-1.000000
 32
0.000000
 0
ENDTAB
 0
ENDSEC
 0
SECTION
 2
ENTITIES
0
POLYLINE
5
2B
 8
0
62
0
 6
ACAD_ISO07W100
 66
 1
 10
0
 20
0
 30
0
 70
1
 0
VERTEX
 5
33
  8
0
 10
17000
 20
-3600
 0
VERTEX
 5
33
  8
0
 10
28800
 20
-3600
 0
VERTEX
 5
33
  8
0
 10
28800
 20
-5200
 0
VERTEX
 5
33
  8
0
 10
17000
 20
-5200
 0
SEQEND
 5
37
 8
0
0
POLYLINE
5
2B
 8
0
62
0
 6
ACAD_ISO07W100
 66
 1
 10
0
 20
0
 30
0
 70
1
 0
VERTEX
 5
33
  8
0
 10
32400
 20
-16400
 0
VERTEX
 5
33
  8
0
 10
40200
 20
-16400
 0
VERTEX
 5
33
  8
0
 10
40200
 20
-20200
 0
VERTEX
 5
33
  8
0
 10
32400
 20
-20200
 0
SEQEND
 5
37
 8
0
 0
LINE
8
COUCHE_1
 6
CONTINUOUS
62
0
10
35400
20
-19000
11
35400
21
-19200
 0
LINE
8
COUCHE_1
 6
CONTINUOUS
62
0
10
38400
20
-19000
11
38400
21
-19200
0
POLYLINE
5
2B
 8
0
62
0
 6
ACAD_ISO07W100
 66
 1
 10
0
 20
0
 30
0
 70
1
 0
VERTEX
 5
33
  8
0
 10
33200
 20
-16600
 0
VERTEX
 5
33
  8
0
 10
37800
 20
-16600
 0
VERTEX
 5
33
  8
0
 10
37800
 20
-18800
 0
VERTEX
 5
33
  8
0
 10
33200
 20
-18800
 0
SEQEND
 5
37
 8
0
0
POLYLINE
5
2B
 8
0
62
0
 6
ACAD_ISO07W100
 66
 1
 10
0
 20
0
 30
0
 70
1
 0
VERTEX
 5
33
  8
0
 10
38000
 20
-16600
 0
VERTEX
 5
33
  8
0
 10
39000
 20
-16600
 0
VERTEX
 5
33
  8
0
 10
39000
 20
-18800
 0
VERTEX
 5
33
  8
0
 10
38000
 20
-18800
 0
SEQEND
 5
37
 8
0
 0
LINE
8
COUCHE_1
 6
CONTINUOUS
62
0
10
18200
20
-20000
11
18600
21
-20000
 0
LINE
8
COUCHE_1
 6
CONTINUOUS
62
0
10
19000
20
-19000
11
19000
21
-20600
 0
LINE
8
COUCHE_1
 6
CONTINUOUS
62
0
10
18200
20
-19200
11
18800
21
-19800
 0
LINE
8
COUCHE_1
 6
CONTINUOUS
62
0
10
18200
20
-20400
11
18800
21
-19800
 0
LINE
8
COUCHE_1
 6
CONTINUOUS
62
0
10
18200
20
-19200
11
17600
21
-19800
 0
LINE
8
COUCHE_1
 6
CONTINUOUS
62
0
10
18200
20
-20400
11
17600
21
-19800
 0
LINE
8
COUCHE_1
 6
CONTINUOUS
62
0
10
17800
20
-20000
11
18600
21
-20000
 0
LINE
8
COUCHE_1
 6
CONTINUOUS
62
0
10
17400
20
-19000
11
19000
21
-19000
 0
LINE
8
COUCHE_1
 6
CONTINUOUS
62
0
10
19000
20
-19800
11
19600
21
-19800
 0
LINE
8
COUCHE_1
 6
CONTINUOUS
62
0
10
17400
20
-19000
11
17400
21
-20600
 0
LINE
8
COUCHE_1
 6
CONTINUOUS
62
0
10
17400
20
-20600
11
18200
21
-20600
 0
LINE
8
COUCHE_1
 6
CONTINUOUS
62
0
10
18200
20
-20600
11
19000
21
-20600
 0
LINE
8
COUCHE_1
 6
CONTINUOUS
62
0
10
17400
20
-19800
11
17000
21
-19800
 0
LINE
8
COUCHE_1
 6
CONTINUOUS
62
0
10
18200
20
-19000
11
18200
21
-17900
 0
LINE
8
COUCHE_1
 6
CONTINUOUS
62
0
10
18200
20
-19600
11
18600
21
-19600
 0
LINE
8
COUCHE_1
 6
CONTINUOUS
62
0
10
17800
20
-19600
11
18600
21
-19600
0
POLYLINE
5
2B
 8
0
62
1
 6
CONTINUOUS
 66
 1
 10
0
 20
0
 30
0
 70
1
 0
VERTEX
 5
33
  8
0
 10
19800
 20
-19600
 0
VERTEX
 5
33
  8
0
 10
20200
 20
-19600
 0
VERTEX
 5
33
  8
0
 10
20200
 20
-20000
 0
VERTEX
 5
33
  8
0
 10
19800
 20
-20000
 0
SEQEND
 5
37
 8
0
 0
LINE
8
COUCHE_1
 6
CONTINUOUS
62
1
10
20000
20
-19800
11
19200
21
-19800
0
TEXT
8
COUCHE_1
 10
19600
 20
-20000
 11
19600
 21
-20000
 40
100
 1
BN
50
0
 72
0
 73
3
62
0
0
POLYLINE
5
2B
 8
0
62
1
 6
CONTINUOUS
 66
 1
 10
0
 20
0
 30
0
 70
1
 0
VERTEX
 5
33
  8
0
 10
18000
 20
-17800
 0
VERTEX
 5
33
  8
0
 10
18400
 20
-17800
 0
VERTEX
 5
33
  8
0
 10
18400
 20
-18200
 0
VERTEX
 5
33
  8
0
 10
18000
 20
-18200
 0
SEQEND
 5
37
 8
0
 0
LINE
8
COUCHE_1
 6
CONTINUOUS
62
1
10
18200
20
-18000
11
18200
21
-18800
0
TEXT
8
COUCHE_1
 10
18600
 20
-18400
 11
18600
 21
-18400
 40
100
 1
BK
50
0
 72
0
 73
3
62
0
0
POLYLINE
5
2B
 8
0
62
1
 6
CONTINUOUS
 66
 1
 10
0
 20
0
 30
0
 70
1
 0
VERTEX
 5
33
  8
0
 10
16200
 20
-19600
 0
VERTEX
 5
33
  8
0
 10
16600
 20
-19600
 0
VERTEX
 5
33
  8
0
 10
16600
 20
-20000
 0
VERTEX
 5
33
  8
0
 10
16200
 20
-20000
 0
SEQEND
 5
37
 8
0
 0
LINE
8
COUCHE_1
 6
CONTINUOUS
62
1
10
16400
20
-19800
11
17200
21
-19800
0
TEXT
8
COUCHE_1
 10
17100
 20
-19900
 11
17100
 21
-19900
 40
100
 1
BU
50
0
 72
0
 73
3
62
0
0
TEXT
8
COUCHE_1
 10
18200
 20
-21600
 11
18200
 21
-21600
 40
200
 1
Capteur V1.bridage entré
50
0
 72
1
 73
3
62
0
0
TEXT
8
COUCHE_1
 10
17800
 20
-20800
 11
17800
 21
-20800
 40
150
 1
011-1B1-1
50
0
 72
0
 73
3
62
0
 0
LINE
8
COUCHE_1
 6
CONTINUOUS
62
0
10
21200
20
-25200
11
21600
21
-25200
 0
LINE
8
COUCHE_1
 6
CONTINUOUS
62
0
10
22000
20
-24200
11
22000
21
-25800
 0
LINE
8
COUCHE_1
 6
CONTINUOUS
62
0
10
21200
20
-24400
11
21800
21
-25000
 0
LINE
8
COUCHE_1
 6
CONTINUOUS
62
0
10
21200
20
-25600
11
21800
21
-25000
 0
LINE
8
COUCHE_1
 6
CONTINUOUS
62
0
10
21200
20
-24400
11
20600
21
-25000
 0
LINE
8
COUCHE_1
 6
CONTINUOUS
62
0
10
21200
20
-25600
11
20600
21
-25000
 0
LINE
8
COUCHE_1
 6
CONTINUOUS
62
0
10
20800
20
-25200
11
21600
21
-25200
 0
LINE
8
COUCHE_1
 6
CONTINUOUS
62
0
10
20400
20
-24200
11
22000
21
-24200
 0
LINE
8
COUCHE_1
 6
CONTINUOUS
62
0
10
22000
20
-25000
11
22600
21
-25000
 0
LINE
8
COUCHE_1
 6
CONTINUOUS
62
0
10
20400
20
-24200
11
20400
21
-25800
 0
LINE
8
COUCHE_1
 6
CONTINUOUS
62
0
10
20400
20
-25800
11
21200
21
-25800
 0
LINE
8
COUCHE_1
 6
CONTINUOUS
62
0
10
21200
20
-25800
11
22000
21
-25800
 0
LINE
8
COUCHE_1
 6
CONTINUOUS
62
0
10
20400
20
-25000
11
20000
21
-25000
 0
LINE
8
COUCHE_1
 6
CONTINUOUS
62
0
10
21200
20
-24200
11
21200
21
-23100
 0
LINE
8
COUCHE_1
 6
CONTINUOUS
62
0
10
21200
20
-24800
11
21600
21
-24800
 0
LINE
8
COUCHE_1
 6
CONTINUOUS
62
0
10
20800
20
-24800
11
21600
21
-24800
0
POLYLINE
5
2B
 8
0
62
1
 6
CONTINUOUS
 66
 1
 10
0
 20
0
 30
0
 70
1
 0
VERTEX
 5
33
  8
0
 10
22800
 20
-24800
 0
VERTEX
 5
33
  8
0
 10
23200
 20
-24800
 0
VERTEX
 5
33
  8
0
 10
23200
 20
-25200
 0
VERTEX
 5
33
  8
0
 10
22800
 20
-25200
 0
SEQEND
 5
37
 8
0
 0
LINE
8
COUCHE_1
 6
CONTINUOUS
62
1
10
23000
20
-25000
11
22200
21
-25000
0
TEXT
8
COUCHE_1
 10
22600
 20
-25200
 11
22600
 21
-25200
 40
100
 1
BN
50
0
 72
0
 73
3
62
0
0
POLYLINE
5
2B
 8
0
62
1
 6
CONTINUOUS
 66
 1
 10
0
 20
0
 30
0
 70
1
 0
VERTEX
 5
33
  8
0
 10
21000
 20
-23000
 0
VERTEX
 5
33
  8
0
 10
21400
 20
-23000
 0
VERTEX
 5
33
  8
0
 10
21400
 20
-23400
 0
VERTEX
 5
33
  8
0
 10
21000
 20
-23400
 0
SEQEND
 5
37
 8
0
 0
LINE
8
COUCHE_1
 6
CONTINUOUS
62
1
10
21200
20
-23200
11
21200
21
-24000
0
TEXT
8
COUCHE_1
 10
21600
 20
-23600
 11
21600
 21
-23600
 40
100
 1
BK
50
0
 72
0
 73
3
62
0
0
POLYLINE
5
2B
 8
0
62
1
 6
CONTINUOUS
 66
 1
 10
0
 20
0
 30
0
 70
1
 0
VERTEX
 5
33
  8
0
 10
19200
 20
-24800
 0
VERTEX
 5
33
  8
0
 10
19600
 20
-24800
 0
VERTEX
 5
33
  8
0
 10
19600
 20
-25200
 0
VERTEX
 5
33
  8
0
 10
19200
 20
-25200
 0
SEQEND
 5
37
 8
0
 0
LINE
8
COUCHE_1
 6
CONTINUOUS
62
1
10
19400
20
-25000
11
20200
21
-25000
0
TEXT
8
COUCHE_1
 10
20100
 20
-25100
 11
20100
 21
-25100
 40
100
 1
BU
50
0
 72
0
 73
3
62
0
0
TEXT
8
COUCHE_1
 10
21000
 20
-26600
 11
21000
 21
-26600
 40
200
 1
Capteur V1.bridage sorti
50
0
 72
1
 73
3
62
0
0
TEXT
8
COUCHE_1
 10
21000
 20
-26000
 11
21000
 21
-26000
 40
150
 1
011-1B2-1
50
0
 72
0
 73
3
62
0
 0
LINE
8
COUCHE_1
 6
CONTINUOUS
62
0
10
24200
20
-20000
11
24600
21
-20000
 0
LINE
8
COUCHE_1
 6
CONTINUOUS
62
0
10
25000
20
-19000
11
25000
21
-20600
 0
LINE
8
COUCHE_1
 6
CONTINUOUS
62
0
10
24200
20
-19200
11
24800
21
-19800
 0
LINE
8
COUCHE_1
 6
CONTINUOUS
62
0
10
24200
20
-20400
11
24800
21
-19800
 0
LINE
8
COUCHE_1
 6
CONTINUOUS
62
0
10
24200
20
-19200
11
23600
21
-19800
 0
LINE
8
COUCHE_1
 6
CONTINUOUS
62
0
10
24200
20
-20400
11
23600
21
-19800
 0
LINE
8
COUCHE_1
 6
CONTINUOUS
62
0
10
23800
20
-20000
11
24600
21
-20000
 0
LINE
8
COUCHE_1
 6
CONTINUOUS
62
0
10
23400
20
-19000
11
25000
21
-19000
 0
LINE
8
COUCHE_1
 6
CONTINUOUS
62
0
10
25000
20
-19800
11
25600
21
-19800
 0
LINE
8
COUCHE_1
 6
CONTINUOUS
62
0
10
23400
20
-19000
11
23400
21
-20600
 0
LINE
8
COUCHE_1
 6
CONTINUOUS
62
0
10
23400
20
-20600
11
24200
21
-20600
 0
LINE
8
COUCHE_1
 6
CONTINUOUS
62
0
10
24200
20
-20600
11
25000
21
-20600
 0
LINE
8
COUCHE_1
 6
CONTINUOUS
62
0
10
23400
20
-19800
11
23000
21
-19800
 0
LINE
8
COUCHE_1
 6
CONTINUOUS
62
0
10
24200
20
-19000
11
24200
21
-17900
 0
LINE
8
COUCHE_1
 6
CONTINUOUS
62
0
10
24200
20
-19600
11
24600
21
-19600
 0
LINE
8
COUCHE_1
 6
CONTINUOUS
62
0
10
23800
20
-19600
11
24600
21
-19600
0
POLYLINE
5
2B
 8
0
62
1
 6
CONTINUOUS
 66
 1
 10
0
 20
0
 30
0
 70
1
 0
VERTEX
 5
33
  8
0
 10
25800
 20
-19600
 0
VERTEX
 5
33
  8
0
 10
26200
 20
-19600
 0
VERTEX
 5
33
  8
0
 10
26200
 20
-20000
 0
VERTEX
 5
33
  8
0
 10
25800
 20
-20000
 0
SEQEND
 5
37
 8
0
 0
LINE
8
COUCHE_1
 6
CONTINUOUS
62
1
10
26000
20
-19800
11
25200
21
-19800
0
TEXT
8
COUCHE_1
 10
25600
 20
-20000
 11
25600
 21
-20000
 40
100
 1
BN
50
0
 72
0
 73
3
62
0
0
POLYLINE
5
2B
 8
0
62
1
 6
CONTINUOUS
 66
 1
 10
0
 20
0
 30
0
 70
1
 0
VERTEX
 5
33
  8
0
 10
24000
 20
-17800
 0
VERTEX
 5
33
  8
0
 10
24400
 20
-17800
 0
VERTEX
 5
33
  8
0
 10
24400
 20
-18200
 0
VERTEX
 5
33
  8
0
 10
24000
 20
-18200
 0
SEQEND
 5
37
 8
0
 0
LINE
8
COUCHE_1
 6
CONTINUOUS
62
1
10
24200
20
-18000
11
24200
21
-18800
0
TEXT
8
COUCHE_1
 10
24600
 20
-18400
 11
24600
 21
-18400
 40
100
 1
BK
50
0
 72
0
 73
3
62
0
0
POLYLINE
5
2B
 8
0
62
1
 6
CONTINUOUS
 66
 1
 10
0
 20
0
 30
0
 70
1
 0
VERTEX
 5
33
  8
0
 10
22200
 20
-19600
 0
VERTEX
 5
33
  8
0
 10
22600
 20
-19600
 0
VERTEX
 5
33
  8
0
 10
22600
 20
-20000
 0
VERTEX
 5
33
  8
0
 10
22200
 20
-20000
 0
SEQEND
 5
37
 8
0
 0
LINE
8
COUCHE_1
 6
CONTINUOUS
62
1
10
22400
20
-19800
11
23200
21
-19800
0
TEXT
8
COUCHE_1
 10
23100
 20
-19900
 11
23100
 21
-19900
 40
100
 1
BU
50
0
 72
0
 73
3
62
0
0
TEXT
8
COUCHE_1
 10
24200
 20
-21400
 11
24200
 21
-21400
 40
200
 1
Capteur V.marquage sorti
50
0
 72
1
 73
3
62
0
0
TEXT
8
COUCHE_1
 10
24000
 20
-20800
 11
24000
 21
-20800
 40
150
 1
011-2B2
50
0
 72
0
 73
3
62
0
 0
LINE
8
COUCHE_1
 6
CONTINUOUS
62
0
10
27200
20
-25200
11
27600
21
-25200
 0
LINE
8
COUCHE_1
 6
CONTINUOUS
62
0
10
28000
20
-24200
11
28000
21
-25800
 0
LINE
8
COUCHE_1
 6
CONTINUOUS
62
0
10
27200
20
-24400
11
27800
21
-25000
 0
LINE
8
COUCHE_1
 6
CONTINUOUS
62
0
10
27200
20
-25600
11
27800
21
-25000
 0
LINE
8
COUCHE_1
 6
CONTINUOUS
62
0
10
27200
20
-24400
11
26600
21
-25000
 0
LINE
8
COUCHE_1
 6
CONTINUOUS
62
0
10
27200
20
-25600
11
26600
21
-25000
 0
LINE
8
COUCHE_1
 6
CONTINUOUS
62
0
10
26800
20
-25200
11
27600
21
-25200
 0
LINE
8
COUCHE_1
 6
CONTINUOUS
62
0
10
26400
20
-24200
11
28000
21
-24200
 0
LINE
8
COUCHE_1
 6
CONTINUOUS
62
0
10
28000
20
-25000
11
28600
21
-25000
 0
LINE
8
COUCHE_1
 6
CONTINUOUS
62
0
10
26400
20
-24200
11
26400
21
-25800
 0
LINE
8
COUCHE_1
 6
CONTINUOUS
62
0
10
26400
20
-25800
11
27200
21
-25800
 0
LINE
8
COUCHE_1
 6
CONTINUOUS
62
0
10
27200
20
-25800
11
28000
21
-25800
 0
LINE
8
COUCHE_1
 6
CONTINUOUS
62
0
10
26400
20
-25000
11
26000
21
-25000
 0
LINE
8
COUCHE_1
 6
CONTINUOUS
62
0
10
27200
20
-24200
11
27200
21
-23100
 0
LINE
8
COUCHE_1
 6
CONTINUOUS
62
0
10
27200
20
-24800
11
27600
21
-24800
 0
LINE
8
COUCHE_1
 6
CONTINUOUS
62
0
10
26800
20
-24800
11
27600
21
-24800
0
POLYLINE
5
2B
 8
0
62
1
 6
CONTINUOUS
 66
 1
 10
0
 20
0
 30
0
 70
1
 0
VERTEX
 5
33
  8
0
 10
28800
 20
-24800
 0
VERTEX
 5
33
  8
0
 10
29200
 20
-24800
 0
VERTEX
 5
33
  8
0
 10
29200
 20
-25200
 0
VERTEX
 5
33
  8
0
 10
28800
 20
-25200
 0
SEQEND
 5
37
 8
0
 0
LINE
8
COUCHE_1
 6
CONTINUOUS
62
1
10
29000
20
-25000
11
28200
21
-25000
0
TEXT
8
COUCHE_1
 10
28600
 20
-25200
 11
28600
 21
-25200
 40
100
 1
BN
50
0
 72
0
 73
3
62
0
0
POLYLINE
5
2B
 8
0
62
1
 6
CONTINUOUS
 66
 1
 10
0
 20
0
 30
0
 70
1
 0
VERTEX
 5
33
  8
0
 10
27000
 20
-23000
 0
VERTEX
 5
33
  8
0
 10
27400
 20
-23000
 0
VERTEX
 5
33
  8
0
 10
27400
 20
-23400
 0
VERTEX
 5
33
  8
0
 10
27000
 20
-23400
 0
SEQEND
 5
37
 8
0
 0
LINE
8
COUCHE_1
 6
CONTINUOUS
62
1
10
27200
20
-23200
11
27200
21
-24000
0
TEXT
8
COUCHE_1
 10
27600
 20
-23600
 11
27600
 21
-23600
 40
100
 1
BK
50
0
 72
0
 73
3
62
0
0
POLYLINE
5
2B
 8
0
62
1
 6
CONTINUOUS
 66
 1
 10
0
 20
0
 30
0
 70
1
 0
VERTEX
 5
33
  8
0
 10
25200
 20
-24800
 0
VERTEX
 5
33
  8
0
 10
25600
 20
-24800
 0
VERTEX
 5
33
  8
0
 10
25600
 20
-25200
 0
VERTEX
 5
33
  8
0
 10
25200
 20
-25200
 0
SEQEND
 5
37
 8
0
 0
LINE
8
COUCHE_1
 6
CONTINUOUS
62
1
10
25400
20
-25000
11
26200
21
-25000
0
TEXT
8
COUCHE_1
 10
26100
 20
-25100
 11
26100
 21
-25100
 40
100
 1
BU
50
0
 72
0
 73
3
62
0
0
TEXT
8
COUCHE_1
 10
27000
 20
-26600
 11
27000
 21
-26600
 40
200
 1
Capteur posage
50
0
 72
1
 73
3
62
0
0
TEXT
8
COUCHE_1
 10
27000
 20
-26000
 11
27000
 21
-26000
 40
150
 1
BPO
50
0
 72
0
 73
3
62
0
 0
LINE
8
COUCHE_1
 6
CONTINUOUS
62
0
10
23200
20
-12200
11
23200
21
-12600
 0
LINE
8
COUCHE_1
 6
CONTINUOUS
62
0
10
24200
20
-12200
11
24200
21
-12600
 0
LINE
8
COUCHE_1
 6
CONTINUOUS
62
0
10
25200
20
-12200
11
25200
21
-12600
 0
LINE
8
COUCHE_1
 6
CONTINUOUS
62
0
10
26200
20
-12200
11
26200
21
-12600
 0
LINE
8
COUCHE_1
 6
CONTINUOUS
62
0
10
27200
20
-12200
11
27200
21
-12600
 0
LINE
8
COUCHE_1
 6
CONTINUOUS
62
0
10
28200
20
-12200
11
28200
21
-12600
 0
LINE
8
COUCHE_1
 6
CONTINUOUS
62
0
10
28800
20
-11400
11
10600
21
-11400
 0
LINE
8
COUCHE_1
 6
CONTINUOUS
62
0
10
28800
20
-11400
11
28800
21
-13000
 0
LINE
8
COUCHE_1
 6
CONTINUOUS
62
0
10
28800
20
-13000
11
10600
21
-13000
 0
LINE
8
COUCHE_1
 6
CONTINUOUS
62
0
10
10600
20
-13000
11
10600
21
-11400
 0
LINE
8
COUCHE_1
 6
CONTINUOUS
62
0
10
17200
20
-12600
11
17200
21
-12200
 0
LINE
8
COUCHE_1
 6
CONTINUOUS
62
0
10
18200
20
-12200
11
18200
21
-12600
 0
LINE
8
COUCHE_1
 6
CONTINUOUS
62
0
10
19200
20
-12200
11
19200
21
-12600
 0
LINE
8
COUCHE_1
 6
CONTINUOUS
62
0
10
20200
20
-12200
11
20200
21
-12600
 0
LINE
8
COUCHE_1
 6
CONTINUOUS
62
0
10
21200
20
-12200
11
21200
21
-12600
 0
LINE
8
COUCHE_1
 6
CONTINUOUS
62
0
10
22200
20
-12200
11
22200
21
-12600
 0
LINE
8
COUCHE_1
 6
CONTINUOUS
62
0
10
11200
20
-12600
11
11200
21
-12200
 0
LINE
8
COUCHE_1
 6
CONTINUOUS
62
0
10
12200
20
-12200
11
12200
21
-12600
 0
LINE
8
COUCHE_1
 6
CONTINUOUS
62
0
10
13200
20
-12200
11
13200
21
-12600
 0
LINE
8
COUCHE_1
 6
CONTINUOUS
62
0
10
14200
20
-12200
11
14200
21
-12600
 0
LINE
8
COUCHE_1
 6
CONTINUOUS
62
0
10
15200
20
-12200
11
15200
21
-12600
 0
LINE
8
COUCHE_1
 6
CONTINUOUS
62
0
10
16200
20
-12200
11
16200
21
-12600
 0
ARC
8
COUCHE_1
62
0
10
23200
20
-12200
40
400
50
0
51
180
 0
ARC
8
COUCHE_1
62
0
10
24200
20
-12200
40
400
50
0
51
180
 0
ARC
8
COUCHE_1
62
0
10
25200
20
-12200
40
400
50
0
51
180
 0
ARC
8
COUCHE_1
62
0
10
26200
20
-12200
40
400
50
0
51
180
 0
ARC
8
COUCHE_1
62
0
10
27200
20
-12200
40
400
50
0
51
180
 0
ARC
8
COUCHE_1
62
0
10
28200
20
-12200
40
400
50
0
51
180
 0
ARC
8
COUCHE_1
62
0
10
17200
20
-12200
40
400
50
0
51
180
 0
ARC
8
COUCHE_1
62
0
10
18200
20
-12200
40
400
50
0
51
180
 0
ARC
8
COUCHE_1
62
0
10
19200
20
-12200
40
400
50
0
51
180
 0
ARC
8
COUCHE_1
62
0
10
20200
20
-12200
40
400
50
0
51
180
 0
ARC
8
COUCHE_1
62
0
10
21200
20
-12200
40
400
50
0
51
180
 0
ARC
8
COUCHE_1
62
0
10
22200
20
-12200
40
400
50
0
51
180
 0
ARC
8
COUCHE_1
62
0
10
11200
20
-12200
40
400
50
0
51
180
 0
ARC
8
COUCHE_1
62
0
10
12200
20
-12200
40
400
50
0
51
180
 0
ARC
8
COUCHE_1
62
0
10
13200
20
-12200
40
400
50
0
51
180
 0
ARC
8
COUCHE_1
62
0
10
14200
20
-12200
40
400
50
0
51
180
 0
ARC
8
COUCHE_1
62
0
10
15200
20
-12200
40
400
50
0
51
180
 0
ARC
8
COUCHE_1
62
0
10
16200
20
-12200
40
400
50
0
51
180
0
POLYLINE
5
2B
 8
0
62
1
 6
CONTINUOUS
 66
 1
 10
0
 20
0
 30
0
 70
1
 0
VERTEX
 5
33
  8
0
 10
24000
 20
-11200
 0
VERTEX
 5
33
  8
0
 10
24400
 20
-11200
 0
VERTEX
 5
33
  8
0
 10
24400
 20
-11600
 0
VERTEX
 5
33
  8
0
 10
24000
 20
-11600
 0
SEQEND
 5
37
 8
0
 0
LINE
8
COUCHE_1
 6
CONTINUOUS
62
1
10
24200
20
-11400
11
24200
21
-11400
0
TEXT
8
COUCHE_1
 10
24600
 20
-10800
 11
24600
 21
-10800
 40
400
 1

50
0
 72
0
 73
3
62
0
0
TEXT
8
COUCHE_1
 10
24600
 20
-11400
 11
24600
 21
-11400
 40
400
 1

50
0
 72
0
 73
3
62
0
0
POLYLINE
5
2B
 8
0
62
1
 6
CONTINUOUS
 66
 1
 10
0
 20
0
 30
0
 70
1
 0
VERTEX
 5
33
  8
0
 10
25000
 20
-11200
 0
VERTEX
 5
33
  8
0
 10
25400
 20
-11200
 0
VERTEX
 5
33
  8
0
 10
25400
 20
-11600
 0
VERTEX
 5
33
  8
0
 10
25000
 20
-11600
 0
SEQEND
 5
37
 8
0
 0
LINE
8
COUCHE_1
 6
CONTINUOUS
62
1
10
25200
20
-11400
11
25200
21
-11400
0
TEXT
8
COUCHE_1
 10
25600
 20
-10800
 11
25600
 21
-10800
 40
600
 1

50
0
 72
0
 73
3
62
0
0
TEXT
8
COUCHE_1
 10
25600
 20
-11400
 11
25600
 21
-11400
 40
400
 1

50
0
 72
0
 73
3
62
0
0
POLYLINE
5
2B
 8
0
62
1
 6
CONTINUOUS
 66
 1
 10
0
 20
0
 30
0
 70
1
 0
VERTEX
 5
33
  8
0
 10
23000
 20
-11200
 0
VERTEX
 5
33
  8
0
 10
23400
 20
-11200
 0
VERTEX
 5
33
  8
0
 10
23400
 20
-11600
 0
VERTEX
 5
33
  8
0
 10
23000
 20
-11600
 0
SEQEND
 5
37
 8
0
 0
LINE
8
COUCHE_1
 6
CONTINUOUS
62
1
10
23200
20
-11400
11
23200
21
-11400
0
TEXT
8
COUCHE_1
 10
23600
 20
-10800
 11
23600
 21
-10800
 40
600
 1

50
0
 72
0
 73
3
62
0
0
TEXT
8
COUCHE_1
 10
23600
 20
-11400
 11
23600
 21
-11400
 40
400
 1

50
0
 72
0
 73
3
62
0
0
POLYLINE
5
2B
 8
0
62
1
 6
CONTINUOUS
 66
 1
 10
0
 20
0
 30
0
 70
1
 0
VERTEX
 5
33
  8
0
 10
27000
 20
-11200
 0
VERTEX
 5
33
  8
0
 10
27400
 20
-11200
 0
VERTEX
 5
33
  8
0
 10
27400
 20
-11600
 0
VERTEX
 5
33
  8
0
 10
27000
 20
-11600
 0
SEQEND
 5
37
 8
0
 0
LINE
8
COUCHE_1
 6
CONTINUOUS
62
1
10
27200
20
-11400
11
27200
21
-11400
0
TEXT
8
COUCHE_1
 10
27600
 20
-10800
 11
27600
 21
-10800
 40
600
 1

50
0
 72
0
 73
3
62
0
0
TEXT
8
COUCHE_1
 10
27600
 20
-11400
 11
27600
 21
-11400
 40
400
 1

50
0
 72
0
 73
3
62
0
0
POLYLINE
5
2B
 8
0
62
1
 6
CONTINUOUS
 66
 1
 10
0
 20
0
 30
0
 70
1
 0
VERTEX
 5
33
  8
0
 10
28000
 20
-11200
 0
VERTEX
 5
33
  8
0
 10
28400
 20
-11200
 0
VERTEX
 5
33
  8
0
 10
28400
 20
-11600
 0
VERTEX
 5
33
  8
0
 10
28000
 20
-11600
 0
SEQEND
 5
37
 8
0
 0
LINE
8
COUCHE_1
 6
CONTINUOUS
62
1
10
28200
20
-11400
11
28200
21
-11400
0
TEXT
8
COUCHE_1
 10
28600
 20
-10800
 11
28600
 21
-10800
 40
600
 1

50
0
 72
0
 73
3
62
0
0
TEXT
8
COUCHE_1
 10
28600
 20
-11400
 11
28600
 21
-11400
 40
400
 1

50
0
 72
0
 73
3
62
0
0
POLYLINE
5
2B
 8
0
62
1
 6
CONTINUOUS
 66
 1
 10
0
 20
0
 30
0
 70
1
 0
VERTEX
 5
33
  8
0
 10
24000
 20
-12800
 0
VERTEX
 5
33
  8
0
 10
24400
 20
-12800
 0
VERTEX
 5
33
  8
0
 10
24400
 20
-13200
 0
VERTEX
 5
33
  8
0
 10
24000
 20
-13200
 0
SEQEND
 5
37
 8
0
 0
LINE
8
COUCHE_1
 6
CONTINUOUS
62
1
10
24200
20
-13000
11
24200
21
-13000
0
TEXT
8
COUCHE_1
 10
24600
 20
-12400
 11
24600
 21
-12400
 40
600
 1

50
0
 72
0
 73
3
62
0
0
TEXT
8
COUCHE_1
 10
24600
 20
-11800
 11
24600
 21
-11800
 40
600
 1
 
50
0
 72
0
 73
3
62
0
0
POLYLINE
5
2B
 8
0
62
1
 6
CONTINUOUS
 66
 1
 10
0
 20
0
 30
0
 70
1
 0
VERTEX
 5
33
  8
0
 10
26000
 20
-11200
 0
VERTEX
 5
33
  8
0
 10
26400
 20
-11200
 0
VERTEX
 5
33
  8
0
 10
26400
 20
-11600
 0
VERTEX
 5
33
  8
0
 10
26000
 20
-11600
 0
SEQEND
 5
37
 8
0
 0
LINE
8
COUCHE_1
 6
CONTINUOUS
62
1
10
26200
20
-11400
11
26200
21
-11400
0
TEXT
8
COUCHE_1
 10
26600
 20
-10800
 11
26600
 21
-10800
 40
600
 1

50
0
 72
0
 73
3
62
0
0
TEXT
8
COUCHE_1
 10
26600
 20
-10200
 11
26600
 21
-10200
 40
600
 1
 
50
0
 72
0
 73
3
62
0
0
POLYLINE
5
2B
 8
0
62
1
 6
CONTINUOUS
 66
 1
 10
0
 20
0
 30
0
 70
1
 0
VERTEX
 5
33
  8
0
 10
26000
 20
-12800
 0
VERTEX
 5
33
  8
0
 10
26400
 20
-12800
 0
VERTEX
 5
33
  8
0
 10
26400
 20
-13200
 0
VERTEX
 5
33
  8
0
 10
26000
 20
-13200
 0
SEQEND
 5
37
 8
0
 0
LINE
8
COUCHE_1
 6
CONTINUOUS
62
1
10
26200
20
-13000
11
26200
21
-13000
0
TEXT
8
COUCHE_1
 10
26600
 20
-12400
 11
26600
 21
-12400
 40
600
 1

50
0
 72
0
 73
3
62
0
0
TEXT
8
COUCHE_1
 10
26600
 20
-11800
 11
26600
 21
-11800
 40
600
 1
 
50
0
 72
0
 73
3
62
0
0
POLYLINE
5
2B
 8
0
62
1
 6
CONTINUOUS
 66
 1
 10
0
 20
0
 30
0
 70
1
 0
VERTEX
 5
33
  8
0
 10
27000
 20
-12800
 0
VERTEX
 5
33
  8
0
 10
27400
 20
-12800
 0
VERTEX
 5
33
  8
0
 10
27400
 20
-13200
 0
VERTEX
 5
33
  8
0
 10
27000
 20
-13200
 0
SEQEND
 5
37
 8
0
 0
LINE
8
COUCHE_1
 6
CONTINUOUS
62
1
10
27200
20
-13000
11
27200
21
-13000
0
TEXT
8
COUCHE_1
 10
27600
 20
-12400
 11
27600
 21
-12400
 40
600
 1

50
0
 72
0
 73
3
62
0
0
TEXT
8
COUCHE_1
 10
27600
 20
-11800
 11
27600
 21
-11800
 40
600
 1
 
50
0
 72
0
 73
3
62
0
0
POLYLINE
5
2B
 8
0
62
1
 6
CONTINUOUS
 66
 1
 10
0
 20
0
 30
0
 70
1
 0
VERTEX
 5
33
  8
0
 10
28000
 20
-12800
 0
VERTEX
 5
33
  8
0
 10
28400
 20
-12800
 0
VERTEX
 5
33
  8
0
 10
28400
 20
-13200
 0
VERTEX
 5
33
  8
0
 10
28000
 20
-13200
 0
SEQEND
 5
37
 8
0
 0
LINE
8
COUCHE_1
 6
CONTINUOUS
62
1
10
28200
20
-13000
11
28200
21
-13000
0
TEXT
8
COUCHE_1
 10
28600
 20
-12400
 11
28600
 21
-12400
 40
600
 1

50
0
 72
0
 73
3
62
0
0
TEXT
8
COUCHE_1
 10
28200
 20
-11800
 11
28200
 21
-11800
 40
600
 1
 
50
0
 72
0
 73
3
62
0
0
POLYLINE
5
2B
 8
0
62
1
 6
CONTINUOUS
 66
 1
 10
0
 20
0
 30
0
 70
1
 0
VERTEX
 5
33
  8
0
 10
19000
 20
-12800
 0
VERTEX
 5
33
  8
0
 10
19400
 20
-12800
 0
VERTEX
 5
33
  8
0
 10
19400
 20
-13200
 0
VERTEX
 5
33
  8
0
 10
19000
 20
-13200
 0
SEQEND
 5
37
 8
0
 0
LINE
8
COUCHE_1
 6
CONTINUOUS
62
1
10
19200
20
-13000
11
19200
21
-13000
0
TEXT
8
COUCHE_1
 10
19600
 20
-12400
 11
19600
 21
-12400
 40
600
 1

50
0
 72
0
 73
3
62
0
0
TEXT
8
COUCHE_1
 10
19600
 20
-11800
 11
19600
 21
-11800
 40
600
 1
 
50
0
 72
0
 73
3
62
0
0
POLYLINE
5
2B
 8
0
62
1
 6
CONTINUOUS
 66
 1
 10
0
 20
0
 30
0
 70
1
 0
VERTEX
 5
33
  8
0
 10
20000
 20
-12800
 0
VERTEX
 5
33
  8
0
 10
20400
 20
-12800
 0
VERTEX
 5
33
  8
0
 10
20400
 20
-13200
 0
VERTEX
 5
33
  8
0
 10
20000
 20
-13200
 0
SEQEND
 5
37
 8
0
 0
LINE
8
COUCHE_1
 6
CONTINUOUS
62
1
10
20200
20
-13000
11
20200
21
-13000
0
TEXT
8
COUCHE_1
 10
20600
 20
-12400
 11
20600
 21
-12400
 40
600
 1

50
0
 72
0
 73
3
62
0
0
TEXT
8
COUCHE_1
 10
20600
 20
-11800
 11
20600
 21
-11800
 40
600
 1
 
50
0
 72
0
 73
3
62
0
0
POLYLINE
5
2B
 8
0
62
1
 6
CONTINUOUS
 66
 1
 10
0
 20
0
 30
0
 70
1
 0
VERTEX
 5
33
  8
0
 10
21000
 20
-12800
 0
VERTEX
 5
33
  8
0
 10
21400
 20
-12800
 0
VERTEX
 5
33
  8
0
 10
21400
 20
-13200
 0
VERTEX
 5
33
  8
0
 10
21000
 20
-13200
 0
SEQEND
 5
37
 8
0
 0
LINE
8
COUCHE_1
 6
CONTINUOUS
62
1
10
21200
20
-13000
11
21200
21
-13000
0
TEXT
8
COUCHE_1
 10
21600
 20
-12400
 11
21600
 21
-12400
 40
600
 1

50
0
 72
0
 73
3
62
0
0
TEXT
8
COUCHE_1
 10
21600
 20
-11800
 11
21600
 21
-11800
 40
600
 1
 
50
0
 72
0
 73
3
62
0
0
POLYLINE
5
2B
 8
0
62
1
 6
CONTINUOUS
 66
 1
 10
0
 20
0
 30
0
 70
1
 0
VERTEX
 5
33
  8
0
 10
22000
 20
-12800
 0
VERTEX
 5
33
  8
0
 10
22400
 20
-12800
 0
VERTEX
 5
33
  8
0
 10
22400
 20
-13200
 0
VERTEX
 5
33
  8
0
 10
22000
 20
-13200
 0
SEQEND
 5
37
 8
0
 0
LINE
8
COUCHE_1
 6
CONTINUOUS
62
1
10
22200
20
-13000
11
22200
21
-13000
0
TEXT
8
COUCHE_1
 10
22600
 20
-12400
 11
22600
 21
-12400
 40
600
 1

50
0
 72
0
 73
3
62
0
0
TEXT
8
COUCHE_1
 10
22600
 20
-11800
 11
22600
 21
-11800
 40
600
 1
 
50
0
 72
0
 73
3
62
0
0
POLYLINE
5
2B
 8
0
62
1
 6
CONTINUOUS
 66
 1
 10
0
 20
0
 30
0
 70
1
 0
VERTEX
 5
33
  8
0
 10
23000
 20
-12800
 0
VERTEX
 5
33
  8
0
 10
23400
 20
-12800
 0
VERTEX
 5
33
  8
0
 10
23400
 20
-13200
 0
VERTEX
 5
33
  8
0
 10
23000
 20
-13200
 0
SEQEND
 5
37
 8
0
 0
LINE
8
COUCHE_1
 6
CONTINUOUS
62
1
10
23200
20
-13000
11
23200
21
-13000
0
TEXT
8
COUCHE_1
 10
23600
 20
-12400
 11
23600
 21
-12400
 40
600
 1

50
0
 72
0
 73
3
62
0
0
TEXT
8
COUCHE_1
 10
23600
 20
-11800
 11
23600
 21
-11800
 40
600
 1
 
50
0
 72
0
 73
3
62
0
0
POLYLINE
5
2B
 8
0
62
1
 6
CONTINUOUS
 66
 1
 10
0
 20
0
 30
0
 70
1
 0
VERTEX
 5
33
  8
0
 10
25000
 20
-12800
 0
VERTEX
 5
33
  8
0
 10
25400
 20
-12800
 0
VERTEX
 5
33
  8
0
 10
25400
 20
-13200
 0
VERTEX
 5
33
  8
0
 10
25000
 20
-13200
 0
SEQEND
 5
37
 8
0
 0
LINE
8
COUCHE_1
 6
CONTINUOUS
62
1
10
25200
20
-13000
11
25200
21
-13000
0
TEXT
8
COUCHE_1
 10
25600
 20
-12400
 11
25600
 21
-12400
 40
600
 1

50
0
 72
0
 73
3
62
0
0
TEXT
8
COUCHE_1
 10
25200
 20
-11800
 11
25200
 21
-11800
 40
600
 1
 
50
0
 72
0
 73
3
62
0
0
POLYLINE
5
2B
 8
0
62
1
 6
CONTINUOUS
 66
 1
 10
0
 20
0
 30
0
 70
1
 0
VERTEX
 5
33
  8
0
 10
17000
 20
-11200
 0
VERTEX
 5
33
  8
0
 10
17400
 20
-11200
 0
VERTEX
 5
33
  8
0
 10
17400
 20
-11600
 0
VERTEX
 5
33
  8
0
 10
17000
 20
-11600
 0
SEQEND
 5
37
 8
0
 0
LINE
8
COUCHE_1
 6
CONTINUOUS
62
1
10
17200
20
-11400
11
17200
21
-11400
0
TEXT
8
COUCHE_1
 10
17600
 20
-10800
 11
17600
 21
-10800
 40
600
 1

50
0
 72
0
 73
3
62
0
0
TEXT
8
COUCHE_1
 10
17600
 20
-10200
 11
17600
 21
-10200
 40
600
 1
 
50
0
 72
0
 73
3
62
0
0
POLYLINE
5
2B
 8
0
62
1
 6
CONTINUOUS
 66
 1
 10
0
 20
0
 30
0
 70
1
 0
VERTEX
 5
33
  8
0
 10
18000
 20
-11200
 0
VERTEX
 5
33
  8
0
 10
18400
 20
-11200
 0
VERTEX
 5
33
  8
0
 10
18400
 20
-11600
 0
VERTEX
 5
33
  8
0
 10
18000
 20
-11600
 0
SEQEND
 5
37
 8
0
 0
LINE
8
COUCHE_1
 6
CONTINUOUS
62
1
10
18200
20
-11400
11
18200
21
-11400
0
TEXT
8
COUCHE_1
 10
18600
 20
-10800
 11
18600
 21
-10800
 40
600
 1

50
0
 72
0
 73
3
62
0
0
TEXT
8
COUCHE_1
 10
18600
 20
-10200
 11
18600
 21
-10200
 40
600
 1
 
50
0
 72
0
 73
3
62
0
0
POLYLINE
5
2B
 8
0
62
1
 6
CONTINUOUS
 66
 1
 10
0
 20
0
 30
0
 70
1
 0
VERTEX
 5
33
  8
0
 10
19000
 20
-11200
 0
VERTEX
 5
33
  8
0
 10
19400
 20
-11200
 0
VERTEX
 5
33
  8
0
 10
19400
 20
-11600
 0
VERTEX
 5
33
  8
0
 10
19000
 20
-11600
 0
SEQEND
 5
37
 8
0
 0
LINE
8
COUCHE_1
 6
CONTINUOUS
62
1
10
19200
20
-11400
11
19200
21
-11400
0
TEXT
8
COUCHE_1
 10
19600
 20
-10800
 11
19600
 21
-10800
 40
600
 1

50
0
 72
0
 73
3
62
0
0
TEXT
8
COUCHE_1
 10
19600
 20
-10200
 11
19600
 21
-10200
 40
600
 1
 
50
0
 72
0
 73
3
62
0
0
POLYLINE
5
2B
 8
0
62
1
 6
CONTINUOUS
 66
 1
 10
0
 20
0
 30
0
 70
1
 0
VERTEX
 5
33
  8
0
 10
20000
 20
-11200
 0
VERTEX
 5
33
  8
0
 10
20400
 20
-11200
 0
VERTEX
 5
33
  8
0
 10
20400
 20
-11600
 0
VERTEX
 5
33
  8
0
 10
20000
 20
-11600
 0
SEQEND
 5
37
 8
0
 0
LINE
8
COUCHE_1
 6
CONTINUOUS
62
1
10
20200
20
-11400
11
20200
21
-11400
0
TEXT
8
COUCHE_1
 10
20600
 20
-10800
 11
20600
 21
-10800
 40
600
 1

50
0
 72
0
 73
3
62
0
0
TEXT
8
COUCHE_1
 10
20600
 20
-10200
 11
20600
 21
-10200
 40
600
 1
 
50
0
 72
0
 73
3
62
0
0
POLYLINE
5
2B
 8
0
62
1
 6
CONTINUOUS
 66
 1
 10
0
 20
0
 30
0
 70
1
 0
VERTEX
 5
33
  8
0
 10
21000
 20
-11200
 0
VERTEX
 5
33
  8
0
 10
21400
 20
-11200
 0
VERTEX
 5
33
  8
0
 10
21400
 20
-11600
 0
VERTEX
 5
33
  8
0
 10
21000
 20
-11600
 0
SEQEND
 5
37
 8
0
 0
LINE
8
COUCHE_1
 6
CONTINUOUS
62
1
10
21200
20
-11400
11
21200
21
-11400
0
TEXT
8
COUCHE_1
 10
21600
 20
-10800
 11
21600
 21
-10800
 40
600
 1

50
0
 72
0
 73
3
62
0
0
TEXT
8
COUCHE_1
 10
21600
 20
-10200
 11
21600
 21
-10200
 40
600
 1
 
50
0
 72
0
 73
3
62
0
0
POLYLINE
5
2B
 8
0
62
1
 6
CONTINUOUS
 66
 1
 10
0
 20
0
 30
0
 70
1
 0
VERTEX
 5
33
  8
0
 10
22000
 20
-11200
 0
VERTEX
 5
33
  8
0
 10
22400
 20
-11200
 0
VERTEX
 5
33
  8
0
 10
22400
 20
-11600
 0
VERTEX
 5
33
  8
0
 10
22000
 20
-11600
 0
SEQEND
 5
37
 8
0
 0
LINE
8
COUCHE_1
 6
CONTINUOUS
62
1
10
22200
20
-11400
11
22200
21
-11400
0
TEXT
8
COUCHE_1
 10
22600
 20
-10800
 11
22600
 21
-10800
 40
600
 1

50
0
 72
0
 73
3
62
0
0
TEXT
8
COUCHE_1
 10
22200
 20
-10200
 11
22200
 21
-10200
 40
600
 1
 
50
0
 72
0
 73
3
62
0
0
POLYLINE
5
2B
 8
0
62
1
 6
CONTINUOUS
 66
 1
 10
0
 20
0
 30
0
 70
1
 0
VERTEX
 5
33
  8
0
 10
17000
 20
-12800
 0
VERTEX
 5
33
  8
0
 10
17400
 20
-12800
 0
VERTEX
 5
33
  8
0
 10
17400
 20
-13200
 0
VERTEX
 5
33
  8
0
 10
17000
 20
-13200
 0
SEQEND
 5
37
 8
0
 0
LINE
8
COUCHE_1
 6
CONTINUOUS
62
1
10
17200
20
-13000
11
17200
21
-13000
0
TEXT
8
COUCHE_1
 10
17600
 20
-12400
 11
17600
 21
-12400
 40
600
 1

50
0
 72
0
 73
3
62
0
0
TEXT
8
COUCHE_1
 10
17600
 20
-11800
 11
17600
 21
-11800
 40
600
 1
 
50
0
 72
0
 73
3
62
0
0
POLYLINE
5
2B
 8
0
62
1
 6
CONTINUOUS
 66
 1
 10
0
 20
0
 30
0
 70
1
 0
VERTEX
 5
33
  8
0
 10
18000
 20
-12800
 0
VERTEX
 5
33
  8
0
 10
18400
 20
-12800
 0
VERTEX
 5
33
  8
0
 10
18400
 20
-13200
 0
VERTEX
 5
33
  8
0
 10
18000
 20
-13200
 0
SEQEND
 5
37
 8
0
 0
LINE
8
COUCHE_1
 6
CONTINUOUS
62
1
10
18200
20
-13000
11
18200
21
-13000
0
TEXT
8
COUCHE_1
 10
18600
 20
-12400
 11
18600
 21
-12400
 40
600
 1

50
0
 72
0
 73
3
62
0
0
TEXT
8
COUCHE_1
 10
18600
 20
-11800
 11
18600
 21
-11800
 40
600
 1
 
50
0
 72
0
 73
3
62
0
0
POLYLINE
5
2B
 8
0
62
1
 6
CONTINUOUS
 66
 1
 10
0
 20
0
 30
0
 70
1
 0
VERTEX
 5
33
  8
0
 10
13000
 20
-12800
 0
VERTEX
 5
33
  8
0
 10
13400
 20
-12800
 0
VERTEX
 5
33
  8
0
 10
13400
 20
-13200
 0
VERTEX
 5
33
  8
0
 10
13000
 20
-13200
 0
SEQEND
 5
37
 8
0
 0
LINE
8
COUCHE_1
 6
CONTINUOUS
62
1
10
13200
20
-13000
11
13200
21
-13000
0
TEXT
8
COUCHE_1
 10
13600
 20
-12400
 11
13600
 21
-12400
 40
600
 1

50
0
 72
0
 73
3
62
0
0
TEXT
8
COUCHE_1
 10
13600
 20
-11800
 11
13600
 21
-11800
 40
600
 1
 
50
0
 72
0
 73
3
62
0
0
POLYLINE
5
2B
 8
0
62
1
 6
CONTINUOUS
 66
 1
 10
0
 20
0
 30
0
 70
1
 0
VERTEX
 5
33
  8
0
 10
14000
 20
-12800
 0
VERTEX
 5
33
  8
0
 10
14400
 20
-12800
 0
VERTEX
 5
33
  8
0
 10
14400
 20
-13200
 0
VERTEX
 5
33
  8
0
 10
14000
 20
-13200
 0
SEQEND
 5
37
 8
0
 0
LINE
8
COUCHE_1
 6
CONTINUOUS
62
1
10
14200
20
-13000
11
14200
21
-13000
0
TEXT
8
COUCHE_1
 10
14600
 20
-12400
 11
14600
 21
-12400
 40
600
 1

50
0
 72
0
 73
3
62
0
0
TEXT
8
COUCHE_1
 10
14600
 20
-11800
 11
14600
 21
-11800
 40
600
 1
 
50
0
 72
0
 73
3
62
0
0
POLYLINE
5
2B
 8
0
62
1
 6
CONTINUOUS
 66
 1
 10
0
 20
0
 30
0
 70
1
 0
VERTEX
 5
33
  8
0
 10
15000
 20
-12800
 0
VERTEX
 5
33
  8
0
 10
15400
 20
-12800
 0
VERTEX
 5
33
  8
0
 10
15400
 20
-13200
 0
VERTEX
 5
33
  8
0
 10
15000
 20
-13200
 0
SEQEND
 5
37
 8
0
 0
LINE
8
COUCHE_1
 6
CONTINUOUS
62
1
10
15200
20
-13000
11
15200
21
-13000
0
TEXT
8
COUCHE_1
 10
15600
 20
-12400
 11
15600
 21
-12400
 40
600
 1

50
0
 72
0
 73
3
62
0
0
TEXT
8
COUCHE_1
 10
15600
 20
-11800
 11
15600
 21
-11800
 40
600
 1
 
50
0
 72
0
 73
3
62
0
0
POLYLINE
5
2B
 8
0
62
1
 6
CONTINUOUS
 66
 1
 10
0
 20
0
 30
0
 70
1
 0
VERTEX
 5
33
  8
0
 10
16000
 20
-12800
 0
VERTEX
 5
33
  8
0
 10
16400
 20
-12800
 0
VERTEX
 5
33
  8
0
 10
16400
 20
-13200
 0
VERTEX
 5
33
  8
0
 10
16000
 20
-13200
 0
SEQEND
 5
37
 8
0
 0
LINE
8
COUCHE_1
 6
CONTINUOUS
62
1
10
16200
20
-13000
11
16200
21
-13000
0
TEXT
8
COUCHE_1
 10
16600
 20
-12400
 11
16600
 21
-12400
 40
600
 1

50
0
 72
0
 73
3
62
0
0
TEXT
8
COUCHE_1
 10
16600
 20
-11800
 11
16600
 21
-11800
 40
600
 1
 
50
0
 72
0
 73
3
62
0
0
POLYLINE
5
2B
 8
0
62
1
 6
CONTINUOUS
 66
 1
 10
0
 20
0
 30
0
 70
1
 0
VERTEX
 5
33
  8
0
 10
11000
 20
-11200
 0
VERTEX
 5
33
  8
0
 10
11400
 20
-11200
 0
VERTEX
 5
33
  8
0
 10
11400
 20
-11600
 0
VERTEX
 5
33
  8
0
 10
11000
 20
-11600
 0
SEQEND
 5
37
 8
0
 0
LINE
8
COUCHE_1
 6
CONTINUOUS
62
1
10
11200
20
-11400
11
11200
21
-11400
0
TEXT
8
COUCHE_1
 10
11600
 20
-10800
 11
11600
 21
-10800
 40
600
 1

50
0
 72
0
 73
3
62
0
0
TEXT
8
COUCHE_1
 10
11600
 20
-10200
 11
11600
 21
-10200
 40
600
 1
 
50
0
 72
0
 73
3
62
0
0
POLYLINE
5
2B
 8
0
62
1
 6
CONTINUOUS
 66
 1
 10
0
 20
0
 30
0
 70
1
 0
VERTEX
 5
33
  8
0
 10
12000
 20
-11200
 0
VERTEX
 5
33
  8
0
 10
12400
 20
-11200
 0
VERTEX
 5
33
  8
0
 10
12400
 20
-11600
 0
VERTEX
 5
33
  8
0
 10
12000
 20
-11600
 0
SEQEND
 5
37
 8
0
 0
LINE
8
COUCHE_1
 6
CONTINUOUS
62
1
10
12200
20
-11400
11
12200
21
-11400
0
TEXT
8
COUCHE_1
 10
12600
 20
-10800
 11
12600
 21
-10800
 40
600
 1

50
0
 72
0
 73
3
62
0
0
TEXT
8
COUCHE_1
 10
12600
 20
-10200
 11
12600
 21
-10200
 40
600
 1
 
50
0
 72
0
 73
3
62
0
0
POLYLINE
5
2B
 8
0
62
1
 6
CONTINUOUS
 66
 1
 10
0
 20
0
 30
0
 70
1
 0
VERTEX
 5
33
  8
0
 10
13000
 20
-11200
 0
VERTEX
 5
33
  8
0
 10
13400
 20
-11200
 0
VERTEX
 5
33
  8
0
 10
13400
 20
-11600
 0
VERTEX
 5
33
  8
0
 10
13000
 20
-11600
 0
SEQEND
 5
37
 8
0
 0
LINE
8
COUCHE_1
 6
CONTINUOUS
62
1
10
13200
20
-11400
11
13200
21
-11400
0
TEXT
8
COUCHE_1
 10
13600
 20
-10800
 11
13600
 21
-10800
 40
600
 1

50
0
 72
0
 73
3
62
0
0
TEXT
8
COUCHE_1
 10
13600
 20
-10200
 11
13600
 21
-10200
 40
600
 1
 
50
0
 72
0
 73
3
62
0
0
POLYLINE
5
2B
 8
0
62
1
 6
CONTINUOUS
 66
 1
 10
0
 20
0
 30
0
 70
1
 0
VERTEX
 5
33
  8
0
 10
14000
 20
-11200
 0
VERTEX
 5
33
  8
0
 10
14400
 20
-11200
 0
VERTEX
 5
33
  8
0
 10
14400
 20
-11600
 0
VERTEX
 5
33
  8
0
 10
14000
 20
-11600
 0
SEQEND
 5
37
 8
0
 0
LINE
8
COUCHE_1
 6
CONTINUOUS
62
1
10
14200
20
-11400
11
14200
21
-11400
0
TEXT
8
COUCHE_1
 10
14600
 20
-10800
 11
14600
 21
-10800
 40
600
 1

50
0
 72
0
 73
3
62
0
0
TEXT
8
COUCHE_1
 10
14600
 20
-10200
 11
14600
 21
-10200
 40
600
 1
 
50
0
 72
0
 73
3
62
0
0
POLYLINE
5
2B
 8
0
62
1
 6
CONTINUOUS
 66
 1
 10
0
 20
0
 30
0
 70
1
 0
VERTEX
 5
33
  8
0
 10
15000
 20
-11200
 0
VERTEX
 5
33
  8
0
 10
15400
 20
-11200
 0
VERTEX
 5
33
  8
0
 10
15400
 20
-11600
 0
VERTEX
 5
33
  8
0
 10
15000
 20
-11600
 0
SEQEND
 5
37
 8
0
 0
LINE
8
COUCHE_1
 6
CONTINUOUS
62
1
10
15200
20
-11400
11
15200
21
-11400
0
TEXT
8
COUCHE_1
 10
15600
 20
-10800
 11
15600
 21
-10800
 40
600
 1

50
0
 72
0
 73
3
62
0
0
TEXT
8
COUCHE_1
 10
15600
 20
-10200
 11
15600
 21
-10200
 40
600
 1
 
50
0
 72
0
 73
3
62
0
0
POLYLINE
5
2B
 8
0
62
1
 6
CONTINUOUS
 66
 1
 10
0
 20
0
 30
0
 70
1
 0
VERTEX
 5
33
  8
0
 10
16000
 20
-11200
 0
VERTEX
 5
33
  8
0
 10
16400
 20
-11200
 0
VERTEX
 5
33
  8
0
 10
16400
 20
-11600
 0
VERTEX
 5
33
  8
0
 10
16000
 20
-11600
 0
SEQEND
 5
37
 8
0
 0
LINE
8
COUCHE_1
 6
CONTINUOUS
62
1
10
16200
20
-11400
11
16200
21
-11400
0
TEXT
8
COUCHE_1
 10
16600
 20
-10800
 11
16600
 21
-10800
 40
600
 1

50
0
 72
0
 73
3
62
0
0
TEXT
8
COUCHE_1
 10
16200
 20
-10200
 11
16200
 21
-10200
 40
600
 1
 
50
0
 72
0
 73
3
62
0
0
POLYLINE
5
2B
 8
0
62
1
 6
CONTINUOUS
 66
 1
 10
0
 20
0
 30
0
 70
1
 0
VERTEX
 5
33
  8
0
 10
11000
 20
-12800
 0
VERTEX
 5
33
  8
0
 10
11400
 20
-12800
 0
VERTEX
 5
33
  8
0
 10
11400
 20
-13200
 0
VERTEX
 5
33
  8
0
 10
11000
 20
-13200
 0
SEQEND
 5
37
 8
0
 0
LINE
8
COUCHE_1
 6
CONTINUOUS
62
1
10
11200
20
-13000
11
11200
21
-13000
0
TEXT
8
COUCHE_1
 10
11600
 20
-12400
 11
11600
 21
-12400
 40
600
 1

50
0
 72
0
 73
3
62
0
0
TEXT
8
COUCHE_1
 10
11600
 20
-11800
 11
11600
 21
-11800
 40
600
 1
 
50
0
 72
0
 73
3
62
0
0
POLYLINE
5
2B
 8
0
62
1
 6
CONTINUOUS
 66
 1
 10
0
 20
0
 30
0
 70
1
 0
VERTEX
 5
33
  8
0
 10
12000
 20
-12800
 0
VERTEX
 5
33
  8
0
 10
12400
 20
-12800
 0
VERTEX
 5
33
  8
0
 10
12400
 20
-13200
 0
VERTEX
 5
33
  8
0
 10
12000
 20
-13200
 0
SEQEND
 5
37
 8
0
 0
LINE
8
COUCHE_1
 6
CONTINUOUS
62
1
10
12200
20
-13000
11
12200
21
-13000
0
TEXT
8
COUCHE_1
 10
12600
 20
-12400
 11
12600
 21
-12400
 40
600
 1

50
0
 72
0
 73
3
62
0
0
TEXT
8
COUCHE_1
 10
12600
 20
-11800
 11
12600
 21
-11800
 40
600
 1
 
50
0
 72
0
 73
3
62
0
0
TEXT
8
COUCHE_1
 10
29000
 20
-12000
 11
29000
 21
-12000
 40
200
 1
Ha_1
50
0
 72
0
 73
3
62
0
 0
LINE
8
COUCHE_1
 6
CONTINUOUS
62
0
10
15200
20
-25200
11
15600
21
-25200
 0
LINE
8
COUCHE_1
 6
CONTINUOUS
62
0
10
16000
20
-24200
11
16000
21
-25800
 0
LINE
8
COUCHE_1
 6
CONTINUOUS
62
0
10
15200
20
-24400
11
15800
21
-25000
 0
LINE
8
COUCHE_1
 6
CONTINUOUS
62
0
10
15200
20
-25600
11
15800
21
-25000
 0
LINE
8
COUCHE_1
 6
CONTINUOUS
62
0
10
15200
20
-24400
11
14600
21
-25000
 0
LINE
8
COUCHE_1
 6
CONTINUOUS
62
0
10
15200
20
-25600
11
14600
21
-25000
 0
LINE
8
COUCHE_1
 6
CONTINUOUS
62
0
10
14800
20
-25200
11
15600
21
-25200
 0
LINE
8
COUCHE_1
 6
CONTINUOUS
62
0
10
14400
20
-24200
11
16000
21
-24200
 0
LINE
8
COUCHE_1
 6
CONTINUOUS
62
0
10
16000
20
-25000
11
16600
21
-25000
 0
LINE
8
COUCHE_1
 6
CONTINUOUS
62
0
10
14400
20
-24200
11
14400
21
-25800
 0
LINE
8
COUCHE_1
 6
CONTINUOUS
62
0
10
14400
20
-25800
11
15200
21
-25800
 0
LINE
8
COUCHE_1
 6
CONTINUOUS
62
0
10
15200
20
-25800
11
16000
21
-25800
 0
LINE
8
COUCHE_1
 6
CONTINUOUS
62
0
10
14400
20
-25000
11
14000
21
-25000
 0
LINE
8
COUCHE_1
 6
CONTINUOUS
62
0
10
15200
20
-24200
11
15200
21
-23100
 0
LINE
8
COUCHE_1
 6
CONTINUOUS
62
0
10
15200
20
-24800
11
15600
21
-24800
 0
LINE
8
COUCHE_1
 6
CONTINUOUS
62
0
10
14800
20
-24800
11
15600
21
-24800
0
POLYLINE
5
2B
 8
0
62
1
 6
CONTINUOUS
 66
 1
 10
0
 20
0
 30
0
 70
1
 0
VERTEX
 5
33
  8
0
 10
16800
 20
-24800
 0
VERTEX
 5
33
  8
0
 10
17200
 20
-24800
 0
VERTEX
 5
33
  8
0
 10
17200
 20
-25200
 0
VERTEX
 5
33
  8
0
 10
16800
 20
-25200
 0
SEQEND
 5
37
 8
0
 0
LINE
8
COUCHE_1
 6
CONTINUOUS
62
1
10
17000
20
-25000
11
16200
21
-25000
0
TEXT
8
COUCHE_1
 10
16600
 20
-25200
 11
16600
 21
-25200
 40
100
 1
BN
50
0
 72
0
 73
3
62
0
0
POLYLINE
5
2B
 8
0
62
1
 6
CONTINUOUS
 66
 1
 10
0
 20
0
 30
0
 70
1
 0
VERTEX
 5
33
  8
0
 10
15000
 20
-23000
 0
VERTEX
 5
33
  8
0
 10
15400
 20
-23000
 0
VERTEX
 5
33
  8
0
 10
15400
 20
-23400
 0
VERTEX
 5
33
  8
0
 10
15000
 20
-23400
 0
SEQEND
 5
37
 8
0
 0
LINE
8
COUCHE_1
 6
CONTINUOUS
62
1
10
15200
20
-23200
11
15200
21
-24000
0
TEXT
8
COUCHE_1
 10
15600
 20
-23600
 11
15600
 21
-23600
 40
100
 1
BK
50
0
 72
0
 73
3
62
0
0
POLYLINE
5
2B
 8
0
62
1
 6
CONTINUOUS
 66
 1
 10
0
 20
0
 30
0
 70
1
 0
VERTEX
 5
33
  8
0
 10
13200
 20
-24800
 0
VERTEX
 5
33
  8
0
 10
13600
 20
-24800
 0
VERTEX
 5
33
  8
0
 10
13600
 20
-25200
 0
VERTEX
 5
33
  8
0
 10
13200
 20
-25200
 0
SEQEND
 5
37
 8
0
 0
LINE
8
COUCHE_1
 6
CONTINUOUS
62
1
10
13400
20
-25000
11
14200
21
-25000
0
TEXT
8
COUCHE_1
 10
14100
 20
-25100
 11
14100
 21
-25100
 40
100
 1
BU
50
0
 72
0
 73
3
62
0
0
TEXT
8
COUCHE_1
 10
15000
 20
-26600
 11
15000
 21
-26600
 40
200
 1
Capteur V2.bridage sorti
50
0
 72
1
 73
3
62
0
0
TEXT
8
COUCHE_1
 10
14800
 20
-26000
 11
14800
 21
-26000
 40
150
 1
011-1B2-2
50
0
 72
0
 73
3
62
0
 0
LINE
8
COUCHE_1
 6
CONTINUOUS
62
0
10
12200
20
-20000
11
12600
21
-20000
 0
LINE
8
COUCHE_1
 6
CONTINUOUS
62
0
10
13000
20
-19000
11
13000
21
-20600
 0
LINE
8
COUCHE_1
 6
CONTINUOUS
62
0
10
12200
20
-19200
11
12800
21
-19800
 0
LINE
8
COUCHE_1
 6
CONTINUOUS
62
0
10
12200
20
-20400
11
12800
21
-19800
 0
LINE
8
COUCHE_1
 6
CONTINUOUS
62
0
10
12200
20
-19200
11
11600
21
-19800
 0
LINE
8
COUCHE_1
 6
CONTINUOUS
62
0
10
12200
20
-20400
11
11600
21
-19800
 0
LINE
8
COUCHE_1
 6
CONTINUOUS
62
0
10
11800
20
-20000
11
12600
21
-20000
 0
LINE
8
COUCHE_1
 6
CONTINUOUS
62
0
10
11400
20
-19000
11
13000
21
-19000
 0
LINE
8
COUCHE_1
 6
CONTINUOUS
62
0
10
13000
20
-19800
11
13600
21
-19800
 0
LINE
8
COUCHE_1
 6
CONTINUOUS
62
0
10
11400
20
-19000
11
11400
21
-20600
 0
LINE
8
COUCHE_1
 6
CONTINUOUS
62
0
10
11400
20
-20600
11
12200
21
-20600
 0
LINE
8
COUCHE_1
 6
CONTINUOUS
62
0
10
12200
20
-20600
11
13000
21
-20600
 0
LINE
8
COUCHE_1
 6
CONTINUOUS
62
0
10
11400
20
-19800
11
11000
21
-19800
 0
LINE
8
COUCHE_1
 6
CONTINUOUS
62
0
10
12200
20
-19000
11
12200
21
-17900
 0
LINE
8
COUCHE_1
 6
CONTINUOUS
62
0
10
12200
20
-19600
11
12600
21
-19600
 0
LINE
8
COUCHE_1
 6
CONTINUOUS
62
0
10
11800
20
-19600
11
12600
21
-19600
0
POLYLINE
5
2B
 8
0
62
1
 6
CONTINUOUS
 66
 1
 10
0
 20
0
 30
0
 70
1
 0
VERTEX
 5
33
  8
0
 10
13800
 20
-19600
 0
VERTEX
 5
33
  8
0
 10
14200
 20
-19600
 0
VERTEX
 5
33
  8
0
 10
14200
 20
-20000
 0
VERTEX
 5
33
  8
0
 10
13800
 20
-20000
 0
SEQEND
 5
37
 8
0
 0
LINE
8
COUCHE_1
 6
CONTINUOUS
62
1
10
14000
20
-19800
11
13200
21
-19800
0
TEXT
8
COUCHE_1
 10
13600
 20
-20000
 11
13600
 21
-20000
 40
100
 1
BN
50
0
 72
0
 73
3
62
0
0
POLYLINE
5
2B
 8
0
62
1
 6
CONTINUOUS
 66
 1
 10
0
 20
0
 30
0
 70
1
 0
VERTEX
 5
33
  8
0
 10
12000
 20
-17800
 0
VERTEX
 5
33
  8
0
 10
12400
 20
-17800
 0
VERTEX
 5
33
  8
0
 10
12400
 20
-18200
 0
VERTEX
 5
33
  8
0
 10
12000
 20
-18200
 0
SEQEND
 5
37
 8
0
 0
LINE
8
COUCHE_1
 6
CONTINUOUS
62
1
10
12200
20
-18000
11
12200
21
-18800
0
TEXT
8
COUCHE_1
 10
12600
 20
-18400
 11
12600
 21
-18400
 40
100
 1
BK
50
0
 72
0
 73
3
62
0
0
POLYLINE
5
2B
 8
0
62
1
 6
CONTINUOUS
 66
 1
 10
0
 20
0
 30
0
 70
1
 0
VERTEX
 5
33
  8
0
 10
10200
 20
-19600
 0
VERTEX
 5
33
  8
0
 10
10600
 20
-19600
 0
VERTEX
 5
33
  8
0
 10
10600
 20
-20000
 0
VERTEX
 5
33
  8
0
 10
10200
 20
-20000
 0
SEQEND
 5
37
 8
0
 0
LINE
8
COUCHE_1
 6
CONTINUOUS
62
1
10
10400
20
-19800
11
11200
21
-19800
0
TEXT
8
COUCHE_1
 10
11100
 20
-19900
 11
11100
 21
-19900
 40
100
 1
BU
50
0
 72
0
 73
3
62
0
0
TEXT
8
COUCHE_1
 10
12200
 20
-21600
 11
12200
 21
-21600
 40
200
 1
Capteur V2.bridage entré
50
0
 72
1
 73
3
62
0
0
TEXT
8
COUCHE_1
 10
11800
 20
-20800
 11
11800
 21
-20800
 40
150
 1
011-1B1-2
50
0
 72
0
 73
3
62
0
 0
LINE
8
COUCHE_1
 6
CONTINUOUS
62
0
10
36500
20
-18000
11
36500
21
-18100
 0
LINE
8
COUCHE_1
 6
CONTINUOUS
62
0
10
36750
20
-18000
11
36750
21
-18100
 0
LINE
8
COUCHE_1
 6
CONTINUOUS
62
0
10
37000
20
-18000
11
37000
21
-18100
 0
LINE
8
COUCHE_1
 6
CONTINUOUS
62
0
10
37250
20
-18000
11
37250
21
-18100
 0
LINE
8
COUCHE_1
 6
CONTINUOUS
62
0
10
37500
20
-18000
11
37500
21
-18100
 0
LINE
8
COUCHE_1
 6
CONTINUOUS
62
0
10
37750
20
-18000
11
37750
21
-18100
 0
LINE
8
COUCHE_1
 6
CONTINUOUS
62
0
10
37900
20
-17800
11
33350
21
-17800
 0
LINE
8
COUCHE_1
 6
CONTINUOUS
62
0
10
37900
20
-17800
11
37900
21
-18200
 0
LINE
8
COUCHE_1
 6
CONTINUOUS
62
0
10
37900
20
-18200
11
33350
21
-18200
 0
LINE
8
COUCHE_1
 6
CONTINUOUS
62
0
10
33350
20
-18200
11
33350
21
-17800
 0
LINE
8
COUCHE_1
 6
CONTINUOUS
62
0
10
35000
20
-18100
11
35000
21
-18000
 0
LINE
8
COUCHE_1
 6
CONTINUOUS
62
0
10
35250
20
-18000
11
35250
21
-18100
 0
LINE
8
COUCHE_1
 6
CONTINUOUS
62
0
10
35500
20
-18000
11
35500
21
-18100
 0
LINE
8
COUCHE_1
 6
CONTINUOUS
62
0
10
35750
20
-18000
11
35750
21
-18100
 0
LINE
8
COUCHE_1
 6
CONTINUOUS
62
0
10
36000
20
-18000
11
36000
21
-18100
 0
LINE
8
COUCHE_1
 6
CONTINUOUS
62
0
10
36250
20
-18000
11
36250
21
-18100
 0
LINE
8
COUCHE_1
 6
CONTINUOUS
62
0
10
33500
20
-18100
11
33500
21
-18000
 0
LINE
8
COUCHE_1
 6
CONTINUOUS
62
0
10
33750
20
-18000
11
33750
21
-18100
 0
LINE
8
COUCHE_1
 6
CONTINUOUS
62
0
10
34000
20
-18000
11
34000
21
-18100
 0
LINE
8
COUCHE_1
 6
CONTINUOUS
62
0
10
34250
20
-18000
11
34250
21
-18100
 0
LINE
8
COUCHE_1
 6
CONTINUOUS
62
0
10
34500
20
-18000
11
34500
21
-18100
 0
LINE
8
COUCHE_1
 6
CONTINUOUS
62
0
10
34750
20
-18000
11
34750
21
-18100
 0
LINE
8
COUCHE_1
 6
CONTINUOUS
62
0
10
38050
20
-18000
11
38050
21
-18100
 0
LINE
8
COUCHE_1
 6
CONTINUOUS
62
0
10
38300
20
-18000
11
38300
21
-18100
 0
LINE
8
COUCHE_1
 6
CONTINUOUS
62
0
10
38550
20
-18000
11
38550
21
-18100
 0
LINE
8
COUCHE_1
 6
CONTINUOUS
62
0
10
37900
20
-18200
11
38700
21
-18200
 0
LINE
8
COUCHE_1
 6
CONTINUOUS
62
0
10
38700
20
-18200
11
38700
21
-17800
 0
LINE
8
COUCHE_1
 6
CONTINUOUS
62
0
10
38700
20
-17800
11
37900
21
-17800
 0
ARC
8
COUCHE_1
62
0
10
36500
20
-18000
40
100
50
0
51
180
 0
ARC
8
COUCHE_1
62
0
10
36750
20
-18000
40
100
50
0
51
180
 0
ARC
8
COUCHE_1
62
0
10
37000
20
-18000
40
100
50
0
51
180
 0
ARC
8
COUCHE_1
62
0
10
37250
20
-18000
40
100
50
0
51
180
 0
ARC
8
COUCHE_1
62
0
10
37500
20
-18000
40
100
50
0
51
180
 0
ARC
8
COUCHE_1
62
0
10
37750
20
-18000
40
100
50
0
51
180
 0
ARC
8
COUCHE_1
62
0
10
35000
20
-18000
40
100
50
0
51
180
 0
ARC
8
COUCHE_1
62
0
10
35250
20
-18000
40
100
50
0
51
180
 0
ARC
8
COUCHE_1
62
0
10
35500
20
-18000
40
100
50
0
51
180
 0
ARC
8
COUCHE_1
62
0
10
35750
20
-18000
40
100
50
0
51
180
 0
ARC
8
COUCHE_1
62
0
10
36000
20
-18000
40
100
50
0
51
180
 0
ARC
8
COUCHE_1
62
0
10
36250
20
-18000
40
100
50
0
51
180
 0
ARC
8
COUCHE_1
62
0
10
33500
20
-18000
40
100
50
0
51
180
 0
ARC
8
COUCHE_1
62
0
10
33750
20
-18000
40
100
50
0
51
180
 0
ARC
8
COUCHE_1
62
0
10
34000
20
-18000
40
100
50
0
51
180
 0
ARC
8
COUCHE_1
62
0
10
34250
20
-18000
40
100
50
0
51
180
 0
ARC
8
COUCHE_1
62
0
10
34500
20
-18000
40
100
50
0
51
180
 0
ARC
8
COUCHE_1
62
0
10
34750
20
-18000
40
100
50
0
51
180
 0
ARC
8
COUCHE_1
62
0
10
38050
20
-18000
40
100
50
0
51
180
 0
ARC
8
COUCHE_1
62
0
10
38300
20
-18000
40
100
50
0
51
180
 0
ARC
8
COUCHE_1
62
0
10
38550
20
-18000
40
100
50
0
51
180
0
POLYLINE
5
2B
 8
0
62
1
 6
CONTINUOUS
 66
 1
 10
0
 20
0
 30
0
 70
1
 0
VERTEX
 5
33
  8
0
 10
36700
 20
-17750
 0
VERTEX
 5
33
  8
0
 10
36800
 20
-17750
 0
VERTEX
 5
33
  8
0
 10
36800
 20
-17850
 0
VERTEX
 5
33
  8
0
 10
36700
 20
-17850
 0
SEQEND
 5
37
 8
0
 0
LINE
8
COUCHE_1
 6
CONTINUOUS
62
1
10
36750
20
-17800
11
36750
21
-17800
0
TEXT
8
COUCHE_1
 10
36850
 20
-17650
 11
36850
 21
-17650
 40
100
 1

50
0
 72
0
 73
3
62
0
0
TEXT
8
COUCHE_1
 10
36850
 20
-17800
 11
36850
 21
-17800
 40
100
 1

50
0
 72
0
 73
3
62
0
0
POLYLINE
5
2B
 8
0
62
1
 6
CONTINUOUS
 66
 1
 10
0
 20
0
 30
0
 70
1
 0
VERTEX
 5
33
  8
0
 10
36950
 20
-17750
 0
VERTEX
 5
33
  8
0
 10
37050
 20
-17750
 0
VERTEX
 5
33
  8
0
 10
37050
 20
-17850
 0
VERTEX
 5
33
  8
0
 10
36950
 20
-17850
 0
SEQEND
 5
37
 8
0
 0
LINE
8
COUCHE_1
 6
CONTINUOUS
62
1
10
37000
20
-17800
11
37000
21
-17800
0
TEXT
8
COUCHE_1
 10
37100
 20
-17650
 11
37100
 21
-17650
 40
150
 1

50
0
 72
0
 73
3
62
0
0
TEXT
8
COUCHE_1
 10
37100
 20
-17800
 11
37100
 21
-17800
 40
100
 1

50
0
 72
0
 73
3
62
0
0
POLYLINE
5
2B
 8
0
62
1
 6
CONTINUOUS
 66
 1
 10
0
 20
0
 30
0
 70
1
 0
VERTEX
 5
33
  8
0
 10
36450
 20
-17750
 0
VERTEX
 5
33
  8
0
 10
36550
 20
-17750
 0
VERTEX
 5
33
  8
0
 10
36550
 20
-17850
 0
VERTEX
 5
33
  8
0
 10
36450
 20
-17850
 0
SEQEND
 5
37
 8
0
 0
LINE
8
COUCHE_1
 6
CONTINUOUS
62
1
10
36500
20
-17800
11
36500
21
-17800
0
TEXT
8
COUCHE_1
 10
36600
 20
-17650
 11
36600
 21
-17650
 40
150
 1

50
0
 72
0
 73
3
62
0
0
TEXT
8
COUCHE_1
 10
36600
 20
-17800
 11
36600
 21
-17800
 40
100
 1

50
0
 72
0
 73
3
62
0
0
POLYLINE
5
2B
 8
0
62
1
 6
CONTINUOUS
 66
 1
 10
0
 20
0
 30
0
 70
1
 0
VERTEX
 5
33
  8
0
 10
37450
 20
-17750
 0
VERTEX
 5
33
  8
0
 10
37550
 20
-17750
 0
VERTEX
 5
33
  8
0
 10
37550
 20
-17850
 0
VERTEX
 5
33
  8
0
 10
37450
 20
-17850
 0
SEQEND
 5
37
 8
0
 0
LINE
8
COUCHE_1
 6
CONTINUOUS
62
1
10
37500
20
-17800
11
37500
21
-17800
0
TEXT
8
COUCHE_1
 10
37600
 20
-17650
 11
37600
 21
-17650
 40
150
 1

50
0
 72
0
 73
3
62
0
0
TEXT
8
COUCHE_1
 10
37600
 20
-17800
 11
37600
 21
-17800
 40
100
 1

50
0
 72
0
 73
3
62
0
0
POLYLINE
5
2B
 8
0
62
1
 6
CONTINUOUS
 66
 1
 10
0
 20
0
 30
0
 70
1
 0
VERTEX
 5
33
  8
0
 10
37700
 20
-17750
 0
VERTEX
 5
33
  8
0
 10
37800
 20
-17750
 0
VERTEX
 5
33
  8
0
 10
37800
 20
-17850
 0
VERTEX
 5
33
  8
0
 10
37700
 20
-17850
 0
SEQEND
 5
37
 8
0
 0
LINE
8
COUCHE_1
 6
CONTINUOUS
62
1
10
37750
20
-17800
11
37750
21
-17800
0
TEXT
8
COUCHE_1
 10
37850
 20
-17650
 11
37850
 21
-17650
 40
150
 1

50
0
 72
0
 73
3
62
0
0
TEXT
8
COUCHE_1
 10
37850
 20
-17800
 11
37850
 21
-17800
 40
100
 1

50
0
 72
0
 73
3
62
0
0
POLYLINE
5
2B
 8
0
62
1
 6
CONTINUOUS
 66
 1
 10
0
 20
0
 30
0
 70
1
 0
VERTEX
 5
33
  8
0
 10
36700
 20
-18150
 0
VERTEX
 5
33
  8
0
 10
36800
 20
-18150
 0
VERTEX
 5
33
  8
0
 10
36800
 20
-18250
 0
VERTEX
 5
33
  8
0
 10
36700
 20
-18250
 0
SEQEND
 5
37
 8
0
 0
LINE
8
COUCHE_1
 6
CONTINUOUS
62
1
10
36750
20
-18200
11
36750
21
-18200
0
TEXT
8
COUCHE_1
 10
36850
 20
-18050
 11
36850
 21
-18050
 40
150
 1

50
0
 72
0
 73
3
62
0
0
TEXT
8
COUCHE_1
 10
36850
 20
-17900
 11
36850
 21
-17900
 40
150
 1
 
50
0
 72
0
 73
3
62
0
0
POLYLINE
5
2B
 8
0
62
1
 6
CONTINUOUS
 66
 1
 10
0
 20
0
 30
0
 70
1
 0
VERTEX
 5
33
  8
0
 10
37200
 20
-17750
 0
VERTEX
 5
33
  8
0
 10
37300
 20
-17750
 0
VERTEX
 5
33
  8
0
 10
37300
 20
-17850
 0
VERTEX
 5
33
  8
0
 10
37200
 20
-17850
 0
SEQEND
 5
37
 8
0
 0
LINE
8
COUCHE_1
 6
CONTINUOUS
62
1
10
37250
20
-17800
11
37250
21
-17800
0
TEXT
8
COUCHE_1
 10
37350
 20
-17650
 11
37350
 21
-17650
 40
150
 1

50
0
 72
0
 73
3
62
0
0
TEXT
8
COUCHE_1
 10
37350
 20
-17500
 11
37350
 21
-17500
 40
150
 1
 
50
0
 72
0
 73
3
62
0
0
POLYLINE
5
2B
 8
0
62
1
 6
CONTINUOUS
 66
 1
 10
0
 20
0
 30
0
 70
1
 0
VERTEX
 5
33
  8
0
 10
37200
 20
-18150
 0
VERTEX
 5
33
  8
0
 10
37300
 20
-18150
 0
VERTEX
 5
33
  8
0
 10
37300
 20
-18250
 0
VERTEX
 5
33
  8
0
 10
37200
 20
-18250
 0
SEQEND
 5
37
 8
0
 0
LINE
8
COUCHE_1
 6
CONTINUOUS
62
1
10
37250
20
-18200
11
37250
21
-18200
0
TEXT
8
COUCHE_1
 10
37350
 20
-18050
 11
37350
 21
-18050
 40
150
 1

50
0
 72
0
 73
3
62
0
0
TEXT
8
COUCHE_1
 10
37350
 20
-17900
 11
37350
 21
-17900
 40
150
 1
 
50
0
 72
0
 73
3
62
0
0
POLYLINE
5
2B
 8
0
62
1
 6
CONTINUOUS
 66
 1
 10
0
 20
0
 30
0
 70
1
 0
VERTEX
 5
33
  8
0
 10
37450
 20
-18150
 0
VERTEX
 5
33
  8
0
 10
37550
 20
-18150
 0
VERTEX
 5
33
  8
0
 10
37550
 20
-18250
 0
VERTEX
 5
33
  8
0
 10
37450
 20
-18250
 0
SEQEND
 5
37
 8
0
 0
LINE
8
COUCHE_1
 6
CONTINUOUS
62
1
10
37500
20
-18200
11
37500
21
-18200
0
TEXT
8
COUCHE_1
 10
37600
 20
-18050
 11
37600
 21
-18050
 40
150
 1

50
0
 72
0
 73
3
62
0
0
TEXT
8
COUCHE_1
 10
37600
 20
-17900
 11
37600
 21
-17900
 40
150
 1
 
50
0
 72
0
 73
3
62
0
0
POLYLINE
5
2B
 8
0
62
1
 6
CONTINUOUS
 66
 1
 10
0
 20
0
 30
0
 70
1
 0
VERTEX
 5
33
  8
0
 10
37700
 20
-18150
 0
VERTEX
 5
33
  8
0
 10
37800
 20
-18150
 0
VERTEX
 5
33
  8
0
 10
37800
 20
-18250
 0
VERTEX
 5
33
  8
0
 10
37700
 20
-18250
 0
SEQEND
 5
37
 8
0
 0
LINE
8
COUCHE_1
 6
CONTINUOUS
62
1
10
37750
20
-18200
11
37750
21
-18200
0
TEXT
8
COUCHE_1
 10
37850
 20
-18050
 11
37850
 21
-18050
 40
150
 1

50
0
 72
0
 73
3
62
0
0
TEXT
8
COUCHE_1
 10
37750
 20
-17900
 11
37750
 21
-17900
 40
150
 1
 
50
0
 72
0
 73
3
62
0
0
POLYLINE
5
2B
 8
0
62
1
 6
CONTINUOUS
 66
 1
 10
0
 20
0
 30
0
 70
1
 0
VERTEX
 5
33
  8
0
 10
35450
 20
-18150
 0
VERTEX
 5
33
  8
0
 10
35550
 20
-18150
 0
VERTEX
 5
33
  8
0
 10
35550
 20
-18250
 0
VERTEX
 5
33
  8
0
 10
35450
 20
-18250
 0
SEQEND
 5
37
 8
0
 0
LINE
8
COUCHE_1
 6
CONTINUOUS
62
1
10
35500
20
-18200
11
35500
21
-18200
0
TEXT
8
COUCHE_1
 10
35600
 20
-18050
 11
35600
 21
-18050
 40
150
 1

50
0
 72
0
 73
3
62
0
0
TEXT
8
COUCHE_1
 10
35600
 20
-17900
 11
35600
 21
-17900
 40
150
 1
 
50
0
 72
0
 73
3
62
0
0
POLYLINE
5
2B
 8
0
62
1
 6
CONTINUOUS
 66
 1
 10
0
 20
0
 30
0
 70
1
 0
VERTEX
 5
33
  8
0
 10
35700
 20
-18150
 0
VERTEX
 5
33
  8
0
 10
35800
 20
-18150
 0
VERTEX
 5
33
  8
0
 10
35800
 20
-18250
 0
VERTEX
 5
33
  8
0
 10
35700
 20
-18250
 0
SEQEND
 5
37
 8
0
 0
LINE
8
COUCHE_1
 6
CONTINUOUS
62
1
10
35750
20
-18200
11
35750
21
-18200
0
TEXT
8
COUCHE_1
 10
35850
 20
-18050
 11
35850
 21
-18050
 40
150
 1

50
0
 72
0
 73
3
62
0
0
TEXT
8
COUCHE_1
 10
35000
 20
-17800
 11
35000
 21
-17800
 40
150
 1
 
50
0
 72
0
 73
3
62
0
0
POLYLINE
5
2B
 8
0
62
1
 6
CONTINUOUS
 66
 1
 10
0
 20
0
 30
0
 70
1
 0
VERTEX
 5
33
  8
0
 10
35950
 20
-18150
 0
VERTEX
 5
33
  8
0
 10
36050
 20
-18150
 0
VERTEX
 5
33
  8
0
 10
36050
 20
-18250
 0
VERTEX
 5
33
  8
0
 10
35950
 20
-18250
 0
SEQEND
 5
37
 8
0
 0
LINE
8
COUCHE_1
 6
CONTINUOUS
62
1
10
36000
20
-18200
11
36000
21
-18200
0
TEXT
8
COUCHE_1
 10
36100
 20
-18050
 11
36100
 21
-18050
 40
150
 1

50
0
 72
0
 73
3
62
0
0
TEXT
8
COUCHE_1
 10
36100
 20
-17900
 11
36100
 21
-17900
 40
150
 1
 
50
0
 72
0
 73
3
62
0
0
POLYLINE
5
2B
 8
0
62
1
 6
CONTINUOUS
 66
 1
 10
0
 20
0
 30
0
 70
1
 0
VERTEX
 5
33
  8
0
 10
36200
 20
-18150
 0
VERTEX
 5
33
  8
0
 10
36300
 20
-18150
 0
VERTEX
 5
33
  8
0
 10
36300
 20
-18250
 0
VERTEX
 5
33
  8
0
 10
36200
 20
-18250
 0
SEQEND
 5
37
 8
0
 0
LINE
8
COUCHE_1
 6
CONTINUOUS
62
1
10
36250
20
-18200
11
36250
21
-18200
0
TEXT
8
COUCHE_1
 10
36350
 20
-18050
 11
36350
 21
-18050
 40
150
 1

50
0
 72
0
 73
3
62
0
0
TEXT
8
COUCHE_1
 10
36350
 20
-17900
 11
36350
 21
-17900
 40
150
 1
 
50
0
 72
0
 73
3
62
0
0
POLYLINE
5
2B
 8
0
62
1
 6
CONTINUOUS
 66
 1
 10
0
 20
0
 30
0
 70
1
 0
VERTEX
 5
33
  8
0
 10
36450
 20
-18150
 0
VERTEX
 5
33
  8
0
 10
36550
 20
-18150
 0
VERTEX
 5
33
  8
0
 10
36550
 20
-18250
 0
VERTEX
 5
33
  8
0
 10
36450
 20
-18250
 0
SEQEND
 5
37
 8
0
 0
LINE
8
COUCHE_1
 6
CONTINUOUS
62
1
10
36500
20
-18200
11
36500
21
-18200
0
TEXT
8
COUCHE_1
 10
36600
 20
-18050
 11
36600
 21
-18050
 40
150
 1

50
0
 72
0
 73
3
62
0
0
TEXT
8
COUCHE_1
 10
36600
 20
-17900
 11
36600
 21
-17900
 40
150
 1
 
50
0
 72
0
 73
3
62
0
0
POLYLINE
5
2B
 8
0
62
1
 6
CONTINUOUS
 66
 1
 10
0
 20
0
 30
0
 70
1
 0
VERTEX
 5
33
  8
0
 10
36950
 20
-18150
 0
VERTEX
 5
33
  8
0
 10
37050
 20
-18150
 0
VERTEX
 5
33
  8
0
 10
37050
 20
-18250
 0
VERTEX
 5
33
  8
0
 10
36950
 20
-18250
 0
SEQEND
 5
37
 8
0
 0
LINE
8
COUCHE_1
 6
CONTINUOUS
62
1
10
37000
20
-18200
11
37000
21
-18200
0
TEXT
8
COUCHE_1
 10
37100
 20
-18050
 11
37100
 21
-18050
 40
150
 1

50
0
 72
0
 73
3
62
0
0
TEXT
8
COUCHE_1
 10
37000
 20
-17900
 11
37000
 21
-17900
 40
150
 1
 
50
0
 72
0
 73
3
62
0
0
POLYLINE
5
2B
 8
0
62
1
 6
CONTINUOUS
 66
 1
 10
0
 20
0
 30
0
 70
1
 0
VERTEX
 5
33
  8
0
 10
34950
 20
-17750
 0
VERTEX
 5
33
  8
0
 10
35050
 20
-17750
 0
VERTEX
 5
33
  8
0
 10
35050
 20
-17850
 0
VERTEX
 5
33
  8
0
 10
34950
 20
-17850
 0
SEQEND
 5
37
 8
0
 0
LINE
8
COUCHE_1
 6
CONTINUOUS
62
1
10
35000
20
-17800
11
35000
21
-17800
0
TEXT
8
COUCHE_1
 10
35100
 20
-17650
 11
35100
 21
-17650
 40
150
 1

50
0
 72
0
 73
3
62
0
0
TEXT
8
COUCHE_1
 10
35100
 20
-17500
 11
35100
 21
-17500
 40
150
 1
 
50
0
 72
0
 73
3
62
0
0
POLYLINE
5
2B
 8
0
62
1
 6
CONTINUOUS
 66
 1
 10
0
 20
0
 30
0
 70
1
 0
VERTEX
 5
33
  8
0
 10
35200
 20
-17750
 0
VERTEX
 5
33
  8
0
 10
35300
 20
-17750
 0
VERTEX
 5
33
  8
0
 10
35300
 20
-17850
 0
VERTEX
 5
33
  8
0
 10
35200
 20
-17850
 0
SEQEND
 5
37
 8
0
 0
LINE
8
COUCHE_1
 6
CONTINUOUS
62
1
10
35250
20
-17800
11
35250
21
-17800
0
TEXT
8
COUCHE_1
 10
35350
 20
-17650
 11
35350
 21
-17650
 40
150
 1

50
0
 72
0
 73
3
62
0
0
TEXT
8
COUCHE_1
 10
35350
 20
-17500
 11
35350
 21
-17500
 40
150
 1
 
50
0
 72
0
 73
3
62
0
0
POLYLINE
5
2B
 8
0
62
1
 6
CONTINUOUS
 66
 1
 10
0
 20
0
 30
0
 70
1
 0
VERTEX
 5
33
  8
0
 10
35450
 20
-17750
 0
VERTEX
 5
33
  8
0
 10
35550
 20
-17750
 0
VERTEX
 5
33
  8
0
 10
35550
 20
-17850
 0
VERTEX
 5
33
  8
0
 10
35450
 20
-17850
 0
SEQEND
 5
37
 8
0
 0
LINE
8
COUCHE_1
 6
CONTINUOUS
62
1
10
35500
20
-17800
11
35500
21
-17800
0
TEXT
8
COUCHE_1
 10
35600
 20
-17650
 11
35600
 21
-17650
 40
150
 1

50
0
 72
0
 73
3
62
0
0
TEXT
8
COUCHE_1
 10
35600
 20
-17500
 11
35600
 21
-17500
 40
150
 1
 
50
0
 72
0
 73
3
62
0
0
POLYLINE
5
2B
 8
0
62
1
 6
CONTINUOUS
 66
 1
 10
0
 20
0
 30
0
 70
1
 0
VERTEX
 5
33
  8
0
 10
35700
 20
-17750
 0
VERTEX
 5
33
  8
0
 10
35800
 20
-17750
 0
VERTEX
 5
33
  8
0
 10
35800
 20
-17850
 0
VERTEX
 5
33
  8
0
 10
35700
 20
-17850
 0
SEQEND
 5
37
 8
0
 0
LINE
8
COUCHE_1
 6
CONTINUOUS
62
1
10
35750
20
-17800
11
35750
21
-17800
0
TEXT
8
COUCHE_1
 10
35850
 20
-17650
 11
35850
 21
-17650
 40
150
 1

50
0
 72
0
 73
3
62
0
0
TEXT
8
COUCHE_1
 10
35850
 20
-17500
 11
35850
 21
-17500
 40
150
 1
 
50
0
 72
0
 73
3
62
0
0
POLYLINE
5
2B
 8
0
62
1
 6
CONTINUOUS
 66
 1
 10
0
 20
0
 30
0
 70
1
 0
VERTEX
 5
33
  8
0
 10
35950
 20
-17750
 0
VERTEX
 5
33
  8
0
 10
36050
 20
-17750
 0
VERTEX
 5
33
  8
0
 10
36050
 20
-17850
 0
VERTEX
 5
33
  8
0
 10
35950
 20
-17850
 0
SEQEND
 5
37
 8
0
 0
LINE
8
COUCHE_1
 6
CONTINUOUS
62
1
10
36000
20
-17800
11
36000
21
-17800
0
TEXT
8
COUCHE_1
 10
36100
 20
-17650
 11
36100
 21
-17650
 40
150
 1

50
0
 72
0
 73
3
62
0
0
TEXT
8
COUCHE_1
 10
36100
 20
-17500
 11
36100
 21
-17500
 40
150
 1
 
50
0
 72
0
 73
3
62
0
0
POLYLINE
5
2B
 8
0
62
1
 6
CONTINUOUS
 66
 1
 10
0
 20
0
 30
0
 70
1
 0
VERTEX
 5
33
  8
0
 10
36200
 20
-17750
 0
VERTEX
 5
33
  8
0
 10
36300
 20
-17750
 0
VERTEX
 5
33
  8
0
 10
36300
 20
-17850
 0
VERTEX
 5
33
  8
0
 10
36200
 20
-17850
 0
SEQEND
 5
37
 8
0
 0
LINE
8
COUCHE_1
 6
CONTINUOUS
62
1
10
36250
20
-17800
11
36250
21
-17800
0
TEXT
8
COUCHE_1
 10
36350
 20
-17650
 11
36350
 21
-17650
 40
150
 1

50
0
 72
0
 73
3
62
0
0
TEXT
8
COUCHE_1
 10
36250
 20
-17500
 11
36250
 21
-17500
 40
150
 1
 
50
0
 72
0
 73
3
62
0
0
POLYLINE
5
2B
 8
0
62
1
 6
CONTINUOUS
 66
 1
 10
0
 20
0
 30
0
 70
1
 0
VERTEX
 5
33
  8
0
 10
34950
 20
-18150
 0
VERTEX
 5
33
  8
0
 10
35050
 20
-18150
 0
VERTEX
 5
33
  8
0
 10
35050
 20
-18250
 0
VERTEX
 5
33
  8
0
 10
34950
 20
-18250
 0
SEQEND
 5
37
 8
0
 0
LINE
8
COUCHE_1
 6
CONTINUOUS
62
1
10
35000
20
-18200
11
35000
21
-18200
0
TEXT
8
COUCHE_1
 10
35100
 20
-18050
 11
35100
 21
-18050
 40
150
 1

50
0
 72
0
 73
3
62
0
0
TEXT
8
COUCHE_1
 10
35400
 20
-19400
 11
35400
 21
-19400
 40
150
 1
 
50
0
 72
0
 73
3
62
0
0
POLYLINE
5
2B
 8
0
62
1
 6
CONTINUOUS
 66
 1
 10
0
 20
0
 30
0
 70
1
 0
VERTEX
 5
33
  8
0
 10
35200
 20
-18150
 0
VERTEX
 5
33
  8
0
 10
35300
 20
-18150
 0
VERTEX
 5
33
  8
0
 10
35300
 20
-18250
 0
VERTEX
 5
33
  8
0
 10
35200
 20
-18250
 0
SEQEND
 5
37
 8
0
 0
LINE
8
COUCHE_1
 6
CONTINUOUS
62
1
10
35250
20
-18200
11
35250
21
-18200
0
TEXT
8
COUCHE_1
 10
35350
 20
-18050
 11
35350
 21
-18050
 40
150
 1

50
0
 72
0
 73
3
62
0
0
TEXT
8
COUCHE_1
 10
35350
 20
-17900
 11
35350
 21
-17900
 40
150
 1
 
50
0
 72
0
 73
3
62
0
0
POLYLINE
5
2B
 8
0
62
1
 6
CONTINUOUS
 66
 1
 10
0
 20
0
 30
0
 70
1
 0
VERTEX
 5
33
  8
0
 10
33950
 20
-18150
 0
VERTEX
 5
33
  8
0
 10
34050
 20
-18150
 0
VERTEX
 5
33
  8
0
 10
34050
 20
-18250
 0
VERTEX
 5
33
  8
0
 10
33950
 20
-18250
 0
SEQEND
 5
37
 8
0
 0
LINE
8
COUCHE_1
 6
CONTINUOUS
62
1
10
34000
20
-18200
11
34000
21
-18200
0
TEXT
8
COUCHE_1
 10
34100
 20
-18050
 11
34100
 21
-18050
 40
150
 1

50
0
 72
0
 73
3
62
0
0
TEXT
8
COUCHE_1
 10
34100
 20
-17900
 11
34100
 21
-17900
 40
150
 1
 
50
0
 72
0
 73
3
62
0
0
POLYLINE
5
2B
 8
0
62
1
 6
CONTINUOUS
 66
 1
 10
0
 20
0
 30
0
 70
1
 0
VERTEX
 5
33
  8
0
 10
34200
 20
-18150
 0
VERTEX
 5
33
  8
0
 10
34300
 20
-18150
 0
VERTEX
 5
33
  8
0
 10
34300
 20
-18250
 0
VERTEX
 5
33
  8
0
 10
34200
 20
-18250
 0
SEQEND
 5
37
 8
0
 0
LINE
8
COUCHE_1
 6
CONTINUOUS
62
1
10
34250
20
-18200
11
34250
21
-18200
0
TEXT
8
COUCHE_1
 10
34350
 20
-18050
 11
34350
 21
-18050
 40
150
 1

50
0
 72
0
 73
3
62
0
0
TEXT
8
COUCHE_1
 10
34350
 20
-17900
 11
34350
 21
-17900
 40
150
 1
 
50
0
 72
0
 73
3
62
0
0
POLYLINE
5
2B
 8
0
62
1
 6
CONTINUOUS
 66
 1
 10
0
 20
0
 30
0
 70
1
 0
VERTEX
 5
33
  8
0
 10
34450
 20
-18150
 0
VERTEX
 5
33
  8
0
 10
34550
 20
-18150
 0
VERTEX
 5
33
  8
0
 10
34550
 20
-18250
 0
VERTEX
 5
33
  8
0
 10
34450
 20
-18250
 0
SEQEND
 5
37
 8
0
 0
LINE
8
COUCHE_1
 6
CONTINUOUS
62
1
10
34500
20
-18200
11
34500
21
-18200
0
TEXT
8
COUCHE_1
 10
34600
 20
-18050
 11
34600
 21
-18050
 40
150
 1

50
0
 72
0
 73
3
62
0
0
TEXT
8
COUCHE_1
 10
34600
 20
-17900
 11
34600
 21
-17900
 40
150
 1
 
50
0
 72
0
 73
3
62
0
0
POLYLINE
5
2B
 8
0
62
1
 6
CONTINUOUS
 66
 1
 10
0
 20
0
 30
0
 70
1
 0
VERTEX
 5
33
  8
0
 10
34700
 20
-18150
 0
VERTEX
 5
33
  8
0
 10
34800
 20
-18150
 0
VERTEX
 5
33
  8
0
 10
34800
 20
-18250
 0
VERTEX
 5
33
  8
0
 10
34700
 20
-18250
 0
SEQEND
 5
37
 8
0
 0
LINE
8
COUCHE_1
 6
CONTINUOUS
62
1
10
34750
20
-18200
11
34750
21
-18200
0
TEXT
8
COUCHE_1
 10
34850
 20
-18050
 11
34850
 21
-18050
 40
150
 1

50
0
 72
0
 73
3
62
0
0
TEXT
8
COUCHE_1
 10
34850
 20
-17900
 11
34850
 21
-17900
 40
150
 1
 
50
0
 72
0
 73
3
62
0
0
POLYLINE
5
2B
 8
0
62
1
 6
CONTINUOUS
 66
 1
 10
0
 20
0
 30
0
 70
1
 0
VERTEX
 5
33
  8
0
 10
33450
 20
-17750
 0
VERTEX
 5
33
  8
0
 10
33550
 20
-17750
 0
VERTEX
 5
33
  8
0
 10
33550
 20
-17850
 0
VERTEX
 5
33
  8
0
 10
33450
 20
-17850
 0
SEQEND
 5
37
 8
0
 0
LINE
8
COUCHE_1
 6
CONTINUOUS
62
1
10
33500
20
-17800
11
33500
21
-17800
0
TEXT
8
COUCHE_1
 10
33600
 20
-17650
 11
33600
 21
-17650
 40
150
 1

50
0
 72
0
 73
3
62
0
0
TEXT
8
COUCHE_1
 10
33600
 20
-17500
 11
33600
 21
-17500
 40
150
 1
 
50
0
 72
0
 73
3
62
0
0
POLYLINE
5
2B
 8
0
62
1
 6
CONTINUOUS
 66
 1
 10
0
 20
0
 30
0
 70
1
 0
VERTEX
 5
33
  8
0
 10
33700
 20
-17750
 0
VERTEX
 5
33
  8
0
 10
33800
 20
-17750
 0
VERTEX
 5
33
  8
0
 10
33800
 20
-17850
 0
VERTEX
 5
33
  8
0
 10
33700
 20
-17850
 0
SEQEND
 5
37
 8
0
 0
LINE
8
COUCHE_1
 6
CONTINUOUS
62
1
10
33750
20
-17800
11
33750
21
-17800
0
TEXT
8
COUCHE_1
 10
33850
 20
-17650
 11
33850
 21
-17650
 40
150
 1

50
0
 72
0
 73
3
62
0
0
TEXT
8
COUCHE_1
 10
33850
 20
-17500
 11
33850
 21
-17500
 40
150
 1
 
50
0
 72
0
 73
3
62
0
0
POLYLINE
5
2B
 8
0
62
1
 6
CONTINUOUS
 66
 1
 10
0
 20
0
 30
0
 70
1
 0
VERTEX
 5
33
  8
0
 10
33950
 20
-17750
 0
VERTEX
 5
33
  8
0
 10
34050
 20
-17750
 0
VERTEX
 5
33
  8
0
 10
34050
 20
-17850
 0
VERTEX
 5
33
  8
0
 10
33950
 20
-17850
 0
SEQEND
 5
37
 8
0
 0
LINE
8
COUCHE_1
 6
CONTINUOUS
62
1
10
34000
20
-17800
11
34000
21
-17800
0
TEXT
8
COUCHE_1
 10
34100
 20
-17650
 11
34100
 21
-17650
 40
150
 1

50
0
 72
0
 73
3
62
0
0
TEXT
8
COUCHE_1
 10
34100
 20
-17500
 11
34100
 21
-17500
 40
150
 1
 
50
0
 72
0
 73
3
62
0
0
POLYLINE
5
2B
 8
0
62
1
 6
CONTINUOUS
 66
 1
 10
0
 20
0
 30
0
 70
1
 0
VERTEX
 5
33
  8
0
 10
34200
 20
-17750
 0
VERTEX
 5
33
  8
0
 10
34300
 20
-17750
 0
VERTEX
 5
33
  8
0
 10
34300
 20
-17850
 0
VERTEX
 5
33
  8
0
 10
34200
 20
-17850
 0
SEQEND
 5
37
 8
0
 0
LINE
8
COUCHE_1
 6
CONTINUOUS
62
1
10
34250
20
-17800
11
34250
21
-17800
0
TEXT
8
COUCHE_1
 10
34350
 20
-17650
 11
34350
 21
-17650
 40
150
 1

50
0
 72
0
 73
3
62
0
0
TEXT
8
COUCHE_1
 10
34350
 20
-17500
 11
34350
 21
-17500
 40
150
 1
 
50
0
 72
0
 73
3
62
0
0
POLYLINE
5
2B
 8
0
62
1
 6
CONTINUOUS
 66
 1
 10
0
 20
0
 30
0
 70
1
 0
VERTEX
 5
33
  8
0
 10
34450
 20
-17750
 0
VERTEX
 5
33
  8
0
 10
34550
 20
-17750
 0
VERTEX
 5
33
  8
0
 10
34550
 20
-17850
 0
VERTEX
 5
33
  8
0
 10
34450
 20
-17850
 0
SEQEND
 5
37
 8
0
 0
LINE
8
COUCHE_1
 6
CONTINUOUS
62
1
10
34500
20
-17800
11
34500
21
-17800
0
TEXT
8
COUCHE_1
 10
34600
 20
-17650
 11
34600
 21
-17650
 40
150
 1

50
0
 72
0
 73
3
62
0
0
TEXT
8
COUCHE_1
 10
34600
 20
-17500
 11
34600
 21
-17500
 40
150
 1
 
50
0
 72
0
 73
3
62
0
0
POLYLINE
5
2B
 8
0
62
1
 6
CONTINUOUS
 66
 1
 10
0
 20
0
 30
0
 70
1
 0
VERTEX
 5
33
  8
0
 10
34700
 20
-17750
 0
VERTEX
 5
33
  8
0
 10
34800
 20
-17750
 0
VERTEX
 5
33
  8
0
 10
34800
 20
-17850
 0
VERTEX
 5
33
  8
0
 10
34700
 20
-17850
 0
SEQEND
 5
37
 8
0
 0
LINE
8
COUCHE_1
 6
CONTINUOUS
62
1
10
34750
20
-17800
11
34750
21
-17800
0
TEXT
8
COUCHE_1
 10
34850
 20
-17650
 11
34850
 21
-17650
 40
150
 1

50
0
 72
0
 73
3
62
0
0
TEXT
8
COUCHE_1
 10
34750
 20
-17500
 11
34750
 21
-17500
 40
150
 1
 
50
0
 72
0
 73
3
62
0
0
POLYLINE
5
2B
 8
0
62
1
 6
CONTINUOUS
 66
 1
 10
0
 20
0
 30
0
 70
1
 0
VERTEX
 5
33
  8
0
 10
33450
 20
-18150
 0
VERTEX
 5
33
  8
0
 10
33550
 20
-18150
 0
VERTEX
 5
33
  8
0
 10
33550
 20
-18250
 0
VERTEX
 5
33
  8
0
 10
33450
 20
-18250
 0
SEQEND
 5
37
 8
0
 0
LINE
8
COUCHE_1
 6
CONTINUOUS
62
1
10
33500
20
-18200
11
33500
21
-18200
0
TEXT
8
COUCHE_1
 10
33600
 20
-18050
 11
33600
 21
-18050
 40
150
 1

50
0
 72
0
 73
3
62
0
0
TEXT
8
COUCHE_1
 10
33600
 20
-17900
 11
33600
 21
-17900
 40
150
 1
 
50
0
 72
0
 73
3
62
0
0
POLYLINE
5
2B
 8
0
62
1
 6
CONTINUOUS
 66
 1
 10
0
 20
0
 30
0
 70
1
 0
VERTEX
 5
33
  8
0
 10
33700
 20
-18150
 0
VERTEX
 5
33
  8
0
 10
33800
 20
-18150
 0
VERTEX
 5
33
  8
0
 10
33800
 20
-18250
 0
VERTEX
 5
33
  8
0
 10
33700
 20
-18250
 0
SEQEND
 5
37
 8
0
 0
LINE
8
COUCHE_1
 6
CONTINUOUS
62
1
10
33750
20
-18200
11
33750
21
-18200
0
TEXT
8
COUCHE_1
 10
33850
 20
-18050
 11
33850
 21
-18050
 40
150
 1

50
0
 72
0
 73
3
62
0
0
TEXT
8
COUCHE_1
 10
33850
 20
-17900
 11
33850
 21
-17900
 40
150
 1
 
50
0
 72
0
 73
3
62
0
0
POLYLINE
5
2B
 8
0
62
1
 6
CONTINUOUS
 66
 1
 10
0
 20
0
 30
0
 70
1
 0
VERTEX
 5
33
  8
0
 10
38250
 20
-17750
 0
VERTEX
 5
33
  8
0
 10
38350
 20
-17750
 0
VERTEX
 5
33
  8
0
 10
38350
 20
-17850
 0
VERTEX
 5
33
  8
0
 10
38250
 20
-17850
 0
SEQEND
 5
37
 8
0
 0
LINE
8
COUCHE_1
 6
CONTINUOUS
62
1
10
38300
20
-17800
11
38300
21
-17800
0
TEXT
8
COUCHE_1
 10
38400
 20
-17650
 11
38400
 21
-17650
 40
150
 1

50
0
 72
0
 73
3
62
0
0
TEXT
8
COUCHE_1
 10
38400
 20
-17800
 11
38400
 21
-17800
 40
100
 1

50
0
 72
0
 73
3
62
0
0
POLYLINE
5
2B
 8
0
62
1
 6
CONTINUOUS
 66
 1
 10
0
 20
0
 30
0
 70
1
 0
VERTEX
 5
33
  8
0
 10
38500
 20
-17750
 0
VERTEX
 5
33
  8
0
 10
38600
 20
-17750
 0
VERTEX
 5
33
  8
0
 10
38600
 20
-17850
 0
VERTEX
 5
33
  8
0
 10
38500
 20
-17850
 0
SEQEND
 5
37
 8
0
 0
LINE
8
COUCHE_1
 6
CONTINUOUS
62
1
10
38550
20
-17800
11
38550
21
-17800
0
TEXT
8
COUCHE_1
 10
38650
 20
-17650
 11
38650
 21
-17650
 40
150
 1

50
0
 72
0
 73
3
62
0
0
TEXT
8
COUCHE_1
 10
38650
 20
-17800
 11
38650
 21
-17800
 40
100
 1

50
0
 72
0
 73
3
62
0
0
POLYLINE
5
2B
 8
0
62
1
 6
CONTINUOUS
 66
 1
 10
0
 20
0
 30
0
 70
1
 0
VERTEX
 5
33
  8
0
 10
38000
 20
-17750
 0
VERTEX
 5
33
  8
0
 10
38100
 20
-17750
 0
VERTEX
 5
33
  8
0
 10
38100
 20
-17850
 0
VERTEX
 5
33
  8
0
 10
38000
 20
-17850
 0
SEQEND
 5
37
 8
0
 0
LINE
8
COUCHE_1
 6
CONTINUOUS
62
1
10
38050
20
-17800
11
38050
21
-17800
0
TEXT
8
COUCHE_1
 10
38150
 20
-17650
 11
38150
 21
-17650
 40
150
 1

50
0
 72
0
 73
3
62
0
0
TEXT
8
COUCHE_1
 10
38150
 20
-17500
 11
38150
 21
-17500
 40
150
 1
 
50
0
 72
0
 73
3
62
0
0
POLYLINE
5
2B
 8
0
62
1
 6
CONTINUOUS
 66
 1
 10
0
 20
0
 30
0
 70
1
 0
VERTEX
 5
33
  8
0
 10
38000
 20
-18150
 0
VERTEX
 5
33
  8
0
 10
38100
 20
-18150
 0
VERTEX
 5
33
  8
0
 10
38100
 20
-18250
 0
VERTEX
 5
33
  8
0
 10
38000
 20
-18250
 0
SEQEND
 5
37
 8
0
 0
LINE
8
COUCHE_1
 6
CONTINUOUS
62
1
10
38050
20
-18200
11
38050
21
-18200
0
TEXT
8
COUCHE_1
 10
38150
 20
-18050
 11
38150
 21
-18050
 40
150
 1

50
0
 72
0
 73
3
62
0
0
TEXT
8
COUCHE_1
 10
38150
 20
-17900
 11
38150
 21
-17900
 40
150
 1
 
50
0
 72
0
 73
3
62
0
0
POLYLINE
5
2B
 8
0
62
1
 6
CONTINUOUS
 66
 1
 10
0
 20
0
 30
0
 70
1
 0
VERTEX
 5
33
  8
0
 10
38250
 20
-18150
 0
VERTEX
 5
33
  8
0
 10
38350
 20
-18150
 0
VERTEX
 5
33
  8
0
 10
38350
 20
-18250
 0
VERTEX
 5
33
  8
0
 10
38250
 20
-18250
 0
SEQEND
 5
37
 8
0
 0
LINE
8
COUCHE_1
 6
CONTINUOUS
62
1
10
38300
20
-18200
11
38300
21
-18200
0
TEXT
8
COUCHE_1
 10
38400
 20
-18050
 11
38400
 21
-18050
 40
150
 1

50
0
 72
0
 73
3
62
0
0
TEXT
8
COUCHE_1
 10
38400
 20
-17900
 11
38400
 21
-17900
 40
150
 1
 
50
0
 72
0
 73
3
62
0
0
POLYLINE
5
2B
 8
0
62
1
 6
CONTINUOUS
 66
 1
 10
0
 20
0
 30
0
 70
1
 0
VERTEX
 5
33
  8
0
 10
38500
 20
-18150
 0
VERTEX
 5
33
  8
0
 10
38600
 20
-18150
 0
VERTEX
 5
33
  8
0
 10
38600
 20
-18250
 0
VERTEX
 5
33
  8
0
 10
38500
 20
-18250
 0
SEQEND
 5
37
 8
0
 0
LINE
8
COUCHE_1
 6
CONTINUOUS
62
1
10
38550
20
-18200
11
38550
21
-18200
0
TEXT
8
COUCHE_1
 10
38650
 20
-18050
 11
38650
 21
-18050
 40
150
 1

50
0
 72
0
 73
3
62
0
0
TEXT
8
COUCHE_1
 10
38550
 20
-17900
 11
38550
 21
-17900
 40
150
 1
 
50
0
 72
0
 73
3
62
0
 0
LINE
8
COUCHE_1
 6
CONTINUOUS
62
5
10
35400
20
-19200
11
35300
21
-19100
 0
LINE
8
COUCHE_1
 6
CONTINUOUS
62
5
10
35400
20
-19200
11
35500
21
-19100
 0
LINE
8
COUCHE_1
 6
CONTINUOUS
62
5
10
38400
20
-19200
11
38300
21
-19100
 0
LINE
8
COUCHE_1
 6
CONTINUOUS
62
5
10
38400
20
-19200
11
38500
21
-19100
 0
LINE
8
COUCHE_1
 6
CONTINUOUS
62
0
10
36500
20
-17400
11
36500
21
-17500
 0
LINE
8
COUCHE_1
 6
CONTINUOUS
62
0
10
36750
20
-17400
11
36750
21
-17500
 0
LINE
8
COUCHE_1
 6
CONTINUOUS
62
0
10
37000
20
-17400
11
37000
21
-17500
 0
LINE
8
COUCHE_1
 6
CONTINUOUS
62
0
10
37250
20
-17400
11
37250
21
-17500
 0
LINE
8
COUCHE_1
 6
CONTINUOUS
62
0
10
37500
20
-17400
11
37500
21
-17500
 0
LINE
8
COUCHE_1
 6
CONTINUOUS
62
0
10
37750
20
-17400
11
37750
21
-17500
 0
LINE
8
COUCHE_1
 6
CONTINUOUS
62
0
10
37900
20
-17200
11
33350
21
-17200
 0
LINE
8
COUCHE_1
 6
CONTINUOUS
62
0
10
37900
20
-17200
11
37900
21
-17600
 0
LINE
8
COUCHE_1
 6
CONTINUOUS
62
0
10
37900
20
-17600
11
33350
21
-17600
 0
LINE
8
COUCHE_1
 6
CONTINUOUS
62
0
10
33350
20
-17600
11
33350
21
-17200
 0
LINE
8
COUCHE_1
 6
CONTINUOUS
62
0
10
35000
20
-17500
11
35000
21
-17400
 0
LINE
8
COUCHE_1
 6
CONTINUOUS
62
0
10
35250
20
-17400
11
35250
21
-17500
 0
LINE
8
COUCHE_1
 6
CONTINUOUS
62
0
10
35500
20
-17400
11
35500
21
-17500
 0
LINE
8
COUCHE_1
 6
CONTINUOUS
62
0
10
35750
20
-17400
11
35750
21
-17500
 0
LINE
8
COUCHE_1
 6
CONTINUOUS
62
0
10
36000
20
-17400
11
36000
21
-17500
 0
LINE
8
COUCHE_1
 6
CONTINUOUS
62
0
10
36250
20
-17400
11
36250
21
-17500
 0
LINE
8
COUCHE_1
 6
CONTINUOUS
62
0
10
33500
20
-17500
11
33500
21
-17400
 0
LINE
8
COUCHE_1
 6
CONTINUOUS
62
0
10
33750
20
-17400
11
33750
21
-17500
 0
LINE
8
COUCHE_1
 6
CONTINUOUS
62
0
10
34000
20
-17400
11
34000
21
-17500
 0
LINE
8
COUCHE_1
 6
CONTINUOUS
62
0
10
34250
20
-17400
11
34250
21
-17500
 0
LINE
8
COUCHE_1
 6
CONTINUOUS
62
0
10
34500
20
-17400
11
34500
21
-17500
 0
LINE
8
COUCHE_1
 6
CONTINUOUS
62
0
10
34750
20
-17400
11
34750
21
-17500
 0
LINE
8
COUCHE_1
 6
CONTINUOUS
62
0
10
38050
20
-17400
11
38050
21
-17500
 0
LINE
8
COUCHE_1
 6
CONTINUOUS
62
0
10
38300
20
-17400
11
38300
21
-17500
 0
LINE
8
COUCHE_1
 6
CONTINUOUS
62
0
10
38550
20
-17400
11
38550
21
-17500
 0
LINE
8
COUCHE_1
 6
CONTINUOUS
62
0
10
37900
20
-17600
11
38700
21
-17600
 0
LINE
8
COUCHE_1
 6
CONTINUOUS
62
0
10
38700
20
-17600
11
38700
21
-17200
 0
LINE
8
COUCHE_1
 6
CONTINUOUS
62
0
10
38700
20
-17200
11
37900
21
-17200
 0
ARC
8
COUCHE_1
62
0
10
36500
20
-17400
40
100
50
0
51
180
 0
ARC
8
COUCHE_1
62
0
10
36750
20
-17400
40
100
50
0
51
180
 0
ARC
8
COUCHE_1
62
0
10
37000
20
-17400
40
100
50
0
51
180
 0
ARC
8
COUCHE_1
62
0
10
37250
20
-17400
40
100
50
0
51
180
 0
ARC
8
COUCHE_1
62
0
10
37500
20
-17400
40
100
50
0
51
180
 0
ARC
8
COUCHE_1
62
0
10
37750
20
-17400
40
100
50
0
51
180
 0
ARC
8
COUCHE_1
62
0
10
35000
20
-17400
40
100
50
0
51
180
 0
ARC
8
COUCHE_1
62
0
10
35250
20
-17400
40
100
50
0
51
180
 0
ARC
8
COUCHE_1
62
0
10
35500
20
-17400
40
100
50
0
51
180
 0
ARC
8
COUCHE_1
62
0
10
35750
20
-17400
40
100
50
0
51
180
 0
ARC
8
COUCHE_1
62
0
10
36000
20
-17400
40
100
50
0
51
180
 0
ARC
8
COUCHE_1
62
0
10
36250
20
-17400
40
100
50
0
51
180
 0
ARC
8
COUCHE_1
62
0
10
33500
20
-17400
40
100
50
0
51
180
 0
ARC
8
COUCHE_1
62
0
10
33750
20
-17400
40
100
50
0
51
180
 0
ARC
8
COUCHE_1
62
0
10
34000
20
-17400
40
100
50
0
51
180
 0
ARC
8
COUCHE_1
62
0
10
34250
20
-17400
40
100
50
0
51
180
 0
ARC
8
COUCHE_1
62
0
10
34500
20
-17400
40
100
50
0
51
180
 0
ARC
8
COUCHE_1
62
0
10
34750
20
-17400
40
100
50
0
51
180
 0
ARC
8
COUCHE_1
62
0
10
38050
20
-17400
40
100
50
0
51
180
 0
ARC
8
COUCHE_1
62
0
10
38300
20
-17400
40
100
50
0
51
180
 0
ARC
8
COUCHE_1
62
0
10
38550
20
-17400
40
100
50
0
51
180
0
POLYLINE
5
2B
 8
0
62
1
 6
CONTINUOUS
 66
 1
 10
0
 20
0
 30
0
 70
1
 0
VERTEX
 5
33
  8
0
 10
36700
 20
-17150
 0
VERTEX
 5
33
  8
0
 10
36800
 20
-17150
 0
VERTEX
 5
33
  8
0
 10
36800
 20
-17250
 0
VERTEX
 5
33
  8
0
 10
36700
 20
-17250
 0
SEQEND
 5
37
 8
0
 0
LINE
8
COUCHE_1
 6
CONTINUOUS
62
1
10
36750
20
-17200
11
36750
21
-17200
0
TEXT
8
COUCHE_1
 10
36850
 20
-17050
 11
36850
 21
-17050
 40
100
 1

50
0
 72
0
 73
3
62
0
0
TEXT
8
COUCHE_1
 10
36850
 20
-17200
 11
36850
 21
-17200
 40
100
 1

50
0
 72
0
 73
3
62
0
0
POLYLINE
5
2B
 8
0
62
1
 6
CONTINUOUS
 66
 1
 10
0
 20
0
 30
0
 70
1
 0
VERTEX
 5
33
  8
0
 10
36950
 20
-17150
 0
VERTEX
 5
33
  8
0
 10
37050
 20
-17150
 0
VERTEX
 5
33
  8
0
 10
37050
 20
-17250
 0
VERTEX
 5
33
  8
0
 10
36950
 20
-17250
 0
SEQEND
 5
37
 8
0
 0
LINE
8
COUCHE_1
 6
CONTINUOUS
62
1
10
37000
20
-17200
11
37000
21
-17200
0
TEXT
8
COUCHE_1
 10
37100
 20
-17050
 11
37100
 21
-17050
 40
150
 1

50
0
 72
0
 73
3
62
0
0
TEXT
8
COUCHE_1
 10
37100
 20
-17200
 11
37100
 21
-17200
 40
100
 1

50
0
 72
0
 73
3
62
0
0
POLYLINE
5
2B
 8
0
62
1
 6
CONTINUOUS
 66
 1
 10
0
 20
0
 30
0
 70
1
 0
VERTEX
 5
33
  8
0
 10
36450
 20
-17150
 0
VERTEX
 5
33
  8
0
 10
36550
 20
-17150
 0
VERTEX
 5
33
  8
0
 10
36550
 20
-17250
 0
VERTEX
 5
33
  8
0
 10
36450
 20
-17250
 0
SEQEND
 5
37
 8
0
 0
LINE
8
COUCHE_1
 6
CONTINUOUS
62
1
10
36500
20
-17200
11
36500
21
-17200
0
TEXT
8
COUCHE_1
 10
36600
 20
-17050
 11
36600
 21
-17050
 40
150
 1

50
0
 72
0
 73
3
62
0
0
TEXT
8
COUCHE_1
 10
36600
 20
-17200
 11
36600
 21
-17200
 40
100
 1

50
0
 72
0
 73
3
62
0
0
POLYLINE
5
2B
 8
0
62
1
 6
CONTINUOUS
 66
 1
 10
0
 20
0
 30
0
 70
1
 0
VERTEX
 5
33
  8
0
 10
37450
 20
-17150
 0
VERTEX
 5
33
  8
0
 10
37550
 20
-17150
 0
VERTEX
 5
33
  8
0
 10
37550
 20
-17250
 0
VERTEX
 5
33
  8
0
 10
37450
 20
-17250
 0
SEQEND
 5
37
 8
0
 0
LINE
8
COUCHE_1
 6
CONTINUOUS
62
1
10
37500
20
-17200
11
37500
21
-17200
0
TEXT
8
COUCHE_1
 10
37600
 20
-17050
 11
37600
 21
-17050
 40
150
 1

50
0
 72
0
 73
3
62
0
0
TEXT
8
COUCHE_1
 10
37600
 20
-17200
 11
37600
 21
-17200
 40
100
 1

50
0
 72
0
 73
3
62
0
0
POLYLINE
5
2B
 8
0
62
1
 6
CONTINUOUS
 66
 1
 10
0
 20
0
 30
0
 70
1
 0
VERTEX
 5
33
  8
0
 10
37700
 20
-17150
 0
VERTEX
 5
33
  8
0
 10
37800
 20
-17150
 0
VERTEX
 5
33
  8
0
 10
37800
 20
-17250
 0
VERTEX
 5
33
  8
0
 10
37700
 20
-17250
 0
SEQEND
 5
37
 8
0
 0
LINE
8
COUCHE_1
 6
CONTINUOUS
62
1
10
37750
20
-17200
11
37750
21
-17200
0
TEXT
8
COUCHE_1
 10
37850
 20
-17050
 11
37850
 21
-17050
 40
150
 1

50
0
 72
0
 73
3
62
0
0
TEXT
8
COUCHE_1
 10
37850
 20
-17200
 11
37850
 21
-17200
 40
100
 1

50
0
 72
0
 73
3
62
0
0
POLYLINE
5
2B
 8
0
62
1
 6
CONTINUOUS
 66
 1
 10
0
 20
0
 30
0
 70
1
 0
VERTEX
 5
33
  8
0
 10
36700
 20
-17550
 0
VERTEX
 5
33
  8
0
 10
36800
 20
-17550
 0
VERTEX
 5
33
  8
0
 10
36800
 20
-17650
 0
VERTEX
 5
33
  8
0
 10
36700
 20
-17650
 0
SEQEND
 5
37
 8
0
 0
LINE
8
COUCHE_1
 6
CONTINUOUS
62
1
10
36750
20
-17600
11
36750
21
-17600
0
TEXT
8
COUCHE_1
 10
36850
 20
-17450
 11
36850
 21
-17450
 40
150
 1

50
0
 72
0
 73
3
62
0
0
TEXT
8
COUCHE_1
 10
36850
 20
-17300
 11
36850
 21
-17300
 40
150
 1
 
50
0
 72
0
 73
3
62
0
0
POLYLINE
5
2B
 8
0
62
1
 6
CONTINUOUS
 66
 1
 10
0
 20
0
 30
0
 70
1
 0
VERTEX
 5
33
  8
0
 10
37200
 20
-17150
 0
VERTEX
 5
33
  8
0
 10
37300
 20
-17150
 0
VERTEX
 5
33
  8
0
 10
37300
 20
-17250
 0
VERTEX
 5
33
  8
0
 10
37200
 20
-17250
 0
SEQEND
 5
37
 8
0
 0
LINE
8
COUCHE_1
 6
CONTINUOUS
62
1
10
37250
20
-17200
11
37250
21
-17200
0
TEXT
8
COUCHE_1
 10
37350
 20
-17050
 11
37350
 21
-17050
 40
150
 1

50
0
 72
0
 73
3
62
0
0
TEXT
8
COUCHE_1
 10
37350
 20
-16900
 11
37350
 21
-16900
 40
150
 1
 
50
0
 72
0
 73
3
62
0
0
POLYLINE
5
2B
 8
0
62
1
 6
CONTINUOUS
 66
 1
 10
0
 20
0
 30
0
 70
1
 0
VERTEX
 5
33
  8
0
 10
37200
 20
-17550
 0
VERTEX
 5
33
  8
0
 10
37300
 20
-17550
 0
VERTEX
 5
33
  8
0
 10
37300
 20
-17650
 0
VERTEX
 5
33
  8
0
 10
37200
 20
-17650
 0
SEQEND
 5
37
 8
0
 0
LINE
8
COUCHE_1
 6
CONTINUOUS
62
1
10
37250
20
-17600
11
37250
21
-17600
0
TEXT
8
COUCHE_1
 10
37350
 20
-17450
 11
37350
 21
-17450
 40
150
 1

50
0
 72
0
 73
3
62
0
0
TEXT
8
COUCHE_1
 10
37350
 20
-17300
 11
37350
 21
-17300
 40
150
 1
 
50
0
 72
0
 73
3
62
0
0
POLYLINE
5
2B
 8
0
62
1
 6
CONTINUOUS
 66
 1
 10
0
 20
0
 30
0
 70
1
 0
VERTEX
 5
33
  8
0
 10
37450
 20
-17550
 0
VERTEX
 5
33
  8
0
 10
37550
 20
-17550
 0
VERTEX
 5
33
  8
0
 10
37550
 20
-17650
 0
VERTEX
 5
33
  8
0
 10
37450
 20
-17650
 0
SEQEND
 5
37
 8
0
 0
LINE
8
COUCHE_1
 6
CONTINUOUS
62
1
10
37500
20
-17600
11
37500
21
-17600
0
TEXT
8
COUCHE_1
 10
37600
 20
-17450
 11
37600
 21
-17450
 40
150
 1

50
0
 72
0
 73
3
62
0
0
TEXT
8
COUCHE_1
 10
37600
 20
-17300
 11
37600
 21
-17300
 40
150
 1
 
50
0
 72
0
 73
3
62
0
0
POLYLINE
5
2B
 8
0
62
1
 6
CONTINUOUS
 66
 1
 10
0
 20
0
 30
0
 70
1
 0
VERTEX
 5
33
  8
0
 10
37700
 20
-17550
 0
VERTEX
 5
33
  8
0
 10
37800
 20
-17550
 0
VERTEX
 5
33
  8
0
 10
37800
 20
-17650
 0
VERTEX
 5
33
  8
0
 10
37700
 20
-17650
 0
SEQEND
 5
37
 8
0
 0
LINE
8
COUCHE_1
 6
CONTINUOUS
62
1
10
37750
20
-17600
11
37750
21
-17600
0
TEXT
8
COUCHE_1
 10
37850
 20
-17450
 11
37850
 21
-17450
 40
150
 1

50
0
 72
0
 73
3
62
0
0
TEXT
8
COUCHE_1
 10
37750
 20
-17300
 11
37750
 21
-17300
 40
150
 1
 
50
0
 72
0
 73
3
62
0
0
POLYLINE
5
2B
 8
0
62
1
 6
CONTINUOUS
 66
 1
 10
0
 20
0
 30
0
 70
1
 0
VERTEX
 5
33
  8
0
 10
35450
 20
-17550
 0
VERTEX
 5
33
  8
0
 10
35550
 20
-17550
 0
VERTEX
 5
33
  8
0
 10
35550
 20
-17650
 0
VERTEX
 5
33
  8
0
 10
35450
 20
-17650
 0
SEQEND
 5
37
 8
0
 0
LINE
8
COUCHE_1
 6
CONTINUOUS
62
1
10
35500
20
-17600
11
35500
21
-17600
0
TEXT
8
COUCHE_1
 10
35600
 20
-17450
 11
35600
 21
-17450
 40
150
 1

50
0
 72
0
 73
3
62
0
0
TEXT
8
COUCHE_1
 10
35600
 20
-17300
 11
35600
 21
-17300
 40
150
 1
 
50
0
 72
0
 73
3
62
0
0
POLYLINE
5
2B
 8
0
62
1
 6
CONTINUOUS
 66
 1
 10
0
 20
0
 30
0
 70
1
 0
VERTEX
 5
33
  8
0
 10
35700
 20
-17550
 0
VERTEX
 5
33
  8
0
 10
35800
 20
-17550
 0
VERTEX
 5
33
  8
0
 10
35800
 20
-17650
 0
VERTEX
 5
33
  8
0
 10
35700
 20
-17650
 0
SEQEND
 5
37
 8
0
 0
LINE
8
COUCHE_1
 6
CONTINUOUS
62
1
10
35750
20
-17600
11
35750
21
-17600
0
TEXT
8
COUCHE_1
 10
35850
 20
-17450
 11
35850
 21
-17450
 40
150
 1

50
0
 72
0
 73
3
62
0
0
TEXT
8
COUCHE_1
 10
35000
 20
-17200
 11
35000
 21
-17200
 40
150
 1
 
50
0
 72
0
 73
3
62
0
0
POLYLINE
5
2B
 8
0
62
1
 6
CONTINUOUS
 66
 1
 10
0
 20
0
 30
0
 70
1
 0
VERTEX
 5
33
  8
0
 10
35950
 20
-17550
 0
VERTEX
 5
33
  8
0
 10
36050
 20
-17550
 0
VERTEX
 5
33
  8
0
 10
36050
 20
-17650
 0
VERTEX
 5
33
  8
0
 10
35950
 20
-17650
 0
SEQEND
 5
37
 8
0
 0
LINE
8
COUCHE_1
 6
CONTINUOUS
62
1
10
36000
20
-17600
11
36000
21
-17600
0
TEXT
8
COUCHE_1
 10
36100
 20
-17450
 11
36100
 21
-17450
 40
150
 1

50
0
 72
0
 73
3
62
0
0
TEXT
8
COUCHE_1
 10
36100
 20
-17300
 11
36100
 21
-17300
 40
150
 1
 
50
0
 72
0
 73
3
62
0
0
POLYLINE
5
2B
 8
0
62
1
 6
CONTINUOUS
 66
 1
 10
0
 20
0
 30
0
 70
1
 0
VERTEX
 5
33
  8
0
 10
36200
 20
-17550
 0
VERTEX
 5
33
  8
0
 10
36300
 20
-17550
 0
VERTEX
 5
33
  8
0
 10
36300
 20
-17650
 0
VERTEX
 5
33
  8
0
 10
36200
 20
-17650
 0
SEQEND
 5
37
 8
0
 0
LINE
8
COUCHE_1
 6
CONTINUOUS
62
1
10
36250
20
-17600
11
36250
21
-17600
0
TEXT
8
COUCHE_1
 10
36350
 20
-17450
 11
36350
 21
-17450
 40
150
 1

50
0
 72
0
 73
3
62
0
0
TEXT
8
COUCHE_1
 10
36350
 20
-17300
 11
36350
 21
-17300
 40
150
 1
 
50
0
 72
0
 73
3
62
0
0
POLYLINE
5
2B
 8
0
62
1
 6
CONTINUOUS
 66
 1
 10
0
 20
0
 30
0
 70
1
 0
VERTEX
 5
33
  8
0
 10
36450
 20
-17550
 0
VERTEX
 5
33
  8
0
 10
36550
 20
-17550
 0
VERTEX
 5
33
  8
0
 10
36550
 20
-17650
 0
VERTEX
 5
33
  8
0
 10
36450
 20
-17650
 0
SEQEND
 5
37
 8
0
 0
LINE
8
COUCHE_1
 6
CONTINUOUS
62
1
10
36500
20
-17600
11
36500
21
-17600
0
TEXT
8
COUCHE_1
 10
36600
 20
-17450
 11
36600
 21
-17450
 40
150
 1

50
0
 72
0
 73
3
62
0
0
TEXT
8
COUCHE_1
 10
36600
 20
-17300
 11
36600
 21
-17300
 40
150
 1
 
50
0
 72
0
 73
3
62
0
0
POLYLINE
5
2B
 8
0
62
1
 6
CONTINUOUS
 66
 1
 10
0
 20
0
 30
0
 70
1
 0
VERTEX
 5
33
  8
0
 10
36950
 20
-17550
 0
VERTEX
 5
33
  8
0
 10
37050
 20
-17550
 0
VERTEX
 5
33
  8
0
 10
37050
 20
-17650
 0
VERTEX
 5
33
  8
0
 10
36950
 20
-17650
 0
SEQEND
 5
37
 8
0
 0
LINE
8
COUCHE_1
 6
CONTINUOUS
62
1
10
37000
20
-17600
11
37000
21
-17600
0
TEXT
8
COUCHE_1
 10
37100
 20
-17450
 11
37100
 21
-17450
 40
150
 1

50
0
 72
0
 73
3
62
0
0
TEXT
8
COUCHE_1
 10
37000
 20
-17300
 11
37000
 21
-17300
 40
150
 1
 
50
0
 72
0
 73
3
62
0
0
POLYLINE
5
2B
 8
0
62
1
 6
CONTINUOUS
 66
 1
 10
0
 20
0
 30
0
 70
1
 0
VERTEX
 5
33
  8
0
 10
34950
 20
-17150
 0
VERTEX
 5
33
  8
0
 10
35050
 20
-17150
 0
VERTEX
 5
33
  8
0
 10
35050
 20
-17250
 0
VERTEX
 5
33
  8
0
 10
34950
 20
-17250
 0
SEQEND
 5
37
 8
0
 0
LINE
8
COUCHE_1
 6
CONTINUOUS
62
1
10
35000
20
-17200
11
35000
21
-17200
0
TEXT
8
COUCHE_1
 10
35100
 20
-17050
 11
35100
 21
-17050
 40
150
 1

50
0
 72
0
 73
3
62
0
0
TEXT
8
COUCHE_1
 10
35100
 20
-16900
 11
35100
 21
-16900
 40
150
 1
 
50
0
 72
0
 73
3
62
0
0
POLYLINE
5
2B
 8
0
62
1
 6
CONTINUOUS
 66
 1
 10
0
 20
0
 30
0
 70
1
 0
VERTEX
 5
33
  8
0
 10
35200
 20
-17150
 0
VERTEX
 5
33
  8
0
 10
35300
 20
-17150
 0
VERTEX
 5
33
  8
0
 10
35300
 20
-17250
 0
VERTEX
 5
33
  8
0
 10
35200
 20
-17250
 0
SEQEND
 5
37
 8
0
 0
LINE
8
COUCHE_1
 6
CONTINUOUS
62
1
10
35250
20
-17200
11
35250
21
-17200
0
TEXT
8
COUCHE_1
 10
35350
 20
-17050
 11
35350
 21
-17050
 40
150
 1

50
0
 72
0
 73
3
62
0
0
TEXT
8
COUCHE_1
 10
35350
 20
-16900
 11
35350
 21
-16900
 40
150
 1
 
50
0
 72
0
 73
3
62
0
0
POLYLINE
5
2B
 8
0
62
1
 6
CONTINUOUS
 66
 1
 10
0
 20
0
 30
0
 70
1
 0
VERTEX
 5
33
  8
0
 10
35450
 20
-17150
 0
VERTEX
 5
33
  8
0
 10
35550
 20
-17150
 0
VERTEX
 5
33
  8
0
 10
35550
 20
-17250
 0
VERTEX
 5
33
  8
0
 10
35450
 20
-17250
 0
SEQEND
 5
37
 8
0
 0
LINE
8
COUCHE_1
 6
CONTINUOUS
62
1
10
35500
20
-17200
11
35500
21
-17200
0
TEXT
8
COUCHE_1
 10
35600
 20
-17050
 11
35600
 21
-17050
 40
150
 1

50
0
 72
0
 73
3
62
0
0
TEXT
8
COUCHE_1
 10
35600
 20
-16900
 11
35600
 21
-16900
 40
150
 1
 
50
0
 72
0
 73
3
62
0
0
POLYLINE
5
2B
 8
0
62
1
 6
CONTINUOUS
 66
 1
 10
0
 20
0
 30
0
 70
1
 0
VERTEX
 5
33
  8
0
 10
35700
 20
-17150
 0
VERTEX
 5
33
  8
0
 10
35800
 20
-17150
 0
VERTEX
 5
33
  8
0
 10
35800
 20
-17250
 0
VERTEX
 5
33
  8
0
 10
35700
 20
-17250
 0
SEQEND
 5
37
 8
0
 0
LINE
8
COUCHE_1
 6
CONTINUOUS
62
1
10
35750
20
-17200
11
35750
21
-17200
0
TEXT
8
COUCHE_1
 10
35850
 20
-17050
 11
35850
 21
-17050
 40
150
 1

50
0
 72
0
 73
3
62
0
0
TEXT
8
COUCHE_1
 10
35850
 20
-16900
 11
35850
 21
-16900
 40
150
 1
 
50
0
 72
0
 73
3
62
0
0
POLYLINE
5
2B
 8
0
62
1
 6
CONTINUOUS
 66
 1
 10
0
 20
0
 30
0
 70
1
 0
VERTEX
 5
33
  8
0
 10
35950
 20
-17150
 0
VERTEX
 5
33
  8
0
 10
36050
 20
-17150
 0
VERTEX
 5
33
  8
0
 10
36050
 20
-17250
 0
VERTEX
 5
33
  8
0
 10
35950
 20
-17250
 0
SEQEND
 5
37
 8
0
 0
LINE
8
COUCHE_1
 6
CONTINUOUS
62
1
10
36000
20
-17200
11
36000
21
-17200
0
TEXT
8
COUCHE_1
 10
36100
 20
-17050
 11
36100
 21
-17050
 40
150
 1

50
0
 72
0
 73
3
62
0
0
TEXT
8
COUCHE_1
 10
36100
 20
-16900
 11
36100
 21
-16900
 40
150
 1
 
50
0
 72
0
 73
3
62
0
0
POLYLINE
5
2B
 8
0
62
1
 6
CONTINUOUS
 66
 1
 10
0
 20
0
 30
0
 70
1
 0
VERTEX
 5
33
  8
0
 10
36200
 20
-17150
 0
VERTEX
 5
33
  8
0
 10
36300
 20
-17150
 0
VERTEX
 5
33
  8
0
 10
36300
 20
-17250
 0
VERTEX
 5
33
  8
0
 10
36200
 20
-17250
 0
SEQEND
 5
37
 8
0
 0
LINE
8
COUCHE_1
 6
CONTINUOUS
62
1
10
36250
20
-17200
11
36250
21
-17200
0
TEXT
8
COUCHE_1
 10
36350
 20
-17050
 11
36350
 21
-17050
 40
150
 1

50
0
 72
0
 73
3
62
0
0
TEXT
8
COUCHE_1
 10
36250
 20
-16900
 11
36250
 21
-16900
 40
150
 1
 
50
0
 72
0
 73
3
62
0
0
POLYLINE
5
2B
 8
0
62
1
 6
CONTINUOUS
 66
 1
 10
0
 20
0
 30
0
 70
1
 0
VERTEX
 5
33
  8
0
 10
34950
 20
-17550
 0
VERTEX
 5
33
  8
0
 10
35050
 20
-17550
 0
VERTEX
 5
33
  8
0
 10
35050
 20
-17650
 0
VERTEX
 5
33
  8
0
 10
34950
 20
-17650
 0
SEQEND
 5
37
 8
0
 0
LINE
8
COUCHE_1
 6
CONTINUOUS
62
1
10
35000
20
-17600
11
35000
21
-17600
0
TEXT
8
COUCHE_1
 10
35100
 20
-17450
 11
35100
 21
-17450
 40
150
 1

50
0
 72
0
 73
3
62
0
0
TEXT
8
COUCHE_1
 10
35400
 20
-18800
 11
35400
 21
-18800
 40
150
 1
 
50
0
 72
0
 73
3
62
0
0
POLYLINE
5
2B
 8
0
62
1
 6
CONTINUOUS
 66
 1
 10
0
 20
0
 30
0
 70
1
 0
VERTEX
 5
33
  8
0
 10
35200
 20
-17550
 0
VERTEX
 5
33
  8
0
 10
35300
 20
-17550
 0
VERTEX
 5
33
  8
0
 10
35300
 20
-17650
 0
VERTEX
 5
33
  8
0
 10
35200
 20
-17650
 0
SEQEND
 5
37
 8
0
 0
LINE
8
COUCHE_1
 6
CONTINUOUS
62
1
10
35250
20
-17600
11
35250
21
-17600
0
TEXT
8
COUCHE_1
 10
35350
 20
-17450
 11
35350
 21
-17450
 40
150
 1

50
0
 72
0
 73
3
62
0
0
TEXT
8
COUCHE_1
 10
35350
 20
-17300
 11
35350
 21
-17300
 40
150
 1
 
50
0
 72
0
 73
3
62
0
0
POLYLINE
5
2B
 8
0
62
1
 6
CONTINUOUS
 66
 1
 10
0
 20
0
 30
0
 70
1
 0
VERTEX
 5
33
  8
0
 10
33950
 20
-17550
 0
VERTEX
 5
33
  8
0
 10
34050
 20
-17550
 0
VERTEX
 5
33
  8
0
 10
34050
 20
-17650
 0
VERTEX
 5
33
  8
0
 10
33950
 20
-17650
 0
SEQEND
 5
37
 8
0
 0
LINE
8
COUCHE_1
 6
CONTINUOUS
62
1
10
34000
20
-17600
11
34000
21
-17600
0
TEXT
8
COUCHE_1
 10
34100
 20
-17450
 11
34100
 21
-17450
 40
150
 1

50
0
 72
0
 73
3
62
0
0
TEXT
8
COUCHE_1
 10
34100
 20
-17300
 11
34100
 21
-17300
 40
150
 1
 
50
0
 72
0
 73
3
62
0
0
POLYLINE
5
2B
 8
0
62
1
 6
CONTINUOUS
 66
 1
 10
0
 20
0
 30
0
 70
1
 0
VERTEX
 5
33
  8
0
 10
34200
 20
-17550
 0
VERTEX
 5
33
  8
0
 10
34300
 20
-17550
 0
VERTEX
 5
33
  8
0
 10
34300
 20
-17650
 0
VERTEX
 5
33
  8
0
 10
34200
 20
-17650
 0
SEQEND
 5
37
 8
0
 0
LINE
8
COUCHE_1
 6
CONTINUOUS
62
1
10
34250
20
-17600
11
34250
21
-17600
0
TEXT
8
COUCHE_1
 10
34350
 20
-17450
 11
34350
 21
-17450
 40
150
 1

50
0
 72
0
 73
3
62
0
0
TEXT
8
COUCHE_1
 10
34350
 20
-17300
 11
34350
 21
-17300
 40
150
 1
 
50
0
 72
0
 73
3
62
0
0
POLYLINE
5
2B
 8
0
62
1
 6
CONTINUOUS
 66
 1
 10
0
 20
0
 30
0
 70
1
 0
VERTEX
 5
33
  8
0
 10
34450
 20
-17550
 0
VERTEX
 5
33
  8
0
 10
34550
 20
-17550
 0
VERTEX
 5
33
  8
0
 10
34550
 20
-17650
 0
VERTEX
 5
33
  8
0
 10
34450
 20
-17650
 0
SEQEND
 5
37
 8
0
 0
LINE
8
COUCHE_1
 6
CONTINUOUS
62
1
10
34500
20
-17600
11
34500
21
-17600
0
TEXT
8
COUCHE_1
 10
34600
 20
-17450
 11
34600
 21
-17450
 40
150
 1

50
0
 72
0
 73
3
62
0
0
TEXT
8
COUCHE_1
 10
34600
 20
-17300
 11
34600
 21
-17300
 40
150
 1
 
50
0
 72
0
 73
3
62
0
0
POLYLINE
5
2B
 8
0
62
1
 6
CONTINUOUS
 66
 1
 10
0
 20
0
 30
0
 70
1
 0
VERTEX
 5
33
  8
0
 10
34700
 20
-17550
 0
VERTEX
 5
33
  8
0
 10
34800
 20
-17550
 0
VERTEX
 5
33
  8
0
 10
34800
 20
-17650
 0
VERTEX
 5
33
  8
0
 10
34700
 20
-17650
 0
SEQEND
 5
37
 8
0
 0
LINE
8
COUCHE_1
 6
CONTINUOUS
62
1
10
34750
20
-17600
11
34750
21
-17600
0
TEXT
8
COUCHE_1
 10
34850
 20
-17450
 11
34850
 21
-17450
 40
150
 1

50
0
 72
0
 73
3
62
0
0
TEXT
8
COUCHE_1
 10
34850
 20
-17300
 11
34850
 21
-17300
 40
150
 1
 
50
0
 72
0
 73
3
62
0
0
POLYLINE
5
2B
 8
0
62
1
 6
CONTINUOUS
 66
 1
 10
0
 20
0
 30
0
 70
1
 0
VERTEX
 5
33
  8
0
 10
33450
 20
-17150
 0
VERTEX
 5
33
  8
0
 10
33550
 20
-17150
 0
VERTEX
 5
33
  8
0
 10
33550
 20
-17250
 0
VERTEX
 5
33
  8
0
 10
33450
 20
-17250
 0
SEQEND
 5
37
 8
0
 0
LINE
8
COUCHE_1
 6
CONTINUOUS
62
1
10
33500
20
-17200
11
33500
21
-17200
0
TEXT
8
COUCHE_1
 10
33600
 20
-17050
 11
33600
 21
-17050
 40
150
 1

50
0
 72
0
 73
3
62
0
0
TEXT
8
COUCHE_1
 10
33600
 20
-16900
 11
33600
 21
-16900
 40
150
 1
 
50
0
 72
0
 73
3
62
0
0
POLYLINE
5
2B
 8
0
62
1
 6
CONTINUOUS
 66
 1
 10
0
 20
0
 30
0
 70
1
 0
VERTEX
 5
33
  8
0
 10
33700
 20
-17150
 0
VERTEX
 5
33
  8
0
 10
33800
 20
-17150
 0
VERTEX
 5
33
  8
0
 10
33800
 20
-17250
 0
VERTEX
 5
33
  8
0
 10
33700
 20
-17250
 0
SEQEND
 5
37
 8
0
 0
LINE
8
COUCHE_1
 6
CONTINUOUS
62
1
10
33750
20
-17200
11
33750
21
-17200
0
TEXT
8
COUCHE_1
 10
33850
 20
-17050
 11
33850
 21
-17050
 40
150
 1

50
0
 72
0
 73
3
62
0
0
TEXT
8
COUCHE_1
 10
33850
 20
-16900
 11
33850
 21
-16900
 40
150
 1
 
50
0
 72
0
 73
3
62
0
0
POLYLINE
5
2B
 8
0
62
1
 6
CONTINUOUS
 66
 1
 10
0
 20
0
 30
0
 70
1
 0
VERTEX
 5
33
  8
0
 10
33950
 20
-17150
 0
VERTEX
 5
33
  8
0
 10
34050
 20
-17150
 0
VERTEX
 5
33
  8
0
 10
34050
 20
-17250
 0
VERTEX
 5
33
  8
0
 10
33950
 20
-17250
 0
SEQEND
 5
37
 8
0
 0
LINE
8
COUCHE_1
 6
CONTINUOUS
62
1
10
34000
20
-17200
11
34000
21
-17200
0
TEXT
8
COUCHE_1
 10
34100
 20
-17050
 11
34100
 21
-17050
 40
150
 1

50
0
 72
0
 73
3
62
0
0
TEXT
8
COUCHE_1
 10
34100
 20
-16900
 11
34100
 21
-16900
 40
150
 1
 
50
0
 72
0
 73
3
62
0
0
POLYLINE
5
2B
 8
0
62
1
 6
CONTINUOUS
 66
 1
 10
0
 20
0
 30
0
 70
1
 0
VERTEX
 5
33
  8
0
 10
34200
 20
-17150
 0
VERTEX
 5
33
  8
0
 10
34300
 20
-17150
 0
VERTEX
 5
33
  8
0
 10
34300
 20
-17250
 0
VERTEX
 5
33
  8
0
 10
34200
 20
-17250
 0
SEQEND
 5
37
 8
0
 0
LINE
8
COUCHE_1
 6
CONTINUOUS
62
1
10
34250
20
-17200
11
34250
21
-17200
0
TEXT
8
COUCHE_1
 10
34350
 20
-17050
 11
34350
 21
-17050
 40
150
 1

50
0
 72
0
 73
3
62
0
0
TEXT
8
COUCHE_1
 10
34350
 20
-16900
 11
34350
 21
-16900
 40
150
 1
 
50
0
 72
0
 73
3
62
0
0
POLYLINE
5
2B
 8
0
62
1
 6
CONTINUOUS
 66
 1
 10
0
 20
0
 30
0
 70
1
 0
VERTEX
 5
33
  8
0
 10
34450
 20
-17150
 0
VERTEX
 5
33
  8
0
 10
34550
 20
-17150
 0
VERTEX
 5
33
  8
0
 10
34550
 20
-17250
 0
VERTEX
 5
33
  8
0
 10
34450
 20
-17250
 0
SEQEND
 5
37
 8
0
 0
LINE
8
COUCHE_1
 6
CONTINUOUS
62
1
10
34500
20
-17200
11
34500
21
-17200
0
TEXT
8
COUCHE_1
 10
34600
 20
-17050
 11
34600
 21
-17050
 40
150
 1

50
0
 72
0
 73
3
62
0
0
TEXT
8
COUCHE_1
 10
34600
 20
-16900
 11
34600
 21
-16900
 40
150
 1
 
50
0
 72
0
 73
3
62
0
0
POLYLINE
5
2B
 8
0
62
1
 6
CONTINUOUS
 66
 1
 10
0
 20
0
 30
0
 70
1
 0
VERTEX
 5
33
  8
0
 10
34700
 20
-17150
 0
VERTEX
 5
33
  8
0
 10
34800
 20
-17150
 0
VERTEX
 5
33
  8
0
 10
34800
 20
-17250
 0
VERTEX
 5
33
  8
0
 10
34700
 20
-17250
 0
SEQEND
 5
37
 8
0
 0
LINE
8
COUCHE_1
 6
CONTINUOUS
62
1
10
34750
20
-17200
11
34750
21
-17200
0
TEXT
8
COUCHE_1
 10
34850
 20
-17050
 11
34850
 21
-17050
 40
150
 1

50
0
 72
0
 73
3
62
0
0
TEXT
8
COUCHE_1
 10
34750
 20
-16900
 11
34750
 21
-16900
 40
150
 1
 
50
0
 72
0
 73
3
62
0
0
POLYLINE
5
2B
 8
0
62
1
 6
CONTINUOUS
 66
 1
 10
0
 20
0
 30
0
 70
1
 0
VERTEX
 5
33
  8
0
 10
33450
 20
-17550
 0
VERTEX
 5
33
  8
0
 10
33550
 20
-17550
 0
VERTEX
 5
33
  8
0
 10
33550
 20
-17650
 0
VERTEX
 5
33
  8
0
 10
33450
 20
-17650
 0
SEQEND
 5
37
 8
0
 0
LINE
8
COUCHE_1
 6
CONTINUOUS
62
1
10
33500
20
-17600
11
33500
21
-17600
0
TEXT
8
COUCHE_1
 10
33600
 20
-17450
 11
33600
 21
-17450
 40
150
 1

50
0
 72
0
 73
3
62
0
0
TEXT
8
COUCHE_1
 10
33600
 20
-17300
 11
33600
 21
-17300
 40
150
 1
 
50
0
 72
0
 73
3
62
0
0
POLYLINE
5
2B
 8
0
62
1
 6
CONTINUOUS
 66
 1
 10
0
 20
0
 30
0
 70
1
 0
VERTEX
 5
33
  8
0
 10
33700
 20
-17550
 0
VERTEX
 5
33
  8
0
 10
33800
 20
-17550
 0
VERTEX
 5
33
  8
0
 10
33800
 20
-17650
 0
VERTEX
 5
33
  8
0
 10
33700
 20
-17650
 0
SEQEND
 5
37
 8
0
 0
LINE
8
COUCHE_1
 6
CONTINUOUS
62
1
10
33750
20
-17600
11
33750
21
-17600
0
TEXT
8
COUCHE_1
 10
33850
 20
-17450
 11
33850
 21
-17450
 40
150
 1

50
0
 72
0
 73
3
62
0
0
TEXT
8
COUCHE_1
 10
33850
 20
-17300
 11
33850
 21
-17300
 40
150
 1
 
50
0
 72
0
 73
3
62
0
0
POLYLINE
5
2B
 8
0
62
1
 6
CONTINUOUS
 66
 1
 10
0
 20
0
 30
0
 70
1
 0
VERTEX
 5
33
  8
0
 10
38250
 20
-17150
 0
VERTEX
 5
33
  8
0
 10
38350
 20
-17150
 0
VERTEX
 5
33
  8
0
 10
38350
 20
-17250
 0
VERTEX
 5
33
  8
0
 10
38250
 20
-17250
 0
SEQEND
 5
37
 8
0
 0
LINE
8
COUCHE_1
 6
CONTINUOUS
62
1
10
38300
20
-17200
11
38300
21
-17200
0
TEXT
8
COUCHE_1
 10
38400
 20
-17050
 11
38400
 21
-17050
 40
150
 1

50
0
 72
0
 73
3
62
0
0
TEXT
8
COUCHE_1
 10
38400
 20
-17200
 11
38400
 21
-17200
 40
100
 1

50
0
 72
0
 73
3
62
0
0
POLYLINE
5
2B
 8
0
62
1
 6
CONTINUOUS
 66
 1
 10
0
 20
0
 30
0
 70
1
 0
VERTEX
 5
33
  8
0
 10
38500
 20
-17150
 0
VERTEX
 5
33
  8
0
 10
38600
 20
-17150
 0
VERTEX
 5
33
  8
0
 10
38600
 20
-17250
 0
VERTEX
 5
33
  8
0
 10
38500
 20
-17250
 0
SEQEND
 5
37
 8
0
 0
LINE
8
COUCHE_1
 6
CONTINUOUS
62
1
10
38550
20
-17200
11
38550
21
-17200
0
TEXT
8
COUCHE_1
 10
38650
 20
-17050
 11
38650
 21
-17050
 40
150
 1

50
0
 72
0
 73
3
62
0
0
TEXT
8
COUCHE_1
 10
38650
 20
-17200
 11
38650
 21
-17200
 40
100
 1

50
0
 72
0
 73
3
62
0
0
POLYLINE
5
2B
 8
0
62
1
 6
CONTINUOUS
 66
 1
 10
0
 20
0
 30
0
 70
1
 0
VERTEX
 5
33
  8
0
 10
38000
 20
-17150
 0
VERTEX
 5
33
  8
0
 10
38100
 20
-17150
 0
VERTEX
 5
33
  8
0
 10
38100
 20
-17250
 0
VERTEX
 5
33
  8
0
 10
38000
 20
-17250
 0
SEQEND
 5
37
 8
0
 0
LINE
8
COUCHE_1
 6
CONTINUOUS
62
1
10
38050
20
-17200
11
38050
21
-17200
0
TEXT
8
COUCHE_1
 10
38150
 20
-17050
 11
38150
 21
-17050
 40
150
 1

50
0
 72
0
 73
3
62
0
0
TEXT
8
COUCHE_1
 10
38150
 20
-16900
 11
38150
 21
-16900
 40
150
 1
 
50
0
 72
0
 73
3
62
0
0
POLYLINE
5
2B
 8
0
62
1
 6
CONTINUOUS
 66
 1
 10
0
 20
0
 30
0
 70
1
 0
VERTEX
 5
33
  8
0
 10
38000
 20
-17550
 0
VERTEX
 5
33
  8
0
 10
38100
 20
-17550
 0
VERTEX
 5
33
  8
0
 10
38100
 20
-17650
 0
VERTEX
 5
33
  8
0
 10
38000
 20
-17650
 0
SEQEND
 5
37
 8
0
 0
LINE
8
COUCHE_1
 6
CONTINUOUS
62
1
10
38050
20
-17600
11
38050
21
-17600
0
TEXT
8
COUCHE_1
 10
38150
 20
-17450
 11
38150
 21
-17450
 40
150
 1

50
0
 72
0
 73
3
62
0
0
TEXT
8
COUCHE_1
 10
38150
 20
-17300
 11
38150
 21
-17300
 40
150
 1
 
50
0
 72
0
 73
3
62
0
0
POLYLINE
5
2B
 8
0
62
1
 6
CONTINUOUS
 66
 1
 10
0
 20
0
 30
0
 70
1
 0
VERTEX
 5
33
  8
0
 10
38250
 20
-17550
 0
VERTEX
 5
33
  8
0
 10
38350
 20
-17550
 0
VERTEX
 5
33
  8
0
 10
38350
 20
-17650
 0
VERTEX
 5
33
  8
0
 10
38250
 20
-17650
 0
SEQEND
 5
37
 8
0
 0
LINE
8
COUCHE_1
 6
CONTINUOUS
62
1
10
38300
20
-17600
11
38300
21
-17600
0
TEXT
8
COUCHE_1
 10
38400
 20
-17450
 11
38400
 21
-17450
 40
150
 1

50
0
 72
0
 73
3
62
0
0
TEXT
8
COUCHE_1
 10
38400
 20
-17300
 11
38400
 21
-17300
 40
150
 1
 
50
0
 72
0
 73
3
62
0
0
POLYLINE
5
2B
 8
0
62
1
 6
CONTINUOUS
 66
 1
 10
0
 20
0
 30
0
 70
1
 0
VERTEX
 5
33
  8
0
 10
38500
 20
-17550
 0
VERTEX
 5
33
  8
0
 10
38600
 20
-17550
 0
VERTEX
 5
33
  8
0
 10
38600
 20
-17650
 0
VERTEX
 5
33
  8
0
 10
38500
 20
-17650
 0
SEQEND
 5
37
 8
0
 0
LINE
8
COUCHE_1
 6
CONTINUOUS
62
1
10
38550
20
-17600
11
38550
21
-17600
0
TEXT
8
COUCHE_1
 10
38650
 20
-17450
 11
38650
 21
-17450
 40
150
 1

50
0
 72
0
 73
3
62
0
0
TEXT
8
COUCHE_1
 10
38550
 20
-17300
 11
38550
 21
-17300
 40
150
 1
 
50
0
 72
0
 73
3
62
0
 0
LINE
8
COUCHE_1
 6
CONTINUOUS
62
0
10
16400
20
-19800
11
16400
21
-18600
 0
LINE
8
COUCHE_1
 6
CONTINUOUS
62
0
10
16400
20
-18600
11
17200
21
-18600
 0
LINE
8
COUCHE_1
 6
CONTINUOUS
62
0
10
20000
20
-19800
11
20000
21
-18600
 0
LINE
8
COUCHE_1
 6
CONTINUOUS
62
0
10
19200
20
-18600
11
20000
21
-18600
 0
LINE
8
COUCHE_1
 6
CONTINUOUS
62
0
10
19400
20
-25000
11
19400
21
-23400
 0
LINE
8
COUCHE_1
 6
CONTINUOUS
62
0
10
19400
20
-23400
11
20200
21
-23400
 0
LINE
8
COUCHE_1
 6
CONTINUOUS
62
0
10
23000
20
-25000
11
23000
21
-23400
 0
LINE
8
COUCHE_1
 6
CONTINUOUS
62
0
10
22200
20
-23400
11
23000
21
-23400
 0
LINE
8
COUCHE_1
 6
CONTINUOUS
62
0
10
22400
20
-19800
11
22400
21
-18600
 0
LINE
8
COUCHE_1
 6
CONTINUOUS
62
0
10
22400
20
-18600
11
23200
21
-18600
 0
LINE
8
COUCHE_1
 6
CONTINUOUS
62
0
10
26000
20
-19800
11
26000
21
-18600
 0
LINE
8
COUCHE_1
 6
CONTINUOUS
62
0
10
25200
20
-18600
11
26000
21
-18600
 0
LINE
8
COUCHE_1
 6
CONTINUOUS
62
0
10
25400
20
-25000
11
25400
21
-23400
 0
LINE
8
COUCHE_1
 6
CONTINUOUS
62
0
10
29000
20
-25000
11
29000
21
-23400
 0
LINE
8
COUCHE_1
 6
CONTINUOUS
62
0
10
25400
20
-23400
11
26200
21
-23400
 0
LINE
8
COUCHE_1
 6
CONTINUOUS
62
0
10
28200
20
-23400
11
29000
21
-23400
 0
LINE
8
COUCHE_1
 6
CONTINUOUS
62
0
10
3600
20
-8800
11
40400
21
-8800
 0
LINE
8
COUCHE_1
 6
CONTINUOUS
62
0
10
3600
20
-7800
11
40400
21
-7800
 0
LINE
8
COUCHE_1
 6
CONTINUOUS
62
0
10
26200
20
-23400
11
26200
21
-13000
 0
LINE
8
COUCHE_1
 6
CONTINUOUS
62
0
10
28200
20
-23400
11
28200
21
-13000
 0
LINE
8
COUCHE_1
 6
CONTINUOUS
62
0
10
27200
20
-23200
11
27200
21
-13000
 0
LINE
8
COUCHE_1
 6
CONTINUOUS
62
0
10
23200
20
-18600
11
23200
21
-13000
 0
LINE
8
COUCHE_1
 6
CONTINUOUS
62
0
10
24200
20
-18000
11
24200
21
-13000
 0
LINE
8
COUCHE_1
 6
CONTINUOUS
62
0
10
25200
20
-18600
11
25200
21
-13000
 0
LINE
8
COUCHE_1
 6
CONTINUOUS
62
0
10
20200
20
-23400
11
20200
21
-13000
 0
LINE
8
COUCHE_1
 6
CONTINUOUS
62
0
10
21200
20
-23200
11
21200
21
-13000
 0
LINE
8
COUCHE_1
 6
CONTINUOUS
62
0
10
22200
20
-23400
11
22200
21
-13000
 0
LINE
8
COUCHE_1
 6
CONTINUOUS
62
0
10
18200
20
-18000
11
18200
21
-13000
 0
LINE
8
COUCHE_1
 6
CONTINUOUS
62
0
10
19200
20
-18600
11
19200
21
-13000
 0
LINE
8
COUCHE_1
 6
CONTINUOUS
62
0
10
17200
20
-18600
11
17200
21
-13000
 0
LINE
8
COUCHE_1
 6
CONTINUOUS
62
0
10
15200
20
-22000
11
15200
21
-13000
 0
LINE
8
COUCHE_1
 6
CONTINUOUS
62
0
10
15200
20
-23200
11
15200
21
-22000
 0
LINE
8
COUCHE_1
 6
CONTINUOUS
62
0
10
12200
20
-18000
11
12200
21
-13000
 0
LINE
8
COUCHE_1
 6
CONTINUOUS
62
0
10
11200
20
-18400
11
11200
21
-13000
 0
LINE
8
COUCHE_1
 6
CONTINUOUS
62
0
10
10400
20
-18400
11
11200
21
-18400
 0
LINE
8
COUCHE_1
 6
CONTINUOUS
62
0
10
10400
20
-19800
11
10400
21
-18400
 0
LINE
8
COUCHE_1
 6
CONTINUOUS
62
0
10
13200
20
-18400
11
13200
21
-13000
 0
LINE
8
COUCHE_1
 6
CONTINUOUS
62
0
10
13200
20
-18400
11
14000
21
-18400
 0
LINE
8
COUCHE_1
 6
CONTINUOUS
62
0
10
14000
20
-19800
11
14000
21
-18400
 0
LINE
8
COUCHE_1
 6
CONTINUOUS
62
0
10
13400
20
-25000
11
13400
21
-23400
 0
LINE
8
COUCHE_1
 6
CONTINUOUS
62
0
10
13400
20
-23400
11
14200
21
-23400
 0
LINE
8
COUCHE_1
 6
CONTINUOUS
62
0
10
14200
20
-23400
11
14200
21
-13000
 0
LINE
8
COUCHE_1
 6
CONTINUOUS
62
0
10
17000
20
-25000
11
17000
21
-23400
 0
LINE
8
COUCHE_1
 6
CONTINUOUS
62
0
10
16200
20
-23400
11
17000
21
-23400
 0
LINE
8
COUCHE_1
 6
CONTINUOUS
62
0
10
16200
20
-23400
11
16200
21
-13000
 0
LINE
8
COUCHE_1
 6
CONTINUOUS
62
0
10
27200
20
-11400
11
27200
21
-6800
 0
LINE
8
COUCHE_1
 6
CONTINUOUS
62
0
10
27200
20
-6800
11
27200
21
-6600
 0
LINE
8
COUCHE_1
 6
CONTINUOUS
62
0
10
27200
20
-6600
11
27200
21
-4600
 0
LINE
8
COUCHE_1
 6
CONTINUOUS
62
0
10
24200
20
-11400
11
24200
21
-4600
 0
LINE
8
COUCHE_1
 6
CONTINUOUS
62
0
10
21200
20
-11400
11
21200
21
-4600
 0
LINE
8
COUCHE_1
 6
CONTINUOUS
62
0
10
18200
20
-11400
11
18200
21
-4600
 0
LINE
8
COUCHE_1
 6
CONTINUOUS
62
0
10
17200
20
-11400
11
17200
21
-7800
 0
LINE
8
COUCHE_1
 6
CONTINUOUS
62
0
10
20200
20
-11400
11
20200
21
-7800
 0
LINE
8
COUCHE_1
 6
CONTINUOUS
62
0
10
23200
20
-11400
11
23200
21
-7800
 0
LINE
8
COUCHE_1
 6
CONTINUOUS
62
0
10
26200
20
-11400
11
26200
21
-7800
 0
LINE
8
COUCHE_1
 6
CONTINUOUS
62
0
10
11200
20
-11400
11
11200
21
-7800
 0
LINE
8
COUCHE_1
 6
CONTINUOUS
62
0
10
14200
20
-11400
11
14200
21
-7800
 0
LINE
8
COUCHE_1
 6
CONTINUOUS
62
0
10
13200
20
-11400
11
13200
21
-8800
 0
LINE
8
COUCHE_1
 6
CONTINUOUS
62
0
10
16200
20
-11400
11
16200
21
-8800
 0
LINE
8
COUCHE_1
 6
CONTINUOUS
62
0
10
19200
20
-11400
11
19200
21
-8800
 0
LINE
8
COUCHE_1
 6
CONTINUOUS
62
0
10
22200
20
-11400
11
22200
21
-8800
 0
LINE
8
COUCHE_1
 6
CONTINUOUS
62
0
10
25200
20
-11400
11
25200
21
-8800
 0
LINE
8
COUCHE_1
 6
CONTINUOUS
62
0
10
28200
20
-11400
11
28200
21
-8800
 0
LINE
8
COUCHE_1
 6
CONTINUOUS
62
0
10
4200
20
-8800
11
4200
21
-5800
 0
LINE
8
COUCHE_1
 6
CONTINUOUS
62
0
10
5200
20
-7800
11
5200
21
-5800
 0
CIRCLE
8
COUCHE_1
62
5
 6
CONTINUOUS
10
17200
20
-7800
40
40
 0
CIRCLE
8
COUCHE_1
62
5
 6
CONTINUOUS
10
20200
20
-7800
40
40
 0
CIRCLE
8
COUCHE_1
62
5
 6
CONTINUOUS
10
23200
20
-7800
40
40
 0
CIRCLE
8
COUCHE_1
62
5
 6
CONTINUOUS
10
26200
20
-7800
40
40
 0
CIRCLE
8
COUCHE_1
62
5
 6
CONTINUOUS
10
11200
20
-7800
40
40
 0
CIRCLE
8
COUCHE_1
62
5
 6
CONTINUOUS
10
14200
20
-7800
40
40
 0
CIRCLE
8
COUCHE_1
62
5
 6
CONTINUOUS
10
13200
20
-8800
40
40
 0
CIRCLE
8
COUCHE_1
62
5
 6
CONTINUOUS
10
16200
20
-8800
40
40
 0
CIRCLE
8
COUCHE_1
62
5
 6
CONTINUOUS
10
19200
20
-8800
40
40
 0
CIRCLE
8
COUCHE_1
62
5
 6
CONTINUOUS
10
22200
20
-8800
40
40
 0
CIRCLE
8
COUCHE_1
62
5
 6
CONTINUOUS
10
25200
20
-8800
40
40
 0
CIRCLE
8
COUCHE_1
62
5
 6
CONTINUOUS
10
28200
20
-8800
40
40
 0
CIRCLE
8
COUCHE_1
62
5
 6
CONTINUOUS
10
4200
20
-8800
40
40
 0
CIRCLE
8
COUCHE_1
62
5
 6
CONTINUOUS
10
5200
20
-7800
40
40
0
POLYLINE
5
2B
 8
0
62
1
 6
CONTINUOUS
 66
 1
 10
0
 20
0
 30
0
 70
1
 0
VERTEX
 5
33
  8
0
 10
18200
 20
-4400
 0
VERTEX
 5
33
  8
0
 10
18000
 20
-4500
 0
VERTEX
 5
33
  8
0
 10
18200
 20
-4200
 0
VERTEX
 5
33
  8
0
 10
18400
 20
-4500
 0
SEQEND
 5
37
 8
0
 0
LINE
8
COUCHE_1
 6
CONTINUOUS
62
1
10
18200
20
-4600
11
18200
21
-4400
0
TEXT
8
COUCHE_1
 10
18200
 20
-4200
 11
18200
 21
-4200
 40
150
 1
H_B1
50
0
 72
1
 73
1
62
1
0
POLYLINE
5
2B
 8
0
62
1
 6
CONTINUOUS
 66
 1
 10
0
 20
0
 30
0
 70
1
 0
VERTEX
 5
33
  8
0
 10
21200
 20
-4400
 0
VERTEX
 5
33
  8
0
 10
21000
 20
-4500
 0
VERTEX
 5
33
  8
0
 10
21200
 20
-4200
 0
VERTEX
 5
33
  8
0
 10
21400
 20
-4500
 0
SEQEND
 5
37
 8
0
 0
LINE
8
COUCHE_1
 6
CONTINUOUS
62
1
10
21200
20
-4600
11
21200
21
-4400
0
TEXT
8
COUCHE_1
 10
21200
 20
-4200
 11
21200
 21
-4200
 40
150
 1
H_B2
50
0
 72
1
 73
1
62
1
0
POLYLINE
5
2B
 8
0
62
1
 6
CONTINUOUS
 66
 1
 10
0
 20
0
 30
0
 70
1
 0
VERTEX
 5
33
  8
0
 10
24200
 20
-4400
 0
VERTEX
 5
33
  8
0
 10
24000
 20
-4500
 0
VERTEX
 5
33
  8
0
 10
24200
 20
-4200
 0
VERTEX
 5
33
  8
0
 10
24400
 20
-4500
 0
SEQEND
 5
37
 8
0
 0
LINE
8
COUCHE_1
 6
CONTINUOUS
62
1
10
24200
20
-4600
11
24200
21
-4400
0
TEXT
8
COUCHE_1
 10
24200
 20
-4200
 11
24200
 21
-4200
 40
150
 1
H_B3
50
0
 72
1
 73
1
62
1
0
POLYLINE
5
2B
 8
0
62
1
 6
CONTINUOUS
 66
 1
 10
0
 20
0
 30
0
 70
1
 0
VERTEX
 5
33
  8
0
 10
27200
 20
-4400
 0
VERTEX
 5
33
  8
0
 10
27000
 20
-4500
 0
VERTEX
 5
33
  8
0
 10
27200
 20
-4200
 0
VERTEX
 5
33
  8
0
 10
27400
 20
-4500
 0
SEQEND
 5
37
 8
0
 0
LINE
8
COUCHE_1
 6
CONTINUOUS
62
1
10
27200
20
-4600
11
27200
21
-4400
0
TEXT
8
COUCHE_1
 10
27200
 20
-4200
 11
27200
 21
-4200
 40
150
 1
H_B4
50
0
 72
1
 73
1
62
1
0
POLYLINE
5
2B
 8
0
62
1
 6
CONTINUOUS
 66
 1
 10
0
 20
0
 30
0
 70
1
 0
VERTEX
 5
33
  8
0
 10
4200
 20
-5600
 0
VERTEX
 5
33
  8
0
 10
4000
 20
-5300
 0
VERTEX
 5
33
  8
0
 10
4200
 20
-5400
 0
VERTEX
 5
33
  8
0
 10
4400
 20
-5300
 0
SEQEND
 5
37
 8
0
 0
LINE
8
COUCHE_1
 6
CONTINUOUS
62
1
10
4200
20
-5800
11
4200
21
-5600
0
TEXT
8
COUCHE_1
 10
4200
 20
-5300
 11
4200
 21
-5300
 40
150
 1
H_24
50
0
 72
1
 73
1
62
1
0
POLYLINE
5
2B
 8
0
62
1
 6
CONTINUOUS
 66
 1
 10
0
 20
0
 30
0
 70
1
 0
VERTEX
 5
33
  8
0
 10
5200
 20
-5600
 0
VERTEX
 5
33
  8
0
 10
5000
 20
-5300
 0
VERTEX
 5
33
  8
0
 10
5200
 20
-5400
 0
VERTEX
 5
33
  8
0
 10
5400
 20
-5300
 0
SEQEND
 5
37
 8
0
 0
LINE
8
COUCHE_1
 6
CONTINUOUS
62
1
10
5200
20
-5800
11
5200
21
-5600
0
TEXT
8
COUCHE_1
 10
5200
 20
-5300
 11
5200
 21
-5300
 40
150
 1
H_0
50
0
 72
1
 73
1
62
1
0
TEXT
8
COUCHE_1
 10
11600
 20
-4000
 11
11600
 21
-4000
 40
200
 1
Vers carte optocoupleur Inputs PC
50
0
 72
0
 73
3
62
0
0
TEXT
8
COUCHE_1
 10
35200
 20
-18400
 11
35200
 21
-18400
 40
75
 1
Ha_3
50
0
 72
0
 73
3
62
0
0
TEXT
8
COUCHE_1
 10
38200
 20
-18400
 11
38200
 21
-18400
 40
75
 1
Ha_4
50
0
 72
0
 73
3
62
0
0
TEXT
8
COUCHE_1
 10
34400
 20
-19400
 11
34400
 21
-19400
 40
150
 1
Partie électrique
50
0
 72
0
 73
3
62
0
0
TEXT
8
COUCHE_1
 10
37200
 20
-19400
 11
37200
 21
-19400
 40
150
 1
Partie pneumatique
50
0
 72
0
 73
3
62
0
0
TEXT
8
COUCHE_1
 10
32600
 20
-17400
 11
32600
 21
-17400
 40
150
 1
Ha
50
0
 72
0
 73
3
62
0
0
TEXT
8
COUCHE_1
 10
35000
 20
-19800
 11
35000
 21
-19800
 40
150
 1
folio5
50
0
 72
0
 73
3
62
0
0
TEXT
8
COUCHE_1
 10
38000
 20
-19800
 11
38000
 21
-19800
 40
150
 1
folio11
50
0
 72
0
 73
3
62
0
0
TEXT
8
COUCHE_1
 10
35200
 20
-16800
 11
35200
 21
-16800
 40
75
 1
Ha_1
50
0
 72
0
 73
3
62
0
0
TEXT
8
COUCHE_1
 10
38200
 20
-16800
 11
38200
 21
-16800
 40
75
 1
Ha_2
50
0
 72
0
 73
3
62
0
0
TEXT
8
COUCHE_1
 10
35200
 20
-18600
 11
35200
 21
-18600
 40
75
 1
Réserve
50
0
 72
0
 73
3
62
0
0
TEXT
8
COUCHE_1
 10
38200
 20
-18600
 11
38200
 21
-18600
 40
75
 1
Réserve
50
0
 72
0
 73
3
62
0
 0
LINE
8
COUCHE_1
 6
CONTINUOUS
62
0
10
1200
20
-1200
11
41600
21
-1200
 0
LINE
8
COUCHE_1
 6
CONTINUOUS
62
0
10
1600
20
-1600
11
41600
21
-1600
 0
LINE
8
COUCHE_1
 6
CONTINUOUS
62
0
10
3200
20
-1200
11
3200
21
-1600
 0
LINE
8
COUCHE_1
 6
CONTINUOUS
62
0
10
4800
20
-1200
11
4800
21
-1600
 0
LINE
8
COUCHE_1
 6
CONTINUOUS
62
0
10
6400
20
-1200
11
6400
21
-1600
 0
LINE
8
COUCHE_1
 6
CONTINUOUS
62
0
10
8000
20
-1200
11
8000
21
-1600
 0
LINE
8
COUCHE_1
 6
CONTINUOUS
62
0
10
9600
20
-1200
11
9600
21
-1600
 0
LINE
8
COUCHE_1
 6
CONTINUOUS
62
0
10
11200
20
-1200
11
11200
21
-1600
 0
LINE
8
COUCHE_1
 6
CONTINUOUS
62
0
10
12800
20
-1200
11
12800
21
-1600
 0
LINE
8
COUCHE_1
 6
CONTINUOUS
62
0
10
14400
20
-1200
11
14400
21
-1600
 0
LINE
8
COUCHE_1
 6
CONTINUOUS
62
0
10
16000
20
-1200
11
16000
21
-1600
 0
LINE
8
COUCHE_1
 6
CONTINUOUS
62
0
10
17600
20
-1200
11
17600
21
-1600
 0
LINE
8
COUCHE_1
 6
CONTINUOUS
62
0
10
19200
20
-1200
11
19200
21
-1600
 0
LINE
8
COUCHE_1
 6
CONTINUOUS
62
0
10
20800
20
-1200
11
20800
21
-1600
 0
LINE
8
COUCHE_1
 6
CONTINUOUS
62
0
10
22400
20
-1200
11
22400
21
-1600
 0
LINE
8
COUCHE_1
 6
CONTINUOUS
62
0
10
24000
20
-1200
11
24000
21
-1600
 0
LINE
8
COUCHE_1
 6
CONTINUOUS
62
0
10
25600
20
-1200
11
25600
21
-1600
 0
LINE
8
COUCHE_1
 6
CONTINUOUS
62
0
10
27200
20
-1200
11
27200
21
-1600
 0
LINE
8
COUCHE_1
 6
CONTINUOUS
62
0
10
28800
20
-1200
11
28800
21
-1600
 0
LINE
8
COUCHE_1
 6
CONTINUOUS
62
0
10
30400
20
-1200
11
30400
21
-1600
 0
LINE
8
COUCHE_1
 6
CONTINUOUS
62
0
10
32000
20
-1200
11
32000
21
-1600
 0
LINE
8
COUCHE_1
 6
CONTINUOUS
62
0
10
33600
20
-1200
11
33600
21
-1600
 0
LINE
8
COUCHE_1
 6
CONTINUOUS
62
0
10
35200
20
-1200
11
35200
21
-1600
 0
LINE
8
COUCHE_1
 6
CONTINUOUS
62
0
10
36800
20
-1200
11
36800
21
-1600
 0
LINE
8
COUCHE_1
 6
CONTINUOUS
62
0
10
38400
20
-1200
11
38400
21
-1600
 0
LINE
8
COUCHE_1
 6
CONTINUOUS
62
0
10
40000
20
-1200
11
40000
21
-1600
 0
LINE
8
COUCHE_1
 6
CONTINUOUS
62
0
10
41600
20
-1200
11
41600
21
-1600
 0
LINE
8
COUCHE_1
 6
CONTINUOUS
62
0
10
41600
20
-1200
11
41600
21
-1600
 0
LINE
8
COUCHE_1
 6
CONTINUOUS
62
0
10
1200
20
-29300
11
41600
21
-29300
0
TEXT
8
COUCHE_1
 10
2400
 20
-1250
 11
2400
 21
-1250
 40
150
 1
A
50
0
 72
1
 73
3
62
0
0
TEXT
8
COUCHE_1
 10
4000
 20
-1250
 11
4000
 21
-1250
 40
150
 1
B
50
0
 72
1
 73
3
62
0
0
TEXT
8
COUCHE_1
 10
5600
 20
-1250
 11
5600
 21
-1250
 40
150
 1
C
50
0
 72
1
 73
3
62
0
0
TEXT
8
COUCHE_1
 10
7200
 20
-1250
 11
7200
 21
-1250
 40
150
 1
D
50
0
 72
1
 73
3
62
0
0
TEXT
8
COUCHE_1
 10
8800
 20
-1250
 11
8800
 21
-1250
 40
150
 1
E
50
0
 72
1
 73
3
62
0
0
TEXT
8
COUCHE_1
 10
10400
 20
-1250
 11
10400
 21
-1250
 40
150
 1
F
50
0
 72
1
 73
3
62
0
0
TEXT
8
COUCHE_1
 10
12000
 20
-1250
 11
12000
 21
-1250
 40
150
 1
G
50
0
 72
1
 73
3
62
0
0
TEXT
8
COUCHE_1
 10
13600
 20
-1250
 11
13600
 21
-1250
 40
150
 1
H
50
0
 72
1
 73
3
62
0
0
TEXT
8
COUCHE_1
 10
15200
 20
-1250
 11
15200
 21
-1250
 40
150
 1
I
50
0
 72
1
 73
3
62
0
0
TEXT
8
COUCHE_1
 10
16800
 20
-1250
 11
16800
 21
-1250
 40
150
 1
J
50
0
 72
1
 73
3
62
0
0
TEXT
8
COUCHE_1
 10
18400
 20
-1250
 11
18400
 21
-1250
 40
150
 1
K
50
0
 72
1
 73
3
62
0
0
TEXT
8
COUCHE_1
 10
20000
 20
-1250
 11
20000
 21
-1250
 40
150
 1
L
50
0
 72
1
 73
3
62
0
0
TEXT
8
COUCHE_1
 10
21600
 20
-1250
 11
21600
 21
-1250
 40
150
 1
M
50
0
 72
1
 73
3
62
0
0
TEXT
8
COUCHE_1
 10
23200
 20
-1250
 11
23200
 21
-1250
 40
150
 1
N
50
0
 72
1
 73
3
62
0
0
TEXT
8
COUCHE_1
 10
24800
 20
-1250
 11
24800
 21
-1250
 40
150
 1
O
50
0
 72
1
 73
3
62
0
0
TEXT
8
COUCHE_1
 10
26400
 20
-1250
 11
26400
 21
-1250
 40
150
 1
P
50
0
 72
1
 73
3
62
0
0
TEXT
8
COUCHE_1
 10
28000
 20
-1250
 11
28000
 21
-1250
 40
150
 1
Q
50
0
 72
1
 73
3
62
0
0
TEXT
8
COUCHE_1
 10
29600
 20
-1250
 11
29600
 21
-1250
 40
150
 1
R
50
0
 72
1
 73
3
62
0
0
TEXT
8
COUCHE_1
 10
31200
 20
-1250
 11
31200
 21
-1250
 40
150
 1
S
50
0
 72
1
 73
3
62
0
0
TEXT
8
COUCHE_1
 10
32800
 20
-1250
 11
32800
 21
-1250
 40
150
 1
T
50
0
 72
1
 73
3
62
0
0
TEXT
8
COUCHE_1
 10
34400
 20
-1250
 11
34400
 21
-1250
 40
150
 1
U
50
0
 72
1
 73
3
62
0
0
TEXT
8
COUCHE_1
 10
36000
 20
-1250
 11
36000
 21
-1250
 40
150
 1
V
50
0
 72
1
 73
3
62
0
0
TEXT
8
COUCHE_1
 10
37600
 20
-1250
 11
37600
 21
-1250
 40
150
 1
W
50
0
 72
1
 73
3
62
0
0
TEXT
8
COUCHE_1
 10
39200
 20
-1250
 11
39200
 21
-1250
 40
150
 1
X
50
0
 72
1
 73
3
62
0
0
TEXT
8
COUCHE_1
 10
40800
 20
-1250
 11
40800
 21
-1250
 40
150
 1
Y
50
0
 72
1
 73
3
62
0
 0
LINE
8
COUCHE_1
 6
CONTINUOUS
62
0
10
1200
20
-1200
11
1200
21
-29300
 0
LINE
8
COUCHE_1
 6
CONTINUOUS
62
0
10
1600
20
-1600
11
1600
21
-29300
 0
LINE
8
COUCHE_1
 6
CONTINUOUS
62
0
10
1200
20
-3200
11
1600
21
-3200
 0
LINE
8
COUCHE_1
 6
CONTINUOUS
62
0
10
1200
20
-4800
11
1600
21
-4800
 0
LINE
8
COUCHE_1
 6
CONTINUOUS
62
0
10
1200
20
-6400
11
1600
21
-6400
 0
LINE
8
COUCHE_1
 6
CONTINUOUS
62
0
10
1200
20
-8000
11
1600
21
-8000
 0
LINE
8
COUCHE_1
 6
CONTINUOUS
62
0
10
1200
20
-9600
11
1600
21
-9600
 0
LINE
8
COUCHE_1
 6
CONTINUOUS
62
0
10
1200
20
-11200
11
1600
21
-11200
 0
LINE
8
COUCHE_1
 6
CONTINUOUS
62
0
10
1200
20
-12800
11
1600
21
-12800
 0
LINE
8
COUCHE_1
 6
CONTINUOUS
62
0
10
1200
20
-14400
11
1600
21
-14400
 0
LINE
8
COUCHE_1
 6
CONTINUOUS
62
0
10
1200
20
-16000
11
1600
21
-16000
 0
LINE
8
COUCHE_1
 6
CONTINUOUS
62
0
10
1200
20
-17600
11
1600
21
-17600
 0
LINE
8
COUCHE_1
 6
CONTINUOUS
62
0
10
1200
20
-19200
11
1600
21
-19200
 0
LINE
8
COUCHE_1
 6
CONTINUOUS
62
0
10
1200
20
-20800
11
1600
21
-20800
 0
LINE
8
COUCHE_1
 6
CONTINUOUS
62
0
10
1200
20
-22400
11
1600
21
-22400
 0
LINE
8
COUCHE_1
 6
CONTINUOUS
62
0
10
1200
20
-24000
11
1600
21
-24000
 0
LINE
8
COUCHE_1
 6
CONTINUOUS
62
0
10
1200
20
-25600
11
1600
21
-25600
 0
LINE
8
COUCHE_1
 6
CONTINUOUS
62
0
10
1200
20
-27200
11
1600
21
-27200
 0
LINE
8
COUCHE_1
 6
CONTINUOUS
62
0
10
1200
20
-28800
11
1600
21
-28800
 0
LINE
8
COUCHE_1
 6
CONTINUOUS
62
0
10
1200
20
-29300
11
1600
21
-29300
 0
LINE
8
COUCHE_1
 6
CONTINUOUS
62
0
10
41600
20
-1200
11
41600
21
-29300
0
TEXT
8
COUCHE_1
 10
1400
 20
-2250
 11
1400
 21
-2250
 40
150
 1
1
50
0
 72
1
 73
3
62
0
0
TEXT
8
COUCHE_1
 10
1400
 20
-3850
 11
1400
 21
-3850
 40
150
 1
2
50
0
 72
1
 73
3
62
0
0
TEXT
8
COUCHE_1
 10
1400
 20
-5450
 11
1400
 21
-5450
 40
150
 1
3
50
0
 72
1
 73
3
62
0
0
TEXT
8
COUCHE_1
 10
1400
 20
-7050
 11
1400
 21
-7050
 40
150
 1
4
50
0
 72
1
 73
3
62
0
0
TEXT
8
COUCHE_1
 10
1400
 20
-8650
 11
1400
 21
-8650
 40
150
 1
5
50
0
 72
1
 73
3
62
0
0
TEXT
8
COUCHE_1
 10
1400
 20
-10250
 11
1400
 21
-10250
 40
150
 1
6
50
0
 72
1
 73
3
62
0
0
TEXT
8
COUCHE_1
 10
1400
 20
-11850
 11
1400
 21
-11850
 40
150
 1
7
50
0
 72
1
 73
3
62
0
0
TEXT
8
COUCHE_1
 10
1400
 20
-13450
 11
1400
 21
-13450
 40
150
 1
8
50
0
 72
1
 73
3
62
0
0
TEXT
8
COUCHE_1
 10
1400
 20
-15050
 11
1400
 21
-15050
 40
150
 1
9
50
0
 72
1
 73
3
62
0
0
TEXT
8
COUCHE_1
 10
1400
 20
-16650
 11
1400
 21
-16650
 40
150
 1
10
50
0
 72
1
 73
3
62
0
0
TEXT
8
COUCHE_1
 10
1400
 20
-18250
 11
1400
 21
-18250
 40
150
 1
11
50
0
 72
1
 73
3
62
0
0
TEXT
8
COUCHE_1
 10
1400
 20
-19850
 11
1400
 21
-19850
 40
150
 1
12
50
0
 72
1
 73
3
62
0
0
TEXT
8
COUCHE_1
 10
1400
 20
-21450
 11
1400
 21
-21450
 40
150
 1
13
50
0
 72
1
 73
3
62
0
0
TEXT
8
COUCHE_1
 10
1400
 20
-23050
 11
1400
 21
-23050
 40
150
 1
14
50
0
 72
1
 73
3
62
0
0
TEXT
8
COUCHE_1
 10
1400
 20
-24650
 11
1400
 21
-24650
 40
150
 1
15
50
0
 72
1
 73
3
62
0
0
TEXT
8
COUCHE_1
 10
1400
 20
-26250
 11
1400
 21
-26250
 40
150
 1
16
50
0
 72
1
 73
3
62
0
0
TEXT
8
COUCHE_1
 10
1400
 20
-27850
 11
1400
 21
-27850
 40
150
 1
17
50
0
 72
1
 73
3
62
0
 0
LINE
8
COUCHE_1
 6
CONTINUOUS
62
0
10
1600
20
-27800
11
41600
21
-27800
 0
LINE
8
COUCHE_1
 6
CONTINUOUS
62
0
10
39900
20
-29200
11
39900
21
-27800
 0
LINE
8
COUCHE_1
 6
CONTINUOUS
62
0
10
39900
20
-29200
11
41500
21
-27800
 0
LINE
8
COUCHE_1
 6
CONTINUOUS
62
0
10
8800
20
-29200
11
8800
21
-27800
 0
LINE
8
COUCHE_1
 6
CONTINUOUS
62
0
10
34200
20
-29200
11
34200
21
-27800
0
TEXT
8
COUCHE_1
 10
40800
 20
-28700
 11
40800
 21
-28700
 40
200
 1
14
50
0
 72
0
 73
3
62
0
0
TEXT
8
COUCHE_1
 10
40100
 20
-28000
 11
40100
 21
-28000
 40
200
 1
05
50
0
 72
0
 73
3
62
0
0
TEXT
8
COUCHE_1
 10
37700
 20
-28000
 11
37700
 21
-28000
 40
150
 1
14/02/2018
50
0
 72
2
 73
3
62
0
0
TEXT
8
COUCHE_1
 10
36800
 20
-28400
 11
36800
 21
-28400
 40
150
 1
1/2
50
0
 72
2
 73
3
62
0
0
TEXT
8
COUCHE_1
 10
34400
 20
-28000
 11
34400
 21
-28000
 40
150
 1
Dessiné le :
50
0
 72
0
 73
3
62
0
0
TEXT
8
COUCHE_1
 10
34400
 20
-28400
 11
34400
 21
-28400
 40
150
 1
Echelle :
50
0
 72
0
 73
3
62
0
0
TEXT
8
COUCHE_1
 10
37400
 20
-28800
 11
37400
 21
-28800
 40
150
 1
DN_DM
50
0
 72
2
 73
3
62
0
0
TEXT
8
COUCHE_1
 10
34400
 20
-28800
 11
34400
 21
-28800
 40
150
 1
Par : 
50
0
 72
0
 73
3
62
0
0
TEXT
8
COUCHE_1
 10
21600
 20
-28200
 11
21600
 21
-28200
 40
300
 1
Harting
50
0
 72
0
 73
3
62
0
 0
ENDSEC
 0
EOF
