 0
SECTION
 2
HEADER
 9
$ACADVER
 1
AC1009
 9
$CLAYER
 8
Couche_1
 9
$HANDLING
70
 0
9
$INSBASE
10
0
20
0
30
0
9
$THICKNESS
40
0
9
$UCSNAME
2
UCS_F1
9
$WORLDVIEW
70
1
9
$LTSCALE
40
15
0
ENDSEC
0
SECTION
2
TABLES
 0
TABLE
 2
APPID
70
 1
 0
APPID
 2
TASK
 70
 0
 0
ENDTAB
 0
TABLE
  2
LTYPE
 70
 2
 0
LTYPE
  2
CONTINUOUS
 70
 0
 3
Solid line
 72
65
 73
0
 40
0
  0
LTYPE
  2
ACAD_ISO03W100
 70
 0
 3
CAO pointillé long
 72
65
 73
2
 40
30
 49
12
 49
-18.0
  0
LTYPE
 2
ACAD_ISO07W100
 70
0
 3
CAO pointillé fin
 72
65
 73
2
 40
3
 49
0
 49
-3.0
  0
LTYPE
  2
ACAD_ISO02W100
 70
0
 3
CAO pointillé extra long
 72
65
 73
2
 40
15
 49
12
 49
-3
  0
LTYPE
  2
AXES
 70
0
 3
CAO Axe
 72
65
 73
4
 40
50.8
 49
31.75
 49
-6.35
 49
6.35
 49
-6.35
  0
ENDTAB
0
TABLE
2
LAYER
 70
20
 0
LAYER
 2
COUCHE_1
 70
 64
 62
 7
 6
CONTINUOUS
 0
ENDTAB
 0
TABLE
 2
UCS
 70
 6
 0
UCS
 2
UCSF1
 70
 64
 10
0.000000
 20
0.000000
 30
20.000000
 11
1.000000
 21
0.000000
 31
0.000000
 12
0.000000
 22
-1.000000
 32
0.000000
 0
ENDTAB
 0
ENDSEC
 0
SECTION
 2
ENTITIES
0
POLYLINE
5
2B
 8
0
62
0
 6
CONTINUOUS
 66
 1
 10
0
 20
0
 30
0
 70
1
 0
VERTEX
 5
33
  8
0
 10
10000
 20
-18600
 0
VERTEX
 5
33
  8
0
 10
10400
 20
-18600
 0
VERTEX
 5
33
  8
0
 10
10400
 20
-19000
 0
VERTEX
 5
33
  8
0
 10
10000
 20
-19000
 0
SEQEND
 5
37
 8
0
0
POLYLINE
5
2B
 8
0
62
0
 6
CONTINUOUS
 66
 1
 10
0
 20
0
 30
0
 70
1
 0
VERTEX
 5
33
  8
0
 10
16200
 20
-18600
 0
VERTEX
 5
33
  8
0
 10
16600
 20
-18600
 0
VERTEX
 5
33
  8
0
 10
16600
 20
-19000
 0
VERTEX
 5
33
  8
0
 10
16200
 20
-19000
 0
SEQEND
 5
37
 8
0
0
POLYLINE
5
2B
 8
0
62
0
 6
CONTINUOUS
 66
 1
 10
0
 20
0
 30
0
 70
1
 0
VERTEX
 5
33
  8
0
 10
21800
 20
-18600
 0
VERTEX
 5
33
  8
0
 10
22200
 20
-18600
 0
VERTEX
 5
33
  8
0
 10
22200
 20
-19000
 0
VERTEX
 5
33
  8
0
 10
21800
 20
-19000
 0
SEQEND
 5
37
 8
0
0
POLYLINE
5
2B
 8
0
62
0
 6
CONTINUOUS
 66
 1
 10
0
 20
0
 30
0
 70
1
 0
VERTEX
 5
33
  8
0
 10
27400
 20
-18600
 0
VERTEX
 5
33
  8
0
 10
27800
 20
-18600
 0
VERTEX
 5
33
  8
0
 10
27800
 20
-19000
 0
VERTEX
 5
33
  8
0
 10
27400
 20
-19000
 0
SEQEND
 5
37
 8
0
0
POLYLINE
5
2B
 8
0
62
0
 6
CONTINUOUS
 66
 1
 10
0
 20
0
 30
0
 70
1
 0
VERTEX
 5
33
  8
0
 10
33200
 20
-18600
 0
VERTEX
 5
33
  8
0
 10
33600
 20
-18600
 0
VERTEX
 5
33
  8
0
 10
33600
 20
-19000
 0
VERTEX
 5
33
  8
0
 10
33200
 20
-19000
 0
SEQEND
 5
37
 8
0
0
POLYLINE
5
2B
 8
0
62
0
 6
CONTINUOUS
 66
 1
 10
0
 20
0
 30
0
 70
1
 0
VERTEX
 5
33
  8
0
 10
39000
 20
-18600
 0
VERTEX
 5
33
  8
0
 10
39400
 20
-18600
 0
VERTEX
 5
33
  8
0
 10
39400
 20
-19000
 0
VERTEX
 5
33
  8
0
 10
39000
 20
-19000
 0
SEQEND
 5
37
 8
0
0
POLYLINE
5
2B
 8
0
62
0
 6
CONTINUOUS
 66
 1
 10
0
 20
0
 30
0
 70
1
 0
VERTEX
 5
33
  8
0
 10
45000
 20
-18600
 0
VERTEX
 5
33
  8
0
 10
45400
 20
-18600
 0
VERTEX
 5
33
  8
0
 10
45400
 20
-19000
 0
VERTEX
 5
33
  8
0
 10
45000
 20
-19000
 0
SEQEND
 5
37
 8
0
0
POLYLINE
5
2B
 8
0
62
0
 6
CONTINUOUS
 66
 1
 10
0
 20
0
 30
0
 70
1
 0
VERTEX
 5
33
  8
0
 10
50800
 20
-18600
 0
VERTEX
 5
33
  8
0
 10
51200
 20
-18600
 0
VERTEX
 5
33
  8
0
 10
51200
 20
-19000
 0
VERTEX
 5
33
  8
0
 10
50800
 20
-19000
 0
SEQEND
 5
37
 8
0
0
POLYLINE
5
2B
 8
0
62
0
 6
ACAD_ISO07W100
 66
 1
 10
0
 20
0
 30
0
 70
1
 0
VERTEX
 5
33
  8
0
 10
3400
 20
-17000
 0
VERTEX
 5
33
  8
0
 10
57200
 20
-17000
 0
VERTEX
 5
33
  8
0
 10
57200
 20
-20800
 0
VERTEX
 5
33
  8
0
 10
3400
 20
-20800
 0
SEQEND
 5
37
 8
0
 0
LINE
8
COUCHE_1
 6
CONTINUOUS
62
0
10
27600
20
-11800
11
27200
21
-11800
 0
LINE
8
COUCHE_1
 6
CONTINUOUS
62
0
10
26800
20
-12800
11
26800
21
-11200
 0
LINE
8
COUCHE_1
 6
CONTINUOUS
62
0
10
27600
20
-12600
11
27000
21
-12000
 0
LINE
8
COUCHE_1
 6
CONTINUOUS
62
0
10
27600
20
-11400
11
27000
21
-12000
 0
LINE
8
COUCHE_1
 6
CONTINUOUS
62
0
10
27600
20
-12600
11
28200
21
-12000
 0
LINE
8
COUCHE_1
 6
CONTINUOUS
62
0
10
27600
20
-11400
11
28200
21
-12000
 0
LINE
8
COUCHE_1
 6
CONTINUOUS
62
0
10
28000
20
-11800
11
27200
21
-11800
 0
LINE
8
COUCHE_1
 6
CONTINUOUS
62
0
10
28400
20
-12800
11
26800
21
-12800
 0
LINE
8
COUCHE_1
 6
CONTINUOUS
62
0
10
26800
20
-12000
11
26200
21
-12000
 0
LINE
8
COUCHE_1
 6
CONTINUOUS
62
0
10
28400
20
-12800
11
28400
21
-11200
 0
LINE
8
COUCHE_1
 6
CONTINUOUS
62
0
10
28400
20
-11200
11
27600
21
-11200
 0
LINE
8
COUCHE_1
 6
CONTINUOUS
62
0
10
27600
20
-11200
11
26800
21
-11200
 0
LINE
8
COUCHE_1
 6
CONTINUOUS
62
0
10
28400
20
-12000
11
28800
21
-12000
 0
LINE
8
COUCHE_1
 6
CONTINUOUS
62
0
10
27600
20
-12800
11
27600
21
-13900
 0
LINE
8
COUCHE_1
 6
CONTINUOUS
62
0
10
27600
20
-12200
11
27200
21
-12200
 0
LINE
8
COUCHE_1
 6
CONTINUOUS
62
0
10
28000
20
-12200
11
27200
21
-12200
0
POLYLINE
5
2B
 8
0
62
1
 6
CONTINUOUS
 66
 1
 10
0
 20
0
 30
0
 70
1
 0
VERTEX
 5
33
  8
0
 10
25600
 20
-11800
 0
VERTEX
 5
33
  8
0
 10
26000
 20
-11800
 0
VERTEX
 5
33
  8
0
 10
26000
 20
-12200
 0
VERTEX
 5
33
  8
0
 10
25600
 20
-12200
 0
SEQEND
 5
37
 8
0
 0
LINE
8
COUCHE_1
 6
CONTINUOUS
62
1
10
25800
20
-12000
11
26600
21
-12000
0
TEXT
8
COUCHE_1
 10
26200
 20
-11800
 11
26200
 21
-11800
 40
100
 1
BN
50
0
 72
0
 73
3
62
0
0
POLYLINE
5
2B
 8
0
62
1
 6
CONTINUOUS
 66
 1
 10
0
 20
0
 30
0
 70
1
 0
VERTEX
 5
33
  8
0
 10
27400
 20
-13600
 0
VERTEX
 5
33
  8
0
 10
27800
 20
-13600
 0
VERTEX
 5
33
  8
0
 10
27800
 20
-14000
 0
VERTEX
 5
33
  8
0
 10
27400
 20
-14000
 0
SEQEND
 5
37
 8
0
 0
LINE
8
COUCHE_1
 6
CONTINUOUS
62
1
10
27600
20
-13800
11
27600
21
-13000
0
TEXT
8
COUCHE_1
 10
27200
 20
-13400
 11
27200
 21
-13400
 40
100
 1
BK
50
0
 72
0
 73
3
62
0
0
POLYLINE
5
2B
 8
0
62
1
 6
CONTINUOUS
 66
 1
 10
0
 20
0
 30
0
 70
1
 0
VERTEX
 5
33
  8
0
 10
29200
 20
-11800
 0
VERTEX
 5
33
  8
0
 10
29600
 20
-11800
 0
VERTEX
 5
33
  8
0
 10
29600
 20
-12200
 0
VERTEX
 5
33
  8
0
 10
29200
 20
-12200
 0
SEQEND
 5
37
 8
0
 0
LINE
8
COUCHE_1
 6
CONTINUOUS
62
1
10
29400
20
-12000
11
28600
21
-12000
0
TEXT
8
COUCHE_1
 10
28700
 20
-11900
 11
28700
 21
-11900
 40
100
 1
BU
50
0
 72
0
 73
3
62
0
0
TEXT
8
COUCHE_1
 10
27400
 20
-9600
 11
27400
 21
-9600
 40
200
 1
Capteur V.porte entré
50
0
 72
1
 73
3
62
0
0
TEXT
8
COUCHE_1
 10
27200
 20
-10800
 11
27200
 21
-10800
 40
150
 1
011-4B1
50
0
 72
0
 73
3
62
0
 0
LINE
8
COUCHE_1
 6
CONTINUOUS
62
0
10
22000
20
-11800
11
21600
21
-11800
 0
LINE
8
COUCHE_1
 6
CONTINUOUS
62
0
10
21200
20
-12800
11
21200
21
-11200
 0
LINE
8
COUCHE_1
 6
CONTINUOUS
62
0
10
22000
20
-12600
11
21400
21
-12000
 0
LINE
8
COUCHE_1
 6
CONTINUOUS
62
0
10
22000
20
-11400
11
21400
21
-12000
 0
LINE
8
COUCHE_1
 6
CONTINUOUS
62
0
10
22000
20
-12600
11
22600
21
-12000
 0
LINE
8
COUCHE_1
 6
CONTINUOUS
62
0
10
22000
20
-11400
11
22600
21
-12000
 0
LINE
8
COUCHE_1
 6
CONTINUOUS
62
0
10
22400
20
-11800
11
21600
21
-11800
 0
LINE
8
COUCHE_1
 6
CONTINUOUS
62
0
10
22800
20
-12800
11
21200
21
-12800
 0
LINE
8
COUCHE_1
 6
CONTINUOUS
62
0
10
21200
20
-12000
11
20600
21
-12000
 0
LINE
8
COUCHE_1
 6
CONTINUOUS
62
0
10
22800
20
-12800
11
22800
21
-11200
 0
LINE
8
COUCHE_1
 6
CONTINUOUS
62
0
10
22800
20
-11200
11
22000
21
-11200
 0
LINE
8
COUCHE_1
 6
CONTINUOUS
62
0
10
22000
20
-11200
11
21200
21
-11200
 0
LINE
8
COUCHE_1
 6
CONTINUOUS
62
0
10
22800
20
-12000
11
23200
21
-12000
 0
LINE
8
COUCHE_1
 6
CONTINUOUS
62
0
10
22000
20
-12800
11
22000
21
-13900
 0
LINE
8
COUCHE_1
 6
CONTINUOUS
62
0
10
22000
20
-12200
11
21600
21
-12200
 0
LINE
8
COUCHE_1
 6
CONTINUOUS
62
0
10
22400
20
-12200
11
21600
21
-12200
0
POLYLINE
5
2B
 8
0
62
1
 6
CONTINUOUS
 66
 1
 10
0
 20
0
 30
0
 70
1
 0
VERTEX
 5
33
  8
0
 10
20000
 20
-11800
 0
VERTEX
 5
33
  8
0
 10
20400
 20
-11800
 0
VERTEX
 5
33
  8
0
 10
20400
 20
-12200
 0
VERTEX
 5
33
  8
0
 10
20000
 20
-12200
 0
SEQEND
 5
37
 8
0
 0
LINE
8
COUCHE_1
 6
CONTINUOUS
62
1
10
20200
20
-12000
11
21000
21
-12000
0
TEXT
8
COUCHE_1
 10
20600
 20
-11800
 11
20600
 21
-11800
 40
100
 1
BN
50
0
 72
0
 73
3
62
0
0
POLYLINE
5
2B
 8
0
62
1
 6
CONTINUOUS
 66
 1
 10
0
 20
0
 30
0
 70
1
 0
VERTEX
 5
33
  8
0
 10
21800
 20
-13600
 0
VERTEX
 5
33
  8
0
 10
22200
 20
-13600
 0
VERTEX
 5
33
  8
0
 10
22200
 20
-14000
 0
VERTEX
 5
33
  8
0
 10
21800
 20
-14000
 0
SEQEND
 5
37
 8
0
 0
LINE
8
COUCHE_1
 6
CONTINUOUS
62
1
10
22000
20
-13800
11
22000
21
-13000
0
TEXT
8
COUCHE_1
 10
21600
 20
-13400
 11
21600
 21
-13400
 40
100
 1
BK
50
0
 72
0
 73
3
62
0
0
POLYLINE
5
2B
 8
0
62
1
 6
CONTINUOUS
 66
 1
 10
0
 20
0
 30
0
 70
1
 0
VERTEX
 5
33
  8
0
 10
23600
 20
-11800
 0
VERTEX
 5
33
  8
0
 10
24000
 20
-11800
 0
VERTEX
 5
33
  8
0
 10
24000
 20
-12200
 0
VERTEX
 5
33
  8
0
 10
23600
 20
-12200
 0
SEQEND
 5
37
 8
0
 0
LINE
8
COUCHE_1
 6
CONTINUOUS
62
1
10
23800
20
-12000
11
23000
21
-12000
0
TEXT
8
COUCHE_1
 10
23100
 20
-11900
 11
23100
 21
-11900
 40
100
 1
BU
50
0
 72
0
 73
3
62
0
0
TEXT
8
COUCHE_1
 10
21800
 20
-9600
 11
21800
 21
-9600
 40
200
 1
capteur V.porte sorti
50
0
 72
1
 73
3
62
0
0
TEXT
8
COUCHE_1
 10
21400
 20
-10800
 11
21400
 21
-10800
 40
150
 1
011-4B2
50
0
 72
0
 73
3
62
0
 0
LINE
8
COUCHE_1
 6
CONTINUOUS
62
0
10
16400
20
-11800
11
16000
21
-11800
 0
LINE
8
COUCHE_1
 6
CONTINUOUS
62
0
10
15600
20
-12800
11
15600
21
-11200
 0
LINE
8
COUCHE_1
 6
CONTINUOUS
62
0
10
16400
20
-12600
11
15800
21
-12000
 0
LINE
8
COUCHE_1
 6
CONTINUOUS
62
0
10
16400
20
-11400
11
15800
21
-12000
 0
LINE
8
COUCHE_1
 6
CONTINUOUS
62
0
10
16400
20
-12600
11
17000
21
-12000
 0
LINE
8
COUCHE_1
 6
CONTINUOUS
62
0
10
16400
20
-11400
11
17000
21
-12000
 0
LINE
8
COUCHE_1
 6
CONTINUOUS
62
0
10
16800
20
-11800
11
16000
21
-11800
 0
LINE
8
COUCHE_1
 6
CONTINUOUS
62
0
10
17200
20
-12800
11
15600
21
-12800
 0
LINE
8
COUCHE_1
 6
CONTINUOUS
62
0
10
15600
20
-12000
11
15000
21
-12000
 0
LINE
8
COUCHE_1
 6
CONTINUOUS
62
0
10
17200
20
-12800
11
17200
21
-11200
 0
LINE
8
COUCHE_1
 6
CONTINUOUS
62
0
10
17200
20
-11200
11
16400
21
-11200
 0
LINE
8
COUCHE_1
 6
CONTINUOUS
62
0
10
16400
20
-11200
11
15600
21
-11200
 0
LINE
8
COUCHE_1
 6
CONTINUOUS
62
0
10
17200
20
-12000
11
17600
21
-12000
 0
LINE
8
COUCHE_1
 6
CONTINUOUS
62
0
10
16400
20
-12800
11
16400
21
-13900
 0
LINE
8
COUCHE_1
 6
CONTINUOUS
62
0
10
16400
20
-12200
11
16000
21
-12200
 0
LINE
8
COUCHE_1
 6
CONTINUOUS
62
0
10
16800
20
-12200
11
16000
21
-12200
0
POLYLINE
5
2B
 8
0
62
1
 6
CONTINUOUS
 66
 1
 10
0
 20
0
 30
0
 70
1
 0
VERTEX
 5
33
  8
0
 10
14400
 20
-11800
 0
VERTEX
 5
33
  8
0
 10
14800
 20
-11800
 0
VERTEX
 5
33
  8
0
 10
14800
 20
-12200
 0
VERTEX
 5
33
  8
0
 10
14400
 20
-12200
 0
SEQEND
 5
37
 8
0
 0
LINE
8
COUCHE_1
 6
CONTINUOUS
62
1
10
14600
20
-12000
11
15400
21
-12000
0
TEXT
8
COUCHE_1
 10
15000
 20
-11800
 11
15000
 21
-11800
 40
100
 1
BN
50
0
 72
0
 73
3
62
0
0
POLYLINE
5
2B
 8
0
62
1
 6
CONTINUOUS
 66
 1
 10
0
 20
0
 30
0
 70
1
 0
VERTEX
 5
33
  8
0
 10
16200
 20
-13600
 0
VERTEX
 5
33
  8
0
 10
16600
 20
-13600
 0
VERTEX
 5
33
  8
0
 10
16600
 20
-14000
 0
VERTEX
 5
33
  8
0
 10
16200
 20
-14000
 0
SEQEND
 5
37
 8
0
 0
LINE
8
COUCHE_1
 6
CONTINUOUS
62
1
10
16400
20
-13800
11
16400
21
-13000
0
TEXT
8
COUCHE_1
 10
16000
 20
-13400
 11
16000
 21
-13400
 40
100
 1
BK
50
0
 72
0
 73
3
62
0
0
POLYLINE
5
2B
 8
0
62
1
 6
CONTINUOUS
 66
 1
 10
0
 20
0
 30
0
 70
1
 0
VERTEX
 5
33
  8
0
 10
18000
 20
-11800
 0
VERTEX
 5
33
  8
0
 10
18400
 20
-11800
 0
VERTEX
 5
33
  8
0
 10
18400
 20
-12200
 0
VERTEX
 5
33
  8
0
 10
18000
 20
-12200
 0
SEQEND
 5
37
 8
0
 0
LINE
8
COUCHE_1
 6
CONTINUOUS
62
1
10
18200
20
-12000
11
17400
21
-12000
0
TEXT
8
COUCHE_1
 10
17500
 20
-11900
 11
17500
 21
-11900
 40
100
 1
BU
50
0
 72
0
 73
3
62
0
0
TEXT
8
COUCHE_1
 10
16400
 20
-9600
 11
16400
 21
-9600
 40
200
 1
Capteur V.chariot entré
50
0
 72
1
 73
3
62
0
0
TEXT
8
COUCHE_1
 10
16200
 20
-10800
 11
16200
 21
-10800
 40
150
 1
011-3B1
50
0
 72
0
 73
3
62
0
 0
LINE
8
COUCHE_1
 6
CONTINUOUS
62
0
10
10200
20
-11800
11
9800
21
-11800
 0
LINE
8
COUCHE_1
 6
CONTINUOUS
62
0
10
9400
20
-12800
11
9400
21
-11200
 0
LINE
8
COUCHE_1
 6
CONTINUOUS
62
0
10
10200
20
-12600
11
9600
21
-12000
 0
LINE
8
COUCHE_1
 6
CONTINUOUS
62
0
10
10200
20
-11400
11
9600
21
-12000
 0
LINE
8
COUCHE_1
 6
CONTINUOUS
62
0
10
10200
20
-12600
11
10800
21
-12000
 0
LINE
8
COUCHE_1
 6
CONTINUOUS
62
0
10
10200
20
-11400
11
10800
21
-12000
 0
LINE
8
COUCHE_1
 6
CONTINUOUS
62
0
10
10600
20
-11800
11
9800
21
-11800
 0
LINE
8
COUCHE_1
 6
CONTINUOUS
62
0
10
11000
20
-12800
11
9400
21
-12800
 0
LINE
8
COUCHE_1
 6
CONTINUOUS
62
0
10
9400
20
-12000
11
8800
21
-12000
 0
LINE
8
COUCHE_1
 6
CONTINUOUS
62
0
10
11000
20
-12800
11
11000
21
-11200
 0
LINE
8
COUCHE_1
 6
CONTINUOUS
62
0
10
11000
20
-11200
11
10200
21
-11200
 0
LINE
8
COUCHE_1
 6
CONTINUOUS
62
0
10
10200
20
-11200
11
9400
21
-11200
 0
LINE
8
COUCHE_1
 6
CONTINUOUS
62
0
10
11000
20
-12000
11
11400
21
-12000
 0
LINE
8
COUCHE_1
 6
CONTINUOUS
62
0
10
10200
20
-12800
11
10200
21
-13900
 0
LINE
8
COUCHE_1
 6
CONTINUOUS
62
0
10
10200
20
-12200
11
9800
21
-12200
 0
LINE
8
COUCHE_1
 6
CONTINUOUS
62
0
10
10600
20
-12200
11
9800
21
-12200
0
POLYLINE
5
2B
 8
0
62
1
 6
CONTINUOUS
 66
 1
 10
0
 20
0
 30
0
 70
1
 0
VERTEX
 5
33
  8
0
 10
8200
 20
-11800
 0
VERTEX
 5
33
  8
0
 10
8600
 20
-11800
 0
VERTEX
 5
33
  8
0
 10
8600
 20
-12200
 0
VERTEX
 5
33
  8
0
 10
8200
 20
-12200
 0
SEQEND
 5
37
 8
0
 0
LINE
8
COUCHE_1
 6
CONTINUOUS
62
1
10
8400
20
-12000
11
9200
21
-12000
0
TEXT
8
COUCHE_1
 10
8800
 20
-11800
 11
8800
 21
-11800
 40
100
 1
BN
50
0
 72
0
 73
3
62
0
0
POLYLINE
5
2B
 8
0
62
1
 6
CONTINUOUS
 66
 1
 10
0
 20
0
 30
0
 70
1
 0
VERTEX
 5
33
  8
0
 10
10000
 20
-13600
 0
VERTEX
 5
33
  8
0
 10
10400
 20
-13600
 0
VERTEX
 5
33
  8
0
 10
10400
 20
-14000
 0
VERTEX
 5
33
  8
0
 10
10000
 20
-14000
 0
SEQEND
 5
37
 8
0
 0
LINE
8
COUCHE_1
 6
CONTINUOUS
62
1
10
10200
20
-13800
11
10200
21
-13000
0
TEXT
8
COUCHE_1
 10
9800
 20
-13400
 11
9800
 21
-13400
 40
100
 1
BK
50
0
 72
0
 73
3
62
0
0
POLYLINE
5
2B
 8
0
62
1
 6
CONTINUOUS
 66
 1
 10
0
 20
0
 30
0
 70
1
 0
VERTEX
 5
33
  8
0
 10
11800
 20
-11800
 0
VERTEX
 5
33
  8
0
 10
12200
 20
-11800
 0
VERTEX
 5
33
  8
0
 10
12200
 20
-12200
 0
VERTEX
 5
33
  8
0
 10
11800
 20
-12200
 0
SEQEND
 5
37
 8
0
 0
LINE
8
COUCHE_1
 6
CONTINUOUS
62
1
10
12000
20
-12000
11
11200
21
-12000
0
TEXT
8
COUCHE_1
 10
11300
 20
-11900
 11
11300
 21
-11900
 40
100
 1
BU
50
0
 72
0
 73
3
62
0
0
TEXT
8
COUCHE_1
 10
10000
 20
-9600
 11
10000
 21
-9600
 40
200
 1
Capteur V.chariot sorti
50
0
 72
1
 73
3
62
0
0
TEXT
8
COUCHE_1
 10
10000
 20
-10800
 11
10000
 21
-10800
 40
150
 1
011-3B2
50
0
 72
0
 73
3
62
0
 0
LINE
8
COUCHE_1
 6
CONTINUOUS
62
0
10
33400
20
-11800
11
33000
21
-11800
 0
LINE
8
COUCHE_1
 6
CONTINUOUS
62
0
10
32600
20
-12800
11
32600
21
-11200
 0
LINE
8
COUCHE_1
 6
CONTINUOUS
62
0
10
33400
20
-12600
11
32800
21
-12000
 0
LINE
8
COUCHE_1
 6
CONTINUOUS
62
0
10
33400
20
-11400
11
32800
21
-12000
 0
LINE
8
COUCHE_1
 6
CONTINUOUS
62
0
10
33400
20
-12600
11
34000
21
-12000
 0
LINE
8
COUCHE_1
 6
CONTINUOUS
62
0
10
33400
20
-11400
11
34000
21
-12000
 0
LINE
8
COUCHE_1
 6
CONTINUOUS
62
0
10
33800
20
-11800
11
33000
21
-11800
 0
LINE
8
COUCHE_1
 6
CONTINUOUS
62
0
10
34200
20
-12800
11
32600
21
-12800
 0
LINE
8
COUCHE_1
 6
CONTINUOUS
62
0
10
32600
20
-12000
11
32000
21
-12000
 0
LINE
8
COUCHE_1
 6
CONTINUOUS
62
0
10
34200
20
-12800
11
34200
21
-11200
 0
LINE
8
COUCHE_1
 6
CONTINUOUS
62
0
10
34200
20
-11200
11
33400
21
-11200
 0
LINE
8
COUCHE_1
 6
CONTINUOUS
62
0
10
33400
20
-11200
11
32600
21
-11200
 0
LINE
8
COUCHE_1
 6
CONTINUOUS
62
0
10
34200
20
-12000
11
34600
21
-12000
 0
LINE
8
COUCHE_1
 6
CONTINUOUS
62
0
10
33400
20
-12800
11
33400
21
-13900
 0
LINE
8
COUCHE_1
 6
CONTINUOUS
62
0
10
33400
20
-12200
11
33000
21
-12200
 0
LINE
8
COUCHE_1
 6
CONTINUOUS
62
0
10
33800
20
-12200
11
33000
21
-12200
0
POLYLINE
5
2B
 8
0
62
1
 6
CONTINUOUS
 66
 1
 10
0
 20
0
 30
0
 70
1
 0
VERTEX
 5
33
  8
0
 10
31400
 20
-11800
 0
VERTEX
 5
33
  8
0
 10
31800
 20
-11800
 0
VERTEX
 5
33
  8
0
 10
31800
 20
-12200
 0
VERTEX
 5
33
  8
0
 10
31400
 20
-12200
 0
SEQEND
 5
37
 8
0
 0
LINE
8
COUCHE_1
 6
CONTINUOUS
62
1
10
31600
20
-12000
11
32400
21
-12000
0
TEXT
8
COUCHE_1
 10
32000
 20
-11800
 11
32000
 21
-11800
 40
100
 1
BN
50
0
 72
0
 73
3
62
0
0
POLYLINE
5
2B
 8
0
62
1
 6
CONTINUOUS
 66
 1
 10
0
 20
0
 30
0
 70
1
 0
VERTEX
 5
33
  8
0
 10
33200
 20
-13600
 0
VERTEX
 5
33
  8
0
 10
33600
 20
-13600
 0
VERTEX
 5
33
  8
0
 10
33600
 20
-14000
 0
VERTEX
 5
33
  8
0
 10
33200
 20
-14000
 0
SEQEND
 5
37
 8
0
 0
LINE
8
COUCHE_1
 6
CONTINUOUS
62
1
10
33400
20
-13800
11
33400
21
-13000
0
TEXT
8
COUCHE_1
 10
33000
 20
-13400
 11
33000
 21
-13400
 40
100
 1
BK
50
0
 72
0
 73
3
62
0
0
POLYLINE
5
2B
 8
0
62
1
 6
CONTINUOUS
 66
 1
 10
0
 20
0
 30
0
 70
1
 0
VERTEX
 5
33
  8
0
 10
35000
 20
-11800
 0
VERTEX
 5
33
  8
0
 10
35400
 20
-11800
 0
VERTEX
 5
33
  8
0
 10
35400
 20
-12200
 0
VERTEX
 5
33
  8
0
 10
35000
 20
-12200
 0
SEQEND
 5
37
 8
0
 0
LINE
8
COUCHE_1
 6
CONTINUOUS
62
1
10
35200
20
-12000
11
34400
21
-12000
0
TEXT
8
COUCHE_1
 10
34500
 20
-11900
 11
34500
 21
-11900
 40
100
 1
BU
50
0
 72
0
 73
3
62
0
0
TEXT
8
COUCHE_1
 10
33200
 20
-9600
 11
33200
 21
-9600
 40
200
 1
Capteur B.Moteur1 sens horraire
50
0
 72
1
 73
3
62
0
0
TEXT
8
COUCHE_1
 10
33200
 20
-10800
 11
33200
 21
-10800
 40
150
 1
BM1H
50
0
 72
0
 73
3
62
0
 0
LINE
8
COUCHE_1
 6
CONTINUOUS
62
0
10
39200
20
-11800
11
38800
21
-11800
 0
LINE
8
COUCHE_1
 6
CONTINUOUS
62
0
10
38400
20
-12800
11
38400
21
-11200
 0
LINE
8
COUCHE_1
 6
CONTINUOUS
62
0
10
39200
20
-12600
11
38600
21
-12000
 0
LINE
8
COUCHE_1
 6
CONTINUOUS
62
0
10
39200
20
-11400
11
38600
21
-12000
 0
LINE
8
COUCHE_1
 6
CONTINUOUS
62
0
10
39200
20
-12600
11
39800
21
-12000
 0
LINE
8
COUCHE_1
 6
CONTINUOUS
62
0
10
39200
20
-11400
11
39800
21
-12000
 0
LINE
8
COUCHE_1
 6
CONTINUOUS
62
0
10
39600
20
-11800
11
38800
21
-11800
 0
LINE
8
COUCHE_1
 6
CONTINUOUS
62
0
10
40000
20
-12800
11
38400
21
-12800
 0
LINE
8
COUCHE_1
 6
CONTINUOUS
62
0
10
38400
20
-12000
11
37800
21
-12000
 0
LINE
8
COUCHE_1
 6
CONTINUOUS
62
0
10
40000
20
-12800
11
40000
21
-11200
 0
LINE
8
COUCHE_1
 6
CONTINUOUS
62
0
10
40000
20
-11200
11
39200
21
-11200
 0
LINE
8
COUCHE_1
 6
CONTINUOUS
62
0
10
39200
20
-11200
11
38400
21
-11200
 0
LINE
8
COUCHE_1
 6
CONTINUOUS
62
0
10
40000
20
-12000
11
40400
21
-12000
 0
LINE
8
COUCHE_1
 6
CONTINUOUS
62
0
10
39200
20
-12800
11
39200
21
-13900
 0
LINE
8
COUCHE_1
 6
CONTINUOUS
62
0
10
39200
20
-12200
11
38800
21
-12200
 0
LINE
8
COUCHE_1
 6
CONTINUOUS
62
0
10
39600
20
-12200
11
38800
21
-12200
0
POLYLINE
5
2B
 8
0
62
1
 6
CONTINUOUS
 66
 1
 10
0
 20
0
 30
0
 70
1
 0
VERTEX
 5
33
  8
0
 10
37200
 20
-11800
 0
VERTEX
 5
33
  8
0
 10
37600
 20
-11800
 0
VERTEX
 5
33
  8
0
 10
37600
 20
-12200
 0
VERTEX
 5
33
  8
0
 10
37200
 20
-12200
 0
SEQEND
 5
37
 8
0
 0
LINE
8
COUCHE_1
 6
CONTINUOUS
62
1
10
37400
20
-12000
11
38200
21
-12000
0
TEXT
8
COUCHE_1
 10
37800
 20
-11800
 11
37800
 21
-11800
 40
100
 1
BN
50
0
 72
0
 73
3
62
0
0
POLYLINE
5
2B
 8
0
62
1
 6
CONTINUOUS
 66
 1
 10
0
 20
0
 30
0
 70
1
 0
VERTEX
 5
33
  8
0
 10
39000
 20
-13600
 0
VERTEX
 5
33
  8
0
 10
39400
 20
-13600
 0
VERTEX
 5
33
  8
0
 10
39400
 20
-14000
 0
VERTEX
 5
33
  8
0
 10
39000
 20
-14000
 0
SEQEND
 5
37
 8
0
 0
LINE
8
COUCHE_1
 6
CONTINUOUS
62
1
10
39200
20
-13800
11
39200
21
-13000
0
TEXT
8
COUCHE_1
 10
38800
 20
-13400
 11
38800
 21
-13400
 40
100
 1
BK
50
0
 72
0
 73
3
62
0
0
POLYLINE
5
2B
 8
0
62
1
 6
CONTINUOUS
 66
 1
 10
0
 20
0
 30
0
 70
1
 0
VERTEX
 5
33
  8
0
 10
40800
 20
-11800
 0
VERTEX
 5
33
  8
0
 10
41200
 20
-11800
 0
VERTEX
 5
33
  8
0
 10
41200
 20
-12200
 0
VERTEX
 5
33
  8
0
 10
40800
 20
-12200
 0
SEQEND
 5
37
 8
0
 0
LINE
8
COUCHE_1
 6
CONTINUOUS
62
1
10
41000
20
-12000
11
40200
21
-12000
0
TEXT
8
COUCHE_1
 10
40300
 20
-11900
 11
40300
 21
-11900
 40
100
 1
BU
50
0
 72
0
 73
3
62
0
0
TEXT
8
COUCHE_1
 10
39000
 20
-9600
 11
39000
 21
-9600
 40
200
 1
Capteur B.Moteur1 sens antihorraire
50
0
 72
1
 73
3
62
0
0
TEXT
8
COUCHE_1
 10
39000
 20
-10800
 11
39000
 21
-10800
 40
150
 1
BM1A
50
0
 72
0
 73
3
62
0
 0
LINE
8
COUCHE_1
 6
CONTINUOUS
62
0
10
45200
20
-11800
11
44800
21
-11800
 0
LINE
8
COUCHE_1
 6
CONTINUOUS
62
0
10
44400
20
-12800
11
44400
21
-11200
 0
LINE
8
COUCHE_1
 6
CONTINUOUS
62
0
10
45200
20
-12600
11
44600
21
-12000
 0
LINE
8
COUCHE_1
 6
CONTINUOUS
62
0
10
45200
20
-11400
11
44600
21
-12000
 0
LINE
8
COUCHE_1
 6
CONTINUOUS
62
0
10
45200
20
-12600
11
45800
21
-12000
 0
LINE
8
COUCHE_1
 6
CONTINUOUS
62
0
10
45200
20
-11400
11
45800
21
-12000
 0
LINE
8
COUCHE_1
 6
CONTINUOUS
62
0
10
45600
20
-11800
11
44800
21
-11800
 0
LINE
8
COUCHE_1
 6
CONTINUOUS
62
0
10
46000
20
-12800
11
44400
21
-12800
 0
LINE
8
COUCHE_1
 6
CONTINUOUS
62
0
10
44400
20
-12000
11
43800
21
-12000
 0
LINE
8
COUCHE_1
 6
CONTINUOUS
62
0
10
46000
20
-12800
11
46000
21
-11200
 0
LINE
8
COUCHE_1
 6
CONTINUOUS
62
0
10
46000
20
-11200
11
45200
21
-11200
 0
LINE
8
COUCHE_1
 6
CONTINUOUS
62
0
10
45200
20
-11200
11
44400
21
-11200
 0
LINE
8
COUCHE_1
 6
CONTINUOUS
62
0
10
46000
20
-12000
11
46400
21
-12000
 0
LINE
8
COUCHE_1
 6
CONTINUOUS
62
0
10
45200
20
-12800
11
45200
21
-13900
 0
LINE
8
COUCHE_1
 6
CONTINUOUS
62
0
10
45200
20
-12200
11
44800
21
-12200
 0
LINE
8
COUCHE_1
 6
CONTINUOUS
62
0
10
45600
20
-12200
11
44800
21
-12200
0
POLYLINE
5
2B
 8
0
62
1
 6
CONTINUOUS
 66
 1
 10
0
 20
0
 30
0
 70
1
 0
VERTEX
 5
33
  8
0
 10
43200
 20
-11800
 0
VERTEX
 5
33
  8
0
 10
43600
 20
-11800
 0
VERTEX
 5
33
  8
0
 10
43600
 20
-12200
 0
VERTEX
 5
33
  8
0
 10
43200
 20
-12200
 0
SEQEND
 5
37
 8
0
 0
LINE
8
COUCHE_1
 6
CONTINUOUS
62
1
10
43400
20
-12000
11
44200
21
-12000
0
TEXT
8
COUCHE_1
 10
43800
 20
-11800
 11
43800
 21
-11800
 40
100
 1
BN
50
0
 72
0
 73
3
62
0
0
POLYLINE
5
2B
 8
0
62
1
 6
CONTINUOUS
 66
 1
 10
0
 20
0
 30
0
 70
1
 0
VERTEX
 5
33
  8
0
 10
45000
 20
-13600
 0
VERTEX
 5
33
  8
0
 10
45400
 20
-13600
 0
VERTEX
 5
33
  8
0
 10
45400
 20
-14000
 0
VERTEX
 5
33
  8
0
 10
45000
 20
-14000
 0
SEQEND
 5
37
 8
0
 0
LINE
8
COUCHE_1
 6
CONTINUOUS
62
1
10
45200
20
-13800
11
45200
21
-13000
0
TEXT
8
COUCHE_1
 10
44800
 20
-13400
 11
44800
 21
-13400
 40
100
 1
BK
50
0
 72
0
 73
3
62
0
0
POLYLINE
5
2B
 8
0
62
1
 6
CONTINUOUS
 66
 1
 10
0
 20
0
 30
0
 70
1
 0
VERTEX
 5
33
  8
0
 10
46800
 20
-11800
 0
VERTEX
 5
33
  8
0
 10
47200
 20
-11800
 0
VERTEX
 5
33
  8
0
 10
47200
 20
-12200
 0
VERTEX
 5
33
  8
0
 10
46800
 20
-12200
 0
SEQEND
 5
37
 8
0
 0
LINE
8
COUCHE_1
 6
CONTINUOUS
62
1
10
47000
20
-12000
11
46200
21
-12000
0
TEXT
8
COUCHE_1
 10
46300
 20
-11900
 11
46300
 21
-11900
 40
100
 1
BU
50
0
 72
0
 73
3
62
0
0
TEXT
8
COUCHE_1
 10
45000
 20
-9600
 11
45000
 21
-9600
 40
200
 1
capteur B.Moteur2 sens horraire
50
0
 72
1
 73
3
62
0
0
TEXT
8
COUCHE_1
 10
44800
 20
-10800
 11
44800
 21
-10800
 40
150
 1
BM2H
50
0
 72
0
 73
3
62
0
 0
LINE
8
COUCHE_1
 6
CONTINUOUS
62
0
10
51000
20
-11800
11
50600
21
-11800
 0
LINE
8
COUCHE_1
 6
CONTINUOUS
62
0
10
50200
20
-12800
11
50200
21
-11200
 0
LINE
8
COUCHE_1
 6
CONTINUOUS
62
0
10
51000
20
-12600
11
50400
21
-12000
 0
LINE
8
COUCHE_1
 6
CONTINUOUS
62
0
10
51000
20
-11400
11
50400
21
-12000
 0
LINE
8
COUCHE_1
 6
CONTINUOUS
62
0
10
51000
20
-12600
11
51600
21
-12000
 0
LINE
8
COUCHE_1
 6
CONTINUOUS
62
0
10
51000
20
-11400
11
51600
21
-12000
 0
LINE
8
COUCHE_1
 6
CONTINUOUS
62
0
10
51400
20
-11800
11
50600
21
-11800
 0
LINE
8
COUCHE_1
 6
CONTINUOUS
62
0
10
51800
20
-12800
11
50200
21
-12800
 0
LINE
8
COUCHE_1
 6
CONTINUOUS
62
0
10
50200
20
-12000
11
49600
21
-12000
 0
LINE
8
COUCHE_1
 6
CONTINUOUS
62
0
10
51800
20
-12800
11
51800
21
-11200
 0
LINE
8
COUCHE_1
 6
CONTINUOUS
62
0
10
51800
20
-11200
11
51000
21
-11200
 0
LINE
8
COUCHE_1
 6
CONTINUOUS
62
0
10
51000
20
-11200
11
50200
21
-11200
 0
LINE
8
COUCHE_1
 6
CONTINUOUS
62
0
10
51800
20
-12000
11
52200
21
-12000
 0
LINE
8
COUCHE_1
 6
CONTINUOUS
62
0
10
51000
20
-12800
11
51000
21
-13900
 0
LINE
8
COUCHE_1
 6
CONTINUOUS
62
0
10
51000
20
-12200
11
50600
21
-12200
 0
LINE
8
COUCHE_1
 6
CONTINUOUS
62
0
10
51400
20
-12200
11
50600
21
-12200
0
POLYLINE
5
2B
 8
0
62
1
 6
CONTINUOUS
 66
 1
 10
0
 20
0
 30
0
 70
1
 0
VERTEX
 5
33
  8
0
 10
49000
 20
-11800
 0
VERTEX
 5
33
  8
0
 10
49400
 20
-11800
 0
VERTEX
 5
33
  8
0
 10
49400
 20
-12200
 0
VERTEX
 5
33
  8
0
 10
49000
 20
-12200
 0
SEQEND
 5
37
 8
0
 0
LINE
8
COUCHE_1
 6
CONTINUOUS
62
1
10
49200
20
-12000
11
50000
21
-12000
0
TEXT
8
COUCHE_1
 10
49600
 20
-11800
 11
49600
 21
-11800
 40
100
 1
BN
50
0
 72
0
 73
3
62
0
0
POLYLINE
5
2B
 8
0
62
1
 6
CONTINUOUS
 66
 1
 10
0
 20
0
 30
0
 70
1
 0
VERTEX
 5
33
  8
0
 10
50800
 20
-13600
 0
VERTEX
 5
33
  8
0
 10
51200
 20
-13600
 0
VERTEX
 5
33
  8
0
 10
51200
 20
-14000
 0
VERTEX
 5
33
  8
0
 10
50800
 20
-14000
 0
SEQEND
 5
37
 8
0
 0
LINE
8
COUCHE_1
 6
CONTINUOUS
62
1
10
51000
20
-13800
11
51000
21
-13000
0
TEXT
8
COUCHE_1
 10
50600
 20
-13400
 11
50600
 21
-13400
 40
100
 1
BK
50
0
 72
0
 73
3
62
0
0
POLYLINE
5
2B
 8
0
62
1
 6
CONTINUOUS
 66
 1
 10
0
 20
0
 30
0
 70
1
 0
VERTEX
 5
33
  8
0
 10
52600
 20
-11800
 0
VERTEX
 5
33
  8
0
 10
53000
 20
-11800
 0
VERTEX
 5
33
  8
0
 10
53000
 20
-12200
 0
VERTEX
 5
33
  8
0
 10
52600
 20
-12200
 0
SEQEND
 5
37
 8
0
 0
LINE
8
COUCHE_1
 6
CONTINUOUS
62
1
10
52800
20
-12000
11
52000
21
-12000
0
TEXT
8
COUCHE_1
 10
52100
 20
-11900
 11
52100
 21
-11900
 40
100
 1
BU
50
0
 72
0
 73
3
62
0
0
TEXT
8
COUCHE_1
 10
50800
 20
-9600
 11
50800
 21
-9600
 40
200
 1
Capteur B.Moteur2 sens antihorraire
50
0
 72
1
 73
3
62
0
0
TEXT
8
COUCHE_1
 10
50600
 20
-10800
 11
50600
 21
-10800
 40
150
 1
BM2A
50
0
 72
0
 73
3
62
0
 0
LINE
8
COUCHE_1
 6
CONTINUOUS
62
0
10
4200
20
-19600
11
56200
21
-19600
 0
LINE
8
COUCHE_1
 6
CONTINUOUS
62
0
10
4200
20
-18000
11
56200
21
-18000
 0
LINE
8
COUCHE_1
 6
CONTINUOUS
62
0
10
27600
20
-18800
11
27600
21
-13800
 0
LINE
8
COUCHE_1
 6
CONTINUOUS
62
0
10
25800
20
-19600
11
25800
21
-12000
 0
LINE
8
COUCHE_1
 6
CONTINUOUS
62
0
10
29400
20
-18000
11
29400
21
-12000
 0
LINE
8
COUCHE_1
 6
CONTINUOUS
62
0
10
29400
20
-18000
11
56200
21
-18000
 0
LINE
8
COUCHE_1
 6
CONTINUOUS
62
0
10
23800
20
-18000
11
23800
21
-12000
 0
LINE
8
COUCHE_1
 6
CONTINUOUS
62
0
10
22000
20
-18800
11
22000
21
-13800
 0
LINE
8
COUCHE_1
 6
CONTINUOUS
62
0
10
20200
20
-19600
11
20200
21
-12000
 0
LINE
8
COUCHE_1
 6
CONTINUOUS
62
0
10
18200
20
-18000
11
18200
21
-12000
 0
LINE
8
COUCHE_1
 6
CONTINUOUS
62
0
10
16400
20
-18800
11
16400
21
-13800
 0
LINE
8
COUCHE_1
 6
CONTINUOUS
62
0
10
14600
20
-19600
11
14600
21
-12000
 0
LINE
8
COUCHE_1
 6
CONTINUOUS
62
0
10
12000
20
-18000
11
12000
21
-12000
 0
LINE
8
COUCHE_1
 6
CONTINUOUS
62
0
10
10200
20
-18800
11
10200
21
-13800
 0
LINE
8
COUCHE_1
 6
CONTINUOUS
62
0
10
8400
20
-19600
11
8400
21
-12000
 0
LINE
8
COUCHE_1
 6
CONTINUOUS
62
0
10
31600
20
-19600
11
31600
21
-12000
 0
LINE
8
COUCHE_1
 6
CONTINUOUS
62
0
10
33400
20
-18800
11
33400
21
-13800
 0
LINE
8
COUCHE_1
 6
CONTINUOUS
62
0
10
35200
20
-18000
11
35200
21
-12000
 0
LINE
8
COUCHE_1
 6
CONTINUOUS
62
0
10
37400
20
-19600
11
37400
21
-12000
 0
LINE
8
COUCHE_1
 6
CONTINUOUS
62
0
10
39200
20
-18800
11
39200
21
-13800
 0
LINE
8
COUCHE_1
 6
CONTINUOUS
62
0
10
41000
20
-18000
11
41000
21
-12000
 0
LINE
8
COUCHE_1
 6
CONTINUOUS
62
0
10
43400
20
-19600
11
43400
21
-12000
 0
LINE
8
COUCHE_1
 6
CONTINUOUS
62
0
10
45200
20
-18800
11
45200
21
-13800
 0
LINE
8
COUCHE_1
 6
CONTINUOUS
62
0
10
47000
20
-18000
11
47000
21
-12000
 0
LINE
8
COUCHE_1
 6
CONTINUOUS
62
0
10
49200
20
-19600
11
49200
21
-12000
 0
LINE
8
COUCHE_1
 6
CONTINUOUS
62
0
10
51000
20
-18800
11
51000
21
-13800
 0
LINE
8
COUCHE_1
 6
CONTINUOUS
62
0
10
52800
20
-18000
11
52800
21
-12000
 0
LINE
8
COUCHE_1
 6
CONTINUOUS
62
0
10
16400
20
-28200
11
16400
21
-19000
 0
LINE
8
COUCHE_1
 6
CONTINUOUS
62
0
10
22000
20
-28200
11
22000
21
-19000
 0
LINE
8
COUCHE_1
 6
CONTINUOUS
62
0
10
27600
20
-28200
11
27600
21
-19000
 0
LINE
8
COUCHE_1
 6
CONTINUOUS
62
0
10
33400
20
-28200
11
33400
21
-19000
 0
LINE
8
COUCHE_1
 6
CONTINUOUS
62
0
10
39200
20
-28200
11
39200
21
-19000
 0
LINE
8
COUCHE_1
 6
CONTINUOUS
62
0
10
45200
20
-28200
11
45200
21
-19000
 0
LINE
8
COUCHE_1
 6
CONTINUOUS
62
0
10
51000
20
-28200
11
51000
21
-19000
 0
LINE
8
COUCHE_1
 6
CONTINUOUS
62
0
10
10200
20
-28200
11
10200
21
-19000
 0
LINE
8
COUCHE_1
 6
CONTINUOUS
62
0
10
4600
20
-28200
11
4600
21
-19600
 0
LINE
8
COUCHE_1
 6
CONTINUOUS
62
0
10
3000
20
-24600
11
54800
21
-24600
 0
LINE
8
COUCHE_1
 6
CONTINUOUS
62
0
10
5600
20
-28200
11
5600
21
-18000
 0
CIRCLE
8
COUCHE_1
62
5
 6
CONTINUOUS
10
25800
20
-19600
40
40
 0
CIRCLE
8
COUCHE_1
62
5
 6
CONTINUOUS
10
29400
20
-18000
40
40
 0
CIRCLE
8
COUCHE_1
62
5
 6
CONTINUOUS
10
23800
20
-18000
40
40
 0
CIRCLE
8
COUCHE_1
62
5
 6
CONTINUOUS
10
20200
20
-19600
40
40
 0
CIRCLE
8
COUCHE_1
62
5
 6
CONTINUOUS
10
18200
20
-18000
40
40
 0
CIRCLE
8
COUCHE_1
62
5
 6
CONTINUOUS
10
14600
20
-19600
40
40
 0
CIRCLE
8
COUCHE_1
62
5
 6
CONTINUOUS
10
12000
20
-18000
40
40
 0
CIRCLE
8
COUCHE_1
62
5
 6
CONTINUOUS
10
8400
20
-19600
40
40
 0
CIRCLE
8
COUCHE_1
62
5
 6
CONTINUOUS
10
31600
20
-19600
40
40
 0
CIRCLE
8
COUCHE_1
62
5
 6
CONTINUOUS
10
35200
20
-18000
40
40
 0
CIRCLE
8
COUCHE_1
62
5
 6
CONTINUOUS
10
37400
20
-19600
40
40
 0
CIRCLE
8
COUCHE_1
62
5
 6
CONTINUOUS
10
41000
20
-18000
40
40
 0
CIRCLE
8
COUCHE_1
62
5
 6
CONTINUOUS
10
43400
20
-19600
40
40
 0
CIRCLE
8
COUCHE_1
62
5
 6
CONTINUOUS
10
47000
20
-18000
40
40
 0
CIRCLE
8
COUCHE_1
62
5
 6
CONTINUOUS
10
49200
20
-19600
40
40
 0
CIRCLE
8
COUCHE_1
62
5
 6
CONTINUOUS
10
52800
20
-18000
40
40
 0
CIRCLE
8
COUCHE_1
62
5
 6
CONTINUOUS
10
4600
20
-19600
40
40
 0
CIRCLE
8
COUCHE_1
62
5
 6
CONTINUOUS
10
5600
20
-18000
40
40
0
POLYLINE
5
2B
 8
0
62
1
 6
CONTINUOUS
 66
 1
 10
0
 20
0
 30
0
 70
1
 0
VERTEX
 5
33
  8
0
 10
10200
 20
-28400
 0
VERTEX
 5
33
  8
0
 10
10000
 20
-28300
 0
VERTEX
 5
33
  8
0
 10
10200
 20
-28600
 0
VERTEX
 5
33
  8
0
 10
10400
 20
-28300
 0
SEQEND
 5
37
 8
0
 0
LINE
8
COUCHE_1
 6
CONTINUOUS
62
1
10
10200
20
-28200
11
10200
21
-28400
0
TEXT
8
COUCHE_1
 10
10200
 20
-28600
 11
10200
 21
-28600
 40
150
 1
C1_OP_B1
50
0
 72
1
 73
3
62
1
0
POLYLINE
5
2B
 8
0
62
1
 6
CONTINUOUS
 66
 1
 10
0
 20
0
 30
0
 70
1
 0
VERTEX
 5
33
  8
0
 10
16400
 20
-28400
 0
VERTEX
 5
33
  8
0
 10
16200
 20
-28300
 0
VERTEX
 5
33
  8
0
 10
16400
 20
-28600
 0
VERTEX
 5
33
  8
0
 10
16600
 20
-28300
 0
SEQEND
 5
37
 8
0
 0
LINE
8
COUCHE_1
 6
CONTINUOUS
62
1
10
16400
20
-28200
11
16400
21
-28400
0
TEXT
8
COUCHE_1
 10
16400
 20
-28600
 11
16400
 21
-28600
 40
150
 1
C1_OP_B2
50
0
 72
1
 73
3
62
1
0
POLYLINE
5
2B
 8
0
62
1
 6
CONTINUOUS
 66
 1
 10
0
 20
0
 30
0
 70
1
 0
VERTEX
 5
33
  8
0
 10
22000
 20
-28400
 0
VERTEX
 5
33
  8
0
 10
21800
 20
-28300
 0
VERTEX
 5
33
  8
0
 10
22000
 20
-28600
 0
VERTEX
 5
33
  8
0
 10
22200
 20
-28300
 0
SEQEND
 5
37
 8
0
 0
LINE
8
COUCHE_1
 6
CONTINUOUS
62
1
10
22000
20
-28200
11
22000
21
-28400
0
TEXT
8
COUCHE_1
 10
22000
 20
-28600
 11
22000
 21
-28600
 40
150
 1
C1_OP_B3
50
0
 72
1
 73
3
62
1
0
POLYLINE
5
2B
 8
0
62
1
 6
CONTINUOUS
 66
 1
 10
0
 20
0
 30
0
 70
1
 0
VERTEX
 5
33
  8
0
 10
27600
 20
-28400
 0
VERTEX
 5
33
  8
0
 10
27400
 20
-28300
 0
VERTEX
 5
33
  8
0
 10
27600
 20
-28600
 0
VERTEX
 5
33
  8
0
 10
27800
 20
-28300
 0
SEQEND
 5
37
 8
0
 0
LINE
8
COUCHE_1
 6
CONTINUOUS
62
1
10
27600
20
-28200
11
27600
21
-28400
0
TEXT
8
COUCHE_1
 10
27600
 20
-28600
 11
27600
 21
-28600
 40
150
 1
C1_OP_B4
50
0
 72
1
 73
3
62
1
0
POLYLINE
5
2B
 8
0
62
1
 6
CONTINUOUS
 66
 1
 10
0
 20
0
 30
0
 70
1
 0
VERTEX
 5
33
  8
0
 10
33400
 20
-28400
 0
VERTEX
 5
33
  8
0
 10
33200
 20
-28300
 0
VERTEX
 5
33
  8
0
 10
33400
 20
-28600
 0
VERTEX
 5
33
  8
0
 10
33600
 20
-28300
 0
SEQEND
 5
37
 8
0
 0
LINE
8
COUCHE_1
 6
CONTINUOUS
62
1
10
33400
20
-28200
11
33400
21
-28400
0
TEXT
8
COUCHE_1
 10
33400
 20
-28600
 11
33400
 21
-28600
 40
150
 1
C1_OP_B5
50
0
 72
1
 73
3
62
1
0
POLYLINE
5
2B
 8
0
62
1
 6
CONTINUOUS
 66
 1
 10
0
 20
0
 30
0
 70
1
 0
VERTEX
 5
33
  8
0
 10
39200
 20
-28400
 0
VERTEX
 5
33
  8
0
 10
39000
 20
-28300
 0
VERTEX
 5
33
  8
0
 10
39200
 20
-28600
 0
VERTEX
 5
33
  8
0
 10
39400
 20
-28300
 0
SEQEND
 5
37
 8
0
 0
LINE
8
COUCHE_1
 6
CONTINUOUS
62
1
10
39200
20
-28200
11
39200
21
-28400
0
TEXT
8
COUCHE_1
 10
39200
 20
-28600
 11
39200
 21
-28600
 40
150
 1
C1_OP_B6
50
0
 72
1
 73
3
62
1
0
POLYLINE
5
2B
 8
0
62
1
 6
CONTINUOUS
 66
 1
 10
0
 20
0
 30
0
 70
1
 0
VERTEX
 5
33
  8
0
 10
45200
 20
-28200
 0
VERTEX
 5
33
  8
0
 10
45000
 20
-28100
 0
VERTEX
 5
33
  8
0
 10
45200
 20
-28400
 0
VERTEX
 5
33
  8
0
 10
45400
 20
-28100
 0
SEQEND
 5
37
 8
0
 0
LINE
8
COUCHE_1
 6
CONTINUOUS
62
1
10
45200
20
-28000
11
45200
21
-28200
0
TEXT
8
COUCHE_1
 10
45200
 20
-28400
 11
45200
 21
-28400
 40
150
 1
C1_OP_B7
50
0
 72
1
 73
3
62
1
0
POLYLINE
5
2B
 8
0
62
1
 6
CONTINUOUS
 66
 1
 10
0
 20
0
 30
0
 70
1
 0
VERTEX
 5
33
  8
0
 10
51000
 20
-28400
 0
VERTEX
 5
33
  8
0
 10
50800
 20
-28300
 0
VERTEX
 5
33
  8
0
 10
51000
 20
-28600
 0
VERTEX
 5
33
  8
0
 10
51200
 20
-28300
 0
SEQEND
 5
37
 8
0
 0
LINE
8
COUCHE_1
 6
CONTINUOUS
62
1
10
51000
20
-28200
11
51000
21
-28400
0
TEXT
8
COUCHE_1
 10
51000
 20
-28600
 11
51000
 21
-28600
 40
150
 1
C1_OP_B8
50
0
 72
1
 73
3
62
1
0
POLYLINE
5
2B
 8
0
62
1
 6
CONTINUOUS
 66
 1
 10
0
 20
0
 30
0
 70
1
 0
VERTEX
 5
33
  8
0
 10
4600
 20
-28400
 0
VERTEX
 5
33
  8
0
 10
4400
 20
-28700
 0
VERTEX
 5
33
  8
0
 10
4600
 20
-28600
 0
VERTEX
 5
33
  8
0
 10
4800
 20
-28700
 0
SEQEND
 5
37
 8
0
 0
LINE
8
COUCHE_1
 6
CONTINUOUS
62
1
10
4600
20
-28200
11
4600
21
-28400
0
TEXT
8
COUCHE_1
 10
4600
 20
-28700
 11
4600
 21
-28700
 40
150
 1
A_24_TC
50
0
 72
1
 73
3
62
1
0
POLYLINE
5
2B
 8
0
62
1
 6
CONTINUOUS
 66
 1
 10
0
 20
0
 30
0
 70
1
 0
VERTEX
 5
33
  8
0
 10
5600
 20
-28400
 0
VERTEX
 5
33
  8
0
 10
5400
 20
-28700
 0
VERTEX
 5
33
  8
0
 10
5600
 20
-28600
 0
VERTEX
 5
33
  8
0
 10
5800
 20
-28700
 0
SEQEND
 5
37
 8
0
 0
LINE
8
COUCHE_1
 6
CONTINUOUS
62
1
10
5600
20
-28200
11
5600
21
-28400
0
TEXT
8
COUCHE_1
 10
5600
 20
-28700
 11
5600
 21
-28700
 40
150
 1
A_0_TC
50
0
 72
1
 73
3
62
1
0
TEXT
8
COUCHE_1
 10
54400
 20
-16600
 11
54400
 21
-16600
 40
200
 1
Terminal capteur 
50
0
 72
0
 73
3
62
0
0
TEXT
8
COUCHE_1
 10
6400
 20
-16200
 11
6400
 21
-16200
 40
300
 1
TC1
50
0
 72
0
 73
3
62
0
0
TEXT
8
COUCHE_1
 10
28400
 20
-30600
 11
28400
 21
-30600
 40
200
 1
Vers carte optocoupleurs Inputs  PC
50
0
 72
0
 73
3
62
0
0
TEXT
8
COUCHE_1
 10
30800
 20
-31000
 11
30800
 21
-31000
 40
200
 1
Folio 4
50
0
 72
0
 73
3
62
0
0
TEXT
8
COUCHE_1
 10
9600
 20
-23400
 11
9600
 21
-23400
 40
200
 1
Blanc
50
90
 72
0
 73
3
62
0
0
TEXT
8
COUCHE_1
 10
15800
 20
-23400
 11
15800
 21
-23400
 40
200
 1
Vert
50
90
 72
0
 73
3
62
0
0
TEXT
8
COUCHE_1
 10
21400
 20
-23400
 11
21400
 21
-23400
 40
200
 1
Jaune
50
90
 72
0
 73
3
62
0
0
TEXT
8
COUCHE_1
 10
27000
 20
-23400
 11
27000
 21
-23400
 40
200
 1
Gris
50
90
 72
0
 73
3
62
0
0
TEXT
8
COUCHE_1
 10
32800
 20
-23400
 11
32800
 21
-23400
 40
200
 1
Pink
50
90
 72
0
 73
3
62
0
0
TEXT
8
COUCHE_1
 10
38600
 20
-23400
 11
38600
 21
-23400
 40
200
 1
Rouge
50
90
 72
0
 73
3
62
0
0
TEXT
8
COUCHE_1
 10
44600
 20
-23600
 11
44600
 21
-23600
 40
200
 1
Noir
50
90
 72
0
 73
3
62
0
0
TEXT
8
COUCHE_1
 10
50400
 20
-23600
 11
50400
 21
-23600
 40
200
 1
Violet
50
90
 72
0
 73
3
62
0
0
TEXT
8
COUCHE_1
 10
53600
 20
-24000
 11
53600
 21
-24000
 40
250
 1
WTC 10+0.25
50
0
 72
0
 73
3
62
0
0
TEXT
8
COUCHE_1
 10
5200
 20
-23600
 11
5200
 21
-23600
 40
150
 1
BU
50
90
 72
0
 73
3
62
0
0
TEXT
8
COUCHE_1
 10
4200
 20
-23600
 11
4200
 21
-23600
 40
150
 1
BN
50
90
 72
0
 73
3
62
0
 0
LINE
8
COUCHE_1
 6
CONTINUOUS
62
0
10
1200
20
-1200
11
59000
21
-1200
 0
LINE
8
COUCHE_1
 6
CONTINUOUS
62
0
10
1600
20
-1600
11
59000
21
-1600
 0
LINE
8
COUCHE_1
 6
CONTINUOUS
62
0
10
3200
20
-1200
11
3200
21
-1600
 0
LINE
8
COUCHE_1
 6
CONTINUOUS
62
0
10
4800
20
-1200
11
4800
21
-1600
 0
LINE
8
COUCHE_1
 6
CONTINUOUS
62
0
10
6400
20
-1200
11
6400
21
-1600
 0
LINE
8
COUCHE_1
 6
CONTINUOUS
62
0
10
8000
20
-1200
11
8000
21
-1600
 0
LINE
8
COUCHE_1
 6
CONTINUOUS
62
0
10
9600
20
-1200
11
9600
21
-1600
 0
LINE
8
COUCHE_1
 6
CONTINUOUS
62
0
10
11200
20
-1200
11
11200
21
-1600
 0
LINE
8
COUCHE_1
 6
CONTINUOUS
62
0
10
12800
20
-1200
11
12800
21
-1600
 0
LINE
8
COUCHE_1
 6
CONTINUOUS
62
0
10
14400
20
-1200
11
14400
21
-1600
 0
LINE
8
COUCHE_1
 6
CONTINUOUS
62
0
10
16000
20
-1200
11
16000
21
-1600
 0
LINE
8
COUCHE_1
 6
CONTINUOUS
62
0
10
17600
20
-1200
11
17600
21
-1600
 0
LINE
8
COUCHE_1
 6
CONTINUOUS
62
0
10
19200
20
-1200
11
19200
21
-1600
 0
LINE
8
COUCHE_1
 6
CONTINUOUS
62
0
10
20800
20
-1200
11
20800
21
-1600
 0
LINE
8
COUCHE_1
 6
CONTINUOUS
62
0
10
22400
20
-1200
11
22400
21
-1600
 0
LINE
8
COUCHE_1
 6
CONTINUOUS
62
0
10
24000
20
-1200
11
24000
21
-1600
 0
LINE
8
COUCHE_1
 6
CONTINUOUS
62
0
10
25600
20
-1200
11
25600
21
-1600
 0
LINE
8
COUCHE_1
 6
CONTINUOUS
62
0
10
27200
20
-1200
11
27200
21
-1600
 0
LINE
8
COUCHE_1
 6
CONTINUOUS
62
0
10
28800
20
-1200
11
28800
21
-1600
 0
LINE
8
COUCHE_1
 6
CONTINUOUS
62
0
10
30400
20
-1200
11
30400
21
-1600
 0
LINE
8
COUCHE_1
 6
CONTINUOUS
62
0
10
32000
20
-1200
11
32000
21
-1600
 0
LINE
8
COUCHE_1
 6
CONTINUOUS
62
0
10
33600
20
-1200
11
33600
21
-1600
 0
LINE
8
COUCHE_1
 6
CONTINUOUS
62
0
10
35200
20
-1200
11
35200
21
-1600
 0
LINE
8
COUCHE_1
 6
CONTINUOUS
62
0
10
36800
20
-1200
11
36800
21
-1600
 0
LINE
8
COUCHE_1
 6
CONTINUOUS
62
0
10
38400
20
-1200
11
38400
21
-1600
 0
LINE
8
COUCHE_1
 6
CONTINUOUS
62
0
10
40000
20
-1200
11
40000
21
-1600
 0
LINE
8
COUCHE_1
 6
CONTINUOUS
62
0
10
41600
20
-1200
11
41600
21
-1600
 0
LINE
8
COUCHE_1
 6
CONTINUOUS
62
0
10
43200
20
-1200
11
43200
21
-1600
 0
LINE
8
COUCHE_1
 6
CONTINUOUS
62
0
10
44800
20
-1200
11
44800
21
-1600
 0
LINE
8
COUCHE_1
 6
CONTINUOUS
62
0
10
46400
20
-1200
11
46400
21
-1600
 0
LINE
8
COUCHE_1
 6
CONTINUOUS
62
0
10
48000
20
-1200
11
48000
21
-1600
 0
LINE
8
COUCHE_1
 6
CONTINUOUS
62
0
10
49600
20
-1200
11
49600
21
-1600
 0
LINE
8
COUCHE_1
 6
CONTINUOUS
62
0
10
51200
20
-1200
11
51200
21
-1600
 0
LINE
8
COUCHE_1
 6
CONTINUOUS
62
0
10
52800
20
-1200
11
52800
21
-1600
 0
LINE
8
COUCHE_1
 6
CONTINUOUS
62
0
10
54400
20
-1200
11
54400
21
-1600
 0
LINE
8
COUCHE_1
 6
CONTINUOUS
62
0
10
56000
20
-1200
11
56000
21
-1600
 0
LINE
8
COUCHE_1
 6
CONTINUOUS
62
0
10
57600
20
-1200
11
57600
21
-1600
 0
LINE
8
COUCHE_1
 6
CONTINUOUS
62
0
10
59000
20
-1200
11
59000
21
-1600
 0
LINE
8
COUCHE_1
 6
CONTINUOUS
62
0
10
1200
20
-41600
11
59000
21
-41600
0
TEXT
8
COUCHE_1
 10
2400
 20
-1250
 11
2400
 21
-1250
 40
150
 1
A
50
0
 72
1
 73
3
62
0
0
TEXT
8
COUCHE_1
 10
4000
 20
-1250
 11
4000
 21
-1250
 40
150
 1
B
50
0
 72
1
 73
3
62
0
0
TEXT
8
COUCHE_1
 10
5600
 20
-1250
 11
5600
 21
-1250
 40
150
 1
C
50
0
 72
1
 73
3
62
0
0
TEXT
8
COUCHE_1
 10
7200
 20
-1250
 11
7200
 21
-1250
 40
150
 1
D
50
0
 72
1
 73
3
62
0
0
TEXT
8
COUCHE_1
 10
8800
 20
-1250
 11
8800
 21
-1250
 40
150
 1
E
50
0
 72
1
 73
3
62
0
0
TEXT
8
COUCHE_1
 10
10400
 20
-1250
 11
10400
 21
-1250
 40
150
 1
F
50
0
 72
1
 73
3
62
0
0
TEXT
8
COUCHE_1
 10
12000
 20
-1250
 11
12000
 21
-1250
 40
150
 1
G
50
0
 72
1
 73
3
62
0
0
TEXT
8
COUCHE_1
 10
13600
 20
-1250
 11
13600
 21
-1250
 40
150
 1
H
50
0
 72
1
 73
3
62
0
0
TEXT
8
COUCHE_1
 10
15200
 20
-1250
 11
15200
 21
-1250
 40
150
 1
I
50
0
 72
1
 73
3
62
0
0
TEXT
8
COUCHE_1
 10
16800
 20
-1250
 11
16800
 21
-1250
 40
150
 1
J
50
0
 72
1
 73
3
62
0
0
TEXT
8
COUCHE_1
 10
18400
 20
-1250
 11
18400
 21
-1250
 40
150
 1
K
50
0
 72
1
 73
3
62
0
0
TEXT
8
COUCHE_1
 10
20000
 20
-1250
 11
20000
 21
-1250
 40
150
 1
L
50
0
 72
1
 73
3
62
0
0
TEXT
8
COUCHE_1
 10
21600
 20
-1250
 11
21600
 21
-1250
 40
150
 1
M
50
0
 72
1
 73
3
62
0
0
TEXT
8
COUCHE_1
 10
23200
 20
-1250
 11
23200
 21
-1250
 40
150
 1
N
50
0
 72
1
 73
3
62
0
0
TEXT
8
COUCHE_1
 10
24800
 20
-1250
 11
24800
 21
-1250
 40
150
 1
O
50
0
 72
1
 73
3
62
0
0
TEXT
8
COUCHE_1
 10
26400
 20
-1250
 11
26400
 21
-1250
 40
150
 1
P
50
0
 72
1
 73
3
62
0
0
TEXT
8
COUCHE_1
 10
28000
 20
-1250
 11
28000
 21
-1250
 40
150
 1
Q
50
0
 72
1
 73
3
62
0
0
TEXT
8
COUCHE_1
 10
29600
 20
-1250
 11
29600
 21
-1250
 40
150
 1
R
50
0
 72
1
 73
3
62
0
0
TEXT
8
COUCHE_1
 10
31200
 20
-1250
 11
31200
 21
-1250
 40
150
 1
S
50
0
 72
1
 73
3
62
0
0
TEXT
8
COUCHE_1
 10
32800
 20
-1250
 11
32800
 21
-1250
 40
150
 1
T
50
0
 72
1
 73
3
62
0
0
TEXT
8
COUCHE_1
 10
34400
 20
-1250
 11
34400
 21
-1250
 40
150
 1
U
50
0
 72
1
 73
3
62
0
0
TEXT
8
COUCHE_1
 10
36000
 20
-1250
 11
36000
 21
-1250
 40
150
 1
V
50
0
 72
1
 73
3
62
0
0
TEXT
8
COUCHE_1
 10
37600
 20
-1250
 11
37600
 21
-1250
 40
150
 1
W
50
0
 72
1
 73
3
62
0
0
TEXT
8
COUCHE_1
 10
39200
 20
-1250
 11
39200
 21
-1250
 40
150
 1
X
50
0
 72
1
 73
3
62
0
0
TEXT
8
COUCHE_1
 10
40800
 20
-1250
 11
40800
 21
-1250
 40
150
 1
Y
50
0
 72
1
 73
3
62
0
0
TEXT
8
COUCHE_1
 10
42400
 20
-1250
 11
42400
 21
-1250
 40
150
 1
Z
50
0
 72
1
 73
3
62
0
0
TEXT
8
COUCHE_1
 10
44000
 20
-1250
 11
44000
 21
-1250
 40
150
 1
AA
50
0
 72
1
 73
3
62
0
0
TEXT
8
COUCHE_1
 10
45600
 20
-1250
 11
45600
 21
-1250
 40
150
 1
AB
50
0
 72
1
 73
3
62
0
0
TEXT
8
COUCHE_1
 10
47200
 20
-1250
 11
47200
 21
-1250
 40
150
 1
AC
50
0
 72
1
 73
3
62
0
0
TEXT
8
COUCHE_1
 10
48800
 20
-1250
 11
48800
 21
-1250
 40
150
 1
AD
50
0
 72
1
 73
3
62
0
0
TEXT
8
COUCHE_1
 10
50400
 20
-1250
 11
50400
 21
-1250
 40
150
 1
AE
50
0
 72
1
 73
3
62
0
0
TEXT
8
COUCHE_1
 10
52000
 20
-1250
 11
52000
 21
-1250
 40
150
 1
AF
50
0
 72
1
 73
3
62
0
0
TEXT
8
COUCHE_1
 10
53600
 20
-1250
 11
53600
 21
-1250
 40
150
 1
AG
50
0
 72
1
 73
3
62
0
0
TEXT
8
COUCHE_1
 10
55200
 20
-1250
 11
55200
 21
-1250
 40
150
 1
AH
50
0
 72
1
 73
3
62
0
0
TEXT
8
COUCHE_1
 10
56800
 20
-1250
 11
56800
 21
-1250
 40
150
 1
AI
50
0
 72
1
 73
3
62
0
 0
LINE
8
COUCHE_1
 6
CONTINUOUS
62
0
10
1200
20
-1200
11
1200
21
-41600
 0
LINE
8
COUCHE_1
 6
CONTINUOUS
62
0
10
1600
20
-1600
11
1600
21
-41600
 0
LINE
8
COUCHE_1
 6
CONTINUOUS
62
0
10
1200
20
-3200
11
1600
21
-3200
 0
LINE
8
COUCHE_1
 6
CONTINUOUS
62
0
10
1200
20
-4800
11
1600
21
-4800
 0
LINE
8
COUCHE_1
 6
CONTINUOUS
62
0
10
1200
20
-6400
11
1600
21
-6400
 0
LINE
8
COUCHE_1
 6
CONTINUOUS
62
0
10
1200
20
-8000
11
1600
21
-8000
 0
LINE
8
COUCHE_1
 6
CONTINUOUS
62
0
10
1200
20
-9600
11
1600
21
-9600
 0
LINE
8
COUCHE_1
 6
CONTINUOUS
62
0
10
1200
20
-11200
11
1600
21
-11200
 0
LINE
8
COUCHE_1
 6
CONTINUOUS
62
0
10
1200
20
-12800
11
1600
21
-12800
 0
LINE
8
COUCHE_1
 6
CONTINUOUS
62
0
10
1200
20
-14400
11
1600
21
-14400
 0
LINE
8
COUCHE_1
 6
CONTINUOUS
62
0
10
1200
20
-16000
11
1600
21
-16000
 0
LINE
8
COUCHE_1
 6
CONTINUOUS
62
0
10
1200
20
-17600
11
1600
21
-17600
 0
LINE
8
COUCHE_1
 6
CONTINUOUS
62
0
10
1200
20
-19200
11
1600
21
-19200
 0
LINE
8
COUCHE_1
 6
CONTINUOUS
62
0
10
1200
20
-20800
11
1600
21
-20800
 0
LINE
8
COUCHE_1
 6
CONTINUOUS
62
0
10
1200
20
-22400
11
1600
21
-22400
 0
LINE
8
COUCHE_1
 6
CONTINUOUS
62
0
10
1200
20
-24000
11
1600
21
-24000
 0
LINE
8
COUCHE_1
 6
CONTINUOUS
62
0
10
1200
20
-25600
11
1600
21
-25600
 0
LINE
8
COUCHE_1
 6
CONTINUOUS
62
0
10
1200
20
-27200
11
1600
21
-27200
 0
LINE
8
COUCHE_1
 6
CONTINUOUS
62
0
10
1200
20
-28800
11
1600
21
-28800
 0
LINE
8
COUCHE_1
 6
CONTINUOUS
62
0
10
1200
20
-30400
11
1600
21
-30400
 0
LINE
8
COUCHE_1
 6
CONTINUOUS
62
0
10
1200
20
-32000
11
1600
21
-32000
 0
LINE
8
COUCHE_1
 6
CONTINUOUS
62
0
10
1200
20
-33600
11
1600
21
-33600
 0
LINE
8
COUCHE_1
 6
CONTINUOUS
62
0
10
1200
20
-35200
11
1600
21
-35200
 0
LINE
8
COUCHE_1
 6
CONTINUOUS
62
0
10
1200
20
-36800
11
1600
21
-36800
 0
LINE
8
COUCHE_1
 6
CONTINUOUS
62
0
10
1200
20
-38400
11
1600
21
-38400
 0
LINE
8
COUCHE_1
 6
CONTINUOUS
62
0
10
1200
20
-40000
11
1600
21
-40000
 0
LINE
8
COUCHE_1
 6
CONTINUOUS
62
0
10
1200
20
-41600
11
1600
21
-41600
 0
LINE
8
COUCHE_1
 6
CONTINUOUS
62
0
10
1200
20
-41600
11
1600
21
-41600
 0
LINE
8
COUCHE_1
 6
CONTINUOUS
62
0
10
59000
20
-1200
11
59000
21
-41600
0
TEXT
8
COUCHE_1
 10
1400
 20
-2250
 11
1400
 21
-2250
 40
150
 1
1
50
0
 72
1
 73
3
62
0
0
TEXT
8
COUCHE_1
 10
1400
 20
-3850
 11
1400
 21
-3850
 40
150
 1
2
50
0
 72
1
 73
3
62
0
0
TEXT
8
COUCHE_1
 10
1400
 20
-5450
 11
1400
 21
-5450
 40
150
 1
3
50
0
 72
1
 73
3
62
0
0
TEXT
8
COUCHE_1
 10
1400
 20
-7050
 11
1400
 21
-7050
 40
150
 1
4
50
0
 72
1
 73
3
62
0
0
TEXT
8
COUCHE_1
 10
1400
 20
-8650
 11
1400
 21
-8650
 40
150
 1
5
50
0
 72
1
 73
3
62
0
0
TEXT
8
COUCHE_1
 10
1400
 20
-10250
 11
1400
 21
-10250
 40
150
 1
6
50
0
 72
1
 73
3
62
0
0
TEXT
8
COUCHE_1
 10
1400
 20
-11850
 11
1400
 21
-11850
 40
150
 1
7
50
0
 72
1
 73
3
62
0
0
TEXT
8
COUCHE_1
 10
1400
 20
-13450
 11
1400
 21
-13450
 40
150
 1
8
50
0
 72
1
 73
3
62
0
0
TEXT
8
COUCHE_1
 10
1400
 20
-15050
 11
1400
 21
-15050
 40
150
 1
9
50
0
 72
1
 73
3
62
0
0
TEXT
8
COUCHE_1
 10
1400
 20
-16650
 11
1400
 21
-16650
 40
150
 1
10
50
0
 72
1
 73
3
62
0
0
TEXT
8
COUCHE_1
 10
1400
 20
-18250
 11
1400
 21
-18250
 40
150
 1
11
50
0
 72
1
 73
3
62
0
0
TEXT
8
COUCHE_1
 10
1400
 20
-19850
 11
1400
 21
-19850
 40
150
 1
12
50
0
 72
1
 73
3
62
0
0
TEXT
8
COUCHE_1
 10
1400
 20
-21450
 11
1400
 21
-21450
 40
150
 1
13
50
0
 72
1
 73
3
62
0
0
TEXT
8
COUCHE_1
 10
1400
 20
-23050
 11
1400
 21
-23050
 40
150
 1
14
50
0
 72
1
 73
3
62
0
0
TEXT
8
COUCHE_1
 10
1400
 20
-24650
 11
1400
 21
-24650
 40
150
 1
15
50
0
 72
1
 73
3
62
0
0
TEXT
8
COUCHE_1
 10
1400
 20
-26250
 11
1400
 21
-26250
 40
150
 1
16
50
0
 72
1
 73
3
62
0
0
TEXT
8
COUCHE_1
 10
1400
 20
-27850
 11
1400
 21
-27850
 40
150
 1
17
50
0
 72
1
 73
3
62
0
0
TEXT
8
COUCHE_1
 10
1400
 20
-29450
 11
1400
 21
-29450
 40
150
 1
18
50
0
 72
1
 73
3
62
0
0
TEXT
8
COUCHE_1
 10
1400
 20
-31050
 11
1400
 21
-31050
 40
150
 1
19
50
0
 72
1
 73
3
62
0
0
TEXT
8
COUCHE_1
 10
1400
 20
-32650
 11
1400
 21
-32650
 40
150
 1
20
50
0
 72
1
 73
3
62
0
0
TEXT
8
COUCHE_1
 10
1400
 20
-34250
 11
1400
 21
-34250
 40
150
 1
21
50
0
 72
1
 73
3
62
0
0
TEXT
8
COUCHE_1
 10
1400
 20
-35850
 11
1400
 21
-35850
 40
150
 1
22
50
0
 72
1
 73
3
62
0
0
TEXT
8
COUCHE_1
 10
1400
 20
-37450
 11
1400
 21
-37450
 40
150
 1
23
50
0
 72
1
 73
3
62
0
0
TEXT
8
COUCHE_1
 10
1400
 20
-39050
 11
1400
 21
-39050
 40
150
 1
24
50
0
 72
1
 73
3
62
0
0
TEXT
8
COUCHE_1
 10
1400
 20
-40650
 11
1400
 21
-40650
 40
150
 1
25
50
0
 72
1
 73
3
62
0
 0
LINE
8
COUCHE_1
 6
CONTINUOUS
62
0
10
59000
20
-40000
11
1600
21
-40000
 0
LINE
8
COUCHE_1
 6
CONTINUOUS
62
0
10
57300
20
-41600
11
59000
21
-40000
 0
LINE
8
COUCHE_1
 6
CONTINUOUS
62
0
10
13400
20
-40000
11
13400
21
-41600
 0
LINE
8
COUCHE_1
 6
CONTINUOUS
62
0
10
53000
20
-41600
11
53000
21
-40000
 0
LINE
8
COUCHE_1
 6
CONTINUOUS
62
0
10
57200
20
-41600
11
57200
21
-40000
0
TEXT
8
COUCHE_1
 10
58200
 20
-41100
 11
58200
 21
-41100
 40
200
 1
14
50
0
 72
0
 73
3
62
0
0
TEXT
8
COUCHE_1
 10
57400
 20
-40200
 11
57400
 21
-40200
 40
200
 1
03
50
0
 72
0
 73
3
62
0
0
TEXT
8
COUCHE_1
 10
56500
 20
-40200
 11
56500
 21
-40200
 40
150
 1
14/02/2018
50
0
 72
2
 73
3
62
0
0
TEXT
8
COUCHE_1
 10
56500
 20
-40600
 11
56500
 21
-40600
 40
150
 1
1/2
50
0
 72
2
 73
3
62
0
0
TEXT
8
COUCHE_1
 10
53200
 20
-40200
 11
53200
 21
-40200
 40
150
 1
Dessiné le :
50
0
 72
0
 73
3
62
0
0
TEXT
8
COUCHE_1
 10
53200
 20
-40600
 11
53200
 21
-40600
 40
150
 1
Echelle :
50
0
 72
0
 73
3
62
0
0
TEXT
8
COUCHE_1
 10
56500
 20
-41000
 11
56500
 21
-41000
 40
150
 1
DN_DM
50
0
 72
2
 73
3
62
0
0
TEXT
8
COUCHE_1
 10
53200
 20
-41000
 11
53200
 21
-41000
 40
150
 1
Par : 
50
0
 72
0
 73
3
62
0
0
TEXT
8
COUCHE_1
 10
31600
 20
-40400
 11
31600
 21
-40400
 40
300
 1
Terminal capteurs
50
0
 72
0
 73
3
62
0
 0
ENDSEC
 0
EOF
