 0
SECTION
 2
HEADER
 9
$ACADVER
 1
AC1009
 9
$CLAYER
 8
Couche_1
 9
$HANDLING
70
 0
9
$INSBASE
10
0
20
0
30
0
9
$THICKNESS
40
0
9
$UCSNAME
2
UCS_F1
9
$WORLDVIEW
70
1
9
$LTSCALE
40
15
0
ENDSEC
0
SECTION
2
TABLES
 0
TABLE
 2
APPID
70
 1
 0
APPID
 2
TASK
 70
 0
 0
ENDTAB
 0
TABLE
  2
LTYPE
 70
 2
 0
LTYPE
  2
CONTINUOUS
 70
 0
 3
Solid line
 72
65
 73
0
 40
0
  0
LTYPE
  2
ACAD_ISO03W100
 70
 0
 3
CAO pointillé long
 72
65
 73
2
 40
30
 49
12
 49
-18.0
  0
LTYPE
 2
ACAD_ISO07W100
 70
0
 3
CAO pointillé fin
 72
65
 73
2
 40
3
 49
0
 49
-3.0
  0
LTYPE
  2
ACAD_ISO02W100
 70
0
 3
CAO pointillé extra long
 72
65
 73
2
 40
15
 49
12
 49
-3
  0
LTYPE
  2
AXES
 70
0
 3
CAO Axe
 72
65
 73
4
 40
50.8
 49
31.75
 49
-6.35
 49
6.35
 49
-6.35
  0
ENDTAB
0
TABLE
2
LAYER
 70
20
 0
LAYER
 2
COUCHE_1
 70
 64
 62
 7
 6
CONTINUOUS
 0
ENDTAB
 0
TABLE
 2
UCS
 70
 6
 0
UCS
 2
UCSF1
 70
 64
 10
0.000000
 20
0.000000
 30
20.000000
 11
1.000000
 21
0.000000
 31
0.000000
 12
0.000000
 22
-1.000000
 32
0.000000
 0
ENDTAB
 0
ENDSEC
 0
SECTION
 2
ENTITIES
0
POLYLINE
5
2B
 8
0
62
0
 6
ACAD_ISO07W100
 66
 1
 10
0
 20
0
 30
0
 70
1
 0
VERTEX
 5
33
  8
0
 10
7600
 20
-6200
 0
VERTEX
 5
33
  8
0
 10
15000
 20
-6200
 0
VERTEX
 5
33
  8
0
 10
15000
 20
-19600
 0
VERTEX
 5
33
  8
0
 10
7600
 20
-19600
 0
SEQEND
 5
37
 8
0
0
POLYLINE
5
2B
 8
0
62
0
 6
CONTINUOUS
 66
 1
 10
0
 20
0
 30
0
 70
1
 0
VERTEX
 5
33
  8
0
 10
20600
 20
-23000
 0
VERTEX
 5
33
  8
0
 10
24200
 20
-23000
 0
VERTEX
 5
33
  8
0
 10
24200
 20
-26400
 0
VERTEX
 5
33
  8
0
 10
20600
 20
-26400
 0
SEQEND
 5
37
 8
0
 0
CIRCLE
8
COUCHE_1
62
0
 6
ACAD_ISO07W100
10
22300
20
-24700
40
1100
 0
CIRCLE
8
COUCHE_1
62
0
 6
CONTINUOUS
10
22700
20
-23700
40
100
 0
CIRCLE
8
COUCHE_1
62
0
 6
CONTINUOUS
10
21900
20
-23700
40
100
 0
CIRCLE
8
COUCHE_1
62
0
 6
CONTINUOUS
10
21500
20
-23900
40
100
 0
CIRCLE
8
COUCHE_1
62
0
 6
CONTINUOUS
10
21300
20
-24300
40
100
 0
CIRCLE
8
COUCHE_1
62
0
 6
CONTINUOUS
10
21300
20
-24700
40
100
 0
CIRCLE
8
COUCHE_1
62
0
 6
CONTINUOUS
10
21300
20
-25100
40
100
 0
CIRCLE
8
COUCHE_1
62
0
 6
CONTINUOUS
10
21500
20
-25500
40
100
 0
CIRCLE
8
COUCHE_1
62
0
 6
CONTINUOUS
10
21900
20
-25700
40
100
 0
CIRCLE
8
COUCHE_1
62
0
 6
CONTINUOUS
10
22700
20
-25700
40
100
 0
CIRCLE
8
COUCHE_1
62
0
 6
CONTINUOUS
10
23100
20
-25500
40
100
 0
CIRCLE
8
COUCHE_1
62
0
 6
CONTINUOUS
10
23300
20
-25100
40
100
 0
CIRCLE
8
COUCHE_1
62
0
 6
CONTINUOUS
10
23300
20
-24700
40
100
 0
CIRCLE
8
COUCHE_1
62
0
 6
CONTINUOUS
10
23300
20
-24300
40
100
 0
CIRCLE
8
COUCHE_1
62
0
 6
CONTINUOUS
10
23100
20
-23900
40
100
 0
CIRCLE
8
COUCHE_1
62
0
 6
CONTINUOUS
10
22300
20
-24700
40
500
0
POLYLINE
5
2B
 8
0
62
0
 6
CONTINUOUS
 66
 1
 10
0
 20
0
 30
0
 70
1
 0
VERTEX
 5
33
  8
0
 10
26600
 20
-23000
 0
VERTEX
 5
33
  8
0
 10
30200
 20
-23000
 0
VERTEX
 5
33
  8
0
 10
30200
 20
-26400
 0
VERTEX
 5
33
  8
0
 10
26600
 20
-26400
 0
SEQEND
 5
37
 8
0
 0
CIRCLE
8
COUCHE_1
62
0
 6
ACAD_ISO07W100
10
28300
20
-24700
40
1100
 0
CIRCLE
8
COUCHE_1
62
0
 6
CONTINUOUS
10
28700
20
-23700
40
100
 0
CIRCLE
8
COUCHE_1
62
0
 6
CONTINUOUS
10
27900
20
-23700
40
100
 0
CIRCLE
8
COUCHE_1
62
0
 6
CONTINUOUS
10
27500
20
-23900
40
100
 0
CIRCLE
8
COUCHE_1
62
0
 6
CONTINUOUS
10
27300
20
-24300
40
100
 0
CIRCLE
8
COUCHE_1
62
0
 6
CONTINUOUS
10
27300
20
-24700
40
100
 0
CIRCLE
8
COUCHE_1
62
0
 6
CONTINUOUS
10
27300
20
-25100
40
100
 0
CIRCLE
8
COUCHE_1
62
0
 6
CONTINUOUS
10
27500
20
-25500
40
100
 0
CIRCLE
8
COUCHE_1
62
0
 6
CONTINUOUS
10
27900
20
-25700
40
100
 0
CIRCLE
8
COUCHE_1
62
0
 6
CONTINUOUS
10
28700
20
-25700
40
100
 0
CIRCLE
8
COUCHE_1
62
0
 6
CONTINUOUS
10
29100
20
-25500
40
100
 0
CIRCLE
8
COUCHE_1
62
0
 6
CONTINUOUS
10
29300
20
-25100
40
100
 0
CIRCLE
8
COUCHE_1
62
0
 6
CONTINUOUS
10
29300
20
-24700
40
100
 0
CIRCLE
8
COUCHE_1
62
0
 6
CONTINUOUS
10
29300
20
-24300
40
100
 0
CIRCLE
8
COUCHE_1
62
0
 6
CONTINUOUS
10
29100
20
-23900
40
100
 0
CIRCLE
8
COUCHE_1
62
0
 6
CONTINUOUS
10
28300
20
-24700
40
500
0
POLYLINE
5
2B
 8
0
62
0
 6
CONTINUOUS
 66
 1
 10
0
 20
0
 30
0
 70
1
 0
VERTEX
 5
33
  8
0
 10
32400
 20
-23000
 0
VERTEX
 5
33
  8
0
 10
36000
 20
-23000
 0
VERTEX
 5
33
  8
0
 10
36000
 20
-26400
 0
VERTEX
 5
33
  8
0
 10
32400
 20
-26400
 0
SEQEND
 5
37
 8
0
 0
CIRCLE
8
COUCHE_1
62
0
 6
ACAD_ISO07W100
10
34100
20
-24700
40
1100
 0
CIRCLE
8
COUCHE_1
62
0
 6
CONTINUOUS
10
34500
20
-23700
40
100
 0
CIRCLE
8
COUCHE_1
62
0
 6
CONTINUOUS
10
33700
20
-23700
40
100
 0
CIRCLE
8
COUCHE_1
62
0
 6
CONTINUOUS
10
33300
20
-23900
40
100
 0
CIRCLE
8
COUCHE_1
62
0
 6
CONTINUOUS
10
33100
20
-24300
40
100
 0
CIRCLE
8
COUCHE_1
62
0
 6
CONTINUOUS
10
33100
20
-24700
40
100
 0
CIRCLE
8
COUCHE_1
62
0
 6
CONTINUOUS
10
33100
20
-25100
40
100
 0
CIRCLE
8
COUCHE_1
62
0
 6
CONTINUOUS
10
33300
20
-25500
40
100
 0
CIRCLE
8
COUCHE_1
62
0
 6
CONTINUOUS
10
33700
20
-25700
40
100
 0
CIRCLE
8
COUCHE_1
62
0
 6
CONTINUOUS
10
34500
20
-25700
40
100
 0
CIRCLE
8
COUCHE_1
62
0
 6
CONTINUOUS
10
34900
20
-25500
40
100
 0
CIRCLE
8
COUCHE_1
62
0
 6
CONTINUOUS
10
35100
20
-25100
40
100
 0
CIRCLE
8
COUCHE_1
62
0
 6
CONTINUOUS
10
35100
20
-24700
40
100
 0
CIRCLE
8
COUCHE_1
62
0
 6
CONTINUOUS
10
35100
20
-24300
40
100
 0
CIRCLE
8
COUCHE_1
62
0
 6
CONTINUOUS
10
34900
20
-23900
40
100
 0
CIRCLE
8
COUCHE_1
62
0
 6
CONTINUOUS
10
34100
20
-24700
40
500
0
POLYLINE
5
2B
 8
0
62
0
 6
ACAD_ISO07W100
 66
 1
 10
0
 20
0
 30
0
 70
1
 0
VERTEX
 5
33
  8
0
 10
34400
 20
-9200
 0
VERTEX
 5
33
  8
0
 10
36200
 20
-9200
 0
VERTEX
 5
33
  8
0
 10
36200
 20
-17000
 0
VERTEX
 5
33
  8
0
 10
34400
 20
-17000
 0
SEQEND
 5
37
 8
0
0
POLYLINE
5
2B
 8
0
62
0
 6
ACAD_ISO07W100
 66
 1
 10
0
 20
0
 30
0
 70
1
 0
VERTEX
 5
33
  8
0
 10
37800
 20
-10400
 0
VERTEX
 5
33
  8
0
 10
40600
 20
-10400
 0
VERTEX
 5
33
  8
0
 10
40600
 20
-13400
 0
VERTEX
 5
33
  8
0
 10
37800
 20
-13400
 0
SEQEND
 5
37
 8
0
 0
LINE
8
COUCHE_1
 6
CONTINUOUS
62
5
10
3000
20
-19000
11
2900
21
-19100
 0
LINE
8
COUCHE_1
 6
CONTINUOUS
62
5
10
3000
20
-19000
11
2900
21
-18900
0
TEXT
8
COUCHE_1
 10
2000
 20
-18800
 11
2000
 21
-18800
 40
150
 1
GND_8
50
0
 72
0
 73
3
62
0
 0
LINE
8
COUCHE_1
 6
CONTINUOUS
62
5
10
3000
20
-17000
11
2900
21
-17100
 0
LINE
8
COUCHE_1
 6
CONTINUOUS
62
5
10
3000
20
-17000
11
2900
21
-16900
0
TEXT
8
COUCHE_1
 10
2200
 20
-16800
 11
2200
 21
-16800
 40
150
 1
P2.3
50
0
 72
0
 73
3
62
0
 0
LINE
8
COUCHE_1
 6
CONTINUOUS
62
5
10
3000
20
-16000
11
2900
21
-16100
 0
LINE
8
COUCHE_1
 6
CONTINUOUS
62
5
10
3000
20
-16000
11
2900
21
-15900
0
TEXT
8
COUCHE_1
 10
2200
 20
-15800
 11
2200
 21
-15800
 40
150
 1
P2.4
50
0
 72
0
 73
3
62
0
 0
LINE
8
COUCHE_1
 6
CONTINUOUS
62
5
10
3000
20
-15200
11
2900
21
-15300
 0
LINE
8
COUCHE_1
 6
CONTINUOUS
62
5
10
3000
20
-15200
11
2900
21
-15100
0
TEXT
8
COUCHE_1
 10
2200
 20
-15000
 11
2200
 21
-15000
 40
150
 1
P2.5
50
0
 72
0
 73
3
62
0
 0
LINE
8
COUCHE_1
 6
CONTINUOUS
62
5
10
3000
20
-14200
11
2900
21
-14300
 0
LINE
8
COUCHE_1
 6
CONTINUOUS
62
5
10
3000
20
-14200
11
2900
21
-14100
0
TEXT
8
COUCHE_1
 10
2200
 20
-14000
 11
2200
 21
-14000
 40
150
 1
P2.6
50
0
 72
0
 73
3
62
0
 0
LINE
8
COUCHE_1
 6
CONTINUOUS
62
5
10
3000
20
-13400
11
2900
21
-13500
 0
LINE
8
COUCHE_1
 6
CONTINUOUS
62
5
10
3000
20
-13400
11
2900
21
-13300
0
TEXT
8
COUCHE_1
 10
2200
 20
-13200
 11
2200
 21
-13200
 40
150
 1
P2.7
50
0
 72
0
 73
3
62
0
 0
LINE
8
COUCHE_1
 6
CONTINUOUS
62
5
10
3000
20
-12600
11
2900
21
-12700
 0
LINE
8
COUCHE_1
 6
CONTINUOUS
62
5
10
3000
20
-12600
11
2900
21
-12500
0
TEXT
8
COUCHE_1
 10
2200
 20
-12400
 11
2200
 21
-12400
 40
150
 1
P1.4
50
0
 72
0
 73
3
62
0
 0
LINE
8
COUCHE_1
 6
CONTINUOUS
62
5
10
3000
20
-11600
11
2900
21
-11700
 0
LINE
8
COUCHE_1
 6
CONTINUOUS
62
5
10
3000
20
-11600
11
2900
21
-11500
0
TEXT
8
COUCHE_1
 10
2200
 20
-11400
 11
2200
 21
-11400
 40
150
 1
P1.3
50
0
 72
0
 73
3
62
0
 0
LINE
8
COUCHE_1
 6
CONTINUOUS
62
5
10
3000
20
-10600
11
2900
21
-10700
 0
LINE
8
COUCHE_1
 6
CONTINUOUS
62
5
10
3000
20
-10600
11
2900
21
-10500
0
TEXT
8
COUCHE_1
 10
2200
 20
-10400
 11
2200
 21
-10400
 40
150
 1
P1.2
50
0
 72
0
 73
3
62
0
 0
LINE
8
COUCHE_1
 6
CONTINUOUS
62
0
10
22450
20
-21750
11
22450
21
-22000
 0
LINE
8
COUCHE_1
 6
CONTINUOUS
62
0
10
22450
20
-21750
11
22450
21
-21200
 0
LINE
8
COUCHE_1
 6
CONTINUOUS
62
0
10
22750
20
-21200
11
22750
21
-22000
 0
LINE
8
COUCHE_1
 6
CONTINUOUS
62
0
10
22450
20
-21200
11
22750
21
-21200
 0
LINE
8
COUCHE_1
 6
CONTINUOUS
62
0
10
22750
20
-22000
11
22550
21
-22000
 0
LINE
8
COUCHE_1
 6
CONTINUOUS
62
0
10
22450
20
-22000
11
22550
21
-22000
 0
LINE
8
COUCHE_1
 6
CONTINUOUS
62
0
10
22600
20
-21200
11
22600
21
-21000
 0
LINE
8
COUCHE_1
 6
CONTINUOUS
62
0
10
22600
20
-22000
11
22600
21
-22100
 0
LINE
8
COUCHE_1
 6
CONTINUOUS
62
0
10
22600
20
-22100
11
22600
21
-22200
0
POLYLINE
5
2B
 8
0
62
1
 6
CONTINUOUS
 66
 1
 10
0
 20
0
 30
0
 70
1
 0
VERTEX
 5
33
  8
0
 10
22550
 20
-20750
 0
VERTEX
 5
33
  8
0
 10
22650
 20
-20750
 0
VERTEX
 5
33
  8
0
 10
22650
 20
-20850
 0
VERTEX
 5
33
  8
0
 10
22550
 20
-20850
 0
SEQEND
 5
37
 8
0
 0
LINE
8
COUCHE_1
 6
CONTINUOUS
62
1
10
22600
20
-20800
11
22600
21
-21000
0
TEXT
8
COUCHE_1
 10
22700
 20
-20850
 11
22700
 21
-20850
 40
100
 1
1
50
0
 72
0
 73
3
62
0
0
POLYLINE
5
2B
 8
0
62
1
 6
CONTINUOUS
 66
 1
 10
0
 20
0
 30
0
 70
1
 0
VERTEX
 5
33
  8
0
 10
22550
 20
-22350
 0
VERTEX
 5
33
  8
0
 10
22650
 20
-22350
 0
VERTEX
 5
33
  8
0
 10
22650
 20
-22450
 0
VERTEX
 5
33
  8
0
 10
22550
 20
-22450
 0
SEQEND
 5
37
 8
0
 0
LINE
8
COUCHE_1
 6
CONTINUOUS
62
1
10
22600
20
-22400
11
22600
21
-22200
0
TEXT
8
COUCHE_1
 10
22700
 20
-22150
 11
22700
 21
-22150
 40
100
 1
2
50
0
 72
0
 73
3
62
0
0
TEXT
8
COUCHE_1
 10
22900
 20
-21400
 11
22900
 21
-21400
 40
150
 1
R1
50
0
 72
0
 73
3
62
0
0
TEXT
8
COUCHE_1
 10
22900
 20
-21700
 11
22900
 21
-21700
 40
150
 1
1k
50
0
 72
0
 73
3
62
0
 0
LINE
8
COUCHE_1
 6
CONTINUOUS
62
0
10
28450
20
-21750
11
28450
21
-22000
 0
LINE
8
COUCHE_1
 6
CONTINUOUS
62
0
10
28450
20
-21750
11
28450
21
-21200
 0
LINE
8
COUCHE_1
 6
CONTINUOUS
62
0
10
28750
20
-21200
11
28750
21
-22000
 0
LINE
8
COUCHE_1
 6
CONTINUOUS
62
0
10
28450
20
-21200
11
28750
21
-21200
 0
LINE
8
COUCHE_1
 6
CONTINUOUS
62
0
10
28750
20
-22000
11
28550
21
-22000
 0
LINE
8
COUCHE_1
 6
CONTINUOUS
62
0
10
28450
20
-22000
11
28550
21
-22000
 0
LINE
8
COUCHE_1
 6
CONTINUOUS
62
0
10
28600
20
-21200
11
28600
21
-21000
 0
LINE
8
COUCHE_1
 6
CONTINUOUS
62
0
10
28600
20
-22000
11
28600
21
-22100
 0
LINE
8
COUCHE_1
 6
CONTINUOUS
62
0
10
28600
20
-22100
11
28600
21
-22200
0
POLYLINE
5
2B
 8
0
62
1
 6
CONTINUOUS
 66
 1
 10
0
 20
0
 30
0
 70
1
 0
VERTEX
 5
33
  8
0
 10
28550
 20
-20750
 0
VERTEX
 5
33
  8
0
 10
28650
 20
-20750
 0
VERTEX
 5
33
  8
0
 10
28650
 20
-20850
 0
VERTEX
 5
33
  8
0
 10
28550
 20
-20850
 0
SEQEND
 5
37
 8
0
 0
LINE
8
COUCHE_1
 6
CONTINUOUS
62
1
10
28600
20
-20800
11
28600
21
-21000
0
TEXT
8
COUCHE_1
 10
28700
 20
-20850
 11
28700
 21
-20850
 40
100
 1
1
50
0
 72
0
 73
3
62
0
0
POLYLINE
5
2B
 8
0
62
1
 6
CONTINUOUS
 66
 1
 10
0
 20
0
 30
0
 70
1
 0
VERTEX
 5
33
  8
0
 10
28550
 20
-22350
 0
VERTEX
 5
33
  8
0
 10
28650
 20
-22350
 0
VERTEX
 5
33
  8
0
 10
28650
 20
-22450
 0
VERTEX
 5
33
  8
0
 10
28550
 20
-22450
 0
SEQEND
 5
37
 8
0
 0
LINE
8
COUCHE_1
 6
CONTINUOUS
62
1
10
28600
20
-22400
11
28600
21
-22200
0
TEXT
8
COUCHE_1
 10
28700
 20
-22150
 11
28700
 21
-22150
 40
100
 1
2
50
0
 72
0
 73
3
62
0
0
TEXT
8
COUCHE_1
 10
28900
 20
-21400
 11
28900
 21
-21400
 40
150
 1
R2
50
0
 72
0
 73
3
62
0
0
TEXT
8
COUCHE_1
 10
28900
 20
-21700
 11
28900
 21
-21700
 40
150
 1
1k
50
0
 72
0
 73
3
62
0
 0
LINE
8
COUCHE_1
 6
CONTINUOUS
62
0
10
34250
20
-21750
11
34250
21
-22000
 0
LINE
8
COUCHE_1
 6
CONTINUOUS
62
0
10
34250
20
-21750
11
34250
21
-21200
 0
LINE
8
COUCHE_1
 6
CONTINUOUS
62
0
10
34550
20
-21200
11
34550
21
-22000
 0
LINE
8
COUCHE_1
 6
CONTINUOUS
62
0
10
34250
20
-21200
11
34550
21
-21200
 0
LINE
8
COUCHE_1
 6
CONTINUOUS
62
0
10
34550
20
-22000
11
34350
21
-22000
 0
LINE
8
COUCHE_1
 6
CONTINUOUS
62
0
10
34250
20
-22000
11
34350
21
-22000
 0
LINE
8
COUCHE_1
 6
CONTINUOUS
62
0
10
34400
20
-21200
11
34400
21
-21000
 0
LINE
8
COUCHE_1
 6
CONTINUOUS
62
0
10
34400
20
-22000
11
34400
21
-22100
 0
LINE
8
COUCHE_1
 6
CONTINUOUS
62
0
10
34400
20
-22100
11
34400
21
-22200
0
POLYLINE
5
2B
 8
0
62
1
 6
CONTINUOUS
 66
 1
 10
0
 20
0
 30
0
 70
1
 0
VERTEX
 5
33
  8
0
 10
34350
 20
-20750
 0
VERTEX
 5
33
  8
0
 10
34450
 20
-20750
 0
VERTEX
 5
33
  8
0
 10
34450
 20
-20850
 0
VERTEX
 5
33
  8
0
 10
34350
 20
-20850
 0
SEQEND
 5
37
 8
0
 0
LINE
8
COUCHE_1
 6
CONTINUOUS
62
1
10
34400
20
-20800
11
34400
21
-21000
0
TEXT
8
COUCHE_1
 10
34500
 20
-20850
 11
34500
 21
-20850
 40
100
 1
1
50
0
 72
0
 73
3
62
0
0
POLYLINE
5
2B
 8
0
62
1
 6
CONTINUOUS
 66
 1
 10
0
 20
0
 30
0
 70
1
 0
VERTEX
 5
33
  8
0
 10
34350
 20
-22350
 0
VERTEX
 5
33
  8
0
 10
34450
 20
-22350
 0
VERTEX
 5
33
  8
0
 10
34450
 20
-22450
 0
VERTEX
 5
33
  8
0
 10
34350
 20
-22450
 0
SEQEND
 5
37
 8
0
 0
LINE
8
COUCHE_1
 6
CONTINUOUS
62
1
10
34400
20
-22400
11
34400
21
-22200
0
TEXT
8
COUCHE_1
 10
34500
 20
-22150
 11
34500
 21
-22150
 40
100
 1
2
50
0
 72
0
 73
3
62
0
0
TEXT
8
COUCHE_1
 10
34700
 20
-21400
 11
34700
 21
-21400
 40
150
 1
R3
50
0
 72
0
 73
3
62
0
0
TEXT
8
COUCHE_1
 10
34700
 20
-21700
 11
34700
 21
-21700
 40
150
 1
1k
50
0
 72
0
 73
3
62
0
 0
LINE
8
COUCHE_1
 6
CONTINUOUS
62
5
10
3000
20
-9800
11
2900
21
-9900
 0
LINE
8
COUCHE_1
 6
CONTINUOUS
62
5
10
3000
20
-9800
11
2900
21
-9700
0
TEXT
8
COUCHE_1
 10
2200
 20
-9600
 11
2200
 21
-9600
 40
150
 1
P2.2
50
0
 72
0
 73
3
62
0
 0
LINE
8
COUCHE_1
 6
CONTINUOUS
62
5
10
38800
20
-12400
11
39600
21
-12200
 0
LINE
8
COUCHE_1
 6
CONTINUOUS
62
5
10
39200
20
-11400
11
39200
21
-11600
 0
LINE
8
COUCHE_1
 6
CONTINUOUS
62
5
10
39200
20
-11800
11
39200
21
-12000
 0
LINE
8
COUCHE_1
 6
CONTINUOUS
62
5
10
39200
20
-12200
11
39200
21
-12400
 0
LINE
8
COUCHE_1
 6
CONTINUOUS
62
5
10
39500
20
-12100
11
39500
21
-12400
 0
LINE
8
COUCHE_1
 6
CONTINUOUS
62
5
10
39500
20
-12400
11
39600
21
-12400
 0
ARC
8
COUCHE_1
62
5
10
39400
20
-11200
40
200
50
180
51
360
 0
ARC
8
COUCHE_1
62
5
10
39000
20
-11200
40
200
50
180
51
360
0
POLYLINE
5
2B
 8
0
62
1
 6
CONTINUOUS
 66
 1
 10
0
 20
0
 30
0
 70
1
 0
VERTEX
 5
33
  8
0
 10
40350
 20
-11150
 0
VERTEX
 5
33
  8
0
 10
40450
 20
-11150
 0
VERTEX
 5
33
  8
0
 10
40450
 20
-11250
 0
VERTEX
 5
33
  8
0
 10
40350
 20
-11250
 0
SEQEND
 5
37
 8
0
 0
LINE
8
COUCHE_1
 6
CONTINUOUS
62
1
10
40400
20
-11200
11
39600
21
-11200
0
POLYLINE
5
2B
 8
0
62
1
 6
CONTINUOUS
 66
 1
 10
0
 20
0
 30
0
 70
1
 0
VERTEX
 5
33
  8
0
 10
37950
 20
-11150
 0
VERTEX
 5
33
  8
0
 10
38050
 20
-11150
 0
VERTEX
 5
33
  8
0
 10
38050
 20
-11250
 0
VERTEX
 5
33
  8
0
 10
37950
 20
-11250
 0
SEQEND
 5
37
 8
0
 0
LINE
8
COUCHE_1
 6
CONTINUOUS
62
1
10
38000
20
-11200
11
38800
21
-11200
0
POLYLINE
5
2B
 8
0
62
1
 6
CONTINUOUS
 66
 1
 10
0
 20
0
 30
0
 70
1
 0
VERTEX
 5
33
  8
0
 10
40350
 20
-12350
 0
VERTEX
 5
33
  8
0
 10
40450
 20
-12350
 0
VERTEX
 5
33
  8
0
 10
40450
 20
-12450
 0
VERTEX
 5
33
  8
0
 10
40350
 20
-12450
 0
SEQEND
 5
37
 8
0
 0
LINE
8
COUCHE_1
 6
CONTINUOUS
62
1
10
40400
20
-12400
11
39600
21
-12400
0
POLYLINE
5
2B
 8
0
62
1
 6
CONTINUOUS
 66
 1
 10
0
 20
0
 30
0
 70
1
 0
VERTEX
 5
33
  8
0
 10
37950
 20
-12350
 0
VERTEX
 5
33
  8
0
 10
38050
 20
-12350
 0
VERTEX
 5
33
  8
0
 10
38050
 20
-12450
 0
VERTEX
 5
33
  8
0
 10
37950
 20
-12450
 0
SEQEND
 5
37
 8
0
 0
LINE
8
COUCHE_1
 6
CONTINUOUS
62
1
10
38000
20
-12400
11
38800
21
-12400
 0
LINE
8
COUCHE_1
 6
CONTINUOUS
62
0
10
3400
20
-17000
11
8000
21
-17000
 0
LINE
8
COUCHE_1
 6
CONTINUOUS
62
0
10
3000
20
-17000
11
3400
21
-17000
 0
LINE
8
COUCHE_1
 6
CONTINUOUS
62
0
10
3000
20
-16000
11
8000
21
-16000
 0
LINE
8
COUCHE_1
 6
CONTINUOUS
62
0
10
3000
20
-15200
11
8000
21
-15200
 0
LINE
8
COUCHE_1
 6
CONTINUOUS
62
0
10
3000
20
-14200
11
8000
21
-14200
 0
LINE
8
COUCHE_1
 6
CONTINUOUS
62
0
10
3000
20
-13400
11
8000
21
-13400
 0
LINE
8
COUCHE_1
 6
CONTINUOUS
62
0
10
3000
20
-12600
11
8000
21
-12600
 0
LINE
8
COUCHE_1
 6
CONTINUOUS
62
0
10
3000
20
-11600
11
8000
21
-11600
 0
LINE
8
COUCHE_1
 6
CONTINUOUS
62
0
10
3000
20
-10600
11
8000
21
-10600
 0
LINE
8
COUCHE_1
 6
CONTINUOUS
62
0
10
3000
20
-19000
11
8000
21
-19000
 0
LINE
8
COUCHE_1
 6
CONTINUOUS
62
0
10
4200
20
-18000
11
8000
21
-18000
 0
LINE
8
COUCHE_1
 6
CONTINUOUS
62
0
10
22600
20
-23600
11
22600
21
-22400
 0
LINE
8
COUCHE_1
 6
CONTINUOUS
62
0
10
28600
20
-19600
11
20200
21
-19600
 0
LINE
8
COUCHE_1
 6
CONTINUOUS
62
0
10
28600
20
-20800
11
28600
21
-19600
 0
LINE
8
COUCHE_1
 6
CONTINUOUS
62
0
10
28600
20
-23600
11
28600
21
-22400
 0
LINE
8
COUCHE_1
 6
CONTINUOUS
62
0
10
28600
20
-19600
11
34400
21
-19600
 0
LINE
8
COUCHE_1
 6
CONTINUOUS
62
0
10
34400
20
-20800
11
34400
21
-19600
 0
LINE
8
COUCHE_1
 6
CONTINUOUS
62
0
10
34400
20
-23600
11
34400
21
-22400
 0
LINE
8
COUCHE_1
 6
CONTINUOUS
62
0
10
22200
20
-23600
11
22200
21
-20000
 0
LINE
8
COUCHE_1
 6
CONTINUOUS
62
0
10
20600
20
-20000
11
22200
21
-20000
 0
LINE
8
COUCHE_1
 6
CONTINUOUS
62
0
10
28200
20
-23600
11
28200
21
-20000
 0
LINE
8
COUCHE_1
 6
CONTINUOUS
62
0
10
22200
20
-20000
11
28200
21
-20000
 0
LINE
8
COUCHE_1
 6
CONTINUOUS
62
0
10
34000
20
-23600
11
34000
21
-20000
 0
LINE
8
COUCHE_1
 6
CONTINUOUS
62
0
10
28200
20
-20000
11
34000
21
-20000
 0
LINE
8
COUCHE_1
 6
CONTINUOUS
62
0
10
14600
20
-10800
11
17000
21
-10800
 0
LINE
8
COUCHE_1
 6
CONTINUOUS
62
0
10
17000
20
-10800
11
17200
21
-10800
 0
LINE
8
COUCHE_1
 6
CONTINUOUS
62
0
10
14600
20
-11600
11
17200
21
-11600
 0
LINE
8
COUCHE_1
 6
CONTINUOUS
62
0
10
17200
20
-11600
11
17400
21
-11600
 0
LINE
8
COUCHE_1
 6
CONTINUOUS
62
0
10
14600
20
-12400
11
17400
21
-12400
 0
LINE
8
COUCHE_1
 6
CONTINUOUS
62
0
10
14600
20
-13400
11
17800
21
-13400
 0
LINE
8
COUCHE_1
 6
CONTINUOUS
62
0
10
17800
20
-13400
11
17600
21
-13400
 0
LINE
8
COUCHE_1
 6
CONTINUOUS
62
0
10
14600
20
-14200
11
18600
21
-14200
 0
LINE
8
COUCHE_1
 6
CONTINUOUS
62
0
10
14600
20
-15200
11
18200
21
-15200
 0
LINE
8
COUCHE_1
 6
CONTINUOUS
62
0
10
18600
20
-15200
11
18200
21
-15200
 0
LINE
8
COUCHE_1
 6
CONTINUOUS
62
0
10
14600
20
-16000
11
19000
21
-16000
 0
LINE
8
COUCHE_1
 6
CONTINUOUS
62
0
10
19000
20
-16000
11
19400
21
-16000
 0
LINE
8
COUCHE_1
 6
CONTINUOUS
62
0
10
14600
20
-18800
11
16400
21
-18800
 0
LINE
8
COUCHE_1
 6
CONTINUOUS
62
0
10
14600
20
-18000
11
16600
21
-18000
 0
LINE
8
COUCHE_1
 6
CONTINUOUS
62
0
10
16400
20
-18000
11
16600
21
-18000
 0
LINE
8
COUCHE_1
 6
CONTINUOUS
62
0
10
20600
20
-25800
11
20000
21
-25800
 0
LINE
8
COUCHE_1
 6
CONTINUOUS
62
0
10
26600
20
-25800
11
26000
21
-25800
 0
LINE
8
COUCHE_1
 6
CONTINUOUS
62
0
10
32400
20
-25800
11
31800
21
-25800
 0
LINE
8
COUCHE_1
 6
CONTINUOUS
62
0
10
34800
20
-16000
11
35000
21
-16000
 0
LINE
8
COUCHE_1
 6
CONTINUOUS
62
0
10
35000
20
-11600
11
35200
21
-11600
 0
LINE
8
COUCHE_1
 6
CONTINUOUS
62
0
10
3000
20
-9800
11
8000
21
-9800
 0
LINE
8
COUCHE_1
 6
CONTINUOUS
62
0
10
14600
20
-9800
11
15200
21
-9800
 0
LINE
8
COUCHE_1
 6
CONTINUOUS
62
0
10
17200
20
-10800
11
35000
21
-10800
 0
LINE
8
COUCHE_1
 6
CONTINUOUS
62
0
10
17400
20
-11600
11
35200
21
-11600
 0
LINE
8
COUCHE_1
 6
CONTINUOUS
62
0
10
17600
20
-13400
11
34800
21
-13400
 0
LINE
8
COUCHE_1
 6
CONTINUOUS
62
0
10
18600
20
-15200
11
34800
21
-15200
 0
LINE
8
COUCHE_1
 6
CONTINUOUS
62
0
10
19400
20
-16000
11
35000
21
-16000
 0
LINE
8
COUCHE_1
 6
CONTINUOUS
62
0
10
20600
20
-20000
11
19400
21
-20000
 0
LINE
8
COUCHE_1
 6
CONTINUOUS
62
0
10
37600
20
-10000
11
37600
21
-9000
 0
LINE
8
COUCHE_1
 6
CONTINUOUS
62
0
10
40800
20
-10000
11
40800
21
-9000
 0
LINE
8
COUCHE_1
 6
CONTINUOUS
62
0
10
37600
20
-9000
11
37600
21
-8600
 0
LINE
8
COUCHE_1
 6
CONTINUOUS
62
0
10
40800
20
-9000
11
40800
21
-8600
 0
LINE
8
COUCHE_1
 6
CONTINUOUS
62
0
10
18600
20
-14200
11
34800
21
-14200
 0
LINE
8
COUCHE_1
 6
CONTINUOUS
62
0
10
37600
20
-11200
11
38000
21
-11200
 0
LINE
8
COUCHE_1
 6
CONTINUOUS
62
0
10
37600
20
-11200
11
37600
21
-10000
 0
LINE
8
COUCHE_1
 6
CONTINUOUS
62
0
10
40800
20
-11200
11
40800
21
-10000
 0
LINE
8
COUCHE_1
 6
CONTINUOUS
62
0
10
40400
20
-12400
11
41000
21
-12400
 0
LINE
8
COUCHE_1
 6
CONTINUOUS
62
0
10
40400
20
-11200
11
40800
21
-11200
 0
LINE
8
COUCHE_1
 6
CONTINUOUS
62
0
10
38000
20
-12400
11
17400
21
-12400
 0
LINE
8
COUCHE_1
 6
CONTINUOUS
62
0
10
33200
20
-13400
11
33200
21
-13800
 0
LINE
8
COUCHE_1
 6
CONTINUOUS
62
0
10
33200
20
-13800
11
36400
21
-13800
 0
LINE
8
COUCHE_1
 6
CONTINUOUS
62
0
10
14600
20
-17000
11
20200
21
-17000
 0
LINE
8
COUCHE_1
 6
CONTINUOUS
62
0
10
20200
20
-19600
11
20200
21
-17000
 0
LINE
8
COUCHE_1
 6
CONTINUOUS
62
0
10
22600
20
-20800
11
22600
21
-19600
 0
CIRCLE
8
COUCHE_1
62
5
 6
CONTINUOUS
10
28600
20
-19600
40
40
 0
CIRCLE
8
COUCHE_1
62
5
 6
CONTINUOUS
10
22200
20
-20000
40
40
 0
CIRCLE
8
COUCHE_1
62
5
 6
CONTINUOUS
10
28200
20
-20000
40
40
 0
CIRCLE
8
COUCHE_1
62
5
 6
CONTINUOUS
10
33200
20
-13400
40
40
 0
CIRCLE
8
COUCHE_1
62
5
 6
CONTINUOUS
10
22600
20
-19600
40
40
 0
LINE
8
COUCHE_1
 6
CONTINUOUS
62
0
10
8000
20
-17400
11
8000
21
-16500
 0
LINE
8
COUCHE_1
 6
CONTINUOUS
62
0
10
8400
20
-17400
11
8400
21
-16500
 0
LINE
8
COUCHE_1
 6
CONTINUOUS
62
0
10
8000
20
-16500
11
8400
21
-16500
 0
LINE
8
COUCHE_1
 6
CONTINUOUS
62
0
10
8000
20
-17400
11
8400
21
-17400
 0
LINE
8
COUCHE_1
 6
CONTINUOUS
62
0
10
8000
20
-16500
11
8000
21
-15600
 0
LINE
8
COUCHE_1
 6
CONTINUOUS
62
0
10
8400
20
-16500
11
8400
21
-15600
 0
LINE
8
COUCHE_1
 6
CONTINUOUS
62
0
10
8000
20
-15600
11
8400
21
-15600
 0
LINE
8
COUCHE_1
 6
CONTINUOUS
62
0
10
8000
20
-16500
11
8400
21
-16500
 0
LINE
8
COUCHE_1
 6
CONTINUOUS
62
0
10
8000
20
-15600
11
8000
21
-14700
 0
LINE
8
COUCHE_1
 6
CONTINUOUS
62
0
10
8400
20
-15600
11
8400
21
-14700
 0
LINE
8
COUCHE_1
 6
CONTINUOUS
62
0
10
8000
20
-14700
11
8400
21
-14700
 0
LINE
8
COUCHE_1
 6
CONTINUOUS
62
0
10
8000
20
-15600
11
8400
21
-15600
 0
LINE
8
COUCHE_1
 6
CONTINUOUS
62
0
10
8000
20
-14700
11
8000
21
-13800
 0
LINE
8
COUCHE_1
 6
CONTINUOUS
62
0
10
8400
20
-14700
11
8400
21
-13800
 0
LINE
8
COUCHE_1
 6
CONTINUOUS
62
0
10
8000
20
-13800
11
8400
21
-13800
 0
LINE
8
COUCHE_1
 6
CONTINUOUS
62
0
10
8000
20
-14700
11
8400
21
-14700
 0
LINE
8
COUCHE_1
 6
CONTINUOUS
62
0
10
8000
20
-13800
11
8000
21
-12900
 0
LINE
8
COUCHE_1
 6
CONTINUOUS
62
0
10
8400
20
-13800
11
8400
21
-12900
 0
LINE
8
COUCHE_1
 6
CONTINUOUS
62
0
10
8000
20
-12900
11
8400
21
-12900
 0
LINE
8
COUCHE_1
 6
CONTINUOUS
62
0
10
8000
20
-13800
11
8400
21
-13800
 0
LINE
8
COUCHE_1
 6
CONTINUOUS
62
0
10
8000
20
-12900
11
8000
21
-12000
 0
LINE
8
COUCHE_1
 6
CONTINUOUS
62
0
10
8400
20
-12900
11
8400
21
-12000
 0
LINE
8
COUCHE_1
 6
CONTINUOUS
62
0
10
8000
20
-12000
11
8400
21
-12000
 0
LINE
8
COUCHE_1
 6
CONTINUOUS
62
0
10
8000
20
-12900
11
8400
21
-12900
 0
LINE
8
COUCHE_1
 6
CONTINUOUS
62
0
10
8000
20
-12000
11
8000
21
-11100
 0
LINE
8
COUCHE_1
 6
CONTINUOUS
62
0
10
8400
20
-12000
11
8400
21
-11100
 0
LINE
8
COUCHE_1
 6
CONTINUOUS
62
0
10
8000
20
-11100
11
8400
21
-11100
 0
LINE
8
COUCHE_1
 6
CONTINUOUS
62
0
10
8000
20
-12000
11
8400
21
-12000
 0
LINE
8
COUCHE_1
 6
CONTINUOUS
62
0
10
8000
20
-11100
11
8000
21
-10200
 0
LINE
8
COUCHE_1
 6
CONTINUOUS
62
0
10
8400
20
-11100
11
8400
21
-10200
 0
LINE
8
COUCHE_1
 6
CONTINUOUS
62
0
10
8000
20
-10200
11
8400
21
-10200
 0
LINE
8
COUCHE_1
 6
CONTINUOUS
62
0
10
8000
20
-11100
11
8400
21
-11100
 0
LINE
8
COUCHE_1
 6
CONTINUOUS
62
0
10
14200
20
-17400
11
14200
21
-16500
 0
LINE
8
COUCHE_1
 6
CONTINUOUS
62
0
10
14600
20
-17400
11
14600
21
-16500
 0
LINE
8
COUCHE_1
 6
CONTINUOUS
62
0
10
14200
20
-16500
11
14600
21
-16500
 0
LINE
8
COUCHE_1
 6
CONTINUOUS
62
0
10
14200
20
-17400
11
14600
21
-17400
 0
LINE
8
COUCHE_1
 6
CONTINUOUS
62
0
10
14200
20
-16500
11
14200
21
-15600
 0
LINE
8
COUCHE_1
 6
CONTINUOUS
62
0
10
14600
20
-16500
11
14600
21
-15600
 0
LINE
8
COUCHE_1
 6
CONTINUOUS
62
0
10
14200
20
-15600
11
14600
21
-15600
 0
LINE
8
COUCHE_1
 6
CONTINUOUS
62
0
10
14200
20
-16500
11
14600
21
-16500
 0
LINE
8
COUCHE_1
 6
CONTINUOUS
62
0
10
14200
20
-15600
11
14200
21
-14700
 0
LINE
8
COUCHE_1
 6
CONTINUOUS
62
0
10
14600
20
-15600
11
14600
21
-14700
 0
LINE
8
COUCHE_1
 6
CONTINUOUS
62
0
10
14200
20
-14700
11
14600
21
-14700
 0
LINE
8
COUCHE_1
 6
CONTINUOUS
62
0
10
14200
20
-15600
11
14600
21
-15600
 0
LINE
8
COUCHE_1
 6
CONTINUOUS
62
0
10
14200
20
-14700
11
14200
21
-13800
 0
LINE
8
COUCHE_1
 6
CONTINUOUS
62
0
10
14600
20
-14700
11
14600
21
-13800
 0
LINE
8
COUCHE_1
 6
CONTINUOUS
62
0
10
14200
20
-13800
11
14600
21
-13800
 0
LINE
8
COUCHE_1
 6
CONTINUOUS
62
0
10
14200
20
-14700
11
14600
21
-14700
 0
LINE
8
COUCHE_1
 6
CONTINUOUS
62
0
10
14200
20
-13800
11
14200
21
-12900
 0
LINE
8
COUCHE_1
 6
CONTINUOUS
62
0
10
14600
20
-13800
11
14600
21
-12900
 0
LINE
8
COUCHE_1
 6
CONTINUOUS
62
0
10
14200
20
-12900
11
14600
21
-12900
 0
LINE
8
COUCHE_1
 6
CONTINUOUS
62
0
10
14200
20
-13800
11
14600
21
-13800
 0
LINE
8
COUCHE_1
 6
CONTINUOUS
62
0
10
14200
20
-12900
11
14200
21
-12000
 0
LINE
8
COUCHE_1
 6
CONTINUOUS
62
0
10
14600
20
-12900
11
14600
21
-12000
 0
LINE
8
COUCHE_1
 6
CONTINUOUS
62
0
10
14200
20
-12000
11
14600
21
-12000
 0
LINE
8
COUCHE_1
 6
CONTINUOUS
62
0
10
14200
20
-12900
11
14600
21
-12900
 0
LINE
8
COUCHE_1
 6
CONTINUOUS
62
0
10
14200
20
-12000
11
14200
21
-11100
 0
LINE
8
COUCHE_1
 6
CONTINUOUS
62
0
10
14600
20
-12000
11
14600
21
-11100
 0
LINE
8
COUCHE_1
 6
CONTINUOUS
62
0
10
14200
20
-11100
11
14600
21
-11100
 0
LINE
8
COUCHE_1
 6
CONTINUOUS
62
0
10
14200
20
-12000
11
14600
21
-12000
 0
LINE
8
COUCHE_1
 6
CONTINUOUS
62
0
10
14200
20
-11100
11
14200
21
-10200
 0
LINE
8
COUCHE_1
 6
CONTINUOUS
62
0
10
14600
20
-11100
11
14600
21
-10200
 0
LINE
8
COUCHE_1
 6
CONTINUOUS
62
0
10
14200
20
-10200
11
14600
21
-10200
 0
LINE
8
COUCHE_1
 6
CONTINUOUS
62
0
10
14200
20
-11100
11
14600
21
-11100
 0
LINE
8
COUCHE_1
 6
CONTINUOUS
62
0
10
8400
20
-17600
11
8400
21
-18500
 0
LINE
8
COUCHE_1
 6
CONTINUOUS
62
0
10
8000
20
-17600
11
8000
21
-18500
 0
LINE
8
COUCHE_1
 6
CONTINUOUS
62
0
10
8400
20
-18500
11
8000
21
-18500
 0
LINE
8
COUCHE_1
 6
CONTINUOUS
62
0
10
8400
20
-17600
11
8000
21
-17600
 0
LINE
8
COUCHE_1
 6
CONTINUOUS
62
0
10
8400
20
-18500
11
8400
21
-19400
 0
LINE
8
COUCHE_1
 6
CONTINUOUS
62
0
10
8000
20
-18500
11
8000
21
-19400
 0
LINE
8
COUCHE_1
 6
CONTINUOUS
62
0
10
8400
20
-19400
11
8000
21
-19400
 0
LINE
8
COUCHE_1
 6
CONTINUOUS
62
0
10
8400
20
-18500
11
8000
21
-18500
 0
LINE
8
COUCHE_1
 6
CONTINUOUS
62
0
10
14600
20
-17600
11
14600
21
-18500
 0
LINE
8
COUCHE_1
 6
CONTINUOUS
62
0
10
14200
20
-17600
11
14200
21
-18500
 0
LINE
8
COUCHE_1
 6
CONTINUOUS
62
0
10
14600
20
-18500
11
14200
21
-18500
 0
LINE
8
COUCHE_1
 6
CONTINUOUS
62
0
10
14600
20
-17600
11
14200
21
-17600
 0
LINE
8
COUCHE_1
 6
CONTINUOUS
62
0
10
14600
20
-18500
11
14600
21
-19400
 0
LINE
8
COUCHE_1
 6
CONTINUOUS
62
0
10
14200
20
-18500
11
14200
21
-19400
 0
LINE
8
COUCHE_1
 6
CONTINUOUS
62
0
10
14600
20
-19400
11
14200
21
-19400
 0
LINE
8
COUCHE_1
 6
CONTINUOUS
62
0
10
14600
20
-18500
11
14200
21
-18500
 0
LINE
8
COUCHE_1
 6
CONTINUOUS
62
0
10
8400
20
-6600
11
8400
21
-7500
 0
LINE
8
COUCHE_1
 6
CONTINUOUS
62
0
10
8000
20
-6600
11
8000
21
-7500
 0
LINE
8
COUCHE_1
 6
CONTINUOUS
62
0
10
8400
20
-7500
11
8000
21
-7500
 0
LINE
8
COUCHE_1
 6
CONTINUOUS
62
0
10
8400
20
-6600
11
8000
21
-6600
 0
LINE
8
COUCHE_1
 6
CONTINUOUS
62
0
10
8400
20
-7500
11
8400
21
-8400
 0
LINE
8
COUCHE_1
 6
CONTINUOUS
62
0
10
8000
20
-7500
11
8000
21
-8400
 0
LINE
8
COUCHE_1
 6
CONTINUOUS
62
0
10
8400
20
-8400
11
8000
21
-8400
 0
LINE
8
COUCHE_1
 6
CONTINUOUS
62
0
10
8400
20
-7500
11
8000
21
-7500
 0
LINE
8
COUCHE_1
 6
CONTINUOUS
62
0
10
8400
20
-8400
11
8400
21
-9300
 0
LINE
8
COUCHE_1
 6
CONTINUOUS
62
0
10
8000
20
-8400
11
8000
21
-9300
 0
LINE
8
COUCHE_1
 6
CONTINUOUS
62
0
10
8400
20
-9300
11
8000
21
-9300
 0
LINE
8
COUCHE_1
 6
CONTINUOUS
62
0
10
8400
20
-8400
11
8000
21
-8400
 0
LINE
8
COUCHE_1
 6
CONTINUOUS
62
0
10
8400
20
-9300
11
8400
21
-10200
 0
LINE
8
COUCHE_1
 6
CONTINUOUS
62
0
10
8000
20
-9300
11
8000
21
-10200
 0
LINE
8
COUCHE_1
 6
CONTINUOUS
62
0
10
8400
20
-10200
11
8000
21
-10200
 0
LINE
8
COUCHE_1
 6
CONTINUOUS
62
0
10
8400
20
-9300
11
8000
21
-9300
 0
LINE
8
COUCHE_1
 6
CONTINUOUS
62
0
10
14600
20
-6600
11
14600
21
-7500
 0
LINE
8
COUCHE_1
 6
CONTINUOUS
62
0
10
14200
20
-6600
11
14200
21
-7500
 0
LINE
8
COUCHE_1
 6
CONTINUOUS
62
0
10
14600
20
-7500
11
14200
21
-7500
 0
LINE
8
COUCHE_1
 6
CONTINUOUS
62
0
10
14600
20
-6600
11
14200
21
-6600
 0
LINE
8
COUCHE_1
 6
CONTINUOUS
62
0
10
14600
20
-7500
11
14600
21
-8400
 0
LINE
8
COUCHE_1
 6
CONTINUOUS
62
0
10
14200
20
-7500
11
14200
21
-8400
 0
LINE
8
COUCHE_1
 6
CONTINUOUS
62
0
10
14600
20
-8400
11
14200
21
-8400
 0
LINE
8
COUCHE_1
 6
CONTINUOUS
62
0
10
14600
20
-7500
11
14200
21
-7500
 0
LINE
8
COUCHE_1
 6
CONTINUOUS
62
0
10
14600
20
-8400
11
14600
21
-9300
 0
LINE
8
COUCHE_1
 6
CONTINUOUS
62
0
10
14200
20
-8400
11
14200
21
-9300
 0
LINE
8
COUCHE_1
 6
CONTINUOUS
62
0
10
14600
20
-9300
11
14200
21
-9300
 0
LINE
8
COUCHE_1
 6
CONTINUOUS
62
0
10
14600
20
-8400
11
14200
21
-8400
 0
LINE
8
COUCHE_1
 6
CONTINUOUS
62
0
10
14600
20
-9300
11
14600
21
-10200
 0
LINE
8
COUCHE_1
 6
CONTINUOUS
62
0
10
14200
20
-9300
11
14200
21
-10200
 0
LINE
8
COUCHE_1
 6
CONTINUOUS
62
0
10
14600
20
-10200
11
14200
21
-10200
 0
LINE
8
COUCHE_1
 6
CONTINUOUS
62
0
10
14600
20
-9300
11
14200
21
-9300
0
POLYLINE
5
2B
 8
0
62
1
 6
CONTINUOUS
 66
 1
 10
0
 20
0
 30
0
 70
1
 0
VERTEX
 5
33
  8
0
 10
16600
 20
-18000
 0
VERTEX
 5
33
  8
0
 10
16900
 20
-17800
 0
VERTEX
 5
33
  8
0
 10
16800
 20
-18000
 0
VERTEX
 5
33
  8
0
 10
16900
 20
-18200
 0
SEQEND
 5
37
 8
0
 0
LINE
8
COUCHE_1
 6
CONTINUOUS
62
1
10
16400
20
-18000
11
16600
21
-18000
0
TEXT
8
COUCHE_1
 10
16900
 20
-18000
 11
16900
 21
-18000
 40
150
 1
CO_O_24
50
0
 72
0
 73
2
62
1
0
POLYLINE
5
2B
 8
0
62
1
 6
CONTINUOUS
 66
 1
 10
0
 20
0
 30
0
 70
1
 0
VERTEX
 5
33
  8
0
 10
16600
 20
-18800
 0
VERTEX
 5
33
  8
0
 10
16900
 20
-18600
 0
VERTEX
 5
33
  8
0
 10
16800
 20
-18800
 0
VERTEX
 5
33
  8
0
 10
16900
 20
-19000
 0
SEQEND
 5
37
 8
0
 0
LINE
8
COUCHE_1
 6
CONTINUOUS
62
1
10
16400
20
-18800
11
16600
21
-18800
0
TEXT
8
COUCHE_1
 10
16900
 20
-18800
 11
16900
 21
-18800
 40
150
 1
CO_O_0
50
0
 72
0
 73
2
62
1
0
POLYLINE
5
2B
 8
0
62
1
 6
CONTINUOUS
 66
 1
 10
0
 20
0
 30
0
 70
1
 0
VERTEX
 5
33
  8
0
 10
35000
 20
-16000
 0
VERTEX
 5
33
  8
0
 10
34900
 20
-16200
 0
VERTEX
 5
33
  8
0
 10
35200
 20
-16000
 0
VERTEX
 5
33
  8
0
 10
34900
 20
-15800
 0
SEQEND
 5
37
 8
0
 0
LINE
8
COUCHE_1
 6
CONTINUOUS
62
1
10
34800
20
-16000
11
35000
21
-16000
0
TEXT
8
COUCHE_1
 10
35300
 20
-16000
 11
35300
 21
-16000
 40
150
 1
Ka7+
50
0
 72
0
 73
2
62
1
0
POLYLINE
5
2B
 8
0
62
1
 6
CONTINUOUS
 66
 1
 10
0
 20
0
 30
0
 70
1
 0
VERTEX
 5
33
  8
0
 10
35000
 20
-15200
 0
VERTEX
 5
33
  8
0
 10
34900
 20
-15400
 0
VERTEX
 5
33
  8
0
 10
35200
 20
-15200
 0
VERTEX
 5
33
  8
0
 10
34900
 20
-15000
 0
SEQEND
 5
37
 8
0
 0
LINE
8
COUCHE_1
 6
CONTINUOUS
62
1
10
34800
20
-15200
11
35000
21
-15200
0
TEXT
8
COUCHE_1
 10
35300
 20
-15200
 11
35300
 21
-15200
 40
150
 1
Ka6+
50
0
 72
0
 73
2
62
1
0
POLYLINE
5
2B
 8
0
62
1
 6
CONTINUOUS
 66
 1
 10
0
 20
0
 30
0
 70
1
 0
VERTEX
 5
33
  8
0
 10
35000
 20
-14200
 0
VERTEX
 5
33
  8
0
 10
34900
 20
-14400
 0
VERTEX
 5
33
  8
0
 10
35200
 20
-14200
 0
VERTEX
 5
33
  8
0
 10
34900
 20
-14000
 0
SEQEND
 5
37
 8
0
 0
LINE
8
COUCHE_1
 6
CONTINUOUS
62
1
10
34800
20
-14200
11
35000
21
-14200
0
TEXT
8
COUCHE_1
 10
35300
 20
-14200
 11
35300
 21
-14200
 40
150
 1
Ka5+
50
0
 72
0
 73
2
62
1
0
POLYLINE
5
2B
 8
0
62
1
 6
CONTINUOUS
 66
 1
 10
0
 20
0
 30
0
 70
1
 0
VERTEX
 5
33
  8
0
 10
35000
 20
-13400
 0
VERTEX
 5
33
  8
0
 10
34900
 20
-13600
 0
VERTEX
 5
33
  8
0
 10
35200
 20
-13400
 0
VERTEX
 5
33
  8
0
 10
34900
 20
-13200
 0
SEQEND
 5
37
 8
0
 0
LINE
8
COUCHE_1
 6
CONTINUOUS
62
1
10
34800
20
-13400
11
35000
21
-13400
0
TEXT
8
COUCHE_1
 10
35300
 20
-13400
 11
35300
 21
-13400
 40
150
 1
Ka4+
50
0
 72
0
 73
2
62
1
0
POLYLINE
5
2B
 8
0
62
1
 6
CONTINUOUS
 66
 1
 10
0
 20
0
 30
0
 70
1
 0
VERTEX
 5
33
  8
0
 10
41200
 20
-12400
 0
VERTEX
 5
33
  8
0
 10
41100
 20
-12600
 0
VERTEX
 5
33
  8
0
 10
41400
 20
-12400
 0
VERTEX
 5
33
  8
0
 10
41100
 20
-12200
 0
SEQEND
 5
37
 8
0
 0
LINE
8
COUCHE_1
 6
CONTINUOUS
62
1
10
41000
20
-12400
11
41200
21
-12400
0
TEXT
8
COUCHE_1
 10
41500
 20
-12400
 11
41500
 21
-12400
 40
150
 1
Ka3+
50
0
 72
0
 73
2
62
1
0
POLYLINE
5
2B
 8
0
62
1
 6
CONTINUOUS
 66
 1
 10
0
 20
0
 30
0
 70
1
 0
VERTEX
 5
33
  8
0
 10
35200
 20
-11600
 0
VERTEX
 5
33
  8
0
 10
35100
 20
-11800
 0
VERTEX
 5
33
  8
0
 10
35400
 20
-11600
 0
VERTEX
 5
33
  8
0
 10
35100
 20
-11400
 0
SEQEND
 5
37
 8
0
 0
LINE
8
COUCHE_1
 6
CONTINUOUS
62
1
10
35000
20
-11600
11
35200
21
-11600
0
TEXT
8
COUCHE_1
 10
35500
 20
-11600
 11
35500
 21
-11600
 40
150
 1
Ka2+
50
0
 72
0
 73
2
62
1
0
POLYLINE
5
2B
 8
0
62
1
 6
CONTINUOUS
 66
 1
 10
0
 20
0
 30
0
 70
1
 0
VERTEX
 5
33
  8
0
 10
35200
 20
-10800
 0
VERTEX
 5
33
  8
0
 10
35100
 20
-11000
 0
VERTEX
 5
33
  8
0
 10
35400
 20
-10800
 0
VERTEX
 5
33
  8
0
 10
35100
 20
-10600
 0
SEQEND
 5
37
 8
0
 0
LINE
8
COUCHE_1
 6
CONTINUOUS
62
1
10
35000
20
-10800
11
35200
21
-10800
0
TEXT
8
COUCHE_1
 10
35500
 20
-10800
 11
35500
 21
-10800
 40
150
 1
Ka1+
50
0
 72
0
 73
2
62
1
0
POLYLINE
5
2B
 8
0
62
1
 6
CONTINUOUS
 66
 1
 10
0
 20
0
 30
0
 70
1
 0
VERTEX
 5
33
  8
0
 10
15400
 20
-9800
 0
VERTEX
 5
33
  8
0
 10
15300
 20
-10000
 0
VERTEX
 5
33
  8
0
 10
15600
 20
-9800
 0
VERTEX
 5
33
  8
0
 10
15300
 20
-9600
 0
SEQEND
 5
37
 8
0
 0
LINE
8
COUCHE_1
 6
CONTINUOUS
62
1
10
15200
20
-9800
11
15400
21
-9800
0
TEXT
8
COUCHE_1
 10
15700
 20
-9800
 11
15700
 21
-9800
 40
150
 1
24-T1-P
50
0
 72
0
 73
2
62
1
0
POLYLINE
5
2B
 8
0
62
1
 6
CONTINUOUS
 66
 1
 10
0
 20
0
 30
0
 70
1
 0
VERTEX
 5
33
  8
0
 10
19200
 20
-20000
 0
VERTEX
 5
33
  8
0
 10
18900
 20
-19800
 0
VERTEX
 5
33
  8
0
 10
19000
 20
-20000
 0
VERTEX
 5
33
  8
0
 10
18900
 20
-20200
 0
SEQEND
 5
37
 8
0
 0
LINE
8
COUCHE_1
 6
CONTINUOUS
62
1
10
19400
20
-20000
11
19200
21
-20000
0
TEXT
8
COUCHE_1
 10
18900
 20
-20000
 11
18900
 21
-20000
 40
150
 1
CO_O3_0
50
0
 72
2
 73
2
62
1
0
POLYLINE
5
2B
 8
0
62
1
 6
CONTINUOUS
 66
 1
 10
0
 20
0
 30
0
 70
1
 0
VERTEX
 5
33
  8
0
 10
37600
 20
-8400
 0
VERTEX
 5
33
  8
0
 10
37400
 20
-8100
 0
VERTEX
 5
33
  8
0
 10
37600
 20
-8200
 0
VERTEX
 5
33
  8
0
 10
37800
 20
-8100
 0
SEQEND
 5
37
 8
0
 0
LINE
8
COUCHE_1
 6
CONTINUOUS
62
1
10
37600
20
-8600
11
37600
21
-8400
0
TEXT
8
COUCHE_1
 10
37600
 20
-8100
 11
37600
 21
-8100
 40
150
 1
OP_BK_24
50
0
 72
1
 73
1
62
1
0
POLYLINE
5
2B
 8
0
62
1
 6
CONTINUOUS
 66
 1
 10
0
 20
0
 30
0
 70
1
 0
VERTEX
 5
33
  8
0
 10
40800
 20
-8400
 0
VERTEX
 5
33
  8
0
 10
40600
 20
-8100
 0
VERTEX
 5
33
  8
0
 10
40800
 20
-8200
 0
VERTEX
 5
33
  8
0
 10
41000
 20
-8100
 0
SEQEND
 5
37
 8
0
 0
LINE
8
COUCHE_1
 6
CONTINUOUS
62
1
10
40800
20
-8600
11
40800
21
-8400
0
TEXT
8
COUCHE_1
 10
40800
 20
-8100
 11
40800
 21
-8100
 40
150
 1
OP_BK_0
50
0
 72
1
 73
1
62
1
0
POLYLINE
5
2B
 8
0
62
1
 6
CONTINUOUS
 66
 1
 10
0
 20
0
 30
0
 70
1
 0
VERTEX
 5
33
  8
0
 10
36600
 20
-13800
 0
VERTEX
 5
33
  8
0
 10
36500
 20
-14000
 0
VERTEX
 5
33
  8
0
 10
36800
 20
-13800
 0
VERTEX
 5
33
  8
0
 10
36500
 20
-13600
 0
SEQEND
 5
37
 8
0
 0
LINE
8
COUCHE_1
 6
CONTINUOUS
62
1
10
36400
20
-13800
11
36600
21
-13800
0
TEXT
8
COUCHE_1
 10
36900
 20
-13800
 11
36900
 21
-13800
 40
150
 1
Ec_24
50
0
 72
0
 73
2
62
1
0
POLYLINE
5
2B
 8
0
62
1
 6
CONTINUOUS
 66
 1
 10
0
 20
0
 30
0
 70
1
 0
VERTEX
 5
33
  8
0
 10
19800
 20
-25800
 0
VERTEX
 5
33
  8
0
 10
19900
 20
-26000
 0
VERTEX
 5
33
  8
0
 10
19600
 20
-25800
 0
VERTEX
 5
33
  8
0
 10
19900
 20
-25600
 0
SEQEND
 5
37
 8
0
 0
LINE
8
COUCHE_1
 6
CONTINUOUS
62
1
10
20000
20
-25800
11
19800
21
-25800
0
TEXT
8
COUCHE_1
 10
19600
 20
-25800
 11
19600
 21
-25800
 40
150
 1
Cam1
50
0
 72
2
 73
2
62
1
0
POLYLINE
5
2B
 8
0
62
1
 6
CONTINUOUS
 66
 1
 10
0
 20
0
 30
0
 70
1
 0
VERTEX
 5
33
  8
0
 10
25800
 20
-25800
 0
VERTEX
 5
33
  8
0
 10
25900
 20
-26000
 0
VERTEX
 5
33
  8
0
 10
25600
 20
-25800
 0
VERTEX
 5
33
  8
0
 10
25900
 20
-25600
 0
SEQEND
 5
37
 8
0
 0
LINE
8
COUCHE_1
 6
CONTINUOUS
62
1
10
26000
20
-25800
11
25800
21
-25800
0
TEXT
8
COUCHE_1
 10
25600
 20
-25800
 11
25600
 21
-25800
 40
150
 1
Cam2
50
0
 72
2
 73
2
62
1
0
POLYLINE
5
2B
 8
0
62
1
 6
CONTINUOUS
 66
 1
 10
0
 20
0
 30
0
 70
1
 0
VERTEX
 5
33
  8
0
 10
31600
 20
-25800
 0
VERTEX
 5
33
  8
0
 10
31700
 20
-26000
 0
VERTEX
 5
33
  8
0
 10
31400
 20
-25800
 0
VERTEX
 5
33
  8
0
 10
31700
 20
-25600
 0
SEQEND
 5
37
 8
0
 0
LINE
8
COUCHE_1
 6
CONTINUOUS
62
1
10
31800
20
-25800
11
31600
21
-25800
0
TEXT
8
COUCHE_1
 10
31400
 20
-25800
 11
31400
 21
-25800
 40
150
 1
Cam3
50
0
 72
2
 73
2
62
1
0
TEXT
8
COUCHE_1
 10
8000
 20
-19200
 11
8000
 21
-19200
 40
150
 1
J0.9
50
90
 72
0
 73
3
62
0
0
TEXT
8
COUCHE_1
 10
8000
 20
-18400
 11
8000
 21
-18400
 40
150
 1
J0.10
50
90
 72
0
 73
3
62
0
0
TEXT
8
COUCHE_1
 10
14200
 20
-19200
 11
14200
 21
-19200
 40
150
 1
J0.11
50
90
 72
0
 73
3
62
0
0
TEXT
8
COUCHE_1
 10
14200
 20
-18400
 11
14200
 21
-18400
 40
150
 1
J0.12
50
90
 72
0
 73
3
62
0
0
TEXT
8
COUCHE_1
 10
8000
 20
-17200
 11
8000
 21
-17200
 40
150
 1
J5.1
50
90
 72
0
 73
3
62
0
0
TEXT
8
COUCHE_1
 10
8000
 20
-16400
 11
8000
 21
-16400
 40
150
 1
J5.2
50
90
 72
0
 73
3
62
0
0
TEXT
8
COUCHE_1
 10
8000
 20
-15400
 11
8000
 21
-15400
 40
150
 1
J5.3
50
90
 72
0
 73
3
62
0
0
TEXT
8
COUCHE_1
 10
8000
 20
-14400
 11
8000
 21
-14400
 40
150
 1
J5.4
50
90
 72
0
 73
3
62
0
0
TEXT
8
COUCHE_1
 10
8000
 20
-13600
 11
8000
 21
-13600
 40
150
 1
J5.5
50
90
 72
0
 73
3
62
0
0
TEXT
8
COUCHE_1
 10
8000
 20
-12600
 11
8000
 21
-12600
 40
150
 1
J5.6
50
90
 72
0
 73
3
62
0
0
TEXT
8
COUCHE_1
 10
8000
 20
-11800
 11
8000
 21
-11800
 40
150
 1
J5.7
50
90
 72
0
 73
3
62
0
0
TEXT
8
COUCHE_1
 10
8000
 20
-11000
 11
8000
 21
-11000
 40
150
 1
J5.8
50
90
 72
0
 73
3
62
0
0
TEXT
8
COUCHE_1
 10
14200
 20
-17200
 11
14200
 21
-17200
 40
150
 1
J6.1
50
90
 72
0
 73
3
62
0
0
TEXT
8
COUCHE_1
 10
14200
 20
-16400
 11
14200
 21
-16400
 40
150
 1
J6.2
50
90
 72
0
 73
3
62
0
0
TEXT
8
COUCHE_1
 10
14200
 20
-15400
 11
14200
 21
-15400
 40
150
 1
J6.3
50
90
 72
0
 73
3
62
0
0
TEXT
8
COUCHE_1
 10
14200
 20
-14400
 11
14200
 21
-14400
 40
150
 1
J6.4
50
90
 72
0
 73
3
62
0
0
TEXT
8
COUCHE_1
 10
14200
 20
-13600
 11
14200
 21
-13600
 40
150
 1
J6.5
50
90
 72
0
 73
3
62
0
0
TEXT
8
COUCHE_1
 10
14200
 20
-12600
 11
14200
 21
-12600
 40
150
 1
J6.6
50
90
 72
0
 73
3
62
0
0
TEXT
8
COUCHE_1
 10
14200
 20
-11800
 11
14200
 21
-11800
 40
150
 1
J6.7
50
90
 72
0
 73
3
62
0
0
TEXT
8
COUCHE_1
 10
14200
 20
-11000
 11
14200
 21
-11000
 40
150
 1
J6.8
50
90
 72
0
 73
3
62
0
0
TEXT
8
COUCHE_1
 10
3800
 20
-17800
 11
3800
 21
-17800
 40
150
 1
NC
50
0
 72
0
 73
3
62
0
0
TEXT
8
COUCHE_1
 10
4000
 20
-14800
 11
4000
 21
-14800
 40
150
 1
Sortir Vérin bridage
50
0
 72
0
 73
3
62
0
0
TEXT
8
COUCHE_1
 10
4000
 20
-12200
 11
4000
 21
-12200
 40
150
 1
Sortir Vérin porte
50
0
 72
0
 73
3
62
0
0
TEXT
8
COUCHE_1
 10
4000
 20
-13000
 11
4000
 21
-13000
 40
150
 1
Entrer Vérin porte
50
0
 72
0
 73
3
62
0
0
TEXT
8
COUCHE_1
 10
4000
 20
-13800
 11
4000
 21
-13800
 40
150
 1
Sortir Vérin marquage
50
0
 72
0
 73
3
62
0
0
TEXT
8
COUCHE_1
 10
4000
 20
-10200
 11
4000
 21
-10200
 40
150
 1
Sortir Vérin Chariot
50
0
 72
0
 73
3
62
0
0
TEXT
8
COUCHE_1
 10
4000
 20
-11200
 11
4000
 21
-11200
 40
150
 1
Entrer Vérin Chariot
50
0
 72
0
 73
3
62
0
0
TEXT
8
COUCHE_1
 10
4000
 20
-15600
 11
4000
 21
-15600
 40
150
 1
Entrer Vérin bridage
50
0
 72
0
 73
3
62
0
0
TEXT
8
COUCHE_1
 10
4000
 20
-16600
 11
4000
 21
-16600
 40
150
 1
Eclairage Led
50
0
 72
0
 73
3
62
0
0
TEXT
8
COUCHE_1
 10
22600
 20
-10200
 11
22600
 21
-10200
 40
200
 1
Vers distributeurs vérins
50
0
 72
0
 73
3
62
0
0
TEXT
8
COUCHE_1
 10
20800
 20
-22600
 11
20800
 21
-22600
 40
150
 1
CAM1
50
0
 72
0
 73
3
62
0
0
TEXT
8
COUCHE_1
 10
26800
 20
-22600
 11
26800
 21
-22600
 40
150
 1
CAM2
50
0
 72
0
 73
3
62
0
0
TEXT
8
COUCHE_1
 10
32600
 20
-22600
 11
32600
 21
-22600
 40
150
 1
CAM3
50
0
 72
0
 73
3
62
0
0
TEXT
8
COUCHE_1
 10
20000
 20
-25600
 11
20000
 21
-25600
 40
100
 1
USB
50
0
 72
0
 73
3
62
0
0
TEXT
8
COUCHE_1
 10
26000
 20
-25600
 11
26000
 21
-25600
 40
100
 1
USB
50
0
 72
0
 73
3
62
0
0
TEXT
8
COUCHE_1
 10
31800
 20
-25600
 11
31800
 21
-25600
 40
100
 1
USB
50
0
 72
0
 73
3
62
0
0
TEXT
8
COUCHE_1
 10
34400
 20
-8600
 11
34400
 21
-8600
 40
200
 1
Vers CPV10
50
0
 72
0
 73
3
62
0
0
TEXT
8
COUCHE_1
 10
8000
 20
-10000
 11
8000
 21
-10000
 40
150
 1
J5.9
50
90
 72
0
 73
3
62
0
0
TEXT
8
COUCHE_1
 10
7200
 20
-20200
 11
7200
 21
-20200
 40
200
 1
CO_O1
50
0
 72
0
 73
3
62
0
0
TEXT
8
COUCHE_1
 10
4000
 20
-9400
 11
4000
 21
-9400
 40
150
 1
Activer Terminal 1
50
0
 72
0
 73
3
62
0
0
TEXT
8
COUCHE_1
 10
6200
 20
-6800
 11
6200
 21
-6800
 40
200
 1
Réserve
50
0
 72
0
 73
3
62
0
0
TEXT
8
COUCHE_1
 10
21400
 20
-26000
 11
21400
 21
-26000
 40
150
 1
Microsoft HD500
50
0
 72
0
 73
3
62
0
0
TEXT
8
COUCHE_1
 10
27400
 20
-26000
 11
27400
 21
-26000
 40
150
 1
Microsoft HD500
50
0
 72
0
 73
3
62
0
0
TEXT
8
COUCHE_1
 10
33400
 20
-26000
 11
33400
 21
-26000
 40
150
 1
Microsoft HD500
50
0
 72
0
 73
3
62
0
0
TEXT
8
COUCHE_1
 10
37800
 20
-13400
 11
37800
 21
-13400
 40
100
 1
G2R1A24DC
50
0
 72
0
 73
3
62
0
0
TEXT
8
COUCHE_1
 10
39000
 20
-10000
 11
39000
 21
-10000
 40
200
 1
K1
50
0
 72
0
 73
3
62
0
0
TEXT
8
COUCHE_1
 10
14200
 20
-10000
 11
14200
 21
-10000
 40
150
 1
J6.9
50
90
 72
0
 73
3
62
0
0
TEXT
8
COUCHE_1
 10
14200
 20
-9200
 11
14200
 21
-9200
 40
150
 1
J6.10
50
90
 72
0
 73
3
62
0
0
TEXT
8
COUCHE_1
 10
14200
 20
-8200
 11
14200
 21
-8200
 40
150
 1
J6.11
50
90
 72
0
 73
3
62
0
0
TEXT
8
COUCHE_1
 10
14200
 20
-7400
 11
14200
 21
-7400
 40
150
 1
J6.12
50
90
 72
0
 73
3
62
0
0
TEXT
8
COUCHE_1
 10
8000
 20
-7400
 11
8000
 21
-7400
 40
150
 1
J5.12
50
90
 72
0
 73
3
62
0
0
TEXT
8
COUCHE_1
 10
8000
 20
-8200
 11
8000
 21
-8200
 40
150
 1
J5.11
50
90
 72
0
 73
3
62
0
0
TEXT
8
COUCHE_1
 10
8000
 20
-9200
 11
8000
 21
-9200
 40
150
 1
J5.10
50
90
 72
0
 73
3
62
0
0
TEXT
8
COUCHE_1
 10
17800
 20
-9600
 11
17800
 21
-9600
 40
200
 1
Vers PILZ
50
0
 72
0
 73
3
62
0
 0
LINE
8
COUCHE_1
 6
CONTINUOUS
62
0
10
1200
20
-1200
11
41600
21
-1200
 0
LINE
8
COUCHE_1
 6
CONTINUOUS
62
0
10
1600
20
-1600
11
41600
21
-1600
 0
LINE
8
COUCHE_1
 6
CONTINUOUS
62
0
10
3200
20
-1200
11
3200
21
-1600
 0
LINE
8
COUCHE_1
 6
CONTINUOUS
62
0
10
4800
20
-1200
11
4800
21
-1600
 0
LINE
8
COUCHE_1
 6
CONTINUOUS
62
0
10
6400
20
-1200
11
6400
21
-1600
 0
LINE
8
COUCHE_1
 6
CONTINUOUS
62
0
10
8000
20
-1200
11
8000
21
-1600
 0
LINE
8
COUCHE_1
 6
CONTINUOUS
62
0
10
9600
20
-1200
11
9600
21
-1600
 0
LINE
8
COUCHE_1
 6
CONTINUOUS
62
0
10
11200
20
-1200
11
11200
21
-1600
 0
LINE
8
COUCHE_1
 6
CONTINUOUS
62
0
10
12800
20
-1200
11
12800
21
-1600
 0
LINE
8
COUCHE_1
 6
CONTINUOUS
62
0
10
14400
20
-1200
11
14400
21
-1600
 0
LINE
8
COUCHE_1
 6
CONTINUOUS
62
0
10
16000
20
-1200
11
16000
21
-1600
 0
LINE
8
COUCHE_1
 6
CONTINUOUS
62
0
10
17600
20
-1200
11
17600
21
-1600
 0
LINE
8
COUCHE_1
 6
CONTINUOUS
62
0
10
19200
20
-1200
11
19200
21
-1600
 0
LINE
8
COUCHE_1
 6
CONTINUOUS
62
0
10
20800
20
-1200
11
20800
21
-1600
 0
LINE
8
COUCHE_1
 6
CONTINUOUS
62
0
10
22400
20
-1200
11
22400
21
-1600
 0
LINE
8
COUCHE_1
 6
CONTINUOUS
62
0
10
24000
20
-1200
11
24000
21
-1600
 0
LINE
8
COUCHE_1
 6
CONTINUOUS
62
0
10
25600
20
-1200
11
25600
21
-1600
 0
LINE
8
COUCHE_1
 6
CONTINUOUS
62
0
10
27200
20
-1200
11
27200
21
-1600
 0
LINE
8
COUCHE_1
 6
CONTINUOUS
62
0
10
28800
20
-1200
11
28800
21
-1600
 0
LINE
8
COUCHE_1
 6
CONTINUOUS
62
0
10
30400
20
-1200
11
30400
21
-1600
 0
LINE
8
COUCHE_1
 6
CONTINUOUS
62
0
10
32000
20
-1200
11
32000
21
-1600
 0
LINE
8
COUCHE_1
 6
CONTINUOUS
62
0
10
33600
20
-1200
11
33600
21
-1600
 0
LINE
8
COUCHE_1
 6
CONTINUOUS
62
0
10
35200
20
-1200
11
35200
21
-1600
 0
LINE
8
COUCHE_1
 6
CONTINUOUS
62
0
10
36800
20
-1200
11
36800
21
-1600
 0
LINE
8
COUCHE_1
 6
CONTINUOUS
62
0
10
38400
20
-1200
11
38400
21
-1600
 0
LINE
8
COUCHE_1
 6
CONTINUOUS
62
0
10
40000
20
-1200
11
40000
21
-1600
 0
LINE
8
COUCHE_1
 6
CONTINUOUS
62
0
10
41600
20
-1200
11
41600
21
-1600
 0
LINE
8
COUCHE_1
 6
CONTINUOUS
62
0
10
41600
20
-1200
11
41600
21
-1600
 0
LINE
8
COUCHE_1
 6
CONTINUOUS
62
0
10
1200
20
-29300
11
41600
21
-29300
0
TEXT
8
COUCHE_1
 10
2400
 20
-1250
 11
2400
 21
-1250
 40
150
 1
A
50
0
 72
1
 73
3
62
0
0
TEXT
8
COUCHE_1
 10
4000
 20
-1250
 11
4000
 21
-1250
 40
150
 1
B
50
0
 72
1
 73
3
62
0
0
TEXT
8
COUCHE_1
 10
5600
 20
-1250
 11
5600
 21
-1250
 40
150
 1
C
50
0
 72
1
 73
3
62
0
0
TEXT
8
COUCHE_1
 10
7200
 20
-1250
 11
7200
 21
-1250
 40
150
 1
D
50
0
 72
1
 73
3
62
0
0
TEXT
8
COUCHE_1
 10
8800
 20
-1250
 11
8800
 21
-1250
 40
150
 1
E
50
0
 72
1
 73
3
62
0
0
TEXT
8
COUCHE_1
 10
10400
 20
-1250
 11
10400
 21
-1250
 40
150
 1
F
50
0
 72
1
 73
3
62
0
0
TEXT
8
COUCHE_1
 10
12000
 20
-1250
 11
12000
 21
-1250
 40
150
 1
G
50
0
 72
1
 73
3
62
0
0
TEXT
8
COUCHE_1
 10
13600
 20
-1250
 11
13600
 21
-1250
 40
150
 1
H
50
0
 72
1
 73
3
62
0
0
TEXT
8
COUCHE_1
 10
15200
 20
-1250
 11
15200
 21
-1250
 40
150
 1
I
50
0
 72
1
 73
3
62
0
0
TEXT
8
COUCHE_1
 10
16800
 20
-1250
 11
16800
 21
-1250
 40
150
 1
J
50
0
 72
1
 73
3
62
0
0
TEXT
8
COUCHE_1
 10
18400
 20
-1250
 11
18400
 21
-1250
 40
150
 1
K
50
0
 72
1
 73
3
62
0
0
TEXT
8
COUCHE_1
 10
20000
 20
-1250
 11
20000
 21
-1250
 40
150
 1
L
50
0
 72
1
 73
3
62
0
0
TEXT
8
COUCHE_1
 10
21600
 20
-1250
 11
21600
 21
-1250
 40
150
 1
M
50
0
 72
1
 73
3
62
0
0
TEXT
8
COUCHE_1
 10
23200
 20
-1250
 11
23200
 21
-1250
 40
150
 1
N
50
0
 72
1
 73
3
62
0
0
TEXT
8
COUCHE_1
 10
24800
 20
-1250
 11
24800
 21
-1250
 40
150
 1
O
50
0
 72
1
 73
3
62
0
0
TEXT
8
COUCHE_1
 10
26400
 20
-1250
 11
26400
 21
-1250
 40
150
 1
P
50
0
 72
1
 73
3
62
0
0
TEXT
8
COUCHE_1
 10
28000
 20
-1250
 11
28000
 21
-1250
 40
150
 1
Q
50
0
 72
1
 73
3
62
0
0
TEXT
8
COUCHE_1
 10
29600
 20
-1250
 11
29600
 21
-1250
 40
150
 1
R
50
0
 72
1
 73
3
62
0
0
TEXT
8
COUCHE_1
 10
31200
 20
-1250
 11
31200
 21
-1250
 40
150
 1
S
50
0
 72
1
 73
3
62
0
0
TEXT
8
COUCHE_1
 10
32800
 20
-1250
 11
32800
 21
-1250
 40
150
 1
T
50
0
 72
1
 73
3
62
0
0
TEXT
8
COUCHE_1
 10
34400
 20
-1250
 11
34400
 21
-1250
 40
150
 1
U
50
0
 72
1
 73
3
62
0
0
TEXT
8
COUCHE_1
 10
36000
 20
-1250
 11
36000
 21
-1250
 40
150
 1
V
50
0
 72
1
 73
3
62
0
0
TEXT
8
COUCHE_1
 10
37600
 20
-1250
 11
37600
 21
-1250
 40
150
 1
W
50
0
 72
1
 73
3
62
0
0
TEXT
8
COUCHE_1
 10
39200
 20
-1250
 11
39200
 21
-1250
 40
150
 1
X
50
0
 72
1
 73
3
62
0
0
TEXT
8
COUCHE_1
 10
40800
 20
-1250
 11
40800
 21
-1250
 40
150
 1
Y
50
0
 72
1
 73
3
62
0
 0
LINE
8
COUCHE_1
 6
CONTINUOUS
62
0
10
1200
20
-1200
11
1200
21
-29300
 0
LINE
8
COUCHE_1
 6
CONTINUOUS
62
0
10
1600
20
-1600
11
1600
21
-29300
 0
LINE
8
COUCHE_1
 6
CONTINUOUS
62
0
10
1200
20
-3200
11
1600
21
-3200
 0
LINE
8
COUCHE_1
 6
CONTINUOUS
62
0
10
1200
20
-4800
11
1600
21
-4800
 0
LINE
8
COUCHE_1
 6
CONTINUOUS
62
0
10
1200
20
-6400
11
1600
21
-6400
 0
LINE
8
COUCHE_1
 6
CONTINUOUS
62
0
10
1200
20
-8000
11
1600
21
-8000
 0
LINE
8
COUCHE_1
 6
CONTINUOUS
62
0
10
1200
20
-9600
11
1600
21
-9600
 0
LINE
8
COUCHE_1
 6
CONTINUOUS
62
0
10
1200
20
-11200
11
1600
21
-11200
 0
LINE
8
COUCHE_1
 6
CONTINUOUS
62
0
10
1200
20
-12800
11
1600
21
-12800
 0
LINE
8
COUCHE_1
 6
CONTINUOUS
62
0
10
1200
20
-14400
11
1600
21
-14400
 0
LINE
8
COUCHE_1
 6
CONTINUOUS
62
0
10
1200
20
-16000
11
1600
21
-16000
 0
LINE
8
COUCHE_1
 6
CONTINUOUS
62
0
10
1200
20
-17600
11
1600
21
-17600
 0
LINE
8
COUCHE_1
 6
CONTINUOUS
62
0
10
1200
20
-19200
11
1600
21
-19200
 0
LINE
8
COUCHE_1
 6
CONTINUOUS
62
0
10
1200
20
-20800
11
1600
21
-20800
 0
LINE
8
COUCHE_1
 6
CONTINUOUS
62
0
10
1200
20
-22400
11
1600
21
-22400
 0
LINE
8
COUCHE_1
 6
CONTINUOUS
62
0
10
1200
20
-24000
11
1600
21
-24000
 0
LINE
8
COUCHE_1
 6
CONTINUOUS
62
0
10
1200
20
-25600
11
1600
21
-25600
 0
LINE
8
COUCHE_1
 6
CONTINUOUS
62
0
10
1200
20
-27200
11
1600
21
-27200
 0
LINE
8
COUCHE_1
 6
CONTINUOUS
62
0
10
1200
20
-28800
11
1600
21
-28800
 0
LINE
8
COUCHE_1
 6
CONTINUOUS
62
0
10
1200
20
-29300
11
1600
21
-29300
 0
LINE
8
COUCHE_1
 6
CONTINUOUS
62
0
10
41600
20
-1200
11
41600
21
-29300
0
TEXT
8
COUCHE_1
 10
1400
 20
-2250
 11
1400
 21
-2250
 40
150
 1
1
50
0
 72
1
 73
3
62
0
0
TEXT
8
COUCHE_1
 10
1400
 20
-3850
 11
1400
 21
-3850
 40
150
 1
2
50
0
 72
1
 73
3
62
0
0
TEXT
8
COUCHE_1
 10
1400
 20
-5450
 11
1400
 21
-5450
 40
150
 1
3
50
0
 72
1
 73
3
62
0
0
TEXT
8
COUCHE_1
 10
1400
 20
-7050
 11
1400
 21
-7050
 40
150
 1
4
50
0
 72
1
 73
3
62
0
0
TEXT
8
COUCHE_1
 10
1400
 20
-8650
 11
1400
 21
-8650
 40
150
 1
5
50
0
 72
1
 73
3
62
0
0
TEXT
8
COUCHE_1
 10
1400
 20
-10250
 11
1400
 21
-10250
 40
150
 1
6
50
0
 72
1
 73
3
62
0
0
TEXT
8
COUCHE_1
 10
1400
 20
-11850
 11
1400
 21
-11850
 40
150
 1
7
50
0
 72
1
 73
3
62
0
0
TEXT
8
COUCHE_1
 10
1400
 20
-13450
 11
1400
 21
-13450
 40
150
 1
8
50
0
 72
1
 73
3
62
0
0
TEXT
8
COUCHE_1
 10
1400
 20
-15050
 11
1400
 21
-15050
 40
150
 1
9
50
0
 72
1
 73
3
62
0
0
TEXT
8
COUCHE_1
 10
1400
 20
-16650
 11
1400
 21
-16650
 40
150
 1
10
50
0
 72
1
 73
3
62
0
0
TEXT
8
COUCHE_1
 10
1400
 20
-18250
 11
1400
 21
-18250
 40
150
 1
11
50
0
 72
1
 73
3
62
0
0
TEXT
8
COUCHE_1
 10
1400
 20
-19850
 11
1400
 21
-19850
 40
150
 1
12
50
0
 72
1
 73
3
62
0
0
TEXT
8
COUCHE_1
 10
1400
 20
-21450
 11
1400
 21
-21450
 40
150
 1
13
50
0
 72
1
 73
3
62
0
0
TEXT
8
COUCHE_1
 10
1400
 20
-23050
 11
1400
 21
-23050
 40
150
 1
14
50
0
 72
1
 73
3
62
0
0
TEXT
8
COUCHE_1
 10
1400
 20
-24650
 11
1400
 21
-24650
 40
150
 1
15
50
0
 72
1
 73
3
62
0
0
TEXT
8
COUCHE_1
 10
1400
 20
-26250
 11
1400
 21
-26250
 40
150
 1
16
50
0
 72
1
 73
3
62
0
0
TEXT
8
COUCHE_1
 10
1400
 20
-27850
 11
1400
 21
-27850
 40
150
 1
17
50
0
 72
1
 73
3
62
0
 0
LINE
8
COUCHE_1
 6
CONTINUOUS
62
0
10
1600
20
-27800
11
41600
21
-27800
 0
LINE
8
COUCHE_1
 6
CONTINUOUS
62
0
10
39900
20
-29200
11
39900
21
-27800
 0
LINE
8
COUCHE_1
 6
CONTINUOUS
62
0
10
39900
20
-29200
11
41500
21
-27800
 0
LINE
8
COUCHE_1
 6
CONTINUOUS
62
0
10
11000
20
-29200
11
11000
21
-27800
 0
LINE
8
COUCHE_1
 6
CONTINUOUS
62
0
10
34200
20
-29200
11
34200
21
-27800
0
TEXT
8
COUCHE_1
 10
40800
 20
-28700
 11
40800
 21
-28700
 40
200
 1
14
50
0
 72
0
 73
3
62
0
0
TEXT
8
COUCHE_1
 10
40100
 20
-28000
 11
40100
 21
-28000
 40
200
 1
07
50
0
 72
0
 73
3
62
0
0
TEXT
8
COUCHE_1
 10
37700
 20
-28000
 11
37700
 21
-28000
 40
150
 1
14/02/2018
50
0
 72
2
 73
3
62
0
0
TEXT
8
COUCHE_1
 10
37700
 20
-28400
 11
37700
 21
-28400
 40
150
 1
1/2
50
0
 72
2
 73
3
62
0
0
TEXT
8
COUCHE_1
 10
20800
 20
-28600
 11
20800
 21
-28600
 40
250
 1
Adapatation 5V_24V
50
0
 72
0
 73
3
62
0
0
TEXT
8
COUCHE_1
 10
34400
 20
-28000
 11
34400
 21
-28000
 40
150
 1
Dessiné le :
50
0
 72
0
 73
3
62
0
0
TEXT
8
COUCHE_1
 10
34400
 20
-28400
 11
34400
 21
-28400
 40
150
 1
Echelle :
50
0
 72
0
 73
3
62
0
0
TEXT
8
COUCHE_1
 10
37700
 20
-28800
 11
37700
 21
-28800
 40
150
 1
DN_DM
50
0
 72
2
 73
3
62
0
0
TEXT
8
COUCHE_1
 10
34400
 20
-28800
 11
34400
 21
-28800
 40
150
 1
Par : 
50
0
 72
0
 73
3
62
0
0
TEXT
8
COUCHE_1
 10
18800
 20
-28000
 11
18800
 21
-28000
 40
300
 1
Carte Optocoupleur Outputs PC
50
0
 72
0
 73
3
62
0
 0
ENDSEC
 0
EOF
