 0
SECTION
 2
HEADER
 9
$ACADVER
 1
AC1009
 9
$CLAYER
 8
Couche_1
 9
$HANDLING
70
 0
9
$INSBASE
10
0
20
0
30
0
9
$THICKNESS
40
0
9
$UCSNAME
2
UCS_F1
9
$WORLDVIEW
70
1
9
$LTSCALE
40
15
0
ENDSEC
0
SECTION
2
TABLES
 0
TABLE
 2
APPID
70
 1
 0
APPID
 2
TASK
 70
 0
 0
ENDTAB
 0
TABLE
  2
LTYPE
 70
 2
 0
LTYPE
  2
CONTINUOUS
 70
 0
 3
Solid line
 72
65
 73
0
 40
0
  0
LTYPE
  2
ACAD_ISO03W100
 70
 0
 3
CAO pointillé long
 72
65
 73
2
 40
30
 49
12
 49
-18.0
  0
LTYPE
 2
ACAD_ISO07W100
 70
0
 3
CAO pointillé fin
 72
65
 73
2
 40
3
 49
0
 49
-3.0
  0
LTYPE
  2
ACAD_ISO02W100
 70
0
 3
CAO pointillé extra long
 72
65
 73
2
 40
15
 49
12
 49
-3
  0
LTYPE
  2
AXES
 70
0
 3
CAO Axe
 72
65
 73
4
 40
50.8
 49
31.75
 49
-6.35
 49
6.35
 49
-6.35
  0
ENDTAB
0
TABLE
2
LAYER
 70
20
 0
LAYER
 2
COUCHE_1
 70
 64
 62
 7
 6
CONTINUOUS
 0
ENDTAB
 0
TABLE
 2
UCS
 70
 6
 0
UCS
 2
UCSF1
 70
 64
 10
0.000000
 20
0.000000
 30
20.000000
 11
1.000000
 21
0.000000
 31
0.000000
 12
0.000000
 22
-1.000000
 32
0.000000
 0
ENDTAB
 0
ENDSEC
 0
SECTION
 2
ENTITIES
 0
CIRCLE
8
COUCHE_1
62
0
 6
CONTINUOUS
10
22700
20
-23100
40
3100
 0
CIRCLE
8
COUCHE_1
62
0
 6
CONTINUOUS
10
33700
20
-23300
40
3100
0
POLYLINE
5
2B
 8
0
62
1
 6
ACAD_ISO07W100
 66
 1
 10
0
 20
0
 30
0
 70
1
 0
VERTEX
 5
33
  8
0
 10
10000
 20
-5400
 0
VERTEX
 5
33
  8
0
 10
13200
 20
-5400
 0
VERTEX
 5
33
  8
0
 10
13200
 20
-8600
 0
VERTEX
 5
33
  8
0
 10
10000
 20
-8600
 0
SEQEND
 5
37
 8
0
0
POLYLINE
5
2B
 8
0
62
0
 6
ACAD_ISO07W100
 66
 1
 10
0
 20
0
 30
0
 70
1
 0
VERTEX
 5
33
  8
0
 10
4800
 20
-3200
 0
VERTEX
 5
33
  8
0
 10
8000
 20
-3200
 0
VERTEX
 5
33
  8
0
 10
8000
 20
-6200
 0
VERTEX
 5
33
  8
0
 10
4800
 20
-6200
 0
SEQEND
 5
37
 8
0
0
POLYLINE
5
2B
 8
0
62
0
 6
CONTINUOUS
 66
 1
 10
0
 20
0
 30
0
 70
1
 0
VERTEX
 5
33
  8
0
 10
8400
 20
-18600
 0
VERTEX
 5
33
  8
0
 10
12800
 20
-18600
 0
VERTEX
 5
33
  8
0
 10
12800
 20
-22200
 0
VERTEX
 5
33
  8
0
 10
8400
 20
-22200
 0
SEQEND
 5
37
 8
0
 0
ARC
8
COUCHE_1
62
5
10
20600
20
-22800
40
200
50
90
51
270
 0
ARC
8
COUCHE_1
62
5
10
20600
20
-22400
40
200
50
90
51
270
 0
ARC
8
COUCHE_1
62
5
10
20600
20
-22000
40
200
50
90
51
270
0
POLYLINE
5
2B
 8
0
62
1
 6
CONTINUOUS
 66
 1
 10
0
 20
0
 30
0
 70
1
 0
VERTEX
 5
33
  8
0
 10
20550
 20
-23350
 0
VERTEX
 5
33
  8
0
 10
20650
 20
-23350
 0
VERTEX
 5
33
  8
0
 10
20650
 20
-23450
 0
VERTEX
 5
33
  8
0
 10
20550
 20
-23450
 0
SEQEND
 5
37
 8
0
 0
LINE
8
COUCHE_1
 6
CONTINUOUS
62
1
10
20600
20
-23400
11
20600
21
-23000
0
POLYLINE
5
2B
 8
0
62
1
 6
CONTINUOUS
 66
 1
 10
0
 20
0
 30
0
 70
1
 0
VERTEX
 5
33
  8
0
 10
20550
 20
-21350
 0
VERTEX
 5
33
  8
0
 10
20650
 20
-21350
 0
VERTEX
 5
33
  8
0
 10
20650
 20
-21450
 0
VERTEX
 5
33
  8
0
 10
20550
 20
-21450
 0
SEQEND
 5
37
 8
0
 0
LINE
8
COUCHE_1
 6
CONTINUOUS
62
1
10
20600
20
-21400
11
20600
21
-21800
0
TEXT
8
COUCHE_1
 10
20900
 20
-22900
 11
20900
 21
-22900
 40
150
 1
L1
50
0
 72
0
 73
3
62
0
 0
ARC
8
COUCHE_1
62
5
10
23600
20
-25200
40
200
50
180
51
360
 0
ARC
8
COUCHE_1
62
5
10
23200
20
-25200
40
200
50
180
51
360
 0
ARC
8
COUCHE_1
62
5
10
22800
20
-25200
40
200
50
180
51
360
0
POLYLINE
5
2B
 8
0
62
1
 6
CONTINUOUS
 66
 1
 10
0
 20
0
 30
0
 70
1
 0
VERTEX
 5
33
  8
0
 10
24150
 20
-25150
 0
VERTEX
 5
33
  8
0
 10
24250
 20
-25150
 0
VERTEX
 5
33
  8
0
 10
24250
 20
-25250
 0
VERTEX
 5
33
  8
0
 10
24150
 20
-25250
 0
SEQEND
 5
37
 8
0
 0
LINE
8
COUCHE_1
 6
CONTINUOUS
62
1
10
24200
20
-25200
11
23800
21
-25200
0
POLYLINE
5
2B
 8
0
62
1
 6
CONTINUOUS
 66
 1
 10
0
 20
0
 30
0
 70
1
 0
VERTEX
 5
33
  8
0
 10
22150
 20
-25150
 0
VERTEX
 5
33
  8
0
 10
22250
 20
-25150
 0
VERTEX
 5
33
  8
0
 10
22250
 20
-25250
 0
VERTEX
 5
33
  8
0
 10
22150
 20
-25250
 0
SEQEND
 5
37
 8
0
 0
LINE
8
COUCHE_1
 6
CONTINUOUS
62
1
10
22200
20
-25200
11
22600
21
-25200
0
TEXT
8
COUCHE_1
 10
23700
 20
-24900
 11
23700
 21
-24900
 40
150
 1
L2
50
0
 72
0
 73
3
62
0
 0
ARC
8
COUCHE_1
62
5
10
31600
20
-23000
40
200
50
90
51
270
 0
ARC
8
COUCHE_1
62
5
10
31600
20
-22600
40
200
50
90
51
270
 0
ARC
8
COUCHE_1
62
5
10
31600
20
-22200
40
200
50
90
51
270
0
POLYLINE
5
2B
 8
0
62
1
 6
CONTINUOUS
 66
 1
 10
0
 20
0
 30
0
 70
1
 0
VERTEX
 5
33
  8
0
 10
31550
 20
-23550
 0
VERTEX
 5
33
  8
0
 10
31650
 20
-23550
 0
VERTEX
 5
33
  8
0
 10
31650
 20
-23650
 0
VERTEX
 5
33
  8
0
 10
31550
 20
-23650
 0
SEQEND
 5
37
 8
0
 0
LINE
8
COUCHE_1
 6
CONTINUOUS
62
1
10
31600
20
-23600
11
31600
21
-23200
0
POLYLINE
5
2B
 8
0
62
1
 6
CONTINUOUS
 66
 1
 10
0
 20
0
 30
0
 70
1
 0
VERTEX
 5
33
  8
0
 10
31550
 20
-21550
 0
VERTEX
 5
33
  8
0
 10
31650
 20
-21550
 0
VERTEX
 5
33
  8
0
 10
31650
 20
-21650
 0
VERTEX
 5
33
  8
0
 10
31550
 20
-21650
 0
SEQEND
 5
37
 8
0
 0
LINE
8
COUCHE_1
 6
CONTINUOUS
62
1
10
31600
20
-21600
11
31600
21
-22000
0
TEXT
8
COUCHE_1
 10
31900
 20
-23100
 11
31900
 21
-23100
 40
150
 1
L3
50
0
 72
0
 73
3
62
0
 0
ARC
8
COUCHE_1
62
5
10
34600
20
-25400
40
200
50
180
51
360
 0
ARC
8
COUCHE_1
62
5
10
34200
20
-25400
40
200
50
180
51
360
 0
ARC
8
COUCHE_1
62
5
10
33800
20
-25400
40
200
50
180
51
360
0
POLYLINE
5
2B
 8
0
62
1
 6
CONTINUOUS
 66
 1
 10
0
 20
0
 30
0
 70
1
 0
VERTEX
 5
33
  8
0
 10
35150
 20
-25350
 0
VERTEX
 5
33
  8
0
 10
35250
 20
-25350
 0
VERTEX
 5
33
  8
0
 10
35250
 20
-25450
 0
VERTEX
 5
33
  8
0
 10
35150
 20
-25450
 0
SEQEND
 5
37
 8
0
 0
LINE
8
COUCHE_1
 6
CONTINUOUS
62
1
10
35200
20
-25400
11
34800
21
-25400
0
POLYLINE
5
2B
 8
0
62
1
 6
CONTINUOUS
 66
 1
 10
0
 20
0
 30
0
 70
1
 0
VERTEX
 5
33
  8
0
 10
33150
 20
-25350
 0
VERTEX
 5
33
  8
0
 10
33250
 20
-25350
 0
VERTEX
 5
33
  8
0
 10
33250
 20
-25450
 0
VERTEX
 5
33
  8
0
 10
33150
 20
-25450
 0
SEQEND
 5
37
 8
0
 0
LINE
8
COUCHE_1
 6
CONTINUOUS
62
1
10
33200
20
-25400
11
33600
21
-25400
0
TEXT
8
COUCHE_1
 10
34700
 20
-25100
 11
34700
 21
-25100
 40
150
 1
L4
50
0
 72
0
 73
3
62
0
 0
LINE
8
COUCHE_1
 6
CONTINUOUS
62
5
10
12000
20
-7400
11
11800
21
-6600
 0
LINE
8
COUCHE_1
 6
CONTINUOUS
62
5
10
11000
20
-7000
11
11200
21
-7000
 0
LINE
8
COUCHE_1
 6
CONTINUOUS
62
5
10
11400
20
-7000
11
11600
21
-7000
 0
LINE
8
COUCHE_1
 6
CONTINUOUS
62
5
10
11800
20
-7000
11
12000
21
-7000
 0
LINE
8
COUCHE_1
 6
CONTINUOUS
62
5
10
12200
20
-7000
11
12400
21
-7000
 0
LINE
8
COUCHE_1
 6
CONTINUOUS
62
5
10
12600
20
-7000
11
12800
21
-7000
 0
LINE
8
COUCHE_1
 6
CONTINUOUS
62
5
10
12800
20
-7400
11
12600
21
-6600
 0
ARC
8
COUCHE_1
62
5
10
10800
20
-6800
40
200
50
270
51
90
 0
ARC
8
COUCHE_1
62
5
10
10800
20
-7200
40
200
50
270
51
90
0
POLYLINE
5
2B
 8
0
62
1
 6
CONTINUOUS
 66
 1
 10
0
 20
0
 30
0
 70
1
 0
VERTEX
 5
33
  8
0
 10
10750
 20
-5750
 0
VERTEX
 5
33
  8
0
 10
10850
 20
-5750
 0
VERTEX
 5
33
  8
0
 10
10850
 20
-5850
 0
VERTEX
 5
33
  8
0
 10
10750
 20
-5850
 0
SEQEND
 5
37
 8
0
 0
LINE
8
COUCHE_1
 6
CONTINUOUS
62
1
10
10800
20
-5800
11
10800
21
-6600
0
POLYLINE
5
2B
 8
0
62
1
 6
CONTINUOUS
 66
 1
 10
0
 20
0
 30
0
 70
1
 0
VERTEX
 5
33
  8
0
 10
10750
 20
-8150
 0
VERTEX
 5
33
  8
0
 10
10850
 20
-8150
 0
VERTEX
 5
33
  8
0
 10
10850
 20
-8250
 0
VERTEX
 5
33
  8
0
 10
10750
 20
-8250
 0
SEQEND
 5
37
 8
0
 0
LINE
8
COUCHE_1
 6
CONTINUOUS
62
1
10
10800
20
-8200
11
10800
21
-7400
0
POLYLINE
5
2B
 8
0
62
1
 6
CONTINUOUS
 66
 1
 10
0
 20
0
 30
0
 70
1
 0
VERTEX
 5
33
  8
0
 10
11950
 20
-5750
 0
VERTEX
 5
33
  8
0
 10
12050
 20
-5750
 0
VERTEX
 5
33
  8
0
 10
12050
 20
-5850
 0
VERTEX
 5
33
  8
0
 10
11950
 20
-5850
 0
SEQEND
 5
37
 8
0
 0
LINE
8
COUCHE_1
 6
CONTINUOUS
62
1
10
12000
20
-5800
11
12000
21
-6600
0
POLYLINE
5
2B
 8
0
62
1
 6
CONTINUOUS
 66
 1
 10
0
 20
0
 30
0
 70
1
 0
VERTEX
 5
33
  8
0
 10
11950
 20
-8150
 0
VERTEX
 5
33
  8
0
 10
12050
 20
-8150
 0
VERTEX
 5
33
  8
0
 10
12050
 20
-8250
 0
VERTEX
 5
33
  8
0
 10
11950
 20
-8250
 0
SEQEND
 5
37
 8
0
 0
LINE
8
COUCHE_1
 6
CONTINUOUS
62
1
10
12000
20
-8200
11
12000
21
-7400
0
POLYLINE
5
2B
 8
0
62
1
 6
CONTINUOUS
 66
 1
 10
0
 20
0
 30
0
 70
1
 0
VERTEX
 5
33
  8
0
 10
12750
 20
-5750
 0
VERTEX
 5
33
  8
0
 10
12850
 20
-5750
 0
VERTEX
 5
33
  8
0
 10
12850
 20
-5850
 0
VERTEX
 5
33
  8
0
 10
12750
 20
-5850
 0
SEQEND
 5
37
 8
0
 0
LINE
8
COUCHE_1
 6
CONTINUOUS
62
1
10
12800
20
-5800
11
12800
21
-6600
0
POLYLINE
5
2B
 8
0
62
1
 6
CONTINUOUS
 66
 1
 10
0
 20
0
 30
0
 70
1
 0
VERTEX
 5
33
  8
0
 10
12750
 20
-8150
 0
VERTEX
 5
33
  8
0
 10
12850
 20
-8150
 0
VERTEX
 5
33
  8
0
 10
12850
 20
-8250
 0
VERTEX
 5
33
  8
0
 10
12750
 20
-8250
 0
SEQEND
 5
37
 8
0
 0
LINE
8
COUCHE_1
 6
CONTINUOUS
62
1
10
12800
20
-8200
11
12800
21
-7400
 0
LINE
8
COUCHE_1
 6
CONTINUOUS
62
5
10
6000
20
-5000
11
6800
21
-4800
 0
LINE
8
COUCHE_1
 6
CONTINUOUS
62
5
10
6400
20
-4000
11
6400
21
-4200
 0
LINE
8
COUCHE_1
 6
CONTINUOUS
62
5
10
6400
20
-4400
11
6400
21
-4600
 0
LINE
8
COUCHE_1
 6
CONTINUOUS
62
5
10
6400
20
-4800
11
6400
21
-5000
 0
ARC
8
COUCHE_1
62
5
10
6600
20
-3800
40
200
50
180
51
360
 0
ARC
8
COUCHE_1
62
5
10
6200
20
-3800
40
200
50
180
51
360
0
POLYLINE
5
2B
 8
0
62
1
 6
CONTINUOUS
 66
 1
 10
0
 20
0
 30
0
 70
1
 0
VERTEX
 5
33
  8
0
 10
7550
 20
-3750
 0
VERTEX
 5
33
  8
0
 10
7650
 20
-3750
 0
VERTEX
 5
33
  8
0
 10
7650
 20
-3850
 0
VERTEX
 5
33
  8
0
 10
7550
 20
-3850
 0
SEQEND
 5
37
 8
0
 0
LINE
8
COUCHE_1
 6
CONTINUOUS
62
1
10
7600
20
-3800
11
6800
21
-3800
0
POLYLINE
5
2B
 8
0
62
1
 6
CONTINUOUS
 66
 1
 10
0
 20
0
 30
0
 70
1
 0
VERTEX
 5
33
  8
0
 10
5150
 20
-3750
 0
VERTEX
 5
33
  8
0
 10
5250
 20
-3750
 0
VERTEX
 5
33
  8
0
 10
5250
 20
-3850
 0
VERTEX
 5
33
  8
0
 10
5150
 20
-3850
 0
SEQEND
 5
37
 8
0
 0
LINE
8
COUCHE_1
 6
CONTINUOUS
62
1
10
5200
20
-3800
11
6000
21
-3800
0
POLYLINE
5
2B
 8
0
62
1
 6
CONTINUOUS
 66
 1
 10
0
 20
0
 30
0
 70
1
 0
VERTEX
 5
33
  8
0
 10
7550
 20
-4950
 0
VERTEX
 5
33
  8
0
 10
7650
 20
-4950
 0
VERTEX
 5
33
  8
0
 10
7650
 20
-5050
 0
VERTEX
 5
33
  8
0
 10
7550
 20
-5050
 0
SEQEND
 5
37
 8
0
 0
LINE
8
COUCHE_1
 6
CONTINUOUS
62
1
10
7600
20
-5000
11
6800
21
-5000
0
POLYLINE
5
2B
 8
0
62
1
 6
CONTINUOUS
 66
 1
 10
0
 20
0
 30
0
 70
1
 0
VERTEX
 5
33
  8
0
 10
5150
 20
-4950
 0
VERTEX
 5
33
  8
0
 10
5250
 20
-4950
 0
VERTEX
 5
33
  8
0
 10
5250
 20
-5050
 0
VERTEX
 5
33
  8
0
 10
5150
 20
-5050
 0
SEQEND
 5
37
 8
0
 0
LINE
8
COUCHE_1
 6
CONTINUOUS
62
1
10
5200
20
-5000
11
6000
21
-5000
 0
LINE
8
COUCHE_1
 6
CONTINUOUS
62
0
10
20600
20
-21400
11
20600
21
-21200
 0
LINE
8
COUCHE_1
 6
CONTINUOUS
62
0
10
20600
20
-21200
11
25600
21
-21200
 0
LINE
8
COUCHE_1
 6
CONTINUOUS
62
0
10
25600
20
-21200
11
25600
21
-16200
 0
LINE
8
COUCHE_1
 6
CONTINUOUS
62
0
10
25400
20
-16200
11
25600
21
-16200
 0
LINE
8
COUCHE_1
 6
CONTINUOUS
62
0
10
20600
20
-23600
11
20600
21
-23400
 0
LINE
8
COUCHE_1
 6
CONTINUOUS
62
0
10
20600
20
-23600
11
26000
21
-23600
 0
LINE
8
COUCHE_1
 6
CONTINUOUS
62
0
10
26000
20
-23600
11
26000
21
-15800
 0
LINE
8
COUCHE_1
 6
CONTINUOUS
62
0
10
25400
20
-15800
11
26000
21
-15800
 0
LINE
8
COUCHE_1
 6
CONTINUOUS
62
0
10
24200
20
-25200
11
26800
21
-25200
 0
LINE
8
COUCHE_1
 6
CONTINUOUS
62
0
10
26800
20
-25200
11
26800
21
-15400
 0
LINE
8
COUCHE_1
 6
CONTINUOUS
62
0
10
25400
20
-15400
11
26800
21
-15400
 0
LINE
8
COUCHE_1
 6
CONTINUOUS
62
0
10
21800
20
-25200
11
22200
21
-25200
 0
LINE
8
COUCHE_1
 6
CONTINUOUS
62
0
10
21800
20
-25200
11
21800
21
-24400
 0
LINE
8
COUCHE_1
 6
CONTINUOUS
62
0
10
21800
20
-24400
11
26400
21
-24400
 0
LINE
8
COUCHE_1
 6
CONTINUOUS
62
0
10
26400
20
-24400
11
26400
21
-15600
 0
LINE
8
COUCHE_1
 6
CONTINUOUS
62
0
10
25400
20
-15600
11
26400
21
-15600
 0
LINE
8
COUCHE_1
 6
CONTINUOUS
62
0
10
31600
20
-21600
11
31600
21
-21400
 0
LINE
8
COUCHE_1
 6
CONTINUOUS
62
0
10
31600
20
-21400
11
36600
21
-21400
 0
LINE
8
COUCHE_1
 6
CONTINUOUS
62
0
10
36600
20
-21400
11
36600
21
-16000
 0
LINE
8
COUCHE_1
 6
CONTINUOUS
62
0
10
36400
20
-16000
11
36600
21
-16000
 0
LINE
8
COUCHE_1
 6
CONTINUOUS
62
0
10
31600
20
-23800
11
31600
21
-23600
 0
LINE
8
COUCHE_1
 6
CONTINUOUS
62
0
10
31600
20
-23800
11
37000
21
-23800
 0
LINE
8
COUCHE_1
 6
CONTINUOUS
62
0
10
37000
20
-23800
11
37000
21
-15600
 0
LINE
8
COUCHE_1
 6
CONTINUOUS
62
0
10
36400
20
-15600
11
37000
21
-15600
 0
LINE
8
COUCHE_1
 6
CONTINUOUS
62
0
10
35200
20
-25400
11
37800
21
-25400
 0
LINE
8
COUCHE_1
 6
CONTINUOUS
62
0
10
37800
20
-25400
11
37800
21
-15200
 0
LINE
8
COUCHE_1
 6
CONTINUOUS
62
0
10
36400
20
-15200
11
37800
21
-15200
 0
LINE
8
COUCHE_1
 6
CONTINUOUS
62
0
10
32800
20
-25400
11
33200
21
-25400
 0
LINE
8
COUCHE_1
 6
CONTINUOUS
62
0
10
32800
20
-25400
11
32800
21
-24600
 0
LINE
8
COUCHE_1
 6
CONTINUOUS
62
0
10
32800
20
-24600
11
37400
21
-24600
 0
LINE
8
COUCHE_1
 6
CONTINUOUS
62
0
10
37400
20
-24600
11
37400
21
-15400
 0
LINE
8
COUCHE_1
 6
CONTINUOUS
62
0
10
36400
20
-15400
11
37400
21
-15400
 0
LINE
8
COUCHE_1
 6
CONTINUOUS
62
0
10
12800
20
-21200
11
17600
21
-21200
 0
LINE
8
COUCHE_1
 6
CONTINUOUS
62
0
10
17600
20
-21200
11
17600
21
-8600
 0
LINE
8
COUCHE_1
 6
CONTINUOUS
62
0
10
17600
20
-8600
11
25800
21
-8600
 0
LINE
8
COUCHE_1
 6
CONTINUOUS
62
0
10
25800
20
-12200
11
25800
21
-8600
 0
LINE
8
COUCHE_1
 6
CONTINUOUS
62
0
10
25400
20
-12200
11
25800
21
-12200
 0
LINE
8
COUCHE_1
 6
CONTINUOUS
62
0
10
16800
20
-20800
11
16800
21
-7800
 0
LINE
8
COUCHE_1
 6
CONTINUOUS
62
0
10
16800
20
-7800
11
26200
21
-7800
 0
LINE
8
COUCHE_1
 6
CONTINUOUS
62
0
10
26200
20
-7800
11
26200
21
-12400
 0
LINE
8
COUCHE_1
 6
CONTINUOUS
62
0
10
26200
20
-12400
11
25400
21
-12400
 0
LINE
8
COUCHE_1
 6
CONTINUOUS
62
0
10
12800
20
-20800
11
16800
21
-20800
 0
LINE
8
COUCHE_1
 6
CONTINUOUS
62
0
10
12800
20
-20600
11
16400
21
-20600
 0
LINE
8
COUCHE_1
 6
CONTINUOUS
62
0
10
16400
20
-20600
11
16400
21
-7400
 0
LINE
8
COUCHE_1
 6
CONTINUOUS
62
0
10
16400
20
-7400
11
26400
21
-7400
 0
LINE
8
COUCHE_1
 6
CONTINUOUS
62
0
10
26400
20
-14000
11
26400
21
-7400
 0
LINE
8
COUCHE_1
 6
CONTINUOUS
62
0
10
25200
20
-14000
11
26400
21
-14000
 0
LINE
8
COUCHE_1
 6
CONTINUOUS
62
0
10
12800
20
-20200
11
15400
21
-20200
 0
LINE
8
COUCHE_1
 6
CONTINUOUS
62
0
10
15400
20
-20200
11
15400
21
-6400
 0
LINE
8
COUCHE_1
 6
CONTINUOUS
62
0
10
15400
20
-6400
11
37000
21
-6400
 0
LINE
8
COUCHE_1
 6
CONTINUOUS
62
0
10
37000
20
-6400
11
37000
21
-12000
 0
LINE
8
COUCHE_1
 6
CONTINUOUS
62
0
10
36400
20
-12000
11
37000
21
-12000
 0
LINE
8
COUCHE_1
 6
CONTINUOUS
62
0
10
37200
20
-12200
11
37200
21
-5000
 0
LINE
8
COUCHE_1
 6
CONTINUOUS
62
0
10
36400
20
-12200
11
37200
21
-12200
 0
LINE
8
COUCHE_1
 6
CONTINUOUS
62
0
10
12800
20
-19800
11
14000
21
-19800
 0
LINE
8
COUCHE_1
 6
CONTINUOUS
62
0
10
14000
20
-19800
11
14000
21
-4200
 0
LINE
8
COUCHE_1
 6
CONTINUOUS
62
0
10
14000
20
-4200
11
15000
21
-4200
 0
LINE
8
COUCHE_1
 6
CONTINUOUS
62
0
10
15000
20
-4200
11
37400
21
-4200
 0
LINE
8
COUCHE_1
 6
CONTINUOUS
62
0
10
37400
20
-12800
11
37400
21
-4200
 0
LINE
8
COUCHE_1
 6
CONTINUOUS
62
0
10
36400
20
-12800
11
37400
21
-12800
 0
LINE
8
COUCHE_1
 6
CONTINUOUS
62
0
10
36200
20
-12800
11
36400
21
-12800
 0
LINE
8
COUCHE_1
 6
CONTINUOUS
62
0
10
12800
20
-19600
11
13400
21
-19600
 0
LINE
8
COUCHE_1
 6
CONTINUOUS
62
0
10
13400
20
-19600
11
13400
21
-3400
 0
LINE
8
COUCHE_1
 6
CONTINUOUS
62
0
10
13400
20
-3400
11
14800
21
-3400
 0
LINE
8
COUCHE_1
 6
CONTINUOUS
62
0
10
14800
20
-3400
11
37600
21
-3400
 0
LINE
8
COUCHE_1
 6
CONTINUOUS
62
0
10
37600
20
-8400
11
37600
21
-3400
 0
LINE
8
COUCHE_1
 6
CONTINUOUS
62
0
10
37600
20
-13800
11
37600
21
-8400
 0
LINE
8
COUCHE_1
 6
CONTINUOUS
62
0
10
36400
20
-13800
11
37600
21
-13800
 0
LINE
8
COUCHE_1
 6
CONTINUOUS
62
0
10
25400
20
-15000
11
27600
21
-15000
 0
LINE
8
COUCHE_1
 6
CONTINUOUS
62
0
10
27600
20
-18200
11
27600
21
-15000
 0
LINE
8
COUCHE_1
 6
CONTINUOUS
62
0
10
27600
20
-18400
11
27600
21
-18200
 0
LINE
8
COUCHE_1
 6
CONTINUOUS
62
0
10
25400
20
-14800
11
28800
21
-14800
 0
LINE
8
COUCHE_1
 6
CONTINUOUS
62
0
10
28800
20
-18400
11
28800
21
-14800
 0
LINE
8
COUCHE_1
 6
CONTINUOUS
62
0
10
36400
20
-15000
11
38600
21
-15000
 0
LINE
8
COUCHE_1
 6
CONTINUOUS
62
0
10
38600
20
-18400
11
38600
21
-15000
 0
LINE
8
COUCHE_1
 6
CONTINUOUS
62
0
10
36400
20
-14600
11
39800
21
-14600
 0
LINE
8
COUCHE_1
 6
CONTINUOUS
62
0
10
39800
20
-18400
11
39800
21
-14600
 0
LINE
8
COUCHE_1
 6
CONTINUOUS
62
0
10
8400
20
-19200
11
7400
21
-19200
 0
LINE
8
COUCHE_1
 6
CONTINUOUS
62
0
10
12800
20
-20000
11
14600
21
-20000
 0
LINE
8
COUCHE_1
 6
CONTINUOUS
62
0
10
12800
20
-21000
11
13200
21
-21000
 0
LINE
8
COUCHE_1
 6
CONTINUOUS
62
0
10
14800
20
-5000
11
37200
21
-5000
 0
LINE
8
COUCHE_1
 6
CONTINUOUS
62
0
10
14600
20
-20000
11
14800
21
-20000
 0
LINE
8
COUCHE_1
 6
CONTINUOUS
62
0
10
13200
20
-21000
11
15600
21
-21000
 0
LINE
8
COUCHE_1
 6
CONTINUOUS
62
0
10
14800
20
-20000
11
14800
21
-10600
 0
LINE
8
COUCHE_1
 6
CONTINUOUS
62
0
10
14800
20
-10600
11
14800
21
-10400
 0
LINE
8
COUCHE_1
 6
CONTINUOUS
62
0
10
14800
20
-10400
11
14800
21
-10200
 0
LINE
8
COUCHE_1
 6
CONTINUOUS
62
0
10
12000
20
-10200
11
14800
21
-10200
 0
LINE
8
COUCHE_1
 6
CONTINUOUS
62
0
10
12000
20
-10200
11
12000
21
-8200
 0
LINE
8
COUCHE_1
 6
CONTINUOUS
62
0
10
15600
20
-21000
11
16000
21
-21000
 0
LINE
8
COUCHE_1
 6
CONTINUOUS
62
0
10
16000
20
-21000
11
16000
21
-9800
 0
LINE
8
COUCHE_1
 6
CONTINUOUS
62
0
10
12800
20
-9800
11
16000
21
-9800
 0
LINE
8
COUCHE_1
 6
CONTINUOUS
62
0
10
12800
20
-9800
11
12800
21
-8200
 0
LINE
8
COUCHE_1
 6
CONTINUOUS
62
0
10
12800
20
-5800
11
12800
21
-5600
 0
LINE
8
COUCHE_1
 6
CONTINUOUS
62
0
10
12800
20
-5600
11
14800
21
-5600
 0
LINE
8
COUCHE_1
 6
CONTINUOUS
62
0
10
12000
20
-5800
11
12000
21
-5000
 0
LINE
8
COUCHE_1
 6
CONTINUOUS
62
0
10
12000
20
-5000
11
14800
21
-5000
 0
LINE
8
COUCHE_1
 6
CONTINUOUS
62
0
10
10800
20
-5800
11
10800
21
-5000
 0
LINE
8
COUCHE_1
 6
CONTINUOUS
62
0
10
10800
20
-5000
11
7600
21
-5000
 0
LINE
8
COUCHE_1
 6
CONTINUOUS
62
0
10
10800
20
-9000
11
10800
21
-8200
 0
LINE
8
COUCHE_1
 6
CONTINUOUS
62
0
10
14800
20
-5600
11
27200
21
-5600
 0
LINE
8
COUCHE_1
 6
CONTINUOUS
62
0
10
27200
20
-13000
11
27200
21
-5600
 0
LINE
8
COUCHE_1
 6
CONTINUOUS
62
0
10
25200
20
-13000
11
27200
21
-13000
 0
LINE
8
COUCHE_1
 6
CONTINUOUS
62
0
10
25200
20
-13000
11
25400
21
-13000
 0
LINE
8
COUCHE_1
 6
CONTINUOUS
62
0
10
25400
20
-12000
11
25600
21
-12000
 0
LINE
8
COUCHE_1
 6
CONTINUOUS
62
0
10
25600
20
-13600
11
25600
21
-12000
 0
LINE
8
COUCHE_1
 6
CONTINUOUS
62
0
10
25400
20
-13600
11
25600
21
-13600
 0
LINE
8
COUCHE_1
 6
CONTINUOUS
62
0
10
36400
20
-11800
11
36600
21
-11800
 0
LINE
8
COUCHE_1
 6
CONTINUOUS
62
0
10
36600
20
-13600
11
36600
21
-11800
 0
LINE
8
COUCHE_1
 6
CONTINUOUS
62
0
10
36400
20
-13600
11
36600
21
-13600
 0
LINE
8
COUCHE_1
 6
CONTINUOUS
62
0
10
36400
20
-13000
11
37000
21
-13000
 0
LINE
8
COUCHE_1
 6
CONTINUOUS
62
0
10
37000
20
-13000
11
37000
21
-12200
 0
LINE
8
COUCHE_1
 6
CONTINUOUS
62
0
10
37200
20
-13000
11
37000
21
-13000
 0
LINE
8
COUCHE_1
 6
CONTINUOUS
62
0
10
37200
20
-13000
11
37200
21
-12800
 0
LINE
8
COUCHE_1
 6
CONTINUOUS
62
0
10
36800
20
-13000
11
36800
21
-12000
 0
LINE
8
COUCHE_1
 6
CONTINUOUS
62
0
10
25400
20
-13200
11
26200
21
-13200
 0
LINE
8
COUCHE_1
 6
CONTINUOUS
62
0
10
26200
20
-13200
11
26200
21
-13000
 0
LINE
8
COUCHE_1
 6
CONTINUOUS
62
0
10
26000
20
-13200
11
26000
21
-12400
 0
LINE
8
COUCHE_1
 6
CONTINUOUS
62
0
10
25800
20
-13200
11
25800
21
-12200
 0
LINE
8
COUCHE_1
 6
CONTINUOUS
62
0
10
10800
20
-10200
11
10800
21
-9000
 0
LINE
8
COUCHE_1
 6
CONTINUOUS
62
0
10
5000
20
-3800
11
5000
21
-2800
 0
LINE
8
COUCHE_1
 6
CONTINUOUS
62
0
10
5000
20
-3800
11
5200
21
-3800
 0
LINE
8
COUCHE_1
 6
CONTINUOUS
62
0
10
7800
20
-2600
11
7800
21
-3000
 0
LINE
8
COUCHE_1
 6
CONTINUOUS
62
0
10
7600
20
-3800
11
7800
21
-3800
 0
LINE
8
COUCHE_1
 6
CONTINUOUS
62
0
10
7800
20
-3800
11
7800
21
-3000
 0
LINE
8
COUCHE_1
 6
CONTINUOUS
62
0
10
5200
20
-5000
11
3800
21
-5000
 0
CIRCLE
8
COUCHE_1
62
5
 6
CONTINUOUS
10
37000
20
-12200
40
40
 0
CIRCLE
8
COUCHE_1
62
5
 6
CONTINUOUS
10
37000
20
-13000
40
40
 0
CIRCLE
8
COUCHE_1
62
5
 6
CONTINUOUS
10
37200
20
-12800
40
40
 0
CIRCLE
8
COUCHE_1
62
5
 6
CONTINUOUS
10
36800
20
-12000
40
40
 0
CIRCLE
8
COUCHE_1
62
5
 6
CONTINUOUS
10
36800
20
-13000
40
40
 0
CIRCLE
8
COUCHE_1
62
5
 6
CONTINUOUS
10
26200
20
-13000
40
40
 0
CIRCLE
8
COUCHE_1
62
5
 6
CONTINUOUS
10
26000
20
-12400
40
40
 0
CIRCLE
8
COUCHE_1
62
5
 6
CONTINUOUS
10
26000
20
-13200
40
40
 0
CIRCLE
8
COUCHE_1
62
5
 6
CONTINUOUS
10
25800
20
-12200
40
40
 0
CIRCLE
8
COUCHE_1
62
5
 6
CONTINUOUS
10
25800
20
-13200
40
40
0
POLYLINE
5
2B
 8
0
62
1
 6
CONTINUOUS
 66
 1
 10
0
 20
0
 30
0
 70
1
 0
VERTEX
 5
33
  8
0
 10
27600
 20
-18600
 0
VERTEX
 5
33
  8
0
 10
27400
 20
-18900
 0
VERTEX
 5
33
  8
0
 10
27600
 20
-18800
 0
VERTEX
 5
33
  8
0
 10
27800
 20
-18900
 0
SEQEND
 5
37
 8
0
 0
LINE
8
COUCHE_1
 6
CONTINUOUS
62
1
10
27600
20
-18400
11
27600
21
-18600
0
TEXT
8
COUCHE_1
 10
27600
 20
-18900
 11
27600
 21
-18900
 40
150
 1
A_24_D1
50
0
 72
1
 73
3
62
1
0
POLYLINE
5
2B
 8
0
62
1
 6
CONTINUOUS
 66
 1
 10
0
 20
0
 30
0
 70
1
 0
VERTEX
 5
33
  8
0
 10
38600
 20
-18600
 0
VERTEX
 5
33
  8
0
 10
38400
 20
-18900
 0
VERTEX
 5
33
  8
0
 10
38600
 20
-18800
 0
VERTEX
 5
33
  8
0
 10
38800
 20
-18900
 0
SEQEND
 5
37
 8
0
 0
LINE
8
COUCHE_1
 6
CONTINUOUS
62
1
10
38600
20
-18400
11
38600
21
-18600
0
TEXT
8
COUCHE_1
 10
38600
 20
-18900
 11
38600
 21
-18900
 40
150
 1
A_24_D2
50
0
 72
1
 73
3
62
1
0
POLYLINE
5
2B
 8
0
62
1
 6
CONTINUOUS
 66
 1
 10
0
 20
0
 30
0
 70
1
 0
VERTEX
 5
33
  8
0
 10
28800
 20
-18600
 0
VERTEX
 5
33
  8
0
 10
28600
 20
-18900
 0
VERTEX
 5
33
  8
0
 10
28800
 20
-18800
 0
VERTEX
 5
33
  8
0
 10
29000
 20
-18900
 0
SEQEND
 5
37
 8
0
 0
LINE
8
COUCHE_1
 6
CONTINUOUS
62
1
10
28800
20
-18400
11
28800
21
-18600
0
TEXT
8
COUCHE_1
 10
28800
 20
-18900
 11
28800
 21
-18900
 40
150
 1
A_0_D1
50
0
 72
1
 73
3
62
1
0
POLYLINE
5
2B
 8
0
62
1
 6
CONTINUOUS
 66
 1
 10
0
 20
0
 30
0
 70
1
 0
VERTEX
 5
33
  8
0
 10
39800
 20
-18600
 0
VERTEX
 5
33
  8
0
 10
39600
 20
-18900
 0
VERTEX
 5
33
  8
0
 10
39800
 20
-18800
 0
VERTEX
 5
33
  8
0
 10
40000
 20
-18900
 0
SEQEND
 5
37
 8
0
 0
LINE
8
COUCHE_1
 6
CONTINUOUS
62
1
10
39800
20
-18400
11
39800
21
-18600
0
TEXT
8
COUCHE_1
 10
39800
 20
-18900
 11
39800
 21
-18900
 40
150
 1
A_0_D2
50
0
 72
1
 73
3
62
1
0
POLYLINE
5
2B
 8
0
62
1
 6
CONTINUOUS
 66
 1
 10
0
 20
0
 30
0
 70
1
 0
VERTEX
 5
33
  8
0
 10
10800
 20
-10400
 0
VERTEX
 5
33
  8
0
 10
10600
 20
-10700
 0
VERTEX
 5
33
  8
0
 10
10800
 20
-10600
 0
VERTEX
 5
33
  8
0
 10
11000
 20
-10700
 0
SEQEND
 5
37
 8
0
 0
LINE
8
COUCHE_1
 6
CONTINUOUS
62
1
10
10800
20
-10200
11
10800
21
-10400
0
TEXT
8
COUCHE_1
 10
10800
 20
-10700
 11
10800
 21
-10700
 40
150
 1
A_0_B4
50
0
 72
1
 73
3
62
1
0
POLYLINE
5
2B
 8
0
62
1
 6
CONTINUOUS
 66
 1
 10
0
 20
0
 30
0
 70
1
 0
VERTEX
 5
33
  8
0
 10
5000
 20
-2600
 0
VERTEX
 5
33
  8
0
 10
4800
 20
-2300
 0
VERTEX
 5
33
  8
0
 10
5000
 20
-2400
 0
VERTEX
 5
33
  8
0
 10
5200
 20
-2300
 0
SEQEND
 5
37
 8
0
 0
LINE
8
COUCHE_1
 6
CONTINUOUS
62
1
10
5000
20
-2800
11
5000
21
-2600
0
TEXT
8
COUCHE_1
 10
5000
 20
-2300
 11
5000
 21
-2300
 40
150
 1
Sh_BK_24
50
0
 72
1
 73
1
62
1
0
POLYLINE
5
2B
 8
0
62
1
 6
CONTINUOUS
 66
 1
 10
0
 20
0
 30
0
 70
1
 0
VERTEX
 5
33
  8
0
 10
7800
 20
-2600
 0
VERTEX
 5
33
  8
0
 10
7600
 20
-2300
 0
VERTEX
 5
33
  8
0
 10
7800
 20
-2400
 0
VERTEX
 5
33
  8
0
 10
8000
 20
-2300
 0
SEQEND
 5
37
 8
0
 0
LINE
8
COUCHE_1
 6
CONTINUOUS
62
1
10
7800
20
-2800
11
7800
21
-2600
0
TEXT
8
COUCHE_1
 10
7800
 20
-2300
 11
7800
 21
-2300
 40
150
 1
Sh_0
50
0
 72
1
 73
1
62
1
0
POLYLINE
5
2B
 8
0
62
1
 6
CONTINUOUS
 66
 1
 10
0
 20
0
 30
0
 70
1
 0
VERTEX
 5
33
  8
0
 10
3600
 20
-5000
 0
VERTEX
 5
33
  8
0
 10
3300
 20
-4800
 0
VERTEX
 5
33
  8
0
 10
3400
 20
-5000
 0
VERTEX
 5
33
  8
0
 10
3300
 20
-5200
 0
SEQEND
 5
37
 8
0
 0
LINE
8
COUCHE_1
 6
CONTINUOUS
62
1
10
3800
20
-5000
11
3600
21
-5000
0
TEXT
8
COUCHE_1
 10
3300
 20
-5000
 11
3300
 21
-5000
 40
150
 1
Sh_24
50
0
 72
2
 73
2
62
1
0
POLYLINE
5
2B
 8
0
62
1
 6
CONTINUOUS
 66
 1
 10
0
 20
0
 30
0
 70
1
 0
VERTEX
 5
33
  8
0
 10
7200
 20
-19200
 0
VERTEX
 5
33
  8
0
 10
7300
 20
-19400
 0
VERTEX
 5
33
  8
0
 10
7000
 20
-19200
 0
VERTEX
 5
33
  8
0
 10
7300
 20
-19000
 0
SEQEND
 5
37
 8
0
 0
LINE
8
COUCHE_1
 6
CONTINUOUS
62
1
10
7400
20
-19200
11
7200
21
-19200
0
TEXT
8
COUCHE_1
 10
7000
 20
-19200
 11
7000
 21
-19200
 40
150
 1
CNC-USB
50
0
 72
2
 73
2
62
1
0
TEXT
8
COUCHE_1
 10
35200
 20
-3000
 11
35200
 21
-3000
 40
150
 1
MLI
50
0
 72
0
 73
3
62
0
0
TEXT
8
COUCHE_1
 10
35000
 20
-3800
 11
35000
 21
-3800
 40
150
 1
Direction
50
0
 72
0
 73
3
62
0
0
TEXT
8
COUCHE_1
 10
24000
 20
-4600
 11
24000
 21
-4600
 40
150
 1
Validation1
50
0
 72
0
 73
3
62
0
0
TEXT
8
COUCHE_1
 10
35400
 20
-6000
 11
35400
 21
-6000
 40
150
 1
5V
50
0
 72
0
 73
3
62
0
0
TEXT
8
COUCHE_1
 10
22600
 20
-26400
 11
22600
 21
-26400
 40
200
 1
M1
50
0
 72
0
 73
3
62
0
0
TEXT
8
COUCHE_1
 10
33800
 20
-26400
 11
33800
 21
-26400
 40
200
 1
M2
50
0
 72
0
 73
3
62
0
0
TEXT
8
COUCHE_1
 10
11200
 20
-4800
 11
11200
 21
-4800
 40
150
 1
K3
50
0
 72
0
 73
3
62
0
0
TEXT
8
COUCHE_1
 10
22400
 20
-26800
 11
22400
 21
-26800
 40
150
 1
Nema23
50
0
 72
0
 73
3
62
0
0
TEXT
8
COUCHE_1
 10
33600
 20
-26800
 11
33600
 21
-26800
 40
150
 1
Nema23
50
0
 72
0
 73
3
62
0
0
TEXT
8
COUCHE_1
 10
24000
 20
-5200
 11
24000
 21
-5200
 40
150
 1
Validation2
50
0
 72
0
 73
3
62
0
0
TEXT
8
COUCHE_1
 10
8600
 20
-18200
 11
8600
 21
-18200
 40
150
 1
CNC
50
0
 72
0
 73
3
62
0
0
TEXT
8
COUCHE_1
 10
6200
 20
-2800
 11
6200
 21
-2800
 40
150
 1
K2
50
0
 72
0
 73
3
62
0
0
TEXT
8
COUCHE_1
 10
20200
 20
-9000
 11
20200
 21
-9000
 40
150
 1
M10
50
0
 72
0
 73
3
62
0
0
TEXT
8
COUCHE_1
 10
31200
 20
-8800
 11
31200
 21
-8800
 40
150
 1
M20
50
0
 72
0
 73
3
62
0
0
TEXT
8
COUCHE_1
 10
5000
 20
-5800
 11
5000
 21
-5800
 40
150
 1
RSB1A120B7S
50
0
 72
0
 73
3
62
0
0
TEXT
8
COUCHE_1
 10
11800
 20
-19600
 11
11800
 21
-19600
 40
100
 1
Vers Driver 1
50
0
 72
0
 73
3
62
0
0
TEXT
8
COUCHE_1
 10
11800
 20
-20800
 11
11800
 21
-20800
 40
100
 1
Vers Driver 2
50
0
 72
0
 73
3
62
0
 0
LINE
8
COUCHE_1
 6
CONTINUOUS
62
0
10
1200
20
-1200
11
41600
21
-1200
 0
LINE
8
COUCHE_1
 6
CONTINUOUS
62
0
10
1600
20
-1600
11
41600
21
-1600
 0
LINE
8
COUCHE_1
 6
CONTINUOUS
62
0
10
3200
20
-1200
11
3200
21
-1600
 0
LINE
8
COUCHE_1
 6
CONTINUOUS
62
0
10
4800
20
-1200
11
4800
21
-1600
 0
LINE
8
COUCHE_1
 6
CONTINUOUS
62
0
10
6400
20
-1200
11
6400
21
-1600
 0
LINE
8
COUCHE_1
 6
CONTINUOUS
62
0
10
8000
20
-1200
11
8000
21
-1600
 0
LINE
8
COUCHE_1
 6
CONTINUOUS
62
0
10
9600
20
-1200
11
9600
21
-1600
 0
LINE
8
COUCHE_1
 6
CONTINUOUS
62
0
10
11200
20
-1200
11
11200
21
-1600
 0
LINE
8
COUCHE_1
 6
CONTINUOUS
62
0
10
12800
20
-1200
11
12800
21
-1600
 0
LINE
8
COUCHE_1
 6
CONTINUOUS
62
0
10
14400
20
-1200
11
14400
21
-1600
 0
LINE
8
COUCHE_1
 6
CONTINUOUS
62
0
10
16000
20
-1200
11
16000
21
-1600
 0
LINE
8
COUCHE_1
 6
CONTINUOUS
62
0
10
17600
20
-1200
11
17600
21
-1600
 0
LINE
8
COUCHE_1
 6
CONTINUOUS
62
0
10
19200
20
-1200
11
19200
21
-1600
 0
LINE
8
COUCHE_1
 6
CONTINUOUS
62
0
10
20800
20
-1200
11
20800
21
-1600
 0
LINE
8
COUCHE_1
 6
CONTINUOUS
62
0
10
22400
20
-1200
11
22400
21
-1600
 0
LINE
8
COUCHE_1
 6
CONTINUOUS
62
0
10
24000
20
-1200
11
24000
21
-1600
 0
LINE
8
COUCHE_1
 6
CONTINUOUS
62
0
10
25600
20
-1200
11
25600
21
-1600
 0
LINE
8
COUCHE_1
 6
CONTINUOUS
62
0
10
27200
20
-1200
11
27200
21
-1600
 0
LINE
8
COUCHE_1
 6
CONTINUOUS
62
0
10
28800
20
-1200
11
28800
21
-1600
 0
LINE
8
COUCHE_1
 6
CONTINUOUS
62
0
10
30400
20
-1200
11
30400
21
-1600
 0
LINE
8
COUCHE_1
 6
CONTINUOUS
62
0
10
32000
20
-1200
11
32000
21
-1600
 0
LINE
8
COUCHE_1
 6
CONTINUOUS
62
0
10
33600
20
-1200
11
33600
21
-1600
 0
LINE
8
COUCHE_1
 6
CONTINUOUS
62
0
10
35200
20
-1200
11
35200
21
-1600
 0
LINE
8
COUCHE_1
 6
CONTINUOUS
62
0
10
36800
20
-1200
11
36800
21
-1600
 0
LINE
8
COUCHE_1
 6
CONTINUOUS
62
0
10
38400
20
-1200
11
38400
21
-1600
 0
LINE
8
COUCHE_1
 6
CONTINUOUS
62
0
10
40000
20
-1200
11
40000
21
-1600
 0
LINE
8
COUCHE_1
 6
CONTINUOUS
62
0
10
41600
20
-1200
11
41600
21
-1600
 0
LINE
8
COUCHE_1
 6
CONTINUOUS
62
0
10
41600
20
-1200
11
41600
21
-1600
 0
LINE
8
COUCHE_1
 6
CONTINUOUS
62
0
10
1200
20
-29300
11
41600
21
-29300
0
TEXT
8
COUCHE_1
 10
2400
 20
-1250
 11
2400
 21
-1250
 40
150
 1
A
50
0
 72
1
 73
3
62
0
0
TEXT
8
COUCHE_1
 10
4000
 20
-1250
 11
4000
 21
-1250
 40
150
 1
B
50
0
 72
1
 73
3
62
0
0
TEXT
8
COUCHE_1
 10
5600
 20
-1250
 11
5600
 21
-1250
 40
150
 1
C
50
0
 72
1
 73
3
62
0
0
TEXT
8
COUCHE_1
 10
7200
 20
-1250
 11
7200
 21
-1250
 40
150
 1
D
50
0
 72
1
 73
3
62
0
0
TEXT
8
COUCHE_1
 10
8800
 20
-1250
 11
8800
 21
-1250
 40
150
 1
E
50
0
 72
1
 73
3
62
0
0
TEXT
8
COUCHE_1
 10
10400
 20
-1250
 11
10400
 21
-1250
 40
150
 1
F
50
0
 72
1
 73
3
62
0
0
TEXT
8
COUCHE_1
 10
12000
 20
-1250
 11
12000
 21
-1250
 40
150
 1
G
50
0
 72
1
 73
3
62
0
0
TEXT
8
COUCHE_1
 10
13600
 20
-1250
 11
13600
 21
-1250
 40
150
 1
H
50
0
 72
1
 73
3
62
0
0
TEXT
8
COUCHE_1
 10
15200
 20
-1250
 11
15200
 21
-1250
 40
150
 1
I
50
0
 72
1
 73
3
62
0
0
TEXT
8
COUCHE_1
 10
16800
 20
-1250
 11
16800
 21
-1250
 40
150
 1
J
50
0
 72
1
 73
3
62
0
0
TEXT
8
COUCHE_1
 10
18400
 20
-1250
 11
18400
 21
-1250
 40
150
 1
K
50
0
 72
1
 73
3
62
0
0
TEXT
8
COUCHE_1
 10
20000
 20
-1250
 11
20000
 21
-1250
 40
150
 1
L
50
0
 72
1
 73
3
62
0
0
TEXT
8
COUCHE_1
 10
21600
 20
-1250
 11
21600
 21
-1250
 40
150
 1
M
50
0
 72
1
 73
3
62
0
0
TEXT
8
COUCHE_1
 10
23200
 20
-1250
 11
23200
 21
-1250
 40
150
 1
N
50
0
 72
1
 73
3
62
0
0
TEXT
8
COUCHE_1
 10
24800
 20
-1250
 11
24800
 21
-1250
 40
150
 1
O
50
0
 72
1
 73
3
62
0
0
TEXT
8
COUCHE_1
 10
26400
 20
-1250
 11
26400
 21
-1250
 40
150
 1
P
50
0
 72
1
 73
3
62
0
0
TEXT
8
COUCHE_1
 10
28000
 20
-1250
 11
28000
 21
-1250
 40
150
 1
Q
50
0
 72
1
 73
3
62
0
0
TEXT
8
COUCHE_1
 10
29600
 20
-1250
 11
29600
 21
-1250
 40
150
 1
R
50
0
 72
1
 73
3
62
0
0
TEXT
8
COUCHE_1
 10
31200
 20
-1250
 11
31200
 21
-1250
 40
150
 1
S
50
0
 72
1
 73
3
62
0
0
TEXT
8
COUCHE_1
 10
32800
 20
-1250
 11
32800
 21
-1250
 40
150
 1
T
50
0
 72
1
 73
3
62
0
0
TEXT
8
COUCHE_1
 10
34400
 20
-1250
 11
34400
 21
-1250
 40
150
 1
U
50
0
 72
1
 73
3
62
0
0
TEXT
8
COUCHE_1
 10
36000
 20
-1250
 11
36000
 21
-1250
 40
150
 1
V
50
0
 72
1
 73
3
62
0
0
TEXT
8
COUCHE_1
 10
37600
 20
-1250
 11
37600
 21
-1250
 40
150
 1
W
50
0
 72
1
 73
3
62
0
0
TEXT
8
COUCHE_1
 10
39200
 20
-1250
 11
39200
 21
-1250
 40
150
 1
X
50
0
 72
1
 73
3
62
0
0
TEXT
8
COUCHE_1
 10
40800
 20
-1250
 11
40800
 21
-1250
 40
150
 1
Y
50
0
 72
1
 73
3
62
0
 0
LINE
8
COUCHE_1
 6
CONTINUOUS
62
0
10
1200
20
-1200
11
1200
21
-29300
 0
LINE
8
COUCHE_1
 6
CONTINUOUS
62
0
10
1600
20
-1600
11
1600
21
-29300
 0
LINE
8
COUCHE_1
 6
CONTINUOUS
62
0
10
1200
20
-3200
11
1600
21
-3200
 0
LINE
8
COUCHE_1
 6
CONTINUOUS
62
0
10
1200
20
-4800
11
1600
21
-4800
 0
LINE
8
COUCHE_1
 6
CONTINUOUS
62
0
10
1200
20
-6400
11
1600
21
-6400
 0
LINE
8
COUCHE_1
 6
CONTINUOUS
62
0
10
1200
20
-8000
11
1600
21
-8000
 0
LINE
8
COUCHE_1
 6
CONTINUOUS
62
0
10
1200
20
-9600
11
1600
21
-9600
 0
LINE
8
COUCHE_1
 6
CONTINUOUS
62
0
10
1200
20
-11200
11
1600
21
-11200
 0
LINE
8
COUCHE_1
 6
CONTINUOUS
62
0
10
1200
20
-12800
11
1600
21
-12800
 0
LINE
8
COUCHE_1
 6
CONTINUOUS
62
0
10
1200
20
-14400
11
1600
21
-14400
 0
LINE
8
COUCHE_1
 6
CONTINUOUS
62
0
10
1200
20
-16000
11
1600
21
-16000
 0
LINE
8
COUCHE_1
 6
CONTINUOUS
62
0
10
1200
20
-17600
11
1600
21
-17600
 0
LINE
8
COUCHE_1
 6
CONTINUOUS
62
0
10
1200
20
-19200
11
1600
21
-19200
 0
LINE
8
COUCHE_1
 6
CONTINUOUS
62
0
10
1200
20
-20800
11
1600
21
-20800
 0
LINE
8
COUCHE_1
 6
CONTINUOUS
62
0
10
1200
20
-22400
11
1600
21
-22400
 0
LINE
8
COUCHE_1
 6
CONTINUOUS
62
0
10
1200
20
-24000
11
1600
21
-24000
 0
LINE
8
COUCHE_1
 6
CONTINUOUS
62
0
10
1200
20
-25600
11
1600
21
-25600
 0
LINE
8
COUCHE_1
 6
CONTINUOUS
62
0
10
1200
20
-27200
11
1600
21
-27200
 0
LINE
8
COUCHE_1
 6
CONTINUOUS
62
0
10
1200
20
-28800
11
1600
21
-28800
 0
LINE
8
COUCHE_1
 6
CONTINUOUS
62
0
10
1200
20
-29300
11
1600
21
-29300
 0
LINE
8
COUCHE_1
 6
CONTINUOUS
62
0
10
41600
20
-1200
11
41600
21
-29300
0
TEXT
8
COUCHE_1
 10
1400
 20
-2250
 11
1400
 21
-2250
 40
150
 1
1
50
0
 72
1
 73
3
62
0
0
TEXT
8
COUCHE_1
 10
1400
 20
-3850
 11
1400
 21
-3850
 40
150
 1
2
50
0
 72
1
 73
3
62
0
0
TEXT
8
COUCHE_1
 10
1400
 20
-5450
 11
1400
 21
-5450
 40
150
 1
3
50
0
 72
1
 73
3
62
0
0
TEXT
8
COUCHE_1
 10
1400
 20
-7050
 11
1400
 21
-7050
 40
150
 1
4
50
0
 72
1
 73
3
62
0
0
TEXT
8
COUCHE_1
 10
1400
 20
-8650
 11
1400
 21
-8650
 40
150
 1
5
50
0
 72
1
 73
3
62
0
0
TEXT
8
COUCHE_1
 10
1400
 20
-10250
 11
1400
 21
-10250
 40
150
 1
6
50
0
 72
1
 73
3
62
0
0
TEXT
8
COUCHE_1
 10
1400
 20
-11850
 11
1400
 21
-11850
 40
150
 1
7
50
0
 72
1
 73
3
62
0
0
TEXT
8
COUCHE_1
 10
1400
 20
-13450
 11
1400
 21
-13450
 40
150
 1
8
50
0
 72
1
 73
3
62
0
0
TEXT
8
COUCHE_1
 10
1400
 20
-15050
 11
1400
 21
-15050
 40
150
 1
9
50
0
 72
1
 73
3
62
0
0
TEXT
8
COUCHE_1
 10
1400
 20
-16650
 11
1400
 21
-16650
 40
150
 1
10
50
0
 72
1
 73
3
62
0
0
TEXT
8
COUCHE_1
 10
1400
 20
-18250
 11
1400
 21
-18250
 40
150
 1
11
50
0
 72
1
 73
3
62
0
0
TEXT
8
COUCHE_1
 10
1400
 20
-19850
 11
1400
 21
-19850
 40
150
 1
12
50
0
 72
1
 73
3
62
0
0
TEXT
8
COUCHE_1
 10
1400
 20
-21450
 11
1400
 21
-21450
 40
150
 1
13
50
0
 72
1
 73
3
62
0
0
TEXT
8
COUCHE_1
 10
1400
 20
-23050
 11
1400
 21
-23050
 40
150
 1
14
50
0
 72
1
 73
3
62
0
0
TEXT
8
COUCHE_1
 10
1400
 20
-24650
 11
1400
 21
-24650
 40
150
 1
15
50
0
 72
1
 73
3
62
0
0
TEXT
8
COUCHE_1
 10
1400
 20
-26250
 11
1400
 21
-26250
 40
150
 1
16
50
0
 72
1
 73
3
62
0
0
TEXT
8
COUCHE_1
 10
1400
 20
-27850
 11
1400
 21
-27850
 40
150
 1
17
50
0
 72
1
 73
3
62
0
 0
LINE
8
COUCHE_1
 6
CONTINUOUS
62
0
10
1600
20
-27800
11
41600
21
-27800
 0
LINE
8
COUCHE_1
 6
CONTINUOUS
62
0
10
41600
20
-27800
11
40000
21
-29200
 0
LINE
8
COUCHE_1
 6
CONTINUOUS
62
0
10
10600
20
-29200
11
10600
21
-27800
 0
LINE
8
COUCHE_1
 6
CONTINUOUS
62
0
10
35000
20
-29200
11
35000
21
-27800
 0
LINE
8
COUCHE_1
 6
CONTINUOUS
62
0
10
40000
20
-29200
11
40000
21
-27800
0
TEXT
8
COUCHE_1
 10
40800
 20
-28700
 11
40800
 21
-28700
 40
200
 1
14
50
0
 72
0
 73
3
62
0
0
TEXT
8
COUCHE_1
 10
40100
 20
-28000
 11
40100
 21
-28000
 40
200
 1
08
50
0
 72
0
 73
3
62
0
0
TEXT
8
COUCHE_1
 10
38500
 20
-28000
 11
38500
 21
-28000
 40
150
 1
14/02/2018
50
0
 72
2
 73
3
62
0
0
TEXT
8
COUCHE_1
 10
38500
 20
-28400
 11
38500
 21
-28400
 40
150
 1
1/2
50
0
 72
2
 73
3
62
0
0
TEXT
8
COUCHE_1
 10
20800
 20
-28600
 11
20800
 21
-28600
 40
250
 1
Adapatation 5V_24V
50
0
 72
0
 73
3
62
0
0
TEXT
8
COUCHE_1
 10
35200
 20
-28000
 11
35200
 21
-28000
 40
150
 1
Dessiné le :
50
0
 72
0
 73
3
62
0
0
TEXT
8
COUCHE_1
 10
35200
 20
-28400
 11
35200
 21
-28400
 40
150
 1
Echelle :
50
0
 72
0
 73
3
62
0
0
TEXT
8
COUCHE_1
 10
38500
 20
-28800
 11
38500
 21
-28800
 40
150
 1
DN_DM
50
0
 72
2
 73
3
62
0
0
TEXT
8
COUCHE_1
 10
35200
 20
-28800
 11
35200
 21
-28800
 40
150
 1
Par : 
50
0
 72
0
 73
3
62
0
0
TEXT
8
COUCHE_1
 10
18600
 20
-28000
 11
18600
 21
-28000
 40
300
 1
Carte   Optocoupleur   Outputs   PC
50
0
 72
0
 73
3
62
0
 0
ENDSEC
 0
EOF
