 0
SECTION
 2
HEADER
 9
$ACADVER
 1
AC1009
 9
$CLAYER
 8
Couche_1
 9
$HANDLING
70
 0
9
$INSBASE
10
0
20
0
30
0
9
$THICKNESS
40
0
9
$UCSNAME
2
UCS_F1
9
$WORLDVIEW
70
1
9
$LTSCALE
40
15
0
ENDSEC
0
SECTION
2
TABLES
 0
TABLE
 2
APPID
70
 1
 0
APPID
 2
TASK
 70
 0
 0
ENDTAB
 0
TABLE
  2
LTYPE
 70
 2
 0
LTYPE
  2
CONTINUOUS
 70
 0
 3
Solid line
 72
65
 73
0
 40
0
  0
LTYPE
  2
ACAD_ISO03W100
 70
 0
 3
CAO pointillé long
 72
65
 73
2
 40
30
 49
12
 49
-18.0
  0
LTYPE
 2
ACAD_ISO07W100
 70
0
 3
CAO pointillé fin
 72
65
 73
2
 40
3
 49
0
 49
-3.0
  0
LTYPE
  2
ACAD_ISO02W100
 70
0
 3
CAO pointillé extra long
 72
65
 73
2
 40
15
 49
12
 49
-3
  0
LTYPE
  2
AXES
 70
0
 3
CAO Axe
 72
65
 73
4
 40
50.8
 49
31.75
 49
-6.35
 49
6.35
 49
-6.35
  0
ENDTAB
0
TABLE
2
LAYER
 70
20
 0
LAYER
 2
COUCHE_1
 70
 64
 62
 7
 6
CONTINUOUS
 0
ENDTAB
 0
TABLE
 2
UCS
 70
 6
 0
UCS
 2
UCSF1
 70
 64
 10
0.000000
 20
0.000000
 30
20.000000
 11
1.000000
 21
0.000000
 31
0.000000
 12
0.000000
 22
-1.000000
 32
0.000000
 0
ENDTAB
 0
ENDSEC
 0
SECTION
 2
ENTITIES
 0
LINE
8
COUCHE_1
 6
ACAD_ISO02W100
62
0
10
39800
20
-5200
11
1600
21
-5200
 0
LINE
8
COUCHE_1
 6
ACAD_ISO02W100
62
0
10
39800
20
-5200
11
59000
21
-5200
0
POLYLINE
5
2B
 8
0
62
0
 6
ACAD_ISO07W100
 66
 1
 10
0
 20
0
 30
0
 70
1
 0
VERTEX
 5
33
  8
0
 10
14000
 20
-29200
 0
VERTEX
 5
33
  8
0
 10
21800
 20
-29200
 0
VERTEX
 5
33
  8
0
 10
21800
 20
-39600
 0
VERTEX
 5
33
  8
0
 10
14000
 20
-39600
 0
SEQEND
 5
37
 8
0
0
POLYLINE
5
2B
 8
0
62
0
 6
ACAD_ISO07W100
 66
 1
 10
0
 20
0
 30
0
 70
1
 0
VERTEX
 5
33
  8
0
 10
47800
 20
-30400
 0
VERTEX
 5
33
  8
0
 10
53000
 20
-30400
 0
VERTEX
 5
33
  8
0
 10
53000
 20
-39400
 0
VERTEX
 5
33
  8
0
 10
47800
 20
-39400
 0
SEQEND
 5
37
 8
0
 0
LINE
8
COUCHE_1
 6
CONTINUOUS
62
0
10
10600
20
-6800
11
11000
21
-6400
 0
LINE
8
COUCHE_1
 6
CONTINUOUS
62
0
10
9800
20
-6800
11
10200
21
-6400
 0
LINE
8
COUCHE_1
 6
CONTINUOUS
62
0
10
9000
20
-6800
11
9400
21
-6400
 0
LINE
8
COUCHE_1
 6
CONTINUOUS
62
0
10
37200
20
-12600
11
37600
21
-12200
 0
LINE
8
COUCHE_1
 6
CONTINUOUS
62
0
10
36800
20
-12600
11
37200
21
-12200
 0
LINE
8
COUCHE_1
 6
CONTINUOUS
62
0
10
36200
20
-12600
11
36600
21
-12200
0
POLYLINE
5
2B
 8
0
62
0
 6
ACAD_ISO07W100
 66
 1
 10
0
 20
0
 30
0
 70
1
 0
VERTEX
 5
33
  8
0
 10
5200
 20
-19000
 0
VERTEX
 5
33
  8
0
 10
8600
 20
-19000
 0
VERTEX
 5
33
  8
0
 10
8600
 20
-20800
 0
VERTEX
 5
33
  8
0
 10
5200
 20
-20800
 0
SEQEND
 5
37
 8
0
0
POLYLINE
5
2B
 8
0
62
0
 6
ACAD_ISO07W100
 66
 1
 10
0
 20
0
 30
0
 70
1
 0
VERTEX
 5
33
  8
0
 10
35800
 20
-10400
 0
VERTEX
 5
33
  8
0
 10
38200
 20
-10400
 0
VERTEX
 5
33
  8
0
 10
38200
 20
-12000
 0
VERTEX
 5
33
  8
0
 10
35800
 20
-12000
 0
SEQEND
 5
37
 8
0
0
POLYLINE
5
2B
 8
0
62
0
 6
ACAD_ISO07W100
 66
 1
 10
0
 20
0
 30
0
 70
1
 0
VERTEX
 5
33
  8
0
 10
8200
 20
-6800
 0
VERTEX
 5
33
  8
0
 10
12000
 20
-6800
 0
VERTEX
 5
33
  8
0
 10
12000
 20
-8200
 0
VERTEX
 5
33
  8
0
 10
8200
 20
-8200
 0
SEQEND
 5
37
 8
0
 0
LINE
8
COUCHE_1
 6
CONTINUOUS
62
0
10
9200
20
-11400
11
8600
21
-10000
 0
LINE
8
COUCHE_1
 6
CONTINUOUS
62
0
10
9000
20
-9800
11
9400
21
-9800
 0
LINE
8
COUCHE_1
 6
CONTINUOUS
62
0
10
10800
20
-11400
11
10200
21
-10000
 0
LINE
8
COUCHE_1
 6
CONTINUOUS
62
0
10
10600
20
-9800
11
11000
21
-9800
 0
LINE
8
COUCHE_1
 6
ACAD_ISO03W100
62
0
10
8850
20
-10600
11
10450
21
-10600
 0
CIRCLE
8
COUCHE_1
62
0
 6
CONTINUOUS
10
9200
20
-9900
40
100
 0
CIRCLE
8
COUCHE_1
62
0
 6
CONTINUOUS
10
10800
20
-9900
40
100
0
POLYLINE
5
2B
 8
0
62
1
 6
CONTINUOUS
 66
 1
 10
0
 20
0
 30
0
 70
1
 0
VERTEX
 5
33
  8
0
 10
9100
 20
-12100
 0
VERTEX
 5
33
  8
0
 10
9300
 20
-12100
 0
VERTEX
 5
33
  8
0
 10
9300
 20
-12300
 0
VERTEX
 5
33
  8
0
 10
9100
 20
-12300
 0
SEQEND
 5
37
 8
0
 0
LINE
8
COUCHE_1
 6
CONTINUOUS
62
1
10
9200
20
-12200
11
9200
21
-11400
0
POLYLINE
5
2B
 8
0
62
1
 6
CONTINUOUS
 66
 1
 10
0
 20
0
 30
0
 70
1
 0
VERTEX
 5
33
  8
0
 10
10700
 20
-12100
 0
VERTEX
 5
33
  8
0
 10
10900
 20
-12100
 0
VERTEX
 5
33
  8
0
 10
10900
 20
-12300
 0
VERTEX
 5
33
  8
0
 10
10700
 20
-12300
 0
SEQEND
 5
37
 8
0
 0
LINE
8
COUCHE_1
 6
CONTINUOUS
62
1
10
10800
20
-12200
11
10800
21
-11400
0
POLYLINE
5
2B
 8
0
62
1
 6
CONTINUOUS
 66
 1
 10
0
 20
0
 30
0
 70
1
 0
VERTEX
 5
33
  8
0
 10
9100
 20
-8900
 0
VERTEX
 5
33
  8
0
 10
9300
 20
-8900
 0
VERTEX
 5
33
  8
0
 10
9300
 20
-9100
 0
VERTEX
 5
33
  8
0
 10
9100
 20
-9100
 0
SEQEND
 5
37
 8
0
 0
LINE
8
COUCHE_1
 6
CONTINUOUS
62
1
10
9200
20
-9000
11
9200
21
-9800
0
POLYLINE
5
2B
 8
0
62
1
 6
CONTINUOUS
 66
 1
 10
0
 20
0
 30
0
 70
1
 0
VERTEX
 5
33
  8
0
 10
10700
 20
-8900
 0
VERTEX
 5
33
  8
0
 10
10900
 20
-8900
 0
VERTEX
 5
33
  8
0
 10
10900
 20
-9100
 0
VERTEX
 5
33
  8
0
 10
10700
 20
-9100
 0
SEQEND
 5
37
 8
0
 0
LINE
8
COUCHE_1
 6
CONTINUOUS
62
1
10
10800
20
-9000
11
10800
21
-9800
0
TEXT
8
COUCHE_1
 10
8000
 20
-10400
 11
8000
 21
-10400
 40
150
 1
Q1
50
0
 72
0
 73
3
62
0
 0
LINE
8
COUCHE_1
 6
CONTINUOUS
62
0
10
10800
20
-15450
11
10200
21
-13850
 0
LINE
8
COUCHE_1
 6
CONTINUOUS
62
0
10
9200
20
-15450
11
8600
21
-13850
 0
LINE
8
COUCHE_1
 6
CONTINUOUS
62
0
10
9200
20
-13850
11
9100
21
-13950
 0
LINE
8
COUCHE_1
 6
CONTINUOUS
62
0
10
9100
20
-13950
11
9300
21
-13750
 0
LINE
8
COUCHE_1
 6
CONTINUOUS
62
0
10
9300
20
-13950
11
9100
21
-13750
 0
LINE
8
COUCHE_1
 6
CONTINUOUS
62
0
10
10700
20
-13950
11
10900
21
-13750
 0
LINE
8
COUCHE_1
 6
CONTINUOUS
62
0
10
10900
20
-13950
11
10700
21
-13750
 0
LINE
8
COUCHE_1
 6
CONTINUOUS
62
0
10
9200
20
-16650
11
9200
21
-16450
 0
LINE
8
COUCHE_1
 6
CONTINUOUS
62
0
10
9200
20
-16450
11
9500
21
-16450
 0
LINE
8
COUCHE_1
 6
CONTINUOUS
62
0
10
9500
20
-16150
11
9500
21
-16450
 0
LINE
8
COUCHE_1
 6
CONTINUOUS
62
0
10
9200
20
-16150
11
9500
21
-16150
 0
LINE
8
COUCHE_1
 6
CONTINUOUS
62
0
10
9200
20
-15450
11
9200
21
-16150
 0
LINE
8
COUCHE_1
 6
CONTINUOUS
62
0
10
9200
20
-17050
11
9300
21
-17050
 0
LINE
8
COUCHE_1
 6
CONTINUOUS
62
0
10
9200
20
-16650
11
9300
21
-16650
 0
LINE
8
COUCHE_1
 6
CONTINUOUS
62
0
10
10800
20
-15450
11
10800
21
-16150
 0
LINE
8
COUCHE_1
 6
CONTINUOUS
62
0
10
10800
20
-16150
11
11100
21
-16150
 0
LINE
8
COUCHE_1
 6
CONTINUOUS
62
0
10
11100
20
-16150
11
11100
21
-16450
 0
LINE
8
COUCHE_1
 6
CONTINUOUS
62
0
10
11100
20
-16450
11
10800
21
-16450
 0
LINE
8
COUCHE_1
 6
CONTINUOUS
62
0
10
10800
20
-16450
11
10800
21
-16650
 0
LINE
8
COUCHE_1
 6
CONTINUOUS
62
0
10
10800
20
-16650
11
10900
21
-16650
 0
LINE
8
COUCHE_1
 6
CONTINUOUS
62
0
10
10800
20
-17050
11
10900
21
-17050
 0
LINE
8
COUCHE_1
 6
ACAD_ISO07W100
62
0
10
10500
20
-14600
11
8420
21
-14600
 0
LINE
8
COUCHE_1
 6
ACAD_ISO07W100
62
0
10
8420
20
-16830
11
8420
21
-14600
 0
LINE
8
COUCHE_1
 6
ACAD_ISO07W100
62
0
10
8420
20
-16830
11
11070
21
-16830
 0
LINE
8
COUCHE_1
 6
ACAD_ISO07W100
62
0
10
11100
20
-16300
11
8400
21
-16300
 0
ARC
8
COUCHE_1
62
0
10
9300
20
-16850
40
200
50
270
51
90
 0
ARC
8
COUCHE_1
62
0
10
10900
20
-16850
40
200
50
270
51
90
0
POLYLINE
5
2B
 8
0
62
1
 6
CONTINUOUS
 66
 1
 10
0
 20
0
 30
0
 70
1
 0
VERTEX
 5
33
  8
0
 10
10700
 20
-12950
 0
VERTEX
 5
33
  8
0
 10
10900
 20
-12950
 0
VERTEX
 5
33
  8
0
 10
10900
 20
-13150
 0
VERTEX
 5
33
  8
0
 10
10700
 20
-13150
 0
SEQEND
 5
37
 8
0
 0
LINE
8
COUCHE_1
 6
CONTINUOUS
62
1
10
10800
20
-13050
11
10800
21
-13850
0
POLYLINE
5
2B
 8
0
62
1
 6
CONTINUOUS
 66
 1
 10
0
 20
0
 30
0
 70
1
 0
VERTEX
 5
33
  8
0
 10
9100
 20
-12950
 0
VERTEX
 5
33
  8
0
 10
9300
 20
-12950
 0
VERTEX
 5
33
  8
0
 10
9300
 20
-13150
 0
VERTEX
 5
33
  8
0
 10
9100
 20
-13150
 0
SEQEND
 5
37
 8
0
 0
LINE
8
COUCHE_1
 6
CONTINUOUS
62
1
10
9200
20
-13050
11
9200
21
-13850
0
POLYLINE
5
2B
 8
0
62
1
 6
CONTINUOUS
 66
 1
 10
0
 20
0
 30
0
 70
1
 0
VERTEX
 5
33
  8
0
 10
9100
 20
-17750
 0
VERTEX
 5
33
  8
0
 10
9300
 20
-17750
 0
VERTEX
 5
33
  8
0
 10
9300
 20
-17950
 0
VERTEX
 5
33
  8
0
 10
9100
 20
-17950
 0
SEQEND
 5
37
 8
0
 0
LINE
8
COUCHE_1
 6
CONTINUOUS
62
1
10
9200
20
-17850
11
9200
21
-17050
0
POLYLINE
5
2B
 8
0
62
1
 6
CONTINUOUS
 66
 1
 10
0
 20
0
 30
0
 70
1
 0
VERTEX
 5
33
  8
0
 10
10700
 20
-17750
 0
VERTEX
 5
33
  8
0
 10
10900
 20
-17750
 0
VERTEX
 5
33
  8
0
 10
10900
 20
-17950
 0
VERTEX
 5
33
  8
0
 10
10700
 20
-17950
 0
SEQEND
 5
37
 8
0
 0
LINE
8
COUCHE_1
 6
CONTINUOUS
62
1
10
10800
20
-17850
11
10800
21
-17050
0
TEXT
8
COUCHE_1
 10
8200
 20
-14200
 11
8200
 21
-14200
 40
150
 1
F1
50
0
 72
0
 73
3
62
0
 0
LINE
8
COUCHE_1
 6
CONTINUOUS
62
0
10
7800
20
-24800
11
11800
21
-24800
 0
LINE
8
COUCHE_1
 6
CONTINUOUS
62
0
10
11800
20
-24800
11
11800
21
-27000
 0
LINE
8
COUCHE_1
 6
CONTINUOUS
62
0
10
11800
20
-27000
11
7800
21
-27000
 0
LINE
8
COUCHE_1
 6
CONTINUOUS
62
0
10
7800
20
-24800
11
7800
21
-27000
 0
LINE
8
COUCHE_1
 6
CONTINUOUS
62
0
10
11800
20
-24800
11
7800
21
-27000
0
TEXT
8
COUCHE_1
 10
8000
 20
-24800
 11
8000
 21
-24800
 40
1000
 1
~
50
0
 72
0
 73
3
62
0
0
TEXT
8
COUCHE_1
 10
10400
 20
-25200
 11
10400
 21
-25200
 40
1000
 1
=
50
0
 72
0
 73
3
62
0
0
POLYLINE
5
2B
 8
0
62
1
 6
CONTINUOUS
 66
 1
 10
0
 20
0
 30
0
 70
1
 0
VERTEX
 5
33
  8
0
 10
8200
 20
-23000
 0
VERTEX
 5
33
  8
0
 10
8600
 20
-23000
 0
VERTEX
 5
33
  8
0
 10
8600
 20
-23400
 0
VERTEX
 5
33
  8
0
 10
8200
 20
-23400
 0
SEQEND
 5
37
 8
0
 0
LINE
8
COUCHE_1
 6
CONTINUOUS
62
1
10
8400
20
-23200
11
8400
21
-24800
0
TEXT
8
COUCHE_1
 10
8600
 20
-23800
 11
8600
 21
-23800
 40
300
 1
L1
50
0
 72
0
 73
3
62
0
0
POLYLINE
5
2B
 8
0
62
1
 6
CONTINUOUS
 66
 1
 10
0
 20
0
 30
0
 70
1
 0
VERTEX
 5
33
  8
0
 10
11000
 20
-23000
 0
VERTEX
 5
33
  8
0
 10
11400
 20
-23000
 0
VERTEX
 5
33
  8
0
 10
11400
 20
-23400
 0
VERTEX
 5
33
  8
0
 10
11000
 20
-23400
 0
SEQEND
 5
37
 8
0
 0
LINE
8
COUCHE_1
 6
CONTINUOUS
62
1
10
11200
20
-23200
11
11200
21
-24800
0
TEXT
8
COUCHE_1
 10
10600
 20
-23800
 11
10600
 21
-23800
 40
300
 1
N1
50
0
 72
0
 73
3
62
0
0
POLYLINE
5
2B
 8
0
62
1
 6
CONTINUOUS
 66
 1
 10
0
 20
0
 30
0
 70
1
 0
VERTEX
 5
33
  8
0
 10
11000
 20
-28400
 0
VERTEX
 5
33
  8
0
 10
11400
 20
-28400
 0
VERTEX
 5
33
  8
0
 10
11400
 20
-28800
 0
VERTEX
 5
33
  8
0
 10
11000
 20
-28800
 0
SEQEND
 5
37
 8
0
 0
LINE
8
COUCHE_1
 6
CONTINUOUS
62
1
10
11200
20
-28600
11
11200
21
-27000
0
TEXT
8
COUCHE_1
 10
11400
 20
-27600
 11
11400
 21
-27600
 40
300
 1
24V
50
0
 72
0
 73
3
62
0
0
POLYLINE
5
2B
 8
0
62
1
 6
CONTINUOUS
 66
 1
 10
0
 20
0
 30
0
 70
1
 0
VERTEX
 5
33
  8
0
 10
8200
 20
-28400
 0
VERTEX
 5
33
  8
0
 10
8600
 20
-28400
 0
VERTEX
 5
33
  8
0
 10
8600
 20
-28800
 0
VERTEX
 5
33
  8
0
 10
8200
 20
-28800
 0
SEQEND
 5
37
 8
0
 0
LINE
8
COUCHE_1
 6
CONTINUOUS
62
1
10
8400
20
-28600
11
8400
21
-27000
0
TEXT
8
COUCHE_1
 10
8800
 20
-27600
 11
8800
 21
-27600
 40
300
 1
0V
50
0
 72
0
 73
3
62
0
0
POLYLINE
5
2B
 8
0
62
1
 6
CONTINUOUS
 66
 1
 10
0
 20
0
 30
0
 70
1
 0
VERTEX
 5
33
  8
0
 10
6800
 20
-26200
 0
VERTEX
 5
33
  8
0
 10
7200
 20
-26200
 0
VERTEX
 5
33
  8
0
 10
7200
 20
-26600
 0
VERTEX
 5
33
  8
0
 10
6800
 20
-26600
 0
SEQEND
 5
37
 8
0
 0
LINE
8
COUCHE_1
 6
CONTINUOUS
62
1
10
7000
20
-26400
11
7800
21
-26400
0
TEXT
8
COUCHE_1
 10
6200
 20
-25600
 11
6200
 21
-25600
 40
300
 1

50
0
 72
0
 73
3
62
0
0
TEXT
8
COUCHE_1
 10
12200
 20
-25600
 11
12200
 21
-25600
 40
300
 1
T1
50
0
 72
0
 73
3
62
0
 0
LINE
8
COUCHE_1
 6
CONTINUOUS
62
0
10
42600
20
-24400
11
46600
21
-24400
 0
LINE
8
COUCHE_1
 6
CONTINUOUS
62
0
10
46600
20
-24400
11
46600
21
-26600
 0
LINE
8
COUCHE_1
 6
CONTINUOUS
62
0
10
46600
20
-26600
11
42600
21
-26600
 0
LINE
8
COUCHE_1
 6
CONTINUOUS
62
0
10
42600
20
-24400
11
42600
21
-26600
 0
LINE
8
COUCHE_1
 6
CONTINUOUS
62
0
10
46600
20
-24400
11
42600
21
-26600
0
TEXT
8
COUCHE_1
 10
42800
 20
-24400
 11
42800
 21
-24400
 40
1000
 1
~
50
0
 72
0
 73
3
62
0
0
TEXT
8
COUCHE_1
 10
45200
 20
-24800
 11
45200
 21
-24800
 40
1000
 1
=
50
0
 72
0
 73
3
62
0
0
POLYLINE
5
2B
 8
0
62
1
 6
CONTINUOUS
 66
 1
 10
0
 20
0
 30
0
 70
1
 0
VERTEX
 5
33
  8
0
 10
43000
 20
-22600
 0
VERTEX
 5
33
  8
0
 10
43400
 20
-22600
 0
VERTEX
 5
33
  8
0
 10
43400
 20
-23000
 0
VERTEX
 5
33
  8
0
 10
43000
 20
-23000
 0
SEQEND
 5
37
 8
0
 0
LINE
8
COUCHE_1
 6
CONTINUOUS
62
1
10
43200
20
-22800
11
43200
21
-24400
0
TEXT
8
COUCHE_1
 10
43400
 20
-23400
 11
43400
 21
-23400
 40
300
 1
L1
50
0
 72
0
 73
3
62
0
0
POLYLINE
5
2B
 8
0
62
1
 6
CONTINUOUS
 66
 1
 10
0
 20
0
 30
0
 70
1
 0
VERTEX
 5
33
  8
0
 10
45800
 20
-22600
 0
VERTEX
 5
33
  8
0
 10
46200
 20
-22600
 0
VERTEX
 5
33
  8
0
 10
46200
 20
-23000
 0
VERTEX
 5
33
  8
0
 10
45800
 20
-23000
 0
SEQEND
 5
37
 8
0
 0
LINE
8
COUCHE_1
 6
CONTINUOUS
62
1
10
46000
20
-22800
11
46000
21
-24400
0
TEXT
8
COUCHE_1
 10
45400
 20
-23400
 11
45400
 21
-23400
 40
300
 1
N1
50
0
 72
0
 73
3
62
0
0
POLYLINE
5
2B
 8
0
62
1
 6
CONTINUOUS
 66
 1
 10
0
 20
0
 30
0
 70
1
 0
VERTEX
 5
33
  8
0
 10
45800
 20
-28000
 0
VERTEX
 5
33
  8
0
 10
46200
 20
-28000
 0
VERTEX
 5
33
  8
0
 10
46200
 20
-28400
 0
VERTEX
 5
33
  8
0
 10
45800
 20
-28400
 0
SEQEND
 5
37
 8
0
 0
LINE
8
COUCHE_1
 6
CONTINUOUS
62
1
10
46000
20
-28200
11
46000
21
-26600
0
TEXT
8
COUCHE_1
 10
46200
 20
-27200
 11
46200
 21
-27200
 40
300
 1
24V
50
0
 72
0
 73
3
62
0
0
POLYLINE
5
2B
 8
0
62
1
 6
CONTINUOUS
 66
 1
 10
0
 20
0
 30
0
 70
1
 0
VERTEX
 5
33
  8
0
 10
43000
 20
-28000
 0
VERTEX
 5
33
  8
0
 10
43400
 20
-28000
 0
VERTEX
 5
33
  8
0
 10
43400
 20
-28400
 0
VERTEX
 5
33
  8
0
 10
43000
 20
-28400
 0
SEQEND
 5
37
 8
0
 0
LINE
8
COUCHE_1
 6
CONTINUOUS
62
1
10
43200
20
-28200
11
43200
21
-26600
0
TEXT
8
COUCHE_1
 10
43600
 20
-27200
 11
43600
 21
-27200
 40
300
 1
0V
50
0
 72
0
 73
3
62
0
0
POLYLINE
5
2B
 8
0
62
1
 6
CONTINUOUS
 66
 1
 10
0
 20
0
 30
0
 70
1
 0
VERTEX
 5
33
  8
0
 10
41600
 20
-25800
 0
VERTEX
 5
33
  8
0
 10
42000
 20
-25800
 0
VERTEX
 5
33
  8
0
 10
42000
 20
-26200
 0
VERTEX
 5
33
  8
0
 10
41600
 20
-26200
 0
SEQEND
 5
37
 8
0
 0
LINE
8
COUCHE_1
 6
CONTINUOUS
62
1
10
41800
20
-26000
11
42600
21
-26000
0
TEXT
8
COUCHE_1
 10
41000
 20
-25200
 11
41000
 21
-25200
 40
300
 1

50
0
 72
0
 73
3
62
0
0
TEXT
8
COUCHE_1
 10
47000
 20
-25600
 11
47000
 21
-25600
 40
300
 1
T2
50
0
 72
0
 73
3
62
0
 0
LINE
8
COUCHE_1
 6
CONTINUOUS
62
0
10
40400
20
-27400
11
41600
21
-27400
 0
LINE
8
COUCHE_1
 6
CONTINUOUS
62
0
10
40600
20
-27600
11
41400
21
-27600
 0
LINE
8
COUCHE_1
 6
CONTINUOUS
62
0
10
40800
20
-27800
11
41200
21
-27800
0
POLYLINE
5
2B
 8
0
62
1
 6
CONTINUOUS
 66
 1
 10
0
 20
0
 30
0
 70
1
 0
VERTEX
 5
33
  8
0
 10
40900
 20
-26500
 0
VERTEX
 5
33
  8
0
 10
41100
 20
-26500
 0
VERTEX
 5
33
  8
0
 10
41100
 20
-26700
 0
VERTEX
 5
33
  8
0
 10
40900
 20
-26700
 0
SEQEND
 5
37
 8
0
 0
LINE
8
COUCHE_1
 6
CONTINUOUS
62
1
10
41000
20
-26600
11
41000
21
-27400
 0
LINE
8
COUCHE_1
 6
CONTINUOUS
62
0
10
9200
20
-7200
11
9200
21
-7000
 0
LINE
8
COUCHE_1
 6
CONTINUOUS
62
0
10
9200
20
-7800
11
9200
21
-7600
 0
LINE
8
COUCHE_1
 6
CONTINUOUS
62
0
10
8900
20
-7100
11
9500
21
-7700
 0
CIRCLE
8
COUCHE_1
62
0
 6
CONTINUOUS
10
9200
20
-7400
40
200
0
POLYLINE
5
2B
 8
0
62
1
 6
CONTINUOUS
 66
 1
 10
0
 20
0
 30
0
 70
1
 0
VERTEX
 5
33
  8
0
 10
9100
 20
-6900
 0
VERTEX
 5
33
  8
0
 10
9300
 20
-6900
 0
VERTEX
 5
33
  8
0
 10
9300
 20
-7100
 0
VERTEX
 5
33
  8
0
 10
9100
 20
-7100
 0
SEQEND
 5
37
 8
0
 0
LINE
8
COUCHE_1
 6
CONTINUOUS
62
1
10
9200
20
-7000
11
9200
21
-7000
0
POLYLINE
5
2B
 8
0
62
1
 6
CONTINUOUS
 66
 1
 10
0
 20
0
 30
0
 70
1
 0
VERTEX
 5
33
  8
0
 10
9100
 20
-7700
 0
VERTEX
 5
33
  8
0
 10
9300
 20
-7700
 0
VERTEX
 5
33
  8
0
 10
9300
 20
-7900
 0
VERTEX
 5
33
  8
0
 10
9100
 20
-7900
 0
SEQEND
 5
37
 8
0
 0
LINE
8
COUCHE_1
 6
CONTINUOUS
62
1
10
9200
20
-7800
11
9200
21
-7800
0
TEXT
8
COUCHE_1
 10
9400
 20
-6800
 11
9400
 21
-6800
 40
200
 1
1
50
0
 72
0
 73
3
62
0
 0
LINE
8
COUCHE_1
 6
CONTINUOUS
62
0
10
10800
20
-7200
11
10800
21
-7000
 0
LINE
8
COUCHE_1
 6
CONTINUOUS
62
0
10
10800
20
-7800
11
10800
21
-7600
 0
LINE
8
COUCHE_1
 6
CONTINUOUS
62
0
10
10500
20
-7100
11
11100
21
-7700
 0
CIRCLE
8
COUCHE_1
62
0
 6
CONTINUOUS
10
10800
20
-7400
40
200
0
POLYLINE
5
2B
 8
0
62
1
 6
CONTINUOUS
 66
 1
 10
0
 20
0
 30
0
 70
1
 0
VERTEX
 5
33
  8
0
 10
10700
 20
-6900
 0
VERTEX
 5
33
  8
0
 10
10900
 20
-6900
 0
VERTEX
 5
33
  8
0
 10
10900
 20
-7100
 0
VERTEX
 5
33
  8
0
 10
10700
 20
-7100
 0
SEQEND
 5
37
 8
0
 0
LINE
8
COUCHE_1
 6
CONTINUOUS
62
1
10
10800
20
-7000
11
10800
21
-7000
0
POLYLINE
5
2B
 8
0
62
1
 6
CONTINUOUS
 66
 1
 10
0
 20
0
 30
0
 70
1
 0
VERTEX
 5
33
  8
0
 10
10700
 20
-7700
 0
VERTEX
 5
33
  8
0
 10
10900
 20
-7700
 0
VERTEX
 5
33
  8
0
 10
10900
 20
-7900
 0
VERTEX
 5
33
  8
0
 10
10700
 20
-7900
 0
SEQEND
 5
37
 8
0
 0
LINE
8
COUCHE_1
 6
CONTINUOUS
62
1
10
10800
20
-7800
11
10800
21
-7800
0
TEXT
8
COUCHE_1
 10
11000
 20
-6800
 11
11000
 21
-6800
 40
200
 1
2
50
0
 72
0
 73
3
62
0
 0
LINE
8
COUCHE_1
 6
CONTINUOUS
62
0
10
17600
20
-30200
11
17600
21
-30000
 0
LINE
8
COUCHE_1
 6
CONTINUOUS
62
0
10
17600
20
-30800
11
17600
21
-30600
 0
LINE
8
COUCHE_1
 6
CONTINUOUS
62
0
10
17300
20
-30100
11
17900
21
-30700
 0
CIRCLE
8
COUCHE_1
62
0
 6
CONTINUOUS
10
17600
20
-30400
40
200
0
POLYLINE
5
2B
 8
0
62
1
 6
CONTINUOUS
 66
 1
 10
0
 20
0
 30
0
 70
1
 0
VERTEX
 5
33
  8
0
 10
17500
 20
-29900
 0
VERTEX
 5
33
  8
0
 10
17700
 20
-29900
 0
VERTEX
 5
33
  8
0
 10
17700
 20
-30100
 0
VERTEX
 5
33
  8
0
 10
17500
 20
-30100
 0
SEQEND
 5
37
 8
0
 0
LINE
8
COUCHE_1
 6
CONTINUOUS
62
1
10
17600
20
-30000
11
17600
21
-30000
0
POLYLINE
5
2B
 8
0
62
1
 6
CONTINUOUS
 66
 1
 10
0
 20
0
 30
0
 70
1
 0
VERTEX
 5
33
  8
0
 10
17500
 20
-30700
 0
VERTEX
 5
33
  8
0
 10
17700
 20
-30700
 0
VERTEX
 5
33
  8
0
 10
17700
 20
-30900
 0
VERTEX
 5
33
  8
0
 10
17500
 20
-30900
 0
SEQEND
 5
37
 8
0
 0
LINE
8
COUCHE_1
 6
CONTINUOUS
62
1
10
17600
20
-30800
11
17600
21
-30800
0
TEXT
8
COUCHE_1
 10
17800
 20
-29800
 11
17800
 21
-29800
 40
200
 1
03
50
0
 72
0
 73
3
62
0
 0
LINE
8
COUCHE_1
 6
CONTINUOUS
62
0
10
18800
20
-30200
11
18800
21
-30000
 0
LINE
8
COUCHE_1
 6
CONTINUOUS
62
0
10
18800
20
-30800
11
18800
21
-30600
 0
LINE
8
COUCHE_1
 6
CONTINUOUS
62
0
10
18500
20
-30100
11
19100
21
-30700
 0
CIRCLE
8
COUCHE_1
62
0
 6
CONTINUOUS
10
18800
20
-30400
40
200
0
POLYLINE
5
2B
 8
0
62
1
 6
CONTINUOUS
 66
 1
 10
0
 20
0
 30
0
 70
1
 0
VERTEX
 5
33
  8
0
 10
18700
 20
-29900
 0
VERTEX
 5
33
  8
0
 10
18900
 20
-29900
 0
VERTEX
 5
33
  8
0
 10
18900
 20
-30100
 0
VERTEX
 5
33
  8
0
 10
18700
 20
-30100
 0
SEQEND
 5
37
 8
0
 0
LINE
8
COUCHE_1
 6
CONTINUOUS
62
1
10
18800
20
-30000
11
18800
21
-30000
0
POLYLINE
5
2B
 8
0
62
1
 6
CONTINUOUS
 66
 1
 10
0
 20
0
 30
0
 70
1
 0
VERTEX
 5
33
  8
0
 10
18700
 20
-30700
 0
VERTEX
 5
33
  8
0
 10
18900
 20
-30700
 0
VERTEX
 5
33
  8
0
 10
18900
 20
-30900
 0
VERTEX
 5
33
  8
0
 10
18700
 20
-30900
 0
SEQEND
 5
37
 8
0
 0
LINE
8
COUCHE_1
 6
CONTINUOUS
62
1
10
18800
20
-30800
11
18800
21
-30800
0
TEXT
8
COUCHE_1
 10
19000
 20
-29800
 11
19000
 21
-29800
 40
200
 1
02
50
0
 72
0
 73
3
62
0
 0
LINE
8
COUCHE_1
 6
CONTINUOUS
62
0
10
20200
20
-30200
11
20200
21
-30000
 0
LINE
8
COUCHE_1
 6
CONTINUOUS
62
0
10
20200
20
-30800
11
20200
21
-30600
 0
LINE
8
COUCHE_1
 6
CONTINUOUS
62
0
10
19900
20
-30100
11
20500
21
-30700
 0
CIRCLE
8
COUCHE_1
62
0
 6
CONTINUOUS
10
20200
20
-30400
40
200
0
POLYLINE
5
2B
 8
0
62
1
 6
CONTINUOUS
 66
 1
 10
0
 20
0
 30
0
 70
1
 0
VERTEX
 5
33
  8
0
 10
20100
 20
-29900
 0
VERTEX
 5
33
  8
0
 10
20300
 20
-29900
 0
VERTEX
 5
33
  8
0
 10
20300
 20
-30100
 0
VERTEX
 5
33
  8
0
 10
20100
 20
-30100
 0
SEQEND
 5
37
 8
0
 0
LINE
8
COUCHE_1
 6
CONTINUOUS
62
1
10
20200
20
-30000
11
20200
21
-30000
0
POLYLINE
5
2B
 8
0
62
1
 6
CONTINUOUS
 66
 1
 10
0
 20
0
 30
0
 70
1
 0
VERTEX
 5
33
  8
0
 10
20100
 20
-30700
 0
VERTEX
 5
33
  8
0
 10
20300
 20
-30700
 0
VERTEX
 5
33
  8
0
 10
20300
 20
-30900
 0
VERTEX
 5
33
  8
0
 10
20100
 20
-30900
 0
SEQEND
 5
37
 8
0
 0
LINE
8
COUCHE_1
 6
CONTINUOUS
62
1
10
20200
20
-30800
11
20200
21
-30800
0
TEXT
8
COUCHE_1
 10
20400
 20
-29800
 11
20400
 21
-29800
 40
200
 1
01
50
0
 72
0
 73
3
62
0
 0
LINE
8
COUCHE_1
 6
CONTINUOUS
62
0
10
17600
20
-33800
11
17600
21
-33600
 0
LINE
8
COUCHE_1
 6
CONTINUOUS
62
0
10
17600
20
-34400
11
17600
21
-34200
 0
LINE
8
COUCHE_1
 6
CONTINUOUS
62
0
10
17300
20
-33700
11
17900
21
-34300
 0
CIRCLE
8
COUCHE_1
62
0
 6
CONTINUOUS
10
17600
20
-34000
40
200
0
POLYLINE
5
2B
 8
0
62
1
 6
CONTINUOUS
 66
 1
 10
0
 20
0
 30
0
 70
1
 0
VERTEX
 5
33
  8
0
 10
17500
 20
-33500
 0
VERTEX
 5
33
  8
0
 10
17700
 20
-33500
 0
VERTEX
 5
33
  8
0
 10
17700
 20
-33700
 0
VERTEX
 5
33
  8
0
 10
17500
 20
-33700
 0
SEQEND
 5
37
 8
0
 0
LINE
8
COUCHE_1
 6
CONTINUOUS
62
1
10
17600
20
-33600
11
17600
21
-33600
0
POLYLINE
5
2B
 8
0
62
1
 6
CONTINUOUS
 66
 1
 10
0
 20
0
 30
0
 70
1
 0
VERTEX
 5
33
  8
0
 10
17500
 20
-34300
 0
VERTEX
 5
33
  8
0
 10
17700
 20
-34300
 0
VERTEX
 5
33
  8
0
 10
17700
 20
-34500
 0
VERTEX
 5
33
  8
0
 10
17500
 20
-34500
 0
SEQEND
 5
37
 8
0
 0
LINE
8
COUCHE_1
 6
CONTINUOUS
62
1
10
17600
20
-34400
11
17600
21
-34400
0
TEXT
8
COUCHE_1
 10
17800
 20
-33400
 11
17800
 21
-33400
 40
200
 1
13
50
0
 72
0
 73
3
62
0
 0
LINE
8
COUCHE_1
 6
CONTINUOUS
62
0
10
18800
20
-33800
11
18800
21
-33600
 0
LINE
8
COUCHE_1
 6
CONTINUOUS
62
0
10
18800
20
-34400
11
18800
21
-34200
 0
LINE
8
COUCHE_1
 6
CONTINUOUS
62
0
10
18500
20
-33700
11
19100
21
-34300
 0
CIRCLE
8
COUCHE_1
62
0
 6
CONTINUOUS
10
18800
20
-34000
40
200
0
POLYLINE
5
2B
 8
0
62
1
 6
CONTINUOUS
 66
 1
 10
0
 20
0
 30
0
 70
1
 0
VERTEX
 5
33
  8
0
 10
18700
 20
-33500
 0
VERTEX
 5
33
  8
0
 10
18900
 20
-33500
 0
VERTEX
 5
33
  8
0
 10
18900
 20
-33700
 0
VERTEX
 5
33
  8
0
 10
18700
 20
-33700
 0
SEQEND
 5
37
 8
0
 0
LINE
8
COUCHE_1
 6
CONTINUOUS
62
1
10
18800
20
-33600
11
18800
21
-33600
0
POLYLINE
5
2B
 8
0
62
1
 6
CONTINUOUS
 66
 1
 10
0
 20
0
 30
0
 70
1
 0
VERTEX
 5
33
  8
0
 10
18700
 20
-34300
 0
VERTEX
 5
33
  8
0
 10
18900
 20
-34300
 0
VERTEX
 5
33
  8
0
 10
18900
 20
-34500
 0
VERTEX
 5
33
  8
0
 10
18700
 20
-34500
 0
SEQEND
 5
37
 8
0
 0
LINE
8
COUCHE_1
 6
CONTINUOUS
62
1
10
18800
20
-34400
11
18800
21
-34400
0
TEXT
8
COUCHE_1
 10
19000
 20
-33400
 11
19000
 21
-33400
 40
200
 1
12
50
0
 72
0
 73
3
62
0
 0
LINE
8
COUCHE_1
 6
CONTINUOUS
62
0
10
20200
20
-33800
11
20200
21
-33600
 0
LINE
8
COUCHE_1
 6
CONTINUOUS
62
0
10
20200
20
-34400
11
20200
21
-34200
 0
LINE
8
COUCHE_1
 6
CONTINUOUS
62
0
10
19900
20
-33700
11
20500
21
-34300
 0
CIRCLE
8
COUCHE_1
62
0
 6
CONTINUOUS
10
20200
20
-34000
40
200
0
POLYLINE
5
2B
 8
0
62
1
 6
CONTINUOUS
 66
 1
 10
0
 20
0
 30
0
 70
1
 0
VERTEX
 5
33
  8
0
 10
20100
 20
-33500
 0
VERTEX
 5
33
  8
0
 10
20300
 20
-33500
 0
VERTEX
 5
33
  8
0
 10
20300
 20
-33700
 0
VERTEX
 5
33
  8
0
 10
20100
 20
-33700
 0
SEQEND
 5
37
 8
0
 0
LINE
8
COUCHE_1
 6
CONTINUOUS
62
1
10
20200
20
-33600
11
20200
21
-33600
0
POLYLINE
5
2B
 8
0
62
1
 6
CONTINUOUS
 66
 1
 10
0
 20
0
 30
0
 70
1
 0
VERTEX
 5
33
  8
0
 10
20100
 20
-34300
 0
VERTEX
 5
33
  8
0
 10
20300
 20
-34300
 0
VERTEX
 5
33
  8
0
 10
20300
 20
-34500
 0
VERTEX
 5
33
  8
0
 10
20100
 20
-34500
 0
SEQEND
 5
37
 8
0
 0
LINE
8
COUCHE_1
 6
CONTINUOUS
62
1
10
20200
20
-34400
11
20200
21
-34400
0
TEXT
8
COUCHE_1
 10
20400
 20
-33400
 11
20400
 21
-33400
 40
200
 1
11
50
0
 72
0
 73
3
62
0
 0
LINE
8
COUCHE_1
 6
CONTINUOUS
62
0
10
17800
20
-37000
11
17800
21
-36800
 0
LINE
8
COUCHE_1
 6
CONTINUOUS
62
0
10
17800
20
-37600
11
17800
21
-37400
 0
LINE
8
COUCHE_1
 6
CONTINUOUS
62
0
10
17500
20
-36900
11
18100
21
-37500
 0
CIRCLE
8
COUCHE_1
62
0
 6
CONTINUOUS
10
17800
20
-37200
40
200
0
POLYLINE
5
2B
 8
0
62
1
 6
CONTINUOUS
 66
 1
 10
0
 20
0
 30
0
 70
1
 0
VERTEX
 5
33
  8
0
 10
17700
 20
-36700
 0
VERTEX
 5
33
  8
0
 10
17900
 20
-36700
 0
VERTEX
 5
33
  8
0
 10
17900
 20
-36900
 0
VERTEX
 5
33
  8
0
 10
17700
 20
-36900
 0
SEQEND
 5
37
 8
0
 0
LINE
8
COUCHE_1
 6
CONTINUOUS
62
1
10
17800
20
-36800
11
17800
21
-36800
0
POLYLINE
5
2B
 8
0
62
1
 6
CONTINUOUS
 66
 1
 10
0
 20
0
 30
0
 70
1
 0
VERTEX
 5
33
  8
0
 10
17700
 20
-37500
 0
VERTEX
 5
33
  8
0
 10
17900
 20
-37500
 0
VERTEX
 5
33
  8
0
 10
17900
 20
-37700
 0
VERTEX
 5
33
  8
0
 10
17700
 20
-37700
 0
SEQEND
 5
37
 8
0
 0
LINE
8
COUCHE_1
 6
CONTINUOUS
62
1
10
17800
20
-37600
11
17800
21
-37600
0
TEXT
8
COUCHE_1
 10
18000
 20
-36600
 11
18000
 21
-36600
 40
200
 1
22
50
0
 72
0
 73
3
62
0
 0
LINE
8
COUCHE_1
 6
CONTINUOUS
62
0
10
20200
20
-37000
11
20200
21
-36800
 0
LINE
8
COUCHE_1
 6
CONTINUOUS
62
0
10
20200
20
-37600
11
20200
21
-37400
 0
LINE
8
COUCHE_1
 6
CONTINUOUS
62
0
10
19900
20
-36900
11
20500
21
-37500
 0
CIRCLE
8
COUCHE_1
62
0
 6
CONTINUOUS
10
20200
20
-37200
40
200
0
POLYLINE
5
2B
 8
0
62
1
 6
CONTINUOUS
 66
 1
 10
0
 20
0
 30
0
 70
1
 0
VERTEX
 5
33
  8
0
 10
20100
 20
-36700
 0
VERTEX
 5
33
  8
0
 10
20300
 20
-36700
 0
VERTEX
 5
33
  8
0
 10
20300
 20
-36900
 0
VERTEX
 5
33
  8
0
 10
20100
 20
-36900
 0
SEQEND
 5
37
 8
0
 0
LINE
8
COUCHE_1
 6
CONTINUOUS
62
1
10
20200
20
-36800
11
20200
21
-36800
0
POLYLINE
5
2B
 8
0
62
1
 6
CONTINUOUS
 66
 1
 10
0
 20
0
 30
0
 70
1
 0
VERTEX
 5
33
  8
0
 10
20100
 20
-37500
 0
VERTEX
 5
33
  8
0
 10
20300
 20
-37500
 0
VERTEX
 5
33
  8
0
 10
20300
 20
-37700
 0
VERTEX
 5
33
  8
0
 10
20100
 20
-37700
 0
SEQEND
 5
37
 8
0
 0
LINE
8
COUCHE_1
 6
CONTINUOUS
62
1
10
20200
20
-37600
11
20200
21
-37600
0
TEXT
8
COUCHE_1
 10
20400
 20
-36600
 11
20400
 21
-36600
 40
200
 1
21
50
0
 72
0
 73
3
62
0
 0
LINE
8
COUCHE_1
 6
CONTINUOUS
62
0
10
49400
20
-31600
11
49400
21
-31400
 0
LINE
8
COUCHE_1
 6
CONTINUOUS
62
0
10
49400
20
-32200
11
49400
21
-32000
 0
LINE
8
COUCHE_1
 6
CONTINUOUS
62
0
10
49100
20
-31500
11
49700
21
-32100
 0
CIRCLE
8
COUCHE_1
62
0
 6
CONTINUOUS
10
49400
20
-31800
40
200
0
POLYLINE
5
2B
 8
0
62
1
 6
CONTINUOUS
 66
 1
 10
0
 20
0
 30
0
 70
1
 0
VERTEX
 5
33
  8
0
 10
49300
 20
-31300
 0
VERTEX
 5
33
  8
0
 10
49500
 20
-31300
 0
VERTEX
 5
33
  8
0
 10
49500
 20
-31500
 0
VERTEX
 5
33
  8
0
 10
49300
 20
-31500
 0
SEQEND
 5
37
 8
0
 0
LINE
8
COUCHE_1
 6
CONTINUOUS
62
1
10
49400
20
-31400
11
49400
21
-31400
0
POLYLINE
5
2B
 8
0
62
1
 6
CONTINUOUS
 66
 1
 10
0
 20
0
 30
0
 70
1
 0
VERTEX
 5
33
  8
0
 10
49300
 20
-32100
 0
VERTEX
 5
33
  8
0
 10
49500
 20
-32100
 0
VERTEX
 5
33
  8
0
 10
49500
 20
-32300
 0
VERTEX
 5
33
  8
0
 10
49300
 20
-32300
 0
SEQEND
 5
37
 8
0
 0
LINE
8
COUCHE_1
 6
CONTINUOUS
62
1
10
49400
20
-32200
11
49400
21
-32200
0
TEXT
8
COUCHE_1
 10
49600
 20
-31200
 11
49600
 21
-31200
 40
200
 1
02
50
0
 72
0
 73
3
62
0
 0
LINE
8
COUCHE_1
 6
CONTINUOUS
62
0
10
51800
20
-31600
11
51800
21
-31400
 0
LINE
8
COUCHE_1
 6
CONTINUOUS
62
0
10
51800
20
-32200
11
51800
21
-32000
 0
LINE
8
COUCHE_1
 6
CONTINUOUS
62
0
10
51500
20
-31500
11
52100
21
-32100
 0
CIRCLE
8
COUCHE_1
62
0
 6
CONTINUOUS
10
51800
20
-31800
40
200
0
POLYLINE
5
2B
 8
0
62
1
 6
CONTINUOUS
 66
 1
 10
0
 20
0
 30
0
 70
1
 0
VERTEX
 5
33
  8
0
 10
51700
 20
-31300
 0
VERTEX
 5
33
  8
0
 10
51900
 20
-31300
 0
VERTEX
 5
33
  8
0
 10
51900
 20
-31500
 0
VERTEX
 5
33
  8
0
 10
51700
 20
-31500
 0
SEQEND
 5
37
 8
0
 0
LINE
8
COUCHE_1
 6
CONTINUOUS
62
1
10
51800
20
-31400
11
51800
21
-31400
0
POLYLINE
5
2B
 8
0
62
1
 6
CONTINUOUS
 66
 1
 10
0
 20
0
 30
0
 70
1
 0
VERTEX
 5
33
  8
0
 10
51700
 20
-32100
 0
VERTEX
 5
33
  8
0
 10
51900
 20
-32100
 0
VERTEX
 5
33
  8
0
 10
51900
 20
-32300
 0
VERTEX
 5
33
  8
0
 10
51700
 20
-32300
 0
SEQEND
 5
37
 8
0
 0
LINE
8
COUCHE_1
 6
CONTINUOUS
62
1
10
51800
20
-32200
11
51800
21
-32200
0
TEXT
8
COUCHE_1
 10
52000
 20
-31200
 11
52000
 21
-31200
 40
200
 1
01
50
0
 72
0
 73
3
62
0
 0
LINE
8
COUCHE_1
 6
CONTINUOUS
62
0
10
49400
20
-34400
11
49400
21
-34200
 0
LINE
8
COUCHE_1
 6
CONTINUOUS
62
0
10
49400
20
-35000
11
49400
21
-34800
 0
LINE
8
COUCHE_1
 6
CONTINUOUS
62
0
10
49100
20
-34300
11
49700
21
-34900
 0
CIRCLE
8
COUCHE_1
62
0
 6
CONTINUOUS
10
49400
20
-34600
40
200
0
POLYLINE
5
2B
 8
0
62
1
 6
CONTINUOUS
 66
 1
 10
0
 20
0
 30
0
 70
1
 0
VERTEX
 5
33
  8
0
 10
49300
 20
-34100
 0
VERTEX
 5
33
  8
0
 10
49500
 20
-34100
 0
VERTEX
 5
33
  8
0
 10
49500
 20
-34300
 0
VERTEX
 5
33
  8
0
 10
49300
 20
-34300
 0
SEQEND
 5
37
 8
0
 0
LINE
8
COUCHE_1
 6
CONTINUOUS
62
1
10
49400
20
-34200
11
49400
21
-34200
0
POLYLINE
5
2B
 8
0
62
1
 6
CONTINUOUS
 66
 1
 10
0
 20
0
 30
0
 70
1
 0
VERTEX
 5
33
  8
0
 10
49300
 20
-34900
 0
VERTEX
 5
33
  8
0
 10
49500
 20
-34900
 0
VERTEX
 5
33
  8
0
 10
49500
 20
-35100
 0
VERTEX
 5
33
  8
0
 10
49300
 20
-35100
 0
SEQEND
 5
37
 8
0
 0
LINE
8
COUCHE_1
 6
CONTINUOUS
62
1
10
49400
20
-35000
11
49400
21
-35000
0
TEXT
8
COUCHE_1
 10
49600
 20
-34000
 11
49600
 21
-34000
 40
200
 1
12
50
0
 72
0
 73
3
62
0
 0
LINE
8
COUCHE_1
 6
CONTINUOUS
62
0
10
51800
20
-34400
11
51800
21
-34200
 0
LINE
8
COUCHE_1
 6
CONTINUOUS
62
0
10
51800
20
-35000
11
51800
21
-34800
 0
LINE
8
COUCHE_1
 6
CONTINUOUS
62
0
10
51500
20
-34300
11
52100
21
-34900
 0
CIRCLE
8
COUCHE_1
62
0
 6
CONTINUOUS
10
51800
20
-34600
40
200
0
POLYLINE
5
2B
 8
0
62
1
 6
CONTINUOUS
 66
 1
 10
0
 20
0
 30
0
 70
1
 0
VERTEX
 5
33
  8
0
 10
51700
 20
-34100
 0
VERTEX
 5
33
  8
0
 10
51900
 20
-34100
 0
VERTEX
 5
33
  8
0
 10
51900
 20
-34300
 0
VERTEX
 5
33
  8
0
 10
51700
 20
-34300
 0
SEQEND
 5
37
 8
0
 0
LINE
8
COUCHE_1
 6
CONTINUOUS
62
1
10
51800
20
-34200
11
51800
21
-34200
0
POLYLINE
5
2B
 8
0
62
1
 6
CONTINUOUS
 66
 1
 10
0
 20
0
 30
0
 70
1
 0
VERTEX
 5
33
  8
0
 10
51700
 20
-34900
 0
VERTEX
 5
33
  8
0
 10
51900
 20
-34900
 0
VERTEX
 5
33
  8
0
 10
51900
 20
-35100
 0
VERTEX
 5
33
  8
0
 10
51700
 20
-35100
 0
SEQEND
 5
37
 8
0
 0
LINE
8
COUCHE_1
 6
CONTINUOUS
62
1
10
51800
20
-35000
11
51800
21
-35000
0
TEXT
8
COUCHE_1
 10
52000
 20
-34000
 11
52000
 21
-34000
 40
200
 1
11
50
0
 72
0
 73
3
62
0
 0
LINE
8
COUCHE_1
 6
CONTINUOUS
62
0
10
36400
20
-11000
11
36400
21
-10800
 0
LINE
8
COUCHE_1
 6
CONTINUOUS
62
0
10
36400
20
-11600
11
36400
21
-11400
 0
LINE
8
COUCHE_1
 6
CONTINUOUS
62
0
10
36100
20
-10900
11
36700
21
-11500
 0
CIRCLE
8
COUCHE_1
62
0
 6
CONTINUOUS
10
36400
20
-11200
40
200
0
POLYLINE
5
2B
 8
0
62
1
 6
CONTINUOUS
 66
 1
 10
0
 20
0
 30
0
 70
1
 0
VERTEX
 5
33
  8
0
 10
36300
 20
-10700
 0
VERTEX
 5
33
  8
0
 10
36500
 20
-10700
 0
VERTEX
 5
33
  8
0
 10
36500
 20
-10900
 0
VERTEX
 5
33
  8
0
 10
36300
 20
-10900
 0
SEQEND
 5
37
 8
0
 0
LINE
8
COUCHE_1
 6
CONTINUOUS
62
1
10
36400
20
-10800
11
36400
21
-10800
0
POLYLINE
5
2B
 8
0
62
1
 6
CONTINUOUS
 66
 1
 10
0
 20
0
 30
0
 70
1
 0
VERTEX
 5
33
  8
0
 10
36300
 20
-11500
 0
VERTEX
 5
33
  8
0
 10
36500
 20
-11500
 0
VERTEX
 5
33
  8
0
 10
36500
 20
-11700
 0
VERTEX
 5
33
  8
0
 10
36300
 20
-11700
 0
SEQEND
 5
37
 8
0
 0
LINE
8
COUCHE_1
 6
CONTINUOUS
62
1
10
36400
20
-11600
11
36400
21
-11600
0
TEXT
8
COUCHE_1
 10
36600
 20
-10600
 11
36600
 21
-10600
 40
200
 1
1
50
0
 72
0
 73
3
62
0
 0
LINE
8
COUCHE_1
 6
CONTINUOUS
62
0
10
37400
20
-11000
11
37400
21
-10800
 0
LINE
8
COUCHE_1
 6
CONTINUOUS
62
0
10
37400
20
-11600
11
37400
21
-11400
 0
LINE
8
COUCHE_1
 6
CONTINUOUS
62
0
10
37100
20
-10900
11
37700
21
-11500
 0
CIRCLE
8
COUCHE_1
62
0
 6
CONTINUOUS
10
37400
20
-11200
40
200
0
POLYLINE
5
2B
 8
0
62
1
 6
CONTINUOUS
 66
 1
 10
0
 20
0
 30
0
 70
1
 0
VERTEX
 5
33
  8
0
 10
37300
 20
-10700
 0
VERTEX
 5
33
  8
0
 10
37500
 20
-10700
 0
VERTEX
 5
33
  8
0
 10
37500
 20
-10900
 0
VERTEX
 5
33
  8
0
 10
37300
 20
-10900
 0
SEQEND
 5
37
 8
0
 0
LINE
8
COUCHE_1
 6
CONTINUOUS
62
1
10
37400
20
-10800
11
37400
21
-10800
0
POLYLINE
5
2B
 8
0
62
1
 6
CONTINUOUS
 66
 1
 10
0
 20
0
 30
0
 70
1
 0
VERTEX
 5
33
  8
0
 10
37300
 20
-11500
 0
VERTEX
 5
33
  8
0
 10
37500
 20
-11500
 0
VERTEX
 5
33
  8
0
 10
37500
 20
-11700
 0
VERTEX
 5
33
  8
0
 10
37300
 20
-11700
 0
SEQEND
 5
37
 8
0
 0
LINE
8
COUCHE_1
 6
CONTINUOUS
62
1
10
37400
20
-11600
11
37400
21
-11600
0
TEXT
8
COUCHE_1
 10
37600
 20
-10600
 11
37600
 21
-10600
 40
200
 1
2
50
0
 72
0
 73
3
62
0
 0
LINE
8
COUCHE_1
 6
CONTINUOUS
62
0
10
16400
20
-33600
11
16400
21
-33400
 0
LINE
8
COUCHE_1
 6
CONTINUOUS
62
0
10
16400
20
-34200
11
16400
21
-34000
 0
LINE
8
COUCHE_1
 6
CONTINUOUS
62
0
10
16100
20
-33500
11
16700
21
-34100
 0
CIRCLE
8
COUCHE_1
62
0
 6
CONTINUOUS
10
16400
20
-33800
40
200
0
POLYLINE
5
2B
 8
0
62
1
 6
CONTINUOUS
 66
 1
 10
0
 20
0
 30
0
 70
1
 0
VERTEX
 5
33
  8
0
 10
16300
 20
-33300
 0
VERTEX
 5
33
  8
0
 10
16500
 20
-33300
 0
VERTEX
 5
33
  8
0
 10
16500
 20
-33500
 0
VERTEX
 5
33
  8
0
 10
16300
 20
-33500
 0
SEQEND
 5
37
 8
0
 0
LINE
8
COUCHE_1
 6
CONTINUOUS
62
1
10
16400
20
-33400
11
16400
21
-33400
0
POLYLINE
5
2B
 8
0
62
1
 6
CONTINUOUS
 66
 1
 10
0
 20
0
 30
0
 70
1
 0
VERTEX
 5
33
  8
0
 10
16300
 20
-34100
 0
VERTEX
 5
33
  8
0
 10
16500
 20
-34100
 0
VERTEX
 5
33
  8
0
 10
16500
 20
-34300
 0
VERTEX
 5
33
  8
0
 10
16300
 20
-34300
 0
SEQEND
 5
37
 8
0
 0
LINE
8
COUCHE_1
 6
CONTINUOUS
62
1
10
16400
20
-34200
11
16400
21
-34200
0
TEXT
8
COUCHE_1
 10
16600
 20
-33400
 11
16600
 21
-33400
 40
200
 1
14
50
0
 72
0
 73
3
62
0
 0
LINE
8
COUCHE_1
 6
CONTINUOUS
62
0
10
8600
20
-5000
11
11400
21
-5000
 0
LINE
8
COUCHE_1
 6
CONTINUOUS
62
0
10
8600
20
-5000
11
8600
21
-2200
 0
LINE
8
COUCHE_1
 6
CONTINUOUS
62
0
10
8600
20
-2200
11
11400
21
-2200
 0
LINE
8
COUCHE_1
 6
CONTINUOUS
62
0
10
11400
20
-5000
11
11400
21
-2200
 0
CIRCLE
8
COUCHE_1
62
0
 6
CONTINUOUS
10
10000
20
-3600
40
1000
 0
CIRCLE
8
COUCHE_1
62
0
 6
CONTINUOUS
10
9500
20
-3600
40
200
 0
CIRCLE
8
COUCHE_1
62
0
 6
CONTINUOUS
10
10500
20
-3600
40
200
 0
CIRCLE
8
COUCHE_1
62
0
 6
CONTINUOUS
10
10000
20
-4200
40
200
0
POLYLINE
5
2B
 8
0
62
1
 6
CONTINUOUS
 66
 1
 10
0
 20
0
 30
0
 70
1
 0
VERTEX
 5
33
  8
0
 10
10700
 20
-5700
 0
VERTEX
 5
33
  8
0
 10
10900
 20
-5700
 0
VERTEX
 5
33
  8
0
 10
10900
 20
-5900
 0
VERTEX
 5
33
  8
0
 10
10700
 20
-5900
 0
SEQEND
 5
37
 8
0
 0
LINE
8
COUCHE_1
 6
CONTINUOUS
62
1
10
10800
20
-5800
11
10800
21
-5000
0
POLYLINE
5
2B
 8
0
62
1
 6
CONTINUOUS
 66
 1
 10
0
 20
0
 30
0
 70
1
 0
VERTEX
 5
33
  8
0
 10
9100
 20
-5700
 0
VERTEX
 5
33
  8
0
 10
9300
 20
-5700
 0
VERTEX
 5
33
  8
0
 10
9300
 20
-5900
 0
VERTEX
 5
33
  8
0
 10
9100
 20
-5900
 0
SEQEND
 5
37
 8
0
 0
LINE
8
COUCHE_1
 6
CONTINUOUS
62
1
10
9200
20
-5800
11
9200
21
-5000
0
TEXT
8
COUCHE_1
 10
8600
 20
-1800
 11
8600
 21
-1800
 40
200
 1
Secteur 230V/50Hz
50
0
 72
0
 73
3
62
0
 0
LINE
8
COUCHE_1
 6
CONTINUOUS
62
0
10
36900
20
-6900
11
37400
21
-6400
 0
LINE
8
COUCHE_1
 6
CONTINUOUS
62
0
10
37400
20
-6400
11
37500
21
-6500
 0
LINE
8
COUCHE_1
 6
CONTINUOUS
62
0
10
37500
20
-6500
11
36900
21
-6900
 0
LINE
8
COUCHE_1
 6
CONTINUOUS
62
0
10
36900
20
-6900
11
37400
21
-7400
 0
LINE
8
COUCHE_1
 6
CONTINUOUS
62
0
10
37400
20
-7400
11
37300
21
-7500
 0
LINE
8
COUCHE_1
 6
CONTINUOUS
62
0
10
37300
20
-7500
11
36900
21
-6900
 0
LINE
8
COUCHE_1
 6
CONTINUOUS
62
0
10
36900
20
-6900
11
36400
21
-7400
 0
LINE
8
COUCHE_1
 6
CONTINUOUS
62
0
10
36400
20
-7400
11
36300
21
-7300
 0
LINE
8
COUCHE_1
 6
CONTINUOUS
62
0
10
36300
20
-7300
11
36900
21
-6900
 0
LINE
8
COUCHE_1
 6
CONTINUOUS
62
0
10
36900
20
-6900
11
36400
21
-6400
 0
LINE
8
COUCHE_1
 6
CONTINUOUS
62
0
10
36400
20
-6400
11
36500
21
-6300
 0
LINE
8
COUCHE_1
 6
CONTINUOUS
62
0
10
36500
20
-6300
11
36900
21
-6900
 0
LINE
8
COUCHE_1
 6
CONTINUOUS
62
0
10
36400
20
-8100
11
36400
21
-7500
 0
LINE
8
COUCHE_1
 6
CONTINUOUS
62
0
10
37400
20
-8200
11
37400
21
-7500
 0
CIRCLE
8
COUCHE_1
62
0
 6
CONTINUOUS
10
36900
20
-6900
40
800
0
POLYLINE
5
2B
 8
0
62
1
 6
CONTINUOUS
 66
 1
 10
0
 20
0
 30
0
 70
1
 0
VERTEX
 5
33
  8
0
 10
37300
 20
-8400
 0
VERTEX
 5
33
  8
0
 10
37500
 20
-8400
 0
VERTEX
 5
33
  8
0
 10
37500
 20
-8600
 0
VERTEX
 5
33
  8
0
 10
37300
 20
-8600
 0
SEQEND
 5
37
 8
0
 0
LINE
8
COUCHE_1
 6
CONTINUOUS
62
1
10
37400
20
-8500
11
37400
21
-8100
0
TEXT
8
COUCHE_1
 10
37450
 20
-8150
 11
37450
 21
-8150
 40
150
 1
1
50
0
 72
0
 73
3
62
4
0
POLYLINE
5
2B
 8
0
62
1
 6
CONTINUOUS
 66
 1
 10
0
 20
0
 30
0
 70
1
 0
VERTEX
 5
33
  8
0
 10
36300
 20
-8400
 0
VERTEX
 5
33
  8
0
 10
36500
 20
-8400
 0
VERTEX
 5
33
  8
0
 10
36500
 20
-8600
 0
VERTEX
 5
33
  8
0
 10
36300
 20
-8600
 0
SEQEND
 5
37
 8
0
 0
LINE
8
COUCHE_1
 6
CONTINUOUS
62
1
10
36400
20
-8500
11
36400
21
-8100
0
TEXT
8
COUCHE_1
 10
36450
 20
-8150
 11
36450
 21
-8150
 40
150
 1
2
50
0
 72
0
 73
3
62
4
0
TEXT
8
COUCHE_1
 10
36800
 20
-5600
 11
36800
 21
-5600
 40
200
 1
Ve1
50
0
 72
1
 73
3
62
0
 0
LINE
8
COUCHE_1
 6
CONTINUOUS
62
0
10
36850
20
-13000
11
37150
21
-13000
 0
LINE
8
COUCHE_1
 6
CONTINUOUS
62
0
10
36900
20
-13050
11
37100
21
-13050
 0
LINE
8
COUCHE_1
 6
CONTINUOUS
62
0
10
36950
20
-13100
11
37050
21
-13100
0
POLYLINE
5
2B
 8
0
62
1
 6
CONTINUOUS
 66
 1
 10
0
 20
0
 30
0
 70
1
 0
VERTEX
 5
33
  8
0
 10
36975
 20
-12775
 0
VERTEX
 5
33
  8
0
 10
37025
 20
-12775
 0
VERTEX
 5
33
  8
0
 10
37025
 20
-12825
 0
VERTEX
 5
33
  8
0
 10
36975
 20
-12825
 0
SEQEND
 5
37
 8
0
 0
LINE
8
COUCHE_1
 6
CONTINUOUS
62
1
10
37000
20
-12800
11
37000
21
-13000
 0
LINE
8
COUCHE_1
 6
CONTINUOUS
62
0
10
9200
20
-21200
11
9200
21
-17400
 0
LINE
8
COUCHE_1
 6
CONTINUOUS
62
0
10
8400
20
-21200
11
9200
21
-21200
 0
LINE
8
COUCHE_1
 6
CONTINUOUS
62
0
10
8400
20
-23200
11
8400
21
-21200
 0
LINE
8
COUCHE_1
 6
CONTINUOUS
62
0
10
9200
20
-21200
11
43200
21
-21200
 0
LINE
8
COUCHE_1
 6
CONTINUOUS
62
0
10
43200
20
-22800
11
43200
21
-21200
 0
LINE
8
COUCHE_1
 6
CONTINUOUS
62
0
10
10800
20
-20400
11
10800
21
-17400
 0
LINE
8
COUCHE_1
 6
CONTINUOUS
62
0
10
10800
20
-20400
11
11200
21
-20400
 0
LINE
8
COUCHE_1
 6
CONTINUOUS
62
0
10
11200
20
-23200
11
11200
21
-20400
 0
LINE
8
COUCHE_1
 6
CONTINUOUS
62
0
10
46000
20
-22800
11
46000
21
-20400
 0
LINE
8
COUCHE_1
 6
CONTINUOUS
62
0
10
11200
20
-20400
11
46000
21
-20400
 0
LINE
8
COUCHE_1
 6
CONTINUOUS
62
0
10
9200
20
-18800
11
14000
21
-18800
 0
LINE
8
COUCHE_1
 6
CONTINUOUS
62
0
10
10800
20
-19200
11
37400
21
-19200
 0
LINE
8
COUCHE_1
 6
CONTINUOUS
62
0
10
14000
20
-18800
11
36400
21
-18800
 0
LINE
8
COUCHE_1
 6
CONTINUOUS
62
0
10
11200
20
-29800
11
11200
21
-28600
 0
LINE
8
COUCHE_1
 6
CONTINUOUS
62
0
10
11200
20
-29800
11
19600
21
-29800
 0
LINE
8
COUCHE_1
 6
CONTINUOUS
62
0
10
19600
20
-29800
11
19800
21
-29800
 0
LINE
8
COUCHE_1
 6
CONTINUOUS
62
0
10
19800
20
-29800
11
20200
21
-29800
 0
LINE
8
COUCHE_1
 6
CONTINUOUS
62
0
10
20200
20
-32200
11
20200
21
-30800
 0
LINE
8
COUCHE_1
 6
CONTINUOUS
62
0
10
18800
20
-32200
11
18800
21
-30800
 0
LINE
8
COUCHE_1
 6
CONTINUOUS
62
0
10
11200
20
-33400
11
19600
21
-33400
 0
LINE
8
COUCHE_1
 6
CONTINUOUS
62
0
10
19600
20
-33400
11
19800
21
-33400
 0
LINE
8
COUCHE_1
 6
CONTINUOUS
62
0
10
19800
20
-33400
11
20200
21
-33400
 0
LINE
8
COUCHE_1
 6
CONTINUOUS
62
0
10
20200
20
-34400
11
20200
21
-35200
 0
LINE
8
COUCHE_1
 6
CONTINUOUS
62
0
10
11200
20
-36600
11
19600
21
-36600
 0
LINE
8
COUCHE_1
 6
CONTINUOUS
62
0
10
19600
20
-36600
11
19800
21
-36600
 0
LINE
8
COUCHE_1
 6
CONTINUOUS
62
0
10
19800
20
-36600
11
20200
21
-36600
 0
LINE
8
COUCHE_1
 6
CONTINUOUS
62
0
10
20200
20
-38800
11
20200
21
-37600
 0
LINE
8
COUCHE_1
 6
CONTINUOUS
62
0
10
17800
20
-38800
11
17800
21
-37600
 0
LINE
8
COUCHE_1
 6
CONTINUOUS
62
0
10
8400
20
-33400
11
11200
21
-33400
 0
LINE
8
COUCHE_1
 6
CONTINUOUS
62
0
10
8400
20
-33400
11
8400
21
-28600
 0
LINE
8
COUCHE_1
 6
CONTINUOUS
62
0
10
7000
20
-36600
11
11200
21
-36600
 0
LINE
8
COUCHE_1
 6
CONTINUOUS
62
0
10
7000
20
-36600
11
7000
21
-26400
 0
LINE
8
COUCHE_1
 6
CONTINUOUS
62
0
10
46000
20
-31200
11
51200
21
-31200
 0
LINE
8
COUCHE_1
 6
CONTINUOUS
62
0
10
51200
20
-31200
11
51400
21
-31200
 0
LINE
8
COUCHE_1
 6
CONTINUOUS
62
0
10
51400
20
-31200
11
51800
21
-31200
 0
LINE
8
COUCHE_1
 6
CONTINUOUS
62
0
10
51800
20
-32800
11
51800
21
-32200
 0
LINE
8
COUCHE_1
 6
CONTINUOUS
62
0
10
49400
20
-32800
11
49400
21
-32200
 0
LINE
8
COUCHE_1
 6
CONTINUOUS
62
0
10
46400
20
-34000
11
51200
21
-34000
 0
LINE
8
COUCHE_1
 6
CONTINUOUS
62
0
10
51200
20
-34000
11
51400
21
-34000
 0
LINE
8
COUCHE_1
 6
CONTINUOUS
62
0
10
51400
20
-34000
11
51800
21
-34000
 0
LINE
8
COUCHE_1
 6
CONTINUOUS
62
0
10
51800
20
-36200
11
51800
21
-35000
 0
LINE
8
COUCHE_1
 6
CONTINUOUS
62
0
10
49400
20
-36200
11
49400
21
-35000
 0
LINE
8
COUCHE_1
 6
CONTINUOUS
62
0
10
46000
20
-31200
11
46000
21
-28200
 0
LINE
8
COUCHE_1
 6
CONTINUOUS
62
0
10
43200
20
-34000
11
46400
21
-34000
 0
LINE
8
COUCHE_1
 6
CONTINUOUS
62
0
10
43200
20
-34000
11
43200
21
-28200
 0
LINE
8
COUCHE_1
 6
CONTINUOUS
62
0
10
41000
20
-26000
11
41800
21
-26000
 0
LINE
8
COUCHE_1
 6
CONTINUOUS
62
0
10
41000
20
-26600
11
41000
21
-26000
 0
LINE
8
COUCHE_1
 6
CONTINUOUS
62
0
10
9200
20
-13000
11
9200
21
-12200
 0
LINE
8
COUCHE_1
 6
CONTINUOUS
62
0
10
10800
20
-13000
11
10800
21
-12200
 0
LINE
8
COUCHE_1
 6
CONTINUOUS
62
0
10
9200
20
-9000
11
9200
21
-7800
 0
LINE
8
COUCHE_1
 6
CONTINUOUS
62
0
10
10800
20
-9000
11
10800
21
-7800
 0
LINE
8
COUCHE_1
 6
CONTINUOUS
62
0
10
8200
20
-6600
11
14200
21
-6600
 0
LINE
8
COUCHE_1
 6
CONTINUOUS
62
0
10
40800
20
-12400
11
35400
21
-12400
 0
LINE
8
COUCHE_1
 6
CONTINUOUS
62
0
10
9200
20
-19400
11
7000
21
-19400
 0
LINE
8
COUCHE_1
 6
CONTINUOUS
62
0
10
7000
20
-19400
11
7000
21
-19800
 0
LINE
8
COUCHE_1
 6
CONTINUOUS
62
0
10
10800
20
-19600
11
8000
21
-19600
 0
LINE
8
COUCHE_1
 6
CONTINUOUS
62
0
10
8000
20
-19600
11
8000
21
-19800
 0
LINE
8
COUCHE_1
 6
ACAD_ISO07W100
62
0
10
10000
20
-8400
11
10000
21
-4800
 0
LINE
8
COUCHE_1
 6
ACAD_ISO07W100
62
0
10
7200
20
-8400
11
10000
21
-8400
 0
LINE
8
COUCHE_1
 6
ACAD_ISO07W100
62
0
10
7200
20
-8400
11
4600
21
-8400
 0
LINE
8
COUCHE_1
 6
ACAD_ISO07W100
62
0
10
4600
20
-23800
11
4600
21
-8400
 0
LINE
8
COUCHE_1
 6
ACAD_ISO07W100
62
0
10
8000
20
-23800
11
4600
21
-23800
 0
LINE
8
COUCHE_1
 6
ACAD_ISO07W100
62
0
10
8000
20
-24800
11
8000
21
-23800
 0
LINE
8
COUCHE_1
 6
ACAD_ISO07W100
62
0
10
4600
20
-19400
11
6000
21
-19400
 0
LINE
8
COUCHE_1
 6
ACAD_ISO07W100
62
0
10
6000
20
-19400
11
6000
21
-19800
 0
LINE
8
COUCHE_1
 6
CONTINUOUS
62
0
10
18800
20
-34400
11
18800
21
-35200
 0
LINE
8
COUCHE_1
 6
ACAD_ISO07W100
62
0
10
8000
20
-23800
11
42800
21
-23800
 0
LINE
8
COUCHE_1
 6
ACAD_ISO07W100
62
0
10
42800
20
-24400
11
42800
21
-23800
 0
LINE
8
COUCHE_1
 6
CONTINUOUS
62
0
10
17600
20
-30000
11
17600
21
-29800
 0
LINE
8
COUCHE_1
 6
CONTINUOUS
62
0
10
18800
20
-30000
11
18800
21
-29800
 0
LINE
8
COUCHE_1
 6
CONTINUOUS
62
0
10
20200
20
-30000
11
20200
21
-29800
 0
LINE
8
COUCHE_1
 6
CONTINUOUS
62
0
10
17600
20
-33600
11
17600
21
-33400
 0
LINE
8
COUCHE_1
 6
CONTINUOUS
62
0
10
18800
20
-33600
11
18800
21
-33400
 0
LINE
8
COUCHE_1
 6
CONTINUOUS
62
0
10
20200
20
-33600
11
20200
21
-33400
 0
LINE
8
COUCHE_1
 6
CONTINUOUS
62
0
10
17800
20
-36800
11
17800
21
-36600
 0
LINE
8
COUCHE_1
 6
CONTINUOUS
62
0
10
20200
20
-36800
11
20200
21
-36600
 0
LINE
8
COUCHE_1
 6
CONTINUOUS
62
0
10
49400
20
-31400
11
49400
21
-31200
 0
LINE
8
COUCHE_1
 6
CONTINUOUS
62
0
10
51800
20
-31400
11
51800
21
-31200
 0
LINE
8
COUCHE_1
 6
CONTINUOUS
62
0
10
49400
20
-34200
11
49400
21
-34000
 0
LINE
8
COUCHE_1
 6
CONTINUOUS
62
0
10
51800
20
-34200
11
51800
21
-34000
 0
LINE
8
COUCHE_1
 6
CONTINUOUS
62
0
10
9200
20
-7200
11
9200
21
-5800
 0
LINE
8
COUCHE_1
 6
CONTINUOUS
62
0
10
10800
20
-7000
11
10800
21
-5800
 0
LINE
8
COUCHE_1
 6
CONTINUOUS
62
0
10
36400
20
-18800
11
36400
21
-11600
 0
LINE
8
COUCHE_1
 6
CONTINUOUS
62
0
10
37400
20
-19200
11
37400
21
-11600
 0
LINE
8
COUCHE_1
 6
CONTINUOUS
62
0
10
36400
20
-10800
11
36400
21
-9200
 0
LINE
8
COUCHE_1
 6
CONTINUOUS
62
0
10
37400
20
-9200
11
37400
21
-10800
 0
LINE
8
COUCHE_1
 6
CONTINUOUS
62
0
10
17600
20
-34400
11
17600
21
-35000
 0
LINE
8
COUCHE_1
 6
CONTINUOUS
62
0
10
17600
20
-35200
11
17600
21
-35000
 0
LINE
8
COUCHE_1
 6
CONTINUOUS
62
0
10
17600
20
-32200
11
17600
21
-30800
 0
LINE
8
COUCHE_1
 6
CONTINUOUS
62
0
10
16400
20
-34200
11
16400
21
-35000
 0
LINE
8
COUCHE_1
 6
CONTINUOUS
62
0
10
16400
20
-35200
11
16400
21
-35000
 0
LINE
8
COUCHE_1
 6
CONTINUOUS
62
0
10
36400
20
-8400
11
36400
21
-9200
 0
LINE
8
COUCHE_1
 6
CONTINUOUS
62
0
10
37400
20
-8400
11
37400
21
-9200
 0
LINE
8
COUCHE_1
 6
ACAD_ISO07W100
62
0
10
37000
20
-12800
11
37000
21
-7800
 0
CIRCLE
8
COUCHE_1
62
5
 6
CONTINUOUS
10
9200
20
-21200
40
40
 0
CIRCLE
8
COUCHE_1
62
5
 6
CONTINUOUS
10
11200
20
-20400
40
40
 0
CIRCLE
8
COUCHE_1
62
5
 6
CONTINUOUS
10
9200
20
-18800
40
40
 0
CIRCLE
8
COUCHE_1
62
5
 6
CONTINUOUS
10
10800
20
-19200
40
40
 0
CIRCLE
8
COUCHE_1
62
5
 6
CONTINUOUS
10
18800
20
-29800
40
40
 0
CIRCLE
8
COUCHE_1
62
5
 6
CONTINUOUS
10
17600
20
-29800
40
40
 0
CIRCLE
8
COUCHE_1
62
5
 6
CONTINUOUS
10
17600
20
-29800
40
40
 0
CIRCLE
8
COUCHE_1
62
5
 6
CONTINUOUS
10
18800
20
-33400
40
40
 0
CIRCLE
8
COUCHE_1
62
5
 6
CONTINUOUS
10
17600
20
-33400
40
40
 0
CIRCLE
8
COUCHE_1
62
5
 6
CONTINUOUS
10
17800
20
-36600
40
40
 0
CIRCLE
8
COUCHE_1
62
5
 6
CONTINUOUS
10
49400
20
-31200
40
40
 0
CIRCLE
8
COUCHE_1
62
5
 6
CONTINUOUS
10
49400
20
-34000
40
40
 0
CIRCLE
8
COUCHE_1
62
5
 6
CONTINUOUS
10
9200
20
-19400
40
40
 0
CIRCLE
8
COUCHE_1
62
5
 6
CONTINUOUS
10
10800
20
-19600
40
40
 0
CIRCLE
8
COUCHE_1
62
5
 6
CONTINUOUS
10
4600
20
-19400
40
40
 0
CIRCLE
8
COUCHE_1
62
5
 6
CONTINUOUS
10
8000
20
-23800
40
40
 0
CIRCLE
8
COUCHE_1
62
5
 6
CONTINUOUS
10
16400
20
-29800
40
40
0
POLYLINE
5
2B
 8
0
62
1
 6
CONTINUOUS
 66
 1
 10
0
 20
0
 30
0
 70
1
 0
VERTEX
 5
33
  8
0
 10
51800
 20
-33000
 0
VERTEX
 5
33
  8
0
 10
51600
 20
-32900
 0
VERTEX
 5
33
  8
0
 10
51800
 20
-33200
 0
VERTEX
 5
33
  8
0
 10
52000
 20
-32900
 0
SEQEND
 5
37
 8
0
 0
LINE
8
COUCHE_1
 6
CONTINUOUS
62
1
10
51800
20
-32800
11
51800
21
-33000
0
TEXT
8
COUCHE_1
 10
51800
 20
-33200
 11
51800
 21
-33200
 40
150
 1
A_24_D1
50
0
 72
1
 73
3
62
1
0
POLYLINE
5
2B
 8
0
62
1
 6
CONTINUOUS
 66
 1
 10
0
 20
0
 30
0
 70
1
 0
VERTEX
 5
33
  8
0
 10
49400
 20
-33000
 0
VERTEX
 5
33
  8
0
 10
49200
 20
-32900
 0
VERTEX
 5
33
  8
0
 10
49400
 20
-33200
 0
VERTEX
 5
33
  8
0
 10
49600
 20
-32900
 0
SEQEND
 5
37
 8
0
 0
LINE
8
COUCHE_1
 6
CONTINUOUS
62
1
10
49400
20
-32800
11
49400
21
-33000
0
TEXT
8
COUCHE_1
 10
49400
 20
-33200
 11
49400
 21
-33200
 40
150
 1
A_24_D2
50
0
 72
1
 73
3
62
1
0
POLYLINE
5
2B
 8
0
62
1
 6
CONTINUOUS
 66
 1
 10
0
 20
0
 30
0
 70
1
 0
VERTEX
 5
33
  8
0
 10
51800
 20
-36400
 0
VERTEX
 5
33
  8
0
 10
51600
 20
-36300
 0
VERTEX
 5
33
  8
0
 10
51800
 20
-36600
 0
VERTEX
 5
33
  8
0
 10
52000
 20
-36300
 0
SEQEND
 5
37
 8
0
 0
LINE
8
COUCHE_1
 6
CONTINUOUS
62
1
10
51800
20
-36200
11
51800
21
-36400
0
TEXT
8
COUCHE_1
 10
51800
 20
-36600
 11
51800
 21
-36600
 40
150
 1
A_0_D1
50
0
 72
1
 73
3
62
1
0
POLYLINE
5
2B
 8
0
62
1
 6
CONTINUOUS
 66
 1
 10
0
 20
0
 30
0
 70
1
 0
VERTEX
 5
33
  8
0
 10
49400
 20
-36400
 0
VERTEX
 5
33
  8
0
 10
49200
 20
-36300
 0
VERTEX
 5
33
  8
0
 10
49400
 20
-36600
 0
VERTEX
 5
33
  8
0
 10
49600
 20
-36300
 0
SEQEND
 5
37
 8
0
 0
LINE
8
COUCHE_1
 6
CONTINUOUS
62
1
10
49400
20
-36200
11
49400
21
-36400
0
TEXT
8
COUCHE_1
 10
49400
 20
-36600
 11
49400
 21
-36600
 40
150
 1
A_0_D2
50
0
 72
1
 73
3
62
1
0
POLYLINE
5
2B
 8
0
62
1
 6
CONTINUOUS
 66
 1
 10
0
 20
0
 30
0
 70
1
 0
VERTEX
 5
33
  8
0
 10
20200
 20
-32400
 0
VERTEX
 5
33
  8
0
 10
20000
 20
-32300
 0
VERTEX
 5
33
  8
0
 10
20200
 20
-32600
 0
VERTEX
 5
33
  8
0
 10
20400
 20
-32300
 0
SEQEND
 5
37
 8
0
 0
LINE
8
COUCHE_1
 6
CONTINUOUS
62
1
10
20200
20
-32200
11
20200
21
-32400
0
TEXT
8
COUCHE_1
 10
20200
 20
-32600
 11
20200
 21
-32600
 40
150
 1
A_24_B2
50
0
 72
1
 73
3
62
1
0
POLYLINE
5
2B
 8
0
62
1
 6
CONTINUOUS
 66
 1
 10
0
 20
0
 30
0
 70
1
 0
VERTEX
 5
33
  8
0
 10
20200
 20
-35400
 0
VERTEX
 5
33
  8
0
 10
20000
 20
-35300
 0
VERTEX
 5
33
  8
0
 10
20200
 20
-35600
 0
VERTEX
 5
33
  8
0
 10
20400
 20
-35300
 0
SEQEND
 5
37
 8
0
 0
LINE
8
COUCHE_1
 6
CONTINUOUS
62
1
10
20200
20
-35200
11
20200
21
-35400
0
TEXT
8
COUCHE_1
 10
20200
 20
-35600
 11
20200
 21
-35600
 40
150
 1
A_0_B2
50
0
 72
1
 73
3
62
1
0
POLYLINE
5
2B
 8
0
62
1
 6
CONTINUOUS
 66
 1
 10
0
 20
0
 30
0
 70
1
 0
VERTEX
 5
33
  8
0
 10
17800
 20
-39000
 0
VERTEX
 5
33
  8
0
 10
17600
 20
-38900
 0
VERTEX
 5
33
  8
0
 10
17800
 20
-39200
 0
VERTEX
 5
33
  8
0
 10
18000
 20
-38900
 0
SEQEND
 5
37
 8
0
 0
LINE
8
COUCHE_1
 6
CONTINUOUS
62
1
10
17800
20
-38800
11
17800
21
-39000
0
TEXT
8
COUCHE_1
 10
17800
 20
-39200
 11
17800
 21
-39200
 40
150
 1
A_T_B2
50
0
 72
1
 73
3
62
1
0
POLYLINE
5
2B
 8
0
62
1
 6
CONTINUOUS
 66
 1
 10
0
 20
0
 30
0
 70
1
 0
VERTEX
 5
33
  8
0
 10
8000
 20
-20000
 0
VERTEX
 5
33
  8
0
 10
7800
 20
-19900
 0
VERTEX
 5
33
  8
0
 10
8000
 20
-20200
 0
VERTEX
 5
33
  8
0
 10
8200
 20
-19900
 0
SEQEND
 5
37
 8
0
 0
LINE
8
COUCHE_1
 6
CONTINUOUS
62
1
10
8000
20
-19800
11
8000
21
-20000
0
TEXT
8
COUCHE_1
 10
8000
 20
-20200
 11
8000
 21
-20200
 40
150
 1
A220_0
50
0
 72
1
 73
3
62
1
0
POLYLINE
5
2B
 8
0
62
1
 6
CONTINUOUS
 66
 1
 10
0
 20
0
 30
0
 70
1
 0
VERTEX
 5
33
  8
0
 10
7000
 20
-20000
 0
VERTEX
 5
33
  8
0
 10
6800
 20
-19900
 0
VERTEX
 5
33
  8
0
 10
7000
 20
-20200
 0
VERTEX
 5
33
  8
0
 10
7200
 20
-19900
 0
SEQEND
 5
37
 8
0
 0
LINE
8
COUCHE_1
 6
CONTINUOUS
62
1
10
7000
20
-19800
11
7000
21
-20000
0
TEXT
8
COUCHE_1
 10
7000
 20
-20200
 11
7000
 21
-20200
 40
150
 1
A220
50
0
 72
1
 73
3
62
1
0
POLYLINE
5
2B
 8
0
62
1
 6
CONTINUOUS
 66
 1
 10
0
 20
0
 30
0
 70
1
 0
VERTEX
 5
33
  8
0
 10
6000
 20
-20000
 0
VERTEX
 5
33
  8
0
 10
5800
 20
-19900
 0
VERTEX
 5
33
  8
0
 10
6000
 20
-20200
 0
VERTEX
 5
33
  8
0
 10
6200
 20
-19900
 0
SEQEND
 5
37
 8
0
 0
LINE
8
COUCHE_1
 6
CONTINUOUS
62
1
10
6000
20
-19800
11
6000
21
-20000
0
TEXT
8
COUCHE_1
 10
6000
 20
-20200
 11
6000
 21
-20200
 40
150
 1
A220_T
50
0
 72
1
 73
3
62
1
0
POLYLINE
5
2B
 8
0
62
1
 6
CONTINUOUS
 66
 1
 10
0
 20
0
 30
0
 70
1
 0
VERTEX
 5
33
  8
0
 10
18800
 20
-32400
 0
VERTEX
 5
33
  8
0
 10
18600
 20
-32300
 0
VERTEX
 5
33
  8
0
 10
18800
 20
-32600
 0
VERTEX
 5
33
  8
0
 10
19000
 20
-32300
 0
SEQEND
 5
37
 8
0
 0
LINE
8
COUCHE_1
 6
CONTINUOUS
62
1
10
18800
20
-32200
11
18800
21
-32400
0
TEXT
8
COUCHE_1
 10
18800
 20
-32600
 11
18800
 21
-32600
 40
150
 1
A_24_B3
50
0
 72
1
 73
3
62
1
0
POLYLINE
5
2B
 8
0
62
1
 6
CONTINUOUS
 66
 1
 10
0
 20
0
 30
0
 70
1
 0
VERTEX
 5
33
  8
0
 10
18800
 20
-35400
 0
VERTEX
 5
33
  8
0
 10
18600
 20
-35300
 0
VERTEX
 5
33
  8
0
 10
18800
 20
-35600
 0
VERTEX
 5
33
  8
0
 10
19000
 20
-35300
 0
SEQEND
 5
37
 8
0
 0
LINE
8
COUCHE_1
 6
CONTINUOUS
62
1
10
18800
20
-35200
11
18800
21
-35400
0
TEXT
8
COUCHE_1
 10
18800
 20
-35600
 11
18800
 21
-35600
 40
150
 1
A_0_B3
50
0
 72
1
 73
3
62
1
0
POLYLINE
5
2B
 8
0
62
1
 6
CONTINUOUS
 66
 1
 10
0
 20
0
 30
0
 70
1
 0
VERTEX
 5
33
  8
0
 10
20200
 20
-39000
 0
VERTEX
 5
33
  8
0
 10
20000
 20
-38900
 0
VERTEX
 5
33
  8
0
 10
20200
 20
-39200
 0
VERTEX
 5
33
  8
0
 10
20400
 20
-38900
 0
SEQEND
 5
37
 8
0
 0
LINE
8
COUCHE_1
 6
CONTINUOUS
62
1
10
20200
20
-38800
11
20200
21
-39000
0
TEXT
8
COUCHE_1
 10
20200
 20
-39200
 11
20200
 21
-39200
 40
150
 1
A_T_B1
50
0
 72
1
 73
3
62
1
0
POLYLINE
5
2B
 8
0
62
1
 6
CONTINUOUS
 66
 1
 10
0
 20
0
 30
0
 70
1
 0
VERTEX
 5
33
  8
0
 10
17600
 20
-35400
 0
VERTEX
 5
33
  8
0
 10
17400
 20
-35300
 0
VERTEX
 5
33
  8
0
 10
17600
 20
-35600
 0
VERTEX
 5
33
  8
0
 10
17800
 20
-35300
 0
SEQEND
 5
37
 8
0
 0
LINE
8
COUCHE_1
 6
CONTINUOUS
62
1
10
17600
20
-35200
11
17600
21
-35400
0
TEXT
8
COUCHE_1
 10
17600
 20
-35600
 11
17600
 21
-35600
 40
150
 1
A_0_B4
50
0
 72
1
 73
3
62
1
0
POLYLINE
5
2B
 8
0
62
1
 6
CONTINUOUS
 66
 1
 10
0
 20
0
 30
0
 70
1
 0
VERTEX
 5
33
  8
0
 10
17600
 20
-32400
 0
VERTEX
 5
33
  8
0
 10
17400
 20
-32300
 0
VERTEX
 5
33
  8
0
 10
17600
 20
-32600
 0
VERTEX
 5
33
  8
0
 10
17800
 20
-32300
 0
SEQEND
 5
37
 8
0
 0
LINE
8
COUCHE_1
 6
CONTINUOUS
62
1
10
17600
20
-32200
11
17600
21
-32400
0
TEXT
8
COUCHE_1
 10
17600
 20
-32600
 11
17600
 21
-32600
 40
150
 1
A_24_B4
50
0
 72
1
 73
3
62
1
0
POLYLINE
5
2B
 8
0
62
1
 6
CONTINUOUS
 66
 1
 10
0
 20
0
 30
0
 70
1
 0
VERTEX
 5
33
  8
0
 10
16400
 20
-35400
 0
VERTEX
 5
33
  8
0
 10
16200
 20
-35300
 0
VERTEX
 5
33
  8
0
 10
16400
 20
-35600
 0
VERTEX
 5
33
  8
0
 10
16600
 20
-35300
 0
SEQEND
 5
37
 8
0
 0
LINE
8
COUCHE_1
 6
CONTINUOUS
62
1
10
16400
20
-35200
11
16400
21
-35400
0
TEXT
8
COUCHE_1
 10
16400
 20
-35600
 11
16400
 21
-35600
 40
150
 1
A_0_B5
50
0
 72
1
 73
3
62
1
0
POLYLINE
5
2B
 8
0
62
1
 6
CONTINUOUS
 66
 1
 10
0
 20
0
 30
0
 70
1
 0
VERTEX
 5
33
  8
0
 10
16400
 20
-35400
 0
VERTEX
 5
33
  8
0
 10
16200
 20
-35300
 0
VERTEX
 5
33
  8
0
 10
16400
 20
-35600
 0
VERTEX
 5
33
  8
0
 10
16600
 20
-35300
 0
SEQEND
 5
37
 8
0
 0
LINE
8
COUCHE_1
 6
CONTINUOUS
62
1
10
16400
20
-35200
11
16400
21
-35400
0
TEXT
8
COUCHE_1
 10
16400
 20
-35600
 11
16400
 21
-35600
 40
150
 1
A_0_B5
50
0
 72
1
 73
3
62
1
0
TEXT
8
COUCHE_1
 10
39200
 20
-24400
 11
39200
 21
-24400
 40
200
 1
Alimentation 24V/10A
50
0
 72
0
 73
3
62
0
0
TEXT
8
COUCHE_1
 10
4400
 20
-25000
 11
4400
 21
-25000
 40
200
 1
Alimentation 24V/5A
50
0
 72
0
 73
3
62
0
0
TEXT
8
COUCHE_1
 10
22200
 20
-39000
 11
22200
 21
-39000
 40
200
 1
Distribution 24V_Vers capteurs
50
0
 72
0
 73
3
62
0
0
TEXT
8
COUCHE_1
 10
53400
 20
-39000
 11
53400
 21
-39000
 40
200
 1
Distribution 24V_Vers drivers
50
0
 72
0
 73
3
62
0
0
TEXT
8
COUCHE_1
 10
11200
 20
-14400
 11
11200
 21
-14400
 40
200
 1
Disjoncteur 16A
50
0
 72
0
 73
3
62
0
0
TEXT
8
COUCHE_1
 10
12000
 20
-6200
 11
12000
 21
-6200
 40
150
 1
WALIM 3G-2.5
50
0
 72
0
 73
3
62
0
0
TEXT
8
COUCHE_1
 10
39200
 20
-12000
 11
39200
 21
-12000
 40
150
 1
WVEN 3G-1.5
50
0
 72
0
 73
3
62
0
0
TEXT
8
COUCHE_1
 10
8800
 20
-12400
 11
8800
 21
-12400
 40
200
 1
L1            N1
50
0
 72
0
 73
3
62
0
0
TEXT
8
COUCHE_1
 10
8800
 20
-18200
 11
8800
 21
-18200
 40
200
 1
L2            N2
50
0
 72
0
 73
3
62
0
0
TEXT
8
COUCHE_1
 10
18800
 20
-28400
 11
18800
 21
-28400
 40
300
 1
X4
50
0
 72
0
 73
3
62
0
0
TEXT
8
COUCHE_1
 10
49800
 20
-29600
 11
49800
 21
-29600
 40
300
 1
X3
50
0
 72
0
 73
3
62
0
0
TEXT
8
COUCHE_1
 10
30600
 20
-40400
 11
30600
 21
-40400
 40
300
 1
Armoire de puissance
50
0
 72
0
 73
3
62
0
0
TEXT
8
COUCHE_1
 10
31600
 20
-41000
 11
31600
 21
-41000
 40
200
 1
Circuit de puissance
50
0
 72
0
 73
3
62
0
0
TEXT
8
COUCHE_1
 10
10400
 20
-6000
 11
10400
 21
-6000
 40
200
 1
N
50
0
 72
0
 73
3
62
0
0
TEXT
8
COUCHE_1
 10
8800
 20
-6000
 11
8800
 21
-6000
 40
200
 1
L
50
0
 72
0
 73
3
62
0
0
TEXT
8
COUCHE_1
 10
7600
 20
-7200
 11
7600
 21
-7200
 40
200
 1
X1
50
0
 72
0
 73
3
62
0
0
TEXT
8
COUCHE_1
 10
35000
 20
-11000
 11
35000
 21
-11000
 40
200
 1
X2
50
0
 72
0
 73
3
62
0
0
TEXT
8
COUCHE_1
 10
12400
 20
-26200
 11
12400
 21
-26200
 40
150
 1
ALR2405
50
0
 72
0
 73
3
62
0
0
TEXT
8
COUCHE_1
 10
47000
 20
-26200
 11
47000
 21
-26200
 40
150
 1
ALE2410R
50
0
 72
0
 73
3
62
0
0
TEXT
8
COUCHE_1
 10
5200
 20
-18600
 11
5200
 21
-18600
 40
200
 1
X0
50
0
 72
0
 73
3
62
0
 0
LINE
8
COUCHE_1
 6
CONTINUOUS
62
0
10
1200
20
-1200
11
59000
21
-1200
 0
LINE
8
COUCHE_1
 6
CONTINUOUS
62
0
10
1600
20
-1600
11
59000
21
-1600
 0
LINE
8
COUCHE_1
 6
CONTINUOUS
62
0
10
3200
20
-1200
11
3200
21
-1600
 0
LINE
8
COUCHE_1
 6
CONTINUOUS
62
0
10
4800
20
-1200
11
4800
21
-1600
 0
LINE
8
COUCHE_1
 6
CONTINUOUS
62
0
10
6400
20
-1200
11
6400
21
-1600
 0
LINE
8
COUCHE_1
 6
CONTINUOUS
62
0
10
8000
20
-1200
11
8000
21
-1600
 0
LINE
8
COUCHE_1
 6
CONTINUOUS
62
0
10
9600
20
-1200
11
9600
21
-1600
 0
LINE
8
COUCHE_1
 6
CONTINUOUS
62
0
10
11200
20
-1200
11
11200
21
-1600
 0
LINE
8
COUCHE_1
 6
CONTINUOUS
62
0
10
12800
20
-1200
11
12800
21
-1600
 0
LINE
8
COUCHE_1
 6
CONTINUOUS
62
0
10
14400
20
-1200
11
14400
21
-1600
 0
LINE
8
COUCHE_1
 6
CONTINUOUS
62
0
10
16000
20
-1200
11
16000
21
-1600
 0
LINE
8
COUCHE_1
 6
CONTINUOUS
62
0
10
17600
20
-1200
11
17600
21
-1600
 0
LINE
8
COUCHE_1
 6
CONTINUOUS
62
0
10
19200
20
-1200
11
19200
21
-1600
 0
LINE
8
COUCHE_1
 6
CONTINUOUS
62
0
10
20800
20
-1200
11
20800
21
-1600
 0
LINE
8
COUCHE_1
 6
CONTINUOUS
62
0
10
22400
20
-1200
11
22400
21
-1600
 0
LINE
8
COUCHE_1
 6
CONTINUOUS
62
0
10
24000
20
-1200
11
24000
21
-1600
 0
LINE
8
COUCHE_1
 6
CONTINUOUS
62
0
10
25600
20
-1200
11
25600
21
-1600
 0
LINE
8
COUCHE_1
 6
CONTINUOUS
62
0
10
27200
20
-1200
11
27200
21
-1600
 0
LINE
8
COUCHE_1
 6
CONTINUOUS
62
0
10
28800
20
-1200
11
28800
21
-1600
 0
LINE
8
COUCHE_1
 6
CONTINUOUS
62
0
10
30400
20
-1200
11
30400
21
-1600
 0
LINE
8
COUCHE_1
 6
CONTINUOUS
62
0
10
32000
20
-1200
11
32000
21
-1600
 0
LINE
8
COUCHE_1
 6
CONTINUOUS
62
0
10
33600
20
-1200
11
33600
21
-1600
 0
LINE
8
COUCHE_1
 6
CONTINUOUS
62
0
10
35200
20
-1200
11
35200
21
-1600
 0
LINE
8
COUCHE_1
 6
CONTINUOUS
62
0
10
36800
20
-1200
11
36800
21
-1600
 0
LINE
8
COUCHE_1
 6
CONTINUOUS
62
0
10
38400
20
-1200
11
38400
21
-1600
 0
LINE
8
COUCHE_1
 6
CONTINUOUS
62
0
10
40000
20
-1200
11
40000
21
-1600
 0
LINE
8
COUCHE_1
 6
CONTINUOUS
62
0
10
41600
20
-1200
11
41600
21
-1600
 0
LINE
8
COUCHE_1
 6
CONTINUOUS
62
0
10
43200
20
-1200
11
43200
21
-1600
 0
LINE
8
COUCHE_1
 6
CONTINUOUS
62
0
10
44800
20
-1200
11
44800
21
-1600
 0
LINE
8
COUCHE_1
 6
CONTINUOUS
62
0
10
46400
20
-1200
11
46400
21
-1600
 0
LINE
8
COUCHE_1
 6
CONTINUOUS
62
0
10
48000
20
-1200
11
48000
21
-1600
 0
LINE
8
COUCHE_1
 6
CONTINUOUS
62
0
10
49600
20
-1200
11
49600
21
-1600
 0
LINE
8
COUCHE_1
 6
CONTINUOUS
62
0
10
51200
20
-1200
11
51200
21
-1600
 0
LINE
8
COUCHE_1
 6
CONTINUOUS
62
0
10
52800
20
-1200
11
52800
21
-1600
 0
LINE
8
COUCHE_1
 6
CONTINUOUS
62
0
10
54400
20
-1200
11
54400
21
-1600
 0
LINE
8
COUCHE_1
 6
CONTINUOUS
62
0
10
56000
20
-1200
11
56000
21
-1600
 0
LINE
8
COUCHE_1
 6
CONTINUOUS
62
0
10
57600
20
-1200
11
57600
21
-1600
 0
LINE
8
COUCHE_1
 6
CONTINUOUS
62
0
10
59000
20
-1200
11
59000
21
-1600
 0
LINE
8
COUCHE_1
 6
CONTINUOUS
62
0
10
1200
20
-41600
11
59000
21
-41600
0
TEXT
8
COUCHE_1
 10
2400
 20
-1250
 11
2400
 21
-1250
 40
150
 1
A
50
0
 72
1
 73
3
62
0
0
TEXT
8
COUCHE_1
 10
4000
 20
-1250
 11
4000
 21
-1250
 40
150
 1
B
50
0
 72
1
 73
3
62
0
0
TEXT
8
COUCHE_1
 10
5600
 20
-1250
 11
5600
 21
-1250
 40
150
 1
C
50
0
 72
1
 73
3
62
0
0
TEXT
8
COUCHE_1
 10
7200
 20
-1250
 11
7200
 21
-1250
 40
150
 1
D
50
0
 72
1
 73
3
62
0
0
TEXT
8
COUCHE_1
 10
8800
 20
-1250
 11
8800
 21
-1250
 40
150
 1
E
50
0
 72
1
 73
3
62
0
0
TEXT
8
COUCHE_1
 10
10400
 20
-1250
 11
10400
 21
-1250
 40
150
 1
F
50
0
 72
1
 73
3
62
0
0
TEXT
8
COUCHE_1
 10
12000
 20
-1250
 11
12000
 21
-1250
 40
150
 1
G
50
0
 72
1
 73
3
62
0
0
TEXT
8
COUCHE_1
 10
13600
 20
-1250
 11
13600
 21
-1250
 40
150
 1
H
50
0
 72
1
 73
3
62
0
0
TEXT
8
COUCHE_1
 10
15200
 20
-1250
 11
15200
 21
-1250
 40
150
 1
I
50
0
 72
1
 73
3
62
0
0
TEXT
8
COUCHE_1
 10
16800
 20
-1250
 11
16800
 21
-1250
 40
150
 1
J
50
0
 72
1
 73
3
62
0
0
TEXT
8
COUCHE_1
 10
18400
 20
-1250
 11
18400
 21
-1250
 40
150
 1
K
50
0
 72
1
 73
3
62
0
0
TEXT
8
COUCHE_1
 10
20000
 20
-1250
 11
20000
 21
-1250
 40
150
 1
L
50
0
 72
1
 73
3
62
0
0
TEXT
8
COUCHE_1
 10
21600
 20
-1250
 11
21600
 21
-1250
 40
150
 1
M
50
0
 72
1
 73
3
62
0
0
TEXT
8
COUCHE_1
 10
23200
 20
-1250
 11
23200
 21
-1250
 40
150
 1
N
50
0
 72
1
 73
3
62
0
0
TEXT
8
COUCHE_1
 10
24800
 20
-1250
 11
24800
 21
-1250
 40
150
 1
O
50
0
 72
1
 73
3
62
0
0
TEXT
8
COUCHE_1
 10
26400
 20
-1250
 11
26400
 21
-1250
 40
150
 1
P
50
0
 72
1
 73
3
62
0
0
TEXT
8
COUCHE_1
 10
28000
 20
-1250
 11
28000
 21
-1250
 40
150
 1
Q
50
0
 72
1
 73
3
62
0
0
TEXT
8
COUCHE_1
 10
29600
 20
-1250
 11
29600
 21
-1250
 40
150
 1
R
50
0
 72
1
 73
3
62
0
0
TEXT
8
COUCHE_1
 10
31200
 20
-1250
 11
31200
 21
-1250
 40
150
 1
S
50
0
 72
1
 73
3
62
0
0
TEXT
8
COUCHE_1
 10
32800
 20
-1250
 11
32800
 21
-1250
 40
150
 1
T
50
0
 72
1
 73
3
62
0
0
TEXT
8
COUCHE_1
 10
34400
 20
-1250
 11
34400
 21
-1250
 40
150
 1
U
50
0
 72
1
 73
3
62
0
0
TEXT
8
COUCHE_1
 10
36000
 20
-1250
 11
36000
 21
-1250
 40
150
 1
V
50
0
 72
1
 73
3
62
0
0
TEXT
8
COUCHE_1
 10
37600
 20
-1250
 11
37600
 21
-1250
 40
150
 1
W
50
0
 72
1
 73
3
62
0
0
TEXT
8
COUCHE_1
 10
39200
 20
-1250
 11
39200
 21
-1250
 40
150
 1
X
50
0
 72
1
 73
3
62
0
0
TEXT
8
COUCHE_1
 10
40800
 20
-1250
 11
40800
 21
-1250
 40
150
 1
Y
50
0
 72
1
 73
3
62
0
0
TEXT
8
COUCHE_1
 10
42400
 20
-1250
 11
42400
 21
-1250
 40
150
 1
Z
50
0
 72
1
 73
3
62
0
0
TEXT
8
COUCHE_1
 10
44000
 20
-1250
 11
44000
 21
-1250
 40
150
 1
AA
50
0
 72
1
 73
3
62
0
0
TEXT
8
COUCHE_1
 10
45600
 20
-1250
 11
45600
 21
-1250
 40
150
 1
AB
50
0
 72
1
 73
3
62
0
0
TEXT
8
COUCHE_1
 10
47200
 20
-1250
 11
47200
 21
-1250
 40
150
 1
AC
50
0
 72
1
 73
3
62
0
0
TEXT
8
COUCHE_1
 10
48800
 20
-1250
 11
48800
 21
-1250
 40
150
 1
AD
50
0
 72
1
 73
3
62
0
0
TEXT
8
COUCHE_1
 10
50400
 20
-1250
 11
50400
 21
-1250
 40
150
 1
AE
50
0
 72
1
 73
3
62
0
0
TEXT
8
COUCHE_1
 10
52000
 20
-1250
 11
52000
 21
-1250
 40
150
 1
AF
50
0
 72
1
 73
3
62
0
0
TEXT
8
COUCHE_1
 10
53600
 20
-1250
 11
53600
 21
-1250
 40
150
 1
AG
50
0
 72
1
 73
3
62
0
0
TEXT
8
COUCHE_1
 10
55200
 20
-1250
 11
55200
 21
-1250
 40
150
 1
AH
50
0
 72
1
 73
3
62
0
0
TEXT
8
COUCHE_1
 10
56800
 20
-1250
 11
56800
 21
-1250
 40
150
 1
AI
50
0
 72
1
 73
3
62
0
 0
LINE
8
COUCHE_1
 6
CONTINUOUS
62
0
10
1200
20
-1200
11
1200
21
-41600
 0
LINE
8
COUCHE_1
 6
CONTINUOUS
62
0
10
1600
20
-1600
11
1600
21
-41600
 0
LINE
8
COUCHE_1
 6
CONTINUOUS
62
0
10
1200
20
-3200
11
1600
21
-3200
 0
LINE
8
COUCHE_1
 6
CONTINUOUS
62
0
10
1200
20
-4800
11
1600
21
-4800
 0
LINE
8
COUCHE_1
 6
CONTINUOUS
62
0
10
1200
20
-6400
11
1600
21
-6400
 0
LINE
8
COUCHE_1
 6
CONTINUOUS
62
0
10
1200
20
-8000
11
1600
21
-8000
 0
LINE
8
COUCHE_1
 6
CONTINUOUS
62
0
10
1200
20
-9600
11
1600
21
-9600
 0
LINE
8
COUCHE_1
 6
CONTINUOUS
62
0
10
1200
20
-11200
11
1600
21
-11200
 0
LINE
8
COUCHE_1
 6
CONTINUOUS
62
0
10
1200
20
-12800
11
1600
21
-12800
 0
LINE
8
COUCHE_1
 6
CONTINUOUS
62
0
10
1200
20
-14400
11
1600
21
-14400
 0
LINE
8
COUCHE_1
 6
CONTINUOUS
62
0
10
1200
20
-16000
11
1600
21
-16000
 0
LINE
8
COUCHE_1
 6
CONTINUOUS
62
0
10
1200
20
-17600
11
1600
21
-17600
 0
LINE
8
COUCHE_1
 6
CONTINUOUS
62
0
10
1200
20
-19200
11
1600
21
-19200
 0
LINE
8
COUCHE_1
 6
CONTINUOUS
62
0
10
1200
20
-20800
11
1600
21
-20800
 0
LINE
8
COUCHE_1
 6
CONTINUOUS
62
0
10
1200
20
-22400
11
1600
21
-22400
 0
LINE
8
COUCHE_1
 6
CONTINUOUS
62
0
10
1200
20
-24000
11
1600
21
-24000
 0
LINE
8
COUCHE_1
 6
CONTINUOUS
62
0
10
1200
20
-25600
11
1600
21
-25600
 0
LINE
8
COUCHE_1
 6
CONTINUOUS
62
0
10
1200
20
-27200
11
1600
21
-27200
 0
LINE
8
COUCHE_1
 6
CONTINUOUS
62
0
10
1200
20
-28800
11
1600
21
-28800
 0
LINE
8
COUCHE_1
 6
CONTINUOUS
62
0
10
1200
20
-30400
11
1600
21
-30400
 0
LINE
8
COUCHE_1
 6
CONTINUOUS
62
0
10
1200
20
-32000
11
1600
21
-32000
 0
LINE
8
COUCHE_1
 6
CONTINUOUS
62
0
10
1200
20
-33600
11
1600
21
-33600
 0
LINE
8
COUCHE_1
 6
CONTINUOUS
62
0
10
1200
20
-35200
11
1600
21
-35200
 0
LINE
8
COUCHE_1
 6
CONTINUOUS
62
0
10
1200
20
-36800
11
1600
21
-36800
 0
LINE
8
COUCHE_1
 6
CONTINUOUS
62
0
10
1200
20
-38400
11
1600
21
-38400
 0
LINE
8
COUCHE_1
 6
CONTINUOUS
62
0
10
1200
20
-40000
11
1600
21
-40000
 0
LINE
8
COUCHE_1
 6
CONTINUOUS
62
0
10
1200
20
-41600
11
1600
21
-41600
 0
LINE
8
COUCHE_1
 6
CONTINUOUS
62
0
10
1200
20
-41600
11
1600
21
-41600
 0
LINE
8
COUCHE_1
 6
CONTINUOUS
62
0
10
59000
20
-1200
11
59000
21
-41600
0
TEXT
8
COUCHE_1
 10
1400
 20
-2250
 11
1400
 21
-2250
 40
150
 1
1
50
0
 72
1
 73
3
62
0
0
TEXT
8
COUCHE_1
 10
1400
 20
-3850
 11
1400
 21
-3850
 40
150
 1
2
50
0
 72
1
 73
3
62
0
0
TEXT
8
COUCHE_1
 10
1400
 20
-5450
 11
1400
 21
-5450
 40
150
 1
3
50
0
 72
1
 73
3
62
0
0
TEXT
8
COUCHE_1
 10
1400
 20
-7050
 11
1400
 21
-7050
 40
150
 1
4
50
0
 72
1
 73
3
62
0
0
TEXT
8
COUCHE_1
 10
1400
 20
-8650
 11
1400
 21
-8650
 40
150
 1
5
50
0
 72
1
 73
3
62
0
0
TEXT
8
COUCHE_1
 10
1400
 20
-10250
 11
1400
 21
-10250
 40
150
 1
6
50
0
 72
1
 73
3
62
0
0
TEXT
8
COUCHE_1
 10
1400
 20
-11850
 11
1400
 21
-11850
 40
150
 1
7
50
0
 72
1
 73
3
62
0
0
TEXT
8
COUCHE_1
 10
1400
 20
-13450
 11
1400
 21
-13450
 40
150
 1
8
50
0
 72
1
 73
3
62
0
0
TEXT
8
COUCHE_1
 10
1400
 20
-15050
 11
1400
 21
-15050
 40
150
 1
9
50
0
 72
1
 73
3
62
0
0
TEXT
8
COUCHE_1
 10
1400
 20
-16650
 11
1400
 21
-16650
 40
150
 1
10
50
0
 72
1
 73
3
62
0
0
TEXT
8
COUCHE_1
 10
1400
 20
-18250
 11
1400
 21
-18250
 40
150
 1
11
50
0
 72
1
 73
3
62
0
0
TEXT
8
COUCHE_1
 10
1400
 20
-19850
 11
1400
 21
-19850
 40
150
 1
12
50
0
 72
1
 73
3
62
0
0
TEXT
8
COUCHE_1
 10
1400
 20
-21450
 11
1400
 21
-21450
 40
150
 1
13
50
0
 72
1
 73
3
62
0
0
TEXT
8
COUCHE_1
 10
1400
 20
-23050
 11
1400
 21
-23050
 40
150
 1
14
50
0
 72
1
 73
3
62
0
0
TEXT
8
COUCHE_1
 10
1400
 20
-24650
 11
1400
 21
-24650
 40
150
 1
15
50
0
 72
1
 73
3
62
0
0
TEXT
8
COUCHE_1
 10
1400
 20
-26250
 11
1400
 21
-26250
 40
150
 1
16
50
0
 72
1
 73
3
62
0
0
TEXT
8
COUCHE_1
 10
1400
 20
-27850
 11
1400
 21
-27850
 40
150
 1
17
50
0
 72
1
 73
3
62
0
0
TEXT
8
COUCHE_1
 10
1400
 20
-29450
 11
1400
 21
-29450
 40
150
 1
18
50
0
 72
1
 73
3
62
0
0
TEXT
8
COUCHE_1
 10
1400
 20
-31050
 11
1400
 21
-31050
 40
150
 1
19
50
0
 72
1
 73
3
62
0
0
TEXT
8
COUCHE_1
 10
1400
 20
-32650
 11
1400
 21
-32650
 40
150
 1
20
50
0
 72
1
 73
3
62
0
0
TEXT
8
COUCHE_1
 10
1400
 20
-34250
 11
1400
 21
-34250
 40
150
 1
21
50
0
 72
1
 73
3
62
0
0
TEXT
8
COUCHE_1
 10
1400
 20
-35850
 11
1400
 21
-35850
 40
150
 1
22
50
0
 72
1
 73
3
62
0
0
TEXT
8
COUCHE_1
 10
1400
 20
-37450
 11
1400
 21
-37450
 40
150
 1
23
50
0
 72
1
 73
3
62
0
0
TEXT
8
COUCHE_1
 10
1400
 20
-39050
 11
1400
 21
-39050
 40
150
 1
24
50
0
 72
1
 73
3
62
0
0
TEXT
8
COUCHE_1
 10
1400
 20
-40650
 11
1400
 21
-40650
 40
150
 1
25
50
0
 72
1
 73
3
62
0
 0
LINE
8
COUCHE_1
 6
CONTINUOUS
62
0
10
59000
20
-40200
11
1600
21
-40200
 0
LINE
8
COUCHE_1
 6
CONTINUOUS
62
0
10
57300
20
-41600
11
57300
21
-40200
 0
LINE
8
COUCHE_1
 6
CONTINUOUS
62
0
10
57300
20
-41600
11
58900
21
-40200
 0
LINE
8
COUCHE_1
 6
CONTINUOUS
62
0
10
13000
20
-41600
11
13000
21
-40200
 0
LINE
8
COUCHE_1
 6
CONTINUOUS
62
0
10
52200
20
-41600
11
52200
21
-40200
0
TEXT
8
COUCHE_1
 10
57500
 20
-40400
 11
57500
 21
-40400
 40
200
 1
02
50
0
 72
0
 73
3
62
0
0
TEXT
8
COUCHE_1
 10
58200
 20
-41100
 11
58200
 21
-41100
 40
200
 1
14
50
0
 72
0
 73
3
62
0
0
TEXT
8
COUCHE_1
 10
55700
 20
-40400
 11
55700
 21
-40400
 40
150
 1
14/02/2018
50
0
 72
2
 73
3
62
0
0
TEXT
8
COUCHE_1
 10
55700
 20
-40800
 11
55700
 21
-40800
 40
150
 1
1/2
50
0
 72
2
 73
3
62
0
0
TEXT
8
COUCHE_1
 10
52400
 20
-40400
 11
52400
 21
-40400
 40
150
 1
Dessiné le :
50
0
 72
0
 73
3
62
0
0
TEXT
8
COUCHE_1
 10
52400
 20
-40800
 11
52400
 21
-40800
 40
150
 1
Echelle :
50
0
 72
0
 73
3
62
0
0
TEXT
8
COUCHE_1
 10
55600
 20
-41200
 11
55600
 21
-41200
 40
150
 1
DN_DM
50
0
 72
2
 73
3
62
0
0
TEXT
8
COUCHE_1
 10
52400
 20
-41200
 11
52400
 21
-41200
 40
150
 1
Par : 
50
0
 72
0
 73
3
62
0
 0
ENDSEC
 0
EOF
