 0
SECTION
 2
HEADER
 9
$ACADVER
 1
AC1009
 9
$CLAYER
 8
Couche_1
 9
$HANDLING
70
 0
9
$INSBASE
10
0
20
0
30
0
9
$THICKNESS
40
0
9
$UCSNAME
2
UCS_F1
9
$WORLDVIEW
70
1
9
$LTSCALE
40
15
0
ENDSEC
0
SECTION
2
TABLES
 0
TABLE
 2
APPID
70
 1
 0
APPID
 2
TASK
 70
 0
 0
ENDTAB
 0
TABLE
  2
LTYPE
 70
 2
 0
LTYPE
  2
CONTINUOUS
 70
 0
 3
Solid line
 72
65
 73
0
 40
0
  0
LTYPE
  2
ACAD_ISO03W100
 70
 0
 3
CAO pointillé long
 72
65
 73
2
 40
30
 49
12
 49
-18.0
  0
LTYPE
 2
ACAD_ISO07W100
 70
0
 3
CAO pointillé fin
 72
65
 73
2
 40
3
 49
0
 49
-3.0
  0
LTYPE
  2
ACAD_ISO02W100
 70
0
 3
CAO pointillé extra long
 72
65
 73
2
 40
15
 49
12
 49
-3
  0
LTYPE
  2
AXES
 70
0
 3
CAO Axe
 72
65
 73
4
 40
50.8
 49
31.75
 49
-6.35
 49
6.35
 49
-6.35
  0
ENDTAB
0
TABLE
2
LAYER
 70
20
 0
LAYER
 2
COUCHE_1
 70
 64
 62
 7
 6
CONTINUOUS
 0
ENDTAB
 0
TABLE
 2
UCS
 70
 6
 0
UCS
 2
UCSF1
 70
 64
 10
0.000000
 20
0.000000
 30
20.000000
 11
1.000000
 21
0.000000
 31
0.000000
 12
0.000000
 22
-1.000000
 32
0.000000
 0
ENDTAB
 0
ENDSEC
 0
SECTION
 2
ENTITIES
0
POLYLINE
5
2B
 8
0
62
0
 6
ACAD_ISO07W100
 66
 1
 10
0
 20
0
 30
0
 70
1
 0
VERTEX
 5
33
  8
0
 10
11800
 20
-10000
 0
VERTEX
 5
33
  8
0
 10
13200
 20
-10000
 0
VERTEX
 5
33
  8
0
 10
13200
 20
-16600
 0
VERTEX
 5
33
  8
0
 10
11800
 20
-16600
 0
SEQEND
 5
37
 8
0
0
POLYLINE
5
2B
 8
0
62
0
 6
ACAD_ISO07W100
 66
 1
 10
0
 20
0
 30
0
 70
1
 0
VERTEX
 5
33
  8
0
 10
16400
 20
-10000
 0
VERTEX
 5
33
  8
0
 10
17800
 20
-10000
 0
VERTEX
 5
33
  8
0
 10
17800
 20
-16600
 0
VERTEX
 5
33
  8
0
 10
16400
 20
-16600
 0
SEQEND
 5
37
 8
0
0
POLYLINE
5
2B
 8
0
62
0
 6
ACAD_ISO07W100
 66
 1
 10
0
 20
0
 30
0
 70
1
 0
VERTEX
 5
33
  8
0
 10
21800
 20
-10000
 0
VERTEX
 5
33
  8
0
 10
23200
 20
-10000
 0
VERTEX
 5
33
  8
0
 10
23200
 20
-16600
 0
VERTEX
 5
33
  8
0
 10
21800
 20
-16600
 0
SEQEND
 5
37
 8
0
0
POLYLINE
5
2B
 8
0
62
0
 6
ACAD_ISO07W100
 66
 1
 10
0
 20
0
 30
0
 70
1
 0
VERTEX
 5
33
  8
0
 10
2600
 20
-6200
 0
VERTEX
 5
33
  8
0
 10
25400
 20
-6200
 0
VERTEX
 5
33
  8
0
 10
25400
 20
-17000
 0
VERTEX
 5
33
  8
0
 10
2600
 20
-17000
 0
SEQEND
 5
37
 8
0
0
POLYLINE
5
2B
 8
0
62
5
 6
ACAD_ISO07W100
 66
 1
 10
0
 20
0
 30
0
 70
1
 0
VERTEX
 5
33
  8
0
 10
21200
 20
-7000
 0
VERTEX
 5
33
  8
0
 10
24600
 20
-7000
 0
VERTEX
 5
33
  8
0
 10
24600
 20
-9600
 0
VERTEX
 5
33
  8
0
 10
21200
 20
-9600
 0
SEQEND
 5
37
 8
0
0
POLYLINE
5
2B
 8
0
62
0
 6
ACAD_ISO07W100
 66
 1
 10
0
 20
0
 30
0
 70
1
 0
VERTEX
 5
33
  8
0
 10
7800
 20
-10000
 0
VERTEX
 5
33
  8
0
 10
9200
 20
-10000
 0
VERTEX
 5
33
  8
0
 10
9200
 20
-16600
 0
VERTEX
 5
33
  8
0
 10
7800
 20
-16600
 0
SEQEND
 5
37
 8
0
0
POLYLINE
5
2B
 8
0
62
0
 6
ACAD_ISO07W100
 66
 1
 10
0
 20
0
 30
0
 70
1
 0
VERTEX
 5
33
  8
0
 10
37600
 20
-11200
 0
VERTEX
 5
33
  8
0
 10
40600
 20
-11200
 0
VERTEX
 5
33
  8
0
 10
40600
 20
-12800
 0
VERTEX
 5
33
  8
0
 10
37600
 20
-12800
 0
SEQEND
 5
37
 8
0
 0
LINE
8
COUCHE_1
 6
CONTINUOUS
62
0
10
22800
20
-23600
11
22000
21
-23600
 0
LINE
8
COUCHE_1
 6
CONTINUOUS
62
0
10
22800
20
-24400
11
21000
21
-24400
 0
LINE
8
COUCHE_1
 6
CONTINUOUS
62
0
10
24200
20
-23600
11
21200
21
-23600
 0
LINE
8
COUCHE_1
 6
CONTINUOUS
62
0
10
27400
20
-23600
11
28600
21
-23600
 0
LINE
8
COUCHE_1
 6
CONTINUOUS
62
0
10
28600
20
-23600
11
27800
21
-23600
 0
LINE
8
COUCHE_1
 6
CONTINUOUS
62
0
10
31400
20
-23600
11
32600
21
-23600
 0
LINE
8
COUCHE_1
 6
CONTINUOUS
62
0
10
21000
20
-24400
11
20800
21
-24200
 0
LINE
8
COUCHE_1
 6
CONTINUOUS
62
0
10
21000
20
-24400
11
20800
21
-24600
 0
LINE
8
COUCHE_1
 6
CONTINUOUS
62
0
10
31400
20
-24400
11
31200
21
-24600
 0
LINE
8
COUCHE_1
 6
CONTINUOUS
62
0
10
31400
20
-24400
11
31200
21
-24200
 0
LINE
8
COUCHE_1
 6
CONTINUOUS
62
0
10
31400
20
-23600
11
31200
21
-23800
 0
LINE
8
COUCHE_1
 6
CONTINUOUS
62
0
10
31400
20
-23600
11
31200
21
-23400
 0
LINE
8
COUCHE_1
 6
CONTINUOUS
62
0
10
31400
20
-22800
11
31200
21
-23000
 0
LINE
8
COUCHE_1
 6
CONTINUOUS
62
0
10
31400
20
-22800
11
31200
21
-22600
0
POLYLINE
5
2B
 8
0
62
0
 6
CONTINUOUS
 66
 1
 10
0
 20
0
 30
0
 70
1
 0
VERTEX
 5
33
  8
0
 10
22000
 20
-7800
 0
VERTEX
 5
33
  8
0
 10
24000
 20
-7800
 0
VERTEX
 5
33
  8
0
 10
24000
 20
-8800
 0
VERTEX
 5
33
  8
0
 10
22000
 20
-8800
 0
SEQEND
 5
37
 8
0
 0
LINE
8
COUCHE_1
 6
CONTINUOUS
62
5
10
22400
20
-12400
11
22300
21
-12300
 0
LINE
8
COUCHE_1
 6
CONTINUOUS
62
5
10
22400
20
-12400
11
22500
21
-12300
 0
LINE
8
COUCHE_1
 6
CONTINUOUS
62
5
10
17000
20
-12400
11
16900
21
-12300
 0
LINE
8
COUCHE_1
 6
CONTINUOUS
62
5
10
17000
20
-12400
11
17100
21
-12300
 0
LINE
8
COUCHE_1
 6
CONTINUOUS
62
5
10
12400
20
-12400
11
12300
21
-12300
 0
LINE
8
COUCHE_1
 6
CONTINUOUS
62
5
10
12400
20
-12400
11
12500
21
-12300
 0
LINE
8
COUCHE_1
 6
CONTINUOUS
62
5
10
17000
20
-14200
11
16900
21
-14100
 0
LINE
8
COUCHE_1
 6
CONTINUOUS
62
5
10
17000
20
-14200
11
17100
21
-14100
 0
LINE
8
COUCHE_1
 6
CONTINUOUS
62
5
10
22400
20
-14200
11
22300
21
-14100
 0
LINE
8
COUCHE_1
 6
CONTINUOUS
62
5
10
22400
20
-14200
11
22500
21
-14100
 0
LINE
8
COUCHE_1
 6
CONTINUOUS
62
5
10
12400
20
-14200
11
12300
21
-14100
 0
LINE
8
COUCHE_1
 6
CONTINUOUS
62
5
10
12400
20
-14200
11
12500
21
-14100
 0
LINE
8
COUCHE_1
 6
CONTINUOUS
62
5
10
22400
20
-15800
11
22300
21
-15700
 0
LINE
8
COUCHE_1
 6
CONTINUOUS
62
5
10
22400
20
-15800
11
22500
21
-15700
 0
LINE
8
COUCHE_1
 6
CONTINUOUS
62
5
10
17000
20
-15800
11
16900
21
-15700
 0
LINE
8
COUCHE_1
 6
CONTINUOUS
62
5
10
17000
20
-15800
11
17100
21
-15700
 0
LINE
8
COUCHE_1
 6
CONTINUOUS
62
5
10
12400
20
-15800
11
12300
21
-15700
 0
LINE
8
COUCHE_1
 6
CONTINUOUS
62
5
10
12400
20
-15800
11
12500
21
-15700
 0
LINE
8
COUCHE_1
 6
CONTINUOUS
62
5
10
8400
20
-12400
11
8300
21
-12300
 0
LINE
8
COUCHE_1
 6
CONTINUOUS
62
5
10
8400
20
-12400
11
8500
21
-12300
 0
LINE
8
COUCHE_1
 6
CONTINUOUS
62
5
10
8400
20
-14200
11
8300
21
-14100
 0
LINE
8
COUCHE_1
 6
CONTINUOUS
62
5
10
8400
20
-14200
11
8500
21
-14100
 0
LINE
8
COUCHE_1
 6
CONTINUOUS
62
5
10
8400
20
-15800
11
8300
21
-15700
 0
LINE
8
COUCHE_1
 6
CONTINUOUS
62
5
10
8400
20
-15800
11
8500
21
-15700
 0
LINE
8
COUCHE_1
 6
CONTINUOUS
62
0
10
38200
20
-11800
11
38200
21
-11600
 0
LINE
8
COUCHE_1
 6
CONTINUOUS
62
0
10
38200
20
-12400
11
38200
21
-12200
 0
LINE
8
COUCHE_1
 6
CONTINUOUS
62
0
10
37900
20
-11700
11
38500
21
-12300
 0
CIRCLE
8
COUCHE_1
62
0
 6
CONTINUOUS
10
38200
20
-12000
40
200
0
POLYLINE
5
2B
 8
0
62
1
 6
CONTINUOUS
 66
 1
 10
0
 20
0
 30
0
 70
1
 0
VERTEX
 5
33
  8
0
 10
38100
 20
-11500
 0
VERTEX
 5
33
  8
0
 10
38300
 20
-11500
 0
VERTEX
 5
33
  8
0
 10
38300
 20
-11700
 0
VERTEX
 5
33
  8
0
 10
38100
 20
-11700
 0
SEQEND
 5
37
 8
0
 0
LINE
8
COUCHE_1
 6
CONTINUOUS
62
1
10
38200
20
-11600
11
38200
21
-11600
0
POLYLINE
5
2B
 8
0
62
1
 6
CONTINUOUS
 66
 1
 10
0
 20
0
 30
0
 70
1
 0
VERTEX
 5
33
  8
0
 10
38100
 20
-12300
 0
VERTEX
 5
33
  8
0
 10
38300
 20
-12300
 0
VERTEX
 5
33
  8
0
 10
38300
 20
-12500
 0
VERTEX
 5
33
  8
0
 10
38100
 20
-12500
 0
SEQEND
 5
37
 8
0
 0
LINE
8
COUCHE_1
 6
CONTINUOUS
62
1
10
38200
20
-12400
11
38200
21
-12400
0
TEXT
8
COUCHE_1
 10
38400
 20
-11400
 11
38400
 21
-11400
 40
200
 1
1
50
0
 72
0
 73
3
62
0
 0
LINE
8
COUCHE_1
 6
CONTINUOUS
62
0
10
39800
20
-11800
11
39800
21
-11600
 0
LINE
8
COUCHE_1
 6
CONTINUOUS
62
0
10
39800
20
-12400
11
39800
21
-12200
 0
LINE
8
COUCHE_1
 6
CONTINUOUS
62
0
10
39500
20
-11700
11
40100
21
-12300
 0
CIRCLE
8
COUCHE_1
62
0
 6
CONTINUOUS
10
39800
20
-12000
40
200
0
POLYLINE
5
2B
 8
0
62
1
 6
CONTINUOUS
 66
 1
 10
0
 20
0
 30
0
 70
1
 0
VERTEX
 5
33
  8
0
 10
39700
 20
-11500
 0
VERTEX
 5
33
  8
0
 10
39900
 20
-11500
 0
VERTEX
 5
33
  8
0
 10
39900
 20
-11700
 0
VERTEX
 5
33
  8
0
 10
39700
 20
-11700
 0
SEQEND
 5
37
 8
0
 0
LINE
8
COUCHE_1
 6
CONTINUOUS
62
1
10
39800
20
-11600
11
39800
21
-11600
0
POLYLINE
5
2B
 8
0
62
1
 6
CONTINUOUS
 66
 1
 10
0
 20
0
 30
0
 70
1
 0
VERTEX
 5
33
  8
0
 10
39700
 20
-12300
 0
VERTEX
 5
33
  8
0
 10
39900
 20
-12300
 0
VERTEX
 5
33
  8
0
 10
39900
 20
-12500
 0
VERTEX
 5
33
  8
0
 10
39700
 20
-12500
 0
SEQEND
 5
37
 8
0
 0
LINE
8
COUCHE_1
 6
CONTINUOUS
62
1
10
39800
20
-12400
11
39800
21
-12400
0
TEXT
8
COUCHE_1
 10
40000
 20
-11400
 11
40000
 21
-11400
 40
200
 1
2
50
0
 72
0
 73
3
62
0
 0
LINE
8
COUCHE_1
 6
CONTINUOUS
62
5
10
38200
20
-17000
11
38000
21
-16200
 0
LINE
8
COUCHE_1
 6
CONTINUOUS
62
5
10
37200
20
-16600
11
37400
21
-16600
 0
LINE
8
COUCHE_1
 6
CONTINUOUS
62
5
10
37600
20
-16600
11
37800
21
-16600
 0
LINE
8
COUCHE_1
 6
CONTINUOUS
62
5
10
38000
20
-16600
11
38200
21
-16600
 0
ARC
8
COUCHE_1
62
5
10
37000
20
-16400
40
200
50
270
51
90
 0
ARC
8
COUCHE_1
62
5
10
37000
20
-16800
40
200
50
270
51
90
0
POLYLINE
5
2B
 8
0
62
1
 6
CONTINUOUS
 66
 1
 10
0
 20
0
 30
0
 70
1
 0
VERTEX
 5
33
  8
0
 10
36950
 20
-15350
 0
VERTEX
 5
33
  8
0
 10
37050
 20
-15350
 0
VERTEX
 5
33
  8
0
 10
37050
 20
-15450
 0
VERTEX
 5
33
  8
0
 10
36950
 20
-15450
 0
SEQEND
 5
37
 8
0
 0
LINE
8
COUCHE_1
 6
CONTINUOUS
62
1
10
37000
20
-15400
11
37000
21
-16200
0
TEXT
8
COUCHE_1
 10
36700
 20
-15400
 11
36700
 21
-15400
 40
150
 1
B1
50
0
 72
1
 73
3
62
0
0
TEXT
8
COUCHE_1
 10
37050
 20
-15650
 11
37050
 21
-15650
 40
150
 1
1
50
0
 72
0
 73
3
62
4
0
POLYLINE
5
2B
 8
0
62
1
 6
CONTINUOUS
 66
 1
 10
0
 20
0
 30
0
 70
1
 0
VERTEX
 5
33
  8
0
 10
36950
 20
-17750
 0
VERTEX
 5
33
  8
0
 10
37050
 20
-17750
 0
VERTEX
 5
33
  8
0
 10
37050
 20
-17850
 0
VERTEX
 5
33
  8
0
 10
36950
 20
-17850
 0
SEQEND
 5
37
 8
0
 0
LINE
8
COUCHE_1
 6
CONTINUOUS
62
1
10
37000
20
-17800
11
37000
21
-17000
0
TEXT
8
COUCHE_1
 10
36700
 20
-17500
 11
36700
 21
-17500
 40
150
 1
B2
50
0
 72
1
 73
3
62
0
0
TEXT
8
COUCHE_1
 10
37050
 20
-17250
 11
37050
 21
-17250
 40
150
 1
2
50
0
 72
0
 73
3
62
4
0
POLYLINE
5
2B
 8
0
62
1
 6
CONTINUOUS
 66
 1
 10
0
 20
0
 30
0
 70
1
 0
VERTEX
 5
33
  8
0
 10
38150
 20
-15350
 0
VERTEX
 5
33
  8
0
 10
38250
 20
-15350
 0
VERTEX
 5
33
  8
0
 10
38250
 20
-15450
 0
VERTEX
 5
33
  8
0
 10
38150
 20
-15450
 0
SEQEND
 5
37
 8
0
 0
LINE
8
COUCHE_1
 6
CONTINUOUS
62
1
10
38200
20
-15400
11
38200
21
-16200
0
TEXT
8
COUCHE_1
 10
38500
 20
-15300
 11
38500
 21
-15300
 40
150
 1
C1
50
0
 72
1
 73
3
62
0
0
TEXT
8
COUCHE_1
 10
38250
 20
-15650
 11
38250
 21
-15650
 40
150
 1
3
50
0
 72
0
 73
3
62
4
0
POLYLINE
5
2B
 8
0
62
1
 6
CONTINUOUS
 66
 1
 10
0
 20
0
 30
0
 70
1
 0
VERTEX
 5
33
  8
0
 10
38150
 20
-17750
 0
VERTEX
 5
33
  8
0
 10
38250
 20
-17750
 0
VERTEX
 5
33
  8
0
 10
38250
 20
-17850
 0
VERTEX
 5
33
  8
0
 10
38150
 20
-17850
 0
SEQEND
 5
37
 8
0
 0
LINE
8
COUCHE_1
 6
CONTINUOUS
62
1
10
38200
20
-17800
11
38200
21
-17000
0
TEXT
8
COUCHE_1
 10
38600
 20
-17500
 11
38600
 21
-17500
 40
150
 1
C2
50
0
 72
1
 73
3
62
0
0
TEXT
8
COUCHE_1
 10
38250
 20
-17250
 11
38250
 21
-17250
 40
150
 1
4
50
0
 72
0
 73
3
62
4
 0
LINE
8
COUCHE_1
 6
CONTINUOUS
62
5
10
38200
20
-20000
11
38300
21
-20100
 0
LINE
8
COUCHE_1
 6
CONTINUOUS
62
5
10
38200
20
-20000
11
38100
21
-20100
 0
LINE
8
COUCHE_1
 6
CONTINUOUS
62
5
10
39800
20
-20000
11
39900
21
-20100
 0
LINE
8
COUCHE_1
 6
CONTINUOUS
62
5
10
39800
20
-20000
11
39700
21
-20100
 0
LINE
8
COUCHE_1
 6
CONTINUOUS
62
0
10
38200
20
-6000
11
38400
21
-6000
 0
LINE
8
COUCHE_1
 6
CONTINUOUS
62
0
10
39800
20
-6000
11
39600
21
-6000
 0
LINE
8
COUCHE_1
 6
CONTINUOUS
62
0
10
38600
20
-5600
11
39400
21
-6400
 0
LINE
8
COUCHE_1
 6
CONTINUOUS
62
0
10
39400
20
-5600
11
38600
21
-6400
 0
CIRCLE
8
COUCHE_1
62
0
 6
CONTINUOUS
10
39000
20
-6000
40
600
0
POLYLINE
5
2B
 8
0
62
1
 6
CONTINUOUS
 66
 1
 10
0
 20
0
 30
0
 70
1
 0
VERTEX
 5
33
  8
0
 10
37300
 20
-5900
 0
VERTEX
 5
33
  8
0
 10
37500
 20
-5900
 0
VERTEX
 5
33
  8
0
 10
37500
 20
-6100
 0
VERTEX
 5
33
  8
0
 10
37300
 20
-6100
 0
SEQEND
 5
37
 8
0
 0
LINE
8
COUCHE_1
 6
CONTINUOUS
62
1
10
37400
20
-6000
11
38200
21
-6000
0
POLYLINE
5
2B
 8
0
62
1
 6
CONTINUOUS
 66
 1
 10
0
 20
0
 30
0
 70
1
 0
VERTEX
 5
33
  8
0
 10
40500
 20
-5900
 0
VERTEX
 5
33
  8
0
 10
40700
 20
-5900
 0
VERTEX
 5
33
  8
0
 10
40700
 20
-6100
 0
VERTEX
 5
33
  8
0
 10
40500
 20
-6100
 0
SEQEND
 5
37
 8
0
 0
LINE
8
COUCHE_1
 6
CONTINUOUS
62
1
10
40600
20
-6000
11
39800
21
-6000
0
TEXT
8
COUCHE_1
 10
38800
 20
-4800
 11
38800
 21
-4800
 40
300
 1
Ec
50
0
 72
0
 73
3
62
0
 0
LINE
8
COUCHE_1
 6
CONTINUOUS
62
5
10
20400
20
-8400
11
20300
21
-8500
 0
LINE
8
COUCHE_1
 6
CONTINUOUS
62
5
10
20400
20
-8400
11
20300
21
-8300
 0
LINE
8
COUCHE_1
 6
CONTINUOUS
62
0
10
7400
20
-10400
11
2800
21
-10400
 0
LINE
8
COUCHE_1
 6
CONTINUOUS
62
0
10
5200
20
-10600
11
5600
21
-10200
 0
LINE
8
COUCHE_1
 6
CONTINUOUS
62
0
10
5800
20
-10600
11
6200
21
-10200
 0
LINE
8
COUCHE_1
 6
CONTINUOUS
62
0
10
6400
20
-10600
11
6800
21
-10200
 0
LINE
8
COUCHE_1
 6
CONTINUOUS
62
0
10
6000
20
-8800
11
6000
21
-8600
 0
LINE
8
COUCHE_1
 6
CONTINUOUS
62
0
10
5400
20
-8200
11
5400
21
-8000
 0
LINE
8
COUCHE_1
 6
ACAD_ISO07W100
62
0
10
6600
20
-8200
11
6600
21
-8000
 0
LINE
8
COUCHE_1
 6
CONTINUOUS
62
0
10
12200
20
-12000
11
12600
21
-11600
 0
LINE
8
COUCHE_1
 6
CONTINUOUS
62
0
10
16800
20
-12000
11
17200
21
-11600
 0
LINE
8
COUCHE_1
 6
CONTINUOUS
62
0
10
22200
20
-12000
11
22600
21
-11600
 0
LINE
8
COUCHE_1
 6
CONTINUOUS
62
0
10
5400
20
-16000
11
5400
21
-8200
 0
LINE
8
COUCHE_1
 6
CONTINUOUS
62
0
10
5400
20
-11000
11
12000
21
-11000
 0
LINE
8
COUCHE_1
 6
CONTINUOUS
62
0
10
12000
20
-11000
11
12400
21
-11000
 0
LINE
8
COUCHE_1
 6
CONTINUOUS
62
0
10
12400
20
-12400
11
12400
21
-11000
 0
LINE
8
COUCHE_1
 6
CONTINUOUS
62
0
10
17000
20
-11000
11
12400
21
-11000
 0
LINE
8
COUCHE_1
 6
CONTINUOUS
62
0
10
17000
20
-12400
11
17000
21
-11000
 0
LINE
8
COUCHE_1
 6
CONTINUOUS
62
0
10
22400
20
-11000
11
17000
21
-11000
 0
LINE
8
COUCHE_1
 6
CONTINUOUS
62
0
10
22400
20
-12400
11
22400
21
-11000
 0
LINE
8
COUCHE_1
 6
CONTINUOUS
62
0
10
6000
20
-16000
11
6000
21
-8800
 0
LINE
8
COUCHE_1
 6
CONTINUOUS
62
0
10
6000
20
-13000
11
12400
21
-13000
 0
LINE
8
COUCHE_1
 6
CONTINUOUS
62
0
10
12400
20
-14000
11
12400
21
-13000
 0
LINE
8
COUCHE_1
 6
CONTINUOUS
62
0
10
12400
20
-14200
11
12400
21
-14000
 0
LINE
8
COUCHE_1
 6
CONTINUOUS
62
0
10
17000
20
-13000
11
12400
21
-13000
 0
LINE
8
COUCHE_1
 6
CONTINUOUS
62
0
10
17000
20
-14200
11
17000
21
-13000
 0
LINE
8
COUCHE_1
 6
CONTINUOUS
62
0
10
22400
20
-13000
11
17000
21
-13000
 0
LINE
8
COUCHE_1
 6
CONTINUOUS
62
0
10
22400
20
-14200
11
22400
21
-13000
 0
LINE
8
COUCHE_1
 6
CONTINUOUS
62
0
10
6600
20
-16000
11
6600
21
-8000
 0
LINE
8
COUCHE_1
 6
CONTINUOUS
62
0
10
6600
20
-14600
11
12400
21
-14600
 0
LINE
8
COUCHE_1
 6
CONTINUOUS
62
0
10
12400
20
-15800
11
12400
21
-14600
 0
LINE
8
COUCHE_1
 6
CONTINUOUS
62
0
10
17000
20
-14600
11
12400
21
-14600
 0
LINE
8
COUCHE_1
 6
CONTINUOUS
62
0
10
17000
20
-15800
11
17000
21
-14600
 0
LINE
8
COUCHE_1
 6
CONTINUOUS
62
0
10
22400
20
-14600
11
17000
21
-14600
 0
LINE
8
COUCHE_1
 6
CONTINUOUS
62
0
10
22400
20
-15800
11
22400
21
-14600
 0
LINE
8
COUCHE_1
 6
CONTINUOUS
62
0
10
12200
20
-13800
11
12600
21
-13400
 0
LINE
8
COUCHE_1
 6
CONTINUOUS
62
0
10
16800
20
-13800
11
17200
21
-13400
 0
LINE
8
COUCHE_1
 6
CONTINUOUS
62
0
10
22200
20
-13800
11
22600
21
-13400
 0
LINE
8
COUCHE_1
 6
CONTINUOUS
62
0
10
12200
20
-15400
11
12600
21
-15000
 0
LINE
8
COUCHE_1
 6
CONTINUOUS
62
0
10
16800
20
-15400
11
17200
21
-15000
 0
LINE
8
COUCHE_1
 6
CONTINUOUS
62
0
10
22200
20
-15400
11
22600
21
-15000
 0
LINE
8
COUCHE_1
 6
CONTINUOUS
62
0
10
25000
20
-7600
11
28600
21
-7600
 0
LINE
8
COUCHE_1
 6
CONTINUOUS
62
0
10
25000
20
-7600
11
24600
21
-7600
 0
LINE
8
COUCHE_1
 6
CONTINUOUS
62
0
10
20400
20
-8400
11
21200
21
-8400
 0
LINE
8
COUCHE_1
 6
CONTINUOUS
62
0
10
8200
20
-12000
11
8600
21
-11600
 0
LINE
8
COUCHE_1
 6
CONTINUOUS
62
0
10
8000
20
-11000
11
8400
21
-11000
 0
LINE
8
COUCHE_1
 6
CONTINUOUS
62
0
10
8400
20
-12400
11
8400
21
-11000
 0
LINE
8
COUCHE_1
 6
CONTINUOUS
62
0
10
8400
20
-14000
11
8400
21
-13000
 0
LINE
8
COUCHE_1
 6
CONTINUOUS
62
0
10
8400
20
-14200
11
8400
21
-14000
 0
LINE
8
COUCHE_1
 6
CONTINUOUS
62
0
10
8400
20
-15800
11
8400
21
-14600
 0
LINE
8
COUCHE_1
 6
CONTINUOUS
62
0
10
8200
20
-13800
11
8600
21
-13400
 0
LINE
8
COUCHE_1
 6
CONTINUOUS
62
0
10
8200
20
-15400
11
8600
21
-15000
 0
LINE
8
COUCHE_1
 6
CONTINUOUS
62
0
10
38200
20
-14600
11
38200
21
-12400
 0
LINE
8
COUCHE_1
 6
CONTINUOUS
62
0
10
39800
20
-14600
11
39800
21
-12400
 0
LINE
8
COUCHE_1
 6
CONTINUOUS
62
0
10
38200
20
-15400
11
38200
21
-14600
 0
LINE
8
COUCHE_1
 6
CONTINUOUS
62
0
10
38200
20
-19600
11
38200
21
-17800
 0
LINE
8
COUCHE_1
 6
CONTINUOUS
62
0
10
38200
20
-19800
11
38200
21
-19600
 0
LINE
8
COUCHE_1
 6
CONTINUOUS
62
0
10
38200
20
-20000
11
38200
21
-19800
 0
LINE
8
COUCHE_1
 6
CONTINUOUS
62
0
10
39800
20
-20000
11
39800
21
-14600
 0
LINE
8
COUCHE_1
 6
CONTINUOUS
62
0
10
37000
20
-18600
11
37000
21
-17800
 0
LINE
8
COUCHE_1
 6
CONTINUOUS
62
0
10
35400
20
-18600
11
37000
21
-18600
 0
LINE
8
COUCHE_1
 6
CONTINUOUS
62
0
10
37000
20
-15400
11
37000
21
-14800
 0
LINE
8
COUCHE_1
 6
CONTINUOUS
62
0
10
36000
20
-14800
11
37000
21
-14800
 0
LINE
8
COUCHE_1
 6
CONTINUOUS
62
0
10
35600
20
-14800
11
36000
21
-14800
 0
LINE
8
COUCHE_1
 6
CONTINUOUS
62
0
10
27400
20
-23600
11
26600
21
-23600
 0
LINE
8
COUCHE_1
 6
CONTINUOUS
62
0
10
6000
20
-8600
11
6000
21
-8000
 0
LINE
8
COUCHE_1
 6
CONTINUOUS
62
0
10
21200
20
-22800
11
22800
21
-22800
 0
LINE
8
COUCHE_1
 6
CONTINUOUS
62
0
10
21200
20
-23600
11
22800
21
-23600
 0
LINE
8
COUCHE_1
 6
CONTINUOUS
62
0
10
24600
20
-8400
11
30000
21
-8400
 0
LINE
8
COUCHE_1
 6
CONTINUOUS
62
0
10
24200
20
-9600
11
24200
21
-10400
 0
LINE
8
COUCHE_1
 6
CONTINUOUS
62
0
10
24200
20
-10400
11
24200
21
-23600
 0
LINE
8
COUCHE_1
 6
CONTINUOUS
62
0
10
27200
20
-22800
11
26400
21
-22800
 0
LINE
8
COUCHE_1
 6
CONTINUOUS
62
0
10
38200
20
-11600
11
38200
21
-11400
 0
LINE
8
COUCHE_1
 6
CONTINUOUS
62
5
10
27400
20
-22800
11
27200
21
-22800
 0
LINE
8
COUCHE_1
 6
CONTINUOUS
62
0
10
30000
20
-8400
11
30000
21
-23600
 0
LINE
8
COUCHE_1
 6
CONTINUOUS
62
0
10
28600
20
-23600
11
30000
21
-23600
 0
LINE
8
COUCHE_1
 6
CONTINUOUS
62
0
10
22800
20
-24400
11
22800
21
-22800
 0
LINE
8
COUCHE_1
 6
CONTINUOUS
62
0
10
28600
20
-22800
11
28600
21
-24400
 0
LINE
8
COUCHE_1
 6
CONTINUOUS
62
0
10
27400
20
-22800
11
28600
21
-22800
 0
LINE
8
COUCHE_1
 6
CONTINUOUS
62
0
10
26800
20
-24400
11
28600
21
-24400
 0
LINE
8
COUCHE_1
 6
CONTINUOUS
62
0
10
28600
20
-7600
11
34000
21
-7600
 0
LINE
8
COUCHE_1
 6
CONTINUOUS
62
0
10
34000
20
-7600
11
34000
21
-23600
 0
LINE
8
COUCHE_1
 6
CONTINUOUS
62
0
10
34000
20
-23600
11
32600
21
-23600
 0
LINE
8
COUCHE_1
 6
CONTINUOUS
62
0
10
32600
20
-22800
11
32600
21
-24400
 0
LINE
8
COUCHE_1
 6
CONTINUOUS
62
0
10
32600
20
-22800
11
31400
21
-22800
 0
LINE
8
COUCHE_1
 6
CONTINUOUS
62
0
10
32600
20
-24400
11
31400
21
-24400
 0
LINE
8
COUCHE_1
 6
CONTINUOUS
62
0
10
38200
20
-11400
11
38200
21
-10000
 0
LINE
8
COUCHE_1
 6
CONTINUOUS
62
0
10
38200
20
-10000
11
37400
21
-10000
 0
LINE
8
COUCHE_1
 6
CONTINUOUS
62
0
10
37400
20
-10000
11
37400
21
-6000
 0
LINE
8
COUCHE_1
 6
CONTINUOUS
62
0
10
40600
20
-6000
11
40600
21
-10000
 0
LINE
8
COUCHE_1
 6
CONTINUOUS
62
0
10
40600
20
-10000
11
39800
21
-10000
 0
LINE
8
COUCHE_1
 6
CONTINUOUS
62
0
10
39800
20
-11600
11
39800
21
-10000
 0
LINE
8
COUCHE_1
 6
CONTINUOUS
62
0
10
41000
20
-10600
11
34600
21
-10600
 0
CIRCLE
8
COUCHE_1
62
5
 6
CONTINUOUS
10
5400
20
-11000
40
40
 0
CIRCLE
8
COUCHE_1
62
5
 6
CONTINUOUS
10
12400
20
-11000
40
40
 0
CIRCLE
8
COUCHE_1
62
5
 6
CONTINUOUS
10
17000
20
-11000
40
40
 0
CIRCLE
8
COUCHE_1
62
5
 6
CONTINUOUS
10
6000
20
-13000
40
40
 0
CIRCLE
8
COUCHE_1
62
5
 6
CONTINUOUS
10
12400
20
-13000
40
40
 0
CIRCLE
8
COUCHE_1
62
5
 6
CONTINUOUS
10
17000
20
-13000
40
40
 0
CIRCLE
8
COUCHE_1
62
5
 6
CONTINUOUS
10
6600
20
-14600
40
40
 0
CIRCLE
8
COUCHE_1
62
5
 6
CONTINUOUS
10
12400
20
-14600
40
40
 0
CIRCLE
8
COUCHE_1
62
5
 6
CONTINUOUS
10
17000
20
-14600
40
40
 0
CIRCLE
8
COUCHE_1
62
5
 6
CONTINUOUS
10
8400
20
-11000
40
40
 0
CIRCLE
8
COUCHE_1
62
5
 6
CONTINUOUS
10
8400
20
-13000
40
40
 0
CIRCLE
8
COUCHE_1
62
5
 6
CONTINUOUS
10
8400
20
-14600
40
40
0
POLYLINE
5
2B
 8
0
62
1
 6
CONTINUOUS
 66
 1
 10
0
 20
0
 30
0
 70
1
 0
VERTEX
 5
33
  8
0
 10
6000
 20
-7800
 0
VERTEX
 5
33
  8
0
 10
5800
 20
-7500
 0
VERTEX
 5
33
  8
0
 10
6000
 20
-7600
 0
VERTEX
 5
33
  8
0
 10
6200
 20
-7500
 0
SEQEND
 5
37
 8
0
 0
LINE
8
COUCHE_1
 6
CONTINUOUS
62
1
10
6000
20
-8000
11
6000
21
-7800
0
TEXT
8
COUCHE_1
 10
6000
 20
-7500
 11
6000
 21
-7500
 40
150
 1
A220_0
50
0
 72
1
 73
1
62
1
0
POLYLINE
5
2B
 8
0
62
1
 6
CONTINUOUS
 66
 1
 10
0
 20
0
 30
0
 70
1
 0
VERTEX
 5
33
  8
0
 10
5400
 20
-7800
 0
VERTEX
 5
33
  8
0
 10
5200
 20
-7500
 0
VERTEX
 5
33
  8
0
 10
5400
 20
-7600
 0
VERTEX
 5
33
  8
0
 10
5600
 20
-7500
 0
SEQEND
 5
37
 8
0
 0
LINE
8
COUCHE_1
 6
CONTINUOUS
62
1
10
5400
20
-8000
11
5400
21
-7800
0
TEXT
8
COUCHE_1
 10
5400
 20
-7500
 11
5400
 21
-7500
 40
150
 1
A220
50
0
 72
1
 73
1
62
1
0
POLYLINE
5
2B
 8
0
62
1
 6
CONTINUOUS
 66
 1
 10
0
 20
0
 30
0
 70
1
 0
VERTEX
 5
33
  8
0
 10
6600
 20
-7800
 0
VERTEX
 5
33
  8
0
 10
6400
 20
-7500
 0
VERTEX
 5
33
  8
0
 10
6600
 20
-7600
 0
VERTEX
 5
33
  8
0
 10
6800
 20
-7500
 0
SEQEND
 5
37
 8
0
 0
LINE
8
COUCHE_1
 6
CONTINUOUS
62
1
10
6600
20
-8000
11
6600
21
-7800
0
TEXT
8
COUCHE_1
 10
6600
 20
-7500
 11
6600
 21
-7500
 40
150
 1
A220_T
50
0
 72
1
 73
1
62
1
0
POLYLINE
5
2B
 8
0
62
1
 6
CONTINUOUS
 66
 1
 10
0
 20
0
 30
0
 70
1
 0
VERTEX
 5
33
  8
0
 10
35400
 20
-14800
 0
VERTEX
 5
33
  8
0
 10
35100
 20
-14600
 0
VERTEX
 5
33
  8
0
 10
35200
 20
-14800
 0
VERTEX
 5
33
  8
0
 10
35100
 20
-15000
 0
SEQEND
 5
37
 8
0
 0
LINE
8
COUCHE_1
 6
CONTINUOUS
62
1
10
35600
20
-14800
11
35400
21
-14800
0
TEXT
8
COUCHE_1
 10
35100
 20
-14800
 11
35100
 21
-14800
 40
150
 1
Ec_24
50
0
 72
2
 73
2
62
1
0
POLYLINE
5
2B
 8
0
62
1
 6
CONTINUOUS
 66
 1
 10
0
 20
0
 30
0
 70
1
 0
VERTEX
 5
33
  8
0
 10
21000
 20
-23600
 0
VERTEX
 5
33
  8
0
 10
20700
 20
-23400
 0
VERTEX
 5
33
  8
0
 10
20800
 20
-23600
 0
VERTEX
 5
33
  8
0
 10
20700
 20
-23800
 0
SEQEND
 5
37
 8
0
 0
LINE
8
COUCHE_1
 6
CONTINUOUS
62
1
10
21200
20
-23600
11
21000
21
-23600
0
TEXT
8
COUCHE_1
 10
20700
 20
-23600
 11
20700
 21
-23600
 40
150
 1
CNC-USB
50
0
 72
2
 73
2
62
1
0
POLYLINE
5
2B
 8
0
62
1
 6
CONTINUOUS
 66
 1
 10
0
 20
0
 30
0
 70
1
 0
VERTEX
 5
33
  8
0
 10
26400
 20
-23600
 0
VERTEX
 5
33
  8
0
 10
26100
 20
-23400
 0
VERTEX
 5
33
  8
0
 10
26200
 20
-23600
 0
VERTEX
 5
33
  8
0
 10
26100
 20
-23800
 0
SEQEND
 5
37
 8
0
 0
LINE
8
COUCHE_1
 6
CONTINUOUS
62
1
10
26600
20
-23600
11
26400
21
-23600
0
TEXT
8
COUCHE_1
 10
26100
 20
-23600
 11
26100
 21
-23600
 40
150
 1
Cam1
50
0
 72
2
 73
2
62
1
0
POLYLINE
5
2B
 8
0
62
1
 6
CONTINUOUS
 66
 1
 10
0
 20
0
 30
0
 70
1
 0
VERTEX
 5
33
  8
0
 10
26400
 20
-22800
 0
VERTEX
 5
33
  8
0
 10
26100
 20
-22600
 0
VERTEX
 5
33
  8
0
 10
26200
 20
-22800
 0
VERTEX
 5
33
  8
0
 10
26100
 20
-23000
 0
SEQEND
 5
37
 8
0
 0
LINE
8
COUCHE_1
 6
CONTINUOUS
62
1
10
26600
20
-22800
11
26400
21
-22800
0
TEXT
8
COUCHE_1
 10
26100
 20
-22800
 11
26100
 21
-22800
 40
150
 1
Cam2
50
0
 72
2
 73
2
62
1
0
POLYLINE
5
2B
 8
0
62
1
 6
CONTINUOUS
 66
 1
 10
0
 20
0
 30
0
 70
1
 0
VERTEX
 5
33
  8
0
 10
21000
 20
-22800
 0
VERTEX
 5
33
  8
0
 10
20700
 20
-22600
 0
VERTEX
 5
33
  8
0
 10
20800
 20
-22800
 0
VERTEX
 5
33
  8
0
 10
20700
 20
-23000
 0
SEQEND
 5
37
 8
0
 0
LINE
8
COUCHE_1
 6
CONTINUOUS
62
1
10
21200
20
-22800
11
21000
21
-22800
0
TEXT
8
COUCHE_1
 10
20700
 20
-22800
 11
20700
 21
-22800
 40
150
 1
Cam3
50
0
 72
2
 73
2
62
1
0
POLYLINE
5
2B
 8
0
62
1
 6
CONTINUOUS
 66
 1
 10
0
 20
0
 30
0
 70
1
 0
VERTEX
 5
33
  8
0
 10
35400
 20
-18600
 0
VERTEX
 5
33
  8
0
 10
35100
 20
-18400
 0
VERTEX
 5
33
  8
0
 10
35200
 20
-18600
 0
VERTEX
 5
33
  8
0
 10
35100
 20
-18800
 0
SEQEND
 5
37
 8
0
 0
LINE
8
COUCHE_1
 6
CONTINUOUS
62
1
10
35600
20
-18600
11
35400
21
-18600
0
TEXT
8
COUCHE_1
 10
35100
 20
-18600
 11
35100
 21
-18600
 40
150
 1
Ec_0
50
0
 72
2
 73
2
62
1
0
TEXT
8
COUCHE_1
 10
21800
 20
-27800
 11
21800
 21
-27800
 40
300
 1
Armoire   supérieure
50
0
 72
0
 73
3
62
0
0
TEXT
8
COUCHE_1
 10
3000
 20
-10000
 11
3000
 21
-10000
 40
150
 1
WALIM220 3G_2.5
50
0
 72
0
 73
3
62
0
0
TEXT
8
COUCHE_1
 10
11000
 20
-16600
 11
11000
 21
-16600
 40
150
 1
Ventilation armoire supérieure
50
0
 72
0
 73
3
62
0
0
TEXT
8
COUCHE_1
 10
20800
 20
-16600
 11
20800
 21
-16600
 40
150
 1
Vers onduleur Mini-pc NUC
50
0
 72
0
 73
3
62
0
0
TEXT
8
COUCHE_1
 10
15800
 20
-16600
 11
15800
 21
-16600
 40
150
 1
Alimentation Ecran 12"
50
0
 72
0
 73
3
62
0
0
TEXT
8
COUCHE_1
 10
22800
 20
-5600
 11
22800
 21
-5600
 40
200
 1
Distribution 220V
50
0
 72
0
 73
3
62
0
0
TEXT
8
COUCHE_1
 10
15200
 20
-11800
 11
15200
 21
-11800
 40
75
 1
WALIMVENT 3G_1.5
50
0
 72
0
 73
3
62
0
0
TEXT
8
COUCHE_1
 10
15400
 20
-13600
 11
15400
 21
-13600
 40
75
 1
WALIMPC 3G_1.5
50
0
 72
0
 73
3
62
0
0
TEXT
8
COUCHE_1
 10
15400
 20
-15200
 11
15400
 21
-15200
 40
75
 1
WALIMPC 3G_1.5
50
0
 72
0
 73
3
62
0
0
TEXT
8
COUCHE_1
 10
22400
 20
-7400
 11
22400
 21
-7400
 40
100
 1
D54250WYK
50
0
 72
0
 73
3
62
0
0
TEXT
8
COUCHE_1
 10
24800
 20
-7400
 11
24800
 21
-7400
 40
100
 1
USB3
50
0
 72
0
 73
3
62
0
0
TEXT
8
COUCHE_1
 10
20600
 20
-8200
 11
20600
 21
-8200
 40
100
 1
HDMI
50
0
 72
0
 73
3
62
0
0
TEXT
8
COUCHE_1
 10
24800
 20
-8200
 11
24800
 21
-8200
 40
100
 1
USB2
50
0
 72
0
 73
3
62
0
0
TEXT
8
COUCHE_1
 10
7800
 20
-16600
 11
7800
 21
-16600
 40
150
 1
Eclairage Banc
50
0
 72
0
 73
3
62
0
0
TEXT
8
COUCHE_1
 10
8200
 20
-12400
 11
8200
 21
-12400
 40
150
 1
Ec_220
50
0
 72
0
 73
3
62
0
0
TEXT
8
COUCHE_1
 10
37800
 20
-20200
 11
37800
 21
-20200
 40
150
 1
Ec_220
50
0
 72
0
 73
3
62
0
0
TEXT
8
COUCHE_1
 10
12000
 20
-12400
 11
12000
 21
-12400
 40
150
 1
VE_220
50
0
 72
0
 73
3
62
0
0
TEXT
8
COUCHE_1
 10
16600
 20
-12400
 11
16600
 21
-12400
 40
150
 1
SC_220
50
0
 72
0
 73
3
62
0
0
TEXT
8
COUCHE_1
 10
22000
 20
-12400
 11
22000
 21
-12400
 40
150
 1
PC_220
50
0
 72
0
 73
3
62
0
0
TEXT
8
COUCHE_1
 10
8200
 20
-14200
 11
8200
 21
-14200
 40
150
 1
Ec_0
50
0
 72
0
 73
3
62
0
0
TEXT
8
COUCHE_1
 10
39600
 20
-20200
 11
39600
 21
-20200
 40
150
 1
Ec_0
50
0
 72
0
 73
3
62
0
0
TEXT
8
COUCHE_1
 10
12200
 20
-14200
 11
12200
 21
-14200
 40
150
 1
VE_0
50
0
 72
0
 73
3
62
0
0
TEXT
8
COUCHE_1
 10
16800
 20
-14200
 11
16800
 21
-14200
 40
150
 1
SC_0
50
0
 72
0
 73
3
62
0
0
TEXT
8
COUCHE_1
 10
22200
 20
-14200
 11
22200
 21
-14200
 40
150
 1
PC_0
50
0
 72
0
 73
3
62
0
0
TEXT
8
COUCHE_1
 10
8200
 20
-15800
 11
8200
 21
-15800
 40
150
 1
Ec_T
50
0
 72
0
 73
3
62
0
0
TEXT
8
COUCHE_1
 10
12200
 20
-15800
 11
12200
 21
-15800
 40
150
 1
VE_T
50
0
 72
0
 73
3
62
0
0
TEXT
8
COUCHE_1
 10
16800
 20
-15800
 11
16800
 21
-15800
 40
150
 1
SC_T
50
0
 72
0
 73
3
62
0
0
TEXT
8
COUCHE_1
 10
22200
 20
-15800
 11
22200
 21
-15800
 40
150
 1
PC_T
50
0
 72
0
 73
3
62
0
0
TEXT
8
COUCHE_1
 10
24400
 20
-9800
 11
24400
 21
-9800
 40
100
 1
USB1
50
0
 72
0
 73
3
62
0
0
TEXT
8
COUCHE_1
 10
19600
 20
-24200
 11
19600
 21
-24200
 40
150
 1
USB-sc
50
0
 72
0
 73
3
62
0
0
TEXT
8
COUCHE_1
 10
40800
 20
-11800
 11
40800
 21
-11800
 40
200
 1
X7
50
0
 72
0
 73
3
62
0
0
TEXT
8
COUCHE_1
 10
30800
 20
-25000
 11
30800
 21
-25000
 40
150
 1
Périphériques extérieurs
50
90
 72
0
 73
3
62
0
0
TEXT
8
COUCHE_1
 10
2800
 20
-5600
 11
2800
 21
-5600
 40
200
 1
X7
50
0
 72
0
 73
3
62
0
0
TEXT
8
COUCHE_1
 10
34800
 20
-10200
 11
34800
 21
-10200
 40
150
 1
WEc220 3G_2.5
50
0
 72
0
 73
3
62
0
0
TEXT
8
COUCHE_1
 10
22200
 20
-8200
 11
22200
 21
-8200
 40
150
 1
Mini PC Nuc
50
0
 72
0
 73
3
62
0
 0
LINE
8
COUCHE_1
 6
CONTINUOUS
62
0
10
1200
20
-1200
11
41600
21
-1200
 0
LINE
8
COUCHE_1
 6
CONTINUOUS
62
0
10
1600
20
-1600
11
41600
21
-1600
 0
LINE
8
COUCHE_1
 6
CONTINUOUS
62
0
10
3200
20
-1200
11
3200
21
-1600
 0
LINE
8
COUCHE_1
 6
CONTINUOUS
62
0
10
4800
20
-1200
11
4800
21
-1600
 0
LINE
8
COUCHE_1
 6
CONTINUOUS
62
0
10
6400
20
-1200
11
6400
21
-1600
 0
LINE
8
COUCHE_1
 6
CONTINUOUS
62
0
10
8000
20
-1200
11
8000
21
-1600
 0
LINE
8
COUCHE_1
 6
CONTINUOUS
62
0
10
9600
20
-1200
11
9600
21
-1600
 0
LINE
8
COUCHE_1
 6
CONTINUOUS
62
0
10
11200
20
-1200
11
11200
21
-1600
 0
LINE
8
COUCHE_1
 6
CONTINUOUS
62
0
10
12800
20
-1200
11
12800
21
-1600
 0
LINE
8
COUCHE_1
 6
CONTINUOUS
62
0
10
14400
20
-1200
11
14400
21
-1600
 0
LINE
8
COUCHE_1
 6
CONTINUOUS
62
0
10
16000
20
-1200
11
16000
21
-1600
 0
LINE
8
COUCHE_1
 6
CONTINUOUS
62
0
10
17600
20
-1200
11
17600
21
-1600
 0
LINE
8
COUCHE_1
 6
CONTINUOUS
62
0
10
19200
20
-1200
11
19200
21
-1600
 0
LINE
8
COUCHE_1
 6
CONTINUOUS
62
0
10
20800
20
-1200
11
20800
21
-1600
 0
LINE
8
COUCHE_1
 6
CONTINUOUS
62
0
10
22400
20
-1200
11
22400
21
-1600
 0
LINE
8
COUCHE_1
 6
CONTINUOUS
62
0
10
24000
20
-1200
11
24000
21
-1600
 0
LINE
8
COUCHE_1
 6
CONTINUOUS
62
0
10
25600
20
-1200
11
25600
21
-1600
 0
LINE
8
COUCHE_1
 6
CONTINUOUS
62
0
10
27200
20
-1200
11
27200
21
-1600
 0
LINE
8
COUCHE_1
 6
CONTINUOUS
62
0
10
28800
20
-1200
11
28800
21
-1600
 0
LINE
8
COUCHE_1
 6
CONTINUOUS
62
0
10
30400
20
-1200
11
30400
21
-1600
 0
LINE
8
COUCHE_1
 6
CONTINUOUS
62
0
10
32000
20
-1200
11
32000
21
-1600
 0
LINE
8
COUCHE_1
 6
CONTINUOUS
62
0
10
33600
20
-1200
11
33600
21
-1600
 0
LINE
8
COUCHE_1
 6
CONTINUOUS
62
0
10
35200
20
-1200
11
35200
21
-1600
 0
LINE
8
COUCHE_1
 6
CONTINUOUS
62
0
10
36800
20
-1200
11
36800
21
-1600
 0
LINE
8
COUCHE_1
 6
CONTINUOUS
62
0
10
38400
20
-1200
11
38400
21
-1600
 0
LINE
8
COUCHE_1
 6
CONTINUOUS
62
0
10
40000
20
-1200
11
40000
21
-1600
 0
LINE
8
COUCHE_1
 6
CONTINUOUS
62
0
10
41600
20
-1200
11
41600
21
-1600
 0
LINE
8
COUCHE_1
 6
CONTINUOUS
62
0
10
41600
20
-1200
11
41600
21
-1600
 0
LINE
8
COUCHE_1
 6
CONTINUOUS
62
0
10
1200
20
-29300
11
41600
21
-29300
0
TEXT
8
COUCHE_1
 10
2400
 20
-1250
 11
2400
 21
-1250
 40
150
 1
A
50
0
 72
1
 73
3
62
0
0
TEXT
8
COUCHE_1
 10
4000
 20
-1250
 11
4000
 21
-1250
 40
150
 1
B
50
0
 72
1
 73
3
62
0
0
TEXT
8
COUCHE_1
 10
5600
 20
-1250
 11
5600
 21
-1250
 40
150
 1
C
50
0
 72
1
 73
3
62
0
0
TEXT
8
COUCHE_1
 10
7200
 20
-1250
 11
7200
 21
-1250
 40
150
 1
D
50
0
 72
1
 73
3
62
0
0
TEXT
8
COUCHE_1
 10
8800
 20
-1250
 11
8800
 21
-1250
 40
150
 1
E
50
0
 72
1
 73
3
62
0
0
TEXT
8
COUCHE_1
 10
10400
 20
-1250
 11
10400
 21
-1250
 40
150
 1
F
50
0
 72
1
 73
3
62
0
0
TEXT
8
COUCHE_1
 10
12000
 20
-1250
 11
12000
 21
-1250
 40
150
 1
G
50
0
 72
1
 73
3
62
0
0
TEXT
8
COUCHE_1
 10
13600
 20
-1250
 11
13600
 21
-1250
 40
150
 1
H
50
0
 72
1
 73
3
62
0
0
TEXT
8
COUCHE_1
 10
15200
 20
-1250
 11
15200
 21
-1250
 40
150
 1
I
50
0
 72
1
 73
3
62
0
0
TEXT
8
COUCHE_1
 10
16800
 20
-1250
 11
16800
 21
-1250
 40
150
 1
J
50
0
 72
1
 73
3
62
0
0
TEXT
8
COUCHE_1
 10
18400
 20
-1250
 11
18400
 21
-1250
 40
150
 1
K
50
0
 72
1
 73
3
62
0
0
TEXT
8
COUCHE_1
 10
20000
 20
-1250
 11
20000
 21
-1250
 40
150
 1
L
50
0
 72
1
 73
3
62
0
0
TEXT
8
COUCHE_1
 10
21600
 20
-1250
 11
21600
 21
-1250
 40
150
 1
M
50
0
 72
1
 73
3
62
0
0
TEXT
8
COUCHE_1
 10
23200
 20
-1250
 11
23200
 21
-1250
 40
150
 1
N
50
0
 72
1
 73
3
62
0
0
TEXT
8
COUCHE_1
 10
24800
 20
-1250
 11
24800
 21
-1250
 40
150
 1
O
50
0
 72
1
 73
3
62
0
0
TEXT
8
COUCHE_1
 10
26400
 20
-1250
 11
26400
 21
-1250
 40
150
 1
P
50
0
 72
1
 73
3
62
0
0
TEXT
8
COUCHE_1
 10
28000
 20
-1250
 11
28000
 21
-1250
 40
150
 1
Q
50
0
 72
1
 73
3
62
0
0
TEXT
8
COUCHE_1
 10
29600
 20
-1250
 11
29600
 21
-1250
 40
150
 1
R
50
0
 72
1
 73
3
62
0
0
TEXT
8
COUCHE_1
 10
31200
 20
-1250
 11
31200
 21
-1250
 40
150
 1
S
50
0
 72
1
 73
3
62
0
0
TEXT
8
COUCHE_1
 10
32800
 20
-1250
 11
32800
 21
-1250
 40
150
 1
T
50
0
 72
1
 73
3
62
0
0
TEXT
8
COUCHE_1
 10
34400
 20
-1250
 11
34400
 21
-1250
 40
150
 1
U
50
0
 72
1
 73
3
62
0
0
TEXT
8
COUCHE_1
 10
36000
 20
-1250
 11
36000
 21
-1250
 40
150
 1
V
50
0
 72
1
 73
3
62
0
0
TEXT
8
COUCHE_1
 10
37600
 20
-1250
 11
37600
 21
-1250
 40
150
 1
W
50
0
 72
1
 73
3
62
0
0
TEXT
8
COUCHE_1
 10
39200
 20
-1250
 11
39200
 21
-1250
 40
150
 1
X
50
0
 72
1
 73
3
62
0
0
TEXT
8
COUCHE_1
 10
40800
 20
-1250
 11
40800
 21
-1250
 40
150
 1
Y
50
0
 72
1
 73
3
62
0
 0
LINE
8
COUCHE_1
 6
CONTINUOUS
62
0
10
1200
20
-1200
11
1200
21
-29300
 0
LINE
8
COUCHE_1
 6
CONTINUOUS
62
0
10
1600
20
-1600
11
1600
21
-29300
 0
LINE
8
COUCHE_1
 6
CONTINUOUS
62
0
10
1200
20
-3200
11
1600
21
-3200
 0
LINE
8
COUCHE_1
 6
CONTINUOUS
62
0
10
1200
20
-4800
11
1600
21
-4800
 0
LINE
8
COUCHE_1
 6
CONTINUOUS
62
0
10
1200
20
-6400
11
1600
21
-6400
 0
LINE
8
COUCHE_1
 6
CONTINUOUS
62
0
10
1200
20
-8000
11
1600
21
-8000
 0
LINE
8
COUCHE_1
 6
CONTINUOUS
62
0
10
1200
20
-9600
11
1600
21
-9600
 0
LINE
8
COUCHE_1
 6
CONTINUOUS
62
0
10
1200
20
-11200
11
1600
21
-11200
 0
LINE
8
COUCHE_1
 6
CONTINUOUS
62
0
10
1200
20
-12800
11
1600
21
-12800
 0
LINE
8
COUCHE_1
 6
CONTINUOUS
62
0
10
1200
20
-14400
11
1600
21
-14400
 0
LINE
8
COUCHE_1
 6
CONTINUOUS
62
0
10
1200
20
-16000
11
1600
21
-16000
 0
LINE
8
COUCHE_1
 6
CONTINUOUS
62
0
10
1200
20
-17600
11
1600
21
-17600
 0
LINE
8
COUCHE_1
 6
CONTINUOUS
62
0
10
1200
20
-19200
11
1600
21
-19200
 0
LINE
8
COUCHE_1
 6
CONTINUOUS
62
0
10
1200
20
-20800
11
1600
21
-20800
 0
LINE
8
COUCHE_1
 6
CONTINUOUS
62
0
10
1200
20
-22400
11
1600
21
-22400
 0
LINE
8
COUCHE_1
 6
CONTINUOUS
62
0
10
1200
20
-24000
11
1600
21
-24000
 0
LINE
8
COUCHE_1
 6
CONTINUOUS
62
0
10
1200
20
-25600
11
1600
21
-25600
 0
LINE
8
COUCHE_1
 6
CONTINUOUS
62
0
10
1200
20
-27200
11
1600
21
-27200
 0
LINE
8
COUCHE_1
 6
CONTINUOUS
62
0
10
1200
20
-28800
11
1600
21
-28800
 0
LINE
8
COUCHE_1
 6
CONTINUOUS
62
0
10
1200
20
-29300
11
1600
21
-29300
 0
LINE
8
COUCHE_1
 6
CONTINUOUS
62
0
10
41600
20
-1200
11
41600
21
-29300
0
TEXT
8
COUCHE_1
 10
1400
 20
-2250
 11
1400
 21
-2250
 40
150
 1
1
50
0
 72
1
 73
3
62
0
0
TEXT
8
COUCHE_1
 10
1400
 20
-3850
 11
1400
 21
-3850
 40
150
 1
2
50
0
 72
1
 73
3
62
0
0
TEXT
8
COUCHE_1
 10
1400
 20
-5450
 11
1400
 21
-5450
 40
150
 1
3
50
0
 72
1
 73
3
62
0
0
TEXT
8
COUCHE_1
 10
1400
 20
-7050
 11
1400
 21
-7050
 40
150
 1
4
50
0
 72
1
 73
3
62
0
0
TEXT
8
COUCHE_1
 10
1400
 20
-8650
 11
1400
 21
-8650
 40
150
 1
5
50
0
 72
1
 73
3
62
0
0
TEXT
8
COUCHE_1
 10
1400
 20
-10250
 11
1400
 21
-10250
 40
150
 1
6
50
0
 72
1
 73
3
62
0
0
TEXT
8
COUCHE_1
 10
1400
 20
-11850
 11
1400
 21
-11850
 40
150
 1
7
50
0
 72
1
 73
3
62
0
0
TEXT
8
COUCHE_1
 10
1400
 20
-13450
 11
1400
 21
-13450
 40
150
 1
8
50
0
 72
1
 73
3
62
0
0
TEXT
8
COUCHE_1
 10
1400
 20
-15050
 11
1400
 21
-15050
 40
150
 1
9
50
0
 72
1
 73
3
62
0
0
TEXT
8
COUCHE_1
 10
1400
 20
-16650
 11
1400
 21
-16650
 40
150
 1
10
50
0
 72
1
 73
3
62
0
0
TEXT
8
COUCHE_1
 10
1400
 20
-18250
 11
1400
 21
-18250
 40
150
 1
11
50
0
 72
1
 73
3
62
0
0
TEXT
8
COUCHE_1
 10
1400
 20
-19850
 11
1400
 21
-19850
 40
150
 1
12
50
0
 72
1
 73
3
62
0
0
TEXT
8
COUCHE_1
 10
1400
 20
-21450
 11
1400
 21
-21450
 40
150
 1
13
50
0
 72
1
 73
3
62
0
0
TEXT
8
COUCHE_1
 10
1400
 20
-23050
 11
1400
 21
-23050
 40
150
 1
14
50
0
 72
1
 73
3
62
0
0
TEXT
8
COUCHE_1
 10
1400
 20
-24650
 11
1400
 21
-24650
 40
150
 1
15
50
0
 72
1
 73
3
62
0
0
TEXT
8
COUCHE_1
 10
1400
 20
-26250
 11
1400
 21
-26250
 40
150
 1
16
50
0
 72
1
 73
3
62
0
0
TEXT
8
COUCHE_1
 10
1400
 20
-27850
 11
1400
 21
-27850
 40
150
 1
17
50
0
 72
1
 73
3
62
0
 0
LINE
8
COUCHE_1
 6
CONTINUOUS
62
0
10
1600
20
-27800
11
41600
21
-27800
 0
LINE
8
COUCHE_1
 6
CONTINUOUS
62
0
10
39900
20
-29200
11
39900
21
-27800
 0
LINE
8
COUCHE_1
 6
CONTINUOUS
62
0
10
39900
20
-29200
11
41500
21
-27800
 0
LINE
8
COUCHE_1
 6
CONTINUOUS
62
0
10
10200
20
-29200
11
10200
21
-27800
 0
LINE
8
COUCHE_1
 6
CONTINUOUS
62
0
10
35000
20
-29200
11
35000
21
-27800
0
TEXT
8
COUCHE_1
 10
40800
 20
-28700
 11
40800
 21
-28700
 40
200
 1
14
50
0
 72
0
 73
3
62
0
0
TEXT
8
COUCHE_1
 10
40100
 20
-28000
 11
40100
 21
-28000
 40
200
 1
10
50
0
 72
0
 73
3
62
0
0
TEXT
8
COUCHE_1
 10
38500
 20
-28000
 11
38500
 21
-28000
 40
150
 1
14/02/2018
50
0
 72
2
 73
3
62
0
0
TEXT
8
COUCHE_1
 10
38500
 20
-28400
 11
38500
 21
-28400
 40
150
 1
1/2
50
0
 72
2
 73
3
62
0
0
TEXT
8
COUCHE_1
 10
35200
 20
-28000
 11
35200
 21
-28000
 40
150
 1
Dessiné le :
50
0
 72
0
 73
3
62
0
0
TEXT
8
COUCHE_1
 10
35200
 20
-28400
 11
35200
 21
-28400
 40
150
 1
Echelle :
50
0
 72
0
 73
3
62
0
0
TEXT
8
COUCHE_1
 10
38500
 20
-28800
 11
38500
 21
-28800
 40
150
 1
DN_DM
50
0
 72
2
 73
3
62
0
0
TEXT
8
COUCHE_1
 10
35200
 20
-28800
 11
35200
 21
-28800
 40
150
 1
Par : 
50
0
 72
0
 73
3
62
0
0
TEXT
8
COUCHE_1
 10
22800
 20
-28400
 11
22800
 21
-28400
 40
200
 1
Bornier alimentation 220V
50
0
 72
0
 73
3
62
0
0
TEXT
8
COUCHE_1
 10
23200
 20
-28800
 11
23200
 21
-28800
 40
200
 1
Connexion USB CAM
50
0
 72
0
 73
3
62
0
 0
ENDSEC
 0
EOF
