 0
SECTION
 2
HEADER
 9
$ACADVER
 1
AC1009
 9
$CLAYER
 8
Couche_1
 9
$HANDLING
70
 0
9
$INSBASE
10
0
20
0
30
0
9
$THICKNESS
40
0
9
$UCSNAME
2
UCS_F1
9
$WORLDVIEW
70
1
9
$LTSCALE
40
15
0
ENDSEC
0
SECTION
2
TABLES
 0
TABLE
 2
APPID
70
 1
 0
APPID
 2
TASK
 70
 0
 0
ENDTAB
 0
TABLE
  2
LTYPE
 70
 2
 0
LTYPE
  2
CONTINUOUS
 70
 0
 3
Solid line
 72
65
 73
0
 40
0
  0
LTYPE
  2
ACAD_ISO03W100
 70
 0
 3
CAO pointillé long
 72
65
 73
2
 40
30
 49
12
 49
-18.0
  0
LTYPE
 2
ACAD_ISO07W100
 70
0
 3
CAO pointillé fin
 72
65
 73
2
 40
3
 49
0
 49
-3.0
  0
LTYPE
  2
ACAD_ISO02W100
 70
0
 3
CAO pointillé extra long
 72
65
 73
2
 40
15
 49
12
 49
-3
  0
LTYPE
  2
AXES
 70
0
 3
CAO Axe
 72
65
 73
4
 40
50.8
 49
31.75
 49
-6.35
 49
6.35
 49
-6.35
  0
ENDTAB
0
TABLE
2
LAYER
 70
20
 0
LAYER
 2
COUCHE_1
 70
 64
 62
 7
 6
CONTINUOUS
 0
ENDTAB
 0
TABLE
 2
UCS
 70
 6
 0
UCS
 2
UCSF1
 70
 64
 10
0.000000
 20
0.000000
 30
20.000000
 11
1.000000
 21
0.000000
 31
0.000000
 12
0.000000
 22
-1.000000
 32
0.000000
 0
ENDTAB
 0
ENDSEC
 0
SECTION
 2
ENTITIES
0
POLYLINE
5
2B
 8
0
62
0
 6
CONTINUOUS
 66
 1
 10
0
 20
0
 30
0
 70
1
 0
VERTEX
 5
33
  8
0
 10
7400
 20
-7200
 0
VERTEX
 5
33
  8
0
 10
10800
 20
-7200
 0
VERTEX
 5
33
  8
0
 10
10800
 20
-8400
 0
VERTEX
 5
33
  8
0
 10
7400
 20
-8400
 0
SEQEND
 5
37
 8
0
0
POLYLINE
5
2B
 8
0
62
0
 6
CONTINUOUS
 66
 1
 10
0
 20
0
 30
0
 70
1
 0
VERTEX
 5
33
  8
0
 10
13400
 20
-3200
 0
VERTEX
 5
33
  8
0
 10
16400
 20
-3200
 0
VERTEX
 5
33
  8
0
 10
16400
 20
-4000
 0
VERTEX
 5
33
  8
0
 10
13400
 20
-4000
 0
SEQEND
 5
37
 8
0
0
POLYLINE
5
2B
 8
0
62
0
 6
CONTINUOUS
 66
 1
 10
0
 20
0
 30
0
 70
1
 0
VERTEX
 5
33
  8
0
 10
10200
 20
-11600
 0
VERTEX
 5
33
  8
0
 10
12600
 20
-11600
 0
VERTEX
 5
33
  8
0
 10
12600
 20
-12400
 0
VERTEX
 5
33
  8
0
 10
10200
 20
-12400
 0
SEQEND
 5
37
 8
0
0
POLYLINE
5
2B
 8
0
62
0
 6
CONTINUOUS
 66
 1
 10
0
 20
0
 30
0
 70
1
 0
VERTEX
 5
33
  8
0
 10
11200
 20
-7000
 0
VERTEX
 5
33
  8
0
 10
12400
 20
-7000
 0
VERTEX
 5
33
  8
0
 10
12400
 20
-8600
 0
VERTEX
 5
33
  8
0
 10
11200
 20
-8600
 0
SEQEND
 5
37
 8
0
0
POLYLINE
5
2B
 8
0
62
0
 6
CONTINUOUS
 66
 1
 10
0
 20
0
 30
0
 70
1
 0
VERTEX
 5
33
  8
0
 10
2400
 20
-7600
 0
VERTEX
 5
33
  8
0
 10
4200
 20
-7600
 0
VERTEX
 5
33
  8
0
 10
4200
 20
-8400
 0
VERTEX
 5
33
  8
0
 10
2400
 20
-8400
 0
SEQEND
 5
37
 8
0
0
POLYLINE
5
2B
 8
0
62
0
 6
CONTINUOUS
 66
 1
 10
0
 20
0
 30
0
 70
1
 0
VERTEX
 5
33
  8
0
 10
10400
 20
-3000
 0
VERTEX
 5
33
  8
0
 10
13000
 20
-3000
 0
VERTEX
 5
33
  8
0
 10
13000
 20
-6600
 0
VERTEX
 5
33
  8
0
 10
10400
 20
-6600
 0
SEQEND
 5
37
 8
0
0
POLYLINE
5
2B
 8
0
62
0
 6
CONTINUOUS
 66
 1
 10
0
 20
0
 30
0
 70
1
 0
VERTEX
 5
33
  8
0
 10
19000
 20
-5200
 0
VERTEX
 5
33
  8
0
 10
23000
 20
-5200
 0
VERTEX
 5
33
  8
0
 10
23000
 20
-6400
 0
VERTEX
 5
33
  8
0
 10
19000
 20
-6400
 0
SEQEND
 5
37
 8
0
0
POLYLINE
5
2B
 8
0
62
5
 6
ACAD_ISO07W100
 66
 1
 10
0
 20
0
 30
0
 70
1
 0
VERTEX
 5
33
  8
0
 10
6600
 20
-2200
 0
VERTEX
 5
33
  8
0
 10
17400
 20
-2200
 0
VERTEX
 5
33
  8
0
 10
17400
 20
-9400
 0
VERTEX
 5
33
  8
0
 10
6600
 20
-9400
 0
SEQEND
 5
37
 8
0
0
POLYLINE
5
2B
 8
0
62
0
 6
CONTINUOUS
 66
 1
 10
0
 20
0
 30
0
 70
1
 0
VERTEX
 5
33
  8
0
 10
8600
 20
-9800
 0
VERTEX
 5
33
  8
0
 10
10600
 20
-9800
 0
VERTEX
 5
33
  8
0
 10
10600
 20
-10400
 0
VERTEX
 5
33
  8
0
 10
8600
 20
-10400
 0
SEQEND
 5
37
 8
0
0
POLYLINE
5
2B
 8
0
62
0
 6
CONTINUOUS
 66
 1
 10
0
 20
0
 30
0
 70
1
 0
VERTEX
 5
33
  8
0
 10
10800
 20
-9800
 0
VERTEX
 5
33
  8
0
 10
12800
 20
-9800
 0
VERTEX
 5
33
  8
0
 10
12800
 20
-10400
 0
VERTEX
 5
33
  8
0
 10
10800
 20
-10400
 0
SEQEND
 5
37
 8
0
0
POLYLINE
5
2B
 8
0
62
0
 6
CONTINUOUS
 66
 1
 10
0
 20
0
 30
0
 70
1
 0
VERTEX
 5
33
  8
0
 10
13000
 20
-9800
 0
VERTEX
 5
33
  8
0
 10
15000
 20
-9800
 0
VERTEX
 5
33
  8
0
 10
15000
 20
-10400
 0
VERTEX
 5
33
  8
0
 10
13000
 20
-10400
 0
SEQEND
 5
37
 8
0
0
POLYLINE
5
2B
 8
0
62
5
 6
ACAD_ISO07W100
 66
 1
 10
0
 20
0
 30
0
 70
1
 0
VERTEX
 5
33
  8
0
 10
6800
 20
-11400
 0
VERTEX
 5
33
  8
0
 10
13200
 20
-11400
 0
VERTEX
 5
33
  8
0
 10
13200
 20
-18400
 0
VERTEX
 5
33
  8
0
 10
6800
 20
-18400
 0
SEQEND
 5
37
 8
0
0
POLYLINE
5
2B
 8
0
62
0
 6
CONTINUOUS
 66
 1
 10
0
 20
0
 30
0
 70
1
 0
VERTEX
 5
33
  8
0
 10
7200
 20
-12200
 0
VERTEX
 5
33
  8
0
 10
9000
 20
-12200
 0
VERTEX
 5
33
  8
0
 10
9000
 20
-12800
 0
VERTEX
 5
33
  8
0
 10
7200
 20
-12800
 0
SEQEND
 5
37
 8
0
0
POLYLINE
5
2B
 8
0
62
0
 6
CONTINUOUS
 66
 1
 10
0
 20
0
 30
0
 70
1
 0
VERTEX
 5
33
  8
0
 10
7400
 20
-14200
 0
VERTEX
 5
33
  8
0
 10
8600
 20
-14200
 0
VERTEX
 5
33
  8
0
 10
8600
 20
-14800
 0
VERTEX
 5
33
  8
0
 10
7400
 20
-14800
 0
SEQEND
 5
37
 8
0
0
POLYLINE
5
2B
 8
0
62
0
 6
CONTINUOUS
 66
 1
 10
0
 20
0
 30
0
 70
1
 0
VERTEX
 5
33
  8
0
 10
7400
 20
-15000
 0
VERTEX
 5
33
  8
0
 10
8600
 20
-15000
 0
VERTEX
 5
33
  8
0
 10
8600
 20
-15600
 0
VERTEX
 5
33
  8
0
 10
7400
 20
-15600
 0
SEQEND
 5
37
 8
0
0
POLYLINE
5
2B
 8
0
62
0
 6
CONTINUOUS
 66
 1
 10
0
 20
0
 30
0
 70
1
 0
VERTEX
 5
33
  8
0
 10
10200
 20
-16000
 0
VERTEX
 5
33
  8
0
 10
12400
 20
-16000
 0
VERTEX
 5
33
  8
0
 10
12400
 20
-17000
 0
VERTEX
 5
33
  8
0
 10
10200
 20
-17000
 0
SEQEND
 5
37
 8
0
0
POLYLINE
5
2B
 8
0
62
0
 6
CONTINUOUS
 66
 1
 10
0
 20
0
 30
0
 70
1
 0
VERTEX
 5
33
  8
0
 10
7000
 20
-17400
 0
VERTEX
 5
33
  8
0
 10
9600
 20
-17400
 0
VERTEX
 5
33
  8
0
 10
9600
 20
-18000
 0
VERTEX
 5
33
  8
0
 10
7000
 20
-18000
 0
SEQEND
 5
37
 8
0
 0
LINE
8
COUCHE_1
 6
ACAD_ISO07W100
62
0
10
8000
20
-17400
11
8000
21
-18000
 0
LINE
8
COUCHE_1
 6
ACAD_ISO07W100
62
0
10
9200
20
-17400
11
9200
21
-18000
0
POLYLINE
5
2B
 8
0
62
0
 6
CONTINUOUS
 66
 1
 10
0
 20
0
 30
0
 70
1
 0
VERTEX
 5
33
  8
0
 10
7400
 20
-16000
 0
VERTEX
 5
33
  8
0
 10
9600
 20
-16000
 0
VERTEX
 5
33
  8
0
 10
9600
 20
-17000
 0
VERTEX
 5
33
  8
0
 10
7400
 20
-17000
 0
SEQEND
 5
37
 8
0
0
POLYLINE
5
2B
 8
0
62
0
 6
CONTINUOUS
 66
 1
 10
0
 20
0
 30
0
 70
1
 0
VERTEX
 5
33
  8
0
 10
11400
 20
-13400
 0
VERTEX
 5
33
  8
0
 10
13000
 20
-13400
 0
VERTEX
 5
33
  8
0
 10
13000
 20
-14000
 0
VERTEX
 5
33
  8
0
 10
11400
 20
-14000
 0
SEQEND
 5
37
 8
0
0
POLYLINE
5
2B
 8
0
62
0
 6
CONTINUOUS
 66
 1
 10
0
 20
0
 30
0
 70
1
 0
VERTEX
 5
33
  8
0
 10
9200
 20
-13400
 0
VERTEX
 5
33
  8
0
 10
10800
 20
-13400
 0
VERTEX
 5
33
  8
0
 10
10800
 20
-14000
 0
VERTEX
 5
33
  8
0
 10
9200
 20
-14000
 0
SEQEND
 5
37
 8
0
0
POLYLINE
5
2B
 8
0
62
0
 6
CONTINUOUS
 66
 1
 10
0
 20
0
 30
0
 70
1
 0
VERTEX
 5
33
  8
0
 10
15400
 20
-10400
 0
VERTEX
 5
33
  8
0
 10
17000
 20
-10400
 0
VERTEX
 5
33
  8
0
 10
17000
 20
-11000
 0
VERTEX
 5
33
  8
0
 10
15400
 20
-11000
 0
SEQEND
 5
37
 8
0
0
POLYLINE
5
2B
 8
0
62
0
 6
CONTINUOUS
 66
 1
 10
0
 20
0
 30
0
 70
1
 0
VERTEX
 5
33
  8
0
 10
15400
 20
-11200
 0
VERTEX
 5
33
  8
0
 10
17000
 20
-11200
 0
VERTEX
 5
33
  8
0
 10
17000
 20
-11800
 0
VERTEX
 5
33
  8
0
 10
15400
 20
-11800
 0
SEQEND
 5
37
 8
0
0
POLYLINE
5
2B
 8
0
62
0
 6
CONTINUOUS
 66
 1
 10
0
 20
0
 30
0
 70
1
 0
VERTEX
 5
33
  8
0
 10
19800
 20
-2400
 0
VERTEX
 5
33
  8
0
 10
23000
 20
-2400
 0
VERTEX
 5
33
  8
0
 10
23000
 20
-4400
 0
VERTEX
 5
33
  8
0
 10
19800
 20
-4400
 0
SEQEND
 5
37
 8
0
0
POLYLINE
5
2B
 8
0
62
0
 6
CONTINUOUS
 66
 1
 10
0
 20
0
 30
0
 70
1
 0
VERTEX
 5
33
  8
0
 10
22800
 20
-11600
 0
VERTEX
 5
33
  8
0
 10
25200
 20
-11600
 0
VERTEX
 5
33
  8
0
 10
25200
 20
-12200
 0
VERTEX
 5
33
  8
0
 10
22800
 20
-12200
 0
SEQEND
 5
37
 8
0
0
POLYLINE
5
2B
 8
0
62
0
 6
CONTINUOUS
 66
 1
 10
0
 20
0
 30
0
 70
1
 0
VERTEX
 5
33
  8
0
 10
22800
 20
-13000
 0
VERTEX
 5
33
  8
0
 10
25200
 20
-13000
 0
VERTEX
 5
33
  8
0
 10
25200
 20
-13600
 0
VERTEX
 5
33
  8
0
 10
22800
 20
-13600
 0
SEQEND
 5
37
 8
0
0
POLYLINE
5
2B
 8
0
62
0
 6
CONTINUOUS
 66
 1
 10
0
 20
0
 30
0
 70
1
 0
VERTEX
 5
33
  8
0
 10
22800
 20
-14200
 0
VERTEX
 5
33
  8
0
 10
25200
 20
-14200
 0
VERTEX
 5
33
  8
0
 10
25200
 20
-14800
 0
VERTEX
 5
33
  8
0
 10
22800
 20
-14800
 0
SEQEND
 5
37
 8
0
0
POLYLINE
5
2B
 8
0
62
0
 6
CONTINUOUS
 66
 1
 10
0
 20
0
 30
0
 70
1
 0
VERTEX
 5
33
  8
0
 10
22800
 20
-15400
 0
VERTEX
 5
33
  8
0
 10
25200
 20
-15400
 0
VERTEX
 5
33
  8
0
 10
25200
 20
-16000
 0
VERTEX
 5
33
  8
0
 10
22800
 20
-16000
 0
SEQEND
 5
37
 8
0
0
POLYLINE
5
2B
 8
0
62
0
 6
CONTINUOUS
 66
 1
 10
0
 20
0
 30
0
 70
1
 0
VERTEX
 5
33
  8
0
 10
16600
 20
-13200
 0
VERTEX
 5
33
  8
0
 10
18200
 20
-13200
 0
VERTEX
 5
33
  8
0
 10
18200
 20
-13800
 0
VERTEX
 5
33
  8
0
 10
16600
 20
-13800
 0
SEQEND
 5
37
 8
0
0
POLYLINE
5
2B
 8
0
62
0
 6
CONTINUOUS
 66
 1
 10
0
 20
0
 30
0
 70
1
 0
VERTEX
 5
33
  8
0
 10
16600
 20
-14000
 0
VERTEX
 5
33
  8
0
 10
18200
 20
-14000
 0
VERTEX
 5
33
  8
0
 10
18200
 20
-14600
 0
VERTEX
 5
33
  8
0
 10
16600
 20
-14600
 0
SEQEND
 5
37
 8
0
0
POLYLINE
5
2B
 8
0
62
0
 6
CONTINUOUS
 66
 1
 10
0
 20
0
 30
0
 70
1
 0
VERTEX
 5
33
  8
0
 10
16600
 20
-14800
 0
VERTEX
 5
33
  8
0
 10
18200
 20
-14800
 0
VERTEX
 5
33
  8
0
 10
18200
 20
-15400
 0
VERTEX
 5
33
  8
0
 10
16600
 20
-15400
 0
SEQEND
 5
37
 8
0
0
POLYLINE
5
2B
 8
0
62
0
 6
CONTINUOUS
 66
 1
 10
0
 20
0
 30
0
 70
1
 0
VERTEX
 5
33
  8
0
 10
16600
 20
-15600
 0
VERTEX
 5
33
  8
0
 10
18200
 20
-15600
 0
VERTEX
 5
33
  8
0
 10
18200
 20
-16200
 0
VERTEX
 5
33
  8
0
 10
16600
 20
-16200
 0
SEQEND
 5
37
 8
0
0
POLYLINE
5
2B
 8
0
62
0
 6
CONTINUOUS
 66
 1
 10
0
 20
0
 30
0
 70
1
 0
VERTEX
 5
33
  8
0
 10
16600
 20
-16400
 0
VERTEX
 5
33
  8
0
 10
18200
 20
-16400
 0
VERTEX
 5
33
  8
0
 10
18200
 20
-17000
 0
VERTEX
 5
33
  8
0
 10
16600
 20
-17000
 0
SEQEND
 5
37
 8
0
0
POLYLINE
5
2B
 8
0
62
0
 6
CONTINUOUS
 66
 1
 10
0
 20
0
 30
0
 70
1
 0
VERTEX
 5
33
  8
0
 10
16600
 20
-17400
 0
VERTEX
 5
33
  8
0
 10
18200
 20
-17400
 0
VERTEX
 5
33
  8
0
 10
18200
 20
-18000
 0
VERTEX
 5
33
  8
0
 10
16600
 20
-18000
 0
SEQEND
 5
37
 8
0
 0
LINE
8
COUCHE_1
 6
CONTINUOUS
62
0
10
8000
20
-14800
11
8000
21
-15000
 0
LINE
8
COUCHE_1
 6
CONTINUOUS
62
0
10
8000
20
-15600
11
8000
21
-16000
0
POLYLINE
5
2B
 8
0
62
0
 6
CONTINUOUS
 66
 1
 10
0
 20
0
 30
0
 70
1
 0
VERTEX
 5
33
  8
0
 10
9400
 20
-14600
 0
VERTEX
 5
33
  8
0
 10
10600
 20
-14600
 0
VERTEX
 5
33
  8
0
 10
10600
 20
-15200
 0
VERTEX
 5
33
  8
0
 10
9400
 20
-15200
 0
SEQEND
 5
37
 8
0
0
POLYLINE
5
2B
 8
0
62
0
 6
CONTINUOUS
 66
 1
 10
0
 20
0
 30
0
 70
1
 0
VERTEX
 5
33
  8
0
 10
24000
 20
-17000
 0
VERTEX
 5
33
  8
0
 10
27800
 20
-17000
 0
VERTEX
 5
33
  8
0
 10
27800
 20
-18200
 0
VERTEX
 5
33
  8
0
 10
24000
 20
-18200
 0
SEQEND
 5
37
 8
0
0
POLYLINE
5
2B
 8
0
62
0
 6
CONTINUOUS
 66
 1
 10
0
 20
0
 30
0
 70
1
 0
VERTEX
 5
33
  8
0
 10
22000
 20
-17200
 0
VERTEX
 5
33
  8
0
 10
23600
 20
-17200
 0
VERTEX
 5
33
  8
0
 10
23600
 20
-18000
 0
VERTEX
 5
33
  8
0
 10
22000
 20
-18000
 0
SEQEND
 5
37
 8
0
0
POLYLINE
5
2B
 8
0
62
0
 6
CONTINUOUS
 66
 1
 10
0
 20
0
 30
0
 70
1
 0
VERTEX
 5
33
  8
0
 10
14400
 20
-13400
 0
VERTEX
 5
33
  8
0
 10
16200
 20
-13400
 0
VERTEX
 5
33
  8
0
 10
16200
 20
-13600
 0
VERTEX
 5
33
  8
0
 10
14400
 20
-13600
 0
SEQEND
 5
37
 8
0
0
POLYLINE
5
2B
 8
0
62
0
 6
CONTINUOUS
 66
 1
 10
0
 20
0
 30
0
 70
1
 0
VERTEX
 5
33
  8
0
 10
14400
 20
-14200
 0
VERTEX
 5
33
  8
0
 10
16200
 20
-14200
 0
VERTEX
 5
33
  8
0
 10
16200
 20
-14400
 0
VERTEX
 5
33
  8
0
 10
14400
 20
-14400
 0
SEQEND
 5
37
 8
0
0
POLYLINE
5
2B
 8
0
62
0
 6
CONTINUOUS
 66
 1
 10
0
 20
0
 30
0
 70
1
 0
VERTEX
 5
33
  8
0
 10
7200
 20
-6200
 0
VERTEX
 5
33
  8
0
 10
9800
 20
-6200
 0
VERTEX
 5
33
  8
0
 10
9800
 20
-6800
 0
VERTEX
 5
33
  8
0
 10
7200
 20
-6800
 0
SEQEND
 5
37
 8
0
 0
LINE
8
COUCHE_1
 6
ACAD_ISO07W100
62
0
10
8200
20
-6200
11
8200
21
-6800
 0
LINE
8
COUCHE_1
 6
ACAD_ISO07W100
62
0
10
9400
20
-6200
11
9400
21
-6800
0
POLYLINE
5
2B
 8
0
62
0
 6
CONTINUOUS
 66
 1
 10
0
 20
0
 30
0
 70
1
 0
VERTEX
 5
33
  8
0
 10
7200
 20
-4200
 0
VERTEX
 5
33
  8
0
 10
9800
 20
-4200
 0
VERTEX
 5
33
  8
0
 10
9800
 20
-4800
 0
VERTEX
 5
33
  8
0
 10
7200
 20
-4800
 0
SEQEND
 5
37
 8
0
 0
LINE
8
COUCHE_1
 6
ACAD_ISO07W100
62
0
10
8200
20
-4200
11
8200
21
-4800
 0
LINE
8
COUCHE_1
 6
ACAD_ISO07W100
62
0
10
9400
20
-4200
11
9400
21
-4800
0
POLYLINE
5
2B
 8
0
62
0
 6
CONTINUOUS
 66
 1
 10
0
 20
0
 30
0
 70
1
 0
VERTEX
 5
33
  8
0
 10
7400
 20
-2800
 0
VERTEX
 5
33
  8
0
 10
9400
 20
-2800
 0
VERTEX
 5
33
  8
0
 10
9400
 20
-3800
 0
VERTEX
 5
33
  8
0
 10
7400
 20
-3800
 0
SEQEND
 5
37
 8
0
0
POLYLINE
5
2B
 8
0
62
0
 6
CONTINUOUS
 66
 1
 10
0
 20
0
 30
0
 70
1
 0
VERTEX
 5
33
  8
0
 10
13400
 20
-5800
 0
VERTEX
 5
33
  8
0
 10
16400
 20
-5800
 0
VERTEX
 5
33
  8
0
 10
16400
 20
-6600
 0
VERTEX
 5
33
  8
0
 10
13400
 20
-6600
 0
SEQEND
 5
37
 8
0
0
POLYLINE
5
2B
 8
0
62
0
 6
CONTINUOUS
 66
 1
 10
0
 20
0
 30
0
 70
1
 0
VERTEX
 5
33
  8
0
 10
25800
 20
-2600
 0
VERTEX
 5
33
  8
0
 10
28000
 20
-2600
 0
VERTEX
 5
33
  8
0
 10
28000
 20
-3000
 0
VERTEX
 5
33
  8
0
 10
25800
 20
-3000
 0
SEQEND
 5
37
 8
0
0
POLYLINE
5
2B
 8
0
62
8
 6
ACAD_ISO07W100
 66
 1
 10
0
 20
0
 30
0
 70
1
 0
VERTEX
 5
33
  8
0
 10
22400
 20
-11400
 0
VERTEX
 5
33
  8
0
 10
25400
 20
-11400
 0
VERTEX
 5
33
  8
0
 10
25400
 20
-16200
 0
VERTEX
 5
33
  8
0
 10
22400
 20
-16200
 0
SEQEND
 5
37
 8
0
0
POLYLINE
5
2B
 8
0
62
0
 6
CONTINUOUS
 66
 1
 10
0
 20
0
 30
0
 70
1
 0
VERTEX
 5
33
  8
0
 10
24000
 20
-6600
 0
VERTEX
 5
33
  8
0
 10
25200
 20
-6600
 0
VERTEX
 5
33
  8
0
 10
25200
 20
-7000
 0
VERTEX
 5
33
  8
0
 10
24000
 20
-7000
 0
SEQEND
 5
37
 8
0
0
POLYLINE
5
2B
 8
0
62
0
 6
CONTINUOUS
 66
 1
 10
0
 20
0
 30
0
 70
1
 0
VERTEX
 5
33
  8
0
 10
24000
 20
-7200
 0
VERTEX
 5
33
  8
0
 10
25200
 20
-7200
 0
VERTEX
 5
33
  8
0
 10
25200
 20
-7600
 0
VERTEX
 5
33
  8
0
 10
24000
 20
-7600
 0
SEQEND
 5
37
 8
0
0
POLYLINE
5
2B
 8
0
62
0
 6
CONTINUOUS
 66
 1
 10
0
 20
0
 30
0
 70
1
 0
VERTEX
 5
33
  8
0
 10
24000
 20
-7800
 0
VERTEX
 5
33
  8
0
 10
25200
 20
-7800
 0
VERTEX
 5
33
  8
0
 10
25200
 20
-8200
 0
VERTEX
 5
33
  8
0
 10
24000
 20
-8200
 0
SEQEND
 5
37
 8
0
0
POLYLINE
5
2B
 8
0
62
0
 6
CONTINUOUS
 66
 1
 10
0
 20
0
 30
0
 70
1
 0
VERTEX
 5
33
  8
0
 10
24000
 20
-8400
 0
VERTEX
 5
33
  8
0
 10
25200
 20
-8400
 0
VERTEX
 5
33
  8
0
 10
25200
 20
-8800
 0
VERTEX
 5
33
  8
0
 10
24000
 20
-8800
 0
SEQEND
 5
37
 8
0
0
POLYLINE
5
2B
 8
0
62
0
 6
ACAD_ISO07W100
 66
 1
 10
0
 20
0
 30
0
 70
1
 0
VERTEX
 5
33
  8
0
 10
21400
 20
-16800
 0
VERTEX
 5
33
  8
0
 10
28000
 20
-16800
 0
VERTEX
 5
33
  8
0
 10
28000
 20
-18400
 0
VERTEX
 5
33
  8
0
 10
21400
 20
-18400
 0
SEQEND
 5
37
 8
0
 0
LINE
8
COUCHE_1
 6
CONTINUOUS
62
5
10
7600
20
-17400
11
7400
21
-17200
 0
LINE
8
COUCHE_1
 6
CONTINUOUS
62
5
10
7600
20
-17400
11
7800
21
-17200
 0
LINE
8
COUCHE_1
 6
CONTINUOUS
62
5
10
8600
20
-17400
11
8400
21
-17200
 0
LINE
8
COUCHE_1
 6
CONTINUOUS
62
5
10
8600
20
-17400
11
8800
21
-17200
 0
LINE
8
COUCHE_1
 6
CONTINUOUS
62
5
10
9400
20
-17400
11
9200
21
-17200
 0
LINE
8
COUCHE_1
 6
CONTINUOUS
62
5
10
9400
20
-17400
11
9600
21
-17200
 0
LINE
8
COUCHE_1
 6
CONTINUOUS
62
5
10
11400
20
-16000
11
11200
21
-15800
 0
LINE
8
COUCHE_1
 6
CONTINUOUS
62
5
10
11400
20
-16000
11
11600
21
-15800
 0
LINE
8
COUCHE_1
 6
CONTINUOUS
62
5
10
9800
20
-9800
11
9600
21
-9600
 0
LINE
8
COUCHE_1
 6
CONTINUOUS
62
5
10
9800
20
-9800
11
10000
21
-9600
 0
LINE
8
COUCHE_1
 6
CONTINUOUS
62
5
10
11800
20
-9800
11
11600
21
-9600
 0
LINE
8
COUCHE_1
 6
CONTINUOUS
62
5
10
11800
20
-9800
11
12000
21
-9600
 0
LINE
8
COUCHE_1
 6
CONTINUOUS
62
5
10
14000
20
-9800
11
13800
21
-9600
 0
LINE
8
COUCHE_1
 6
CONTINUOUS
62
5
10
14000
20
-9800
11
14200
21
-9600
 0
LINE
8
COUCHE_1
 6
CONTINUOUS
62
5
10
10000
20
-13400
11
9800
21
-13200
 0
LINE
8
COUCHE_1
 6
CONTINUOUS
62
5
10
10000
20
-13400
11
10200
21
-13200
 0
LINE
8
COUCHE_1
 6
CONTINUOUS
62
5
10
12600
20
-13400
11
12400
21
-13200
 0
LINE
8
COUCHE_1
 6
CONTINUOUS
62
5
10
12600
20
-13400
11
12800
21
-13200
 0
LINE
8
COUCHE_1
 6
CONTINUOUS
62
5
10
7800
20
-3800
11
8000
21
-4000
 0
LINE
8
COUCHE_1
 6
CONTINUOUS
62
5
10
7800
20
-3800
11
7600
21
-4000
 0
LINE
8
COUCHE_1
 6
CONTINUOUS
62
5
10
10000
20
-15200
11
10200
21
-15400
 0
LINE
8
COUCHE_1
 6
CONTINUOUS
62
5
10
10000
20
-15200
11
9800
21
-15400
 0
LINE
8
COUCHE_1
 6
CONTINUOUS
62
5
10
7400
20
-8000
11
7200
21
-8200
 0
LINE
8
COUCHE_1
 6
CONTINUOUS
62
5
10
7400
20
-8000
11
7200
21
-7800
 0
LINE
8
COUCHE_1
 6
CONTINUOUS
62
5
10
7400
20
-7400
11
7200
21
-7600
 0
LINE
8
COUCHE_1
 6
CONTINUOUS
62
5
10
7400
20
-7400
11
7200
21
-7200
 0
LINE
8
COUCHE_1
 6
CONTINUOUS
62
5
10
2400
20
-8000
11
2200
21
-8200
 0
LINE
8
COUCHE_1
 6
CONTINUOUS
62
5
10
2400
20
-8000
11
2200
21
-7800
 0
LINE
8
COUCHE_1
 6
CONTINUOUS
62
5
10
16400
20
-3400
11
16600
21
-3200
 0
LINE
8
COUCHE_1
 6
CONTINUOUS
62
5
10
16400
20
-3400
11
16600
21
-3600
 0
LINE
8
COUCHE_1
 6
CONTINUOUS
62
5
10
13000
20
-3600
11
13200
21
-3400
 0
LINE
8
COUCHE_1
 6
CONTINUOUS
62
5
10
13000
20
-3600
11
13200
21
-3800
 0
LINE
8
COUCHE_1
 6
CONTINUOUS
62
5
10
15400
20
-10800
11
15200
21
-11000
 0
LINE
8
COUCHE_1
 6
CONTINUOUS
62
5
10
15400
20
-10800
11
15200
21
-10600
 0
LINE
8
COUCHE_1
 6
CONTINUOUS
62
5
10
15400
20
-11600
11
15200
21
-11800
 0
LINE
8
COUCHE_1
 6
CONTINUOUS
62
5
10
15400
20
-11600
11
15200
21
-11400
 0
LINE
8
COUCHE_1
 6
CONTINUOUS
62
5
10
16600
20
-13600
11
16400
21
-13800
 0
LINE
8
COUCHE_1
 6
CONTINUOUS
62
5
10
16600
20
-13600
11
16400
21
-13400
 0
LINE
8
COUCHE_1
 6
CONTINUOUS
62
5
10
16600
20
-14400
11
16400
21
-14600
 0
LINE
8
COUCHE_1
 6
CONTINUOUS
62
5
10
16600
20
-14400
11
16400
21
-14200
 0
LINE
8
COUCHE_1
 6
CONTINUOUS
62
5
10
16600
20
-15200
11
16400
21
-15400
 0
LINE
8
COUCHE_1
 6
CONTINUOUS
62
5
10
16600
20
-15200
11
16400
21
-15000
 0
LINE
8
COUCHE_1
 6
CONTINUOUS
62
5
10
16600
20
-15800
11
16400
21
-16000
 0
LINE
8
COUCHE_1
 6
CONTINUOUS
62
5
10
16600
20
-15800
11
16400
21
-15600
 0
LINE
8
COUCHE_1
 6
CONTINUOUS
62
5
10
16600
20
-16800
11
16400
21
-17000
 0
LINE
8
COUCHE_1
 6
CONTINUOUS
62
5
10
16600
20
-16800
11
16400
21
-16600
 0
LINE
8
COUCHE_1
 6
CONTINUOUS
62
5
10
16600
20
-17800
11
16400
21
-18000
 0
LINE
8
COUCHE_1
 6
CONTINUOUS
62
5
10
16600
20
-17800
11
16400
21
-17600
 0
LINE
8
COUCHE_1
 6
CONTINUOUS
62
5
10
22800
20
-12000
11
22600
21
-12200
 0
LINE
8
COUCHE_1
 6
CONTINUOUS
62
5
10
22800
20
-12000
11
22600
21
-11800
 0
LINE
8
COUCHE_1
 6
CONTINUOUS
62
5
10
22800
20
-15800
11
22600
21
-16000
 0
LINE
8
COUCHE_1
 6
CONTINUOUS
62
5
10
22800
20
-15800
11
22600
21
-15600
 0
LINE
8
COUCHE_1
 6
CONTINUOUS
62
5
10
22800
20
-14600
11
22600
21
-14800
 0
LINE
8
COUCHE_1
 6
CONTINUOUS
62
5
10
22800
20
-14600
11
22600
21
-14400
 0
LINE
8
COUCHE_1
 6
CONTINUOUS
62
5
10
22800
20
-13400
11
22600
21
-13600
 0
LINE
8
COUCHE_1
 6
CONTINUOUS
62
5
10
22800
20
-13400
11
22600
21
-13200
 0
LINE
8
COUCHE_1
 6
CONTINUOUS
62
5
10
13400
20
-6200
11
13200
21
-6400
 0
LINE
8
COUCHE_1
 6
CONTINUOUS
62
5
10
13400
20
-6200
11
13200
21
-6000
 0
LINE
8
COUCHE_1
 6
CONTINUOUS
62
5
10
19400
20
-4800
11
19200
21
-4600
 0
LINE
8
COUCHE_1
 6
CONTINUOUS
62
5
10
19400
20
-4800
11
19600
21
-4600
 0
LINE
8
COUCHE_1
 6
CONTINUOUS
62
5
10
26000
20
-11800
11
25800
21
-12000
 0
LINE
8
COUCHE_1
 6
CONTINUOUS
62
5
10
26000
20
-11800
11
25800
21
-11600
 0
LINE
8
COUCHE_1
 6
CONTINUOUS
62
5
10
26000
20
-14400
11
25800
21
-14600
 0
LINE
8
COUCHE_1
 6
CONTINUOUS
62
5
10
26000
20
-14400
11
25800
21
-14200
 0
LINE
8
COUCHE_1
 6
CONTINUOUS
62
5
10
14000
20
-13600
11
13800
21
-13800
 0
LINE
8
COUCHE_1
 6
CONTINUOUS
62
5
10
14000
20
-13600
11
13800
21
-13400
 0
LINE
8
COUCHE_1
 6
CONTINUOUS
62
5
10
14000
20
-14400
11
13800
21
-14600
 0
LINE
8
COUCHE_1
 6
CONTINUOUS
62
5
10
14000
20
-14400
11
13800
21
-14200
 0
LINE
8
COUCHE_1
 6
CONTINUOUS
62
5
10
14000
20
-16800
11
13800
21
-17000
 0
LINE
8
COUCHE_1
 6
CONTINUOUS
62
5
10
14000
20
-16800
11
13800
21
-16600
 0
LINE
8
COUCHE_1
 6
CONTINUOUS
62
5
10
15400
20
-15200
11
15200
21
-15400
 0
LINE
8
COUCHE_1
 6
CONTINUOUS
62
5
10
15400
20
-15200
11
15200
21
-15000
 0
LINE
8
COUCHE_1
 6
CONTINUOUS
62
5
10
15400
20
-17800
11
15200
21
-18000
 0
LINE
8
COUCHE_1
 6
CONTINUOUS
62
5
10
15400
20
-17800
11
15200
21
-17600
 0
LINE
8
COUCHE_1
 6
CONTINUOUS
62
5
10
19000
20
-4800
11
18800
21
-4600
 0
LINE
8
COUCHE_1
 6
CONTINUOUS
62
5
10
19000
20
-4800
11
19200
21
-4600
 0
LINE
8
COUCHE_1
 6
CONTINUOUS
62
0
10
10800
20
-7800
11
11200
21
-7800
 0
LINE
8
COUCHE_1
 6
CONTINUOUS
62
0
10
7400
20
-8000
11
4200
21
-8000
 0
LINE
8
COUCHE_1
 6
CONTINUOUS
62
0
10
3400
20
-7600
11
3400
21
-7400
 0
LINE
8
COUCHE_1
 6
CONTINUOUS
62
0
10
7400
20
-7400
11
3400
21
-7400
 0
LINE
8
COUCHE_1
 6
CONTINUOUS
62
0
10
10200
20
-9200
11
11400
21
-9200
 0
LINE
8
COUCHE_1
 6
CONTINUOUS
62
0
10
11400
20
-9200
11
11400
21
-8600
 0
LINE
8
COUCHE_1
 6
CONTINUOUS
62
0
10
11800
20
-9600
11
11800
21
-8600
 0
LINE
8
COUCHE_1
 6
CONTINUOUS
62
0
10
12200
20
-9200
11
12200
21
-8600
 0
LINE
8
COUCHE_1
 6
CONTINUOUS
62
0
10
11800
20
-9800
11
11800
21
-9600
 0
LINE
8
COUCHE_1
 6
CONTINUOUS
62
0
10
10200
20
-9200
11
9800
21
-9200
 0
LINE
8
COUCHE_1
 6
CONTINUOUS
62
0
10
9800
20
-9800
11
9800
21
-9200
 0
LINE
8
COUCHE_1
 6
CONTINUOUS
62
0
10
9800
20
-9800
11
9800
21
-9200
 0
LINE
8
COUCHE_1
 6
CONTINUOUS
62
0
10
12200
20
-9200
11
13800
21
-9200
 0
LINE
8
COUCHE_1
 6
CONTINUOUS
62
0
10
13800
20
-9200
11
14000
21
-9200
 0
LINE
8
COUCHE_1
 6
CONTINUOUS
62
0
10
14000
20
-9800
11
14000
21
-9200
 0
LINE
8
COUCHE_1
 6
CONTINUOUS
62
0
10
11800
20
-7000
11
11800
21
-6600
 0
LINE
8
COUCHE_1
 6
CONTINUOUS
62
0
10
8200
20
-14200
11
8200
21
-12800
 0
LINE
8
COUCHE_1
 6
CONTINUOUS
62
0
10
8200
20
-14200
11
7600
21
-14200
 0
LINE
8
COUCHE_1
 6
CONTINUOUS
62
0
10
7800
20
-14200
11
7800
21
-12800
 0
LINE
8
COUCHE_1
 6
CONTINUOUS
62
0
10
9400
20
-17400
11
9400
21
-17000
 0
LINE
8
COUCHE_1
 6
CONTINUOUS
62
0
10
7600
20
-17200
11
7600
21
-17000
 0
LINE
8
COUCHE_1
 6
CONTINUOUS
62
0
10
7600
20
-17400
11
7600
21
-17200
 0
LINE
8
COUCHE_1
 6
CONTINUOUS
62
0
10
7400
20
-17400
11
7600
21
-17400
 0
LINE
8
COUCHE_1
 6
CONTINUOUS
62
0
10
8600
20
-17400
11
8600
21
-17000
 0
LINE
8
COUCHE_1
 6
CONTINUOUS
62
0
10
11400
20
-16000
11
11400
21
-15800
 0
LINE
8
COUCHE_1
 6
CONTINUOUS
62
0
10
11400
20
-15800
11
8000
21
-15800
 0
LINE
8
COUCHE_1
 6
CONTINUOUS
62
0
10
10000
20
-15800
11
10000
21
-15200
 0
LINE
8
COUCHE_1
 6
CONTINUOUS
62
0
10
12400
20
-16200
11
13000
21
-16200
 0
LINE
8
COUCHE_1
 6
CONTINUOUS
62
0
10
9200
20
-13600
11
9000
21
-13600
 0
LINE
8
COUCHE_1
 6
CONTINUOUS
62
0
10
11400
20
-13600
11
11000
21
-13600
 0
LINE
8
COUCHE_1
 6
CONTINUOUS
62
0
10
11000
20
-13000
11
11000
21
-13600
 0
LINE
8
COUCHE_1
 6
CONTINUOUS
62
0
10
11000
20
-13000
11
9000
21
-13000
 0
LINE
8
COUCHE_1
 6
CONTINUOUS
62
0
10
9000
20
-13000
11
9000
21
-13600
 0
LINE
8
COUCHE_1
 6
CONTINUOUS
62
0
10
10800
20
-13800
11
11000
21
-13800
 0
LINE
8
COUCHE_1
 6
CONTINUOUS
62
0
10
12600
20
-13400
11
12400
21
-13400
 0
LINE
8
COUCHE_1
 6
CONTINUOUS
62
0
10
18600
20
-3400
11
18600
21
-5800
 0
LINE
8
COUCHE_1
 6
CONTINUOUS
62
0
10
16400
20
-3400
11
18600
21
-3400
 0
LINE
8
COUCHE_1
 6
CONTINUOUS
62
0
10
13400
20
-3600
11
13000
21
-3600
 0
LINE
8
COUCHE_1
 6
CONTINUOUS
62
0
10
24000
20
-17600
11
23600
21
-17600
 0
LINE
8
COUCHE_1
 6
CONTINUOUS
62
0
10
14600
20
-16800
11
16600
21
-16800
 0
LINE
8
COUCHE_1
 6
CONTINUOUS
62
0
10
15200
20
-10800
11
15400
21
-10800
 0
LINE
8
COUCHE_1
 6
CONTINUOUS
62
0
10
16200
20
-13600
11
16600
21
-13600
 0
LINE
8
COUCHE_1
 6
CONTINUOUS
62
0
10
16200
20
-14400
11
16600
21
-14400
 0
LINE
8
COUCHE_1
 6
CONTINUOUS
62
0
10
8000
20
-6000
11
8000
21
-6200
 0
LINE
8
COUCHE_1
 6
CONTINUOUS
62
0
10
8200
20
-6200
11
8000
21
-6200
 0
LINE
8
COUCHE_1
 6
CONTINUOUS
62
0
10
7000
20
-17600
11
4600
21
-17600
 0
LINE
8
COUCHE_1
 6
CONTINUOUS
62
0
10
4600
20
-6400
11
4600
21
-17600
 0
LINE
8
COUCHE_1
 6
CONTINUOUS
62
0
10
7200
20
-6400
11
4600
21
-6400
 0
LINE
8
COUCHE_1
 6
CONTINUOUS
62
0
10
7600
20
-4200
11
7800
21
-4200
 0
LINE
8
COUCHE_1
 6
CONTINUOUS
62
0
10
8000
20
-15800
11
5200
21
-15800
 0
LINE
8
COUCHE_1
 6
CONTINUOUS
62
0
10
5200
20
-4400
11
5200
21
-15800
 0
LINE
8
COUCHE_1
 6
CONTINUOUS
62
0
10
7200
20
-4400
11
5200
21
-4400
 0
LINE
8
COUCHE_1
 6
CONTINUOUS
62
0
10
7800
20
-4200
11
7800
21
-3800
 0
LINE
8
COUCHE_1
 6
CONTINUOUS
62
0
10
7400
20
-4200
11
7400
21
-4000
 0
LINE
8
COUCHE_1
 6
CONTINUOUS
62
0
10
7400
20
-4000
11
2200
21
-4000
 0
LINE
8
COUCHE_1
 6
CONTINUOUS
62
0
10
2200
20
-8000
11
2200
21
-4000
 0
LINE
8
COUCHE_1
 6
CONTINUOUS
62
0
10
2400
20
-8000
11
2200
21
-8000
 0
LINE
8
COUCHE_1
 6
CONTINUOUS
62
0
10
8000
20
-6000
11
8000
21
-5400
 0
LINE
8
COUCHE_1
 6
CONTINUOUS
62
0
10
10000
20
-5400
11
8000
21
-5400
 0
LINE
8
COUCHE_1
 6
CONTINUOUS
62
0
10
10000
20
-2600
11
10000
21
-5400
 0
LINE
8
COUCHE_1
 6
CONTINUOUS
62
0
10
14000
20
-2600
11
10000
21
-2600
 0
LINE
8
COUCHE_1
 6
CONTINUOUS
62
0
10
14000
20
-3200
11
14000
21
-2600
 0
LINE
8
COUCHE_1
 6
CONTINUOUS
62
0
10
23000
20
-3600
11
25600
21
-3600
 0
LINE
8
COUCHE_1
 6
CONTINUOUS
62
0
10
24600
20
-3400
11
24200
21
-3800
 0
LINE
8
COUCHE_1
 6
CONTINUOUS
62
0
10
8600
20
-5200
11
8600
21
-4800
 0
LINE
8
COUCHE_1
 6
CONTINUOUS
62
0
10
8600
20
-5400
11
8600
21
-5200
 0
LINE
8
COUCHE_1
 6
CONTINUOUS
62
0
10
8600
20
-6000
11
8600
21
-5400
 0
LINE
8
COUCHE_1
 6
CONTINUOUS
62
0
10
8600
20
-6000
11
10000
21
-6000
 0
LINE
8
COUCHE_1
 6
CONTINUOUS
62
0
10
10000
20
-7200
11
10000
21
-6000
 0
LINE
8
COUCHE_1
 6
CONTINUOUS
62
0
10
18400
20
-9000
11
16800
21
-9000
 0
LINE
8
COUCHE_1
 6
CONTINUOUS
62
0
10
18400
20
-9400
11
18400
21
-9000
 0
LINE
8
COUCHE_1
 6
CONTINUOUS
62
0
10
18400
20
-9400
11
18400
21
-9600
 0
LINE
8
COUCHE_1
 6
CONTINUOUS
62
0
10
18400
20
-9800
11
18400
21
-9600
 0
LINE
8
COUCHE_1
 6
CONTINUOUS
62
0
10
19600
20
-3600
11
19800
21
-3600
 0
LINE
8
COUCHE_1
 6
CONTINUOUS
62
0
10
19600
20
-3600
11
16400
21
-3600
 0
LINE
8
COUCHE_1
 6
CONTINUOUS
62
0
10
13000
20
-6200
11
13400
21
-6200
 0
LINE
8
COUCHE_1
 6
CONTINUOUS
62
0
10
23000
20
-2800
11
25800
21
-2800
 0
LINE
8
COUCHE_1
 6
CONTINUOUS
62
0
10
25800
20
-2800
11
25800
21
-3000
 0
LINE
8
COUCHE_1
 6
CONTINUOUS
62
0
10
17000
20
-10600
11
19200
21
-10600
 0
LINE
8
COUCHE_1
 6
CONTINUOUS
62
0
10
19200
20
-10600
11
19200
21
-6400
 0
LINE
8
COUCHE_1
 6
CONTINUOUS
62
0
10
17000
20
-11400
11
19400
21
-11400
 0
LINE
8
COUCHE_1
 6
CONTINUOUS
62
0
10
19400
20
-11400
11
19400
21
-6400
 0
LINE
8
COUCHE_1
 6
CONTINUOUS
62
0
10
17600
20
-10400
11
17200
21
-10800
 0
LINE
8
COUCHE_1
 6
CONTINUOUS
62
0
10
17200
20
-11600
11
17600
21
-11200
 0
LINE
8
COUCHE_1
 6
CONTINUOUS
62
0
10
28000
20
-9600
11
28000
21
-16400
 0
LINE
8
COUCHE_1
 6
CONTINUOUS
62
0
10
28000
20
-9600
11
28000
21
-3200
 0
LINE
8
COUCHE_1
 6
CONTINUOUS
62
0
10
23000
20
-3200
11
28000
21
-3200
 0
LINE
8
COUCHE_1
 6
CONTINUOUS
62
0
10
24600
20
-3000
11
24200
21
-3400
 0
LINE
8
COUCHE_1
 6
CONTINUOUS
62
0
10
18200
20
-13400
11
18400
21
-13400
 0
LINE
8
COUCHE_1
 6
CONTINUOUS
62
0
10
19800
20
-13400
11
18400
21
-13400
 0
LINE
8
COUCHE_1
 6
CONTINUOUS
62
0
10
19800
20
-11200
11
19800
21
-13400
 0
LINE
8
COUCHE_1
 6
CONTINUOUS
62
0
10
19800
20
-11200
11
19800
21
-6400
 0
LINE
8
COUCHE_1
 6
CONTINUOUS
62
0
10
18600
20
-14200
11
18200
21
-14200
 0
LINE
8
COUCHE_1
 6
CONTINUOUS
62
0
10
20200
20
-14200
11
18600
21
-14200
 0
LINE
8
COUCHE_1
 6
CONTINUOUS
62
0
10
20200
20
-10800
11
20200
21
-14200
 0
LINE
8
COUCHE_1
 6
CONTINUOUS
62
0
10
20200
20
-10800
11
20200
21
-6400
 0
LINE
8
COUCHE_1
 6
CONTINUOUS
62
0
10
18200
20
-16600
11
18800
21
-16600
 0
LINE
8
COUCHE_1
 6
CONTINUOUS
62
0
10
20600
20
-16600
11
18800
21
-16600
 0
LINE
8
COUCHE_1
 6
CONTINUOUS
62
0
10
20600
20
-10400
11
20600
21
-16600
 0
LINE
8
COUCHE_1
 6
CONTINUOUS
62
0
10
20600
20
-10400
11
20600
21
-6400
 0
LINE
8
COUCHE_1
 6
ACAD_ISO07W100
62
0
10
19800
20
-4000
11
23000
21
-4000
 0
LINE
8
COUCHE_1
 6
CONTINUOUS
62
8
10
27200
20
-4200
11
23000
21
-4200
 0
LINE
8
COUCHE_1
 6
CONTINUOUS
62
8
10
19400
20
-4200
11
19400
21
-4800
 0
LINE
8
COUCHE_1
 6
CONTINUOUS
62
8
10
16600
20
-15200
11
15600
21
-15200
 0
LINE
8
COUCHE_1
 6
CONTINUOUS
62
8
10
16600
20
-15800
11
15600
21
-15800
 0
LINE
8
COUCHE_1
 6
CONTINUOUS
62
8
10
15600
20
-15800
11
15600
21
-15200
 0
LINE
8
COUCHE_1
 6
CONTINUOUS
62
8
10
15600
20
-15200
11
15400
21
-15200
 0
LINE
8
COUCHE_1
 6
CONTINUOUS
62
0
10
21400
20
-6400
11
21400
21
-8200
 0
LINE
8
COUCHE_1
 6
CONTINUOUS
62
0
10
21400
20
-8200
11
21400
21
-8600
 0
LINE
8
COUCHE_1
 6
CONTINUOUS
62
0
10
22400
20
-8600
11
21400
21
-8600
 0
LINE
8
COUCHE_1
 6
CONTINUOUS
62
0
10
22600
20
-6400
11
22600
21
-6800
 0
LINE
8
COUCHE_1
 6
CONTINUOUS
62
0
10
22600
20
-6800
11
24000
21
-6800
 0
LINE
8
COUCHE_1
 6
CONTINUOUS
62
0
10
21800
20
-6400
11
21800
21
-8000
 0
LINE
8
COUCHE_1
 6
CONTINUOUS
62
0
10
22200
20
-6400
11
22200
21
-7400
 0
LINE
8
COUCHE_1
 6
CONTINUOUS
62
0
10
22200
20
-7400
11
24000
21
-7400
 0
LINE
8
COUCHE_1
 6
CONTINUOUS
62
0
10
21800
20
-8000
11
24000
21
-8000
 0
LINE
8
COUCHE_1
 6
CONTINUOUS
62
0
10
22400
20
-8600
11
24000
21
-8600
 0
LINE
8
COUCHE_1
 6
CONTINUOUS
62
8
10
16600
20
-17800
11
15400
21
-17800
 0
LINE
8
COUCHE_1
 6
CONTINUOUS
62
8
10
27600
20
-12200
11
27600
21
-11600
 0
LINE
8
COUCHE_1
 6
CONTINUOUS
62
8
10
27600
20
-11600
11
27600
21
-7400
 0
LINE
8
COUCHE_1
 6
CONTINUOUS
62
8
10
27600
20
-7400
11
27600
21
-4000
 0
LINE
8
COUCHE_1
 6
CONTINUOUS
62
8
10
27600
20
-4000
11
23000
21
-4000
 0
LINE
8
COUCHE_1
 6
CONTINUOUS
62
0
10
9000
20
-13600
11
9000
21
-14400
 0
LINE
8
COUCHE_1
 6
CONTINUOUS
62
0
10
9000
20
-14400
11
13000
21
-14400
 0
LINE
8
COUCHE_1
 6
CONTINUOUS
62
0
10
13000
20
-14400
11
13000
21
-16200
 0
LINE
8
COUCHE_1
 6
CONTINUOUS
62
0
10
10000
20
-13400
11
10000
21
-12600
 0
LINE
8
COUCHE_1
 6
CONTINUOUS
62
0
10
10000
20
-12600
11
11200
21
-12600
 0
LINE
8
COUCHE_1
 6
CONTINUOUS
62
0
10
11200
20
-12600
11
11200
21
-12400
 0
LINE
8
COUCHE_1
 6
CONTINUOUS
62
0
10
12600
20
-13400
11
12600
21
-12600
 0
LINE
8
COUCHE_1
 6
CONTINUOUS
62
0
10
12600
20
-12600
11
11600
21
-12600
 0
LINE
8
COUCHE_1
 6
CONTINUOUS
62
0
10
11600
20
-12600
11
11600
21
-12400
 0
LINE
8
COUCHE_1
 6
CONTINUOUS
62
0
10
11000
20
-13800
11
11000
21
-14200
 0
LINE
8
COUCHE_1
 6
CONTINUOUS
62
0
10
11000
20
-14200
11
12000
21
-14200
 0
LINE
8
COUCHE_1
 6
CONTINUOUS
62
0
10
12000
20
-14200
11
12800
21
-14200
 0
LINE
8
COUCHE_1
 6
CONTINUOUS
62
0
10
12800
20
-14200
11
12800
21
-11400
 0
LINE
8
COUCHE_1
 6
CONTINUOUS
62
0
10
12800
20
-11400
11
12800
21
-10800
 0
LINE
8
COUCHE_1
 6
CONTINUOUS
62
0
10
12800
20
-10800
11
15200
21
-10800
 0
LINE
8
COUCHE_1
 6
CONTINUOUS
62
0
10
13000
20
-13600
11
13400
21
-13600
 0
LINE
8
COUCHE_1
 6
CONTINUOUS
62
0
10
13400
20
-13600
11
13400
21
-11600
 0
LINE
8
COUCHE_1
 6
CONTINUOUS
62
0
10
13400
20
-11600
11
15400
21
-11600
 0
LINE
8
COUCHE_1
 6
CONTINUOUS
62
0
10
18600
20
-5800
11
19000
21
-5800
 0
LINE
8
COUCHE_1
 6
CONTINUOUS
62
0
10
18400
20
-12000
11
18400
21
-9800
 0
LINE
8
COUCHE_1
 6
CONTINUOUS
62
0
10
18400
20
-12000
11
21800
21
-12000
 0
LINE
8
COUCHE_1
 6
CONTINUOUS
62
0
10
18200
20
-17600
11
20800
21
-17600
 0
LINE
8
COUCHE_1
 6
CONTINUOUS
62
0
10
20800
20
-17600
11
20800
21
-16400
 0
LINE
8
COUCHE_1
 6
CONTINUOUS
62
0
10
20800
20
-16400
11
28000
21
-16400
 0
LINE
8
COUCHE_1
 6
CONTINUOUS
62
8
10
27200
20
-13200
11
25200
21
-13200
 0
LINE
8
COUCHE_1
 6
CONTINUOUS
62
8
10
27200
20
-13200
11
27200
21
-4200
 0
LINE
8
COUCHE_1
 6
CONTINUOUS
62
8
10
27600
20
-15600
11
25200
21
-15600
 0
LINE
8
COUCHE_1
 6
CONTINUOUS
62
8
10
27600
20
-12200
11
27600
21
-15600
 0
LINE
8
COUCHE_1
 6
CONTINUOUS
62
8
10
27600
20
-15600
11
27200
21
-15600
 0
LINE
8
COUCHE_1
 6
CONTINUOUS
62
0
10
22200
20
-12000
11
22200
21
-13400
 0
LINE
8
COUCHE_1
 6
CONTINUOUS
62
0
10
22200
20
-13400
11
22800
21
-13400
 0
LINE
8
COUCHE_1
 6
CONTINUOUS
62
0
10
22200
20
-13400
11
22200
21
-14600
 0
LINE
8
COUCHE_1
 6
CONTINUOUS
62
0
10
22200
20
-14600
11
22800
21
-14600
 0
LINE
8
COUCHE_1
 6
CONTINUOUS
62
0
10
22200
20
-14600
11
22200
21
-15800
 0
LINE
8
COUCHE_1
 6
CONTINUOUS
62
0
10
22200
20
-15800
11
22800
21
-15800
 0
LINE
8
COUCHE_1
 6
CONTINUOUS
62
0
10
22000
20
-17600
11
21800
21
-17600
 0
LINE
8
COUCHE_1
 6
CONTINUOUS
62
0
10
21800
20
-11800
11
21800
21
-17600
 0
LINE
8
COUCHE_1
 6
CONTINUOUS
62
0
10
21800
20
-11800
11
22800
21
-11800
 0
LINE
8
COUCHE_1
 6
CONTINUOUS
62
0
10
21800
20
-13200
11
22800
21
-13200
 0
LINE
8
COUCHE_1
 6
CONTINUOUS
62
0
10
21800
20
-14400
11
22800
21
-14400
 0
LINE
8
COUCHE_1
 6
CONTINUOUS
62
0
10
21800
20
-15600
11
22800
21
-15600
 0
LINE
8
COUCHE_1
 6
CONTINUOUS
62
0
10
21000
20
-15000
11
18200
21
-15000
 0
LINE
8
COUCHE_1
 6
CONTINUOUS
62
0
10
21000
20
-15000
11
21000
21
-9600
 0
LINE
8
COUCHE_1
 6
CONTINUOUS
62
0
10
21000
20
-9600
11
26600
21
-9600
 0
LINE
8
COUCHE_1
 6
CONTINUOUS
62
0
10
26600
20
-3600
11
26600
21
-9600
 0
LINE
8
COUCHE_1
 6
CONTINUOUS
62
0
10
26600
20
-3600
11
25600
21
-3600
 0
LINE
8
COUCHE_1
 6
CONTINUOUS
62
0
10
14400
20
-13600
11
14000
21
-13600
 0
LINE
8
COUCHE_1
 6
CONTINUOUS
62
0
10
14400
20
-14400
11
14000
21
-14400
 0
LINE
8
COUCHE_1
 6
CONTINUOUS
62
0
10
14600
20
-16800
11
14000
21
-16800
 0
LINE
8
COUCHE_1
 6
CONTINUOUS
62
0
10
25200
20
-14400
11
25800
21
-14400
 0
LINE
8
COUCHE_1
 6
CONTINUOUS
62
0
10
25800
20
-14400
11
26000
21
-14400
 0
LINE
8
COUCHE_1
 6
CONTINUOUS
62
0
10
25200
20
-11800
11
25800
21
-11800
 0
LINE
8
COUCHE_1
 6
CONTINUOUS
62
0
10
25800
20
-11800
11
26000
21
-11800
 0
LINE
8
COUCHE_1
 6
CONTINUOUS
62
8
10
19000
20
-4200
11
19000
21
-4800
 0
LINE
8
COUCHE_1
 6
CONTINUOUS
62
8
10
19400
20
-4200
11
19800
21
-4200
 0
LINE
8
COUCHE_1
 6
CONTINUOUS
62
8
10
19000
20
-4200
11
19000
21
-4000
 0
LINE
8
COUCHE_1
 6
CONTINUOUS
62
8
10
19000
20
-4000
11
19800
21
-4000
 0
LINE
8
COUCHE_1
 6
CONTINUOUS
62
0
10
11000
20
-11600
11
11000
21
-11000
 0
LINE
8
COUCHE_1
 6
CONTINUOUS
62
0
10
11000
20
-11000
11
8000
21
-11000
 0
LINE
8
COUCHE_1
 6
CONTINUOUS
62
0
10
8000
20
-11000
11
8000
21
-9000
 0
LINE
8
COUCHE_1
 6
CONTINUOUS
62
0
10
8000
20
-9000
11
8000
21
-8400
 0
LINE
8
COUCHE_1
 6
CONTINUOUS
62
0
10
16800
20
-6600
11
16800
21
-7000
 0
LINE
8
COUCHE_1
 6
CONTINUOUS
62
0
10
16800
20
-7000
11
16800
21
-6800
 0
LINE
8
COUCHE_1
 6
CONTINUOUS
62
0
10
16800
20
-6800
11
16800
21
-6200
 0
LINE
8
COUCHE_1
 6
CONTINUOUS
62
0
10
16400
20
-6200
11
16800
21
-6200
 0
LINE
8
COUCHE_1
 6
CONTINUOUS
62
0
10
22800
20
-12000
11
21800
21
-12000
 0
LINE
8
COUCHE_1
 6
CONTINUOUS
62
0
10
16800
20
-9000
11
16800
21
-6600
 0
LINE
8
COUCHE_1
 6
CONTINUOUS
62
0
10
14000
20
-5800
11
14000
21
-5400
 0
LINE
8
COUCHE_1
 6
CONTINUOUS
62
0
10
14000
20
-5400
11
13600
21
-5400
 0
LINE
8
COUCHE_1
 6
CONTINUOUS
62
0
10
13600
20
-2800
11
13600
21
-5400
 0
LINE
8
COUCHE_1
 6
CONTINUOUS
62
0
10
13600
20
-2800
11
10200
21
-2800
 0
LINE
8
COUCHE_1
 6
CONTINUOUS
62
0
10
10200
20
-2800
11
10200
21
-5600
 0
LINE
8
COUCHE_1
 6
CONTINUOUS
62
0
10
10200
20
-5600
11
8200
21
-5600
 0
LINE
8
COUCHE_1
 6
CONTINUOUS
62
0
10
8200
20
-5600
11
8200
21
-6200
 0
CIRCLE
8
COUCHE_1
62
5
 6
CONTINUOUS
10
7800
20
-14200
40
40
 0
CIRCLE
8
COUCHE_1
62
5
 6
CONTINUOUS
10
10000
20
-15800
40
40
 0
CIRCLE
8
COUCHE_1
62
5
 6
CONTINUOUS
10
9000
20
-13600
40
40
 0
CIRCLE
8
COUCHE_1
62
5
 6
CONTINUOUS
10
8000
20
-15800
40
40
 0
CIRCLE
8
COUCHE_1
62
5
 6
CONTINUOUS
10
21800
20
-13200
40
40
 0
CIRCLE
8
COUCHE_1
62
5
 6
CONTINUOUS
10
21800
20
-14400
40
40
 0
CIRCLE
8
COUCHE_1
62
5
 6
CONTINUOUS
10
21800
20
-15600
40
40
0
TEXT
8
COUCHE_1
 10
11600
 20
-7400
 11
11600
 21
-7400
 40
150
 1
HUB
50
0
 72
0
 73
3
62
0
0
TEXT
8
COUCHE_1
 10
7800
 20
-7600
 11
7800
 21
-7600
 40
150
 1
Mini PC NUC
50
0
 72
0
 73
3
62
0
0
TEXT
8
COUCHE_1
 10
11000
 20
-3200
 11
11000
 21
-3200
 40
150
 1
NI USB 6501
50
0
 72
0
 73
3
62
0
0
TEXT
8
COUCHE_1
 10
13600
 20
-3400
 11
13600
 21
-3400
 40
150
 1
Carte Optocoupleurs
50
0
 72
0
 73
3
62
0
0
TEXT
8
COUCHE_1
 10
19800
 20
-5600
 11
19800
 21
-5600
 40
150
 1
Terminal capteurs
50
0
 72
0
 73
3
62
0
0
TEXT
8
COUCHE_1
 10
10400
 20
-11800
 11
10400
 21
-11800
 40
150
 1
Carte CNC 3axes
50
0
 72
0
 73
3
62
0
0
TEXT
8
COUCHE_1
 10
11600
 20
-8000
 11
11600
 21
-8000
 40
150
 1
USB
50
0
 72
0
 73
3
62
0
0
TEXT
8
COUCHE_1
 10
2800
 20
-7800
 11
2800
 21
-7800
 40
150
 1
Ecran 10''
50
0
 72
0
 73
3
62
0
0
TEXT
8
COUCHE_1
 10
6800
 20
-2400
 11
6800
 21
-2400
 40
150
 1
Armoire supérieure
50
0
 72
0
 73
3
62
5
0
TEXT
8
COUCHE_1
 10
6800
 20
-7200
 11
6800
 21
-7200
 40
100
 1
HDMI
50
0
 72
0
 73
3
62
0
0
TEXT
8
COUCHE_1
 10
6800
 20
-7800
 11
6800
 21
-7800
 40
100
 1
USB
50
0
 72
0
 73
3
62
0
0
TEXT
8
COUCHE_1
 10
10800
 20
-7600
 11
10800
 21
-7600
 40
100
 1
USB
50
0
 72
0
 73
3
62
0
0
TEXT
8
COUCHE_1
 10
8200
 20
-8600
 11
8200
 21
-8600
 40
100
 1
USB
50
0
 72
0
 73
3
62
0
0
TEXT
8
COUCHE_1
 10
8800
 20
-10000
 11
8800
 21
-10000
 40
100
 1
Caméra Logitech HD
50
0
 72
0
 73
3
62
0
0
TEXT
8
COUCHE_1
 10
11000
 20
-10000
 11
11000
 21
-10000
 40
100
 1
Caméra Logitech HD
50
0
 72
0
 73
3
62
0
0
TEXT
8
COUCHE_1
 10
13200
 20
-10000
 11
13200
 21
-10000
 40
100
 1
Caméra Logitech HD
50
0
 72
0
 73
3
62
0
0
TEXT
8
COUCHE_1
 10
7400
 20
-12400
 11
7400
 21
-12400
 40
100
 1
Secteur 220V/50Hz
50
0
 72
0
 73
3
62
0
0
TEXT
8
COUCHE_1
 10
7600
 20
-15200
 11
7600
 21
-15200
 40
100
 1
Disjoncteur
50
0
 72
0
 73
3
62
0
0
TEXT
8
COUCHE_1
 10
7600
 20
-14400
 11
7600
 21
-14400
 40
100
 1
Sectionneur
50
0
 72
0
 73
3
62
0
0
TEXT
8
COUCHE_1
 10
10400
 20
-16200
 11
10400
 21
-16200
 40
100
 1
Alimentation stabilisée
50
0
 72
0
 73
3
62
0
0
TEXT
8
COUCHE_1
 10
7000
 20
-11600
 11
7000
 21
-11600
 40
150
 1
Armoire inférieure
50
0
 72
0
 73
3
62
5
0
TEXT
8
COUCHE_1
 10
11000
 20
-16600
 11
11000
 21
-16600
 40
100
 1
24V/10A
50
0
 72
0
 73
3
62
0
0
TEXT
8
COUCHE_1
 10
7600
 20
-16200
 11
7600
 21
-16200
 40
100
 1
Alimentation stabilisée
50
0
 72
0
 73
3
62
0
0
TEXT
8
COUCHE_1
 10
8200
 20
-16600
 11
8200
 21
-16600
 40
100
 1
24V/3A
50
0
 72
0
 73
3
62
0
0
TEXT
8
COUCHE_1
 10
11600
 20
-13600
 11
11600
 21
-13600
 40
100
 1
Driver DM805
50
0
 72
0
 73
3
62
0
0
TEXT
8
COUCHE_1
 10
9400
 20
-13600
 11
9400
 21
-13600
 40
100
 1
Driver DM805
50
0
 72
0
 73
3
62
0
0
TEXT
8
COUCHE_1
 10
15600
 20
-10600
 11
15600
 21
-10600
 40
100
 1
Moteur pas à pas
50
0
 72
0
 73
3
62
0
0
TEXT
8
COUCHE_1
 10
15600
 20
-11400
 11
15600
 21
-11400
 40
100
 1
Moteur pas à pas
50
0
 72
0
 73
3
62
0
0
TEXT
8
COUCHE_1
 10
19800
 20
-2400
 11
19800
 21
-2400
 40
150
 1
Harting
50
0
 72
0
 73
3
62
0
0
TEXT
8
COUCHE_1
 10
23000
 20
-11800
 11
23000
 21
-11800
 40
100
 1
Distributeur verin porte
50
0
 72
0
 73
3
62
0
0
TEXT
8
COUCHE_1
 10
23000
 20
-13200
 11
23000
 21
-13200
 40
100
 1
Distributeur verin bridage
50
0
 72
0
 73
3
62
0
0
TEXT
8
COUCHE_1
 10
23000
 20
-14400
 11
23000
 21
-14400
 40
100
 1
Distributeur verin chariot
50
0
 72
0
 73
3
62
0
0
TEXT
8
COUCHE_1
 10
23000
 20
-15600
 11
23000
 21
-15600
 40
100
 1
Distributeur verin marquage
50
0
 72
0
 73
3
62
0
0
TEXT
8
COUCHE_1
 10
16800
 20
-13400
 11
16800
 21
-13400
 40
100
 1
Verin porte(1)
50
0
 72
0
 73
3
62
0
0
TEXT
8
COUCHE_1
 10
16800
 20
-14200
 11
16800
 21
-14200
 40
100
 1
Verin porte(2)
50
0
 72
0
 73
3
62
0
0
TEXT
8
COUCHE_1
 10
16800
 20
-15000
 11
16800
 21
-15000
 40
100
 1
Verin bridage(1)
50
0
 72
0
 73
3
62
0
0
TEXT
8
COUCHE_1
 10
16800
 20
-15800
 11
16800
 21
-15800
 40
100
 1
Verin bridage(2)
50
0
 72
0
 73
3
62
0
0
TEXT
8
COUCHE_1
 10
16800
 20
-16600
 11
16800
 21
-16600
 40
100
 1
Verin chariot
50
0
 72
0
 73
3
62
0
0
TEXT
8
COUCHE_1
 10
16800
 20
-17600
 11
16800
 21
-17600
 40
100
 1
Verin marquage
50
0
 72
0
 73
3
62
0
0
TEXT
8
COUCHE_1
 10
7200
 20
-17200
 11
7200
 21
-17200
 40
100
 1
24V
50
0
 72
0
 73
3
62
0
0
TEXT
8
COUCHE_1
 10
8200
 20
-17200
 11
8200
 21
-17200
 40
100
 1
GND
50
0
 72
0
 73
3
62
0
0
TEXT
8
COUCHE_1
 10
9200
 20
-17200
 11
9200
 21
-17200
 40
100
 1
T
50
0
 72
0
 73
3
62
0
0
TEXT
8
COUCHE_1
 10
7000
 20
-17400
 11
7000
 21
-17400
 40
100
 1
Bornier 
50
0
 72
0
 73
3
62
0
0
TEXT
8
COUCHE_1
 10
9600
 20
-14800
 11
9600
 21
-14800
 40
100
 1
Ventilateur
50
0
 72
0
 73
3
62
0
0
TEXT
8
COUCHE_1
 10
24200
 20
-17400
 11
24200
 21
-17400
 40
150
 1
U.conditionnement d'air FRL
50
0
 72
0
 73
3
62
0
0
TEXT
8
COUCHE_1
 10
22200
 20
-17400
 11
22200
 21
-17400
 40
100
 1
Pressostat
50
0
 72
0
 73
3
62
0
0
TEXT
8
COUCHE_1
 10
14400
 20
-13400
 11
14400
 21
-13400
 40
100
 1
Clapet anti-retour HGL
50
0
 72
0
 73
3
62
0
0
TEXT
8
COUCHE_1
 10
14400
 20
-14200
 11
14400
 21
-14200
 40
100
 1
Clapet anti-retour HGL
50
0
 72
0
 73
3
62
0
0
TEXT
8
COUCHE_1
 10
7200
 20
-6600
 11
7200
 21
-6600
 40
100
 1
24V
50
0
 72
0
 73
3
62
0
0
TEXT
8
COUCHE_1
 10
7200
 20
-6200
 11
7200
 21
-6200
 40
100
 1
Bornier 
50
0
 72
0
 73
3
62
0
0
TEXT
8
COUCHE_1
 10
7200
 20
-4200
 11
7200
 21
-4200
 40
100
 1
Bornier 
50
0
 72
0
 73
3
62
0
0
TEXT
8
COUCHE_1
 10
7200
 20
-4600
 11
7200
 21
-4600
 40
100
 1
220 V
50
0
 72
0
 73
3
62
0
0
TEXT
8
COUCHE_1
 10
7800
 20
-3200
 11
7800
 21
-3200
 40
150
 1
Ventilateur
50
0
 72
0
 73
3
62
0
0
TEXT
8
COUCHE_1
 10
5200
 20
-3800
 11
5200
 21
-3800
 40
100
 1
Alimentation
50
0
 72
0
 73
3
62
0
0
TEXT
8
COUCHE_1
 10
24200
 20
-3200
 11
24200
 21
-3200
 40
100
 1
2
50
0
 72
0
 73
3
62
0
0
TEXT
8
COUCHE_1
 10
10000
 20
-7198
 11
10000
 21
-7198
 40
100
 1
Alimentation
50
90
 72
0
 73
3
62
0
0
TEXT
8
COUCHE_1
 10
13600
 20
-6000
 11
13600
 21
-6000
 40
150
 1
Carte Optocoupleurs
50
0
 72
0
 73
3
62
0
0
TEXT
8
COUCHE_1
 10
14400
 20
-3600
 11
14400
 21
-3600
 40
150
 1
Inputs PC
50
0
 72
0
 73
3
62
0
0
TEXT
8
COUCHE_1
 10
14400
 20
-6200
 11
14400
 21
-6200
 40
150
 1
Outputs PC
50
0
 72
0
 73
3
62
0
0
TEXT
8
COUCHE_1
 10
26000
 20
-2600
 11
26000
 21
-2600
 40
150
 1
Capteur posage
50
0
 72
0
 73
3
62
0
0
TEXT
8
COUCHE_1
 10
17200
 20
-10200
 11
17200
 21
-10200
 40
100
 1
2
50
0
 72
0
 73
3
62
0
0
TEXT
8
COUCHE_1
 10
17200
 20
-11000
 11
17200
 21
-11000
 40
100
 1
2
50
0
 72
0
 73
3
62
0
0
TEXT
8
COUCHE_1
 10
19000
 20
-9800
 11
19000
 21
-9800
 40
100
 1
Sens horraire/sens antihorraire
50
90
 72
0
 73
3
62
0
0
TEXT
8
COUCHE_1
 10
24200
 20
-2800
 11
24200
 21
-2800
 40
100
 1
2
50
0
 72
0
 73
3
62
0
0
TEXT
8
COUCHE_1
 10
20400
 20
-9100
 11
20400
 21
-9100
 40
100
 1
Fins de course vérin chariot
50
90
 72
0
 73
3
62
0
0
TEXT
8
COUCHE_1
 10
20000
 20
-9100
 11
20000
 21
-9100
 40
100
 1
Fins de course vérin porte 2
50
90
 72
0
 73
3
62
0
0
TEXT
8
COUCHE_1
 10
19600
 20
-9100
 11
19600
 21
-9100
 40
100
 1
Fins de course vérin porte 1
50
90
 72
0
 73
3
62
0
0
TEXT
8
COUCHE_1
 10
22400
 20
-11200
 11
22400
 21
-11200
 40
100
 1
CPV10
50
0
 72
0
 73
3
62
8
0
TEXT
8
COUCHE_1
 10
19400
 20
-4800
 11
19400
 21
-4800
 40
100
 1
X0.1
50
0
 72
0
 73
3
62
0
0
TEXT
8
COUCHE_1
 10
15000
 20
-14800
 11
15000
 21
-14800
 40
100
 1
X0.1
50
0
 72
0
 73
3
62
0
0
TEXT
8
COUCHE_1
 10
24000
 20
-6800
 11
24000
 21
-6800
 40
75
 1
Bouton départ cycle
50
0
 72
0
 73
3
62
0
0
TEXT
8
COUCHE_1
 10
24200
 20
-7400
 11
24200
 21
-7400
 40
75
 1
Eclairage banc
50
0
 72
0
 73
3
62
0
0
TEXT
8
COUCHE_1
 10
24400
 20
-7200
 11
24400
 21
-7200
 40
75
 1
Bouton
50
0
 72
0
 73
3
62
0
0
TEXT
8
COUCHE_1
 10
24200
 20
-8000
 11
24200
 21
-8000
 40
75
 1
sécurité porte
50
0
 72
0
 73
3
62
0
0
TEXT
8
COUCHE_1
 10
24200
 20
-8600
 11
24200
 21
-8600
 40
75
 1
Présence air
50
0
 72
0
 73
3
62
0
0
TEXT
8
COUCHE_1
 10
15000
 20
-17400
 11
15000
 21
-17400
 40
100
 1
X0.2
50
0
 72
0
 73
3
62
0
0
TEXT
8
COUCHE_1
 10
26200
 20
-11600
 11
26200
 21
-11600
 40
100
 1
X1
50
0
 72
0
 73
3
62
0
0
TEXT
8
COUCHE_1
 10
13800
 20
-13200
 11
13800
 21
-13200
 40
100
 1
X1
50
0
 72
0
 73
3
62
0
0
TEXT
8
COUCHE_1
 10
13800
 20
-14000
 11
13800
 21
-14000
 40
100
 1
X1
50
0
 72
0
 73
3
62
0
0
TEXT
8
COUCHE_1
 10
26200
 20
-14200
 11
26200
 21
-14200
 40
100
 1
X2
50
0
 72
0
 73
3
62
0
0
TEXT
8
COUCHE_1
 10
13800
 20
-16400
 11
13800
 21
-16400
 40
100
 1
X2
50
0
 72
0
 73
3
62
0
0
TEXT
8
COUCHE_1
 10
18800
 20
-4800
 11
18800
 21
-4800
 40
100
 1
X0.2
50
0
 72
0
 73
3
62
0
0
TEXT
8
COUCHE_1
 10
21400
 20
-16600
 11
21400
 21
-16600
 40
100
 1
FRL
50
0
 72
0
 73
3
62
0
0
TEXT
8
COUCHE_1
 10
26400
 20
-8200
 11
26400
 21
-8200
 40
100
 1
Fins de course vérin bridage
50
90
 72
0
 73
3
62
0
0
TEXT
8
COUCHE_1
 10
27800
 20
-8200
 11
27800
 21
-8200
 40
100
 1
Fin de course vérin marqauge
50
90
 72
0
 73
3
62
0
 0
LINE
8
COUCHE_1
 6
CONTINUOUS
62
0
10
1200
20
-1200
11
29300
21
-1200
 0
LINE
8
COUCHE_1
 6
CONTINUOUS
62
0
10
1600
20
-1600
11
29300
21
-1600
 0
LINE
8
COUCHE_1
 6
CONTINUOUS
62
0
10
3200
20
-1200
11
3200
21
-1600
 0
LINE
8
COUCHE_1
 6
CONTINUOUS
62
0
10
4800
20
-1200
11
4800
21
-1600
 0
LINE
8
COUCHE_1
 6
CONTINUOUS
62
0
10
6400
20
-1200
11
6400
21
-1600
 0
LINE
8
COUCHE_1
 6
CONTINUOUS
62
0
10
8000
20
-1200
11
8000
21
-1600
 0
LINE
8
COUCHE_1
 6
CONTINUOUS
62
0
10
9600
20
-1200
11
9600
21
-1600
 0
LINE
8
COUCHE_1
 6
CONTINUOUS
62
0
10
11200
20
-1200
11
11200
21
-1600
 0
LINE
8
COUCHE_1
 6
CONTINUOUS
62
0
10
12800
20
-1200
11
12800
21
-1600
 0
LINE
8
COUCHE_1
 6
CONTINUOUS
62
0
10
14400
20
-1200
11
14400
21
-1600
 0
LINE
8
COUCHE_1
 6
CONTINUOUS
62
0
10
16000
20
-1200
11
16000
21
-1600
 0
LINE
8
COUCHE_1
 6
CONTINUOUS
62
0
10
17600
20
-1200
11
17600
21
-1600
 0
LINE
8
COUCHE_1
 6
CONTINUOUS
62
0
10
19200
20
-1200
11
19200
21
-1600
 0
LINE
8
COUCHE_1
 6
CONTINUOUS
62
0
10
20800
20
-1200
11
20800
21
-1600
 0
LINE
8
COUCHE_1
 6
CONTINUOUS
62
0
10
22400
20
-1200
11
22400
21
-1600
 0
LINE
8
COUCHE_1
 6
CONTINUOUS
62
0
10
24000
20
-1200
11
24000
21
-1600
 0
LINE
8
COUCHE_1
 6
CONTINUOUS
62
0
10
25600
20
-1200
11
25600
21
-1600
 0
LINE
8
COUCHE_1
 6
CONTINUOUS
62
0
10
27200
20
-1200
11
27200
21
-1600
 0
LINE
8
COUCHE_1
 6
CONTINUOUS
62
0
10
28800
20
-1200
11
28800
21
-1600
 0
LINE
8
COUCHE_1
 6
CONTINUOUS
62
0
10
29300
20
-1200
11
29300
21
-1600
 0
LINE
8
COUCHE_1
 6
CONTINUOUS
62
0
10
1200
20
-20600
11
29300
21
-20600
0
TEXT
8
COUCHE_1
 10
2400
 20
-1250
 11
2400
 21
-1250
 40
150
 1
A
50
0
 72
1
 73
3
62
0
0
TEXT
8
COUCHE_1
 10
4000
 20
-1250
 11
4000
 21
-1250
 40
150
 1
B
50
0
 72
1
 73
3
62
0
0
TEXT
8
COUCHE_1
 10
5600
 20
-1250
 11
5600
 21
-1250
 40
150
 1
C
50
0
 72
1
 73
3
62
0
0
TEXT
8
COUCHE_1
 10
7200
 20
-1250
 11
7200
 21
-1250
 40
150
 1
D
50
0
 72
1
 73
3
62
0
0
TEXT
8
COUCHE_1
 10
8800
 20
-1250
 11
8800
 21
-1250
 40
150
 1
E
50
0
 72
1
 73
3
62
0
0
TEXT
8
COUCHE_1
 10
10400
 20
-1250
 11
10400
 21
-1250
 40
150
 1
F
50
0
 72
1
 73
3
62
0
0
TEXT
8
COUCHE_1
 10
12000
 20
-1250
 11
12000
 21
-1250
 40
150
 1
G
50
0
 72
1
 73
3
62
0
0
TEXT
8
COUCHE_1
 10
13600
 20
-1250
 11
13600
 21
-1250
 40
150
 1
H
50
0
 72
1
 73
3
62
0
0
TEXT
8
COUCHE_1
 10
15200
 20
-1250
 11
15200
 21
-1250
 40
150
 1
I
50
0
 72
1
 73
3
62
0
0
TEXT
8
COUCHE_1
 10
16800
 20
-1250
 11
16800
 21
-1250
 40
150
 1
J
50
0
 72
1
 73
3
62
0
0
TEXT
8
COUCHE_1
 10
18400
 20
-1250
 11
18400
 21
-1250
 40
150
 1
K
50
0
 72
1
 73
3
62
0
0
TEXT
8
COUCHE_1
 10
20000
 20
-1250
 11
20000
 21
-1250
 40
150
 1
L
50
0
 72
1
 73
3
62
0
0
TEXT
8
COUCHE_1
 10
21600
 20
-1250
 11
21600
 21
-1250
 40
150
 1
M
50
0
 72
1
 73
3
62
0
0
TEXT
8
COUCHE_1
 10
23200
 20
-1250
 11
23200
 21
-1250
 40
150
 1
N
50
0
 72
1
 73
3
62
0
0
TEXT
8
COUCHE_1
 10
24800
 20
-1250
 11
24800
 21
-1250
 40
150
 1
O
50
0
 72
1
 73
3
62
0
0
TEXT
8
COUCHE_1
 10
26400
 20
-1250
 11
26400
 21
-1250
 40
150
 1
P
50
0
 72
1
 73
3
62
0
0
TEXT
8
COUCHE_1
 10
28000
 20
-1250
 11
28000
 21
-1250
 40
150
 1
Q
50
0
 72
1
 73
3
62
0
 0
LINE
8
COUCHE_1
 6
CONTINUOUS
62
0
10
1200
20
-1200
11
1200
21
-20600
 0
LINE
8
COUCHE_1
 6
CONTINUOUS
62
0
10
1600
20
-1600
11
1600
21
-20600
 0
LINE
8
COUCHE_1
 6
CONTINUOUS
62
0
10
1200
20
-3200
11
1600
21
-3200
 0
LINE
8
COUCHE_1
 6
CONTINUOUS
62
0
10
1200
20
-4800
11
1600
21
-4800
 0
LINE
8
COUCHE_1
 6
CONTINUOUS
62
0
10
1200
20
-6400
11
1600
21
-6400
 0
LINE
8
COUCHE_1
 6
CONTINUOUS
62
0
10
1200
20
-8000
11
1600
21
-8000
 0
LINE
8
COUCHE_1
 6
CONTINUOUS
62
0
10
1200
20
-9600
11
1600
21
-9600
 0
LINE
8
COUCHE_1
 6
CONTINUOUS
62
0
10
1200
20
-11200
11
1600
21
-11200
 0
LINE
8
COUCHE_1
 6
CONTINUOUS
62
0
10
1200
20
-12800
11
1600
21
-12800
 0
LINE
8
COUCHE_1
 6
CONTINUOUS
62
0
10
1200
20
-14400
11
1600
21
-14400
 0
LINE
8
COUCHE_1
 6
CONTINUOUS
62
0
10
1200
20
-16000
11
1600
21
-16000
 0
LINE
8
COUCHE_1
 6
CONTINUOUS
62
0
10
1200
20
-17600
11
1600
21
-17600
 0
LINE
8
COUCHE_1
 6
CONTINUOUS
62
0
10
1200
20
-19200
11
1600
21
-19200
 0
LINE
8
COUCHE_1
 6
CONTINUOUS
62
0
10
1200
20
-20600
11
1600
21
-20600
 0
LINE
8
COUCHE_1
 6
CONTINUOUS
62
0
10
29300
20
-1200
11
29300
21
-20600
0
TEXT
8
COUCHE_1
 10
1400
 20
-2250
 11
1400
 21
-2250
 40
150
 1
1
50
0
 72
1
 73
3
62
0
0
TEXT
8
COUCHE_1
 10
1400
 20
-3850
 11
1400
 21
-3850
 40
150
 1
2
50
0
 72
1
 73
3
62
0
0
TEXT
8
COUCHE_1
 10
1400
 20
-5450
 11
1400
 21
-5450
 40
150
 1
3
50
0
 72
1
 73
3
62
0
0
TEXT
8
COUCHE_1
 10
1400
 20
-7050
 11
1400
 21
-7050
 40
150
 1
4
50
0
 72
1
 73
3
62
0
0
TEXT
8
COUCHE_1
 10
1400
 20
-8650
 11
1400
 21
-8650
 40
150
 1
5
50
0
 72
1
 73
3
62
0
0
TEXT
8
COUCHE_1
 10
1400
 20
-10250
 11
1400
 21
-10250
 40
150
 1
6
50
0
 72
1
 73
3
62
0
0
TEXT
8
COUCHE_1
 10
1400
 20
-11850
 11
1400
 21
-11850
 40
150
 1
7
50
0
 72
1
 73
3
62
0
0
TEXT
8
COUCHE_1
 10
1400
 20
-13450
 11
1400
 21
-13450
 40
150
 1
8
50
0
 72
1
 73
3
62
0
0
TEXT
8
COUCHE_1
 10
1400
 20
-15050
 11
1400
 21
-15050
 40
150
 1
9
50
0
 72
1
 73
3
62
0
0
TEXT
8
COUCHE_1
 10
1400
 20
-16650
 11
1400
 21
-16650
 40
150
 1
10
50
0
 72
1
 73
3
62
0
0
TEXT
8
COUCHE_1
 10
1400
 20
-18250
 11
1400
 21
-18250
 40
150
 1
11
50
0
 72
1
 73
3
62
0
 0
LINE
8
COUCHE_1
 6
CONTINUOUS
62
0
10
1600
20
-19200
11
29300
21
-19200
 0
LINE
8
COUCHE_1
 6
CONTINUOUS
62
0
10
27700
20
-20600
11
27700
21
-19200
 0
LINE
8
COUCHE_1
 6
CONTINUOUS
62
0
10
27700
20
-20600
11
29300
21
-19200
 0
LINE
8
COUCHE_1
 6
CONTINUOUS
62
0
10
7200
20
-20600
11
7200
21
-19200
 0
LINE
8
COUCHE_1
 6
CONTINUOUS
62
0
10
24000
20
-20600
11
24000
21
-19200
0
TEXT
8
COUCHE_1
 10
28600
 20
-20100
 11
28600
 21
-20100
 40
200
 1
01
50
0
 72
0
 73
3
62
0
0
TEXT
8
COUCHE_1
 10
27900
 20
-19400
 11
27900
 21
-19400
 40
200
 1
01
50
0
 72
0
 73
3
62
0
0
TEXT
8
COUCHE_1
 10
27500
 20
-19600
 11
27500
 21
-19600
 40
150
 1
14/02/2018
50
0
 72
2
 73
3
62
0
0
TEXT
8
COUCHE_1
 10
24200
 20
-19600
 11
24200
 21
-19600
 40
150
 1
Dessiné le :
50
0
 72
0
 73
3
62
0
0
TEXT
8
COUCHE_1
 10
27200
 20
-20200
 11
27200
 21
-20200
 40
150
 1
DN_DM
50
0
 72
2
 73
3
62
0
0
TEXT
8
COUCHE_1
 10
24400
 20
-20200
 11
24400
 21
-20200
 40
150
 1
Par : 
50
0
 72
0
 73
3
62
0
0
TEXT
8
COUCHE_1
 10
14400
 20
-19800
 11
14400
 21
-19800
 40
200
 1
Schéma    synoptique
50
0
 72
0
 73
3
62
0
 0
ENDSEC
 0
EOF
