 0
SECTION
 2
HEADER
 9
$ACADVER
 1
AC1009
 9
$CLAYER
 8
Couche_1
 9
$HANDLING
70
 0
9
$INSBASE
10
0
20
0
30
0
9
$THICKNESS
40
0
9
$UCSNAME
2
UCS_F1
9
$WORLDVIEW
70
1
9
$LTSCALE
40
15
0
ENDSEC
0
SECTION
2
TABLES
 0
TABLE
 2
APPID
70
 1
 0
APPID
 2
TASK
 70
 0
 0
ENDTAB
 0
TABLE
  2
LTYPE
 70
 2
 0
LTYPE
  2
CONTINUOUS
 70
 0
 3
Solid line
 72
65
 73
0
 40
0
  0
LTYPE
  2
ACAD_ISO03W100
 70
 0
 3
CAO pointillé long
 72
65
 73
2
 40
30
 49
12
 49
-18.0
  0
LTYPE
 2
ACAD_ISO07W100
 70
0
 3
CAO pointillé fin
 72
65
 73
2
 40
3
 49
0
 49
-3.0
  0
LTYPE
  2
ACAD_ISO02W100
 70
0
 3
CAO pointillé extra long
 72
65
 73
2
 40
15
 49
12
 49
-3
  0
LTYPE
  2
AXES
 70
0
 3
CAO Axe
 72
65
 73
4
 40
50.8
 49
31.75
 49
-6.35
 49
6.35
 49
-6.35
  0
ENDTAB
0
TABLE
2
LAYER
 70
20
 0
LAYER
 2
COUCHE_1
 70
 64
 62
 7
 6
CONTINUOUS
 0
ENDTAB
 0
TABLE
 2
UCS
 70
 6
 0
UCS
 2
UCSF1
 70
 64
 10
0.000000
 20
0.000000
 30
20.000000
 11
1.000000
 21
0.000000
 31
0.000000
 12
0.000000
 22
-1.000000
 32
0.000000
 0
ENDTAB
 0
ENDSEC
 0
SECTION
 2
ENTITIES
0
POLYLINE
5
2B
 8
0
62
0
 6
ACAD_ISO07W100
 66
 1
 10
0
 20
0
 30
0
 70
1
 0
VERTEX
 5
33
  8
0
 10
15000
 20
-10200
 0
VERTEX
 5
33
  8
0
 10
35000
 20
-10200
 0
VERTEX
 5
33
  8
0
 10
35000
 20
-22000
 0
VERTEX
 5
33
  8
0
 10
15000
 20
-22000
 0
SEQEND
 5
37
 8
0
 0
LINE
8
COUCHE_1
 6
CONTINUOUS
62
0
10
33400
20
-12400
11
33400
21
-12200
 0
LINE
8
COUCHE_1
 6
CONTINUOUS
62
0
10
33400
20
-13000
11
33400
21
-12800
 0
LINE
8
COUCHE_1
 6
CONTINUOUS
62
0
10
33100
20
-12300
11
33700
21
-12900
 0
CIRCLE
8
COUCHE_1
62
0
 6
CONTINUOUS
10
33400
20
-12600
40
200
0
POLYLINE
5
2B
 8
0
62
1
 6
CONTINUOUS
 66
 1
 10
0
 20
0
 30
0
 70
1
 0
VERTEX
 5
33
  8
0
 10
33300
 20
-12100
 0
VERTEX
 5
33
  8
0
 10
33500
 20
-12100
 0
VERTEX
 5
33
  8
0
 10
33500
 20
-12300
 0
VERTEX
 5
33
  8
0
 10
33300
 20
-12300
 0
SEQEND
 5
37
 8
0
 0
LINE
8
COUCHE_1
 6
CONTINUOUS
62
1
10
33400
20
-12200
11
33400
21
-12200
0
POLYLINE
5
2B
 8
0
62
1
 6
CONTINUOUS
 66
 1
 10
0
 20
0
 30
0
 70
1
 0
VERTEX
 5
33
  8
0
 10
33300
 20
-12900
 0
VERTEX
 5
33
  8
0
 10
33500
 20
-12900
 0
VERTEX
 5
33
  8
0
 10
33500
 20
-13100
 0
VERTEX
 5
33
  8
0
 10
33300
 20
-13100
 0
SEQEND
 5
37
 8
0
 0
LINE
8
COUCHE_1
 6
CONTINUOUS
62
1
10
33400
20
-13000
11
33400
21
-13000
0
TEXT
8
COUCHE_1
 10
33600
 20
-12000
 11
33600
 21
-12000
 40
200
 1
01
50
0
 72
0
 73
3
62
0
 0
LINE
8
COUCHE_1
 6
CONTINUOUS
62
0
10
32000
20
-12400
11
32000
21
-12200
 0
LINE
8
COUCHE_1
 6
CONTINUOUS
62
0
10
32000
20
-13000
11
32000
21
-12800
 0
LINE
8
COUCHE_1
 6
CONTINUOUS
62
0
10
31700
20
-12300
11
32300
21
-12900
 0
CIRCLE
8
COUCHE_1
62
0
 6
CONTINUOUS
10
32000
20
-12600
40
200
0
POLYLINE
5
2B
 8
0
62
1
 6
CONTINUOUS
 66
 1
 10
0
 20
0
 30
0
 70
1
 0
VERTEX
 5
33
  8
0
 10
31900
 20
-12100
 0
VERTEX
 5
33
  8
0
 10
32100
 20
-12100
 0
VERTEX
 5
33
  8
0
 10
32100
 20
-12300
 0
VERTEX
 5
33
  8
0
 10
31900
 20
-12300
 0
SEQEND
 5
37
 8
0
 0
LINE
8
COUCHE_1
 6
CONTINUOUS
62
1
10
32000
20
-12200
11
32000
21
-12200
0
POLYLINE
5
2B
 8
0
62
1
 6
CONTINUOUS
 66
 1
 10
0
 20
0
 30
0
 70
1
 0
VERTEX
 5
33
  8
0
 10
31900
 20
-12900
 0
VERTEX
 5
33
  8
0
 10
32100
 20
-12900
 0
VERTEX
 5
33
  8
0
 10
32100
 20
-13100
 0
VERTEX
 5
33
  8
0
 10
31900
 20
-13100
 0
SEQEND
 5
37
 8
0
 0
LINE
8
COUCHE_1
 6
CONTINUOUS
62
1
10
32000
20
-13000
11
32000
21
-13000
0
TEXT
8
COUCHE_1
 10
32200
 20
-12000
 11
32200
 21
-12000
 40
200
 1
02
50
0
 72
0
 73
3
62
0
 0
LINE
8
COUCHE_1
 6
CONTINUOUS
62
0
10
30400
20
-12400
11
30400
21
-12200
 0
LINE
8
COUCHE_1
 6
CONTINUOUS
62
0
10
30400
20
-13000
11
30400
21
-12800
 0
LINE
8
COUCHE_1
 6
CONTINUOUS
62
0
10
30100
20
-12300
11
30700
21
-12900
 0
CIRCLE
8
COUCHE_1
62
0
 6
CONTINUOUS
10
30400
20
-12600
40
200
0
POLYLINE
5
2B
 8
0
62
1
 6
CONTINUOUS
 66
 1
 10
0
 20
0
 30
0
 70
1
 0
VERTEX
 5
33
  8
0
 10
30300
 20
-12100
 0
VERTEX
 5
33
  8
0
 10
30500
 20
-12100
 0
VERTEX
 5
33
  8
0
 10
30500
 20
-12300
 0
VERTEX
 5
33
  8
0
 10
30300
 20
-12300
 0
SEQEND
 5
37
 8
0
 0
LINE
8
COUCHE_1
 6
CONTINUOUS
62
1
10
30400
20
-12200
11
30400
21
-12200
0
POLYLINE
5
2B
 8
0
62
1
 6
CONTINUOUS
 66
 1
 10
0
 20
0
 30
0
 70
1
 0
VERTEX
 5
33
  8
0
 10
30300
 20
-12900
 0
VERTEX
 5
33
  8
0
 10
30500
 20
-12900
 0
VERTEX
 5
33
  8
0
 10
30500
 20
-13100
 0
VERTEX
 5
33
  8
0
 10
30300
 20
-13100
 0
SEQEND
 5
37
 8
0
 0
LINE
8
COUCHE_1
 6
CONTINUOUS
62
1
10
30400
20
-13000
11
30400
21
-13000
0
TEXT
8
COUCHE_1
 10
30600
 20
-12000
 11
30600
 21
-12000
 40
200
 1
03
50
0
 72
0
 73
3
62
0
 0
LINE
8
COUCHE_1
 6
CONTINUOUS
62
0
10
29000
20
-12400
11
29000
21
-12200
 0
LINE
8
COUCHE_1
 6
CONTINUOUS
62
0
10
29000
20
-13000
11
29000
21
-12800
 0
LINE
8
COUCHE_1
 6
CONTINUOUS
62
0
10
28700
20
-12300
11
29300
21
-12900
 0
CIRCLE
8
COUCHE_1
62
0
 6
CONTINUOUS
10
29000
20
-12600
40
200
0
POLYLINE
5
2B
 8
0
62
1
 6
CONTINUOUS
 66
 1
 10
0
 20
0
 30
0
 70
1
 0
VERTEX
 5
33
  8
0
 10
28900
 20
-12100
 0
VERTEX
 5
33
  8
0
 10
29100
 20
-12100
 0
VERTEX
 5
33
  8
0
 10
29100
 20
-12300
 0
VERTEX
 5
33
  8
0
 10
28900
 20
-12300
 0
SEQEND
 5
37
 8
0
 0
LINE
8
COUCHE_1
 6
CONTINUOUS
62
1
10
29000
20
-12200
11
29000
21
-12200
0
POLYLINE
5
2B
 8
0
62
1
 6
CONTINUOUS
 66
 1
 10
0
 20
0
 30
0
 70
1
 0
VERTEX
 5
33
  8
0
 10
28900
 20
-12900
 0
VERTEX
 5
33
  8
0
 10
29100
 20
-12900
 0
VERTEX
 5
33
  8
0
 10
29100
 20
-13100
 0
VERTEX
 5
33
  8
0
 10
28900
 20
-13100
 0
SEQEND
 5
37
 8
0
 0
LINE
8
COUCHE_1
 6
CONTINUOUS
62
1
10
29000
20
-13000
11
29000
21
-13000
0
TEXT
8
COUCHE_1
 10
29200
 20
-12000
 11
29200
 21
-12000
 40
200
 1
04
50
0
 72
0
 73
3
62
0
 0
LINE
8
COUCHE_1
 6
CONTINUOUS
62
0
10
27800
20
-12400
11
27800
21
-12200
 0
LINE
8
COUCHE_1
 6
CONTINUOUS
62
0
10
27800
20
-13000
11
27800
21
-12800
 0
LINE
8
COUCHE_1
 6
CONTINUOUS
62
0
10
27500
20
-12300
11
28100
21
-12900
 0
CIRCLE
8
COUCHE_1
62
0
 6
CONTINUOUS
10
27800
20
-12600
40
200
0
POLYLINE
5
2B
 8
0
62
1
 6
CONTINUOUS
 66
 1
 10
0
 20
0
 30
0
 70
1
 0
VERTEX
 5
33
  8
0
 10
27700
 20
-12100
 0
VERTEX
 5
33
  8
0
 10
27900
 20
-12100
 0
VERTEX
 5
33
  8
0
 10
27900
 20
-12300
 0
VERTEX
 5
33
  8
0
 10
27700
 20
-12300
 0
SEQEND
 5
37
 8
0
 0
LINE
8
COUCHE_1
 6
CONTINUOUS
62
1
10
27800
20
-12200
11
27800
21
-12200
0
POLYLINE
5
2B
 8
0
62
1
 6
CONTINUOUS
 66
 1
 10
0
 20
0
 30
0
 70
1
 0
VERTEX
 5
33
  8
0
 10
27700
 20
-12900
 0
VERTEX
 5
33
  8
0
 10
27900
 20
-12900
 0
VERTEX
 5
33
  8
0
 10
27900
 20
-13100
 0
VERTEX
 5
33
  8
0
 10
27700
 20
-13100
 0
SEQEND
 5
37
 8
0
 0
LINE
8
COUCHE_1
 6
CONTINUOUS
62
1
10
27800
20
-13000
11
27800
21
-13000
0
TEXT
8
COUCHE_1
 10
28000
 20
-12000
 11
28000
 21
-12000
 40
200
 1
05
50
0
 72
0
 73
3
62
0
 0
LINE
8
COUCHE_1
 6
CONTINUOUS
62
0
10
26600
20
-12400
11
26600
21
-12200
 0
LINE
8
COUCHE_1
 6
CONTINUOUS
62
0
10
26600
20
-13000
11
26600
21
-12800
 0
LINE
8
COUCHE_1
 6
CONTINUOUS
62
0
10
26300
20
-12300
11
26900
21
-12900
 0
CIRCLE
8
COUCHE_1
62
0
 6
CONTINUOUS
10
26600
20
-12600
40
200
0
POLYLINE
5
2B
 8
0
62
1
 6
CONTINUOUS
 66
 1
 10
0
 20
0
 30
0
 70
1
 0
VERTEX
 5
33
  8
0
 10
26500
 20
-12100
 0
VERTEX
 5
33
  8
0
 10
26700
 20
-12100
 0
VERTEX
 5
33
  8
0
 10
26700
 20
-12300
 0
VERTEX
 5
33
  8
0
 10
26500
 20
-12300
 0
SEQEND
 5
37
 8
0
 0
LINE
8
COUCHE_1
 6
CONTINUOUS
62
1
10
26600
20
-12200
11
26600
21
-12200
0
POLYLINE
5
2B
 8
0
62
1
 6
CONTINUOUS
 66
 1
 10
0
 20
0
 30
0
 70
1
 0
VERTEX
 5
33
  8
0
 10
26500
 20
-12900
 0
VERTEX
 5
33
  8
0
 10
26700
 20
-12900
 0
VERTEX
 5
33
  8
0
 10
26700
 20
-13100
 0
VERTEX
 5
33
  8
0
 10
26500
 20
-13100
 0
SEQEND
 5
37
 8
0
 0
LINE
8
COUCHE_1
 6
CONTINUOUS
62
1
10
26600
20
-13000
11
26600
21
-13000
0
TEXT
8
COUCHE_1
 10
26800
 20
-12000
 11
26800
 21
-12000
 40
200
 1
06
50
0
 72
0
 73
3
62
0
 0
LINE
8
COUCHE_1
 6
CONTINUOUS
62
0
10
33400
20
-18000
11
33400
21
-17800
 0
LINE
8
COUCHE_1
 6
CONTINUOUS
62
0
10
33400
20
-18600
11
33400
21
-18400
 0
LINE
8
COUCHE_1
 6
CONTINUOUS
62
0
10
33100
20
-17900
11
33700
21
-18500
 0
CIRCLE
8
COUCHE_1
62
0
 6
CONTINUOUS
10
33400
20
-18200
40
200
0
POLYLINE
5
2B
 8
0
62
1
 6
CONTINUOUS
 66
 1
 10
0
 20
0
 30
0
 70
1
 0
VERTEX
 5
33
  8
0
 10
33300
 20
-17700
 0
VERTEX
 5
33
  8
0
 10
33500
 20
-17700
 0
VERTEX
 5
33
  8
0
 10
33500
 20
-17900
 0
VERTEX
 5
33
  8
0
 10
33300
 20
-17900
 0
SEQEND
 5
37
 8
0
 0
LINE
8
COUCHE_1
 6
CONTINUOUS
62
1
10
33400
20
-17800
11
33400
21
-17800
0
POLYLINE
5
2B
 8
0
62
1
 6
CONTINUOUS
 66
 1
 10
0
 20
0
 30
0
 70
1
 0
VERTEX
 5
33
  8
0
 10
33300
 20
-18500
 0
VERTEX
 5
33
  8
0
 10
33500
 20
-18500
 0
VERTEX
 5
33
  8
0
 10
33500
 20
-18700
 0
VERTEX
 5
33
  8
0
 10
33300
 20
-18700
 0
SEQEND
 5
37
 8
0
 0
LINE
8
COUCHE_1
 6
CONTINUOUS
62
1
10
33400
20
-18600
11
33400
21
-18600
0
TEXT
8
COUCHE_1
 10
33600
 20
-17600
 11
33600
 21
-17600
 40
200
 1
11
50
0
 72
0
 73
3
62
0
 0
LINE
8
COUCHE_1
 6
CONTINUOUS
62
0
10
32400
20
-18000
11
32400
21
-17800
 0
LINE
8
COUCHE_1
 6
CONTINUOUS
62
0
10
32400
20
-18600
11
32400
21
-18400
 0
LINE
8
COUCHE_1
 6
CONTINUOUS
62
0
10
32100
20
-17900
11
32700
21
-18500
 0
CIRCLE
8
COUCHE_1
62
0
 6
CONTINUOUS
10
32400
20
-18200
40
200
0
POLYLINE
5
2B
 8
0
62
1
 6
CONTINUOUS
 66
 1
 10
0
 20
0
 30
0
 70
1
 0
VERTEX
 5
33
  8
0
 10
32300
 20
-17700
 0
VERTEX
 5
33
  8
0
 10
32500
 20
-17700
 0
VERTEX
 5
33
  8
0
 10
32500
 20
-17900
 0
VERTEX
 5
33
  8
0
 10
32300
 20
-17900
 0
SEQEND
 5
37
 8
0
 0
LINE
8
COUCHE_1
 6
CONTINUOUS
62
1
10
32400
20
-17800
11
32400
21
-17800
0
POLYLINE
5
2B
 8
0
62
1
 6
CONTINUOUS
 66
 1
 10
0
 20
0
 30
0
 70
1
 0
VERTEX
 5
33
  8
0
 10
32300
 20
-18500
 0
VERTEX
 5
33
  8
0
 10
32500
 20
-18500
 0
VERTEX
 5
33
  8
0
 10
32500
 20
-18700
 0
VERTEX
 5
33
  8
0
 10
32300
 20
-18700
 0
SEQEND
 5
37
 8
0
 0
LINE
8
COUCHE_1
 6
CONTINUOUS
62
1
10
32400
20
-18600
11
32400
21
-18600
0
TEXT
8
COUCHE_1
 10
32600
 20
-17600
 11
32600
 21
-17600
 40
200
 1
12
50
0
 72
0
 73
3
62
0
 0
LINE
8
COUCHE_1
 6
CONTINUOUS
62
0
10
31400
20
-18000
11
31400
21
-17800
 0
LINE
8
COUCHE_1
 6
CONTINUOUS
62
0
10
31400
20
-18600
11
31400
21
-18400
 0
LINE
8
COUCHE_1
 6
CONTINUOUS
62
0
10
31100
20
-17900
11
31700
21
-18500
 0
CIRCLE
8
COUCHE_1
62
0
 6
CONTINUOUS
10
31400
20
-18200
40
200
0
POLYLINE
5
2B
 8
0
62
1
 6
CONTINUOUS
 66
 1
 10
0
 20
0
 30
0
 70
1
 0
VERTEX
 5
33
  8
0
 10
31300
 20
-17700
 0
VERTEX
 5
33
  8
0
 10
31500
 20
-17700
 0
VERTEX
 5
33
  8
0
 10
31500
 20
-17900
 0
VERTEX
 5
33
  8
0
 10
31300
 20
-17900
 0
SEQEND
 5
37
 8
0
 0
LINE
8
COUCHE_1
 6
CONTINUOUS
62
1
10
31400
20
-17800
11
31400
21
-17800
0
POLYLINE
5
2B
 8
0
62
1
 6
CONTINUOUS
 66
 1
 10
0
 20
0
 30
0
 70
1
 0
VERTEX
 5
33
  8
0
 10
31300
 20
-18500
 0
VERTEX
 5
33
  8
0
 10
31500
 20
-18500
 0
VERTEX
 5
33
  8
0
 10
31500
 20
-18700
 0
VERTEX
 5
33
  8
0
 10
31300
 20
-18700
 0
SEQEND
 5
37
 8
0
 0
LINE
8
COUCHE_1
 6
CONTINUOUS
62
1
10
31400
20
-18600
11
31400
21
-18600
0
TEXT
8
COUCHE_1
 10
31600
 20
-17600
 11
31600
 21
-17600
 40
200
 1
13
50
0
 72
0
 73
3
62
0
 0
LINE
8
COUCHE_1
 6
CONTINUOUS
62
0
10
30200
20
-18000
11
30200
21
-17800
 0
LINE
8
COUCHE_1
 6
CONTINUOUS
62
0
10
30200
20
-18600
11
30200
21
-18400
 0
LINE
8
COUCHE_1
 6
CONTINUOUS
62
0
10
29900
20
-17900
11
30500
21
-18500
 0
CIRCLE
8
COUCHE_1
62
0
 6
CONTINUOUS
10
30200
20
-18200
40
200
0
POLYLINE
5
2B
 8
0
62
1
 6
CONTINUOUS
 66
 1
 10
0
 20
0
 30
0
 70
1
 0
VERTEX
 5
33
  8
0
 10
30100
 20
-17700
 0
VERTEX
 5
33
  8
0
 10
30300
 20
-17700
 0
VERTEX
 5
33
  8
0
 10
30300
 20
-17900
 0
VERTEX
 5
33
  8
0
 10
30100
 20
-17900
 0
SEQEND
 5
37
 8
0
 0
LINE
8
COUCHE_1
 6
CONTINUOUS
62
1
10
30200
20
-17800
11
30200
21
-17800
0
POLYLINE
5
2B
 8
0
62
1
 6
CONTINUOUS
 66
 1
 10
0
 20
0
 30
0
 70
1
 0
VERTEX
 5
33
  8
0
 10
30100
 20
-18500
 0
VERTEX
 5
33
  8
0
 10
30300
 20
-18500
 0
VERTEX
 5
33
  8
0
 10
30300
 20
-18700
 0
VERTEX
 5
33
  8
0
 10
30100
 20
-18700
 0
SEQEND
 5
37
 8
0
 0
LINE
8
COUCHE_1
 6
CONTINUOUS
62
1
10
30200
20
-18600
11
30200
21
-18600
0
TEXT
8
COUCHE_1
 10
30400
 20
-17600
 11
30400
 21
-17600
 40
200
 1
14
50
0
 72
0
 73
3
62
0
 0
LINE
8
COUCHE_1
 6
CONTINUOUS
62
0
10
29000
20
-18000
11
29000
21
-17800
 0
LINE
8
COUCHE_1
 6
CONTINUOUS
62
0
10
29000
20
-18600
11
29000
21
-18400
 0
LINE
8
COUCHE_1
 6
CONTINUOUS
62
0
10
28700
20
-17900
11
29300
21
-18500
 0
CIRCLE
8
COUCHE_1
62
0
 6
CONTINUOUS
10
29000
20
-18200
40
200
0
POLYLINE
5
2B
 8
0
62
1
 6
CONTINUOUS
 66
 1
 10
0
 20
0
 30
0
 70
1
 0
VERTEX
 5
33
  8
0
 10
28900
 20
-17700
 0
VERTEX
 5
33
  8
0
 10
29100
 20
-17700
 0
VERTEX
 5
33
  8
0
 10
29100
 20
-17900
 0
VERTEX
 5
33
  8
0
 10
28900
 20
-17900
 0
SEQEND
 5
37
 8
0
 0
LINE
8
COUCHE_1
 6
CONTINUOUS
62
1
10
29000
20
-17800
11
29000
21
-17800
0
POLYLINE
5
2B
 8
0
62
1
 6
CONTINUOUS
 66
 1
 10
0
 20
0
 30
0
 70
1
 0
VERTEX
 5
33
  8
0
 10
28900
 20
-18500
 0
VERTEX
 5
33
  8
0
 10
29100
 20
-18500
 0
VERTEX
 5
33
  8
0
 10
29100
 20
-18700
 0
VERTEX
 5
33
  8
0
 10
28900
 20
-18700
 0
SEQEND
 5
37
 8
0
 0
LINE
8
COUCHE_1
 6
CONTINUOUS
62
1
10
29000
20
-18600
11
29000
21
-18600
0
TEXT
8
COUCHE_1
 10
29200
 20
-17600
 11
29200
 21
-17600
 40
200
 1
15
50
0
 72
0
 73
3
62
0
 0
LINE
8
COUCHE_1
 6
CONTINUOUS
62
0
10
27800
20
-18000
11
27800
21
-17800
 0
LINE
8
COUCHE_1
 6
CONTINUOUS
62
0
10
27800
20
-18600
11
27800
21
-18400
 0
LINE
8
COUCHE_1
 6
CONTINUOUS
62
0
10
27500
20
-17900
11
28100
21
-18500
 0
CIRCLE
8
COUCHE_1
62
0
 6
CONTINUOUS
10
27800
20
-18200
40
200
0
POLYLINE
5
2B
 8
0
62
1
 6
CONTINUOUS
 66
 1
 10
0
 20
0
 30
0
 70
1
 0
VERTEX
 5
33
  8
0
 10
27700
 20
-17700
 0
VERTEX
 5
33
  8
0
 10
27900
 20
-17700
 0
VERTEX
 5
33
  8
0
 10
27900
 20
-17900
 0
VERTEX
 5
33
  8
0
 10
27700
 20
-17900
 0
SEQEND
 5
37
 8
0
 0
LINE
8
COUCHE_1
 6
CONTINUOUS
62
1
10
27800
20
-17800
11
27800
21
-17800
0
POLYLINE
5
2B
 8
0
62
1
 6
CONTINUOUS
 66
 1
 10
0
 20
0
 30
0
 70
1
 0
VERTEX
 5
33
  8
0
 10
27700
 20
-18500
 0
VERTEX
 5
33
  8
0
 10
27900
 20
-18500
 0
VERTEX
 5
33
  8
0
 10
27900
 20
-18700
 0
VERTEX
 5
33
  8
0
 10
27700
 20
-18700
 0
SEQEND
 5
37
 8
0
 0
LINE
8
COUCHE_1
 6
CONTINUOUS
62
1
10
27800
20
-18600
11
27800
21
-18600
0
TEXT
8
COUCHE_1
 10
28000
 20
-17600
 11
28000
 21
-17600
 40
200
 1
16
50
0
 72
0
 73
3
62
0
 0
LINE
8
COUCHE_1
 6
CONTINUOUS
62
0
10
26600
20
-18000
11
26600
21
-17800
 0
LINE
8
COUCHE_1
 6
CONTINUOUS
62
0
10
26600
20
-18600
11
26600
21
-18400
 0
LINE
8
COUCHE_1
 6
CONTINUOUS
62
0
10
26300
20
-17900
11
26900
21
-18500
 0
CIRCLE
8
COUCHE_1
62
0
 6
CONTINUOUS
10
26600
20
-18200
40
200
0
POLYLINE
5
2B
 8
0
62
1
 6
CONTINUOUS
 66
 1
 10
0
 20
0
 30
0
 70
1
 0
VERTEX
 5
33
  8
0
 10
26500
 20
-17700
 0
VERTEX
 5
33
  8
0
 10
26700
 20
-17700
 0
VERTEX
 5
33
  8
0
 10
26700
 20
-17900
 0
VERTEX
 5
33
  8
0
 10
26500
 20
-17900
 0
SEQEND
 5
37
 8
0
 0
LINE
8
COUCHE_1
 6
CONTINUOUS
62
1
10
26600
20
-17800
11
26600
21
-17800
0
POLYLINE
5
2B
 8
0
62
1
 6
CONTINUOUS
 66
 1
 10
0
 20
0
 30
0
 70
1
 0
VERTEX
 5
33
  8
0
 10
26500
 20
-18500
 0
VERTEX
 5
33
  8
0
 10
26700
 20
-18500
 0
VERTEX
 5
33
  8
0
 10
26700
 20
-18700
 0
VERTEX
 5
33
  8
0
 10
26500
 20
-18700
 0
SEQEND
 5
37
 8
0
 0
LINE
8
COUCHE_1
 6
CONTINUOUS
62
1
10
26600
20
-18600
11
26600
21
-18600
0
TEXT
8
COUCHE_1
 10
26800
 20
-17600
 11
26800
 21
-17600
 40
200
 1
17
50
0
 72
0
 73
3
62
0
 0
LINE
8
COUCHE_1
 6
CONTINUOUS
62
0
10
25400
20
-18000
11
25400
21
-17800
 0
LINE
8
COUCHE_1
 6
CONTINUOUS
62
0
10
25400
20
-18600
11
25400
21
-18400
 0
LINE
8
COUCHE_1
 6
CONTINUOUS
62
0
10
25100
20
-17900
11
25700
21
-18500
 0
CIRCLE
8
COUCHE_1
62
0
 6
CONTINUOUS
10
25400
20
-18200
40
200
0
POLYLINE
5
2B
 8
0
62
1
 6
CONTINUOUS
 66
 1
 10
0
 20
0
 30
0
 70
1
 0
VERTEX
 5
33
  8
0
 10
25300
 20
-17700
 0
VERTEX
 5
33
  8
0
 10
25500
 20
-17700
 0
VERTEX
 5
33
  8
0
 10
25500
 20
-17900
 0
VERTEX
 5
33
  8
0
 10
25300
 20
-17900
 0
SEQEND
 5
37
 8
0
 0
LINE
8
COUCHE_1
 6
CONTINUOUS
62
1
10
25400
20
-17800
11
25400
21
-17800
0
POLYLINE
5
2B
 8
0
62
1
 6
CONTINUOUS
 66
 1
 10
0
 20
0
 30
0
 70
1
 0
VERTEX
 5
33
  8
0
 10
25300
 20
-18500
 0
VERTEX
 5
33
  8
0
 10
25500
 20
-18500
 0
VERTEX
 5
33
  8
0
 10
25500
 20
-18700
 0
VERTEX
 5
33
  8
0
 10
25300
 20
-18700
 0
SEQEND
 5
37
 8
0
 0
LINE
8
COUCHE_1
 6
CONTINUOUS
62
1
10
25400
20
-18600
11
25400
21
-18600
0
TEXT
8
COUCHE_1
 10
25600
 20
-17600
 11
25600
 21
-17600
 40
200
 1
18
50
0
 72
0
 73
3
62
0
 0
LINE
8
COUCHE_1
 6
CONTINUOUS
62
0
10
24200
20
-18000
11
24200
21
-17800
 0
LINE
8
COUCHE_1
 6
CONTINUOUS
62
0
10
24200
20
-18600
11
24200
21
-18400
 0
LINE
8
COUCHE_1
 6
CONTINUOUS
62
0
10
23900
20
-17900
11
24500
21
-18500
 0
CIRCLE
8
COUCHE_1
62
0
 6
CONTINUOUS
10
24200
20
-18200
40
200
0
POLYLINE
5
2B
 8
0
62
1
 6
CONTINUOUS
 66
 1
 10
0
 20
0
 30
0
 70
1
 0
VERTEX
 5
33
  8
0
 10
24100
 20
-17700
 0
VERTEX
 5
33
  8
0
 10
24300
 20
-17700
 0
VERTEX
 5
33
  8
0
 10
24300
 20
-17900
 0
VERTEX
 5
33
  8
0
 10
24100
 20
-17900
 0
SEQEND
 5
37
 8
0
 0
LINE
8
COUCHE_1
 6
CONTINUOUS
62
1
10
24200
20
-17800
11
24200
21
-17800
0
POLYLINE
5
2B
 8
0
62
1
 6
CONTINUOUS
 66
 1
 10
0
 20
0
 30
0
 70
1
 0
VERTEX
 5
33
  8
0
 10
24100
 20
-18500
 0
VERTEX
 5
33
  8
0
 10
24300
 20
-18500
 0
VERTEX
 5
33
  8
0
 10
24300
 20
-18700
 0
VERTEX
 5
33
  8
0
 10
24100
 20
-18700
 0
SEQEND
 5
37
 8
0
 0
LINE
8
COUCHE_1
 6
CONTINUOUS
62
1
10
24200
20
-18600
11
24200
21
-18600
0
TEXT
8
COUCHE_1
 10
24400
 20
-17600
 11
24400
 21
-17600
 40
200
 1
19
50
0
 72
0
 73
3
62
0
 0
LINE
8
COUCHE_1
 6
CONTINUOUS
62
0
10
25400
20
-12400
11
25400
21
-12200
 0
LINE
8
COUCHE_1
 6
CONTINUOUS
62
0
10
25400
20
-13000
11
25400
21
-12800
 0
LINE
8
COUCHE_1
 6
CONTINUOUS
62
0
10
25100
20
-12300
11
25700
21
-12900
 0
CIRCLE
8
COUCHE_1
62
0
 6
CONTINUOUS
10
25400
20
-12600
40
200
0
POLYLINE
5
2B
 8
0
62
1
 6
CONTINUOUS
 66
 1
 10
0
 20
0
 30
0
 70
1
 0
VERTEX
 5
33
  8
0
 10
25300
 20
-12100
 0
VERTEX
 5
33
  8
0
 10
25500
 20
-12100
 0
VERTEX
 5
33
  8
0
 10
25500
 20
-12300
 0
VERTEX
 5
33
  8
0
 10
25300
 20
-12300
 0
SEQEND
 5
37
 8
0
 0
LINE
8
COUCHE_1
 6
CONTINUOUS
62
1
10
25400
20
-12200
11
25400
21
-12200
0
POLYLINE
5
2B
 8
0
62
1
 6
CONTINUOUS
 66
 1
 10
0
 20
0
 30
0
 70
1
 0
VERTEX
 5
33
  8
0
 10
25300
 20
-12900
 0
VERTEX
 5
33
  8
0
 10
25500
 20
-12900
 0
VERTEX
 5
33
  8
0
 10
25500
 20
-13100
 0
VERTEX
 5
33
  8
0
 10
25300
 20
-13100
 0
SEQEND
 5
37
 8
0
 0
LINE
8
COUCHE_1
 6
CONTINUOUS
62
1
10
25400
20
-13000
11
25400
21
-13000
0
TEXT
8
COUCHE_1
 10
25600
 20
-12000
 11
25600
 21
-12000
 40
200
 1
07
50
0
 72
0
 73
3
62
0
 0
LINE
8
COUCHE_1
 6
CONTINUOUS
62
0
10
23000
20
-18000
11
23000
21
-17800
 0
LINE
8
COUCHE_1
 6
CONTINUOUS
62
0
10
23000
20
-18600
11
23000
21
-18400
 0
LINE
8
COUCHE_1
 6
CONTINUOUS
62
0
10
22700
20
-17900
11
23300
21
-18500
 0
CIRCLE
8
COUCHE_1
62
0
 6
CONTINUOUS
10
23000
20
-18200
40
200
0
POLYLINE
5
2B
 8
0
62
1
 6
CONTINUOUS
 66
 1
 10
0
 20
0
 30
0
 70
1
 0
VERTEX
 5
33
  8
0
 10
22900
 20
-17700
 0
VERTEX
 5
33
  8
0
 10
23100
 20
-17700
 0
VERTEX
 5
33
  8
0
 10
23100
 20
-17900
 0
VERTEX
 5
33
  8
0
 10
22900
 20
-17900
 0
SEQEND
 5
37
 8
0
 0
LINE
8
COUCHE_1
 6
CONTINUOUS
62
1
10
23000
20
-17800
11
23000
21
-17800
0
POLYLINE
5
2B
 8
0
62
1
 6
CONTINUOUS
 66
 1
 10
0
 20
0
 30
0
 70
1
 0
VERTEX
 5
33
  8
0
 10
22900
 20
-18500
 0
VERTEX
 5
33
  8
0
 10
23100
 20
-18500
 0
VERTEX
 5
33
  8
0
 10
23100
 20
-18700
 0
VERTEX
 5
33
  8
0
 10
22900
 20
-18700
 0
SEQEND
 5
37
 8
0
 0
LINE
8
COUCHE_1
 6
CONTINUOUS
62
1
10
23000
20
-18600
11
23000
21
-18600
0
TEXT
8
COUCHE_1
 10
23200
 20
-17600
 11
23200
 21
-17600
 40
200
 1
20
50
0
 72
0
 73
3
62
0
 0
LINE
8
COUCHE_1
 6
CONTINUOUS
62
0
10
21800
20
-18000
11
21800
21
-17800
 0
LINE
8
COUCHE_1
 6
CONTINUOUS
62
0
10
21800
20
-18600
11
21800
21
-18400
 0
LINE
8
COUCHE_1
 6
CONTINUOUS
62
0
10
21500
20
-17900
11
22100
21
-18500
 0
CIRCLE
8
COUCHE_1
62
0
 6
CONTINUOUS
10
21800
20
-18200
40
200
0
POLYLINE
5
2B
 8
0
62
1
 6
CONTINUOUS
 66
 1
 10
0
 20
0
 30
0
 70
1
 0
VERTEX
 5
33
  8
0
 10
21700
 20
-17700
 0
VERTEX
 5
33
  8
0
 10
21900
 20
-17700
 0
VERTEX
 5
33
  8
0
 10
21900
 20
-17900
 0
VERTEX
 5
33
  8
0
 10
21700
 20
-17900
 0
SEQEND
 5
37
 8
0
 0
LINE
8
COUCHE_1
 6
CONTINUOUS
62
1
10
21800
20
-17800
11
21800
21
-17800
0
POLYLINE
5
2B
 8
0
62
1
 6
CONTINUOUS
 66
 1
 10
0
 20
0
 30
0
 70
1
 0
VERTEX
 5
33
  8
0
 10
21700
 20
-18500
 0
VERTEX
 5
33
  8
0
 10
21900
 20
-18500
 0
VERTEX
 5
33
  8
0
 10
21900
 20
-18700
 0
VERTEX
 5
33
  8
0
 10
21700
 20
-18700
 0
SEQEND
 5
37
 8
0
 0
LINE
8
COUCHE_1
 6
CONTINUOUS
62
1
10
21800
20
-18600
11
21800
21
-18600
0
TEXT
8
COUCHE_1
 10
22000
 20
-17600
 11
22000
 21
-17600
 40
200
 1
21
50
0
 72
0
 73
3
62
0
 0
LINE
8
COUCHE_1
 6
CONTINUOUS
62
0
10
20600
20
-18000
11
20600
21
-17800
 0
LINE
8
COUCHE_1
 6
CONTINUOUS
62
0
10
20600
20
-18600
11
20600
21
-18400
 0
LINE
8
COUCHE_1
 6
CONTINUOUS
62
0
10
20300
20
-17900
11
20900
21
-18500
 0
CIRCLE
8
COUCHE_1
62
0
 6
CONTINUOUS
10
20600
20
-18200
40
200
0
POLYLINE
5
2B
 8
0
62
1
 6
CONTINUOUS
 66
 1
 10
0
 20
0
 30
0
 70
1
 0
VERTEX
 5
33
  8
0
 10
20500
 20
-17700
 0
VERTEX
 5
33
  8
0
 10
20700
 20
-17700
 0
VERTEX
 5
33
  8
0
 10
20700
 20
-17900
 0
VERTEX
 5
33
  8
0
 10
20500
 20
-17900
 0
SEQEND
 5
37
 8
0
 0
LINE
8
COUCHE_1
 6
CONTINUOUS
62
1
10
20600
20
-17800
11
20600
21
-17800
0
POLYLINE
5
2B
 8
0
62
1
 6
CONTINUOUS
 66
 1
 10
0
 20
0
 30
0
 70
1
 0
VERTEX
 5
33
  8
0
 10
20500
 20
-18500
 0
VERTEX
 5
33
  8
0
 10
20700
 20
-18500
 0
VERTEX
 5
33
  8
0
 10
20700
 20
-18700
 0
VERTEX
 5
33
  8
0
 10
20500
 20
-18700
 0
SEQEND
 5
37
 8
0
 0
LINE
8
COUCHE_1
 6
CONTINUOUS
62
1
10
20600
20
-18600
11
20600
21
-18600
0
TEXT
8
COUCHE_1
 10
20800
 20
-17600
 11
20800
 21
-17600
 40
200
 1
22
50
0
 72
0
 73
3
62
0
 0
LINE
8
COUCHE_1
 6
CONTINUOUS
62
0
10
24400
20
-12400
11
24400
21
-12200
 0
LINE
8
COUCHE_1
 6
CONTINUOUS
62
0
10
24400
20
-13000
11
24400
21
-12800
 0
LINE
8
COUCHE_1
 6
CONTINUOUS
62
0
10
24100
20
-12300
11
24700
21
-12900
 0
CIRCLE
8
COUCHE_1
62
0
 6
CONTINUOUS
10
24400
20
-12600
40
200
0
POLYLINE
5
2B
 8
0
62
1
 6
CONTINUOUS
 66
 1
 10
0
 20
0
 30
0
 70
1
 0
VERTEX
 5
33
  8
0
 10
24300
 20
-12100
 0
VERTEX
 5
33
  8
0
 10
24500
 20
-12100
 0
VERTEX
 5
33
  8
0
 10
24500
 20
-12300
 0
VERTEX
 5
33
  8
0
 10
24300
 20
-12300
 0
SEQEND
 5
37
 8
0
 0
LINE
8
COUCHE_1
 6
CONTINUOUS
62
1
10
24400
20
-12200
11
24400
21
-12200
0
POLYLINE
5
2B
 8
0
62
1
 6
CONTINUOUS
 66
 1
 10
0
 20
0
 30
0
 70
1
 0
VERTEX
 5
33
  8
0
 10
24300
 20
-12900
 0
VERTEX
 5
33
  8
0
 10
24500
 20
-12900
 0
VERTEX
 5
33
  8
0
 10
24500
 20
-13100
 0
VERTEX
 5
33
  8
0
 10
24300
 20
-13100
 0
SEQEND
 5
37
 8
0
 0
LINE
8
COUCHE_1
 6
CONTINUOUS
62
1
10
24400
20
-13000
11
24400
21
-13000
0
TEXT
8
COUCHE_1
 10
24600
 20
-12000
 11
24600
 21
-12000
 40
200
 1
08
50
0
 72
0
 73
3
62
0
 0
LINE
8
COUCHE_1
 6
CONTINUOUS
62
0
10
19400
20
-18000
11
19400
21
-17800
 0
LINE
8
COUCHE_1
 6
CONTINUOUS
62
0
10
19400
20
-18600
11
19400
21
-18400
 0
LINE
8
COUCHE_1
 6
CONTINUOUS
62
0
10
19100
20
-17900
11
19700
21
-18500
 0
CIRCLE
8
COUCHE_1
62
0
 6
CONTINUOUS
10
19400
20
-18200
40
200
0
POLYLINE
5
2B
 8
0
62
1
 6
CONTINUOUS
 66
 1
 10
0
 20
0
 30
0
 70
1
 0
VERTEX
 5
33
  8
0
 10
19300
 20
-17700
 0
VERTEX
 5
33
  8
0
 10
19500
 20
-17700
 0
VERTEX
 5
33
  8
0
 10
19500
 20
-17900
 0
VERTEX
 5
33
  8
0
 10
19300
 20
-17900
 0
SEQEND
 5
37
 8
0
 0
LINE
8
COUCHE_1
 6
CONTINUOUS
62
1
10
19400
20
-17800
11
19400
21
-17800
0
POLYLINE
5
2B
 8
0
62
1
 6
CONTINUOUS
 66
 1
 10
0
 20
0
 30
0
 70
1
 0
VERTEX
 5
33
  8
0
 10
19300
 20
-18500
 0
VERTEX
 5
33
  8
0
 10
19500
 20
-18500
 0
VERTEX
 5
33
  8
0
 10
19500
 20
-18700
 0
VERTEX
 5
33
  8
0
 10
19300
 20
-18700
 0
SEQEND
 5
37
 8
0
 0
LINE
8
COUCHE_1
 6
CONTINUOUS
62
1
10
19400
20
-18600
11
19400
21
-18600
0
TEXT
8
COUCHE_1
 10
19600
 20
-17600
 11
19600
 21
-17600
 40
200
 1
23
50
0
 72
0
 73
3
62
0
 0
LINE
8
COUCHE_1
 6
CONTINUOUS
62
0
10
23200
20
-12400
11
23200
21
-12200
 0
LINE
8
COUCHE_1
 6
CONTINUOUS
62
0
10
23200
20
-13000
11
23200
21
-12800
 0
LINE
8
COUCHE_1
 6
CONTINUOUS
62
0
10
22900
20
-12300
11
23500
21
-12900
 0
CIRCLE
8
COUCHE_1
62
0
 6
CONTINUOUS
10
23200
20
-12600
40
200
0
POLYLINE
5
2B
 8
0
62
1
 6
CONTINUOUS
 66
 1
 10
0
 20
0
 30
0
 70
1
 0
VERTEX
 5
33
  8
0
 10
23100
 20
-12100
 0
VERTEX
 5
33
  8
0
 10
23300
 20
-12100
 0
VERTEX
 5
33
  8
0
 10
23300
 20
-12300
 0
VERTEX
 5
33
  8
0
 10
23100
 20
-12300
 0
SEQEND
 5
37
 8
0
 0
LINE
8
COUCHE_1
 6
CONTINUOUS
62
1
10
23200
20
-12200
11
23200
21
-12200
0
POLYLINE
5
2B
 8
0
62
1
 6
CONTINUOUS
 66
 1
 10
0
 20
0
 30
0
 70
1
 0
VERTEX
 5
33
  8
0
 10
23100
 20
-12900
 0
VERTEX
 5
33
  8
0
 10
23300
 20
-12900
 0
VERTEX
 5
33
  8
0
 10
23300
 20
-13100
 0
VERTEX
 5
33
  8
0
 10
23100
 20
-13100
 0
SEQEND
 5
37
 8
0
 0
LINE
8
COUCHE_1
 6
CONTINUOUS
62
1
10
23200
20
-13000
11
23200
21
-13000
0
TEXT
8
COUCHE_1
 10
23400
 20
-12000
 11
23400
 21
-12000
 40
200
 1
09
50
0
 72
0
 73
3
62
0
 0
LINE
8
COUCHE_1
 6
CONTINUOUS
62
0
10
8200
20
-8200
11
14600
21
-8200
 0
LINE
8
COUCHE_1
 6
CONTINUOUS
62
0
10
11200
20
-8400
11
11600
21
-8000
 0
LINE
8
COUCHE_1
 6
CONTINUOUS
62
0
10
12400
20
-8400
11
12800
21
-8000
 0
LINE
8
COUCHE_1
 6
CONTINUOUS
62
0
10
13400
20
-8400
11
13800
21
-8000
 0
LINE
8
COUCHE_1
 6
CONTINUOUS
62
0
10
12600
20
-20800
11
12600
21
-6800
 0
LINE
8
COUCHE_1
 6
CONTINUOUS
62
0
10
13600
20
-20800
11
13600
21
-6800
 0
LINE
8
COUCHE_1
 6
CONTINUOUS
62
0
10
32000
20
-14600
11
32000
21
-15000
 0
LINE
8
COUCHE_1
 6
CONTINUOUS
62
0
10
11400
20
-20800
11
11400
21
-6800
 0
LINE
8
COUCHE_1
 6
CONTINUOUS
62
0
10
29200
20
-12200
11
32000
21
-12200
 0
LINE
8
COUCHE_1
 6
CONTINUOUS
62
0
10
32000
20
-14600
11
32000
21
-12200
 0
LINE
8
COUCHE_1
 6
CONTINUOUS
62
0
10
29000
20
-20400
11
29000
21
-17800
 0
LINE
8
COUCHE_1
 6
CONTINUOUS
62
0
10
29000
20
-17800
11
31400
21
-17800
 0
LINE
8
COUCHE_1
 6
CONTINUOUS
62
0
10
31400
20
-20400
11
31400
21
-17800
 0
LINE
8
COUCHE_1
 6
CONTINUOUS
62
0
10
31400
20
-17800
11
32400
21
-17800
 0
LINE
8
COUCHE_1
 6
CONTINUOUS
62
0
10
32400
20
-20400
11
32400
21
-17800
 0
LINE
8
COUCHE_1
 6
CONTINUOUS
62
0
10
33400
20
-20400
11
33400
21
-17800
 0
LINE
8
COUCHE_1
 6
CONTINUOUS
62
0
10
33400
20
-14600
11
33400
21
-12200
 0
LINE
8
COUCHE_1
 6
CONTINUOUS
62
0
10
30400
20
-12200
11
30400
21
-14600
 0
LINE
8
COUCHE_1
 6
CONTINUOUS
62
0
10
30200
20
-20400
11
30200
21
-17800
 0
LINE
8
COUCHE_1
 6
CONTINUOUS
62
0
10
29000
20
-14600
11
29000
21
-12200
 0
LINE
8
COUCHE_1
 6
CONTINUOUS
62
0
10
27800
20
-20400
11
27800
21
-17800
 0
LINE
8
COUCHE_1
 6
CONTINUOUS
62
0
10
27800
20
-14600
11
27800
21
-12200
 0
LINE
8
COUCHE_1
 6
CONTINUOUS
62
0
10
26600
20
-20400
11
26600
21
-17800
 0
LINE
8
COUCHE_1
 6
CONTINUOUS
62
0
10
25400
20
-20400
11
25400
21
-17800
 0
LINE
8
COUCHE_1
 6
CONTINUOUS
62
0
10
26600
20
-14600
11
26600
21
-12200
 0
LINE
8
COUCHE_1
 6
CONTINUOUS
62
0
10
24200
20
-20400
11
24200
21
-17800
 0
LINE
8
COUCHE_1
 6
CONTINUOUS
62
0
10
11400
20
-12200
11
20600
21
-12200
 0
LINE
8
COUCHE_1
 6
CONTINUOUS
62
0
10
12600
20
-17800
11
23200
21
-17800
 0
LINE
8
COUCHE_1
 6
CONTINUOUS
62
0
10
29200
20
-12200
11
24400
21
-12200
 0
LINE
8
COUCHE_1
 6
CONTINUOUS
62
0
10
29000
20
-17800
11
22600
21
-17800
 0
LINE
8
COUCHE_1
 6
CONTINUOUS
62
0
10
20600
20
-12200
11
20800
21
-12200
 0
LINE
8
COUCHE_1
 6
CONTINUOUS
62
0
10
22200
20
-17800
11
23200
21
-17800
 0
LINE
8
COUCHE_1
 6
CONTINUOUS
62
0
10
22200
20
-17800
11
22600
21
-17800
 0
LINE
8
COUCHE_1
 6
CONTINUOUS
62
0
10
20800
20
-12200
11
24400
21
-12200
 0
LINE
8
COUCHE_1
 6
CONTINUOUS
62
0
10
23000
20
-20400
11
23000
21
-17800
 0
LINE
8
COUCHE_1
 6
CONTINUOUS
62
0
10
21800
20
-20400
11
21800
21
-17800
 0
LINE
8
COUCHE_1
 6
CONTINUOUS
62
0
10
25400
20
-14600
11
25400
21
-12200
 0
LINE
8
COUCHE_1
 6
CONTINUOUS
62
0
10
20600
20
-20400
11
20600
21
-17800
 0
LINE
8
COUCHE_1
 6
CONTINUOUS
62
0
10
24400
20
-14600
11
24400
21
-12200
 0
LINE
8
COUCHE_1
 6
CONTINUOUS
62
0
10
19400
20
-20400
11
19400
21
-17800
 0
LINE
8
COUCHE_1
 6
CONTINUOUS
62
0
10
33400
20
-12200
11
32000
21
-12200
 0
LINE
8
COUCHE_1
 6
CONTINUOUS
62
0
10
33400
20
-17800
11
32400
21
-17800
 0
LINE
8
COUCHE_1
 6
CONTINUOUS
62
0
10
23200
20
-14600
11
23200
21
-13000
 0
CIRCLE
8
COUCHE_1
62
5
 6
CONTINUOUS
10
32000
20
-12200
40
40
 0
CIRCLE
8
COUCHE_1
62
5
 6
CONTINUOUS
10
31400
20
-17800
40
40
 0
CIRCLE
8
COUCHE_1
62
5
 6
CONTINUOUS
10
32400
20
-17800
40
40
 0
CIRCLE
8
COUCHE_1
62
5
 6
CONTINUOUS
10
30400
20
-12200
40
40
 0
CIRCLE
8
COUCHE_1
62
5
 6
CONTINUOUS
10
30200
20
-17800
40
40
 0
CIRCLE
8
COUCHE_1
62
5
 6
CONTINUOUS
10
11400
20
-12200
40
40
 0
CIRCLE
8
COUCHE_1
62
5
 6
CONTINUOUS
10
12600
20
-17800
40
40
 0
CIRCLE
8
COUCHE_1
62
5
 6
CONTINUOUS
10
29000
20
-12200
40
40
 0
CIRCLE
8
COUCHE_1
62
5
 6
CONTINUOUS
10
27800
20
-12200
40
40
 0
CIRCLE
8
COUCHE_1
62
5
 6
CONTINUOUS
10
26600
20
-12200
40
40
 0
CIRCLE
8
COUCHE_1
62
5
 6
CONTINUOUS
10
27800
20
-17800
40
40
 0
CIRCLE
8
COUCHE_1
62
5
 6
CONTINUOUS
10
26600
20
-17800
40
40
 0
CIRCLE
8
COUCHE_1
62
5
 6
CONTINUOUS
10
25400
20
-17800
40
40
 0
CIRCLE
8
COUCHE_1
62
5
 6
CONTINUOUS
10
24200
20
-17800
40
40
 0
CIRCLE
8
COUCHE_1
62
5
 6
CONTINUOUS
10
23000
20
-17800
40
40
 0
CIRCLE
8
COUCHE_1
62
5
 6
CONTINUOUS
10
21800
20
-17800
40
40
 0
CIRCLE
8
COUCHE_1
62
5
 6
CONTINUOUS
10
25400
20
-12200
40
40
 0
CIRCLE
8
COUCHE_1
62
5
 6
CONTINUOUS
10
20600
20
-17800
40
40
 0
CIRCLE
8
COUCHE_1
62
5
 6
CONTINUOUS
10
24400
20
-12200
40
40
 0
CIRCLE
8
COUCHE_1
62
5
 6
CONTINUOUS
10
19400
20
-17800
40
40
0
POLYLINE
5
2B
 8
0
62
1
 6
CONTINUOUS
 66
 1
 10
0
 20
0
 30
0
 70
1
 0
VERTEX
 5
33
  8
0
 10
11400
 20
-6600
 0
VERTEX
 5
33
  8
0
 10
11200
 20
-6300
 0
VERTEX
 5
33
  8
0
 10
11400
 20
-6400
 0
VERTEX
 5
33
  8
0
 10
11600
 20
-6300
 0
SEQEND
 5
37
 8
0
 0
LINE
8
COUCHE_1
 6
CONTINUOUS
62
1
10
11400
20
-6800
11
11400
21
-6600
0
TEXT
8
COUCHE_1
 10
11400
 20
-6300
 11
11400
 21
-6300
 40
150
 1
A_24_B2
50
0
 72
1
 73
1
62
1
0
POLYLINE
5
2B
 8
0
62
1
 6
CONTINUOUS
 66
 1
 10
0
 20
0
 30
0
 70
1
 0
VERTEX
 5
33
  8
0
 10
12600
 20
-6600
 0
VERTEX
 5
33
  8
0
 10
12400
 20
-6300
 0
VERTEX
 5
33
  8
0
 10
12600
 20
-6400
 0
VERTEX
 5
33
  8
0
 10
12800
 20
-6300
 0
SEQEND
 5
37
 8
0
 0
LINE
8
COUCHE_1
 6
CONTINUOUS
62
1
10
12600
20
-6800
11
12600
21
-6600
0
TEXT
8
COUCHE_1
 10
12600
 20
-6300
 11
12600
 21
-6300
 40
150
 1
A_0_B2
50
0
 72
1
 73
1
62
1
0
POLYLINE
5
2B
 8
0
62
1
 6
CONTINUOUS
 66
 1
 10
0
 20
0
 30
0
 70
1
 0
VERTEX
 5
33
  8
0
 10
29000
 20
-14800
 0
VERTEX
 5
33
  8
0
 10
28800
 20
-14700
 0
VERTEX
 5
33
  8
0
 10
29000
 20
-15000
 0
VERTEX
 5
33
  8
0
 10
29200
 20
-14700
 0
SEQEND
 5
37
 8
0
 0
LINE
8
COUCHE_1
 6
CONTINUOUS
62
1
10
29000
20
-14600
11
29000
21
-14800
0
TEXT
8
COUCHE_1
 10
29000
 20
-15000
 11
29000
 21
-15000
 40
150
 1
CO_O_24
50
0
 72
1
 73
3
62
1
0
POLYLINE
5
2B
 8
0
62
1
 6
CONTINUOUS
 66
 1
 10
0
 20
0
 30
0
 70
1
 0
VERTEX
 5
33
  8
0
 10
29000
 20
-20600
 0
VERTEX
 5
33
  8
0
 10
28800
 20
-20500
 0
VERTEX
 5
33
  8
0
 10
29000
 20
-20800
 0
VERTEX
 5
33
  8
0
 10
29200
 20
-20500
 0
SEQEND
 5
37
 8
0
 0
LINE
8
COUCHE_1
 6
CONTINUOUS
62
1
10
29000
20
-20400
11
29000
21
-20600
0
TEXT
8
COUCHE_1
 10
29000
 20
-20800
 11
29000
 21
-20800
 40
150
 1
CO_O_0
50
0
 72
1
 73
3
62
1
0
POLYLINE
5
2B
 8
0
62
1
 6
CONTINUOUS
 66
 1
 10
0
 20
0
 30
0
 70
1
 0
VERTEX
 5
33
  8
0
 10
32000
 20
-14800
 0
VERTEX
 5
33
  8
0
 10
31800
 20
-14700
 0
VERTEX
 5
33
  8
0
 10
32000
 20
-15000
 0
VERTEX
 5
33
  8
0
 10
32200
 20
-14700
 0
SEQEND
 5
37
 8
0
 0
LINE
8
COUCHE_1
 6
CONTINUOUS
62
1
10
32000
20
-14600
11
32000
21
-14800
0
TEXT
8
COUCHE_1
 10
32000
 20
-15000
 11
32000
 21
-15000
 40
150
 1
H_24
50
0
 72
1
 73
3
62
1
0
POLYLINE
5
2B
 8
0
62
1
 6
CONTINUOUS
 66
 1
 10
0
 20
0
 30
0
 70
1
 0
VERTEX
 5
33
  8
0
 10
31400
 20
-20600
 0
VERTEX
 5
33
  8
0
 10
31200
 20
-20500
 0
VERTEX
 5
33
  8
0
 10
31400
 20
-20800
 0
VERTEX
 5
33
  8
0
 10
31600
 20
-20500
 0
SEQEND
 5
37
 8
0
 0
LINE
8
COUCHE_1
 6
CONTINUOUS
62
1
10
31400
20
-20400
11
31400
21
-20600
0
TEXT
8
COUCHE_1
 10
31400
 20
-20800
 11
31400
 21
-20800
 40
150
 1
H_0
50
0
 72
1
 73
3
62
1
0
POLYLINE
5
2B
 8
0
62
1
 6
CONTINUOUS
 66
 1
 10
0
 20
0
 30
0
 70
1
 0
VERTEX
 5
33
  8
0
 10
13600
 20
-6600
 0
VERTEX
 5
33
  8
0
 10
13400
 20
-6300
 0
VERTEX
 5
33
  8
0
 10
13600
 20
-6400
 0
VERTEX
 5
33
  8
0
 10
13800
 20
-6300
 0
SEQEND
 5
37
 8
0
 0
LINE
8
COUCHE_1
 6
CONTINUOUS
62
1
10
13600
20
-6800
11
13600
21
-6600
0
TEXT
8
COUCHE_1
 10
13600
 20
-6300
 11
13600
 21
-6300
 40
150
 1
A_T_B2
50
0
 72
1
 73
1
62
1
0
POLYLINE
5
2B
 8
0
62
1
 6
CONTINUOUS
 66
 1
 10
0
 20
0
 30
0
 70
1
 0
VERTEX
 5
33
  8
0
 10
32400
 20
-20600
 0
VERTEX
 5
33
  8
0
 10
32200
 20
-20500
 0
VERTEX
 5
33
  8
0
 10
32400
 20
-20800
 0
VERTEX
 5
33
  8
0
 10
32600
 20
-20500
 0
SEQEND
 5
37
 8
0
 0
LINE
8
COUCHE_1
 6
CONTINUOUS
62
1
10
32400
20
-20400
11
32400
21
-20600
0
TEXT
8
COUCHE_1
 10
32400
 20
-20800
 11
32400
 21
-20800
 40
150
 1
CO_I_0
50
0
 72
1
 73
3
62
1
0
POLYLINE
5
2B
 8
0
62
1
 6
CONTINUOUS
 66
 1
 10
0
 20
0
 30
0
 70
1
 0
VERTEX
 5
33
  8
0
 10
33400
 20
-20600
 0
VERTEX
 5
33
  8
0
 10
33200
 20
-20500
 0
VERTEX
 5
33
  8
0
 10
33400
 20
-20800
 0
VERTEX
 5
33
  8
0
 10
33600
 20
-20500
 0
SEQEND
 5
37
 8
0
 0
LINE
8
COUCHE_1
 6
CONTINUOUS
62
1
10
33400
20
-20400
11
33400
21
-20600
0
TEXT
8
COUCHE_1
 10
33400
 20
-20800
 11
33400
 21
-20800
 40
150
 1
CO_II_0
50
0
 72
1
 73
3
62
1
0
POLYLINE
5
2B
 8
0
62
1
 6
CONTINUOUS
 66
 1
 10
0
 20
0
 30
0
 70
1
 0
VERTEX
 5
33
  8
0
 10
33400
 20
-14800
 0
VERTEX
 5
33
  8
0
 10
33200
 20
-14700
 0
VERTEX
 5
33
  8
0
 10
33400
 20
-15000
 0
VERTEX
 5
33
  8
0
 10
33600
 20
-14700
 0
SEQEND
 5
37
 8
0
 0
LINE
8
COUCHE_1
 6
CONTINUOUS
62
1
10
33400
20
-14600
11
33400
21
-14800
0
TEXT
8
COUCHE_1
 10
33400
 20
-15000
 11
33400
 21
-15000
 40
150
 1
C01_I1_24
50
0
 72
1
 73
3
62
1
0
POLYLINE
5
2B
 8
0
62
1
 6
CONTINUOUS
 66
 1
 10
0
 20
0
 30
0
 70
1
 0
VERTEX
 5
33
  8
0
 10
30400
 20
-14800
 0
VERTEX
 5
33
  8
0
 10
30200
 20
-14700
 0
VERTEX
 5
33
  8
0
 10
30400
 20
-15000
 0
VERTEX
 5
33
  8
0
 10
30600
 20
-14700
 0
SEQEND
 5
37
 8
0
 0
LINE
8
COUCHE_1
 6
CONTINUOUS
62
1
10
30400
20
-14600
11
30400
21
-14800
0
TEXT
8
COUCHE_1
 10
30400
 20
-15000
 11
30400
 21
-15000
 40
150
 1
CO1_I2_24
50
0
 72
1
 73
3
62
1
0
POLYLINE
5
2B
 8
0
62
1
 6
CONTINUOUS
 66
 1
 10
0
 20
0
 30
0
 70
1
 0
VERTEX
 5
33
  8
0
 10
30200
 20
-20600
 0
VERTEX
 5
33
  8
0
 10
30000
 20
-20500
 0
VERTEX
 5
33
  8
0
 10
30200
 20
-20800
 0
VERTEX
 5
33
  8
0
 10
30400
 20
-20500
 0
SEQEND
 5
37
 8
0
 0
LINE
8
COUCHE_1
 6
CONTINUOUS
62
1
10
30200
20
-20400
11
30200
21
-20600
0
TEXT
8
COUCHE_1
 10
30200
 20
-20800
 11
30200
 21
-20800
 40
150
 1
CO1_I2_0
50
0
 72
1
 73
3
62
1
0
POLYLINE
5
2B
 8
0
62
1
 6
CONTINUOUS
 66
 1
 10
0
 20
0
 30
0
 70
1
 0
VERTEX
 5
33
  8
0
 10
27800
 20
-20600
 0
VERTEX
 5
33
  8
0
 10
27600
 20
-20500
 0
VERTEX
 5
33
  8
0
 10
27800
 20
-20800
 0
VERTEX
 5
33
  8
0
 10
28000
 20
-20500
 0
SEQEND
 5
37
 8
0
 0
LINE
8
COUCHE_1
 6
CONTINUOUS
62
1
10
27800
20
-20400
11
27800
21
-20600
0
TEXT
8
COUCHE_1
 10
27800
 20
-20800
 11
27800
 21
-20800
 40
150
 1
CO_O3_0
50
0
 72
1
 73
3
62
1
0
POLYLINE
5
2B
 8
0
62
1
 6
CONTINUOUS
 66
 1
 10
0
 20
0
 30
0
 70
1
 0
VERTEX
 5
33
  8
0
 10
27800
 20
-14800
 0
VERTEX
 5
33
  8
0
 10
27600
 20
-14700
 0
VERTEX
 5
33
  8
0
 10
27800
 20
-15000
 0
VERTEX
 5
33
  8
0
 10
28000
 20
-14700
 0
SEQEND
 5
37
 8
0
 0
LINE
8
COUCHE_1
 6
CONTINUOUS
62
1
10
27800
20
-14600
11
27800
21
-14800
0
TEXT
8
COUCHE_1
 10
27800
 20
-15000
 11
27800
 21
-15000
 40
150
 1
CO_I3_24
50
0
 72
1
 73
3
62
1
0
POLYLINE
5
2B
 8
0
62
1
 6
CONTINUOUS
 66
 1
 10
0
 20
0
 30
0
 70
1
 0
VERTEX
 5
33
  8
0
 10
26600
 20
-20600
 0
VERTEX
 5
33
  8
0
 10
26400
 20
-20500
 0
VERTEX
 5
33
  8
0
 10
26600
 20
-20800
 0
VERTEX
 5
33
  8
0
 10
26800
 20
-20500
 0
SEQEND
 5
37
 8
0
 0
LINE
8
COUCHE_1
 6
CONTINUOUS
62
1
10
26600
20
-20400
11
26600
21
-20600
0
TEXT
8
COUCHE_1
 10
26600
 20
-20800
 11
26600
 21
-20800
 40
150
 1
P_0
50
0
 72
1
 73
3
62
1
0
POLYLINE
5
2B
 8
0
62
1
 6
CONTINUOUS
 66
 1
 10
0
 20
0
 30
0
 70
1
 0
VERTEX
 5
33
  8
0
 10
25400
 20
-20600
 0
VERTEX
 5
33
  8
0
 10
25200
 20
-20500
 0
VERTEX
 5
33
  8
0
 10
25400
 20
-20800
 0
VERTEX
 5
33
  8
0
 10
25600
 20
-20500
 0
SEQEND
 5
37
 8
0
 0
LINE
8
COUCHE_1
 6
CONTINUOUS
62
1
10
25400
20
-20400
11
25400
21
-20600
0
TEXT
8
COUCHE_1
 10
25400
 20
-20800
 11
25400
 21
-20800
 40
150
 1
EV_0
50
0
 72
1
 73
3
62
1
0
POLYLINE
5
2B
 8
0
62
1
 6
CONTINUOUS
 66
 1
 10
0
 20
0
 30
0
 70
1
 0
VERTEX
 5
33
  8
0
 10
26600
 20
-14800
 0
VERTEX
 5
33
  8
0
 10
26400
 20
-14700
 0
VERTEX
 5
33
  8
0
 10
26600
 20
-15000
 0
VERTEX
 5
33
  8
0
 10
26800
 20
-14700
 0
SEQEND
 5
37
 8
0
 0
LINE
8
COUCHE_1
 6
CONTINUOUS
62
1
10
26600
20
-14600
11
26600
21
-14800
0
TEXT
8
COUCHE_1
 10
26600
 20
-15000
 11
26600
 21
-15000
 40
150
 1
B0_24
50
0
 72
1
 73
3
62
1
0
POLYLINE
5
2B
 8
0
62
1
 6
CONTINUOUS
 66
 1
 10
0
 20
0
 30
0
 70
1
 0
VERTEX
 5
33
  8
0
 10
24200
 20
-20600
 0
VERTEX
 5
33
  8
0
 10
24000
 20
-20500
 0
VERTEX
 5
33
  8
0
 10
24200
 20
-20800
 0
VERTEX
 5
33
  8
0
 10
24400
 20
-20500
 0
SEQEND
 5
37
 8
0
 0
LINE
8
COUCHE_1
 6
CONTINUOUS
62
1
10
24200
20
-20400
11
24200
21
-20600
0
TEXT
8
COUCHE_1
 10
24200
 20
-20800
 11
24200
 21
-20800
 40
150
 1
B0_0
50
0
 72
1
 73
3
62
1
0
POLYLINE
5
2B
 8
0
62
1
 6
CONTINUOUS
 66
 1
 10
0
 20
0
 30
0
 70
1
 0
VERTEX
 5
33
  8
0
 10
23000
 20
-20600
 0
VERTEX
 5
33
  8
0
 10
22800
 20
-20500
 0
VERTEX
 5
33
  8
0
 10
23000
 20
-20800
 0
VERTEX
 5
33
  8
0
 10
23200
 20
-20500
 0
SEQEND
 5
37
 8
0
 0
LINE
8
COUCHE_1
 6
CONTINUOUS
62
1
10
23000
20
-20400
11
23000
21
-20600
0
TEXT
8
COUCHE_1
 10
23000
 20
-20800
 11
23000
 21
-20800
 40
150
 1
OP_BK_0
50
0
 72
1
 73
3
62
1
0
POLYLINE
5
2B
 8
0
62
1
 6
CONTINUOUS
 66
 1
 10
0
 20
0
 30
0
 70
1
 0
VERTEX
 5
33
  8
0
 10
21800
 20
-20600
 0
VERTEX
 5
33
  8
0
 10
21600
 20
-20500
 0
VERTEX
 5
33
  8
0
 10
21800
 20
-20800
 0
VERTEX
 5
33
  8
0
 10
22000
 20
-20500
 0
SEQEND
 5
37
 8
0
 0
LINE
8
COUCHE_1
 6
CONTINUOUS
62
1
10
21800
20
-20400
11
21800
21
-20600
0
TEXT
8
COUCHE_1
 10
21800
 20
-20800
 11
21800
 21
-20800
 40
150
 1
Sh_0
50
0
 72
1
 73
3
62
1
0
POLYLINE
5
2B
 8
0
62
1
 6
CONTINUOUS
 66
 1
 10
0
 20
0
 30
0
 70
1
 0
VERTEX
 5
33
  8
0
 10
25400
 20
-14800
 0
VERTEX
 5
33
  8
0
 10
25200
 20
-14700
 0
VERTEX
 5
33
  8
0
 10
25400
 20
-15000
 0
VERTEX
 5
33
  8
0
 10
25600
 20
-14700
 0
SEQEND
 5
37
 8
0
 0
LINE
8
COUCHE_1
 6
CONTINUOUS
62
1
10
25400
20
-14600
11
25400
21
-14800
0
TEXT
8
COUCHE_1
 10
25400
 20
-15000
 11
25400
 21
-15000
 40
150
 1
Sh_24
50
0
 72
1
 73
3
62
1
0
POLYLINE
5
2B
 8
0
62
1
 6
CONTINUOUS
 66
 1
 10
0
 20
0
 30
0
 70
1
 0
VERTEX
 5
33
  8
0
 10
20600
 20
-20600
 0
VERTEX
 5
33
  8
0
 10
20400
 20
-20500
 0
VERTEX
 5
33
  8
0
 10
20600
 20
-20800
 0
VERTEX
 5
33
  8
0
 10
20800
 20
-20500
 0
SEQEND
 5
37
 8
0
 0
LINE
8
COUCHE_1
 6
CONTINUOUS
62
1
10
20600
20
-20400
11
20600
21
-20600
0
TEXT
8
COUCHE_1
 10
20600
 20
-20800
 11
20600
 21
-20800
 40
150
 1
Ec_0
50
0
 72
1
 73
3
62
1
0
POLYLINE
5
2B
 8
0
62
1
 6
CONTINUOUS
 66
 1
 10
0
 20
0
 30
0
 70
1
 0
VERTEX
 5
33
  8
0
 10
24400
 20
-14800
 0
VERTEX
 5
33
  8
0
 10
24200
 20
-14700
 0
VERTEX
 5
33
  8
0
 10
24400
 20
-15000
 0
VERTEX
 5
33
  8
0
 10
24600
 20
-14700
 0
SEQEND
 5
37
 8
0
 0
LINE
8
COUCHE_1
 6
CONTINUOUS
62
1
10
24400
20
-14600
11
24400
21
-14800
0
TEXT
8
COUCHE_1
 10
24400
 20
-15000
 11
24400
 21
-15000
 40
150
 1
A_24_TC
50
0
 72
1
 73
3
62
1
0
POLYLINE
5
2B
 8
0
62
1
 6
CONTINUOUS
 66
 1
 10
0
 20
0
 30
0
 70
1
 0
VERTEX
 5
33
  8
0
 10
19400
 20
-20600
 0
VERTEX
 5
33
  8
0
 10
19200
 20
-20500
 0
VERTEX
 5
33
  8
0
 10
19400
 20
-20800
 0
VERTEX
 5
33
  8
0
 10
19600
 20
-20500
 0
SEQEND
 5
37
 8
0
 0
LINE
8
COUCHE_1
 6
CONTINUOUS
62
1
10
19400
20
-20400
11
19400
21
-20600
0
TEXT
8
COUCHE_1
 10
19400
 20
-20800
 11
19400
 21
-20800
 40
150
 1
A_0_TC
50
0
 72
1
 73
3
62
1
0
POLYLINE
5
2B
 8
0
62
1
 6
CONTINUOUS
 66
 1
 10
0
 20
0
 30
0
 70
1
 0
VERTEX
 5
33
  8
0
 10
23200
 20
-14800
 0
VERTEX
 5
33
  8
0
 10
23000
 20
-14700
 0
VERTEX
 5
33
  8
0
 10
23200
 20
-15000
 0
VERTEX
 5
33
  8
0
 10
23400
 20
-14700
 0
SEQEND
 5
37
 8
0
 0
LINE
8
COUCHE_1
 6
CONTINUOUS
62
1
10
23200
20
-14600
11
23200
21
-14800
0
TEXT
8
COUCHE_1
 10
23200
 20
-15000
 11
23200
 21
-15000
 40
150
 1
CO1_24
50
0
 72
1
 73
3
62
1
0
TEXT
8
COUCHE_1
 10
8400
 20
-7800
 11
8400
 21
-7800
 40
150
 1
WALIM24 3G_1.5
50
0
 72
0
 73
3
62
0
0
TEXT
8
COUCHE_1
 10
21600
 20
-28000
 11
21600
 21
-28000
 40
300
 1
Armoire   supérieure
50
0
 72
0
 73
3
62
0
0
TEXT
8
COUCHE_1
 10
34000
 20
-9600
 11
34000
 21
-9600
 40
250
 1
X6
50
0
 72
0
 73
3
62
0
 0
LINE
8
COUCHE_1
 6
CONTINUOUS
62
0
10
1200
20
-1200
11
41600
21
-1200
 0
LINE
8
COUCHE_1
 6
CONTINUOUS
62
0
10
1600
20
-1600
11
41600
21
-1600
 0
LINE
8
COUCHE_1
 6
CONTINUOUS
62
0
10
3200
20
-1200
11
3200
21
-1600
 0
LINE
8
COUCHE_1
 6
CONTINUOUS
62
0
10
4800
20
-1200
11
4800
21
-1600
 0
LINE
8
COUCHE_1
 6
CONTINUOUS
62
0
10
6400
20
-1200
11
6400
21
-1600
 0
LINE
8
COUCHE_1
 6
CONTINUOUS
62
0
10
8000
20
-1200
11
8000
21
-1600
 0
LINE
8
COUCHE_1
 6
CONTINUOUS
62
0
10
9600
20
-1200
11
9600
21
-1600
 0
LINE
8
COUCHE_1
 6
CONTINUOUS
62
0
10
11200
20
-1200
11
11200
21
-1600
 0
LINE
8
COUCHE_1
 6
CONTINUOUS
62
0
10
12800
20
-1200
11
12800
21
-1600
 0
LINE
8
COUCHE_1
 6
CONTINUOUS
62
0
10
14400
20
-1200
11
14400
21
-1600
 0
LINE
8
COUCHE_1
 6
CONTINUOUS
62
0
10
16000
20
-1200
11
16000
21
-1600
 0
LINE
8
COUCHE_1
 6
CONTINUOUS
62
0
10
17600
20
-1200
11
17600
21
-1600
 0
LINE
8
COUCHE_1
 6
CONTINUOUS
62
0
10
19200
20
-1200
11
19200
21
-1600
 0
LINE
8
COUCHE_1
 6
CONTINUOUS
62
0
10
20800
20
-1200
11
20800
21
-1600
 0
LINE
8
COUCHE_1
 6
CONTINUOUS
62
0
10
22400
20
-1200
11
22400
21
-1600
 0
LINE
8
COUCHE_1
 6
CONTINUOUS
62
0
10
24000
20
-1200
11
24000
21
-1600
 0
LINE
8
COUCHE_1
 6
CONTINUOUS
62
0
10
25600
20
-1200
11
25600
21
-1600
 0
LINE
8
COUCHE_1
 6
CONTINUOUS
62
0
10
27200
20
-1200
11
27200
21
-1600
 0
LINE
8
COUCHE_1
 6
CONTINUOUS
62
0
10
28800
20
-1200
11
28800
21
-1600
 0
LINE
8
COUCHE_1
 6
CONTINUOUS
62
0
10
30400
20
-1200
11
30400
21
-1600
 0
LINE
8
COUCHE_1
 6
CONTINUOUS
62
0
10
32000
20
-1200
11
32000
21
-1600
 0
LINE
8
COUCHE_1
 6
CONTINUOUS
62
0
10
33600
20
-1200
11
33600
21
-1600
 0
LINE
8
COUCHE_1
 6
CONTINUOUS
62
0
10
35200
20
-1200
11
35200
21
-1600
 0
LINE
8
COUCHE_1
 6
CONTINUOUS
62
0
10
36800
20
-1200
11
36800
21
-1600
 0
LINE
8
COUCHE_1
 6
CONTINUOUS
62
0
10
38400
20
-1200
11
38400
21
-1600
 0
LINE
8
COUCHE_1
 6
CONTINUOUS
62
0
10
40000
20
-1200
11
40000
21
-1600
 0
LINE
8
COUCHE_1
 6
CONTINUOUS
62
0
10
41600
20
-1200
11
41600
21
-1600
 0
LINE
8
COUCHE_1
 6
CONTINUOUS
62
0
10
41600
20
-1200
11
41600
21
-1600
 0
LINE
8
COUCHE_1
 6
CONTINUOUS
62
0
10
1200
20
-29300
11
41600
21
-29300
0
TEXT
8
COUCHE_1
 10
2400
 20
-1250
 11
2400
 21
-1250
 40
150
 1
A
50
0
 72
1
 73
3
62
0
0
TEXT
8
COUCHE_1
 10
4000
 20
-1250
 11
4000
 21
-1250
 40
150
 1
B
50
0
 72
1
 73
3
62
0
0
TEXT
8
COUCHE_1
 10
5600
 20
-1250
 11
5600
 21
-1250
 40
150
 1
C
50
0
 72
1
 73
3
62
0
0
TEXT
8
COUCHE_1
 10
7200
 20
-1250
 11
7200
 21
-1250
 40
150
 1
D
50
0
 72
1
 73
3
62
0
0
TEXT
8
COUCHE_1
 10
8800
 20
-1250
 11
8800
 21
-1250
 40
150
 1
E
50
0
 72
1
 73
3
62
0
0
TEXT
8
COUCHE_1
 10
10400
 20
-1250
 11
10400
 21
-1250
 40
150
 1
F
50
0
 72
1
 73
3
62
0
0
TEXT
8
COUCHE_1
 10
12000
 20
-1250
 11
12000
 21
-1250
 40
150
 1
G
50
0
 72
1
 73
3
62
0
0
TEXT
8
COUCHE_1
 10
13600
 20
-1250
 11
13600
 21
-1250
 40
150
 1
H
50
0
 72
1
 73
3
62
0
0
TEXT
8
COUCHE_1
 10
15200
 20
-1250
 11
15200
 21
-1250
 40
150
 1
I
50
0
 72
1
 73
3
62
0
0
TEXT
8
COUCHE_1
 10
16800
 20
-1250
 11
16800
 21
-1250
 40
150
 1
J
50
0
 72
1
 73
3
62
0
0
TEXT
8
COUCHE_1
 10
18400
 20
-1250
 11
18400
 21
-1250
 40
150
 1
K
50
0
 72
1
 73
3
62
0
0
TEXT
8
COUCHE_1
 10
20000
 20
-1250
 11
20000
 21
-1250
 40
150
 1
L
50
0
 72
1
 73
3
62
0
0
TEXT
8
COUCHE_1
 10
21600
 20
-1250
 11
21600
 21
-1250
 40
150
 1
M
50
0
 72
1
 73
3
62
0
0
TEXT
8
COUCHE_1
 10
23200
 20
-1250
 11
23200
 21
-1250
 40
150
 1
N
50
0
 72
1
 73
3
62
0
0
TEXT
8
COUCHE_1
 10
24800
 20
-1250
 11
24800
 21
-1250
 40
150
 1
O
50
0
 72
1
 73
3
62
0
0
TEXT
8
COUCHE_1
 10
26400
 20
-1250
 11
26400
 21
-1250
 40
150
 1
P
50
0
 72
1
 73
3
62
0
0
TEXT
8
COUCHE_1
 10
28000
 20
-1250
 11
28000
 21
-1250
 40
150
 1
Q
50
0
 72
1
 73
3
62
0
0
TEXT
8
COUCHE_1
 10
29600
 20
-1250
 11
29600
 21
-1250
 40
150
 1
R
50
0
 72
1
 73
3
62
0
0
TEXT
8
COUCHE_1
 10
31200
 20
-1250
 11
31200
 21
-1250
 40
150
 1
S
50
0
 72
1
 73
3
62
0
0
TEXT
8
COUCHE_1
 10
32800
 20
-1250
 11
32800
 21
-1250
 40
150
 1
T
50
0
 72
1
 73
3
62
0
0
TEXT
8
COUCHE_1
 10
34400
 20
-1250
 11
34400
 21
-1250
 40
150
 1
U
50
0
 72
1
 73
3
62
0
0
TEXT
8
COUCHE_1
 10
36000
 20
-1250
 11
36000
 21
-1250
 40
150
 1
V
50
0
 72
1
 73
3
62
0
0
TEXT
8
COUCHE_1
 10
37600
 20
-1250
 11
37600
 21
-1250
 40
150
 1
W
50
0
 72
1
 73
3
62
0
0
TEXT
8
COUCHE_1
 10
39200
 20
-1250
 11
39200
 21
-1250
 40
150
 1
X
50
0
 72
1
 73
3
62
0
0
TEXT
8
COUCHE_1
 10
40800
 20
-1250
 11
40800
 21
-1250
 40
150
 1
Y
50
0
 72
1
 73
3
62
0
 0
LINE
8
COUCHE_1
 6
CONTINUOUS
62
0
10
1200
20
-1200
11
1200
21
-29300
 0
LINE
8
COUCHE_1
 6
CONTINUOUS
62
0
10
1600
20
-1600
11
1600
21
-29300
 0
LINE
8
COUCHE_1
 6
CONTINUOUS
62
0
10
1200
20
-3200
11
1600
21
-3200
 0
LINE
8
COUCHE_1
 6
CONTINUOUS
62
0
10
1200
20
-4800
11
1600
21
-4800
 0
LINE
8
COUCHE_1
 6
CONTINUOUS
62
0
10
1200
20
-6400
11
1600
21
-6400
 0
LINE
8
COUCHE_1
 6
CONTINUOUS
62
0
10
1200
20
-8000
11
1600
21
-8000
 0
LINE
8
COUCHE_1
 6
CONTINUOUS
62
0
10
1200
20
-9600
11
1600
21
-9600
 0
LINE
8
COUCHE_1
 6
CONTINUOUS
62
0
10
1200
20
-11200
11
1600
21
-11200
 0
LINE
8
COUCHE_1
 6
CONTINUOUS
62
0
10
1200
20
-12800
11
1600
21
-12800
 0
LINE
8
COUCHE_1
 6
CONTINUOUS
62
0
10
1200
20
-14400
11
1600
21
-14400
 0
LINE
8
COUCHE_1
 6
CONTINUOUS
62
0
10
1200
20
-16000
11
1600
21
-16000
 0
LINE
8
COUCHE_1
 6
CONTINUOUS
62
0
10
1200
20
-17600
11
1600
21
-17600
 0
LINE
8
COUCHE_1
 6
CONTINUOUS
62
0
10
1200
20
-19200
11
1600
21
-19200
 0
LINE
8
COUCHE_1
 6
CONTINUOUS
62
0
10
1200
20
-20800
11
1600
21
-20800
 0
LINE
8
COUCHE_1
 6
CONTINUOUS
62
0
10
1200
20
-22400
11
1600
21
-22400
 0
LINE
8
COUCHE_1
 6
CONTINUOUS
62
0
10
1200
20
-24000
11
1600
21
-24000
 0
LINE
8
COUCHE_1
 6
CONTINUOUS
62
0
10
1200
20
-25600
11
1600
21
-25600
 0
LINE
8
COUCHE_1
 6
CONTINUOUS
62
0
10
1200
20
-27200
11
1600
21
-27200
 0
LINE
8
COUCHE_1
 6
CONTINUOUS
62
0
10
1200
20
-28800
11
1600
21
-28800
 0
LINE
8
COUCHE_1
 6
CONTINUOUS
62
0
10
1200
20
-29300
11
1600
21
-29300
 0
LINE
8
COUCHE_1
 6
CONTINUOUS
62
0
10
41600
20
-1200
11
41600
21
-29300
0
TEXT
8
COUCHE_1
 10
1400
 20
-2250
 11
1400
 21
-2250
 40
150
 1
1
50
0
 72
1
 73
3
62
0
0
TEXT
8
COUCHE_1
 10
1400
 20
-3850
 11
1400
 21
-3850
 40
150
 1
2
50
0
 72
1
 73
3
62
0
0
TEXT
8
COUCHE_1
 10
1400
 20
-5450
 11
1400
 21
-5450
 40
150
 1
3
50
0
 72
1
 73
3
62
0
0
TEXT
8
COUCHE_1
 10
1400
 20
-7050
 11
1400
 21
-7050
 40
150
 1
4
50
0
 72
1
 73
3
62
0
0
TEXT
8
COUCHE_1
 10
1400
 20
-8650
 11
1400
 21
-8650
 40
150
 1
5
50
0
 72
1
 73
3
62
0
0
TEXT
8
COUCHE_1
 10
1400
 20
-10250
 11
1400
 21
-10250
 40
150
 1
6
50
0
 72
1
 73
3
62
0
0
TEXT
8
COUCHE_1
 10
1400
 20
-11850
 11
1400
 21
-11850
 40
150
 1
7
50
0
 72
1
 73
3
62
0
0
TEXT
8
COUCHE_1
 10
1400
 20
-13450
 11
1400
 21
-13450
 40
150
 1
8
50
0
 72
1
 73
3
62
0
0
TEXT
8
COUCHE_1
 10
1400
 20
-15050
 11
1400
 21
-15050
 40
150
 1
9
50
0
 72
1
 73
3
62
0
0
TEXT
8
COUCHE_1
 10
1400
 20
-16650
 11
1400
 21
-16650
 40
150
 1
10
50
0
 72
1
 73
3
62
0
0
TEXT
8
COUCHE_1
 10
1400
 20
-18250
 11
1400
 21
-18250
 40
150
 1
11
50
0
 72
1
 73
3
62
0
0
TEXT
8
COUCHE_1
 10
1400
 20
-19850
 11
1400
 21
-19850
 40
150
 1
12
50
0
 72
1
 73
3
62
0
0
TEXT
8
COUCHE_1
 10
1400
 20
-21450
 11
1400
 21
-21450
 40
150
 1
13
50
0
 72
1
 73
3
62
0
0
TEXT
8
COUCHE_1
 10
1400
 20
-23050
 11
1400
 21
-23050
 40
150
 1
14
50
0
 72
1
 73
3
62
0
0
TEXT
8
COUCHE_1
 10
1400
 20
-24650
 11
1400
 21
-24650
 40
150
 1
15
50
0
 72
1
 73
3
62
0
0
TEXT
8
COUCHE_1
 10
1400
 20
-26250
 11
1400
 21
-26250
 40
150
 1
16
50
0
 72
1
 73
3
62
0
0
TEXT
8
COUCHE_1
 10
1400
 20
-27850
 11
1400
 21
-27850
 40
150
 1
17
50
0
 72
1
 73
3
62
0
 0
LINE
8
COUCHE_1
 6
CONTINUOUS
62
0
10
1600
20
-27800
11
41600
21
-27800
 0
LINE
8
COUCHE_1
 6
CONTINUOUS
62
0
10
39900
20
-29200
11
39900
21
-27800
 0
LINE
8
COUCHE_1
 6
CONTINUOUS
62
0
10
39900
20
-29200
11
41500
21
-27800
 0
LINE
8
COUCHE_1
 6
CONTINUOUS
62
0
10
10200
20
-29200
11
10200
21
-27800
 0
LINE
8
COUCHE_1
 6
CONTINUOUS
62
0
10
35200
20
-29200
11
35200
21
-27800
0
TEXT
8
COUCHE_1
 10
40800
 20
-28700
 11
40800
 21
-28700
 40
200
 1
14
50
0
 72
0
 73
3
62
0
0
TEXT
8
COUCHE_1
 10
40100
 20
-28000
 11
40100
 21
-28000
 40
200
 1
09
50
0
 72
0
 73
3
62
0
0
TEXT
8
COUCHE_1
 10
38700
 20
-28000
 11
38700
 21
-28000
 40
150
 1
14/02/2018
50
0
 72
2
 73
3
62
0
0
TEXT
8
COUCHE_1
 10
38700
 20
-28400
 11
38700
 21
-28400
 40
150
 1
1/2
50
0
 72
2
 73
3
62
0
0
TEXT
8
COUCHE_1
 10
35400
 20
-28000
 11
35400
 21
-28000
 40
150
 1
Dessiné le :
50
0
 72
0
 73
3
62
0
0
TEXT
8
COUCHE_1
 10
35400
 20
-28400
 11
35400
 21
-28400
 40
150
 1
Echelle :
50
0
 72
0
 73
3
62
0
0
TEXT
8
COUCHE_1
 10
38700
 20
-28800
 11
38700
 21
-28800
 40
150
 1
DN_DM
50
0
 72
2
 73
3
62
0
0
TEXT
8
COUCHE_1
 10
35400
 20
-28800
 11
35400
 21
-28800
 40
150
 1
Par : 
50
0
 72
0
 73
3
62
0
0
TEXT
8
COUCHE_1
 10
21000
 20
-28600
 11
21000
 21
-28600
 40
200
 1
Bornier  distribution  alimentation  24V
50
0
 72
0
 73
3
62
0
 0
ENDSEC
 0
EOF
