 0
SECTION
 2
HEADER
 9
$ACADVER
 1
AC1009
 9
$CLAYER
 8
Couche_1
 9
$HANDLING
70
 0
9
$INSBASE
10
0
20
0
30
0
9
$THICKNESS
40
0
9
$UCSNAME
2
UCS_F1
9
$WORLDVIEW
70
1
9
$LTSCALE
40
15
0
ENDSEC
0
SECTION
2
TABLES
 0
TABLE
 2
APPID
70
 1
 0
APPID
 2
TASK
 70
 0
 0
ENDTAB
 0
TABLE
  2
LTYPE
 70
 2
 0
LTYPE
  2
CONTINUOUS
 70
 0
 3
Solid line
 72
65
 73
0
 40
0
  0
LTYPE
  2
ACAD_ISO03W100
 70
 0
 3
CAO pointillé long
 72
65
 73
2
 40
30
 49
12
 49
-18.0
  0
LTYPE
 2
ACAD_ISO07W100
 70
0
 3
CAO pointillé fin
 72
65
 73
2
 40
3
 49
0
 49
-3.0
  0
LTYPE
  2
ACAD_ISO02W100
 70
0
 3
CAO pointillé extra long
 72
65
 73
2
 40
15
 49
12
 49
-3
  0
LTYPE
  2
AXES
 70
0
 3
CAO Axe
 72
65
 73
4
 40
50.8
 49
31.75
 49
-6.35
 49
6.35
 49
-6.35
  0
ENDTAB
0
TABLE
2
LAYER
 70
20
 0
LAYER
 2
COUCHE_1
 70
 64
 62
 7
 6
CONTINUOUS
 0
ENDTAB
 0
TABLE
 2
UCS
 70
 6
 0
UCS
 2
UCSF1
 70
 64
 10
0.000000
 20
0.000000
 30
20.000000
 11
1.000000
 21
0.000000
 31
0.000000
 12
0.000000
 22
-1.000000
 32
0.000000
 0
ENDTAB
 0
ENDSEC
 0
SECTION
 2
ENTITIES
 0
LINE
8
COUCHE_1
 6
CONTINUOUS
62
0
10
26600
20
-54600
11
27000
21
-54600
 0
LINE
8
COUCHE_1
 6
CONTINUOUS
62
0
10
27000
20
-55000
11
27000
21
-54600
 0
LINE
8
COUCHE_1
 6
CONTINUOUS
62
0
10
27000
20
-55000
11
26800
21
-55200
 0
LINE
8
COUCHE_1
 6
CONTINUOUS
62
0
10
26600
20
-55000
11
26800
21
-55200
 0
LINE
8
COUCHE_1
 6
CONTINUOUS
62
0
10
26600
20
-55000
11
26600
21
-54600
 0
LINE
8
COUCHE_1
 6
CONTINUOUS
62
0
10
24000
20
-54600
11
24400
21
-54600
 0
LINE
8
COUCHE_1
 6
CONTINUOUS
62
0
10
24400
20
-55000
11
24400
21
-54600
 0
LINE
8
COUCHE_1
 6
CONTINUOUS
62
0
10
24400
20
-55000
11
24200
21
-55200
 0
LINE
8
COUCHE_1
 6
CONTINUOUS
62
0
10
24000
20
-55000
11
24200
21
-55200
 0
LINE
8
COUCHE_1
 6
CONTINUOUS
62
0
10
24000
20
-55000
11
24000
21
-54600
0
POLYLINE
5
2B
 8
0
62
0
 6
ACAD_ISO07W100
 66
 1
 10
0
 20
0
 30
0
 70
1
 0
VERTEX
 5
33
  8
0
 10
21200
 20
-5800
 0
VERTEX
 5
33
  8
0
 10
44800
 20
-5800
 0
VERTEX
 5
33
  8
0
 10
44800
 20
-51600
 0
VERTEX
 5
33
  8
0
 10
21200
 20
-51600
 0
SEQEND
 5
37
 8
0
 0
LINE
8
COUCHE_1
 6
ACAD_ISO07W100
62
0
10
44800
20
-13400
11
21200
21
-13400
 0
LINE
8
COUCHE_1
 6
ACAD_ISO07W100
62
0
10
44800
20
-20200
11
21200
21
-20200
 0
LINE
8
COUCHE_1
 6
ACAD_ISO07W100
62
0
10
44600
20
-28800
11
21000
21
-28800
 0
LINE
8
COUCHE_1
 6
ACAD_ISO07W100
62
0
10
44800
20
-37000
11
21200
21
-37000
 0
LINE
8
COUCHE_1
 6
ACAD_ISO07W100
62
0
10
44800
20
-43600
11
21200
21
-43600
 0
LINE
8
COUCHE_1
 6
CONTINUOUS
62
0
10
66600
20
-9610
11
71800
21
-9610
 0
LINE
8
COUCHE_1
 6
CONTINUOUS
62
0
10
71800
20
-8000
11
71800
21
-9610
 0
LINE
8
COUCHE_1
 6
CONTINUOUS
62
0
10
71800
20
-8000
11
66600
21
-8000
 0
LINE
8
COUCHE_1
 6
CONTINUOUS
62
0
10
66600
20
-8000
11
66600
21
-9550
 0
LINE
8
COUCHE_1
 6
CONTINUOUS
62
0
10
66600
20
-9550
11
66600
21
-9610
 0
LINE
8
COUCHE_1
 6
CONTINUOUS
62
0
10
72630
20
-8660
11
67290
21
-8660
 0
LINE
8
COUCHE_1
 6
CONTINUOUS
62
0
10
72630
20
-8660
11
72630
21
-8960
 0
LINE
8
COUCHE_1
 6
CONTINUOUS
62
0
10
72630
20
-8960
11
67290
21
-8960
 0
LINE
8
COUCHE_1
 6
CONTINUOUS
62
0
10
66970
20
-8000
11
66970
21
-9610
 0
LINE
8
COUCHE_1
 6
CONTINUOUS
62
0
10
67290
20
-9610
11
66970
21
-9610
 0
LINE
8
COUCHE_1
 6
CONTINUOUS
62
0
10
67290
20
-9610
11
67290
21
-8000
 0
LINE
8
COUCHE_1
 6
CONTINUOUS
62
0
10
67290
20
-8000
11
66970
21
-8000
0
POLYLINE
5
2B
 8
0
62
1
 6
CONTINUOUS
 66
 1
 10
0
 20
0
 30
0
 70
1
 0
VERTEX
 5
33
  8
0
 10
66750
 20
-9950
 0
VERTEX
 5
33
  8
0
 10
66850
 20
-9950
 0
VERTEX
 5
33
  8
0
 10
66850
 20
-10050
 0
VERTEX
 5
33
  8
0
 10
66750
 20
-10050
 0
SEQEND
 5
37
 8
0
 0
LINE
8
COUCHE_1
 6
CONTINUOUS
62
1
10
66800
20
-10000
11
66800
21
-9600
0
TEXT
8
COUCHE_1
 10
66850
 20
-9650
 11
66850
 21
-9650
 40
100
 1
1
50
0
 72
0
 73
3
62
0
0
POLYLINE
5
2B
 8
0
62
1
 6
CONTINUOUS
 66
 1
 10
0
 20
0
 30
0
 70
1
 0
VERTEX
 5
33
  8
0
 10
71550
 20
-9950
 0
VERTEX
 5
33
  8
0
 10
71650
 20
-9950
 0
VERTEX
 5
33
  8
0
 10
71650
 20
-10050
 0
VERTEX
 5
33
  8
0
 10
71550
 20
-10050
 0
SEQEND
 5
37
 8
0
 0
LINE
8
COUCHE_1
 6
CONTINUOUS
62
1
10
71600
20
-10000
11
71600
21
-9600
0
TEXT
8
COUCHE_1
 10
71650
 20
-9650
 11
71650
 21
-9650
 40
100
 1
2
50
0
 72
0
 73
3
62
0
0
TEXT
8
COUCHE_1
 10
69200
 20
-7400
 11
69200
 21
-7400
 40
200
 1
011_1A1
50
0
 72
1
 73
3
62
0
 0
LINE
8
COUCHE_1
 6
CONTINUOUS
62
0
10
66800
20
-14210
11
72000
21
-14210
 0
LINE
8
COUCHE_1
 6
CONTINUOUS
62
0
10
72000
20
-12600
11
72000
21
-14210
 0
LINE
8
COUCHE_1
 6
CONTINUOUS
62
0
10
72000
20
-12600
11
66800
21
-12600
 0
LINE
8
COUCHE_1
 6
CONTINUOUS
62
0
10
66800
20
-12600
11
66800
21
-14150
 0
LINE
8
COUCHE_1
 6
CONTINUOUS
62
0
10
66800
20
-14150
11
66800
21
-14210
 0
LINE
8
COUCHE_1
 6
CONTINUOUS
62
0
10
72830
20
-13260
11
67490
21
-13260
 0
LINE
8
COUCHE_1
 6
CONTINUOUS
62
0
10
72830
20
-13260
11
72830
21
-13560
 0
LINE
8
COUCHE_1
 6
CONTINUOUS
62
0
10
72830
20
-13560
11
67490
21
-13560
 0
LINE
8
COUCHE_1
 6
CONTINUOUS
62
0
10
67170
20
-12600
11
67170
21
-14210
 0
LINE
8
COUCHE_1
 6
CONTINUOUS
62
0
10
67490
20
-14210
11
67170
21
-14210
 0
LINE
8
COUCHE_1
 6
CONTINUOUS
62
0
10
67490
20
-14210
11
67490
21
-12600
 0
LINE
8
COUCHE_1
 6
CONTINUOUS
62
0
10
67490
20
-12600
11
67170
21
-12600
0
POLYLINE
5
2B
 8
0
62
1
 6
CONTINUOUS
 66
 1
 10
0
 20
0
 30
0
 70
1
 0
VERTEX
 5
33
  8
0
 10
66950
 20
-14550
 0
VERTEX
 5
33
  8
0
 10
67050
 20
-14550
 0
VERTEX
 5
33
  8
0
 10
67050
 20
-14650
 0
VERTEX
 5
33
  8
0
 10
66950
 20
-14650
 0
SEQEND
 5
37
 8
0
 0
LINE
8
COUCHE_1
 6
CONTINUOUS
62
1
10
67000
20
-14600
11
67000
21
-14200
0
TEXT
8
COUCHE_1
 10
67050
 20
-14250
 11
67050
 21
-14250
 40
100
 1
1
50
0
 72
0
 73
3
62
0
0
POLYLINE
5
2B
 8
0
62
1
 6
CONTINUOUS
 66
 1
 10
0
 20
0
 30
0
 70
1
 0
VERTEX
 5
33
  8
0
 10
71750
 20
-14550
 0
VERTEX
 5
33
  8
0
 10
71850
 20
-14550
 0
VERTEX
 5
33
  8
0
 10
71850
 20
-14650
 0
VERTEX
 5
33
  8
0
 10
71750
 20
-14650
 0
SEQEND
 5
37
 8
0
 0
LINE
8
COUCHE_1
 6
CONTINUOUS
62
1
10
71800
20
-14600
11
71800
21
-14200
0
TEXT
8
COUCHE_1
 10
71850
 20
-14250
 11
71850
 21
-14250
 40
100
 1
2
50
0
 72
0
 73
3
62
0
0
TEXT
8
COUCHE_1
 10
69400
 20
-12200
 11
69400
 21
-12200
 40
200
 1
011_1A2
50
0
 72
1
 73
3
62
0
 0
LINE
8
COUCHE_1
 6
CONTINUOUS
62
0
10
31200
20
-11200
11
31200
21
-9600
 0
LINE
8
COUCHE_1
 6
CONTINUOUS
62
0
10
36000
20
-11200
11
36000
21
-9600
 0
LINE
8
COUCHE_1
 6
CONTINUOUS
62
0
10
33600
20
-9600
11
33600
21
-11200
 0
LINE
8
COUCHE_1
 6
CONTINUOUS
62
0
10
31200
20
-9600
11
36000
21
-9600
 0
LINE
8
COUCHE_1
 6
CONTINUOUS
62
0
10
31200
20
-11200
11
36000
21
-11200
 0
LINE
8
COUCHE_1
 6
CONTINUOUS
62
0
10
33200
20
-9600
11
33200
21
-11200
 0
LINE
8
COUCHE_1
 6
CONTINUOUS
62
0
10
31600
20
-11200
11
31600
21
-10900
 0
LINE
8
COUCHE_1
 6
CONTINUOUS
62
0
10
31600
20
-10900
11
31700
21
-10900
 0
LINE
8
COUCHE_1
 6
CONTINUOUS
62
0
10
31600
20
-10900
11
31500
21
-10900
 0
LINE
8
COUCHE_1
 6
CONTINUOUS
62
0
10
35600
20
-11200
11
35600
21
-10900
 0
LINE
8
COUCHE_1
 6
CONTINUOUS
62
0
10
35600
20
-10900
11
35500
21
-10900
 0
LINE
8
COUCHE_1
 6
CONTINUOUS
62
0
10
35600
20
-10900
11
35700
21
-10900
 0
LINE
8
COUCHE_1
 6
CONTINUOUS
62
0
10
34000
20
-11200
11
34000
21
-9600
 0
LINE
8
COUCHE_1
 6
CONTINUOUS
62
0
10
33200
20
-11200
11
33300
21
-10900
 0
LINE
8
COUCHE_1
 6
CONTINUOUS
62
0
10
33200
20
-11200
11
33100
21
-10900
 0
LINE
8
COUCHE_1
 6
CONTINUOUS
62
0
10
34000
20
-11200
11
33900
21
-10900
 0
LINE
8
COUCHE_1
 6
CONTINUOUS
62
0
10
34000
20
-11200
11
34100
21
-10900
 0
LINE
8
COUCHE_1
 6
CONTINUOUS
62
0
10
34800
20
-11200
11
35600
21
-9600
 0
LINE
8
COUCHE_1
 6
CONTINUOUS
62
0
10
35600
20
-9600
11
35600
21
-9850
 0
LINE
8
COUCHE_1
 6
CONTINUOUS
62
0
10
35600
20
-9600
11
35400
21
-9750
 0
LINE
8
COUCHE_1
 6
CONTINUOUS
62
0
10
32400
20
-11200
11
31600
21
-9600
 0
LINE
8
COUCHE_1
 6
CONTINUOUS
62
0
10
31600
20
-9600
11
31600
21
-9850
 0
LINE
8
COUCHE_1
 6
CONTINUOUS
62
0
10
31600
20
-9600
11
31800
21
-9700
 0
LINE
8
COUCHE_1
 6
CONTINUOUS
62
0
10
29200
20
-10800
11
30200
21
-10800
 0
LINE
8
COUCHE_1
 6
CONTINUOUS
62
0
10
29200
20
-10800
11
29200
21
-10000
 0
LINE
8
COUCHE_1
 6
CONTINUOUS
62
0
10
29200
20
-10000
11
30200
21
-10000
 0
LINE
8
COUCHE_1
 6
CONTINUOUS
62
0
10
29800
20
-10000
11
29400
21
-10800
 0
LINE
8
COUCHE_1
 6
CONTINUOUS
62
0
10
38000
20
-10000
11
37000
21
-10000
 0
LINE
8
COUCHE_1
 6
CONTINUOUS
62
0
10
38000
20
-10000
11
38000
21
-10800
 0
LINE
8
COUCHE_1
 6
CONTINUOUS
62
0
10
38000
20
-10800
11
37000
21
-10800
 0
LINE
8
COUCHE_1
 6
CONTINUOUS
62
0
10
37800
20
-10000
11
37400
21
-10800
 0
LINE
8
COUCHE_1
 6
CONTINUOUS
62
0
10
37000
20
-10000
11
36000
21
-10000
 0
LINE
8
COUCHE_1
 6
CONTINUOUS
62
0
10
37000
20
-10000
11
37000
21
-10800
 0
LINE
8
COUCHE_1
 6
CONTINUOUS
62
0
10
37000
20
-10800
11
36000
21
-10800
 0
LINE
8
COUCHE_1
 6
CONTINUOUS
62
0
10
37000
20
-10000
11
36400
21
-10400
 0
LINE
8
COUCHE_1
 6
CONTINUOUS
62
0
10
36400
20
-10400
11
37000
21
-10800
 0
LINE
8
COUCHE_1
 6
CONTINUOUS
62
0
10
30200
20
-10800
11
31200
21
-10800
 0
LINE
8
COUCHE_1
 6
CONTINUOUS
62
0
10
30200
20
-10800
11
30200
21
-10000
 0
LINE
8
COUCHE_1
 6
CONTINUOUS
62
0
10
30200
20
-10000
11
31200
21
-10000
 0
LINE
8
COUCHE_1
 6
CONTINUOUS
62
0
10
30200
20
-10000
11
30800
21
-10400
 0
LINE
8
COUCHE_1
 6
CONTINUOUS
62
0
10
30800
20
-10400
11
30200
21
-10800
0
POLYLINE
5
2B
 8
0
62
1
 6
CONTINUOUS
 66
 1
 10
0
 20
0
 30
0
 70
1
 0
VERTEX
 5
33
  8
0
 10
33900
 20
-11900
 0
VERTEX
 5
33
  8
0
 10
34100
 20
-11900
 0
VERTEX
 5
33
  8
0
 10
34100
 20
-12100
 0
VERTEX
 5
33
  8
0
 10
33900
 20
-12100
 0
SEQEND
 5
37
 8
0
 0
LINE
8
COUCHE_1
 6
CONTINUOUS
62
1
10
34000
20
-12000
11
34000
21
-11200
0
TEXT
8
COUCHE_1
 10
34200
 20
-11400
 11
34200
 21
-11400
 40
200
 1
5
50
0
 72
0
 73
3
62
0
0
POLYLINE
5
2B
 8
0
62
1
 6
CONTINUOUS
 66
 1
 10
0
 20
0
 30
0
 70
1
 0
VERTEX
 5
33
  8
0
 10
34700
 20
-11900
 0
VERTEX
 5
33
  8
0
 10
34900
 20
-11900
 0
VERTEX
 5
33
  8
0
 10
34900
 20
-12100
 0
VERTEX
 5
33
  8
0
 10
34700
 20
-12100
 0
SEQEND
 5
37
 8
0
 0
LINE
8
COUCHE_1
 6
CONTINUOUS
62
1
10
34800
20
-12000
11
34800
21
-11200
0
TEXT
8
COUCHE_1
 10
35000
 20
-11400
 11
35000
 21
-11400
 40
200
 1
1
50
0
 72
0
 73
3
62
0
0
POLYLINE
5
2B
 8
0
62
1
 6
CONTINUOUS
 66
 1
 10
0
 20
0
 30
0
 70
1
 0
VERTEX
 5
33
  8
0
 10
33900
 20
-8700
 0
VERTEX
 5
33
  8
0
 10
34100
 20
-8700
 0
VERTEX
 5
33
  8
0
 10
34100
 20
-8900
 0
VERTEX
 5
33
  8
0
 10
33900
 20
-8900
 0
SEQEND
 5
37
 8
0
 0
LINE
8
COUCHE_1
 6
CONTINUOUS
62
1
10
34000
20
-8800
11
34000
21
-9600
0
TEXT
8
COUCHE_1
 10
34200
 20
-9000
 11
34200
 21
-9000
 40
200
 1
4
50
0
 72
0
 73
3
62
0
0
POLYLINE
5
2B
 8
0
62
1
 6
CONTINUOUS
 66
 1
 10
0
 20
0
 30
0
 70
1
 0
VERTEX
 5
33
  8
0
 10
35500
 20
-8700
 0
VERTEX
 5
33
  8
0
 10
35700
 20
-8700
 0
VERTEX
 5
33
  8
0
 10
35700
 20
-8900
 0
VERTEX
 5
33
  8
0
 10
35500
 20
-8900
 0
SEQEND
 5
37
 8
0
 0
LINE
8
COUCHE_1
 6
CONTINUOUS
62
1
10
35600
20
-8800
11
35600
21
-9600
0
TEXT
8
COUCHE_1
 10
35800
 20
-9000
 11
35800
 21
-9000
 40
200
 1
2
50
0
 72
0
 73
3
62
0
0
POLYLINE
5
2B
 8
0
62
1
 6
CONTINUOUS
 66
 1
 10
0
 20
0
 30
0
 70
1
 0
VERTEX
 5
33
  8
0
 10
35500
 20
-11900
 0
VERTEX
 5
33
  8
0
 10
35700
 20
-11900
 0
VERTEX
 5
33
  8
0
 10
35700
 20
-12100
 0
VERTEX
 5
33
  8
0
 10
35500
 20
-12100
 0
SEQEND
 5
37
 8
0
 0
LINE
8
COUCHE_1
 6
CONTINUOUS
62
1
10
35600
20
-12000
11
35600
21
-11200
0
TEXT
8
COUCHE_1
 10
35800
 20
-11400
 11
35800
 21
-11400
 40
200
 1
3
50
0
 72
0
 73
3
62
0
0
POLYLINE
5
2B
 8
0
62
1
 6
CONTINUOUS
 66
 1
 10
0
 20
0
 30
0
 70
1
 0
VERTEX
 5
33
  8
0
 10
29700
 20
-9100
 0
VERTEX
 5
33
  8
0
 10
29900
 20
-9100
 0
VERTEX
 5
33
  8
0
 10
29900
 20
-9300
 0
VERTEX
 5
33
  8
0
 10
29700
 20
-9300
 0
SEQEND
 5
37
 8
0
 0
LINE
8
COUCHE_1
 6
CONTINUOUS
62
1
10
29800
20
-9200
11
29800
21
-10000
0
TEXT
8
COUCHE_1
 10
29900
 20
-9300
 11
29900
 21
-9300
 40
200
 1

50
0
 72
0
 73
3
62
0
0
POLYLINE
5
2B
 8
0
62
1
 6
CONTINUOUS
 66
 1
 10
0
 20
0
 30
0
 70
1
 0
VERTEX
 5
33
  8
0
 10
29300
 20
-11500
 0
VERTEX
 5
33
  8
0
 10
29500
 20
-11500
 0
VERTEX
 5
33
  8
0
 10
29500
 20
-11700
 0
VERTEX
 5
33
  8
0
 10
29300
 20
-11700
 0
SEQEND
 5
37
 8
0
 0
LINE
8
COUCHE_1
 6
CONTINUOUS
62
1
10
29400
20
-11600
11
29400
21
-10800
0
TEXT
8
COUCHE_1
 10
29500
 20
-10900
 11
29500
 21
-10900
 40
200
 1

50
0
 72
0
 73
3
62
0
0
POLYLINE
5
2B
 8
0
62
1
 6
CONTINUOUS
 66
 1
 10
0
 20
0
 30
0
 70
1
 0
VERTEX
 5
33
  8
0
 10
37280
 20
-11500
 0
VERTEX
 5
33
  8
0
 10
37480
 20
-11500
 0
VERTEX
 5
33
  8
0
 10
37480
 20
-11700
 0
VERTEX
 5
33
  8
0
 10
37280
 20
-11700
 0
SEQEND
 5
37
 8
0
 0
LINE
8
COUCHE_1
 6
CONTINUOUS
62
1
10
37380
20
-11600
11
37380
21
-10800
0
TEXT
8
COUCHE_1
 10
37580
 20
-11000
 11
37580
 21
-11000
 40
200
 1

50
0
 72
0
 73
3
62
0
0
POLYLINE
5
2B
 8
0
62
1
 6
CONTINUOUS
 66
 1
 10
0
 20
0
 30
0
 70
1
 0
VERTEX
 5
33
  8
0
 10
37680
 20
-9100
 0
VERTEX
 5
33
  8
0
 10
37880
 20
-9100
 0
VERTEX
 5
33
  8
0
 10
37880
 20
-9300
 0
VERTEX
 5
33
  8
0
 10
37680
 20
-9300
 0
SEQEND
 5
37
 8
0
 0
LINE
8
COUCHE_1
 6
CONTINUOUS
62
1
10
37780
20
-9200
11
37780
21
-10000
0
TEXT
8
COUCHE_1
 10
37980
 20
-9400
 11
37980
 21
-9400
 40
200
 1

50
0
 72
0
 73
3
62
0
0
TEXT
8
COUCHE_1
 10
31200
 20
-9000
 11
31200
 21
-9000
 40
200
 1
011-1Y1
50
0
 72
0
 73
3
62
0
 0
LINE
8
COUCHE_1
 6
CONTINUOUS
62
0
10
31400
20
-24800
11
31400
21
-23200
 0
LINE
8
COUCHE_1
 6
CONTINUOUS
62
0
10
36200
20
-24800
11
36200
21
-23200
 0
LINE
8
COUCHE_1
 6
CONTINUOUS
62
0
10
33800
20
-23200
11
33800
21
-24800
 0
LINE
8
COUCHE_1
 6
CONTINUOUS
62
0
10
31400
20
-23200
11
36200
21
-23200
 0
LINE
8
COUCHE_1
 6
CONTINUOUS
62
0
10
31400
20
-24800
11
36200
21
-24800
 0
LINE
8
COUCHE_1
 6
CONTINUOUS
62
0
10
33400
20
-23200
11
33400
21
-24800
 0
LINE
8
COUCHE_1
 6
CONTINUOUS
62
0
10
31800
20
-24800
11
31800
21
-24500
 0
LINE
8
COUCHE_1
 6
CONTINUOUS
62
0
10
31800
20
-24500
11
31900
21
-24500
 0
LINE
8
COUCHE_1
 6
CONTINUOUS
62
0
10
31800
20
-24500
11
31700
21
-24500
 0
LINE
8
COUCHE_1
 6
CONTINUOUS
62
0
10
35800
20
-24800
11
35800
21
-24500
 0
LINE
8
COUCHE_1
 6
CONTINUOUS
62
0
10
35800
20
-24500
11
35700
21
-24500
 0
LINE
8
COUCHE_1
 6
CONTINUOUS
62
0
10
35800
20
-24500
11
35900
21
-24500
 0
LINE
8
COUCHE_1
 6
CONTINUOUS
62
0
10
34200
20
-24800
11
34200
21
-23200
 0
LINE
8
COUCHE_1
 6
CONTINUOUS
62
0
10
33400
20
-24800
11
33500
21
-24500
 0
LINE
8
COUCHE_1
 6
CONTINUOUS
62
0
10
33400
20
-24800
11
33300
21
-24500
 0
LINE
8
COUCHE_1
 6
CONTINUOUS
62
0
10
34200
20
-24800
11
34100
21
-24500
 0
LINE
8
COUCHE_1
 6
CONTINUOUS
62
0
10
34200
20
-24800
11
34300
21
-24500
 0
LINE
8
COUCHE_1
 6
CONTINUOUS
62
0
10
35000
20
-24800
11
35800
21
-23200
 0
LINE
8
COUCHE_1
 6
CONTINUOUS
62
0
10
35800
20
-23200
11
35800
21
-23450
 0
LINE
8
COUCHE_1
 6
CONTINUOUS
62
0
10
35800
20
-23200
11
35600
21
-23350
 0
LINE
8
COUCHE_1
 6
CONTINUOUS
62
0
10
32600
20
-24800
11
31800
21
-23200
 0
LINE
8
COUCHE_1
 6
CONTINUOUS
62
0
10
31800
20
-23200
11
31800
21
-23450
 0
LINE
8
COUCHE_1
 6
CONTINUOUS
62
0
10
31800
20
-23200
11
32000
21
-23300
 0
LINE
8
COUCHE_1
 6
CONTINUOUS
62
0
10
29400
20
-24400
11
30400
21
-24400
 0
LINE
8
COUCHE_1
 6
CONTINUOUS
62
0
10
29400
20
-24400
11
29400
21
-23600
 0
LINE
8
COUCHE_1
 6
CONTINUOUS
62
0
10
29400
20
-23600
11
30400
21
-23600
 0
LINE
8
COUCHE_1
 6
CONTINUOUS
62
0
10
30000
20
-23600
11
29600
21
-24400
 0
LINE
8
COUCHE_1
 6
CONTINUOUS
62
0
10
38200
20
-23600
11
37200
21
-23600
 0
LINE
8
COUCHE_1
 6
CONTINUOUS
62
0
10
38200
20
-23600
11
38200
21
-24400
 0
LINE
8
COUCHE_1
 6
CONTINUOUS
62
0
10
38200
20
-24400
11
37200
21
-24400
 0
LINE
8
COUCHE_1
 6
CONTINUOUS
62
0
10
38000
20
-23600
11
37600
21
-24400
 0
LINE
8
COUCHE_1
 6
CONTINUOUS
62
0
10
37200
20
-23600
11
36200
21
-23600
 0
LINE
8
COUCHE_1
 6
CONTINUOUS
62
0
10
37200
20
-23600
11
37200
21
-24400
 0
LINE
8
COUCHE_1
 6
CONTINUOUS
62
0
10
37200
20
-24400
11
36200
21
-24400
 0
LINE
8
COUCHE_1
 6
CONTINUOUS
62
0
10
37200
20
-23600
11
36600
21
-24000
 0
LINE
8
COUCHE_1
 6
CONTINUOUS
62
0
10
36600
20
-24000
11
37200
21
-24400
 0
LINE
8
COUCHE_1
 6
CONTINUOUS
62
0
10
30400
20
-24400
11
31400
21
-24400
 0
LINE
8
COUCHE_1
 6
CONTINUOUS
62
0
10
30400
20
-24400
11
30400
21
-23600
 0
LINE
8
COUCHE_1
 6
CONTINUOUS
62
0
10
30400
20
-23600
11
31400
21
-23600
 0
LINE
8
COUCHE_1
 6
CONTINUOUS
62
0
10
30400
20
-23600
11
31000
21
-24000
 0
LINE
8
COUCHE_1
 6
CONTINUOUS
62
0
10
31000
20
-24000
11
30400
21
-24400
0
POLYLINE
5
2B
 8
0
62
1
 6
CONTINUOUS
 66
 1
 10
0
 20
0
 30
0
 70
1
 0
VERTEX
 5
33
  8
0
 10
34100
 20
-25500
 0
VERTEX
 5
33
  8
0
 10
34300
 20
-25500
 0
VERTEX
 5
33
  8
0
 10
34300
 20
-25700
 0
VERTEX
 5
33
  8
0
 10
34100
 20
-25700
 0
SEQEND
 5
37
 8
0
 0
LINE
8
COUCHE_1
 6
CONTINUOUS
62
1
10
34200
20
-25600
11
34200
21
-24800
0
TEXT
8
COUCHE_1
 10
34400
 20
-25000
 11
34400
 21
-25000
 40
200
 1
5
50
0
 72
0
 73
3
62
0
0
POLYLINE
5
2B
 8
0
62
1
 6
CONTINUOUS
 66
 1
 10
0
 20
0
 30
0
 70
1
 0
VERTEX
 5
33
  8
0
 10
34900
 20
-25500
 0
VERTEX
 5
33
  8
0
 10
35100
 20
-25500
 0
VERTEX
 5
33
  8
0
 10
35100
 20
-25700
 0
VERTEX
 5
33
  8
0
 10
34900
 20
-25700
 0
SEQEND
 5
37
 8
0
 0
LINE
8
COUCHE_1
 6
CONTINUOUS
62
1
10
35000
20
-25600
11
35000
21
-24800
0
TEXT
8
COUCHE_1
 10
35200
 20
-25000
 11
35200
 21
-25000
 40
200
 1
1
50
0
 72
0
 73
3
62
0
0
POLYLINE
5
2B
 8
0
62
1
 6
CONTINUOUS
 66
 1
 10
0
 20
0
 30
0
 70
1
 0
VERTEX
 5
33
  8
0
 10
34100
 20
-22300
 0
VERTEX
 5
33
  8
0
 10
34300
 20
-22300
 0
VERTEX
 5
33
  8
0
 10
34300
 20
-22500
 0
VERTEX
 5
33
  8
0
 10
34100
 20
-22500
 0
SEQEND
 5
37
 8
0
 0
LINE
8
COUCHE_1
 6
CONTINUOUS
62
1
10
34200
20
-22400
11
34200
21
-23200
0
TEXT
8
COUCHE_1
 10
34400
 20
-22600
 11
34400
 21
-22600
 40
200
 1
4
50
0
 72
0
 73
3
62
0
0
POLYLINE
5
2B
 8
0
62
1
 6
CONTINUOUS
 66
 1
 10
0
 20
0
 30
0
 70
1
 0
VERTEX
 5
33
  8
0
 10
35700
 20
-22300
 0
VERTEX
 5
33
  8
0
 10
35900
 20
-22300
 0
VERTEX
 5
33
  8
0
 10
35900
 20
-22500
 0
VERTEX
 5
33
  8
0
 10
35700
 20
-22500
 0
SEQEND
 5
37
 8
0
 0
LINE
8
COUCHE_1
 6
CONTINUOUS
62
1
10
35800
20
-22400
11
35800
21
-23200
0
TEXT
8
COUCHE_1
 10
36000
 20
-22600
 11
36000
 21
-22600
 40
200
 1
2
50
0
 72
0
 73
3
62
0
0
POLYLINE
5
2B
 8
0
62
1
 6
CONTINUOUS
 66
 1
 10
0
 20
0
 30
0
 70
1
 0
VERTEX
 5
33
  8
0
 10
35700
 20
-25500
 0
VERTEX
 5
33
  8
0
 10
35900
 20
-25500
 0
VERTEX
 5
33
  8
0
 10
35900
 20
-25700
 0
VERTEX
 5
33
  8
0
 10
35700
 20
-25700
 0
SEQEND
 5
37
 8
0
 0
LINE
8
COUCHE_1
 6
CONTINUOUS
62
1
10
35800
20
-25600
11
35800
21
-24800
0
TEXT
8
COUCHE_1
 10
36000
 20
-25000
 11
36000
 21
-25000
 40
200
 1
3
50
0
 72
0
 73
3
62
0
0
POLYLINE
5
2B
 8
0
62
1
 6
CONTINUOUS
 66
 1
 10
0
 20
0
 30
0
 70
1
 0
VERTEX
 5
33
  8
0
 10
29900
 20
-22700
 0
VERTEX
 5
33
  8
0
 10
30100
 20
-22700
 0
VERTEX
 5
33
  8
0
 10
30100
 20
-22900
 0
VERTEX
 5
33
  8
0
 10
29900
 20
-22900
 0
SEQEND
 5
37
 8
0
 0
LINE
8
COUCHE_1
 6
CONTINUOUS
62
1
10
30000
20
-22800
11
30000
21
-23600
0
TEXT
8
COUCHE_1
 10
30100
 20
-22900
 11
30100
 21
-22900
 40
200
 1

50
0
 72
0
 73
3
62
0
0
POLYLINE
5
2B
 8
0
62
1
 6
CONTINUOUS
 66
 1
 10
0
 20
0
 30
0
 70
1
 0
VERTEX
 5
33
  8
0
 10
29500
 20
-25100
 0
VERTEX
 5
33
  8
0
 10
29700
 20
-25100
 0
VERTEX
 5
33
  8
0
 10
29700
 20
-25300
 0
VERTEX
 5
33
  8
0
 10
29500
 20
-25300
 0
SEQEND
 5
37
 8
0
 0
LINE
8
COUCHE_1
 6
CONTINUOUS
62
1
10
29600
20
-25200
11
29600
21
-24400
0
TEXT
8
COUCHE_1
 10
29700
 20
-24500
 11
29700
 21
-24500
 40
200
 1

50
0
 72
0
 73
3
62
0
0
POLYLINE
5
2B
 8
0
62
1
 6
CONTINUOUS
 66
 1
 10
0
 20
0
 30
0
 70
1
 0
VERTEX
 5
33
  8
0
 10
37480
 20
-25100
 0
VERTEX
 5
33
  8
0
 10
37680
 20
-25100
 0
VERTEX
 5
33
  8
0
 10
37680
 20
-25300
 0
VERTEX
 5
33
  8
0
 10
37480
 20
-25300
 0
SEQEND
 5
37
 8
0
 0
LINE
8
COUCHE_1
 6
CONTINUOUS
62
1
10
37580
20
-25200
11
37580
21
-24400
0
TEXT
8
COUCHE_1
 10
37780
 20
-24600
 11
37780
 21
-24600
 40
200
 1

50
0
 72
0
 73
3
62
0
0
POLYLINE
5
2B
 8
0
62
1
 6
CONTINUOUS
 66
 1
 10
0
 20
0
 30
0
 70
1
 0
VERTEX
 5
33
  8
0
 10
37880
 20
-22700
 0
VERTEX
 5
33
  8
0
 10
38080
 20
-22700
 0
VERTEX
 5
33
  8
0
 10
38080
 20
-22900
 0
VERTEX
 5
33
  8
0
 10
37880
 20
-22900
 0
SEQEND
 5
37
 8
0
 0
LINE
8
COUCHE_1
 6
CONTINUOUS
62
1
10
37980
20
-22800
11
37980
21
-23600
0
TEXT
8
COUCHE_1
 10
38180
 20
-23000
 11
38180
 21
-23000
 40
200
 1

50
0
 72
0
 73
3
62
0
0
TEXT
8
COUCHE_1
 10
31400
 20
-22600
 11
31400
 21
-22600
 40
200
 1
011-1Y3
50
0
 72
0
 73
3
62
0
 0
LINE
8
COUCHE_1
 6
CONTINUOUS
62
0
10
30800
20
-33800
11
30800
21
-32200
 0
LINE
8
COUCHE_1
 6
CONTINUOUS
62
0
10
35600
20
-33800
11
35600
21
-32200
 0
LINE
8
COUCHE_1
 6
CONTINUOUS
62
0
10
33200
20
-32200
11
33200
21
-33800
 0
LINE
8
COUCHE_1
 6
CONTINUOUS
62
0
10
30800
20
-32200
11
35600
21
-32200
 0
LINE
8
COUCHE_1
 6
CONTINUOUS
62
0
10
30800
20
-33800
11
35600
21
-33800
 0
LINE
8
COUCHE_1
 6
CONTINUOUS
62
0
10
32800
20
-32200
11
32800
21
-33800
 0
LINE
8
COUCHE_1
 6
CONTINUOUS
62
0
10
31200
20
-33800
11
31200
21
-33500
 0
LINE
8
COUCHE_1
 6
CONTINUOUS
62
0
10
31200
20
-33500
11
31300
21
-33500
 0
LINE
8
COUCHE_1
 6
CONTINUOUS
62
0
10
31200
20
-33500
11
31100
21
-33500
 0
LINE
8
COUCHE_1
 6
CONTINUOUS
62
0
10
35200
20
-33800
11
35200
21
-33500
 0
LINE
8
COUCHE_1
 6
CONTINUOUS
62
0
10
35200
20
-33500
11
35100
21
-33500
 0
LINE
8
COUCHE_1
 6
CONTINUOUS
62
0
10
35200
20
-33500
11
35300
21
-33500
 0
LINE
8
COUCHE_1
 6
CONTINUOUS
62
0
10
33600
20
-33800
11
33600
21
-32200
 0
LINE
8
COUCHE_1
 6
CONTINUOUS
62
0
10
32800
20
-33800
11
32900
21
-33500
 0
LINE
8
COUCHE_1
 6
CONTINUOUS
62
0
10
32800
20
-33800
11
32700
21
-33500
 0
LINE
8
COUCHE_1
 6
CONTINUOUS
62
0
10
33600
20
-33800
11
33500
21
-33500
 0
LINE
8
COUCHE_1
 6
CONTINUOUS
62
0
10
33600
20
-33800
11
33700
21
-33500
 0
LINE
8
COUCHE_1
 6
CONTINUOUS
62
0
10
34400
20
-33800
11
35200
21
-32200
 0
LINE
8
COUCHE_1
 6
CONTINUOUS
62
0
10
35200
20
-32200
11
35200
21
-32450
 0
LINE
8
COUCHE_1
 6
CONTINUOUS
62
0
10
35200
20
-32200
11
35000
21
-32350
 0
LINE
8
COUCHE_1
 6
CONTINUOUS
62
0
10
32000
20
-33800
11
31200
21
-32200
 0
LINE
8
COUCHE_1
 6
CONTINUOUS
62
0
10
31200
20
-32200
11
31200
21
-32450
 0
LINE
8
COUCHE_1
 6
CONTINUOUS
62
0
10
31200
20
-32200
11
31400
21
-32300
 0
LINE
8
COUCHE_1
 6
CONTINUOUS
62
0
10
28800
20
-33400
11
29800
21
-33400
 0
LINE
8
COUCHE_1
 6
CONTINUOUS
62
0
10
28800
20
-33400
11
28800
21
-32600
 0
LINE
8
COUCHE_1
 6
CONTINUOUS
62
0
10
28800
20
-32600
11
29800
21
-32600
 0
LINE
8
COUCHE_1
 6
CONTINUOUS
62
0
10
29400
20
-32600
11
29000
21
-33400
 0
LINE
8
COUCHE_1
 6
CONTINUOUS
62
0
10
37600
20
-32600
11
36600
21
-32600
 0
LINE
8
COUCHE_1
 6
CONTINUOUS
62
0
10
37600
20
-32600
11
37600
21
-33400
 0
LINE
8
COUCHE_1
 6
CONTINUOUS
62
0
10
37600
20
-33400
11
36600
21
-33400
 0
LINE
8
COUCHE_1
 6
CONTINUOUS
62
0
10
37400
20
-32600
11
37000
21
-33400
 0
LINE
8
COUCHE_1
 6
CONTINUOUS
62
0
10
36600
20
-32600
11
35600
21
-32600
 0
LINE
8
COUCHE_1
 6
CONTINUOUS
62
0
10
36600
20
-32600
11
36600
21
-33400
 0
LINE
8
COUCHE_1
 6
CONTINUOUS
62
0
10
36600
20
-33400
11
35600
21
-33400
 0
LINE
8
COUCHE_1
 6
CONTINUOUS
62
0
10
36600
20
-32600
11
36000
21
-33000
 0
LINE
8
COUCHE_1
 6
CONTINUOUS
62
0
10
36000
20
-33000
11
36600
21
-33400
 0
LINE
8
COUCHE_1
 6
CONTINUOUS
62
0
10
29800
20
-33400
11
30800
21
-33400
 0
LINE
8
COUCHE_1
 6
CONTINUOUS
62
0
10
29800
20
-33400
11
29800
21
-32600
 0
LINE
8
COUCHE_1
 6
CONTINUOUS
62
0
10
29800
20
-32600
11
30800
21
-32600
 0
LINE
8
COUCHE_1
 6
CONTINUOUS
62
0
10
29800
20
-32600
11
30400
21
-33000
 0
LINE
8
COUCHE_1
 6
CONTINUOUS
62
0
10
30400
20
-33000
11
29800
21
-33400
0
POLYLINE
5
2B
 8
0
62
1
 6
CONTINUOUS
 66
 1
 10
0
 20
0
 30
0
 70
1
 0
VERTEX
 5
33
  8
0
 10
33500
 20
-34500
 0
VERTEX
 5
33
  8
0
 10
33700
 20
-34500
 0
VERTEX
 5
33
  8
0
 10
33700
 20
-34700
 0
VERTEX
 5
33
  8
0
 10
33500
 20
-34700
 0
SEQEND
 5
37
 8
0
 0
LINE
8
COUCHE_1
 6
CONTINUOUS
62
1
10
33600
20
-34600
11
33600
21
-33800
0
TEXT
8
COUCHE_1
 10
33800
 20
-34000
 11
33800
 21
-34000
 40
200
 1
5
50
0
 72
0
 73
3
62
0
0
POLYLINE
5
2B
 8
0
62
1
 6
CONTINUOUS
 66
 1
 10
0
 20
0
 30
0
 70
1
 0
VERTEX
 5
33
  8
0
 10
34300
 20
-34500
 0
VERTEX
 5
33
  8
0
 10
34500
 20
-34500
 0
VERTEX
 5
33
  8
0
 10
34500
 20
-34700
 0
VERTEX
 5
33
  8
0
 10
34300
 20
-34700
 0
SEQEND
 5
37
 8
0
 0
LINE
8
COUCHE_1
 6
CONTINUOUS
62
1
10
34400
20
-34600
11
34400
21
-33800
0
TEXT
8
COUCHE_1
 10
34600
 20
-34000
 11
34600
 21
-34000
 40
200
 1
1
50
0
 72
0
 73
3
62
0
0
POLYLINE
5
2B
 8
0
62
1
 6
CONTINUOUS
 66
 1
 10
0
 20
0
 30
0
 70
1
 0
VERTEX
 5
33
  8
0
 10
33500
 20
-31300
 0
VERTEX
 5
33
  8
0
 10
33700
 20
-31300
 0
VERTEX
 5
33
  8
0
 10
33700
 20
-31500
 0
VERTEX
 5
33
  8
0
 10
33500
 20
-31500
 0
SEQEND
 5
37
 8
0
 0
LINE
8
COUCHE_1
 6
CONTINUOUS
62
1
10
33600
20
-31400
11
33600
21
-32200
0
TEXT
8
COUCHE_1
 10
33800
 20
-31600
 11
33800
 21
-31600
 40
200
 1
4
50
0
 72
0
 73
3
62
0
0
POLYLINE
5
2B
 8
0
62
1
 6
CONTINUOUS
 66
 1
 10
0
 20
0
 30
0
 70
1
 0
VERTEX
 5
33
  8
0
 10
35100
 20
-31300
 0
VERTEX
 5
33
  8
0
 10
35300
 20
-31300
 0
VERTEX
 5
33
  8
0
 10
35300
 20
-31500
 0
VERTEX
 5
33
  8
0
 10
35100
 20
-31500
 0
SEQEND
 5
37
 8
0
 0
LINE
8
COUCHE_1
 6
CONTINUOUS
62
1
10
35200
20
-31400
11
35200
21
-32200
0
TEXT
8
COUCHE_1
 10
35400
 20
-31600
 11
35400
 21
-31600
 40
200
 1
2
50
0
 72
0
 73
3
62
0
0
POLYLINE
5
2B
 8
0
62
1
 6
CONTINUOUS
 66
 1
 10
0
 20
0
 30
0
 70
1
 0
VERTEX
 5
33
  8
0
 10
35100
 20
-34500
 0
VERTEX
 5
33
  8
0
 10
35300
 20
-34500
 0
VERTEX
 5
33
  8
0
 10
35300
 20
-34700
 0
VERTEX
 5
33
  8
0
 10
35100
 20
-34700
 0
SEQEND
 5
37
 8
0
 0
LINE
8
COUCHE_1
 6
CONTINUOUS
62
1
10
35200
20
-34600
11
35200
21
-33800
0
TEXT
8
COUCHE_1
 10
35400
 20
-34000
 11
35400
 21
-34000
 40
200
 1
3
50
0
 72
0
 73
3
62
0
0
POLYLINE
5
2B
 8
0
62
1
 6
CONTINUOUS
 66
 1
 10
0
 20
0
 30
0
 70
1
 0
VERTEX
 5
33
  8
0
 10
29300
 20
-31700
 0
VERTEX
 5
33
  8
0
 10
29500
 20
-31700
 0
VERTEX
 5
33
  8
0
 10
29500
 20
-31900
 0
VERTEX
 5
33
  8
0
 10
29300
 20
-31900
 0
SEQEND
 5
37
 8
0
 0
LINE
8
COUCHE_1
 6
CONTINUOUS
62
1
10
29400
20
-31800
11
29400
21
-32600
0
TEXT
8
COUCHE_1
 10
29500
 20
-31900
 11
29500
 21
-31900
 40
200
 1

50
0
 72
0
 73
3
62
0
0
POLYLINE
5
2B
 8
0
62
1
 6
CONTINUOUS
 66
 1
 10
0
 20
0
 30
0
 70
1
 0
VERTEX
 5
33
  8
0
 10
28900
 20
-34100
 0
VERTEX
 5
33
  8
0
 10
29100
 20
-34100
 0
VERTEX
 5
33
  8
0
 10
29100
 20
-34300
 0
VERTEX
 5
33
  8
0
 10
28900
 20
-34300
 0
SEQEND
 5
37
 8
0
 0
LINE
8
COUCHE_1
 6
CONTINUOUS
62
1
10
29000
20
-34200
11
29000
21
-33400
0
TEXT
8
COUCHE_1
 10
29100
 20
-33500
 11
29100
 21
-33500
 40
200
 1

50
0
 72
0
 73
3
62
0
0
POLYLINE
5
2B
 8
0
62
1
 6
CONTINUOUS
 66
 1
 10
0
 20
0
 30
0
 70
1
 0
VERTEX
 5
33
  8
0
 10
36880
 20
-34100
 0
VERTEX
 5
33
  8
0
 10
37080
 20
-34100
 0
VERTEX
 5
33
  8
0
 10
37080
 20
-34300
 0
VERTEX
 5
33
  8
0
 10
36880
 20
-34300
 0
SEQEND
 5
37
 8
0
 0
LINE
8
COUCHE_1
 6
CONTINUOUS
62
1
10
36980
20
-34200
11
36980
21
-33400
0
TEXT
8
COUCHE_1
 10
37180
 20
-33600
 11
37180
 21
-33600
 40
200
 1

50
0
 72
0
 73
3
62
0
0
POLYLINE
5
2B
 8
0
62
1
 6
CONTINUOUS
 66
 1
 10
0
 20
0
 30
0
 70
1
 0
VERTEX
 5
33
  8
0
 10
37280
 20
-31700
 0
VERTEX
 5
33
  8
0
 10
37480
 20
-31700
 0
VERTEX
 5
33
  8
0
 10
37480
 20
-31900
 0
VERTEX
 5
33
  8
0
 10
37280
 20
-31900
 0
SEQEND
 5
37
 8
0
 0
LINE
8
COUCHE_1
 6
CONTINUOUS
62
1
10
37380
20
-31800
11
37380
21
-32600
0
TEXT
8
COUCHE_1
 10
37580
 20
-32000
 11
37580
 21
-32000
 40
200
 1

50
0
 72
0
 73
3
62
0
0
TEXT
8
COUCHE_1
 10
31000
 20
-31600
 11
31000
 21
-31600
 40
200
 1
011-2Y1
50
0
 72
0
 73
3
62
0
 0
LINE
8
COUCHE_1
 6
CONTINUOUS
62
0
10
67200
20
-27010
11
72400
21
-27010
 0
LINE
8
COUCHE_1
 6
CONTINUOUS
62
0
10
72400
20
-25400
11
72400
21
-27010
 0
LINE
8
COUCHE_1
 6
CONTINUOUS
62
0
10
72400
20
-25400
11
67200
21
-25400
 0
LINE
8
COUCHE_1
 6
CONTINUOUS
62
0
10
67200
20
-25400
11
67200
21
-26950
 0
LINE
8
COUCHE_1
 6
CONTINUOUS
62
0
10
67200
20
-26950
11
67200
21
-27010
 0
LINE
8
COUCHE_1
 6
CONTINUOUS
62
0
10
73230
20
-26060
11
67890
21
-26060
 0
LINE
8
COUCHE_1
 6
CONTINUOUS
62
0
10
73230
20
-26060
11
73230
21
-26360
 0
LINE
8
COUCHE_1
 6
CONTINUOUS
62
0
10
73230
20
-26360
11
67890
21
-26360
 0
LINE
8
COUCHE_1
 6
CONTINUOUS
62
0
10
67570
20
-25400
11
67570
21
-27010
 0
LINE
8
COUCHE_1
 6
CONTINUOUS
62
0
10
67890
20
-27010
11
67570
21
-27010
 0
LINE
8
COUCHE_1
 6
CONTINUOUS
62
0
10
67890
20
-27010
11
67890
21
-25400
 0
LINE
8
COUCHE_1
 6
CONTINUOUS
62
0
10
67890
20
-25400
11
67570
21
-25400
0
POLYLINE
5
2B
 8
0
62
1
 6
CONTINUOUS
 66
 1
 10
0
 20
0
 30
0
 70
1
 0
VERTEX
 5
33
  8
0
 10
67350
 20
-27350
 0
VERTEX
 5
33
  8
0
 10
67450
 20
-27350
 0
VERTEX
 5
33
  8
0
 10
67450
 20
-27450
 0
VERTEX
 5
33
  8
0
 10
67350
 20
-27450
 0
SEQEND
 5
37
 8
0
 0
LINE
8
COUCHE_1
 6
CONTINUOUS
62
1
10
67400
20
-27400
11
67400
21
-27000
0
TEXT
8
COUCHE_1
 10
67450
 20
-27050
 11
67450
 21
-27050
 40
100
 1
1
50
0
 72
0
 73
3
62
0
0
POLYLINE
5
2B
 8
0
62
1
 6
CONTINUOUS
 66
 1
 10
0
 20
0
 30
0
 70
1
 0
VERTEX
 5
33
  8
0
 10
72150
 20
-27350
 0
VERTEX
 5
33
  8
0
 10
72250
 20
-27350
 0
VERTEX
 5
33
  8
0
 10
72250
 20
-27450
 0
VERTEX
 5
33
  8
0
 10
72150
 20
-27450
 0
SEQEND
 5
37
 8
0
 0
LINE
8
COUCHE_1
 6
CONTINUOUS
62
1
10
72200
20
-27400
11
72200
21
-27000
0
TEXT
8
COUCHE_1
 10
72250
 20
-27050
 11
72250
 21
-27050
 40
100
 1
2
50
0
 72
0
 73
3
62
0
0
TEXT
8
COUCHE_1
 10
69600
 20
-25000
 11
69600
 21
-25000
 40
200
 1
011_1A4
50
0
 72
1
 73
3
62
0
 0
LINE
8
COUCHE_1
 6
CONTINUOUS
62
0
10
67200
20
-31810
11
72400
21
-31810
 0
LINE
8
COUCHE_1
 6
CONTINUOUS
62
0
10
72400
20
-30200
11
72400
21
-31810
 0
LINE
8
COUCHE_1
 6
CONTINUOUS
62
0
10
72400
20
-30200
11
67200
21
-30200
 0
LINE
8
COUCHE_1
 6
CONTINUOUS
62
0
10
67200
20
-30200
11
67200
21
-31750
 0
LINE
8
COUCHE_1
 6
CONTINUOUS
62
0
10
67200
20
-31750
11
67200
21
-31810
 0
LINE
8
COUCHE_1
 6
CONTINUOUS
62
0
10
73230
20
-30860
11
67890
21
-30860
 0
LINE
8
COUCHE_1
 6
CONTINUOUS
62
0
10
73230
20
-30860
11
73230
21
-31160
 0
LINE
8
COUCHE_1
 6
CONTINUOUS
62
0
10
73230
20
-31160
11
67890
21
-31160
 0
LINE
8
COUCHE_1
 6
CONTINUOUS
62
0
10
67570
20
-30200
11
67570
21
-31810
 0
LINE
8
COUCHE_1
 6
CONTINUOUS
62
0
10
67890
20
-31810
11
67570
21
-31810
 0
LINE
8
COUCHE_1
 6
CONTINUOUS
62
0
10
67890
20
-31810
11
67890
21
-30200
 0
LINE
8
COUCHE_1
 6
CONTINUOUS
62
0
10
67890
20
-30200
11
67570
21
-30200
0
POLYLINE
5
2B
 8
0
62
1
 6
CONTINUOUS
 66
 1
 10
0
 20
0
 30
0
 70
1
 0
VERTEX
 5
33
  8
0
 10
67350
 20
-32150
 0
VERTEX
 5
33
  8
0
 10
67450
 20
-32150
 0
VERTEX
 5
33
  8
0
 10
67450
 20
-32250
 0
VERTEX
 5
33
  8
0
 10
67350
 20
-32250
 0
SEQEND
 5
37
 8
0
 0
LINE
8
COUCHE_1
 6
CONTINUOUS
62
1
10
67400
20
-32200
11
67400
21
-31800
0
TEXT
8
COUCHE_1
 10
67450
 20
-31850
 11
67450
 21
-31850
 40
100
 1
1
50
0
 72
0
 73
3
62
0
0
POLYLINE
5
2B
 8
0
62
1
 6
CONTINUOUS
 66
 1
 10
0
 20
0
 30
0
 70
1
 0
VERTEX
 5
33
  8
0
 10
72150
 20
-32150
 0
VERTEX
 5
33
  8
0
 10
72250
 20
-32150
 0
VERTEX
 5
33
  8
0
 10
72250
 20
-32250
 0
VERTEX
 5
33
  8
0
 10
72150
 20
-32250
 0
SEQEND
 5
37
 8
0
 0
LINE
8
COUCHE_1
 6
CONTINUOUS
62
1
10
72200
20
-32200
11
72200
21
-31800
0
TEXT
8
COUCHE_1
 10
72250
 20
-31850
 11
72250
 21
-31850
 40
100
 1
2
50
0
 72
0
 73
3
62
0
0
TEXT
8
COUCHE_1
 10
69800
 20
-29600
 11
69800
 21
-29600
 40
200
 1
011_1A5
50
0
 72
1
 73
3
62
0
 0
LINE
8
COUCHE_1
 6
CONTINUOUS
62
0
10
67050
20
-18210
11
72250
21
-18200
 0
LINE
8
COUCHE_1
 6
CONTINUOUS
62
0
10
72250
20
-16600
11
72250
21
-18200
 0
LINE
8
COUCHE_1
 6
CONTINUOUS
62
0
10
72250
20
-16600
11
67050
21
-16600
 0
LINE
8
COUCHE_1
 6
CONTINUOUS
62
0
10
67050
20
-16600
11
67050
21
-18110
 0
LINE
8
COUCHE_1
 6
CONTINUOUS
62
0
10
67050
20
-18110
11
67050
21
-18210
 0
LINE
8
COUCHE_1
 6
CONTINUOUS
62
0
10
73080
20
-17260
11
67740
21
-17260
 0
LINE
8
COUCHE_1
 6
CONTINUOUS
62
0
10
73080
20
-17260
11
73080
21
-17560
 0
LINE
8
COUCHE_1
 6
CONTINUOUS
62
0
10
73080
20
-17560
11
67750
21
-17560
 0
LINE
8
COUCHE_1
 6
CONTINUOUS
62
0
10
67410
20
-16600
11
67410
21
-18210
 0
LINE
8
COUCHE_1
 6
CONTINUOUS
62
0
10
67740
20
-18210
11
67410
21
-18210
 0
LINE
8
COUCHE_1
 6
CONTINUOUS
62
0
10
67740
20
-16600
11
67740
21
-18210
 0
LINE
8
COUCHE_1
 6
CONTINUOUS
62
0
10
67740
20
-16600
11
67410
21
-16600
 0
LINE
8
COUCHE_1
 6
CONTINUOUS
62
0
10
67740
20
-18200
11
68160
21
-16600
 0
LINE
8
COUCHE_1
 6
CONTINUOUS
62
0
10
68160
20
-16600
11
68600
21
-18190
 0
LINE
8
COUCHE_1
 6
CONTINUOUS
62
0
10
69020
20
-16600
11
68600
21
-18190
 0
LINE
8
COUCHE_1
 6
CONTINUOUS
62
0
10
69020
20
-16600
11
69500
21
-18190
 0
LINE
8
COUCHE_1
 6
CONTINUOUS
62
0
10
69500
20
-18190
11
69950
21
-16590
 0
LINE
8
COUCHE_1
 6
CONTINUOUS
62
0
10
69950
20
-16590
11
70470
21
-18190
 0
LINE
8
COUCHE_1
 6
CONTINUOUS
62
0
10
70470
20
-18190
11
70840
21
-16610
 0
LINE
8
COUCHE_1
 6
CONTINUOUS
62
0
10
70840
20
-16610
11
71340
21
-18190
 0
LINE
8
COUCHE_1
 6
CONTINUOUS
62
0
10
71340
20
-18190
11
71700
21
-16610
 0
LINE
8
COUCHE_1
 6
CONTINUOUS
62
0
10
71700
20
-16610
11
72220
21
-18180
 0
LINE
8
COUCHE_1
 6
CONTINUOUS
62
0
10
72120
20
-18380
11
71990
21
-18210
 0
LINE
8
COUCHE_1
 6
CONTINUOUS
62
0
10
72120
20
-18380
11
72250
21
-18210
 0
LINE
8
COUCHE_1
 6
CONTINUOUS
62
0
10
72250
20
-18210
11
71990
21
-18210
0
POLYLINE
5
2B
 8
0
62
1
 6
CONTINUOUS
 66
 1
 10
0
 20
0
 30
0
 70
1
 0
VERTEX
 5
33
  8
0
 10
67170
 20
-18550
 0
VERTEX
 5
33
  8
0
 10
67270
 20
-18550
 0
VERTEX
 5
33
  8
0
 10
67270
 20
-18650
 0
VERTEX
 5
33
  8
0
 10
67170
 20
-18650
 0
SEQEND
 5
37
 8
0
 0
LINE
8
COUCHE_1
 6
CONTINUOUS
62
1
10
67220
20
-18600
11
67220
21
-18200
0
TEXT
8
COUCHE_1
 10
67270
 20
-18250
 11
67270
 21
-18250
 40
150
 1
1
50
0
 72
0
 73
3
62
0
0
TEXT
8
COUCHE_1
 10
69600
 20
-16200
 11
69600
 21
-16200
 40
200
 1
011_1A3
50
0
 72
1
 73
3
62
0
 0
LINE
8
COUCHE_1
 6
CONTINUOUS
62
0
10
31400
20
-16000
11
31400
21
-17600
 0
LINE
8
COUCHE_1
 6
CONTINUOUS
62
0
10
34600
20
-16000
11
34600
21
-17600
 0
LINE
8
COUCHE_1
 6
CONTINUOUS
62
0
10
33000
20
-16000
11
33000
21
-17600
 0
LINE
8
COUCHE_1
 6
CONTINUOUS
62
0
10
31400
20
-16000
11
34600
21
-16000
 0
LINE
8
COUCHE_1
 6
CONTINUOUS
62
0
10
31400
20
-17600
11
34600
21
-17600
 0
LINE
8
COUCHE_1
 6
CONTINUOUS
62
0
10
33400
20
-17600
11
33400
21
-17300
 0
LINE
8
COUCHE_1
 6
CONTINUOUS
62
0
10
33400
20
-17300
11
33300
21
-17300
 0
LINE
8
COUCHE_1
 6
CONTINUOUS
62
0
10
33300
20
-17300
11
33500
21
-17300
 0
LINE
8
COUCHE_1
 6
CONTINUOUS
62
0
10
34200
20
-17600
11
33400
21
-16000
 0
LINE
8
COUCHE_1
 6
CONTINUOUS
62
0
10
31800
20
-17600
11
31800
21
-16000
 0
LINE
8
COUCHE_1
 6
CONTINUOUS
62
0
10
32600
20
-17600
11
32600
21
-17300
 0
LINE
8
COUCHE_1
 6
CONTINUOUS
62
0
10
32600
20
-17300
11
32500
21
-17300
 0
LINE
8
COUCHE_1
 6
CONTINUOUS
62
0
10
32500
20
-17300
11
32700
21
-17300
 0
LINE
8
COUCHE_1
 6
CONTINUOUS
62
0
10
31800
20
-16000
11
31650
21
-16200
 0
LINE
8
COUCHE_1
 6
CONTINUOUS
62
0
10
31800
20
-16000
11
31950
21
-16200
 0
LINE
8
COUCHE_1
 6
CONTINUOUS
62
0
10
34200
20
-17600
11
34050
21
-17500
 0
LINE
8
COUCHE_1
 6
CONTINUOUS
62
0
10
34200
20
-17600
11
34200
21
-17400
 0
LINE
8
COUCHE_1
 6
CONTINUOUS
62
0
10
34200
20
-17600
11
34050
21
-17500
 0
LINE
8
COUCHE_1
 6
CONTINUOUS
62
0
10
34600
20
-16500
11
34650
21
-16400
 0
LINE
8
COUCHE_1
 6
CONTINUOUS
62
0
10
34650
20
-16400
11
35050
21
-17200
 0
LINE
8
COUCHE_1
 6
CONTINUOUS
62
0
10
35050
20
-17200
11
35450
21
-16400
 0
LINE
8
COUCHE_1
 6
CONTINUOUS
62
0
10
35450
20
-16400
11
35850
21
-17200
 0
LINE
8
COUCHE_1
 6
CONTINUOUS
62
0
10
35850
20
-17200
11
36250
21
-16400
 0
LINE
8
COUCHE_1
 6
CONTINUOUS
62
0
10
36250
20
-16400
11
36300
21
-16500
 0
LINE
8
COUCHE_1
 6
CONTINUOUS
62
0
10
30400
20
-17200
11
31400
21
-17200
 0
LINE
8
COUCHE_1
 6
CONTINUOUS
62
0
10
30400
20
-17200
11
30400
21
-16400
 0
LINE
8
COUCHE_1
 6
CONTINUOUS
62
0
10
30400
20
-16400
11
31400
21
-16400
 0
LINE
8
COUCHE_1
 6
CONTINUOUS
62
0
10
31000
20
-16400
11
30600
21
-17200
0
POLYLINE
5
2B
 8
0
62
1
 6
CONTINUOUS
 66
 1
 10
0
 20
0
 30
0
 70
1
 0
VERTEX
 5
33
  8
0
 10
33300
 20
-18300
 0
VERTEX
 5
33
  8
0
 10
33500
 20
-18300
 0
VERTEX
 5
33
  8
0
 10
33500
 20
-18500
 0
VERTEX
 5
33
  8
0
 10
33300
 20
-18500
 0
SEQEND
 5
37
 8
0
 0
LINE
8
COUCHE_1
 6
CONTINUOUS
62
1
10
33400
20
-18400
11
33400
21
-17600
0
TEXT
8
COUCHE_1
 10
33600
 20
-17800
 11
33600
 21
-17800
 40
200
 1
1
50
0
 72
0
 73
3
62
0
0
POLYLINE
5
2B
 8
0
62
1
 6
CONTINUOUS
 66
 1
 10
0
 20
0
 30
0
 70
1
 0
VERTEX
 5
33
  8
0
 10
34100
 20
-18300
 0
VERTEX
 5
33
  8
0
 10
34300
 20
-18300
 0
VERTEX
 5
33
  8
0
 10
34300
 20
-18500
 0
VERTEX
 5
33
  8
0
 10
34100
 20
-18500
 0
SEQEND
 5
37
 8
0
 0
LINE
8
COUCHE_1
 6
CONTINUOUS
62
1
10
34200
20
-18400
11
34200
21
-17600
0
TEXT
8
COUCHE_1
 10
34400
 20
-17800
 11
34400
 21
-17800
 40
200
 1
3
50
0
 72
0
 73
3
62
0
0
POLYLINE
5
2B
 8
0
62
1
 6
CONTINUOUS
 66
 1
 10
0
 20
0
 30
0
 70
1
 0
VERTEX
 5
33
  8
0
 10
33300
 20
-15100
 0
VERTEX
 5
33
  8
0
 10
33500
 20
-15100
 0
VERTEX
 5
33
  8
0
 10
33500
 20
-15300
 0
VERTEX
 5
33
  8
0
 10
33300
 20
-15300
 0
SEQEND
 5
37
 8
0
 0
LINE
8
COUCHE_1
 6
CONTINUOUS
62
1
10
33400
20
-15200
11
33400
21
-16000
0
TEXT
8
COUCHE_1
 10
33600
 20
-15400
 11
33600
 21
-15400
 40
200
 1
2
50
0
 72
0
 73
3
62
0
0
POLYLINE
5
2B
 8
0
62
1
 6
CONTINUOUS
 66
 1
 10
0
 20
0
 30
0
 70
1
 0
VERTEX
 5
33
  8
0
 10
30900
 20
-15500
 0
VERTEX
 5
33
  8
0
 10
31100
 20
-15500
 0
VERTEX
 5
33
  8
0
 10
31100
 20
-15700
 0
VERTEX
 5
33
  8
0
 10
30900
 20
-15700
 0
SEQEND
 5
37
 8
0
 0
LINE
8
COUCHE_1
 6
CONTINUOUS
62
1
10
31000
20
-15600
11
31000
21
-16400
0
TEXT
8
COUCHE_1
 10
31100
 20
-15700
 11
31100
 21
-15700
 40
200
 1

50
0
 72
0
 73
3
62
0
0
POLYLINE
5
2B
 8
0
62
1
 6
CONTINUOUS
 66
 1
 10
0
 20
0
 30
0
 70
1
 0
VERTEX
 5
33
  8
0
 10
30500
 20
-17900
 0
VERTEX
 5
33
  8
0
 10
30700
 20
-17900
 0
VERTEX
 5
33
  8
0
 10
30700
 20
-18100
 0
VERTEX
 5
33
  8
0
 10
30500
 20
-18100
 0
SEQEND
 5
37
 8
0
 0
LINE
8
COUCHE_1
 6
CONTINUOUS
62
1
10
30600
20
-18000
11
30600
21
-17200
0
TEXT
8
COUCHE_1
 10
30700
 20
-17300
 11
30700
 21
-17300
 40
200
 1

50
0
 72
0
 73
3
62
0
0
TEXT
8
COUCHE_1
 10
31400
 20
-15400
 11
31400
 21
-15400
 40
200
 1
011-1Y2
50
0
 72
0
 73
3
62
0
 0
LINE
8
COUCHE_1
 6
CONTINUOUS
62
0
10
53700
20
-10500
11
53700
21
-13750
 0
LINE
8
COUCHE_1
 6
CONTINUOUS
62
0
10
53700
20
-13750
11
52100
21
-13750
 0
LINE
8
COUCHE_1
 6
CONTINUOUS
62
0
10
52100
20
-10500
11
52100
21
-13750
 0
LINE
8
COUCHE_1
 6
CONTINUOUS
62
0
10
52100
20
-10500
11
53700
21
-10500
 0
LINE
8
COUCHE_1
 6
CONTINUOUS
62
0
10
52500
20
-11100
11
52900
21
-11100
 0
LINE
8
COUCHE_1
 6
CONTINUOUS
62
0
10
52900
20
-12100
11
52500
21
-12100
 0
LINE
8
COUCHE_1
 6
CONTINUOUS
62
0
10
52900
20
-13100
11
52500
21
-13100
 0
ARC
8
COUCHE_1
62
0
10
52900
20
-11100
40
400
50
270
51
90
 0
ARC
8
COUCHE_1
62
0
10
52900
20
-12100
40
400
50
270
51
90
 0
ARC
8
COUCHE_1
62
0
10
52900
20
-13100
40
400
50
270
51
90
0
POLYLINE
5
2B
 8
0
62
1
 6
CONTINUOUS
 66
 1
 10
0
 20
0
 30
0
 70
1
 0
VERTEX
 5
33
  8
0
 10
51900
 20
-12900
 0
VERTEX
 5
33
  8
0
 10
52300
 20
-12900
 0
VERTEX
 5
33
  8
0
 10
52300
 20
-13300
 0
VERTEX
 5
33
  8
0
 10
51900
 20
-13300
 0
SEQEND
 5
37
 8
0
 0
LINE
8
COUCHE_1
 6
CONTINUOUS
62
1
10
52100
20
-13100
11
52100
21
-13100
0
TEXT
8
COUCHE_1
 10
52700
 20
-13500
 11
52700
 21
-13500
 40
600
 1

50
0
 72
1
 73
3
62
0
0
TEXT
8
COUCHE_1
 10
53300
 20
-13500
 11
53300
 21
-13500
 40
600
 1
 
50
0
 72
0
 73
3
62
0
0
POLYLINE
5
2B
 8
0
62
1
 6
CONTINUOUS
 66
 1
 10
0
 20
0
 30
0
 70
1
 0
VERTEX
 5
33
  8
0
 10
53500
 20
-10900
 0
VERTEX
 5
33
  8
0
 10
53900
 20
-10900
 0
VERTEX
 5
33
  8
0
 10
53900
 20
-11300
 0
VERTEX
 5
33
  8
0
 10
53500
 20
-11300
 0
SEQEND
 5
37
 8
0
 0
LINE
8
COUCHE_1
 6
CONTINUOUS
62
1
10
53700
20
-11100
11
53700
21
-11100
0
TEXT
8
COUCHE_1
 10
54300
 20
-11500
 11
54300
 21
-11500
 40
600
 1

50
0
 72
1
 73
3
62
0
0
TEXT
8
COUCHE_1
 10
54900
 20
-11500
 11
54900
 21
-11500
 40
600
 1
 
50
0
 72
0
 73
3
62
0
0
POLYLINE
5
2B
 8
0
62
1
 6
CONTINUOUS
 66
 1
 10
0
 20
0
 30
0
 70
1
 0
VERTEX
 5
33
  8
0
 10
53500
 20
-11900
 0
VERTEX
 5
33
  8
0
 10
53900
 20
-11900
 0
VERTEX
 5
33
  8
0
 10
53900
 20
-12300
 0
VERTEX
 5
33
  8
0
 10
53500
 20
-12300
 0
SEQEND
 5
37
 8
0
 0
LINE
8
COUCHE_1
 6
CONTINUOUS
62
1
10
53700
20
-12100
11
53700
21
-12100
0
TEXT
8
COUCHE_1
 10
54300
 20
-12500
 11
54300
 21
-12500
 40
600
 1

50
0
 72
1
 73
3
62
0
0
TEXT
8
COUCHE_1
 10
54900
 20
-12500
 11
54900
 21
-12500
 40
600
 1
 
50
0
 72
0
 73
3
62
0
0
POLYLINE
5
2B
 8
0
62
1
 6
CONTINUOUS
 66
 1
 10
0
 20
0
 30
0
 70
1
 0
VERTEX
 5
33
  8
0
 10
53500
 20
-12900
 0
VERTEX
 5
33
  8
0
 10
53900
 20
-12900
 0
VERTEX
 5
33
  8
0
 10
53900
 20
-13300
 0
VERTEX
 5
33
  8
0
 10
53500
 20
-13300
 0
SEQEND
 5
37
 8
0
 0
LINE
8
COUCHE_1
 6
CONTINUOUS
62
1
10
53700
20
-13100
11
53700
21
-13100
0
TEXT
8
COUCHE_1
 10
54300
 20
-13500
 11
54300
 21
-13500
 40
600
 1

50
0
 72
1
 73
3
62
0
0
TEXT
8
COUCHE_1
 10
54900
 20
-13500
 11
54900
 21
-13500
 40
600
 1
 
50
0
 72
0
 73
3
62
0
0
POLYLINE
5
2B
 8
0
62
1
 6
CONTINUOUS
 66
 1
 10
0
 20
0
 30
0
 70
1
 0
VERTEX
 5
33
  8
0
 10
51900
 20
-10900
 0
VERTEX
 5
33
  8
0
 10
52300
 20
-10900
 0
VERTEX
 5
33
  8
0
 10
52300
 20
-11300
 0
VERTEX
 5
33
  8
0
 10
51900
 20
-11300
 0
SEQEND
 5
37
 8
0
 0
LINE
8
COUCHE_1
 6
CONTINUOUS
62
1
10
52100
20
-11100
11
52100
21
-11100
0
TEXT
8
COUCHE_1
 10
52700
 20
-11500
 11
52700
 21
-11500
 40
600
 1

50
0
 72
1
 73
3
62
0
0
TEXT
8
COUCHE_1
 10
53300
 20
-11500
 11
53300
 21
-11500
 40
600
 1
 
50
0
 72
0
 73
3
62
0
0
POLYLINE
5
2B
 8
0
62
1
 6
CONTINUOUS
 66
 1
 10
0
 20
0
 30
0
 70
1
 0
VERTEX
 5
33
  8
0
 10
51900
 20
-11900
 0
VERTEX
 5
33
  8
0
 10
52300
 20
-11900
 0
VERTEX
 5
33
  8
0
 10
52300
 20
-12300
 0
VERTEX
 5
33
  8
0
 10
51900
 20
-12300
 0
SEQEND
 5
37
 8
0
 0
LINE
8
COUCHE_1
 6
CONTINUOUS
62
1
10
52100
20
-12100
11
52100
21
-12100
0
TEXT
8
COUCHE_1
 10
52700
 20
-12500
 11
52700
 21
-12500
 40
600
 1

50
0
 72
1
 73
3
62
0
0
TEXT
8
COUCHE_1
 10
53300
 20
-12500
 11
53300
 21
-12500
 40
600
 1
 
50
0
 72
0
 73
3
62
0
0
TEXT
8
COUCHE_1
 10
52200
 20
-9600
 11
52200
 21
-9600
 40
300
 1
Ha_2
50
0
 72
0
 73
3
62
0
 0
LINE
8
COUCHE_1
 6
CONTINUOUS
62
0
10
56600
20
-11000
11
57400
21
-11000
 0
LINE
8
COUCHE_1
 6
CONTINUOUS
62
0
10
57000
20
-11000
11
57000
21
-11600
 0
LINE
8
COUCHE_1
 6
CONTINUOUS
62
4
10
57200
20
-12000
11
58000
21
-12000
 0
LINE
8
COUCHE_1
 6
CONTINUOUS
62
4
10
57600
20
-12000
11
57600
21
-12600
 0
LINE
8
COUCHE_1
 6
CONTINUOUS
62
4
10
22800
20
-14800
11
22800
21
-14000
 0
LINE
8
COUCHE_1
 6
CONTINUOUS
62
4
10
22800
20
-14400
11
23400
21
-14400
 0
LINE
8
COUCHE_1
 6
CONTINUOUS
62
4
10
22800
20
-27400
11
22800
21
-26600
 0
LINE
8
COUCHE_1
 6
CONTINUOUS
62
4
10
22800
20
-27000
11
23400
21
-27000
 0
LINE
8
COUCHE_1
 6
CONTINUOUS
62
3
10
26800
20
-27800
11
26800
21
-27000
 0
LINE
8
COUCHE_1
 6
CONTINUOUS
62
3
10
26800
20
-27400
11
27400
21
-27400
 0
LINE
8
COUCHE_1
 6
CONTINUOUS
62
3
10
26800
20
-19400
11
26800
21
-18600
 0
LINE
8
COUCHE_1
 6
CONTINUOUS
62
3
10
26800
20
-19000
11
27400
21
-19000
 0
LINE
8
COUCHE_1
 6
CONTINUOUS
62
0
10
24200
20
-26600
11
24200
21
-25800
 0
LINE
8
COUCHE_1
 6
CONTINUOUS
62
0
10
24200
20
-26200
11
24800
21
-26200
 0
LINE
8
COUCHE_1
 6
CONTINUOUS
62
0
10
31200
20
-47400
11
31200
21
-45800
 0
LINE
8
COUCHE_1
 6
CONTINUOUS
62
0
10
36000
20
-47400
11
36000
21
-45800
 0
LINE
8
COUCHE_1
 6
CONTINUOUS
62
0
10
33600
20
-45800
11
33600
21
-47400
 0
LINE
8
COUCHE_1
 6
CONTINUOUS
62
0
10
31200
20
-45800
11
36000
21
-45800
 0
LINE
8
COUCHE_1
 6
CONTINUOUS
62
0
10
31200
20
-47400
11
36000
21
-47400
 0
LINE
8
COUCHE_1
 6
CONTINUOUS
62
0
10
33200
20
-45800
11
33200
21
-47400
 0
LINE
8
COUCHE_1
 6
CONTINUOUS
62
0
10
31600
20
-47400
11
31600
21
-47100
 0
LINE
8
COUCHE_1
 6
CONTINUOUS
62
0
10
31600
20
-47100
11
31700
21
-47100
 0
LINE
8
COUCHE_1
 6
CONTINUOUS
62
0
10
31600
20
-47100
11
31500
21
-47100
 0
LINE
8
COUCHE_1
 6
CONTINUOUS
62
0
10
35600
20
-47400
11
35600
21
-47100
 0
LINE
8
COUCHE_1
 6
CONTINUOUS
62
0
10
35600
20
-47100
11
35500
21
-47100
 0
LINE
8
COUCHE_1
 6
CONTINUOUS
62
0
10
35600
20
-47100
11
35700
21
-47100
 0
LINE
8
COUCHE_1
 6
CONTINUOUS
62
0
10
34000
20
-47400
11
34000
21
-45800
 0
LINE
8
COUCHE_1
 6
CONTINUOUS
62
0
10
33200
20
-47400
11
33300
21
-47100
 0
LINE
8
COUCHE_1
 6
CONTINUOUS
62
0
10
33200
20
-47400
11
33100
21
-47100
 0
LINE
8
COUCHE_1
 6
CONTINUOUS
62
0
10
34000
20
-47400
11
33900
21
-47100
 0
LINE
8
COUCHE_1
 6
CONTINUOUS
62
0
10
34000
20
-47400
11
34100
21
-47100
 0
LINE
8
COUCHE_1
 6
CONTINUOUS
62
0
10
34800
20
-47400
11
35600
21
-45800
 0
LINE
8
COUCHE_1
 6
CONTINUOUS
62
0
10
35600
20
-45800
11
35600
21
-46050
 0
LINE
8
COUCHE_1
 6
CONTINUOUS
62
0
10
35600
20
-45800
11
35400
21
-45950
 0
LINE
8
COUCHE_1
 6
CONTINUOUS
62
0
10
32400
20
-47400
11
31600
21
-45800
 0
LINE
8
COUCHE_1
 6
CONTINUOUS
62
0
10
31600
20
-45800
11
31600
21
-46050
 0
LINE
8
COUCHE_1
 6
CONTINUOUS
62
0
10
31600
20
-45800
11
31800
21
-45900
 0
LINE
8
COUCHE_1
 6
CONTINUOUS
62
0
10
29200
20
-47000
11
30200
21
-47000
 0
LINE
8
COUCHE_1
 6
CONTINUOUS
62
0
10
29200
20
-47000
11
29200
21
-46200
 0
LINE
8
COUCHE_1
 6
CONTINUOUS
62
0
10
29200
20
-46200
11
30200
21
-46200
 0
LINE
8
COUCHE_1
 6
CONTINUOUS
62
0
10
29800
20
-46200
11
29400
21
-47000
 0
LINE
8
COUCHE_1
 6
CONTINUOUS
62
0
10
38000
20
-46200
11
37000
21
-46200
 0
LINE
8
COUCHE_1
 6
CONTINUOUS
62
0
10
38000
20
-46200
11
38000
21
-47000
 0
LINE
8
COUCHE_1
 6
CONTINUOUS
62
0
10
38000
20
-47000
11
37000
21
-47000
 0
LINE
8
COUCHE_1
 6
CONTINUOUS
62
0
10
37800
20
-46200
11
37400
21
-47000
 0
LINE
8
COUCHE_1
 6
CONTINUOUS
62
0
10
37000
20
-46200
11
36000
21
-46200
 0
LINE
8
COUCHE_1
 6
CONTINUOUS
62
0
10
37000
20
-46200
11
37000
21
-47000
 0
LINE
8
COUCHE_1
 6
CONTINUOUS
62
0
10
37000
20
-47000
11
36000
21
-47000
 0
LINE
8
COUCHE_1
 6
CONTINUOUS
62
0
10
37000
20
-46200
11
36400
21
-46600
 0
LINE
8
COUCHE_1
 6
CONTINUOUS
62
0
10
36400
20
-46600
11
37000
21
-47000
 0
LINE
8
COUCHE_1
 6
CONTINUOUS
62
0
10
30200
20
-47000
11
31200
21
-47000
 0
LINE
8
COUCHE_1
 6
CONTINUOUS
62
0
10
30200
20
-47000
11
30200
21
-46200
 0
LINE
8
COUCHE_1
 6
CONTINUOUS
62
0
10
30200
20
-46200
11
31200
21
-46200
 0
LINE
8
COUCHE_1
 6
CONTINUOUS
62
0
10
30200
20
-46200
11
30800
21
-46600
 0
LINE
8
COUCHE_1
 6
CONTINUOUS
62
0
10
30800
20
-46600
11
30200
21
-47000
0
POLYLINE
5
2B
 8
0
62
1
 6
CONTINUOUS
 66
 1
 10
0
 20
0
 30
0
 70
1
 0
VERTEX
 5
33
  8
0
 10
33900
 20
-48100
 0
VERTEX
 5
33
  8
0
 10
34100
 20
-48100
 0
VERTEX
 5
33
  8
0
 10
34100
 20
-48300
 0
VERTEX
 5
33
  8
0
 10
33900
 20
-48300
 0
SEQEND
 5
37
 8
0
 0
LINE
8
COUCHE_1
 6
CONTINUOUS
62
1
10
34000
20
-48200
11
34000
21
-47400
0
TEXT
8
COUCHE_1
 10
34200
 20
-47600
 11
34200
 21
-47600
 40
200
 1
5
50
0
 72
0
 73
3
62
0
0
POLYLINE
5
2B
 8
0
62
1
 6
CONTINUOUS
 66
 1
 10
0
 20
0
 30
0
 70
1
 0
VERTEX
 5
33
  8
0
 10
34700
 20
-48100
 0
VERTEX
 5
33
  8
0
 10
34900
 20
-48100
 0
VERTEX
 5
33
  8
0
 10
34900
 20
-48300
 0
VERTEX
 5
33
  8
0
 10
34700
 20
-48300
 0
SEQEND
 5
37
 8
0
 0
LINE
8
COUCHE_1
 6
CONTINUOUS
62
1
10
34800
20
-48200
11
34800
21
-47400
0
TEXT
8
COUCHE_1
 10
35000
 20
-47600
 11
35000
 21
-47600
 40
200
 1
1
50
0
 72
0
 73
3
62
0
0
POLYLINE
5
2B
 8
0
62
1
 6
CONTINUOUS
 66
 1
 10
0
 20
0
 30
0
 70
1
 0
VERTEX
 5
33
  8
0
 10
33900
 20
-44900
 0
VERTEX
 5
33
  8
0
 10
34100
 20
-44900
 0
VERTEX
 5
33
  8
0
 10
34100
 20
-45100
 0
VERTEX
 5
33
  8
0
 10
33900
 20
-45100
 0
SEQEND
 5
37
 8
0
 0
LINE
8
COUCHE_1
 6
CONTINUOUS
62
1
10
34000
20
-45000
11
34000
21
-45800
0
TEXT
8
COUCHE_1
 10
34200
 20
-45200
 11
34200
 21
-45200
 40
200
 1
4
50
0
 72
0
 73
3
62
0
0
POLYLINE
5
2B
 8
0
62
1
 6
CONTINUOUS
 66
 1
 10
0
 20
0
 30
0
 70
1
 0
VERTEX
 5
33
  8
0
 10
35500
 20
-44900
 0
VERTEX
 5
33
  8
0
 10
35700
 20
-44900
 0
VERTEX
 5
33
  8
0
 10
35700
 20
-45100
 0
VERTEX
 5
33
  8
0
 10
35500
 20
-45100
 0
SEQEND
 5
37
 8
0
 0
LINE
8
COUCHE_1
 6
CONTINUOUS
62
1
10
35600
20
-45000
11
35600
21
-45800
0
TEXT
8
COUCHE_1
 10
35800
 20
-45200
 11
35800
 21
-45200
 40
200
 1
2
50
0
 72
0
 73
3
62
0
0
POLYLINE
5
2B
 8
0
62
1
 6
CONTINUOUS
 66
 1
 10
0
 20
0
 30
0
 70
1
 0
VERTEX
 5
33
  8
0
 10
35500
 20
-48100
 0
VERTEX
 5
33
  8
0
 10
35700
 20
-48100
 0
VERTEX
 5
33
  8
0
 10
35700
 20
-48300
 0
VERTEX
 5
33
  8
0
 10
35500
 20
-48300
 0
SEQEND
 5
37
 8
0
 0
LINE
8
COUCHE_1
 6
CONTINUOUS
62
1
10
35600
20
-48200
11
35600
21
-47400
0
TEXT
8
COUCHE_1
 10
35800
 20
-47600
 11
35800
 21
-47600
 40
200
 1
3
50
0
 72
0
 73
3
62
0
0
POLYLINE
5
2B
 8
0
62
1
 6
CONTINUOUS
 66
 1
 10
0
 20
0
 30
0
 70
1
 0
VERTEX
 5
33
  8
0
 10
29700
 20
-45300
 0
VERTEX
 5
33
  8
0
 10
29900
 20
-45300
 0
VERTEX
 5
33
  8
0
 10
29900
 20
-45500
 0
VERTEX
 5
33
  8
0
 10
29700
 20
-45500
 0
SEQEND
 5
37
 8
0
 0
LINE
8
COUCHE_1
 6
CONTINUOUS
62
1
10
29800
20
-45400
11
29800
21
-46200
0
TEXT
8
COUCHE_1
 10
29900
 20
-45500
 11
29900
 21
-45500
 40
200
 1

50
0
 72
0
 73
3
62
0
0
POLYLINE
5
2B
 8
0
62
1
 6
CONTINUOUS
 66
 1
 10
0
 20
0
 30
0
 70
1
 0
VERTEX
 5
33
  8
0
 10
29300
 20
-47700
 0
VERTEX
 5
33
  8
0
 10
29500
 20
-47700
 0
VERTEX
 5
33
  8
0
 10
29500
 20
-47900
 0
VERTEX
 5
33
  8
0
 10
29300
 20
-47900
 0
SEQEND
 5
37
 8
0
 0
LINE
8
COUCHE_1
 6
CONTINUOUS
62
1
10
29400
20
-47800
11
29400
21
-47000
0
TEXT
8
COUCHE_1
 10
29500
 20
-47100
 11
29500
 21
-47100
 40
200
 1

50
0
 72
0
 73
3
62
0
0
POLYLINE
5
2B
 8
0
62
1
 6
CONTINUOUS
 66
 1
 10
0
 20
0
 30
0
 70
1
 0
VERTEX
 5
33
  8
0
 10
37280
 20
-47700
 0
VERTEX
 5
33
  8
0
 10
37480
 20
-47700
 0
VERTEX
 5
33
  8
0
 10
37480
 20
-47900
 0
VERTEX
 5
33
  8
0
 10
37280
 20
-47900
 0
SEQEND
 5
37
 8
0
 0
LINE
8
COUCHE_1
 6
CONTINUOUS
62
1
10
37380
20
-47800
11
37380
21
-47000
0
TEXT
8
COUCHE_1
 10
37580
 20
-47200
 11
37580
 21
-47200
 40
200
 1

50
0
 72
0
 73
3
62
0
0
POLYLINE
5
2B
 8
0
62
1
 6
CONTINUOUS
 66
 1
 10
0
 20
0
 30
0
 70
1
 0
VERTEX
 5
33
  8
0
 10
37680
 20
-45300
 0
VERTEX
 5
33
  8
0
 10
37880
 20
-45300
 0
VERTEX
 5
33
  8
0
 10
37880
 20
-45500
 0
VERTEX
 5
33
  8
0
 10
37680
 20
-45500
 0
SEQEND
 5
37
 8
0
 0
LINE
8
COUCHE_1
 6
CONTINUOUS
62
1
10
37780
20
-45400
11
37780
21
-46200
0
TEXT
8
COUCHE_1
 10
37980
 20
-45600
 11
37980
 21
-45600
 40
200
 1

50
0
 72
0
 73
3
62
0
0
TEXT
8
COUCHE_1
 10
31200
 20
-45200
 11
31200
 21
-45200
 40
200
 1
011-1Y4
50
0
 72
0
 73
3
62
0
 0
LINE
8
COUCHE_1
 6
CONTINUOUS
62
0
10
31200
20
-41400
11
31200
21
-39800
 0
LINE
8
COUCHE_1
 6
CONTINUOUS
62
0
10
36000
20
-41400
11
36000
21
-39800
 0
LINE
8
COUCHE_1
 6
CONTINUOUS
62
0
10
33600
20
-39800
11
33600
21
-41400
 0
LINE
8
COUCHE_1
 6
CONTINUOUS
62
0
10
31200
20
-39800
11
36000
21
-39800
 0
LINE
8
COUCHE_1
 6
CONTINUOUS
62
0
10
31200
20
-41400
11
36000
21
-41400
 0
LINE
8
COUCHE_1
 6
CONTINUOUS
62
0
10
33200
20
-39800
11
33200
21
-41400
 0
LINE
8
COUCHE_1
 6
CONTINUOUS
62
0
10
31600
20
-41400
11
31600
21
-41100
 0
LINE
8
COUCHE_1
 6
CONTINUOUS
62
0
10
31600
20
-41100
11
31700
21
-41100
 0
LINE
8
COUCHE_1
 6
CONTINUOUS
62
0
10
31600
20
-41100
11
31500
21
-41100
 0
LINE
8
COUCHE_1
 6
CONTINUOUS
62
0
10
35600
20
-41400
11
35600
21
-41100
 0
LINE
8
COUCHE_1
 6
CONTINUOUS
62
0
10
35600
20
-41100
11
35500
21
-41100
 0
LINE
8
COUCHE_1
 6
CONTINUOUS
62
0
10
35600
20
-41100
11
35700
21
-41100
 0
LINE
8
COUCHE_1
 6
CONTINUOUS
62
0
10
34000
20
-41400
11
34000
21
-39800
 0
LINE
8
COUCHE_1
 6
CONTINUOUS
62
0
10
33200
20
-41400
11
33300
21
-41100
 0
LINE
8
COUCHE_1
 6
CONTINUOUS
62
0
10
33200
20
-41400
11
33100
21
-41100
 0
LINE
8
COUCHE_1
 6
CONTINUOUS
62
0
10
34000
20
-41400
11
33900
21
-41100
 0
LINE
8
COUCHE_1
 6
CONTINUOUS
62
0
10
34000
20
-41400
11
34100
21
-41100
 0
LINE
8
COUCHE_1
 6
CONTINUOUS
62
0
10
34800
20
-41400
11
35600
21
-39800
 0
LINE
8
COUCHE_1
 6
CONTINUOUS
62
0
10
35600
20
-39800
11
35600
21
-40050
 0
LINE
8
COUCHE_1
 6
CONTINUOUS
62
0
10
35600
20
-39800
11
35400
21
-39950
 0
LINE
8
COUCHE_1
 6
CONTINUOUS
62
0
10
32400
20
-41400
11
31600
21
-39800
 0
LINE
8
COUCHE_1
 6
CONTINUOUS
62
0
10
31600
20
-39800
11
31600
21
-40050
 0
LINE
8
COUCHE_1
 6
CONTINUOUS
62
0
10
31600
20
-39800
11
31800
21
-39900
 0
LINE
8
COUCHE_1
 6
CONTINUOUS
62
0
10
29200
20
-41000
11
30200
21
-41000
 0
LINE
8
COUCHE_1
 6
CONTINUOUS
62
0
10
29200
20
-41000
11
29200
21
-40200
 0
LINE
8
COUCHE_1
 6
CONTINUOUS
62
0
10
29200
20
-40200
11
30200
21
-40200
 0
LINE
8
COUCHE_1
 6
CONTINUOUS
62
0
10
29800
20
-40200
11
29400
21
-41000
 0
LINE
8
COUCHE_1
 6
CONTINUOUS
62
0
10
38000
20
-40200
11
37000
21
-40200
 0
LINE
8
COUCHE_1
 6
CONTINUOUS
62
0
10
38000
20
-40200
11
38000
21
-41000
 0
LINE
8
COUCHE_1
 6
CONTINUOUS
62
0
10
38000
20
-41000
11
37000
21
-41000
 0
LINE
8
COUCHE_1
 6
CONTINUOUS
62
0
10
37800
20
-40200
11
37400
21
-41000
 0
LINE
8
COUCHE_1
 6
CONTINUOUS
62
0
10
37000
20
-40200
11
36000
21
-40200
 0
LINE
8
COUCHE_1
 6
CONTINUOUS
62
0
10
37000
20
-40200
11
37000
21
-41000
 0
LINE
8
COUCHE_1
 6
CONTINUOUS
62
0
10
37000
20
-41000
11
36000
21
-41000
 0
LINE
8
COUCHE_1
 6
CONTINUOUS
62
0
10
37000
20
-40200
11
36400
21
-40600
 0
LINE
8
COUCHE_1
 6
CONTINUOUS
62
0
10
36400
20
-40600
11
37000
21
-41000
 0
LINE
8
COUCHE_1
 6
CONTINUOUS
62
0
10
30200
20
-41000
11
31200
21
-41000
 0
LINE
8
COUCHE_1
 6
CONTINUOUS
62
0
10
30200
20
-41000
11
30200
21
-40200
 0
LINE
8
COUCHE_1
 6
CONTINUOUS
62
0
10
30200
20
-40200
11
31200
21
-40200
 0
LINE
8
COUCHE_1
 6
CONTINUOUS
62
0
10
30200
20
-40200
11
30800
21
-40600
 0
LINE
8
COUCHE_1
 6
CONTINUOUS
62
0
10
30800
20
-40600
11
30200
21
-41000
0
POLYLINE
5
2B
 8
0
62
1
 6
CONTINUOUS
 66
 1
 10
0
 20
0
 30
0
 70
1
 0
VERTEX
 5
33
  8
0
 10
33900
 20
-42100
 0
VERTEX
 5
33
  8
0
 10
34100
 20
-42100
 0
VERTEX
 5
33
  8
0
 10
34100
 20
-42300
 0
VERTEX
 5
33
  8
0
 10
33900
 20
-42300
 0
SEQEND
 5
37
 8
0
 0
LINE
8
COUCHE_1
 6
CONTINUOUS
62
1
10
34000
20
-42200
11
34000
21
-41400
0
TEXT
8
COUCHE_1
 10
34200
 20
-41600
 11
34200
 21
-41600
 40
200
 1
5
50
0
 72
0
 73
3
62
0
0
POLYLINE
5
2B
 8
0
62
1
 6
CONTINUOUS
 66
 1
 10
0
 20
0
 30
0
 70
1
 0
VERTEX
 5
33
  8
0
 10
34700
 20
-42100
 0
VERTEX
 5
33
  8
0
 10
34900
 20
-42100
 0
VERTEX
 5
33
  8
0
 10
34900
 20
-42300
 0
VERTEX
 5
33
  8
0
 10
34700
 20
-42300
 0
SEQEND
 5
37
 8
0
 0
LINE
8
COUCHE_1
 6
CONTINUOUS
62
1
10
34800
20
-42200
11
34800
21
-41400
0
TEXT
8
COUCHE_1
 10
35000
 20
-41600
 11
35000
 21
-41600
 40
200
 1
1
50
0
 72
0
 73
3
62
0
0
POLYLINE
5
2B
 8
0
62
1
 6
CONTINUOUS
 66
 1
 10
0
 20
0
 30
0
 70
1
 0
VERTEX
 5
33
  8
0
 10
33900
 20
-38900
 0
VERTEX
 5
33
  8
0
 10
34100
 20
-38900
 0
VERTEX
 5
33
  8
0
 10
34100
 20
-39100
 0
VERTEX
 5
33
  8
0
 10
33900
 20
-39100
 0
SEQEND
 5
37
 8
0
 0
LINE
8
COUCHE_1
 6
CONTINUOUS
62
1
10
34000
20
-39000
11
34000
21
-39800
0
TEXT
8
COUCHE_1
 10
34200
 20
-39200
 11
34200
 21
-39200
 40
200
 1
4
50
0
 72
0
 73
3
62
0
0
POLYLINE
5
2B
 8
0
62
1
 6
CONTINUOUS
 66
 1
 10
0
 20
0
 30
0
 70
1
 0
VERTEX
 5
33
  8
0
 10
35500
 20
-38900
 0
VERTEX
 5
33
  8
0
 10
35700
 20
-38900
 0
VERTEX
 5
33
  8
0
 10
35700
 20
-39100
 0
VERTEX
 5
33
  8
0
 10
35500
 20
-39100
 0
SEQEND
 5
37
 8
0
 0
LINE
8
COUCHE_1
 6
CONTINUOUS
62
1
10
35600
20
-39000
11
35600
21
-39800
0
TEXT
8
COUCHE_1
 10
35800
 20
-39200
 11
35800
 21
-39200
 40
200
 1
2
50
0
 72
0
 73
3
62
0
0
POLYLINE
5
2B
 8
0
62
1
 6
CONTINUOUS
 66
 1
 10
0
 20
0
 30
0
 70
1
 0
VERTEX
 5
33
  8
0
 10
35500
 20
-42100
 0
VERTEX
 5
33
  8
0
 10
35700
 20
-42100
 0
VERTEX
 5
33
  8
0
 10
35700
 20
-42300
 0
VERTEX
 5
33
  8
0
 10
35500
 20
-42300
 0
SEQEND
 5
37
 8
0
 0
LINE
8
COUCHE_1
 6
CONTINUOUS
62
1
10
35600
20
-42200
11
35600
21
-41400
0
TEXT
8
COUCHE_1
 10
35800
 20
-41600
 11
35800
 21
-41600
 40
200
 1
3
50
0
 72
0
 73
3
62
0
0
POLYLINE
5
2B
 8
0
62
1
 6
CONTINUOUS
 66
 1
 10
0
 20
0
 30
0
 70
1
 0
VERTEX
 5
33
  8
0
 10
29700
 20
-39300
 0
VERTEX
 5
33
  8
0
 10
29900
 20
-39300
 0
VERTEX
 5
33
  8
0
 10
29900
 20
-39500
 0
VERTEX
 5
33
  8
0
 10
29700
 20
-39500
 0
SEQEND
 5
37
 8
0
 0
LINE
8
COUCHE_1
 6
CONTINUOUS
62
1
10
29800
20
-39400
11
29800
21
-40200
0
TEXT
8
COUCHE_1
 10
29900
 20
-39500
 11
29900
 21
-39500
 40
200
 1

50
0
 72
0
 73
3
62
0
0
POLYLINE
5
2B
 8
0
62
1
 6
CONTINUOUS
 66
 1
 10
0
 20
0
 30
0
 70
1
 0
VERTEX
 5
33
  8
0
 10
29300
 20
-41700
 0
VERTEX
 5
33
  8
0
 10
29500
 20
-41700
 0
VERTEX
 5
33
  8
0
 10
29500
 20
-41900
 0
VERTEX
 5
33
  8
0
 10
29300
 20
-41900
 0
SEQEND
 5
37
 8
0
 0
LINE
8
COUCHE_1
 6
CONTINUOUS
62
1
10
29400
20
-41800
11
29400
21
-41000
0
TEXT
8
COUCHE_1
 10
29500
 20
-41100
 11
29500
 21
-41100
 40
200
 1

50
0
 72
0
 73
3
62
0
0
POLYLINE
5
2B
 8
0
62
1
 6
CONTINUOUS
 66
 1
 10
0
 20
0
 30
0
 70
1
 0
VERTEX
 5
33
  8
0
 10
37280
 20
-41700
 0
VERTEX
 5
33
  8
0
 10
37480
 20
-41700
 0
VERTEX
 5
33
  8
0
 10
37480
 20
-41900
 0
VERTEX
 5
33
  8
0
 10
37280
 20
-41900
 0
SEQEND
 5
37
 8
0
 0
LINE
8
COUCHE_1
 6
CONTINUOUS
62
1
10
37380
20
-41800
11
37380
21
-41000
0
TEXT
8
COUCHE_1
 10
37580
 20
-41200
 11
37580
 21
-41200
 40
200
 1

50
0
 72
0
 73
3
62
0
0
POLYLINE
5
2B
 8
0
62
1
 6
CONTINUOUS
 66
 1
 10
0
 20
0
 30
0
 70
1
 0
VERTEX
 5
33
  8
0
 10
37680
 20
-39300
 0
VERTEX
 5
33
  8
0
 10
37880
 20
-39300
 0
VERTEX
 5
33
  8
0
 10
37880
 20
-39500
 0
VERTEX
 5
33
  8
0
 10
37680
 20
-39500
 0
SEQEND
 5
37
 8
0
 0
LINE
8
COUCHE_1
 6
CONTINUOUS
62
1
10
37780
20
-39400
11
37780
21
-40200
0
TEXT
8
COUCHE_1
 10
37980
 20
-39600
 11
37980
 21
-39600
 40
200
 1

50
0
 72
0
 73
3
62
0
0
TEXT
8
COUCHE_1
 10
31200
 20
-39200
 11
31200
 21
-39200
 40
200
 1
011-1Y4
50
0
 72
0
 73
3
62
0
 0
LINE
8
COUCHE_1
 6
CONTINUOUS
62
4
10
22800
20
-42800
11
22800
21
-42000
 0
LINE
8
COUCHE_1
 6
CONTINUOUS
62
4
10
22800
20
-42400
11
23400
21
-42400
 0
LINE
8
COUCHE_1
 6
CONTINUOUS
62
4
10
22800
20
-48800
11
22800
21
-48000
 0
LINE
8
COUCHE_1
 6
CONTINUOUS
62
4
10
22800
20
-48400
11
23400
21
-48400
 0
LINE
8
COUCHE_1
 6
CONTINUOUS
62
4
10
22800
20
-38200
11
22800
21
-37400
 0
LINE
8
COUCHE_1
 6
CONTINUOUS
62
4
10
22800
20
-37800
11
23400
21
-37800
 0
LINE
8
COUCHE_1
 6
CONTINUOUS
62
0
10
24200
20
-48600
11
24200
21
-47800
 0
LINE
8
COUCHE_1
 6
CONTINUOUS
62
0
10
24200
20
-48200
11
24800
21
-48200
 0
LINE
8
COUCHE_1
 6
CONTINUOUS
62
0
10
24200
20
-42600
11
24200
21
-41800
 0
LINE
8
COUCHE_1
 6
CONTINUOUS
62
0
10
24200
20
-42200
11
24800
21
-42200
 0
LINE
8
COUCHE_1
 6
CONTINUOUS
62
0
10
24200
20
-36600
11
24200
21
-35800
 0
LINE
8
COUCHE_1
 6
CONTINUOUS
62
0
10
24200
20
-36200
11
24800
21
-36200
 0
LINE
8
COUCHE_1
 6
CONTINUOUS
62
3
10
26800
20
-49000
11
26800
21
-48200
 0
LINE
8
COUCHE_1
 6
CONTINUOUS
62
3
10
26800
20
-48600
11
27400
21
-48600
 0
LINE
8
COUCHE_1
 6
CONTINUOUS
62
3
10
26800
20
-43000
11
26800
21
-42200
 0
LINE
8
COUCHE_1
 6
CONTINUOUS
62
3
10
26800
20
-42600
11
27400
21
-42600
 0
LINE
8
COUCHE_1
 6
CONTINUOUS
62
3
10
26800
20
-39000
11
26800
21
-38200
 0
LINE
8
COUCHE_1
 6
CONTINUOUS
62
3
10
26800
20
-38600
11
27400
21
-38600
 0
LINE
8
COUCHE_1
 6
CONTINUOUS
62
0
10
60200
20
-27137
11
60200
21
-27687
 0
LINE
8
COUCHE_1
 6
CONTINUOUS
62
0
10
60762
20
-27687
11
60200
21
-27687
 0
LINE
8
COUCHE_1
 6
CONTINUOUS
62
0
10
60762
20
-27687
11
60762
21
-27137
 0
LINE
8
COUCHE_1
 6
CONTINUOUS
62
0
10
60200
20
-27137
11
60762
21
-27137
 0
LINE
8
COUCHE_1
 6
CONTINUOUS
62
0
10
60700
20
-27600
11
60237
21
-27600
 0
LINE
8
COUCHE_1
 6
CONTINUOUS
62
0
10
60235
20
-27600
11
60315
21
-27550
 0
LINE
8
COUCHE_1
 6
CONTINUOUS
62
0
10
60235
20
-27600
11
60305
21
-27645
 0
LINE
8
COUCHE_1
 6
CONTINUOUS
62
0
10
60700
20
-27600
11
60625
21
-27650
 0
LINE
8
COUCHE_1
 6
CONTINUOUS
62
0
10
60700
20
-27600
11
60625
21
-27550
 0
LINE
8
COUCHE_1
 6
CONTINUOUS
62
0
10
61060
20
-27217
11
61060
21
-27167
 0
LINE
8
COUCHE_1
 6
CONTINUOUS
62
0
10
60985
20
-26942
11
61135
21
-27092
 0
LINE
8
COUCHE_1
 6
CONTINUOUS
62
0
10
61010
20
-27017
11
60985
21
-26942
 0
LINE
8
COUCHE_1
 6
CONTINUOUS
62
0
10
61060
20
-26967
11
60985
21
-26942
 0
LINE
8
COUCHE_1
 6
CONTINUOUS
62
0
10
61060
20
-27217
11
61060
21
-27395
 0
LINE
8
COUCHE_1
 6
ACAD_ISO07W100
62
0
10
61062
20
-27887
11
61060
21
-27400
 0
LINE
8
COUCHE_1
 6
ACAD_ISO07W100
62
0
10
60600
20
-27900
11
61065
21
-27900
 0
LINE
8
COUCHE_1
 6
ACAD_ISO07W100
62
0
10
60600
20
-27737
11
60600
21
-27900
 0
LINE
8
COUCHE_1
 6
CONTINUOUS
62
0
10
60195
20
-27185
11
60120
21
-27260
 0
LINE
8
COUCHE_1
 6
CONTINUOUS
62
0
10
60120
20
-27260
11
60195
21
-27335
 0
LINE
8
COUCHE_1
 6
CONTINUOUS
62
0
10
60245
20
-26930
11
60537
21
-27087
 0
LINE
8
COUCHE_1
 6
CONTINUOUS
62
0
10
60337
20
-27062
11
60500
21
-26987
 0
LINE
8
COUCHE_1
 6
CONTINUOUS
62
0
10
60510
20
-27135
11
60337
21
-27062
 0
LINE
8
COUCHE_1
 6
CONTINUOUS
62
0
10
60725
20
-27200
11
60725
21
-27625
 0
LINE
8
COUCHE_1
 6
CONTINUOUS
62
0
10
60250
20
-26930
11
60315
21
-27010
 0
LINE
8
COUCHE_1
 6
CONTINUOUS
62
0
10
60360
20
-26945
11
60245
21
-26930
 0
LINE
8
COUCHE_1
 6
CONTINUOUS
62
0
10
60325
20
-26912
11
60487
21
-26837
 0
LINE
8
COUCHE_1
 6
CONTINUOUS
62
0
10
60497
20
-26985
11
60325
21
-26912
 0
LINE
8
COUCHE_1
 6
CONTINUOUS
62
0
10
61200
20
-27400
11
60765
21
-27400
 0
CIRCLE
8
COUCHE_1
62
0
 6
CONTINUOUS
10
61060
20
-27017
40
150
 0
CIRCLE
8
COUCHE_1
62
0
 6
CONTINUOUS
10
61060
20
-27405
40
30
0
POLYLINE
5
2B
 8
0
62
1
 6
CONTINUOUS
 66
 1
 10
0
 20
0
 30
0
 70
1
 0
VERTEX
 5
33
  8
0
 10
59975
 20
-27575
 0
VERTEX
 5
33
  8
0
 10
60025
 20
-27575
 0
VERTEX
 5
33
  8
0
 10
60025
 20
-27625
 0
VERTEX
 5
33
  8
0
 10
59975
 20
-27625
 0
SEQEND
 5
37
 8
0
 0
LINE
8
COUCHE_1
 6
CONTINUOUS
62
1
10
60000
20
-27600
11
60200
21
-27600
0
POLYLINE
5
2B
 8
0
62
1
 6
CONTINUOUS
 66
 1
 10
0
 20
0
 30
0
 70
1
 0
VERTEX
 5
33
  8
0
 10
61375
 20
-27375
 0
VERTEX
 5
33
  8
0
 10
61425
 20
-27375
 0
VERTEX
 5
33
  8
0
 10
61425
 20
-27425
 0
VERTEX
 5
33
  8
0
 10
61375
 20
-27425
 0
SEQEND
 5
37
 8
0
 0
LINE
8
COUCHE_1
 6
CONTINUOUS
62
1
10
61400
20
-27400
11
61200
21
-27400
0
TEXT
8
COUCHE_1
 10
59665
 20
-27020
 11
59665
 21
-27020
 40
75
 1
Q7
50
0
 72
0
 73
3
62
0
 0
LINE
8
COUCHE_1
 6
CONTINUOUS
62
0
10
62600
20
-27937
11
62600
21
-28487
 0
LINE
8
COUCHE_1
 6
CONTINUOUS
62
0
10
63162
20
-28487
11
62600
21
-28487
 0
LINE
8
COUCHE_1
 6
CONTINUOUS
62
0
10
63162
20
-28487
11
63162
21
-27937
 0
LINE
8
COUCHE_1
 6
CONTINUOUS
62
0
10
62600
20
-27937
11
63162
21
-27937
 0
LINE
8
COUCHE_1
 6
CONTINUOUS
62
0
10
63100
20
-28400
11
62637
21
-28400
 0
LINE
8
COUCHE_1
 6
CONTINUOUS
62
0
10
62635
20
-28400
11
62715
21
-28350
 0
LINE
8
COUCHE_1
 6
CONTINUOUS
62
0
10
62635
20
-28400
11
62705
21
-28445
 0
LINE
8
COUCHE_1
 6
CONTINUOUS
62
0
10
63100
20
-28400
11
63025
21
-28450
 0
LINE
8
COUCHE_1
 6
CONTINUOUS
62
0
10
63100
20
-28400
11
63025
21
-28350
 0
LINE
8
COUCHE_1
 6
CONTINUOUS
62
0
10
63460
20
-28017
11
63460
21
-27967
 0
LINE
8
COUCHE_1
 6
CONTINUOUS
62
0
10
63385
20
-27742
11
63535
21
-27892
 0
LINE
8
COUCHE_1
 6
CONTINUOUS
62
0
10
63410
20
-27817
11
63385
21
-27742
 0
LINE
8
COUCHE_1
 6
CONTINUOUS
62
0
10
63460
20
-27767
11
63385
21
-27742
 0
LINE
8
COUCHE_1
 6
CONTINUOUS
62
0
10
63460
20
-28017
11
63460
21
-28195
 0
LINE
8
COUCHE_1
 6
ACAD_ISO07W100
62
0
10
63462
20
-28687
11
63460
21
-28200
 0
LINE
8
COUCHE_1
 6
ACAD_ISO07W100
62
0
10
63000
20
-28700
11
63465
21
-28700
 0
LINE
8
COUCHE_1
 6
ACAD_ISO07W100
62
0
10
63000
20
-28537
11
63000
21
-28700
 0
LINE
8
COUCHE_1
 6
CONTINUOUS
62
0
10
62595
20
-27985
11
62520
21
-28060
 0
LINE
8
COUCHE_1
 6
CONTINUOUS
62
0
10
62520
20
-28060
11
62595
21
-28135
 0
LINE
8
COUCHE_1
 6
CONTINUOUS
62
0
10
62645
20
-27730
11
62937
21
-27887
 0
LINE
8
COUCHE_1
 6
CONTINUOUS
62
0
10
62737
20
-27862
11
62900
21
-27787
 0
LINE
8
COUCHE_1
 6
CONTINUOUS
62
0
10
62910
20
-27935
11
62737
21
-27862
 0
LINE
8
COUCHE_1
 6
CONTINUOUS
62
0
10
63125
20
-28000
11
63125
21
-28425
 0
LINE
8
COUCHE_1
 6
CONTINUOUS
62
0
10
62650
20
-27730
11
62715
21
-27810
 0
LINE
8
COUCHE_1
 6
CONTINUOUS
62
0
10
62760
20
-27745
11
62645
21
-27730
 0
LINE
8
COUCHE_1
 6
CONTINUOUS
62
0
10
62725
20
-27712
11
62887
21
-27637
 0
LINE
8
COUCHE_1
 6
CONTINUOUS
62
0
10
62897
20
-27785
11
62725
21
-27712
 0
LINE
8
COUCHE_1
 6
CONTINUOUS
62
0
10
63600
20
-28200
11
63165
21
-28200
 0
CIRCLE
8
COUCHE_1
62
0
 6
CONTINUOUS
10
63460
20
-27817
40
150
 0
CIRCLE
8
COUCHE_1
62
0
 6
CONTINUOUS
10
63460
20
-28205
40
30
0
POLYLINE
5
2B
 8
0
62
1
 6
CONTINUOUS
 66
 1
 10
0
 20
0
 30
0
 70
1
 0
VERTEX
 5
33
  8
0
 10
62375
 20
-28375
 0
VERTEX
 5
33
  8
0
 10
62425
 20
-28375
 0
VERTEX
 5
33
  8
0
 10
62425
 20
-28425
 0
VERTEX
 5
33
  8
0
 10
62375
 20
-28425
 0
SEQEND
 5
37
 8
0
 0
LINE
8
COUCHE_1
 6
CONTINUOUS
62
1
10
62400
20
-28400
11
62600
21
-28400
0
TEXT
8
COUCHE_1
 10
62325
 20
-28575
 11
62325
 21
-28575
 40
75
 1
 
50
0
 72
0
 73
3
62
0
0
TEXT
8
COUCHE_1
 10
62437
 20
-28300
 11
62437
 21
-28300
 40
50
 1
1
50
0
 72
0
 73
3
62
0
0
POLYLINE
5
2B
 8
0
62
1
 6
CONTINUOUS
 66
 1
 10
0
 20
0
 30
0
 70
1
 0
VERTEX
 5
33
  8
0
 10
63775
 20
-28175
 0
VERTEX
 5
33
  8
0
 10
63825
 20
-28175
 0
VERTEX
 5
33
  8
0
 10
63825
 20
-28225
 0
VERTEX
 5
33
  8
0
 10
63775
 20
-28225
 0
SEQEND
 5
37
 8
0
 0
LINE
8
COUCHE_1
 6
CONTINUOUS
62
1
10
63800
20
-28200
11
63600
21
-28200
0
TEXT
8
COUCHE_1
 10
63550
 20
-28120
 11
63550
 21
-28120
 40
75
 1

50
0
 72
2
 73
3
62
0
0
TEXT
8
COUCHE_1
 10
63700
 20
-28100
 11
63700
 21
-28100
 40
50
 1
2
50
0
 72
0
 73
3
62
0
0
TEXT
8
COUCHE_1
 10
62065
 20
-27820
 11
62065
 21
-27820
 40
75
 1
Q8
50
0
 72
0
 73
3
62
0
 0
LINE
8
COUCHE_1
 6
CONTINUOUS
62
0
10
60200
20
-32937
11
60200
21
-33487
 0
LINE
8
COUCHE_1
 6
CONTINUOUS
62
0
10
60762
20
-33487
11
60200
21
-33487
 0
LINE
8
COUCHE_1
 6
CONTINUOUS
62
0
10
60762
20
-33487
11
60762
21
-32937
 0
LINE
8
COUCHE_1
 6
CONTINUOUS
62
0
10
60200
20
-32937
11
60762
21
-32937
 0
LINE
8
COUCHE_1
 6
CONTINUOUS
62
0
10
60700
20
-33400
11
60237
21
-33400
 0
LINE
8
COUCHE_1
 6
CONTINUOUS
62
0
10
60235
20
-33400
11
60315
21
-33350
 0
LINE
8
COUCHE_1
 6
CONTINUOUS
62
0
10
60235
20
-33400
11
60305
21
-33445
 0
LINE
8
COUCHE_1
 6
CONTINUOUS
62
0
10
60700
20
-33400
11
60625
21
-33450
 0
LINE
8
COUCHE_1
 6
CONTINUOUS
62
0
10
60700
20
-33400
11
60625
21
-33350
 0
LINE
8
COUCHE_1
 6
CONTINUOUS
62
0
10
61060
20
-33017
11
61060
21
-32967
 0
LINE
8
COUCHE_1
 6
CONTINUOUS
62
0
10
60985
20
-32742
11
61135
21
-32892
 0
LINE
8
COUCHE_1
 6
CONTINUOUS
62
0
10
61010
20
-32817
11
60985
21
-32742
 0
LINE
8
COUCHE_1
 6
CONTINUOUS
62
0
10
61060
20
-32767
11
60985
21
-32742
 0
LINE
8
COUCHE_1
 6
CONTINUOUS
62
0
10
61060
20
-33017
11
61060
21
-33195
 0
LINE
8
COUCHE_1
 6
ACAD_ISO07W100
62
0
10
61062
20
-33687
11
61060
21
-33200
 0
LINE
8
COUCHE_1
 6
ACAD_ISO07W100
62
0
10
60600
20
-33700
11
61065
21
-33700
 0
LINE
8
COUCHE_1
 6
ACAD_ISO07W100
62
0
10
60600
20
-33537
11
60600
21
-33700
 0
LINE
8
COUCHE_1
 6
CONTINUOUS
62
0
10
60195
20
-32985
11
60120
21
-33060
 0
LINE
8
COUCHE_1
 6
CONTINUOUS
62
0
10
60120
20
-33060
11
60195
21
-33135
 0
LINE
8
COUCHE_1
 6
CONTINUOUS
62
0
10
60245
20
-32730
11
60537
21
-32887
 0
LINE
8
COUCHE_1
 6
CONTINUOUS
62
0
10
60337
20
-32862
11
60500
21
-32787
 0
LINE
8
COUCHE_1
 6
CONTINUOUS
62
0
10
60510
20
-32935
11
60337
21
-32862
 0
LINE
8
COUCHE_1
 6
CONTINUOUS
62
0
10
60725
20
-33000
11
60725
21
-33425
 0
LINE
8
COUCHE_1
 6
CONTINUOUS
62
0
10
60250
20
-32730
11
60315
21
-32810
 0
LINE
8
COUCHE_1
 6
CONTINUOUS
62
0
10
60360
20
-32745
11
60245
21
-32730
 0
LINE
8
COUCHE_1
 6
CONTINUOUS
62
0
10
60325
20
-32712
11
60487
21
-32637
 0
LINE
8
COUCHE_1
 6
CONTINUOUS
62
0
10
60497
20
-32785
11
60325
21
-32712
 0
LINE
8
COUCHE_1
 6
CONTINUOUS
62
0
10
61200
20
-33200
11
60765
21
-33200
 0
CIRCLE
8
COUCHE_1
62
0
 6
CONTINUOUS
10
61060
20
-32817
40
150
 0
CIRCLE
8
COUCHE_1
62
0
 6
CONTINUOUS
10
61060
20
-33205
40
30
0
POLYLINE
5
2B
 8
0
62
1
 6
CONTINUOUS
 66
 1
 10
0
 20
0
 30
0
 70
1
 0
VERTEX
 5
33
  8
0
 10
59975
 20
-33375
 0
VERTEX
 5
33
  8
0
 10
60025
 20
-33375
 0
VERTEX
 5
33
  8
0
 10
60025
 20
-33425
 0
VERTEX
 5
33
  8
0
 10
59975
 20
-33425
 0
SEQEND
 5
37
 8
0
 0
LINE
8
COUCHE_1
 6
CONTINUOUS
62
1
10
60000
20
-33400
11
60200
21
-33400
0
TEXT
8
COUCHE_1
 10
59925
 20
-33575
 11
59925
 21
-33575
 40
75
 1
 
50
0
 72
0
 73
3
62
0
0
TEXT
8
COUCHE_1
 10
60037
 20
-33300
 11
60037
 21
-33300
 40
50
 1
1
50
0
 72
0
 73
3
62
0
0
POLYLINE
5
2B
 8
0
62
1
 6
CONTINUOUS
 66
 1
 10
0
 20
0
 30
0
 70
1
 0
VERTEX
 5
33
  8
0
 10
61375
 20
-33175
 0
VERTEX
 5
33
  8
0
 10
61425
 20
-33175
 0
VERTEX
 5
33
  8
0
 10
61425
 20
-33225
 0
VERTEX
 5
33
  8
0
 10
61375
 20
-33225
 0
SEQEND
 5
37
 8
0
 0
LINE
8
COUCHE_1
 6
CONTINUOUS
62
1
10
61400
20
-33200
11
61200
21
-33200
0
TEXT
8
COUCHE_1
 10
61150
 20
-33120
 11
61150
 21
-33120
 40
75
 1

50
0
 72
2
 73
3
62
0
0
TEXT
8
COUCHE_1
 10
61300
 20
-33100
 11
61300
 21
-33100
 40
50
 1
2
50
0
 72
0
 73
3
62
0
0
TEXT
8
COUCHE_1
 10
59665
 20
-32820
 11
59665
 21
-32820
 40
75
 1
Q9
50
0
 72
0
 73
3
62
0
 0
LINE
8
COUCHE_1
 6
CONTINUOUS
62
0
10
62200
20
-33937
11
62200
21
-34487
 0
LINE
8
COUCHE_1
 6
CONTINUOUS
62
0
10
62762
20
-34487
11
62200
21
-34487
 0
LINE
8
COUCHE_1
 6
CONTINUOUS
62
0
10
62762
20
-34487
11
62762
21
-33937
 0
LINE
8
COUCHE_1
 6
CONTINUOUS
62
0
10
62200
20
-33937
11
62762
21
-33937
 0
LINE
8
COUCHE_1
 6
CONTINUOUS
62
0
10
62700
20
-34400
11
62237
21
-34400
 0
LINE
8
COUCHE_1
 6
CONTINUOUS
62
0
10
62235
20
-34400
11
62315
21
-34350
 0
LINE
8
COUCHE_1
 6
CONTINUOUS
62
0
10
62235
20
-34400
11
62305
21
-34445
 0
LINE
8
COUCHE_1
 6
CONTINUOUS
62
0
10
62700
20
-34400
11
62625
21
-34450
 0
LINE
8
COUCHE_1
 6
CONTINUOUS
62
0
10
62700
20
-34400
11
62625
21
-34350
 0
LINE
8
COUCHE_1
 6
CONTINUOUS
62
0
10
63060
20
-34017
11
63060
21
-33967
 0
LINE
8
COUCHE_1
 6
CONTINUOUS
62
0
10
62985
20
-33742
11
63135
21
-33892
 0
LINE
8
COUCHE_1
 6
CONTINUOUS
62
0
10
63010
20
-33817
11
62985
21
-33742
 0
LINE
8
COUCHE_1
 6
CONTINUOUS
62
0
10
63060
20
-33767
11
62985
21
-33742
 0
LINE
8
COUCHE_1
 6
CONTINUOUS
62
0
10
63060
20
-34017
11
63060
21
-34195
 0
LINE
8
COUCHE_1
 6
ACAD_ISO07W100
62
0
10
63062
20
-34687
11
63060
21
-34200
 0
LINE
8
COUCHE_1
 6
ACAD_ISO07W100
62
0
10
62600
20
-34700
11
63065
21
-34700
 0
LINE
8
COUCHE_1
 6
ACAD_ISO07W100
62
0
10
62600
20
-34537
11
62600
21
-34700
 0
LINE
8
COUCHE_1
 6
CONTINUOUS
62
0
10
62195
20
-33985
11
62120
21
-34060
 0
LINE
8
COUCHE_1
 6
CONTINUOUS
62
0
10
62120
20
-34060
11
62195
21
-34135
 0
LINE
8
COUCHE_1
 6
CONTINUOUS
62
0
10
62245
20
-33730
11
62537
21
-33887
 0
LINE
8
COUCHE_1
 6
CONTINUOUS
62
0
10
62337
20
-33862
11
62500
21
-33787
 0
LINE
8
COUCHE_1
 6
CONTINUOUS
62
0
10
62510
20
-33935
11
62337
21
-33862
 0
LINE
8
COUCHE_1
 6
CONTINUOUS
62
0
10
62725
20
-34000
11
62725
21
-34425
 0
LINE
8
COUCHE_1
 6
CONTINUOUS
62
0
10
62250
20
-33730
11
62315
21
-33810
 0
LINE
8
COUCHE_1
 6
CONTINUOUS
62
0
10
62360
20
-33745
11
62245
21
-33730
 0
LINE
8
COUCHE_1
 6
CONTINUOUS
62
0
10
62325
20
-33712
11
62487
21
-33637
 0
LINE
8
COUCHE_1
 6
CONTINUOUS
62
0
10
62497
20
-33785
11
62325
21
-33712
 0
LINE
8
COUCHE_1
 6
CONTINUOUS
62
0
10
63200
20
-34200
11
62765
21
-34200
 0
CIRCLE
8
COUCHE_1
62
0
 6
CONTINUOUS
10
63060
20
-33817
40
150
 0
CIRCLE
8
COUCHE_1
62
0
 6
CONTINUOUS
10
63060
20
-34205
40
30
0
POLYLINE
5
2B
 8
0
62
1
 6
CONTINUOUS
 66
 1
 10
0
 20
0
 30
0
 70
1
 0
VERTEX
 5
33
  8
0
 10
61975
 20
-34375
 0
VERTEX
 5
33
  8
0
 10
62025
 20
-34375
 0
VERTEX
 5
33
  8
0
 10
62025
 20
-34425
 0
VERTEX
 5
33
  8
0
 10
61975
 20
-34425
 0
SEQEND
 5
37
 8
0
 0
LINE
8
COUCHE_1
 6
CONTINUOUS
62
1
10
62000
20
-34400
11
62200
21
-34400
0
TEXT
8
COUCHE_1
 10
61925
 20
-34575
 11
61925
 21
-34575
 40
75
 1
 
50
0
 72
0
 73
3
62
0
0
TEXT
8
COUCHE_1
 10
62037
 20
-34300
 11
62037
 21
-34300
 40
50
 1
1
50
0
 72
0
 73
3
62
0
0
POLYLINE
5
2B
 8
0
62
1
 6
CONTINUOUS
 66
 1
 10
0
 20
0
 30
0
 70
1
 0
VERTEX
 5
33
  8
0
 10
63375
 20
-34175
 0
VERTEX
 5
33
  8
0
 10
63425
 20
-34175
 0
VERTEX
 5
33
  8
0
 10
63425
 20
-34225
 0
VERTEX
 5
33
  8
0
 10
63375
 20
-34225
 0
SEQEND
 5
37
 8
0
 0
LINE
8
COUCHE_1
 6
CONTINUOUS
62
1
10
63400
20
-34200
11
63200
21
-34200
0
TEXT
8
COUCHE_1
 10
63150
 20
-34120
 11
63150
 21
-34120
 40
75
 1

50
0
 72
2
 73
3
62
0
0
TEXT
8
COUCHE_1
 10
63300
 20
-34100
 11
63300
 21
-34100
 40
50
 1
2
50
0
 72
0
 73
3
62
0
0
TEXT
8
COUCHE_1
 10
61665
 20
-33820
 11
61665
 21
-33820
 40
75
 1
Q10
50
0
 72
0
 73
3
62
0
 0
LINE
8
COUCHE_1
 6
CONTINUOUS
62
0
10
69400
20
-33700
11
69150
21
-33400
 0
LINE
8
COUCHE_1
 6
CONTINUOUS
62
0
10
69400
20
-33100
11
69150
21
-33400
 0
LINE
8
COUCHE_1
 6
CONTINUOUS
62
0
10
69900
20
-33400
11
69625
21
-33400
 0
LINE
8
COUCHE_1
 6
CONTINUOUS
62
0
10
69900
20
-34200
11
69900
21
-33400
 0
LINE
8
COUCHE_1
 6
CONTINUOUS
62
0
10
68900
20
-33400
11
69150
21
-33400
 0
LINE
8
COUCHE_1
 6
CONTINUOUS
62
0
10
68900
20
-33400
11
68900
21
-34200
 0
LINE
8
COUCHE_1
 6
CONTINUOUS
62
0
10
70000
20
-34200
11
68800
21
-34200
 0
LINE
8
COUCHE_1
 6
CONTINUOUS
62
0
10
69200
20
-33800
11
69600
21
-34600
 0
LINE
8
COUCHE_1
 6
CONTINUOUS
62
0
10
69200
20
-33800
11
69200
21
-33925
 0
LINE
8
COUCHE_1
 6
CONTINUOUS
62
0
10
69200
20
-33800
11
69300
21
-33875
 0
CIRCLE
8
COUCHE_1
62
0
 6
CONTINUOUS
10
69425
20
-33400
40
200
 0
CIRCLE
8
COUCHE_1
62
0
 6
CONTINUOUS
10
68900
20
-34200
40
50
 0
CIRCLE
8
COUCHE_1
62
0
 6
CONTINUOUS
10
69900
20
-34200
40
50
 0
ARC
8
COUCHE_1
62
0
10
69400
20
-34575
40
300
50
30
51
150
 0
ARC
8
COUCHE_1
62
0
10
69400
20
-33825
40
300
50
210
51
330
0
POLYLINE
5
2B
 8
0
62
1
 6
CONTINUOUS
 66
 1
 10
0
 20
0
 30
0
 70
1
 0
VERTEX
 5
33
  8
0
 10
70350
 20
-34150
 0
VERTEX
 5
33
  8
0
 10
70450
 20
-34150
 0
VERTEX
 5
33
  8
0
 10
70450
 20
-34250
 0
VERTEX
 5
33
  8
0
 10
70350
 20
-34250
 0
SEQEND
 5
37
 8
0
 0
LINE
8
COUCHE_1
 6
CONTINUOUS
62
1
10
70400
20
-34200
11
70000
21
-34200
0
TEXT
8
COUCHE_1
 10
70100
 20
-34100
 11
70100
 21
-34100
 40
100
 1
2
50
0
 72
0
 73
3
62
0
0
POLYLINE
5
2B
 8
0
62
1
 6
CONTINUOUS
 66
 1
 10
0
 20
0
 30
0
 70
1
 0
VERTEX
 5
33
  8
0
 10
68350
 20
-34150
 0
VERTEX
 5
33
  8
0
 10
68450
 20
-34150
 0
VERTEX
 5
33
  8
0
 10
68450
 20
-34250
 0
VERTEX
 5
33
  8
0
 10
68350
 20
-34250
 0
SEQEND
 5
37
 8
0
 0
LINE
8
COUCHE_1
 6
CONTINUOUS
62
1
10
68400
20
-34200
11
68800
21
-34200
0
TEXT
8
COUCHE_1
 10
68500
 20
-34100
 11
68500
 21
-34100
 40
100
 1
1
50
0
 72
0
 73
3
62
0
0
TEXT
8
COUCHE_1
 10
70000
 20
-33700
 11
70000
 21
-33700
 40
150
 1
C2
50
0
 72
0
 73
3
62
0
 0
LINE
8
COUCHE_1
 6
CONTINUOUS
62
0
10
55550
20
-27600
11
55550
21
-27200
 0
LINE
8
COUCHE_1
 6
CONTINUOUS
62
0
10
55050
20
-27200
11
55175
21
-27200
 0
LINE
8
COUCHE_1
 6
CONTINUOUS
62
0
10
55050
20
-27200
11
55050
21
-27600
 0
LINE
8
COUCHE_1
 6
CONTINUOUS
62
0
10
55600
20
-27600
11
55000
21
-27600
 0
LINE
8
COUCHE_1
 6
CONTINUOUS
62
0
10
55200
20
-27400
11
55400
21
-27800
 0
LINE
8
COUCHE_1
 6
CONTINUOUS
62
0
10
55200
20
-27400
11
55200
21
-27463
 0
LINE
8
COUCHE_1
 6
CONTINUOUS
62
0
10
55200
20
-27400
11
55250
21
-27438
 0
LINE
8
COUCHE_1
 6
CONTINUOUS
62
0
10
55450
20
-27200
11
55337
21
-27050
 0
LINE
8
COUCHE_1
 6
CONTINUOUS
62
0
10
55450
20
-27200
11
55337
21
-27350
 0
LINE
8
COUCHE_1
 6
CONTINUOUS
62
0
10
55162
20
-27200
11
55212
21
-27200
 0
LINE
8
COUCHE_1
 6
CONTINUOUS
62
0
10
55450
20
-27200
11
55550
21
-27200
 0
CIRCLE
8
COUCHE_1
62
0
 6
CONTINUOUS
10
55312
20
-27200
40
100
 0
CIRCLE
8
COUCHE_1
62
0
 6
CONTINUOUS
10
55050
20
-27600
40
25
 0
CIRCLE
8
COUCHE_1
62
0
 6
CONTINUOUS
10
55550
20
-27600
40
25
 0
ARC
8
COUCHE_1
62
0
10
55300
20
-27788
40
150
50
30
51
150
 0
ARC
8
COUCHE_1
62
0
10
55300
20
-27413
40
150
50
210
51
330
0
POLYLINE
5
2B
 8
0
62
1
 6
CONTINUOUS
 66
 1
 10
0
 20
0
 30
0
 70
1
 0
VERTEX
 5
33
  8
0
 10
55775
 20
-27575
 0
VERTEX
 5
33
  8
0
 10
55825
 20
-27575
 0
VERTEX
 5
33
  8
0
 10
55825
 20
-27625
 0
VERTEX
 5
33
  8
0
 10
55775
 20
-27625
 0
SEQEND
 5
37
 8
0
 0
LINE
8
COUCHE_1
 6
CONTINUOUS
62
1
10
55800
20
-27600
11
55600
21
-27600
0
TEXT
8
COUCHE_1
 10
55650
 20
-27550
 11
55650
 21
-27550
 40
50
 1
2
50
0
 72
0
 73
3
62
0
0
POLYLINE
5
2B
 8
0
62
1
 6
CONTINUOUS
 66
 1
 10
0
 20
0
 30
0
 70
1
 0
VERTEX
 5
33
  8
0
 10
54775
 20
-27575
 0
VERTEX
 5
33
  8
0
 10
54825
 20
-27575
 0
VERTEX
 5
33
  8
0
 10
54825
 20
-27625
 0
VERTEX
 5
33
  8
0
 10
54775
 20
-27625
 0
SEQEND
 5
37
 8
0
 0
LINE
8
COUCHE_1
 6
CONTINUOUS
62
1
10
54800
20
-27600
11
55000
21
-27600
0
TEXT
8
COUCHE_1
 10
54850
 20
-27550
 11
54850
 21
-27550
 40
50
 1
1
50
0
 72
0
 73
3
62
0
 0
LINE
8
COUCHE_1
 6
CONTINUOUS
62
0
10
53850
20
-28400
11
53850
21
-28800
 0
LINE
8
COUCHE_1
 6
CONTINUOUS
62
0
10
54350
20
-28800
11
54225
21
-28800
 0
LINE
8
COUCHE_1
 6
CONTINUOUS
62
0
10
54350
20
-28800
11
54350
21
-28400
 0
LINE
8
COUCHE_1
 6
CONTINUOUS
62
0
10
53800
20
-28400
11
54400
21
-28400
 0
LINE
8
COUCHE_1
 6
CONTINUOUS
62
0
10
54200
20
-28600
11
54000
21
-28200
 0
LINE
8
COUCHE_1
 6
CONTINUOUS
62
0
10
54200
20
-28600
11
54200
21
-28537
 0
LINE
8
COUCHE_1
 6
CONTINUOUS
62
0
10
54200
20
-28600
11
54150
21
-28562
 0
LINE
8
COUCHE_1
 6
CONTINUOUS
62
0
10
53950
20
-28800
11
54063
21
-28950
 0
LINE
8
COUCHE_1
 6
CONTINUOUS
62
0
10
53950
20
-28800
11
54063
21
-28650
 0
LINE
8
COUCHE_1
 6
CONTINUOUS
62
0
10
54238
20
-28800
11
54188
21
-28800
 0
LINE
8
COUCHE_1
 6
CONTINUOUS
62
0
10
53950
20
-28800
11
53850
21
-28800
 0
CIRCLE
8
COUCHE_1
62
0
 6
CONTINUOUS
10
54088
20
-28800
40
100
 0
CIRCLE
8
COUCHE_1
62
0
 6
CONTINUOUS
10
54350
20
-28400
40
25
 0
CIRCLE
8
COUCHE_1
62
0
 6
CONTINUOUS
10
53850
20
-28400
40
25
 0
ARC
8
COUCHE_1
62
0
10
54100
20
-28212
40
150
50
210
51
330
 0
ARC
8
COUCHE_1
62
0
10
54100
20
-28587
40
150
50
30
51
150
0
POLYLINE
5
2B
 8
0
62
1
 6
CONTINUOUS
 66
 1
 10
0
 20
0
 30
0
 70
1
 0
VERTEX
 5
33
  8
0
 10
53575
 20
-28375
 0
VERTEX
 5
33
  8
0
 10
53625
 20
-28375
 0
VERTEX
 5
33
  8
0
 10
53625
 20
-28425
 0
VERTEX
 5
33
  8
0
 10
53575
 20
-28425
 0
SEQEND
 5
37
 8
0
 0
LINE
8
COUCHE_1
 6
CONTINUOUS
62
1
10
53600
20
-28400
11
53800
21
-28400
0
TEXT
8
COUCHE_1
 10
53750
 20
-28450
 11
53750
 21
-28450
 40
50
 1
2
50
0
 72
0
 73
3
62
0
0
POLYLINE
5
2B
 8
0
62
1
 6
CONTINUOUS
 66
 1
 10
0
 20
0
 30
0
 70
1
 0
VERTEX
 5
33
  8
0
 10
54575
 20
-28375
 0
VERTEX
 5
33
  8
0
 10
54625
 20
-28375
 0
VERTEX
 5
33
  8
0
 10
54625
 20
-28425
 0
VERTEX
 5
33
  8
0
 10
54575
 20
-28425
 0
SEQEND
 5
37
 8
0
 0
LINE
8
COUCHE_1
 6
CONTINUOUS
62
1
10
54600
20
-28400
11
54400
21
-28400
0
TEXT
8
COUCHE_1
 10
54550
 20
-28450
 11
54550
 21
-28450
 40
50
 1
1
50
0
 72
0
 73
3
62
0
 0
LINE
8
COUCHE_1
 6
CONTINUOUS
62
0
10
53850
20
-34400
11
53850
21
-34800
 0
LINE
8
COUCHE_1
 6
CONTINUOUS
62
0
10
54350
20
-34800
11
54225
21
-34800
 0
LINE
8
COUCHE_1
 6
CONTINUOUS
62
0
10
54350
20
-34800
11
54350
21
-34400
 0
LINE
8
COUCHE_1
 6
CONTINUOUS
62
0
10
53800
20
-34400
11
54400
21
-34400
 0
LINE
8
COUCHE_1
 6
CONTINUOUS
62
0
10
54200
20
-34600
11
54000
21
-34200
 0
LINE
8
COUCHE_1
 6
CONTINUOUS
62
0
10
54200
20
-34600
11
54200
21
-34537
 0
LINE
8
COUCHE_1
 6
CONTINUOUS
62
0
10
54200
20
-34600
11
54150
21
-34562
 0
LINE
8
COUCHE_1
 6
CONTINUOUS
62
0
10
53950
20
-34800
11
54063
21
-34950
 0
LINE
8
COUCHE_1
 6
CONTINUOUS
62
0
10
53950
20
-34800
11
54063
21
-34650
 0
LINE
8
COUCHE_1
 6
CONTINUOUS
62
0
10
54238
20
-34800
11
54188
21
-34800
 0
LINE
8
COUCHE_1
 6
CONTINUOUS
62
0
10
53950
20
-34800
11
53850
21
-34800
 0
CIRCLE
8
COUCHE_1
62
0
 6
CONTINUOUS
10
54088
20
-34800
40
100
 0
CIRCLE
8
COUCHE_1
62
0
 6
CONTINUOUS
10
54350
20
-34400
40
25
 0
CIRCLE
8
COUCHE_1
62
0
 6
CONTINUOUS
10
53850
20
-34400
40
25
 0
ARC
8
COUCHE_1
62
0
10
54100
20
-34212
40
150
50
210
51
330
 0
ARC
8
COUCHE_1
62
0
10
54100
20
-34587
40
150
50
30
51
150
0
POLYLINE
5
2B
 8
0
62
1
 6
CONTINUOUS
 66
 1
 10
0
 20
0
 30
0
 70
1
 0
VERTEX
 5
33
  8
0
 10
53575
 20
-34375
 0
VERTEX
 5
33
  8
0
 10
53625
 20
-34375
 0
VERTEX
 5
33
  8
0
 10
53625
 20
-34425
 0
VERTEX
 5
33
  8
0
 10
53575
 20
-34425
 0
SEQEND
 5
37
 8
0
 0
LINE
8
COUCHE_1
 6
CONTINUOUS
62
1
10
53600
20
-34400
11
53800
21
-34400
0
TEXT
8
COUCHE_1
 10
53750
 20
-34450
 11
53750
 21
-34450
 40
50
 1
2
50
0
 72
0
 73
3
62
0
0
POLYLINE
5
2B
 8
0
62
1
 6
CONTINUOUS
 66
 1
 10
0
 20
0
 30
0
 70
1
 0
VERTEX
 5
33
  8
0
 10
54575
 20
-34375
 0
VERTEX
 5
33
  8
0
 10
54625
 20
-34375
 0
VERTEX
 5
33
  8
0
 10
54625
 20
-34425
 0
VERTEX
 5
33
  8
0
 10
54575
 20
-34425
 0
SEQEND
 5
37
 8
0
 0
LINE
8
COUCHE_1
 6
CONTINUOUS
62
1
10
54600
20
-34400
11
54400
21
-34400
0
TEXT
8
COUCHE_1
 10
54550
 20
-34450
 11
54550
 21
-34450
 40
50
 1
1
50
0
 72
0
 73
3
62
0
 0
LINE
8
COUCHE_1
 6
CONTINUOUS
62
0
10
55550
20
-33400
11
55550
21
-33000
 0
LINE
8
COUCHE_1
 6
CONTINUOUS
62
0
10
55050
20
-33000
11
55175
21
-33000
 0
LINE
8
COUCHE_1
 6
CONTINUOUS
62
0
10
55050
20
-33000
11
55050
21
-33400
 0
LINE
8
COUCHE_1
 6
CONTINUOUS
62
0
10
55600
20
-33400
11
55000
21
-33400
 0
LINE
8
COUCHE_1
 6
CONTINUOUS
62
0
10
55200
20
-33200
11
55400
21
-33600
 0
LINE
8
COUCHE_1
 6
CONTINUOUS
62
0
10
55200
20
-33200
11
55200
21
-33263
 0
LINE
8
COUCHE_1
 6
CONTINUOUS
62
0
10
55200
20
-33200
11
55250
21
-33238
 0
LINE
8
COUCHE_1
 6
CONTINUOUS
62
0
10
55450
20
-33000
11
55337
21
-32850
 0
LINE
8
COUCHE_1
 6
CONTINUOUS
62
0
10
55450
20
-33000
11
55337
21
-33150
 0
LINE
8
COUCHE_1
 6
CONTINUOUS
62
0
10
55162
20
-33000
11
55212
21
-33000
 0
LINE
8
COUCHE_1
 6
CONTINUOUS
62
0
10
55450
20
-33000
11
55550
21
-33000
 0
CIRCLE
8
COUCHE_1
62
0
 6
CONTINUOUS
10
55312
20
-33000
40
100
 0
CIRCLE
8
COUCHE_1
62
0
 6
CONTINUOUS
10
55050
20
-33400
40
25
 0
CIRCLE
8
COUCHE_1
62
0
 6
CONTINUOUS
10
55550
20
-33400
40
25
 0
ARC
8
COUCHE_1
62
0
10
55300
20
-33588
40
150
50
30
51
150
 0
ARC
8
COUCHE_1
62
0
10
55300
20
-33213
40
150
50
210
51
330
0
POLYLINE
5
2B
 8
0
62
1
 6
CONTINUOUS
 66
 1
 10
0
 20
0
 30
0
 70
1
 0
VERTEX
 5
33
  8
0
 10
55775
 20
-33375
 0
VERTEX
 5
33
  8
0
 10
55825
 20
-33375
 0
VERTEX
 5
33
  8
0
 10
55825
 20
-33425
 0
VERTEX
 5
33
  8
0
 10
55775
 20
-33425
 0
SEQEND
 5
37
 8
0
 0
LINE
8
COUCHE_1
 6
CONTINUOUS
62
1
10
55800
20
-33400
11
55600
21
-33400
0
TEXT
8
COUCHE_1
 10
55650
 20
-33350
 11
55650
 21
-33350
 40
50
 1
2
50
0
 72
0
 73
3
62
0
0
POLYLINE
5
2B
 8
0
62
1
 6
CONTINUOUS
 66
 1
 10
0
 20
0
 30
0
 70
1
 0
VERTEX
 5
33
  8
0
 10
54775
 20
-33375
 0
VERTEX
 5
33
  8
0
 10
54825
 20
-33375
 0
VERTEX
 5
33
  8
0
 10
54825
 20
-33425
 0
VERTEX
 5
33
  8
0
 10
54775
 20
-33425
 0
SEQEND
 5
37
 8
0
 0
LINE
8
COUCHE_1
 6
CONTINUOUS
62
1
10
54800
20
-33400
11
55000
21
-33400
0
TEXT
8
COUCHE_1
 10
54850
 20
-33350
 11
54850
 21
-33350
 40
50
 1
1
50
0
 72
0
 73
3
62
0
 0
LINE
8
COUCHE_1
 6
CONTINUOUS
62
0
10
61000
20
-19137
11
61000
21
-19687
 0
LINE
8
COUCHE_1
 6
CONTINUOUS
62
0
10
61562
20
-19687
11
61000
21
-19687
 0
LINE
8
COUCHE_1
 6
CONTINUOUS
62
0
10
61562
20
-19687
11
61562
21
-19137
 0
LINE
8
COUCHE_1
 6
CONTINUOUS
62
0
10
61000
20
-19137
11
61562
21
-19137
 0
LINE
8
COUCHE_1
 6
CONTINUOUS
62
0
10
61500
20
-19600
11
61037
21
-19600
 0
LINE
8
COUCHE_1
 6
CONTINUOUS
62
0
10
61035
20
-19600
11
61115
21
-19550
 0
LINE
8
COUCHE_1
 6
CONTINUOUS
62
0
10
61035
20
-19600
11
61105
21
-19645
 0
LINE
8
COUCHE_1
 6
CONTINUOUS
62
0
10
61500
20
-19600
11
61425
21
-19650
 0
LINE
8
COUCHE_1
 6
CONTINUOUS
62
0
10
61500
20
-19600
11
61425
21
-19550
 0
LINE
8
COUCHE_1
 6
CONTINUOUS
62
0
10
61860
20
-19217
11
61860
21
-19167
 0
LINE
8
COUCHE_1
 6
CONTINUOUS
62
0
10
61785
20
-18942
11
61935
21
-19092
 0
LINE
8
COUCHE_1
 6
CONTINUOUS
62
0
10
61810
20
-19017
11
61785
21
-18942
 0
LINE
8
COUCHE_1
 6
CONTINUOUS
62
0
10
61860
20
-18967
11
61785
21
-18942
 0
LINE
8
COUCHE_1
 6
CONTINUOUS
62
0
10
61860
20
-19217
11
61860
21
-19395
 0
LINE
8
COUCHE_1
 6
ACAD_ISO07W100
62
0
10
61862
20
-19887
11
61860
21
-19400
 0
LINE
8
COUCHE_1
 6
ACAD_ISO07W100
62
0
10
61400
20
-19900
11
61865
21
-19900
 0
LINE
8
COUCHE_1
 6
ACAD_ISO07W100
62
0
10
61400
20
-19737
11
61400
21
-19900
 0
LINE
8
COUCHE_1
 6
CONTINUOUS
62
0
10
60995
20
-19185
11
60920
21
-19260
 0
LINE
8
COUCHE_1
 6
CONTINUOUS
62
0
10
60920
20
-19260
11
60995
21
-19335
 0
LINE
8
COUCHE_1
 6
CONTINUOUS
62
0
10
61045
20
-18930
11
61337
21
-19087
 0
LINE
8
COUCHE_1
 6
CONTINUOUS
62
0
10
61137
20
-19062
11
61300
21
-18987
 0
LINE
8
COUCHE_1
 6
CONTINUOUS
62
0
10
61310
20
-19135
11
61137
21
-19062
 0
LINE
8
COUCHE_1
 6
CONTINUOUS
62
0
10
61525
20
-19200
11
61525
21
-19625
 0
LINE
8
COUCHE_1
 6
CONTINUOUS
62
0
10
61050
20
-18930
11
61115
21
-19010
 0
LINE
8
COUCHE_1
 6
CONTINUOUS
62
0
10
61160
20
-18945
11
61045
21
-18930
 0
LINE
8
COUCHE_1
 6
CONTINUOUS
62
0
10
61125
20
-18912
11
61287
21
-18837
 0
LINE
8
COUCHE_1
 6
CONTINUOUS
62
0
10
61297
20
-18985
11
61125
21
-18912
 0
LINE
8
COUCHE_1
 6
CONTINUOUS
62
0
10
62000
20
-19400
11
61565
21
-19400
 0
CIRCLE
8
COUCHE_1
62
0
 6
CONTINUOUS
10
61860
20
-19017
40
150
 0
CIRCLE
8
COUCHE_1
62
0
 6
CONTINUOUS
10
61860
20
-19405
40
30
0
POLYLINE
5
2B
 8
0
62
1
 6
CONTINUOUS
 66
 1
 10
0
 20
0
 30
0
 70
1
 0
VERTEX
 5
33
  8
0
 10
60775
 20
-19575
 0
VERTEX
 5
33
  8
0
 10
60825
 20
-19575
 0
VERTEX
 5
33
  8
0
 10
60825
 20
-19625
 0
VERTEX
 5
33
  8
0
 10
60775
 20
-19625
 0
SEQEND
 5
37
 8
0
 0
LINE
8
COUCHE_1
 6
CONTINUOUS
62
1
10
60800
20
-19600
11
61000
21
-19600
0
POLYLINE
5
2B
 8
0
62
1
 6
CONTINUOUS
 66
 1
 10
0
 20
0
 30
0
 70
1
 0
VERTEX
 5
33
  8
0
 10
62175
 20
-19375
 0
VERTEX
 5
33
  8
0
 10
62225
 20
-19375
 0
VERTEX
 5
33
  8
0
 10
62225
 20
-19425
 0
VERTEX
 5
33
  8
0
 10
62175
 20
-19425
 0
SEQEND
 5
37
 8
0
 0
LINE
8
COUCHE_1
 6
CONTINUOUS
62
1
10
62200
20
-19400
11
62000
21
-19400
0
TEXT
8
COUCHE_1
 10
60465
 20
-19020
 11
60465
 21
-19020
 40
75
 1
Q7
50
0
 72
0
 73
3
62
0
 0
LINE
8
COUCHE_1
 6
CONTINUOUS
62
0
10
61000
20
-15737
11
61000
21
-16287
 0
LINE
8
COUCHE_1
 6
CONTINUOUS
62
0
10
61562
20
-16287
11
61000
21
-16287
 0
LINE
8
COUCHE_1
 6
CONTINUOUS
62
0
10
61562
20
-16287
11
61562
21
-15737
 0
LINE
8
COUCHE_1
 6
CONTINUOUS
62
0
10
61000
20
-15737
11
61562
21
-15737
 0
LINE
8
COUCHE_1
 6
CONTINUOUS
62
0
10
61500
20
-16200
11
61037
21
-16200
 0
LINE
8
COUCHE_1
 6
CONTINUOUS
62
0
10
61035
20
-16200
11
61115
21
-16150
 0
LINE
8
COUCHE_1
 6
CONTINUOUS
62
0
10
61035
20
-16200
11
61105
21
-16245
 0
LINE
8
COUCHE_1
 6
CONTINUOUS
62
0
10
61500
20
-16200
11
61425
21
-16250
 0
LINE
8
COUCHE_1
 6
CONTINUOUS
62
0
10
61500
20
-16200
11
61425
21
-16150
 0
LINE
8
COUCHE_1
 6
CONTINUOUS
62
0
10
61860
20
-15817
11
61860
21
-15767
 0
LINE
8
COUCHE_1
 6
CONTINUOUS
62
0
10
61785
20
-15542
11
61935
21
-15692
 0
LINE
8
COUCHE_1
 6
CONTINUOUS
62
0
10
61810
20
-15617
11
61785
21
-15542
 0
LINE
8
COUCHE_1
 6
CONTINUOUS
62
0
10
61860
20
-15567
11
61785
21
-15542
 0
LINE
8
COUCHE_1
 6
CONTINUOUS
62
0
10
61860
20
-15817
11
61860
21
-15995
 0
LINE
8
COUCHE_1
 6
ACAD_ISO07W100
62
0
10
61862
20
-16487
11
61860
21
-16000
 0
LINE
8
COUCHE_1
 6
ACAD_ISO07W100
62
0
10
61400
20
-16500
11
61865
21
-16500
 0
LINE
8
COUCHE_1
 6
ACAD_ISO07W100
62
0
10
61400
20
-16337
11
61400
21
-16500
 0
LINE
8
COUCHE_1
 6
CONTINUOUS
62
0
10
60995
20
-15785
11
60920
21
-15860
 0
LINE
8
COUCHE_1
 6
CONTINUOUS
62
0
10
60920
20
-15860
11
60995
21
-15935
 0
LINE
8
COUCHE_1
 6
CONTINUOUS
62
0
10
61045
20
-15530
11
61337
21
-15687
 0
LINE
8
COUCHE_1
 6
CONTINUOUS
62
0
10
61137
20
-15662
11
61300
21
-15587
 0
LINE
8
COUCHE_1
 6
CONTINUOUS
62
0
10
61310
20
-15735
11
61137
21
-15662
 0
LINE
8
COUCHE_1
 6
CONTINUOUS
62
0
10
61525
20
-15800
11
61525
21
-16225
 0
LINE
8
COUCHE_1
 6
CONTINUOUS
62
0
10
61050
20
-15530
11
61115
21
-15610
 0
LINE
8
COUCHE_1
 6
CONTINUOUS
62
0
10
61160
20
-15545
11
61045
21
-15530
 0
LINE
8
COUCHE_1
 6
CONTINUOUS
62
0
10
61125
20
-15512
11
61287
21
-15437
 0
LINE
8
COUCHE_1
 6
CONTINUOUS
62
0
10
61297
20
-15585
11
61125
21
-15512
 0
LINE
8
COUCHE_1
 6
CONTINUOUS
62
0
10
62000
20
-16000
11
61565
21
-16000
 0
CIRCLE
8
COUCHE_1
62
0
 6
CONTINUOUS
10
61860
20
-15617
40
150
 0
CIRCLE
8
COUCHE_1
62
0
 6
CONTINUOUS
10
61860
20
-16005
40
30
0
POLYLINE
5
2B
 8
0
62
1
 6
CONTINUOUS
 66
 1
 10
0
 20
0
 30
0
 70
1
 0
VERTEX
 5
33
  8
0
 10
60775
 20
-16175
 0
VERTEX
 5
33
  8
0
 10
60825
 20
-16175
 0
VERTEX
 5
33
  8
0
 10
60825
 20
-16225
 0
VERTEX
 5
33
  8
0
 10
60775
 20
-16225
 0
SEQEND
 5
37
 8
0
 0
LINE
8
COUCHE_1
 6
CONTINUOUS
62
1
10
60800
20
-16200
11
61000
21
-16200
0
POLYLINE
5
2B
 8
0
62
1
 6
CONTINUOUS
 66
 1
 10
0
 20
0
 30
0
 70
1
 0
VERTEX
 5
33
  8
0
 10
62175
 20
-15975
 0
VERTEX
 5
33
  8
0
 10
62225
 20
-15975
 0
VERTEX
 5
33
  8
0
 10
62225
 20
-16025
 0
VERTEX
 5
33
  8
0
 10
62175
 20
-16025
 0
SEQEND
 5
37
 8
0
 0
LINE
8
COUCHE_1
 6
CONTINUOUS
62
1
10
62200
20
-16000
11
62000
21
-16000
 0
LINE
8
COUCHE_1
 6
CONTINUOUS
62
0
10
59200
20
-14737
11
59200
21
-15287
 0
LINE
8
COUCHE_1
 6
CONTINUOUS
62
0
10
59762
20
-15287
11
59200
21
-15287
 0
LINE
8
COUCHE_1
 6
CONTINUOUS
62
0
10
59762
20
-15287
11
59762
21
-14737
 0
LINE
8
COUCHE_1
 6
CONTINUOUS
62
0
10
59200
20
-14737
11
59762
21
-14737
 0
LINE
8
COUCHE_1
 6
CONTINUOUS
62
0
10
59700
20
-15200
11
59237
21
-15200
 0
LINE
8
COUCHE_1
 6
CONTINUOUS
62
0
10
59235
20
-15200
11
59315
21
-15150
 0
LINE
8
COUCHE_1
 6
CONTINUOUS
62
0
10
59235
20
-15200
11
59305
21
-15245
 0
LINE
8
COUCHE_1
 6
CONTINUOUS
62
0
10
59700
20
-15200
11
59625
21
-15250
 0
LINE
8
COUCHE_1
 6
CONTINUOUS
62
0
10
59700
20
-15200
11
59625
21
-15150
 0
LINE
8
COUCHE_1
 6
CONTINUOUS
62
0
10
60060
20
-14817
11
60060
21
-14767
 0
LINE
8
COUCHE_1
 6
CONTINUOUS
62
0
10
59985
20
-14542
11
60135
21
-14692
 0
LINE
8
COUCHE_1
 6
CONTINUOUS
62
0
10
60010
20
-14617
11
59985
21
-14542
 0
LINE
8
COUCHE_1
 6
CONTINUOUS
62
0
10
60060
20
-14567
11
59985
21
-14542
 0
LINE
8
COUCHE_1
 6
CONTINUOUS
62
0
10
60060
20
-14817
11
60060
21
-14995
 0
LINE
8
COUCHE_1
 6
ACAD_ISO07W100
62
0
10
60062
20
-15487
11
60060
21
-15000
 0
LINE
8
COUCHE_1
 6
ACAD_ISO07W100
62
0
10
59600
20
-15500
11
60065
21
-15500
 0
LINE
8
COUCHE_1
 6
ACAD_ISO07W100
62
0
10
59600
20
-15337
11
59600
21
-15500
 0
LINE
8
COUCHE_1
 6
CONTINUOUS
62
0
10
59195
20
-14785
11
59120
21
-14860
 0
LINE
8
COUCHE_1
 6
CONTINUOUS
62
0
10
59120
20
-14860
11
59195
21
-14935
 0
LINE
8
COUCHE_1
 6
CONTINUOUS
62
0
10
59245
20
-14530
11
59537
21
-14687
 0
LINE
8
COUCHE_1
 6
CONTINUOUS
62
0
10
59337
20
-14662
11
59500
21
-14587
 0
LINE
8
COUCHE_1
 6
CONTINUOUS
62
0
10
59510
20
-14735
11
59337
21
-14662
 0
LINE
8
COUCHE_1
 6
CONTINUOUS
62
0
10
59725
20
-14800
11
59725
21
-15225
 0
LINE
8
COUCHE_1
 6
CONTINUOUS
62
0
10
59250
20
-14530
11
59315
21
-14610
 0
LINE
8
COUCHE_1
 6
CONTINUOUS
62
0
10
59360
20
-14545
11
59245
21
-14530
 0
LINE
8
COUCHE_1
 6
CONTINUOUS
62
0
10
59325
20
-14512
11
59487
21
-14437
 0
LINE
8
COUCHE_1
 6
CONTINUOUS
62
0
10
59497
20
-14585
11
59325
21
-14512
 0
LINE
8
COUCHE_1
 6
CONTINUOUS
62
0
10
60200
20
-15000
11
59765
21
-15000
 0
CIRCLE
8
COUCHE_1
62
0
 6
CONTINUOUS
10
60060
20
-14617
40
150
 0
CIRCLE
8
COUCHE_1
62
0
 6
CONTINUOUS
10
60060
20
-15005
40
30
0
POLYLINE
5
2B
 8
0
62
1
 6
CONTINUOUS
 66
 1
 10
0
 20
0
 30
0
 70
1
 0
VERTEX
 5
33
  8
0
 10
58975
 20
-15175
 0
VERTEX
 5
33
  8
0
 10
59025
 20
-15175
 0
VERTEX
 5
33
  8
0
 10
59025
 20
-15225
 0
VERTEX
 5
33
  8
0
 10
58975
 20
-15225
 0
SEQEND
 5
37
 8
0
 0
LINE
8
COUCHE_1
 6
CONTINUOUS
62
1
10
59000
20
-15200
11
59200
21
-15200
0
POLYLINE
5
2B
 8
0
62
1
 6
CONTINUOUS
 66
 1
 10
0
 20
0
 30
0
 70
1
 0
VERTEX
 5
33
  8
0
 10
60375
 20
-14975
 0
VERTEX
 5
33
  8
0
 10
60425
 20
-14975
 0
VERTEX
 5
33
  8
0
 10
60425
 20
-15025
 0
VERTEX
 5
33
  8
0
 10
60375
 20
-15025
 0
SEQEND
 5
37
 8
0
 0
LINE
8
COUCHE_1
 6
CONTINUOUS
62
1
10
60400
20
-15000
11
60200
21
-15000
0
TEXT
8
COUCHE_1
 10
58665
 20
-14620
 11
58665
 21
-14620
 40
75
 1
Q7
50
0
 72
0
 73
3
62
0
 0
LINE
8
COUCHE_1
 6
CONTINUOUS
62
0
10
61600
20
-11537
11
61600
21
-12087
 0
LINE
8
COUCHE_1
 6
CONTINUOUS
62
0
10
62162
20
-12087
11
61600
21
-12087
 0
LINE
8
COUCHE_1
 6
CONTINUOUS
62
0
10
62162
20
-12087
11
62162
21
-11537
 0
LINE
8
COUCHE_1
 6
CONTINUOUS
62
0
10
61600
20
-11537
11
62162
21
-11537
 0
LINE
8
COUCHE_1
 6
CONTINUOUS
62
0
10
62100
20
-12000
11
61637
21
-12000
 0
LINE
8
COUCHE_1
 6
CONTINUOUS
62
0
10
61635
20
-12000
11
61715
21
-11950
 0
LINE
8
COUCHE_1
 6
CONTINUOUS
62
0
10
61635
20
-12000
11
61705
21
-12045
 0
LINE
8
COUCHE_1
 6
CONTINUOUS
62
0
10
62100
20
-12000
11
62025
21
-12050
 0
LINE
8
COUCHE_1
 6
CONTINUOUS
62
0
10
62100
20
-12000
11
62025
21
-11950
 0
LINE
8
COUCHE_1
 6
CONTINUOUS
62
0
10
62460
20
-11617
11
62460
21
-11567
 0
LINE
8
COUCHE_1
 6
CONTINUOUS
62
0
10
62385
20
-11342
11
62535
21
-11492
 0
LINE
8
COUCHE_1
 6
CONTINUOUS
62
0
10
62410
20
-11417
11
62385
21
-11342
 0
LINE
8
COUCHE_1
 6
CONTINUOUS
62
0
10
62460
20
-11367
11
62385
21
-11342
 0
LINE
8
COUCHE_1
 6
CONTINUOUS
62
0
10
62460
20
-11617
11
62460
21
-11795
 0
LINE
8
COUCHE_1
 6
ACAD_ISO07W100
62
0
10
62462
20
-12287
11
62460
21
-11800
 0
LINE
8
COUCHE_1
 6
ACAD_ISO07W100
62
0
10
62000
20
-12300
11
62465
21
-12300
 0
LINE
8
COUCHE_1
 6
ACAD_ISO07W100
62
0
10
62000
20
-12137
11
62000
21
-12300
 0
LINE
8
COUCHE_1
 6
CONTINUOUS
62
0
10
61595
20
-11585
11
61520
21
-11660
 0
LINE
8
COUCHE_1
 6
CONTINUOUS
62
0
10
61520
20
-11660
11
61595
21
-11735
 0
LINE
8
COUCHE_1
 6
CONTINUOUS
62
0
10
61645
20
-11330
11
61937
21
-11487
 0
LINE
8
COUCHE_1
 6
CONTINUOUS
62
0
10
61737
20
-11462
11
61900
21
-11387
 0
LINE
8
COUCHE_1
 6
CONTINUOUS
62
0
10
61910
20
-11535
11
61737
21
-11462
 0
LINE
8
COUCHE_1
 6
CONTINUOUS
62
0
10
62125
20
-11600
11
62125
21
-12025
 0
LINE
8
COUCHE_1
 6
CONTINUOUS
62
0
10
61650
20
-11330
11
61715
21
-11410
 0
LINE
8
COUCHE_1
 6
CONTINUOUS
62
0
10
61760
20
-11345
11
61645
21
-11330
 0
LINE
8
COUCHE_1
 6
CONTINUOUS
62
0
10
61725
20
-11312
11
61887
21
-11237
 0
LINE
8
COUCHE_1
 6
CONTINUOUS
62
0
10
61897
20
-11385
11
61725
21
-11312
 0
LINE
8
COUCHE_1
 6
CONTINUOUS
62
0
10
62600
20
-11800
11
62165
21
-11800
 0
CIRCLE
8
COUCHE_1
62
0
 6
CONTINUOUS
10
62460
20
-11417
40
150
 0
CIRCLE
8
COUCHE_1
62
0
 6
CONTINUOUS
10
62460
20
-11805
40
30
0
POLYLINE
5
2B
 8
0
62
1
 6
CONTINUOUS
 66
 1
 10
0
 20
0
 30
0
 70
1
 0
VERTEX
 5
33
  8
0
 10
61375
 20
-11975
 0
VERTEX
 5
33
  8
0
 10
61425
 20
-11975
 0
VERTEX
 5
33
  8
0
 10
61425
 20
-12025
 0
VERTEX
 5
33
  8
0
 10
61375
 20
-12025
 0
SEQEND
 5
37
 8
0
 0
LINE
8
COUCHE_1
 6
CONTINUOUS
62
1
10
61400
20
-12000
11
61600
21
-12000
0
POLYLINE
5
2B
 8
0
62
1
 6
CONTINUOUS
 66
 1
 10
0
 20
0
 30
0
 70
1
 0
VERTEX
 5
33
  8
0
 10
62775
 20
-11775
 0
VERTEX
 5
33
  8
0
 10
62825
 20
-11775
 0
VERTEX
 5
33
  8
0
 10
62825
 20
-11825
 0
VERTEX
 5
33
  8
0
 10
62775
 20
-11825
 0
SEQEND
 5
37
 8
0
 0
LINE
8
COUCHE_1
 6
CONTINUOUS
62
1
10
62800
20
-11800
11
62600
21
-11800
0
TEXT
8
COUCHE_1
 10
61065
 20
-11420
 11
61065
 21
-11420
 40
75
 1
Q7
50
0
 72
0
 73
3
62
0
 0
LINE
8
COUCHE_1
 6
CONTINUOUS
62
0
10
59000
20
-10537
11
59000
21
-11087
 0
LINE
8
COUCHE_1
 6
CONTINUOUS
62
0
10
59562
20
-11087
11
59000
21
-11087
 0
LINE
8
COUCHE_1
 6
CONTINUOUS
62
0
10
59562
20
-11087
11
59562
21
-10537
 0
LINE
8
COUCHE_1
 6
CONTINUOUS
62
0
10
59000
20
-10537
11
59562
21
-10537
 0
LINE
8
COUCHE_1
 6
CONTINUOUS
62
0
10
59500
20
-11000
11
59037
21
-11000
 0
LINE
8
COUCHE_1
 6
CONTINUOUS
62
0
10
59035
20
-11000
11
59115
21
-10950
 0
LINE
8
COUCHE_1
 6
CONTINUOUS
62
0
10
59035
20
-11000
11
59105
21
-11045
 0
LINE
8
COUCHE_1
 6
CONTINUOUS
62
0
10
59500
20
-11000
11
59425
21
-11050
 0
LINE
8
COUCHE_1
 6
CONTINUOUS
62
0
10
59500
20
-11000
11
59425
21
-10950
 0
LINE
8
COUCHE_1
 6
CONTINUOUS
62
0
10
59860
20
-10617
11
59860
21
-10567
 0
LINE
8
COUCHE_1
 6
CONTINUOUS
62
0
10
59785
20
-10342
11
59935
21
-10492
 0
LINE
8
COUCHE_1
 6
CONTINUOUS
62
0
10
59810
20
-10417
11
59785
21
-10342
 0
LINE
8
COUCHE_1
 6
CONTINUOUS
62
0
10
59860
20
-10367
11
59785
21
-10342
 0
LINE
8
COUCHE_1
 6
CONTINUOUS
62
0
10
59860
20
-10617
11
59860
21
-10795
 0
LINE
8
COUCHE_1
 6
ACAD_ISO07W100
62
0
10
59862
20
-11287
11
59860
21
-10800
 0
LINE
8
COUCHE_1
 6
ACAD_ISO07W100
62
0
10
59400
20
-11300
11
59865
21
-11300
 0
LINE
8
COUCHE_1
 6
ACAD_ISO07W100
62
0
10
59400
20
-11137
11
59400
21
-11300
 0
LINE
8
COUCHE_1
 6
CONTINUOUS
62
0
10
58995
20
-10585
11
58920
21
-10660
 0
LINE
8
COUCHE_1
 6
CONTINUOUS
62
0
10
58920
20
-10660
11
58995
21
-10735
 0
LINE
8
COUCHE_1
 6
CONTINUOUS
62
0
10
59045
20
-10330
11
59337
21
-10487
 0
LINE
8
COUCHE_1
 6
CONTINUOUS
62
0
10
59137
20
-10462
11
59300
21
-10387
 0
LINE
8
COUCHE_1
 6
CONTINUOUS
62
0
10
59310
20
-10535
11
59137
21
-10462
 0
LINE
8
COUCHE_1
 6
CONTINUOUS
62
0
10
59525
20
-10600
11
59525
21
-11025
 0
LINE
8
COUCHE_1
 6
CONTINUOUS
62
0
10
59050
20
-10330
11
59115
21
-10410
 0
LINE
8
COUCHE_1
 6
CONTINUOUS
62
0
10
59160
20
-10345
11
59045
21
-10330
 0
LINE
8
COUCHE_1
 6
CONTINUOUS
62
0
10
59125
20
-10312
11
59287
21
-10237
 0
LINE
8
COUCHE_1
 6
CONTINUOUS
62
0
10
59297
20
-10385
11
59125
21
-10312
 0
LINE
8
COUCHE_1
 6
CONTINUOUS
62
0
10
60000
20
-10800
11
59565
21
-10800
 0
CIRCLE
8
COUCHE_1
62
0
 6
CONTINUOUS
10
59860
20
-10417
40
150
 0
CIRCLE
8
COUCHE_1
62
0
 6
CONTINUOUS
10
59860
20
-10805
40
30
0
POLYLINE
5
2B
 8
0
62
1
 6
CONTINUOUS
 66
 1
 10
0
 20
0
 30
0
 70
1
 0
VERTEX
 5
33
  8
0
 10
58775
 20
-10975
 0
VERTEX
 5
33
  8
0
 10
58825
 20
-10975
 0
VERTEX
 5
33
  8
0
 10
58825
 20
-11025
 0
VERTEX
 5
33
  8
0
 10
58775
 20
-11025
 0
SEQEND
 5
37
 8
0
 0
LINE
8
COUCHE_1
 6
CONTINUOUS
62
1
10
58800
20
-11000
11
59000
21
-11000
0
POLYLINE
5
2B
 8
0
62
1
 6
CONTINUOUS
 66
 1
 10
0
 20
0
 30
0
 70
1
 0
VERTEX
 5
33
  8
0
 10
60175
 20
-10775
 0
VERTEX
 5
33
  8
0
 10
60225
 20
-10775
 0
VERTEX
 5
33
  8
0
 10
60225
 20
-10825
 0
VERTEX
 5
33
  8
0
 10
60175
 20
-10825
 0
SEQEND
 5
37
 8
0
 0
LINE
8
COUCHE_1
 6
CONTINUOUS
62
1
10
60200
20
-10800
11
60000
21
-10800
0
TEXT
8
COUCHE_1
 10
58465
 20
-10420
 11
58465
 21
-10420
 40
75
 1
Q7
50
0
 72
0
 73
3
62
0
 0
LINE
8
COUCHE_1
 6
CONTINUOUS
62
4
10
35600
20
-8800
11
35600
21
-7200
 0
LINE
8
COUCHE_1
 6
CONTINUOUS
62
4
10
35600
20
-7200
11
43000
21
-7200
 0
LINE
8
COUCHE_1
 6
CONTINUOUS
62
4
10
43000
20
-12000
11
43000
21
-7200
 0
LINE
8
COUCHE_1
 6
CONTINUOUS
62
4
10
43000
20
-12000
11
52000
21
-12000
 0
LINE
8
COUCHE_1
 6
CONTINUOUS
62
0
10
34000
20
-8800
11
34000
21
-6600
 0
LINE
8
COUCHE_1
 6
CONTINUOUS
62
0
10
34000
20
-6600
11
44000
21
-6600
 0
LINE
8
COUCHE_1
 6
CONTINUOUS
62
0
10
44000
20
-11000
11
44000
21
-6600
 0
LINE
8
COUCHE_1
 6
CONTINUOUS
62
0
10
44000
20
-11000
11
52000
21
-11000
 0
LINE
8
COUCHE_1
 6
CONTINUOUS
62
4
10
34200
20
-19000
11
34200
21
-18400
 0
LINE
8
COUCHE_1
 6
CONTINUOUS
62
4
10
34200
20
-19000
11
43000
21
-19000
 0
LINE
8
COUCHE_1
 6
CONTINUOUS
62
4
10
43000
20
-19000
11
43000
21
-13200
 0
LINE
8
COUCHE_1
 6
CONTINUOUS
62
4
10
43000
20
-13200
11
52000
21
-13200
 0
LINE
8
COUCHE_1
 6
CONTINUOUS
62
4
10
53800
20
-12000
11
57600
21
-12000
 0
LINE
8
COUCHE_1
 6
CONTINUOUS
62
0
10
57000
20
-15200
11
57000
21
-11000
 0
LINE
8
COUCHE_1
 6
CONTINUOUS
62
4
10
53800
20
-13000
11
56200
21
-13000
 0
LINE
8
COUCHE_1
 6
CONTINUOUS
62
4
10
56200
20
-19600
11
56200
21
-13000
 0
LINE
8
COUCHE_1
 6
CONTINUOUS
62
4
10
35800
20
-22400
11
35800
21
-21200
 0
LINE
8
COUCHE_1
 6
CONTINUOUS
62
4
10
35800
20
-21200
11
42600
21
-21200
 0
LINE
8
COUCHE_1
 6
CONTINUOUS
62
4
10
42600
20
-28200
11
42600
21
-21200
 0
LINE
8
COUCHE_1
 6
CONTINUOUS
62
4
10
72200
20
-28200
11
72200
21
-27400
 0
LINE
8
COUCHE_1
 6
CONTINUOUS
62
4
10
35200
20
-31400
11
35200
21
-30600
 0
LINE
8
COUCHE_1
 6
CONTINUOUS
62
4
10
35200
20
-30600
11
42000
21
-30600
 0
LINE
8
COUCHE_1
 6
CONTINUOUS
62
4
10
42000
20
-34400
11
42000
21
-30600
 0
LINE
8
COUCHE_1
 6
CONTINUOUS
62
0
10
43200
20
-27400
11
43200
21
-20800
 0
LINE
8
COUCHE_1
 6
CONTINUOUS
62
0
10
34200
20
-20800
11
43200
21
-20800
 0
LINE
8
COUCHE_1
 6
CONTINUOUS
62
0
10
34200
20
-22400
11
34200
21
-20800
 0
LINE
8
COUCHE_1
 6
CONTINUOUS
62
0
10
33600
20
-30200
11
42600
21
-30200
 0
LINE
8
COUCHE_1
 6
CONTINUOUS
62
0
10
33600
20
-31400
11
33600
21
-30200
 0
LINE
8
COUCHE_1
 6
CONTINUOUS
62
4
10
34400
20
-37600
11
34400
21
-34600
 0
LINE
8
COUCHE_1
 6
CONTINUOUS
62
4
10
35000
20
-26800
11
35000
21
-25600
 0
LINE
8
COUCHE_1
 6
CONTINUOUS
62
4
10
33400
20
-15200
11
33400
21
-14600
 0
LINE
8
COUCHE_1
 6
CONTINUOUS
62
4
10
33400
20
-14600
11
33400
21
-14400
 0
LINE
8
COUCHE_1
 6
CONTINUOUS
62
4
10
22800
20
-26800
11
22800
21
-14400
 0
LINE
8
COUCHE_1
 6
CONTINUOUS
62
4
10
34800
20
-12600
11
34800
21
-12000
 0
LINE
8
COUCHE_1
 6
CONTINUOUS
62
0
10
29800
20
-9200
11
29800
21
-8800
 0
LINE
8
COUCHE_1
 6
CONTINUOUS
62
0
10
21200
20
-8800
11
29800
21
-8800
 0
LINE
8
COUCHE_1
 6
CONTINUOUS
62
0
10
29400
20
-12000
11
29400
21
-11600
 0
LINE
8
COUCHE_1
 6
CONTINUOUS
62
0
10
25000
20
-12000
11
29400
21
-12000
 0
LINE
8
COUCHE_1
 6
CONTINUOUS
62
0
10
37800
20
-9200
11
37800
21
-8400
 0
LINE
8
COUCHE_1
 6
CONTINUOUS
62
0
10
11200
20
-8400
11
37800
21
-8400
 0
LINE
8
COUCHE_1
 6
CONTINUOUS
62
0
10
37400
20
-12400
11
37400
21
-11600
 0
LINE
8
COUCHE_1
 6
CONTINUOUS
62
0
10
37400
20
-12400
11
38600
21
-12400
 0
LINE
8
COUCHE_1
 6
CONTINUOUS
62
0
10
11200
20
-8800
11
21200
21
-8800
 0
LINE
8
COUCHE_1
 6
CONTINUOUS
62
0
10
22200
20
-12000
11
25000
21
-12000
 0
LINE
8
COUCHE_1
 6
CONTINUOUS
62
0
10
11200
20
-15200
11
31000
21
-15200
 0
LINE
8
COUCHE_1
 6
CONTINUOUS
62
0
10
31000
20
-15600
11
31000
21
-15200
 0
LINE
8
COUCHE_1
 6
CONTINUOUS
62
0
10
30600
20
-18400
11
30600
21
-18000
 0
LINE
8
COUCHE_1
 6
CONTINUOUS
62
0
10
29400
20
-31800
11
29400
21
-31400
 0
LINE
8
COUCHE_1
 6
CONTINUOUS
62
0
10
10400
20
-31400
11
29400
21
-31400
 0
LINE
8
COUCHE_1
 6
CONTINUOUS
62
0
10
10800
20
-35000
11
29000
21
-35000
 0
LINE
8
COUCHE_1
 6
CONTINUOUS
62
0
10
37400
20
-31800
11
37400
21
-30800
 0
LINE
8
COUCHE_1
 6
CONTINUOUS
62
0
10
10400
20
-30800
11
37400
21
-30800
 0
LINE
8
COUCHE_1
 6
CONTINUOUS
62
0
10
37000
20
-34800
11
37000
21
-34200
 0
LINE
8
COUCHE_1
 6
CONTINUOUS
62
0
10
30000
20
-22800
11
30000
21
-22200
 0
LINE
8
COUCHE_1
 6
CONTINUOUS
62
0
10
10800
20
-22200
11
30000
21
-22200
 0
LINE
8
COUCHE_1
 6
CONTINUOUS
62
0
10
29600
20
-25600
11
29600
21
-25200
 0
LINE
8
COUCHE_1
 6
CONTINUOUS
62
0
10
38000
20
-22800
11
38000
21
-21600
 0
LINE
8
COUCHE_1
 6
CONTINUOUS
62
0
10
10800
20
-21600
11
38000
21
-21600
 0
LINE
8
COUCHE_1
 6
CONTINUOUS
62
0
10
37600
20
-25800
11
37600
21
-25200
 0
LINE
8
COUCHE_1
 6
CONTINUOUS
62
0
10
34000
20
-12200
11
34000
21
-12000
 0
LINE
8
COUCHE_1
 6
CONTINUOUS
62
0
10
24200
20
-12200
11
34000
21
-12200
 0
LINE
8
COUCHE_1
 6
CONTINUOUS
62
0
10
24200
20
-20200
11
24200
21
-12200
 0
LINE
8
COUCHE_1
 6
CONTINUOUS
62
0
10
24200
20
-26200
11
24200
21
-20200
 0
LINE
8
COUCHE_1
 6
CONTINUOUS
62
0
10
24200
20
-26200
11
34200
21
-26200
 0
LINE
8
COUCHE_1
 6
CONTINUOUS
62
0
10
34200
20
-26200
11
34200
21
-25600
 0
LINE
8
COUCHE_1
 6
CONTINUOUS
62
0
10
33600
20
-35800
11
33600
21
-34600
 0
LINE
8
COUCHE_1
 6
CONTINUOUS
62
3
10
33400
20
-19000
11
33400
21
-18400
 0
LINE
8
COUCHE_1
 6
CONTINUOUS
62
3
10
26800
20
-19000
11
33400
21
-19000
 0
LINE
8
COUCHE_1
 6
CONTINUOUS
62
3
10
26800
20
-27400
11
26800
21
-19000
 0
LINE
8
COUCHE_1
 6
CONTINUOUS
62
3
10
26800
20
-27400
11
35800
21
-27400
 0
LINE
8
COUCHE_1
 6
CONTINUOUS
62
3
10
35800
20
-27400
11
35800
21
-25600
 0
LINE
8
COUCHE_1
 6
CONTINUOUS
62
3
10
35200
20
-37000
11
35200
21
-34600
 0
LINE
8
COUCHE_1
 6
CONTINUOUS
62
3
10
26800
20
-19000
11
26800
21
-13800
 0
LINE
8
COUCHE_1
 6
CONTINUOUS
62
3
10
26800
20
-13800
11
35600
21
-13800
 0
LINE
8
COUCHE_1
 6
CONTINUOUS
62
3
10
35600
20
-13800
11
35600
21
-12000
 0
LINE
8
COUCHE_1
 6
CONTINUOUS
62
4
10
22800
20
-27000
11
22800
21
-26800
 0
LINE
8
COUCHE_1
 6
CONTINUOUS
62
4
10
22800
20
-28600
11
22800
21
-27000
 0
LINE
8
COUCHE_1
 6
CONTINUOUS
62
4
10
22800
20
-28600
11
22800
21
-53000
 0
LINE
8
COUCHE_1
 6
CONTINUOUS
62
4
10
22800
20
-14400
11
22800
21
-12800
 0
LINE
8
COUCHE_1
 6
CONTINUOUS
62
3
10
26800
20
-27400
11
26800
21
-52000
 0
LINE
8
COUCHE_1
 6
CONTINUOUS
62
3
10
26800
20
-52000
11
26800
21
-54600
 0
LINE
8
COUCHE_1
 6
CONTINUOUS
62
0
10
24200
20
-26200
11
24200
21
-54600
 0
LINE
8
COUCHE_1
 6
CONTINUOUS
62
0
10
22200
20
-18400
11
22200
21
-12000
 0
LINE
8
COUCHE_1
 6
CONTINUOUS
62
0
10
22200
20
-18400
11
22200
21
-25600
 0
LINE
8
COUCHE_1
 6
CONTINUOUS
62
0
10
22200
20
-25600
11
22200
21
-50400
 0
LINE
8
COUCHE_1
 6
CONTINUOUS
62
0
10
38600
20
-25800
11
38600
21
-12400
 0
LINE
8
COUCHE_1
 6
CONTINUOUS
62
0
10
37600
20
-25800
11
38600
21
-25800
 0
LINE
8
COUCHE_1
 6
CONTINUOUS
62
0
10
37400
20
-50600
11
38600
21
-50600
 0
LINE
8
COUCHE_1
 6
CONTINUOUS
62
0
10
38600
20
-25800
11
38600
21
-50600
 0
LINE
8
COUCHE_1
 6
CONTINUOUS
62
0
10
20400
20
-48200
11
21000
21
-48200
 0
LINE
8
COUCHE_1
 6
CONTINUOUS
62
0
10
29000
20
-35000
11
37000
21
-35000
 0
LINE
8
COUCHE_1
 6
CONTINUOUS
62
0
10
37000
20
-35000
11
37000
21
-34600
 0
LINE
8
COUCHE_1
 6
CONTINUOUS
62
0
10
42600
20
-33400
11
42600
21
-30200
 0
LINE
8
COUCHE_1
 6
CONTINUOUS
62
0
10
67400
20
-32400
11
67400
21
-32200
 0
LINE
8
COUCHE_1
 6
CONTINUOUS
62
0
10
26600
20
-54800
11
26800
21
-54800
 0
LINE
8
COUCHE_1
 6
CONTINUOUS
62
0
10
26800
20
-55000
11
27000
21
-55000
 0
LINE
8
COUCHE_1
 6
CONTINUOUS
62
0
10
24000
20
-54800
11
24200
21
-54800
 0
LINE
8
COUCHE_1
 6
CONTINUOUS
62
0
10
24200
20
-55000
11
24400
21
-55000
 0
LINE
8
COUCHE_1
 6
CONTINUOUS
62
0
10
29600
20
-25600
11
22200
21
-25600
 0
LINE
8
COUCHE_1
 6
CONTINUOUS
62
0
10
22200
20
-18400
11
30600
21
-18400
 0
LINE
8
COUCHE_1
 6
CONTINUOUS
62
0
10
29000
20
-35000
11
29000
21
-34200
 0
LINE
8
COUCHE_1
 6
CONTINUOUS
62
0
10
24200
20
-36200
11
33600
21
-36200
 0
LINE
8
COUCHE_1
 6
CONTINUOUS
62
0
10
33600
20
-36200
11
33600
21
-35800
 0
LINE
8
COUCHE_1
 6
CONTINUOUS
62
3
10
35200
20
-38600
11
35200
21
-37000
 0
LINE
8
COUCHE_1
 6
CONTINUOUS
62
3
10
26800
20
-38600
11
35200
21
-38600
 0
LINE
8
COUCHE_1
 6
CONTINUOUS
62
0
10
34000
20
-48200
11
34000
21
-47800
 0
LINE
8
COUCHE_1
 6
CONTINUOUS
62
0
10
34000
20
-42200
11
34000
21
-42000
 0
LINE
8
COUCHE_1
 6
CONTINUOUS
62
4
10
22800
20
-42400
11
34800
21
-42400
 0
LINE
8
COUCHE_1
 6
CONTINUOUS
62
4
10
34800
20
-42400
11
34800
21
-42200
 0
LINE
8
COUCHE_1
 6
CONTINUOUS
62
0
10
24200
20
-42200
11
34000
21
-42200
 0
LINE
8
COUCHE_1
 6
CONTINUOUS
62
3
10
35600
20
-42600
11
35600
21
-42200
 0
LINE
8
COUCHE_1
 6
CONTINUOUS
62
3
10
26800
20
-42600
11
35600
21
-42600
 0
LINE
8
COUCHE_1
 6
CONTINUOUS
62
0
10
24200
20
-48200
11
34000
21
-48200
 0
LINE
8
COUCHE_1
 6
CONTINUOUS
62
0
10
34800
20
-48400
11
34800
21
-48200
 0
LINE
8
COUCHE_1
 6
CONTINUOUS
62
4
10
22800
20
-48400
11
34800
21
-48400
 0
LINE
8
COUCHE_1
 6
CONTINUOUS
62
3
10
35600
20
-48600
11
35600
21
-48200
 0
LINE
8
COUCHE_1
 6
CONTINUOUS
62
3
10
26800
20
-48600
11
35600
21
-48600
 0
LINE
8
COUCHE_1
 6
CONTINUOUS
62
0
10
37400
20
-47800
11
38600
21
-47800
 0
LINE
8
COUCHE_1
 6
CONTINUOUS
62
0
10
37400
20
-41800
11
38600
21
-41800
 0
LINE
8
COUCHE_1
 6
CONTINUOUS
62
0
10
29400
20
-41800
11
37400
21
-41800
 0
LINE
8
COUCHE_1
 6
CONTINUOUS
62
0
10
29400
20
-47800
11
37400
21
-47800
 0
LINE
8
COUCHE_1
 6
CONTINUOUS
62
0
10
14800
20
-36400
11
14800
21
-7800
 0
LINE
8
COUCHE_1
 6
CONTINUOUS
62
0
10
10400
20
-35000
11
10800
21
-35000
 0
LINE
8
COUCHE_1
 6
CONTINUOUS
62
4
10
22800
20
-12600
11
34800
21
-12600
 0
LINE
8
COUCHE_1
 6
CONTINUOUS
62
4
10
22800
20
-12800
11
22800
21
-12600
 0
LINE
8
COUCHE_1
 6
CONTINUOUS
62
4
10
23400
20
-14400
11
33400
21
-14400
 0
LINE
8
COUCHE_1
 6
CONTINUOUS
62
4
10
23400
20
-27000
11
35000
21
-27000
 0
LINE
8
COUCHE_1
 6
CONTINUOUS
62
4
10
35000
20
-27000
11
35000
21
-26800
 0
LINE
8
COUCHE_1
 6
CONTINUOUS
62
4
10
23400
20
-37800
11
34400
21
-37800
 0
LINE
8
COUCHE_1
 6
CONTINUOUS
62
4
10
34400
20
-37800
11
34400
21
-37600
 0
LINE
8
COUCHE_1
 6
CONTINUOUS
62
0
10
21000
20
-48200
11
21200
21
-48200
 0
LINE
8
COUCHE_1
 6
CONTINUOUS
62
4
10
66800
20
-11800
11
66800
21
-10000
 0
LINE
8
COUCHE_1
 6
CONTINUOUS
62
4
10
57600
20
-15200
11
57600
21
-12000
 0
LINE
8
COUCHE_1
 6
CONTINUOUS
62
4
10
57600
20
-15800
11
57600
21
-15200
 0
LINE
8
COUCHE_1
 6
CONTINUOUS
62
4
10
67000
20
-15800
11
67000
21
-14600
 0
LINE
8
COUCHE_1
 6
CONTINUOUS
62
0
10
71600
20
-10800
11
71600
21
-10000
 0
LINE
8
COUCHE_1
 6
CONTINUOUS
62
0
10
71800
20
-15000
11
71800
21
-14600
 0
LINE
8
COUCHE_1
 6
CONTINUOUS
62
0
10
43200
20
-27600
11
43200
21
-27400
 0
LINE
8
COUCHE_1
 6
CONTINUOUS
62
0
10
43200
20
-27600
11
60000
21
-27600
 0
LINE
8
COUCHE_1
 6
CONTINUOUS
62
0
10
67400
20
-27400
11
61400
21
-27400
 0
LINE
8
COUCHE_1
 6
CONTINUOUS
62
4
10
42600
20
-28400
11
42600
21
-28200
 0
LINE
8
COUCHE_1
 6
CONTINUOUS
62
4
10
42600
20
-28400
11
62400
21
-28400
 0
LINE
8
COUCHE_1
 6
CONTINUOUS
62
4
10
72200
20
-28200
11
63800
21
-28200
 0
LINE
8
COUCHE_1
 6
CONTINUOUS
62
4
10
42000
20
-34400
11
62000
21
-34400
 0
LINE
8
COUCHE_1
 6
CONTINUOUS
62
4
10
72200
20
-34200
11
72200
21
-32200
 0
LINE
8
COUCHE_1
 6
CONTINUOUS
62
0
10
67400
20
-33200
11
61400
21
-33200
 0
LINE
8
COUCHE_1
 6
CONTINUOUS
62
0
10
67400
20
-33200
11
67400
21
-32400
 0
LINE
8
COUCHE_1
 6
CONTINUOUS
62
0
10
42600
20
-33400
11
50600
21
-33400
 0
LINE
8
COUCHE_1
 6
CONTINUOUS
62
0
10
59600
20
-33400
11
60000
21
-33400
 0
LINE
8
COUCHE_1
 6
CONTINUOUS
62
0
10
59400
20
-33400
11
59600
21
-33400
 0
LINE
8
COUCHE_1
 6
CONTINUOUS
62
0
10
50600
20
-33400
11
59400
21
-33400
 0
LINE
8
COUCHE_1
 6
CONTINUOUS
62
0
10
42600
20
-38000
11
42800
21
-38000
 0
LINE
8
COUCHE_1
 6
CONTINUOUS
62
4
10
68400
20
-34200
11
63400
21
-34200
 0
LINE
8
COUCHE_1
 6
CONTINUOUS
62
4
10
70400
20
-34200
11
72200
21
-34200
 0
LINE
8
COUCHE_1
 6
CONTINUOUS
62
4
10
67200
20
-19400
11
62200
21
-19400
 0
LINE
8
COUCHE_1
 6
CONTINUOUS
62
4
10
56200
20
-19600
11
60800
21
-19600
 0
LINE
8
COUCHE_1
 6
CONTINUOUS
62
4
10
67200
20
-19400
11
67200
21
-18600
 0
LINE
8
COUCHE_1
 6
CONTINUOUS
62
4
10
67000
20
-15800
11
67000
21
-16000
 0
LINE
8
COUCHE_1
 6
CONTINUOUS
62
4
10
67000
20
-16000
11
62200
21
-16000
 0
LINE
8
COUCHE_1
 6
CONTINUOUS
62
4
10
60800
20
-16200
11
57600
21
-16200
 0
LINE
8
COUCHE_1
 6
CONTINUOUS
62
4
10
57600
20
-16200
11
57600
21
-15800
 0
LINE
8
COUCHE_1
 6
CONTINUOUS
62
0
10
60400
20
-15000
11
71800
21
-15000
 0
LINE
8
COUCHE_1
 6
CONTINUOUS
62
0
10
59000
20
-15200
11
57000
21
-15200
 0
LINE
8
COUCHE_1
 6
CONTINUOUS
62
4
10
57600
20
-12000
11
61400
21
-12000
 0
LINE
8
COUCHE_1
 6
CONTINUOUS
62
4
10
62800
20
-11800
11
66800
21
-11800
 0
LINE
8
COUCHE_1
 6
CONTINUOUS
62
0
10
57400
20
-11000
11
58800
21
-11000
 0
LINE
8
COUCHE_1
 6
CONTINUOUS
62
0
10
60200
20
-10800
11
71600
21
-10800
 0
LINE
8
COUCHE_1
 6
CONTINUOUS
62
0
10
53800
20
-11000
11
56800
21
-11000
 0
LINE
8
COUCHE_1
 6
CONTINUOUS
62
0
10
37600
20
-50600
11
22200
21
-50600
 0
LINE
8
COUCHE_1
 6
CONTINUOUS
62
0
10
22200
20
-50600
11
22200
21
-50400
 0
CIRCLE
8
COUCHE_1
62
5
 6
CONTINUOUS
10
38600
20
-25800
40
40
 0
CIRCLE
8
COUCHE_1
62
5
 6
CONTINUOUS
10
22200
20
-25600
40
40
 0
CIRCLE
8
COUCHE_1
62
5
 6
CONTINUOUS
10
22200
20
-18400
40
40
 0
CIRCLE
8
COUCHE_1
62
5
 6
CONTINUOUS
10
29000
20
-35000
40
40
 0
CIRCLE
8
COUCHE_1
62
5
 6
CONTINUOUS
10
38600
20
-47800
40
40
 0
CIRCLE
8
COUCHE_1
62
5
 6
CONTINUOUS
10
38600
20
-47800
40
40
 0
CIRCLE
8
COUCHE_1
62
5
 6
CONTINUOUS
10
38600
20
-41800
40
40
 0
CIRCLE
8
COUCHE_1
62
5
 6
CONTINUOUS
10
34000
20
-47800
40
40
 0
CIRCLE
8
COUCHE_1
62
5
 6
CONTINUOUS
10
22200
20
-35000
40
40
 0
CIRCLE
8
COUCHE_1
62
5
 6
CONTINUOUS
10
26800
20
-38600
40
40
 0
CIRCLE
8
COUCHE_1
62
5
 6
CONTINUOUS
10
22800
20
-42400
40
40
 0
CIRCLE
8
COUCHE_1
62
5
 6
CONTINUOUS
10
24200
20
-36200
40
40
 0
CIRCLE
8
COUCHE_1
62
5
 6
CONTINUOUS
10
24200
20
-42200
40
40
 0
CIRCLE
8
COUCHE_1
62
5
 6
CONTINUOUS
10
24200
20
-48200
40
40
 0
CIRCLE
8
COUCHE_1
62
5
 6
CONTINUOUS
10
22800
20
-48400
40
40
 0
CIRCLE
8
COUCHE_1
62
5
 6
CONTINUOUS
10
57600
20
-15200
40
40
 0
CIRCLE
8
COUCHE_1
62
5
 6
CONTINUOUS
10
37600
20
-50600
40
40
0
POLYLINE
5
2B
 8
0
62
1
 6
CONTINUOUS
 66
 1
 10
0
 20
0
 30
0
 70
1
 0
VERTEX
 5
33
  8
0
 10
11000
 20
-8800
 0
VERTEX
 5
33
  8
0
 10
10700
 20
-8600
 0
VERTEX
 5
33
  8
0
 10
10800
 20
-8800
 0
VERTEX
 5
33
  8
0
 10
10700
 20
-9000
 0
SEQEND
 5
37
 8
0
 0
LINE
8
COUCHE_1
 6
CONTINUOUS
62
1
10
11200
20
-8800
11
11000
21
-8800
0
TEXT
8
COUCHE_1
 10
10700
 20
-8800
 11
10700
 21
-8800
 40
150
 1
Ka7+
50
0
 72
2
 73
2
62
1
0
POLYLINE
5
2B
 8
0
62
1
 6
CONTINUOUS
 66
 1
 10
0
 20
0
 30
0
 70
1
 0
VERTEX
 5
33
  8
0
 10
11000
 20
-8400
 0
VERTEX
 5
33
  8
0
 10
10700
 20
-8200
 0
VERTEX
 5
33
  8
0
 10
10800
 20
-8400
 0
VERTEX
 5
33
  8
0
 10
10700
 20
-8600
 0
SEQEND
 5
37
 8
0
 0
LINE
8
COUCHE_1
 6
CONTINUOUS
62
1
10
11200
20
-8400
11
11000
21
-8400
0
TEXT
8
COUCHE_1
 10
10700
 20
-8400
 11
10700
 21
-8400
 40
150
 1
Ka6+
50
0
 72
2
 73
2
62
1
0
POLYLINE
5
2B
 8
0
62
1
 6
CONTINUOUS
 66
 1
 10
0
 20
0
 30
0
 70
1
 0
VERTEX
 5
33
  8
0
 10
11000
 20
-15200
 0
VERTEX
 5
33
  8
0
 10
10700
 20
-15000
 0
VERTEX
 5
33
  8
0
 10
10800
 20
-15200
 0
VERTEX
 5
33
  8
0
 10
10700
 20
-15400
 0
SEQEND
 5
37
 8
0
 0
LINE
8
COUCHE_1
 6
CONTINUOUS
62
1
10
11200
20
-15200
11
11000
21
-15200
0
TEXT
8
COUCHE_1
 10
10700
 20
-15200
 11
10700
 21
-15200
 40
150
 1
Ka5+
50
0
 72
2
 73
2
62
1
0
POLYLINE
5
2B
 8
0
62
1
 6
CONTINUOUS
 66
 1
 10
0
 20
0
 30
0
 70
1
 0
VERTEX
 5
33
  8
0
 10
10200
 20
-31400
 0
VERTEX
 5
33
  8
0
 10
9900
 20
-31200
 0
VERTEX
 5
33
  8
0
 10
10000
 20
-31400
 0
VERTEX
 5
33
  8
0
 10
9900
 20
-31600
 0
SEQEND
 5
37
 8
0
 0
LINE
8
COUCHE_1
 6
CONTINUOUS
62
1
10
10400
20
-31400
11
10200
21
-31400
0
TEXT
8
COUCHE_1
 10
9900
 20
-31400
 11
9900
 21
-31400
 40
150
 1
Ka4+
50
0
 72
2
 73
2
62
1
0
POLYLINE
5
2B
 8
0
62
1
 6
CONTINUOUS
 66
 1
 10
0
 20
0
 30
0
 70
1
 0
VERTEX
 5
33
  8
0
 10
10200
 20
-30800
 0
VERTEX
 5
33
  8
0
 10
9900
 20
-30600
 0
VERTEX
 5
33
  8
0
 10
10000
 20
-30800
 0
VERTEX
 5
33
  8
0
 10
9900
 20
-31000
 0
SEQEND
 5
37
 8
0
 0
LINE
8
COUCHE_1
 6
CONTINUOUS
62
1
10
10400
20
-30800
11
10200
21
-30800
0
TEXT
8
COUCHE_1
 10
9900
 20
-30800
 11
9900
 21
-30800
 40
150
 1
Ka3+
50
0
 72
2
 73
2
62
1
0
POLYLINE
5
2B
 8
0
62
1
 6
CONTINUOUS
 66
 1
 10
0
 20
0
 30
0
 70
1
 0
VERTEX
 5
33
  8
0
 10
10600
 20
-22200
 0
VERTEX
 5
33
  8
0
 10
10300
 20
-22000
 0
VERTEX
 5
33
  8
0
 10
10400
 20
-22200
 0
VERTEX
 5
33
  8
0
 10
10300
 20
-22400
 0
SEQEND
 5
37
 8
0
 0
LINE
8
COUCHE_1
 6
CONTINUOUS
62
1
10
10800
20
-22200
11
10600
21
-22200
0
TEXT
8
COUCHE_1
 10
10300
 20
-22200
 11
10300
 21
-22200
 40
150
 1
Ka2+
50
0
 72
2
 73
2
62
1
0
POLYLINE
5
2B
 8
0
62
1
 6
CONTINUOUS
 66
 1
 10
0
 20
0
 30
0
 70
1
 0
VERTEX
 5
33
  8
0
 10
10600
 20
-21600
 0
VERTEX
 5
33
  8
0
 10
10300
 20
-21400
 0
VERTEX
 5
33
  8
0
 10
10400
 20
-21600
 0
VERTEX
 5
33
  8
0
 10
10300
 20
-21800
 0
SEQEND
 5
37
 8
0
 0
LINE
8
COUCHE_1
 6
CONTINUOUS
62
1
10
10800
20
-21600
11
10600
21
-21600
0
TEXT
8
COUCHE_1
 10
10300
 20
-21600
 11
10300
 21
-21600
 40
150
 1
Ka1+
50
0
 72
2
 73
2
62
1
0
POLYLINE
5
2B
 8
0
62
1
 6
CONTINUOUS
 66
 1
 10
0
 20
0
 30
0
 70
1
 0
VERTEX
 5
33
  8
0
 10
22600
 20
-53000
 0
VERTEX
 5
33
  8
0
 10
22300
 20
-52800
 0
VERTEX
 5
33
  8
0
 10
22400
 20
-53000
 0
VERTEX
 5
33
  8
0
 10
22300
 20
-53200
 0
SEQEND
 5
37
 8
0
 0
LINE
8
COUCHE_1
 6
CONTINUOUS
62
1
10
22800
20
-53000
11
22600
21
-53000
0
TEXT
8
COUCHE_1
 10
22300
 20
-53000
 11
22300
 21
-53000
 40
150
 1
Terminal
50
0
 72
2
 73
2
62
1
0
POLYLINE
5
2B
 8
0
62
1
 6
CONTINUOUS
 66
 1
 10
0
 20
0
 30
0
 70
1
 0
VERTEX
 5
33
  8
0
 10
20200
 20
-48200
 0
VERTEX
 5
33
  8
0
 10
19900
 20
-48000
 0
VERTEX
 5
33
  8
0
 10
20000
 20
-48200
 0
VERTEX
 5
33
  8
0
 10
19900
 20
-48400
 0
SEQEND
 5
37
 8
0
 0
LINE
8
COUCHE_1
 6
CONTINUOUS
62
1
10
20400
20
-48200
11
20200
21
-48200
0
TEXT
8
COUCHE_1
 10
19900
 20
-48200
 11
19900
 21
-48200
 40
150
 1
A_T_B1
50
0
 72
2
 73
2
62
1
0
POLYLINE
5
2B
 8
0
62
1
 6
CONTINUOUS
 66
 1
 10
0
 20
0
 30
0
 70
1
 0
VERTEX
 5
33
  8
0
 10
10200
 20
-35000
 0
VERTEX
 5
33
  8
0
 10
9900
 20
-34800
 0
VERTEX
 5
33
  8
0
 10
10000
 20
-35000
 0
VERTEX
 5
33
  8
0
 10
9900
 20
-35200
 0
SEQEND
 5
37
 8
0
 0
LINE
8
COUCHE_1
 6
CONTINUOUS
62
1
10
10400
20
-35000
11
10200
21
-35000
0
TEXT
8
COUCHE_1
 10
9900
 20
-35000
 11
9900
 21
-35000
 40
150
 1
P_0
50
0
 72
2
 73
2
62
1
0
TEXT
8
COUCHE_1
 10
43000
 20
-57600
 11
43000
 21
-57600
 40
400
 1
Schéma     pneumatique  (II)
50
0
 72
0
 73
3
62
0
0
TEXT
8
COUCHE_1
 10
73600
 20
-8600
 11
73600
 21
-8600
 40
300
 1
Vérin bridage1
50
0
 72
0
 73
3
62
0
0
TEXT
8
COUCHE_1
 10
73800
 20
-13200
 11
73800
 21
-13200
 40
300
 1
Vérin bridage2
50
0
 72
0
 73
3
62
0
0
TEXT
8
COUCHE_1
 10
74000
 20
-17200
 11
74000
 21
-17200
 40
300
 1
Vérin marquage
50
0
 72
0
 73
3
62
0
0
TEXT
8
COUCHE_1
 10
74200
 20
-26000
 11
74200
 21
-26000
 40
300
 1
Vérin chariot
50
0
 72
0
 73
3
62
0
0
TEXT
8
COUCHE_1
 10
74400
 20
-30800
 11
74400
 21
-30800
 40
300
 1
Vérin porte
50
0
 72
0
 73
3
62
0
0
TEXT
8
COUCHE_1
 10
21600
 20
-4600
 11
21600
 21
-4600
 40
300
 1
CPV10
50
0
 72
0
 73
3
62
0
0
TEXT
8
COUCHE_1
 10
26400
 20
-55400
 11
26400
 21
-55400
 40
150
 1
Ech1
50
0
 72
0
 73
3
62
0
0
TEXT
8
COUCHE_1
 10
24000
 20
-55400
 11
24000
 21
-55400
 40
150
 1
Ech2
50
0
 72
0
 73
3
62
0
0
TEXT
8
COUCHE_1
 10
17400
 20
-8000
 11
17400
 21
-8000
 40
200
 1
Blanc
50
0
 72
0
 73
3
62
0
0
TEXT
8
COUCHE_1
 10
17400
 20
-8400
 11
17400
 21
-8400
 40
200
 1
Vert
50
0
 72
0
 73
3
62
0
0
TEXT
8
COUCHE_1
 10
17200
 20
-14800
 11
17200
 21
-14800
 40
200
 1
Jaune
50
0
 72
0
 73
3
62
0
0
TEXT
8
COUCHE_1
 10
17200
 20
-21200
 11
17200
 21
-21200
 40
200
 1
Gris
50
0
 72
0
 73
3
62
0
0
TEXT
8
COUCHE_1
 10
17200
 20
-21800
 11
17200
 21
-21800
 40
200
 1
Rose
50
0
 72
0
 73
3
62
0
0
TEXT
8
COUCHE_1
 10
17200
 20
-31000
 11
17200
 21
-31000
 40
200
 1
Violet
50
0
 72
0
 73
3
62
0
0
TEXT
8
COUCHE_1
 10
14200
 20
-12407
 11
14200
 21
-12407
 40
200
 1
KMP3-9P-08-X
50
90
 72
0
 73
3
62
0
0
TEXT
8
COUCHE_1
 10
65800
 20
-7400
 11
65800
 21
-7400
 40
200
 1
011_1B1
50
0
 72
0
 73
3
62
0
0
TEXT
8
COUCHE_1
 10
71400
 20
-7400
 11
71400
 21
-7400
 40
200
 1
011_1B2
50
0
 72
0
 73
3
62
0
0
TEXT
8
COUCHE_1
 10
40600
 20
-41200
 11
40600
 21
-41200
 40
200
 1
Réserve
50
0
 72
0
 73
3
62
0
0
TEXT
8
COUCHE_1
 10
40600
 20
-46600
 11
40600
 21
-46600
 40
200
 1
Réserve
50
0
 72
0
 73
3
62
0
0
TEXT
8
COUCHE_1
 10
17200
 20
-30400
 11
17200
 21
-30400
 40
200
 1
Rouge
50
0
 72
0
 73
3
62
0
0
TEXT
8
COUCHE_1
 10
17200
 20
-34600
 11
17200
 21
-34600
 40
200
 1
Noir
50
0
 72
0
 73
3
62
0
0
TEXT
8
COUCHE_1
 10
55000
 20
-26600
 11
55000
 21
-26600
 40
150
 1
3bar
50
0
 72
0
 73
3
62
0
0
TEXT
8
COUCHE_1
 10
53800
 20
-29000
 11
53800
 21
-29000
 40
150
 1
3bar
50
0
 72
0
 73
3
62
0
0
TEXT
8
COUCHE_1
 10
60000
 20
-27800
 11
60000
 21
-27800
 40
150
 1
R-p
50
0
 72
0
 73
3
62
0
0
TEXT
8
COUCHE_1
 10
53800
 20
-35000
 11
53800
 21
-35000
 40
150
 1
3bar
50
0
 72
0
 73
3
62
0
0
TEXT
8
COUCHE_1
 10
55000
 20
-32600
 11
55000
 21
-32600
 40
150
 1
3bar
50
0
 72
0
 73
3
62
0
0
TEXT
8
COUCHE_1
 10
60800
 20
-19800
 11
60800
 21
-19800
 40
150
 1
R-p
50
0
 72
0
 73
3
62
0
0
TEXT
8
COUCHE_1
 10
60800
 20
-16400
 11
60800
 21
-16400
 40
150
 1
R-p
50
0
 72
0
 73
3
62
0
0
TEXT
8
COUCHE_1
 10
59000
 20
-15400
 11
59000
 21
-15400
 40
150
 1
R-p
50
0
 72
0
 73
3
62
0
0
TEXT
8
COUCHE_1
 10
61400
 20
-12200
 11
61400
 21
-12200
 40
150
 1
R-p
50
0
 72
0
 73
3
62
0
0
TEXT
8
COUCHE_1
 10
58800
 20
-11200
 11
58800
 21
-11200
 40
150
 1
R-p
50
0
 72
0
 73
3
62
0
0
TEXT
8
COUCHE_1
 10
68600
 20
-35600
 11
68600
 21
-35600
 40
150
 1
Calpet anti-retour
50
0
 72
0
 73
3
62
0
0
TEXT
8
COUCHE_1
 10
61600
 20
-35600
 11
61600
 21
-35600
 40
150
 1
Régulateur de pression
50
0
 72
0
 73
3
62
0
0
TEXT
8
COUCHE_1
 10
53000
 20
-35600
 11
53000
 21
-35600
 40
150
 1
Régulateur de débit 3 bar
50
0
 72
0
 73
3
62
0
 0
LINE
8
COUCHE_1
 6
CONTINUOUS
62
0
10
1200
20
-1200
11
83600
21
-1200
 0
LINE
8
COUCHE_1
 6
CONTINUOUS
62
0
10
1600
20
-1600
11
83600
21
-1600
 0
LINE
8
COUCHE_1
 6
CONTINUOUS
62
0
10
3200
20
-1200
11
3200
21
-1600
 0
LINE
8
COUCHE_1
 6
CONTINUOUS
62
0
10
4800
20
-1200
11
4800
21
-1600
 0
LINE
8
COUCHE_1
 6
CONTINUOUS
62
0
10
6400
20
-1200
11
6400
21
-1600
 0
LINE
8
COUCHE_1
 6
CONTINUOUS
62
0
10
8000
20
-1200
11
8000
21
-1600
 0
LINE
8
COUCHE_1
 6
CONTINUOUS
62
0
10
9600
20
-1200
11
9600
21
-1600
 0
LINE
8
COUCHE_1
 6
CONTINUOUS
62
0
10
11200
20
-1200
11
11200
21
-1600
 0
LINE
8
COUCHE_1
 6
CONTINUOUS
62
0
10
12800
20
-1200
11
12800
21
-1600
 0
LINE
8
COUCHE_1
 6
CONTINUOUS
62
0
10
14400
20
-1200
11
14400
21
-1600
 0
LINE
8
COUCHE_1
 6
CONTINUOUS
62
0
10
16000
20
-1200
11
16000
21
-1600
 0
LINE
8
COUCHE_1
 6
CONTINUOUS
62
0
10
17600
20
-1200
11
17600
21
-1600
 0
LINE
8
COUCHE_1
 6
CONTINUOUS
62
0
10
19200
20
-1200
11
19200
21
-1600
 0
LINE
8
COUCHE_1
 6
CONTINUOUS
62
0
10
20800
20
-1200
11
20800
21
-1600
 0
LINE
8
COUCHE_1
 6
CONTINUOUS
62
0
10
22400
20
-1200
11
22400
21
-1600
 0
LINE
8
COUCHE_1
 6
CONTINUOUS
62
0
10
24000
20
-1200
11
24000
21
-1600
 0
LINE
8
COUCHE_1
 6
CONTINUOUS
62
0
10
25600
20
-1200
11
25600
21
-1600
 0
LINE
8
COUCHE_1
 6
CONTINUOUS
62
0
10
27200
20
-1200
11
27200
21
-1600
 0
LINE
8
COUCHE_1
 6
CONTINUOUS
62
0
10
28800
20
-1200
11
28800
21
-1600
 0
LINE
8
COUCHE_1
 6
CONTINUOUS
62
0
10
30400
20
-1200
11
30400
21
-1600
 0
LINE
8
COUCHE_1
 6
CONTINUOUS
62
0
10
32000
20
-1200
11
32000
21
-1600
 0
LINE
8
COUCHE_1
 6
CONTINUOUS
62
0
10
33600
20
-1200
11
33600
21
-1600
 0
LINE
8
COUCHE_1
 6
CONTINUOUS
62
0
10
35200
20
-1200
11
35200
21
-1600
 0
LINE
8
COUCHE_1
 6
CONTINUOUS
62
0
10
36800
20
-1200
11
36800
21
-1600
 0
LINE
8
COUCHE_1
 6
CONTINUOUS
62
0
10
38400
20
-1200
11
38400
21
-1600
 0
LINE
8
COUCHE_1
 6
CONTINUOUS
62
0
10
40000
20
-1200
11
40000
21
-1600
 0
LINE
8
COUCHE_1
 6
CONTINUOUS
62
0
10
41600
20
-1200
11
41600
21
-1600
 0
LINE
8
COUCHE_1
 6
CONTINUOUS
62
0
10
43200
20
-1200
11
43200
21
-1600
 0
LINE
8
COUCHE_1
 6
CONTINUOUS
62
0
10
44800
20
-1200
11
44800
21
-1600
 0
LINE
8
COUCHE_1
 6
CONTINUOUS
62
0
10
46400
20
-1200
11
46400
21
-1600
 0
LINE
8
COUCHE_1
 6
CONTINUOUS
62
0
10
48000
20
-1200
11
48000
21
-1600
 0
LINE
8
COUCHE_1
 6
CONTINUOUS
62
0
10
49600
20
-1200
11
49600
21
-1600
 0
LINE
8
COUCHE_1
 6
CONTINUOUS
62
0
10
51200
20
-1200
11
51200
21
-1600
 0
LINE
8
COUCHE_1
 6
CONTINUOUS
62
0
10
52800
20
-1200
11
52800
21
-1600
 0
LINE
8
COUCHE_1
 6
CONTINUOUS
62
0
10
54400
20
-1200
11
54400
21
-1600
 0
LINE
8
COUCHE_1
 6
CONTINUOUS
62
0
10
56000
20
-1200
11
56000
21
-1600
 0
LINE
8
COUCHE_1
 6
CONTINUOUS
62
0
10
57600
20
-1200
11
57600
21
-1600
 0
LINE
8
COUCHE_1
 6
CONTINUOUS
62
0
10
59200
20
-1200
11
59200
21
-1600
 0
LINE
8
COUCHE_1
 6
CONTINUOUS
62
0
10
60800
20
-1200
11
60800
21
-1600
 0
LINE
8
COUCHE_1
 6
CONTINUOUS
62
0
10
62400
20
-1200
11
62400
21
-1600
 0
LINE
8
COUCHE_1
 6
CONTINUOUS
62
0
10
64000
20
-1200
11
64000
21
-1600
 0
LINE
8
COUCHE_1
 6
CONTINUOUS
62
0
10
65600
20
-1200
11
65600
21
-1600
 0
LINE
8
COUCHE_1
 6
CONTINUOUS
62
0
10
67200
20
-1200
11
67200
21
-1600
 0
LINE
8
COUCHE_1
 6
CONTINUOUS
62
0
10
68800
20
-1200
11
68800
21
-1600
 0
LINE
8
COUCHE_1
 6
CONTINUOUS
62
0
10
70400
20
-1200
11
70400
21
-1600
 0
LINE
8
COUCHE_1
 6
CONTINUOUS
62
0
10
72000
20
-1200
11
72000
21
-1600
 0
LINE
8
COUCHE_1
 6
CONTINUOUS
62
0
10
73600
20
-1200
11
73600
21
-1600
 0
LINE
8
COUCHE_1
 6
CONTINUOUS
62
0
10
75200
20
-1200
11
75200
21
-1600
 0
LINE
8
COUCHE_1
 6
CONTINUOUS
62
0
10
76800
20
-1200
11
76800
21
-1600
 0
LINE
8
COUCHE_1
 6
CONTINUOUS
62
0
10
78400
20
-1200
11
78400
21
-1600
 0
LINE
8
COUCHE_1
 6
CONTINUOUS
62
0
10
80000
20
-1200
11
80000
21
-1600
 0
LINE
8
COUCHE_1
 6
CONTINUOUS
62
0
10
81600
20
-1200
11
81600
21
-1600
 0
LINE
8
COUCHE_1
 6
CONTINUOUS
62
0
10
83200
20
-1200
11
83200
21
-1600
 0
LINE
8
COUCHE_1
 6
CONTINUOUS
62
0
10
83600
20
-1200
11
83600
21
-1600
 0
LINE
8
COUCHE_1
 6
CONTINUOUS
62
0
10
1200
20
-59000
11
83600
21
-59000
0
TEXT
8
COUCHE_1
 10
2400
 20
-1250
 11
2400
 21
-1250
 40
150
 1
A
50
0
 72
1
 73
3
62
0
0
TEXT
8
COUCHE_1
 10
4000
 20
-1250
 11
4000
 21
-1250
 40
150
 1
B
50
0
 72
1
 73
3
62
0
0
TEXT
8
COUCHE_1
 10
5600
 20
-1250
 11
5600
 21
-1250
 40
150
 1
C
50
0
 72
1
 73
3
62
0
0
TEXT
8
COUCHE_1
 10
7200
 20
-1250
 11
7200
 21
-1250
 40
150
 1
D
50
0
 72
1
 73
3
62
0
0
TEXT
8
COUCHE_1
 10
8800
 20
-1250
 11
8800
 21
-1250
 40
150
 1
E
50
0
 72
1
 73
3
62
0
0
TEXT
8
COUCHE_1
 10
10400
 20
-1250
 11
10400
 21
-1250
 40
150
 1
F
50
0
 72
1
 73
3
62
0
0
TEXT
8
COUCHE_1
 10
12000
 20
-1250
 11
12000
 21
-1250
 40
150
 1
G
50
0
 72
1
 73
3
62
0
0
TEXT
8
COUCHE_1
 10
13600
 20
-1250
 11
13600
 21
-1250
 40
150
 1
H
50
0
 72
1
 73
3
62
0
0
TEXT
8
COUCHE_1
 10
15200
 20
-1250
 11
15200
 21
-1250
 40
150
 1
I
50
0
 72
1
 73
3
62
0
0
TEXT
8
COUCHE_1
 10
16800
 20
-1250
 11
16800
 21
-1250
 40
150
 1
J
50
0
 72
1
 73
3
62
0
0
TEXT
8
COUCHE_1
 10
18400
 20
-1250
 11
18400
 21
-1250
 40
150
 1
K
50
0
 72
1
 73
3
62
0
0
TEXT
8
COUCHE_1
 10
20000
 20
-1250
 11
20000
 21
-1250
 40
150
 1
L
50
0
 72
1
 73
3
62
0
0
TEXT
8
COUCHE_1
 10
21600
 20
-1250
 11
21600
 21
-1250
 40
150
 1
M
50
0
 72
1
 73
3
62
0
0
TEXT
8
COUCHE_1
 10
23200
 20
-1250
 11
23200
 21
-1250
 40
150
 1
N
50
0
 72
1
 73
3
62
0
0
TEXT
8
COUCHE_1
 10
24800
 20
-1250
 11
24800
 21
-1250
 40
150
 1
O
50
0
 72
1
 73
3
62
0
0
TEXT
8
COUCHE_1
 10
26400
 20
-1250
 11
26400
 21
-1250
 40
150
 1
P
50
0
 72
1
 73
3
62
0
0
TEXT
8
COUCHE_1
 10
28000
 20
-1250
 11
28000
 21
-1250
 40
150
 1
Q
50
0
 72
1
 73
3
62
0
0
TEXT
8
COUCHE_1
 10
29600
 20
-1250
 11
29600
 21
-1250
 40
150
 1
R
50
0
 72
1
 73
3
62
0
0
TEXT
8
COUCHE_1
 10
31200
 20
-1250
 11
31200
 21
-1250
 40
150
 1
S
50
0
 72
1
 73
3
62
0
0
TEXT
8
COUCHE_1
 10
32800
 20
-1250
 11
32800
 21
-1250
 40
150
 1
T
50
0
 72
1
 73
3
62
0
0
TEXT
8
COUCHE_1
 10
34400
 20
-1250
 11
34400
 21
-1250
 40
150
 1
U
50
0
 72
1
 73
3
62
0
0
TEXT
8
COUCHE_1
 10
36000
 20
-1250
 11
36000
 21
-1250
 40
150
 1
V
50
0
 72
1
 73
3
62
0
0
TEXT
8
COUCHE_1
 10
37600
 20
-1250
 11
37600
 21
-1250
 40
150
 1
W
50
0
 72
1
 73
3
62
0
0
TEXT
8
COUCHE_1
 10
39200
 20
-1250
 11
39200
 21
-1250
 40
150
 1
X
50
0
 72
1
 73
3
62
0
0
TEXT
8
COUCHE_1
 10
40800
 20
-1250
 11
40800
 21
-1250
 40
150
 1
Y
50
0
 72
1
 73
3
62
0
0
TEXT
8
COUCHE_1
 10
42400
 20
-1250
 11
42400
 21
-1250
 40
150
 1
Z
50
0
 72
1
 73
3
62
0
0
TEXT
8
COUCHE_1
 10
44000
 20
-1250
 11
44000
 21
-1250
 40
150
 1
AA
50
0
 72
1
 73
3
62
0
0
TEXT
8
COUCHE_1
 10
45600
 20
-1250
 11
45600
 21
-1250
 40
150
 1
AB
50
0
 72
1
 73
3
62
0
0
TEXT
8
COUCHE_1
 10
47200
 20
-1250
 11
47200
 21
-1250
 40
150
 1
AC
50
0
 72
1
 73
3
62
0
0
TEXT
8
COUCHE_1
 10
48800
 20
-1250
 11
48800
 21
-1250
 40
150
 1
AD
50
0
 72
1
 73
3
62
0
0
TEXT
8
COUCHE_1
 10
50400
 20
-1250
 11
50400
 21
-1250
 40
150
 1
AE
50
0
 72
1
 73
3
62
0
0
TEXT
8
COUCHE_1
 10
52000
 20
-1250
 11
52000
 21
-1250
 40
150
 1
AF
50
0
 72
1
 73
3
62
0
0
TEXT
8
COUCHE_1
 10
53600
 20
-1250
 11
53600
 21
-1250
 40
150
 1
AG
50
0
 72
1
 73
3
62
0
0
TEXT
8
COUCHE_1
 10
55200
 20
-1250
 11
55200
 21
-1250
 40
150
 1
AH
50
0
 72
1
 73
3
62
0
0
TEXT
8
COUCHE_1
 10
56800
 20
-1250
 11
56800
 21
-1250
 40
150
 1
AI
50
0
 72
1
 73
3
62
0
0
TEXT
8
COUCHE_1
 10
58400
 20
-1250
 11
58400
 21
-1250
 40
150
 1
AJ
50
0
 72
1
 73
3
62
0
0
TEXT
8
COUCHE_1
 10
60000
 20
-1250
 11
60000
 21
-1250
 40
150
 1
AK
50
0
 72
1
 73
3
62
0
0
TEXT
8
COUCHE_1
 10
61600
 20
-1250
 11
61600
 21
-1250
 40
150
 1
AL
50
0
 72
1
 73
3
62
0
0
TEXT
8
COUCHE_1
 10
63200
 20
-1250
 11
63200
 21
-1250
 40
150
 1
AM
50
0
 72
1
 73
3
62
0
0
TEXT
8
COUCHE_1
 10
64800
 20
-1250
 11
64800
 21
-1250
 40
150
 1
AN
50
0
 72
1
 73
3
62
0
0
TEXT
8
COUCHE_1
 10
66400
 20
-1250
 11
66400
 21
-1250
 40
150
 1
AO
50
0
 72
1
 73
3
62
0
0
TEXT
8
COUCHE_1
 10
68000
 20
-1250
 11
68000
 21
-1250
 40
150
 1
AP
50
0
 72
1
 73
3
62
0
0
TEXT
8
COUCHE_1
 10
69600
 20
-1250
 11
69600
 21
-1250
 40
150
 1
AQ
50
0
 72
1
 73
3
62
0
0
TEXT
8
COUCHE_1
 10
71200
 20
-1250
 11
71200
 21
-1250
 40
150
 1
AR
50
0
 72
1
 73
3
62
0
0
TEXT
8
COUCHE_1
 10
72800
 20
-1250
 11
72800
 21
-1250
 40
150
 1
AS
50
0
 72
1
 73
3
62
0
0
TEXT
8
COUCHE_1
 10
74400
 20
-1250
 11
74400
 21
-1250
 40
150
 1
AT
50
0
 72
1
 73
3
62
0
0
TEXT
8
COUCHE_1
 10
76000
 20
-1250
 11
76000
 21
-1250
 40
150
 1
AU
50
0
 72
1
 73
3
62
0
0
TEXT
8
COUCHE_1
 10
77600
 20
-1250
 11
77600
 21
-1250
 40
150
 1
AV
50
0
 72
1
 73
3
62
0
0
TEXT
8
COUCHE_1
 10
79200
 20
-1250
 11
79200
 21
-1250
 40
150
 1
AW
50
0
 72
1
 73
3
62
0
0
TEXT
8
COUCHE_1
 10
80800
 20
-1250
 11
80800
 21
-1250
 40
150
 1
AX
50
0
 72
1
 73
3
62
0
0
TEXT
8
COUCHE_1
 10
82400
 20
-1250
 11
82400
 21
-1250
 40
150
 1
AY
50
0
 72
1
 73
3
62
0
 0
LINE
8
COUCHE_1
 6
CONTINUOUS
62
0
10
1200
20
-1200
11
1200
21
-59000
 0
LINE
8
COUCHE_1
 6
CONTINUOUS
62
0
10
1600
20
-1600
11
1600
21
-59000
 0
LINE
8
COUCHE_1
 6
CONTINUOUS
62
0
10
1200
20
-3200
11
1600
21
-3200
 0
LINE
8
COUCHE_1
 6
CONTINUOUS
62
0
10
1200
20
-4800
11
1600
21
-4800
 0
LINE
8
COUCHE_1
 6
CONTINUOUS
62
0
10
1200
20
-6400
11
1600
21
-6400
 0
LINE
8
COUCHE_1
 6
CONTINUOUS
62
0
10
1200
20
-8000
11
1600
21
-8000
 0
LINE
8
COUCHE_1
 6
CONTINUOUS
62
0
10
1200
20
-9600
11
1600
21
-9600
 0
LINE
8
COUCHE_1
 6
CONTINUOUS
62
0
10
1200
20
-11200
11
1600
21
-11200
 0
LINE
8
COUCHE_1
 6
CONTINUOUS
62
0
10
1200
20
-12800
11
1600
21
-12800
 0
LINE
8
COUCHE_1
 6
CONTINUOUS
62
0
10
1200
20
-14400
11
1600
21
-14400
 0
LINE
8
COUCHE_1
 6
CONTINUOUS
62
0
10
1200
20
-16000
11
1600
21
-16000
 0
LINE
8
COUCHE_1
 6
CONTINUOUS
62
0
10
1200
20
-17600
11
1600
21
-17600
 0
LINE
8
COUCHE_1
 6
CONTINUOUS
62
0
10
1200
20
-19200
11
1600
21
-19200
 0
LINE
8
COUCHE_1
 6
CONTINUOUS
62
0
10
1200
20
-20800
11
1600
21
-20800
 0
LINE
8
COUCHE_1
 6
CONTINUOUS
62
0
10
1200
20
-22400
11
1600
21
-22400
 0
LINE
8
COUCHE_1
 6
CONTINUOUS
62
0
10
1200
20
-24000
11
1600
21
-24000
 0
LINE
8
COUCHE_1
 6
CONTINUOUS
62
0
10
1200
20
-25600
11
1600
21
-25600
 0
LINE
8
COUCHE_1
 6
CONTINUOUS
62
0
10
1200
20
-27200
11
1600
21
-27200
 0
LINE
8
COUCHE_1
 6
CONTINUOUS
62
0
10
1200
20
-28800
11
1600
21
-28800
 0
LINE
8
COUCHE_1
 6
CONTINUOUS
62
0
10
1200
20
-30400
11
1600
21
-30400
 0
LINE
8
COUCHE_1
 6
CONTINUOUS
62
0
10
1200
20
-32000
11
1600
21
-32000
 0
LINE
8
COUCHE_1
 6
CONTINUOUS
62
0
10
1200
20
-33600
11
1600
21
-33600
 0
LINE
8
COUCHE_1
 6
CONTINUOUS
62
0
10
1200
20
-35200
11
1600
21
-35200
 0
LINE
8
COUCHE_1
 6
CONTINUOUS
62
0
10
1200
20
-36800
11
1600
21
-36800
 0
LINE
8
COUCHE_1
 6
CONTINUOUS
62
0
10
1200
20
-38400
11
1600
21
-38400
 0
LINE
8
COUCHE_1
 6
CONTINUOUS
62
0
10
1200
20
-40000
11
1600
21
-40000
 0
LINE
8
COUCHE_1
 6
CONTINUOUS
62
0
10
1200
20
-41600
11
1600
21
-41600
 0
LINE
8
COUCHE_1
 6
CONTINUOUS
62
0
10
1200
20
-43200
11
1600
21
-43200
 0
LINE
8
COUCHE_1
 6
CONTINUOUS
62
0
10
1200
20
-44800
11
1600
21
-44800
 0
LINE
8
COUCHE_1
 6
CONTINUOUS
62
0
10
1200
20
-46400
11
1600
21
-46400
 0
LINE
8
COUCHE_1
 6
CONTINUOUS
62
0
10
1200
20
-48000
11
1600
21
-48000
 0
LINE
8
COUCHE_1
 6
CONTINUOUS
62
0
10
1200
20
-49600
11
1600
21
-49600
 0
LINE
8
COUCHE_1
 6
CONTINUOUS
62
0
10
1200
20
-51200
11
1600
21
-51200
 0
LINE
8
COUCHE_1
 6
CONTINUOUS
62
0
10
1200
20
-52800
11
1600
21
-52800
 0
LINE
8
COUCHE_1
 6
CONTINUOUS
62
0
10
1200
20
-54400
11
1600
21
-54400
 0
LINE
8
COUCHE_1
 6
CONTINUOUS
62
0
10
1200
20
-56000
11
1600
21
-56000
 0
LINE
8
COUCHE_1
 6
CONTINUOUS
62
0
10
1200
20
-57600
11
1600
21
-57600
 0
LINE
8
COUCHE_1
 6
CONTINUOUS
62
0
10
1200
20
-59000
11
1600
21
-59000
 0
LINE
8
COUCHE_1
 6
CONTINUOUS
62
0
10
83600
20
-1200
11
83600
21
-59000
0
TEXT
8
COUCHE_1
 10
1400
 20
-2250
 11
1400
 21
-2250
 40
150
 1
1
50
0
 72
1
 73
3
62
0
0
TEXT
8
COUCHE_1
 10
1400
 20
-3850
 11
1400
 21
-3850
 40
150
 1
2
50
0
 72
1
 73
3
62
0
0
TEXT
8
COUCHE_1
 10
1400
 20
-5450
 11
1400
 21
-5450
 40
150
 1
3
50
0
 72
1
 73
3
62
0
0
TEXT
8
COUCHE_1
 10
1400
 20
-7050
 11
1400
 21
-7050
 40
150
 1
4
50
0
 72
1
 73
3
62
0
0
TEXT
8
COUCHE_1
 10
1400
 20
-8650
 11
1400
 21
-8650
 40
150
 1
5
50
0
 72
1
 73
3
62
0
0
TEXT
8
COUCHE_1
 10
1400
 20
-10250
 11
1400
 21
-10250
 40
150
 1
6
50
0
 72
1
 73
3
62
0
0
TEXT
8
COUCHE_1
 10
1400
 20
-11850
 11
1400
 21
-11850
 40
150
 1
7
50
0
 72
1
 73
3
62
0
0
TEXT
8
COUCHE_1
 10
1400
 20
-13450
 11
1400
 21
-13450
 40
150
 1
8
50
0
 72
1
 73
3
62
0
0
TEXT
8
COUCHE_1
 10
1400
 20
-15050
 11
1400
 21
-15050
 40
150
 1
9
50
0
 72
1
 73
3
62
0
0
TEXT
8
COUCHE_1
 10
1400
 20
-16650
 11
1400
 21
-16650
 40
150
 1
10
50
0
 72
1
 73
3
62
0
0
TEXT
8
COUCHE_1
 10
1400
 20
-18250
 11
1400
 21
-18250
 40
150
 1
11
50
0
 72
1
 73
3
62
0
0
TEXT
8
COUCHE_1
 10
1400
 20
-19850
 11
1400
 21
-19850
 40
150
 1
12
50
0
 72
1
 73
3
62
0
0
TEXT
8
COUCHE_1
 10
1400
 20
-21450
 11
1400
 21
-21450
 40
150
 1
13
50
0
 72
1
 73
3
62
0
0
TEXT
8
COUCHE_1
 10
1400
 20
-23050
 11
1400
 21
-23050
 40
150
 1
14
50
0
 72
1
 73
3
62
0
0
TEXT
8
COUCHE_1
 10
1400
 20
-24650
 11
1400
 21
-24650
 40
150
 1
15
50
0
 72
1
 73
3
62
0
0
TEXT
8
COUCHE_1
 10
1400
 20
-26250
 11
1400
 21
-26250
 40
150
 1
16
50
0
 72
1
 73
3
62
0
0
TEXT
8
COUCHE_1
 10
1400
 20
-27850
 11
1400
 21
-27850
 40
150
 1
17
50
0
 72
1
 73
3
62
0
0
TEXT
8
COUCHE_1
 10
1400
 20
-29450
 11
1400
 21
-29450
 40
150
 1
18
50
0
 72
1
 73
3
62
0
0
TEXT
8
COUCHE_1
 10
1400
 20
-31050
 11
1400
 21
-31050
 40
150
 1
19
50
0
 72
1
 73
3
62
0
0
TEXT
8
COUCHE_1
 10
1400
 20
-32650
 11
1400
 21
-32650
 40
150
 1
20
50
0
 72
1
 73
3
62
0
0
TEXT
8
COUCHE_1
 10
1400
 20
-34250
 11
1400
 21
-34250
 40
150
 1
21
50
0
 72
1
 73
3
62
0
0
TEXT
8
COUCHE_1
 10
1400
 20
-35850
 11
1400
 21
-35850
 40
150
 1
22
50
0
 72
1
 73
3
62
0
0
TEXT
8
COUCHE_1
 10
1400
 20
-37450
 11
1400
 21
-37450
 40
150
 1
23
50
0
 72
1
 73
3
62
0
0
TEXT
8
COUCHE_1
 10
1400
 20
-39050
 11
1400
 21
-39050
 40
150
 1
24
50
0
 72
1
 73
3
62
0
0
TEXT
8
COUCHE_1
 10
1400
 20
-40650
 11
1400
 21
-40650
 40
150
 1
25
50
0
 72
1
 73
3
62
0
0
TEXT
8
COUCHE_1
 10
1400
 20
-42250
 11
1400
 21
-42250
 40
150
 1
26
50
0
 72
1
 73
3
62
0
0
TEXT
8
COUCHE_1
 10
1400
 20
-43850
 11
1400
 21
-43850
 40
150
 1
27
50
0
 72
1
 73
3
62
0
0
TEXT
8
COUCHE_1
 10
1400
 20
-45450
 11
1400
 21
-45450
 40
150
 1
28
50
0
 72
1
 73
3
62
0
0
TEXT
8
COUCHE_1
 10
1400
 20
-47050
 11
1400
 21
-47050
 40
150
 1
29
50
0
 72
1
 73
3
62
0
0
TEXT
8
COUCHE_1
 10
1400
 20
-48650
 11
1400
 21
-48650
 40
150
 1
30
50
0
 72
1
 73
3
62
0
0
TEXT
8
COUCHE_1
 10
1400
 20
-50250
 11
1400
 21
-50250
 40
150
 1
31
50
0
 72
1
 73
3
62
0
0
TEXT
8
COUCHE_1
 10
1400
 20
-51850
 11
1400
 21
-51850
 40
150
 1
32
50
0
 72
1
 73
3
62
0
0
TEXT
8
COUCHE_1
 10
1400
 20
-53450
 11
1400
 21
-53450
 40
150
 1
33
50
0
 72
1
 73
3
62
0
0
TEXT
8
COUCHE_1
 10
1400
 20
-55050
 11
1400
 21
-55050
 40
150
 1
34
50
0
 72
1
 73
3
62
0
0
TEXT
8
COUCHE_1
 10
1400
 20
-56650
 11
1400
 21
-56650
 40
150
 1
35
50
0
 72
1
 73
3
62
0
 0
LINE
8
COUCHE_1
 6
CONTINUOUS
62
0
10
1800
20
-57200
11
83600
21
-57200
 0
LINE
8
COUCHE_1
 6
CONTINUOUS
62
0
10
83600
20
-57200
11
81600
21
-59000
 0
LINE
8
COUCHE_1
 6
CONTINUOUS
62
0
10
14200
20
-57200
11
14200
21
-59000
 0
LINE
8
COUCHE_1
 6
CONTINUOUS
62
0
10
74800
20
-57200
11
74800
21
-59000
 0
LINE
8
COUCHE_1
 6
CONTINUOUS
62
0
10
81600
20
-57200
11
81600
21
-59000
0
TEXT
8
COUCHE_1
 10
82800
 20
-58400
 11
82800
 21
-58400
 40
200
 1
2
50
0
 72
0
 73
3
62
0
0
TEXT
8
COUCHE_1
 10
82000
 20
-57600
 11
82000
 21
-57600
 40
200
 1
2
50
0
 72
0
 73
3
62
0
0
TEXT
8
COUCHE_1
 10
80300
 20
-57600
 11
80300
 21
-57600
 40
150
 1
14/02/2018
50
0
 72
2
 73
3
62
0
0
TEXT
8
COUCHE_1
 10
80300
 20
-58000
 11
80300
 21
-58000
 40
150
 1
1/2
50
0
 72
2
 73
3
62
0
0
TEXT
8
COUCHE_1
 10
75400
 20
-57600
 11
75400
 21
-57600
 40
150
 1
Dessiné le :
50
0
 72
0
 73
3
62
0
0
TEXT
8
COUCHE_1
 10
75400
 20
-58000
 11
75400
 21
-58000
 40
150
 1
Echelle :
50
0
 72
0
 73
3
62
0
0
TEXT
8
COUCHE_1
 10
80300
 20
-58400
 11
80300
 21
-58400
 40
150
 1
DN_DM
50
0
 72
2
 73
3
62
0
0
TEXT
8
COUCHE_1
 10
75400
 20
-58400
 11
75400
 21
-58400
 40
150
 1
Par : 
50
0
 72
0
 73
3
62
0
 0
ENDSEC
 0
EOF
