 0
SECTION
 2
HEADER
 9
$ACADVER
 1
AC1009
 9
$CLAYER
 8
Couche_1
 9
$HANDLING
70
 0
9
$INSBASE
10
0
20
0
30
0
9
$THICKNESS
40
0
9
$UCSNAME
2
UCS_F1
9
$WORLDVIEW
70
1
9
$LTSCALE
40
15
0
ENDSEC
0
SECTION
2
TABLES
 0
TABLE
 2
APPID
70
 1
 0
APPID
 2
TASK
 70
 0
 0
ENDTAB
 0
TABLE
  2
LTYPE
 70
 2
 0
LTYPE
  2
CONTINUOUS
 70
 0
 3
Solid line
 72
65
 73
0
 40
0
  0
LTYPE
  2
ACAD_ISO03W100
 70
 0
 3
CAO pointillé long
 72
65
 73
2
 40
30
 49
12
 49
-18.0
  0
LTYPE
 2
ACAD_ISO07W100
 70
0
 3
CAO pointillé fin
 72
65
 73
2
 40
3
 49
0
 49
-3.0
  0
LTYPE
  2
ACAD_ISO02W100
 70
0
 3
CAO pointillé extra long
 72
65
 73
2
 40
15
 49
12
 49
-3
  0
LTYPE
  2
AXES
 70
0
 3
CAO Axe
 72
65
 73
4
 40
50.8
 49
31.75
 49
-6.35
 49
6.35
 49
-6.35
  0
ENDTAB
0
TABLE
2
LAYER
 70
20
 0
LAYER
 2
COUCHE_1
 70
 64
 62
 7
 6
CONTINUOUS
 0
ENDTAB
 0
TABLE
 2
UCS
 70
 6
 0
UCS
 2
UCSF1
 70
 64
 10
0.000000
 20
0.000000
 30
20.000000
 11
1.000000
 21
0.000000
 31
0.000000
 12
0.000000
 22
-1.000000
 32
0.000000
 0
ENDTAB
 0
ENDSEC
 0
SECTION
 2
ENTITIES
 0
LINE
8
COUCHE_1
 6
CONTINUOUS
62
0
10
6600
20
-18600
11
17800
21
-18600
 0
LINE
8
COUCHE_1
 6
CONTINUOUS
62
0
10
6600
20
-19600
11
17800
21
-19600
 0
LINE
8
COUCHE_1
 6
CONTINUOUS
62
0
10
6600
20
-20400
11
17800
21
-20400
 0
LINE
8
COUCHE_1
 6
CONTINUOUS
62
0
10
6600
20
-21400
11
17800
21
-21400
 0
LINE
8
COUCHE_1
 6
CONTINUOUS
62
0
10
6600
20
-22200
11
17800
21
-22200
 0
LINE
8
COUCHE_1
 6
CONTINUOUS
62
0
10
6600
20
-23200
11
17800
21
-23200
 0
LINE
8
COUCHE_1
 6
CONTINUOUS
62
0
10
6600
20
-24000
11
17800
21
-24000
 0
LINE
8
COUCHE_1
 6
CONTINUOUS
62
0
10
6600
20
-25000
11
17800
21
-25000
 0
LINE
8
COUCHE_1
 6
CONTINUOUS
62
0
10
6600
20
-27000
11
17800
21
-27000
 0
LINE
8
COUCHE_1
 6
CONTINUOUS
62
0
10
6600
20
-26000
11
17800
21
-26000
 0
LINE
8
COUCHE_1
 6
CONTINUOUS
62
0
10
6600
20
-8800
11
10600
21
-8800
 0
LINE
8
COUCHE_1
 6
CONTINUOUS
62
0
10
6600
20
-9800
11
17800
21
-9800
 0
LINE
8
COUCHE_1
 6
CONTINUOUS
62
0
10
6600
20
-10600
11
17800
21
-10600
 0
LINE
8
COUCHE_1
 6
CONTINUOUS
62
0
10
6600
20
-11600
11
17800
21
-11600
 0
LINE
8
COUCHE_1
 6
CONTINUOUS
62
0
10
6600
20
-15000
11
17800
21
-15000
 0
LINE
8
COUCHE_1
 6
CONTINUOUS
62
0
10
6600
20
-16000
11
17800
21
-16000
 0
LINE
8
COUCHE_1
 6
CONTINUOUS
62
0
10
6600
20
-16800
11
17800
21
-16800
 0
LINE
8
COUCHE_1
 6
CONTINUOUS
62
0
10
6600
20
-17800
11
17800
21
-17800
 0
LINE
8
COUCHE_1
 6
CONTINUOUS
62
0
10
6600
20
-13600
11
17800
21
-13600
 0
LINE
8
COUCHE_1
 6
CONTINUOUS
62
0
10
6600
20
-12600
11
17800
21
-12600
0
POLYLINE
5
2B
 8
0
62
0
 6
ACAD_ISO07W100
 66
 1
 10
0
 20
0
 30
0
 70
1
 0
VERTEX
 5
33
  8
0
 10
5800
 20
-14400
 0
VERTEX
 5
33
  8
0
 10
7000
 20
-14400
 0
VERTEX
 5
33
  8
0
 10
7000
 20
-27600
 0
VERTEX
 5
33
  8
0
 10
5800
 20
-27600
 0
SEQEND
 5
37
 8
0
 0
LINE
8
COUCHE_1
 6
CONTINUOUS
62
0
10
30000
20
-12200
11
33800
21
-12200
 0
LINE
8
COUCHE_1
 6
CONTINUOUS
62
0
10
30000
20
-12600
11
33800
21
-12600
 0
LINE
8
COUCHE_1
 6
CONTINUOUS
62
0
10
30000
20
-13000
11
33800
21
-13000
 0
LINE
8
COUCHE_1
 6
CONTINUOUS
62
0
10
30000
20
-13400
11
33800
21
-13400
 0
LINE
8
COUCHE_1
 6
CONTINUOUS
62
0
10
30000
20
-13800
11
33800
21
-13800
 0
LINE
8
COUCHE_1
 6
CONTINUOUS
62
0
10
30000
20
-14200
11
33800
21
-14200
 0
LINE
8
COUCHE_1
 6
CONTINUOUS
62
0
10
30000
20
-14600
11
33800
21
-14600
 0
LINE
8
COUCHE_1
 6
CONTINUOUS
62
0
10
30000
20
-15000
11
33800
21
-15000
 0
LINE
8
COUCHE_1
 6
CONTINUOUS
62
0
10
30000
20
-16000
11
33800
21
-16000
 0
LINE
8
COUCHE_1
 6
CONTINUOUS
62
0
10
30000
20
-16400
11
33800
21
-16400
 0
LINE
8
COUCHE_1
 6
CONTINUOUS
62
0
10
30000
20
-16800
11
33800
21
-16800
 0
LINE
8
COUCHE_1
 6
CONTINUOUS
62
0
10
30000
20
-17200
11
33800
21
-17200
 0
LINE
8
COUCHE_1
 6
CONTINUOUS
62
0
10
30000
20
-17600
11
33800
21
-17600
 0
LINE
8
COUCHE_1
 6
CONTINUOUS
62
0
10
30000
20
-18000
11
33800
21
-18000
0
POLYLINE
5
2B
 8
0
62
0
 6
ACAD_ISO07W100
 66
 1
 10
0
 20
0
 30
0
 70
1
 0
VERTEX
 5
33
  8
0
 10
5800
 20
-1800
 0
VERTEX
 5
33
  8
0
 10
7000
 20
-1800
 0
VERTEX
 5
33
  8
0
 10
7000
 20
-14200
 0
VERTEX
 5
33
  8
0
 10
5800
 20
-14200
 0
SEQEND
 5
37
 8
0
0
POLYLINE
5
2B
 8
0
62
0
 6
ACAD_ISO07W100
 66
 1
 10
0
 20
0
 30
0
 70
1
 0
VERTEX
 5
33
  8
0
 10
17200
 20
-1800
 0
VERTEX
 5
33
  8
0
 10
19000
 20
-1800
 0
VERTEX
 5
33
  8
0
 10
19000
 20
-27400
 0
VERTEX
 5
33
  8
0
 10
17200
 20
-27400
 0
SEQEND
 5
37
 8
0
 0
LINE
8
COUCHE_1
 6
CONTINUOUS
62
0
10
30000
20
-15600
11
33800
21
-15600
 0
LINE
8
COUCHE_1
 6
CONTINUOUS
62
5
10
17800
20
-27000
11
17700
21
-27100
 0
LINE
8
COUCHE_1
 6
CONTINUOUS
62
5
10
17800
20
-27000
11
17700
21
-26900
0
TEXT
8
COUCHE_1
 10
18000
 20
-26800
 11
18000
 21
-26800
 40
150
 1
GND_32
50
0
 72
0
 73
3
62
0
 0
LINE
8
COUCHE_1
 6
CONTINUOUS
62
5
10
17800
20
-26000
11
17700
21
-26100
 0
LINE
8
COUCHE_1
 6
CONTINUOUS
62
5
10
17800
20
-26000
11
17700
21
-25900
0
TEXT
8
COUCHE_1
 10
18000
 20
-25800
 11
18000
 21
-25800
 40
150
 1
5V_31
50
0
 72
0
 73
3
62
0
 0
LINE
8
COUCHE_1
 6
CONTINUOUS
62
5
10
33800
20
-12200
11
33900
21
-12100
 0
LINE
8
COUCHE_1
 6
CONTINUOUS
62
5
10
33800
20
-12200
11
33900
21
-12300
0
TEXT
8
COUCHE_1
 10
34000
 20
-12000
 11
34000
 21
-12000
 40
150
 1
P0.0
50
0
 72
0
 73
3
62
0
 0
LINE
8
COUCHE_1
 6
CONTINUOUS
62
5
10
33800
20
-12600
11
33900
21
-12500
 0
LINE
8
COUCHE_1
 6
CONTINUOUS
62
5
10
33800
20
-12600
11
33900
21
-12700
0
TEXT
8
COUCHE_1
 10
34000
 20
-12400
 11
34000
 21
-12400
 40
150
 1
P0.1
50
0
 72
0
 73
3
62
0
 0
LINE
8
COUCHE_1
 6
CONTINUOUS
62
5
10
33800
20
-13000
11
33900
21
-12900
 0
LINE
8
COUCHE_1
 6
CONTINUOUS
62
5
10
33800
20
-13000
11
33900
21
-13100
0
TEXT
8
COUCHE_1
 10
34000
 20
-12800
 11
34000
 21
-12800
 40
150
 1
P0.2
50
0
 72
0
 73
3
62
0
 0
LINE
8
COUCHE_1
 6
CONTINUOUS
62
5
10
33800
20
-13400
11
33900
21
-13300
 0
LINE
8
COUCHE_1
 6
CONTINUOUS
62
5
10
33800
20
-13400
11
33900
21
-13500
0
TEXT
8
COUCHE_1
 10
34000
 20
-13200
 11
34000
 21
-13200
 40
150
 1
P0.3
50
0
 72
0
 73
3
62
0
 0
LINE
8
COUCHE_1
 6
CONTINUOUS
62
5
10
33800
20
-13800
11
33900
21
-13700
 0
LINE
8
COUCHE_1
 6
CONTINUOUS
62
5
10
33800
20
-13800
11
33900
21
-13900
0
TEXT
8
COUCHE_1
 10
34000
 20
-13600
 11
34000
 21
-13600
 40
150
 1
P0.4
50
0
 72
0
 73
3
62
0
 0
LINE
8
COUCHE_1
 6
CONTINUOUS
62
5
10
33800
20
-14200
11
33900
21
-14100
 0
LINE
8
COUCHE_1
 6
CONTINUOUS
62
5
10
33800
20
-14200
11
33900
21
-14300
0
TEXT
8
COUCHE_1
 10
34000
 20
-14000
 11
34000
 21
-14000
 40
150
 1
P0.5
50
0
 72
0
 73
3
62
0
 0
LINE
8
COUCHE_1
 6
CONTINUOUS
62
5
10
33800
20
-14600
11
33900
21
-14500
 0
LINE
8
COUCHE_1
 6
CONTINUOUS
62
5
10
33800
20
-14600
11
33900
21
-14700
0
TEXT
8
COUCHE_1
 10
34000
 20
-14400
 11
34000
 21
-14400
 40
150
 1
P0.6
50
0
 72
0
 73
3
62
0
 0
LINE
8
COUCHE_1
 6
CONTINUOUS
62
5
10
33800
20
-15000
11
33900
21
-14900
 0
LINE
8
COUCHE_1
 6
CONTINUOUS
62
5
10
33800
20
-15000
11
33900
21
-15100
0
TEXT
8
COUCHE_1
 10
34000
 20
-14800
 11
34000
 21
-14800
 40
150
 1
P0.7
50
0
 72
0
 73
3
62
0
 0
LINE
8
COUCHE_1
 6
CONTINUOUS
62
5
10
33800
20
-16000
11
33900
21
-15900
 0
LINE
8
COUCHE_1
 6
CONTINUOUS
62
5
10
33800
20
-16000
11
33900
21
-16100
0
TEXT
8
COUCHE_1
 10
34000
 20
-15800
 11
34000
 21
-15800
 40
150
 1
P1.0
50
0
 72
0
 73
3
62
0
 0
LINE
8
COUCHE_1
 6
CONTINUOUS
62
5
10
33800
20
-16400
11
33900
21
-16300
 0
LINE
8
COUCHE_1
 6
CONTINUOUS
62
5
10
33800
20
-16400
11
33900
21
-16500
0
TEXT
8
COUCHE_1
 10
34000
 20
-16200
 11
34000
 21
-16200
 40
150
 1
P1.1
50
0
 72
0
 73
3
62
0
 0
LINE
8
COUCHE_1
 6
CONTINUOUS
62
5
10
33800
20
-16800
11
33900
21
-16700
 0
LINE
8
COUCHE_1
 6
CONTINUOUS
62
5
10
33800
20
-16800
11
33900
21
-16900
0
TEXT
8
COUCHE_1
 10
34000
 20
-16600
 11
34000
 21
-16600
 40
150
 1
P1.2
50
0
 72
0
 73
3
62
0
 0
LINE
8
COUCHE_1
 6
CONTINUOUS
62
5
10
33800
20
-17600
11
33900
21
-17500
 0
LINE
8
COUCHE_1
 6
CONTINUOUS
62
5
10
33800
20
-17600
11
33900
21
-17700
0
TEXT
8
COUCHE_1
 10
34000
 20
-17400
 11
34000
 21
-17400
 40
150
 1
5V_31
50
0
 72
0
 73
3
62
0
 0
LINE
8
COUCHE_1
 6
CONTINUOUS
62
5
10
33800
20
-18000
11
33900
21
-17900
 0
LINE
8
COUCHE_1
 6
CONTINUOUS
62
5
10
33800
20
-18000
11
33900
21
-18100
0
TEXT
8
COUCHE_1
 10
34000
 20
-17800
 11
34000
 21
-17800
 40
150
 1
GND_32
50
0
 72
0
 73
3
62
0
 0
LINE
8
COUCHE_1
 6
CONTINUOUS
62
5
10
33800
20
-17200
11
33900
21
-17100
 0
LINE
8
COUCHE_1
 6
CONTINUOUS
62
5
10
33800
20
-17200
11
33900
21
-17300
0
TEXT
8
COUCHE_1
 10
34000
 20
-17000
 11
34000
 21
-17000
 40
150
 1
P1.3
50
0
 72
0
 73
3
62
0
 0
LINE
8
COUCHE_1
 6
CONTINUOUS
62
5
10
17800
20
-25000
11
17700
21
-25100
 0
LINE
8
COUCHE_1
 6
CONTINUOUS
62
5
10
17800
20
-25000
11
17700
21
-24900
0
TEXT
8
COUCHE_1
 10
18000
 20
-24800
 11
18000
 21
-24800
 40
150
 1
P1.3
50
0
 72
0
 73
3
62
0
 0
LINE
8
COUCHE_1
 6
CONTINUOUS
62
5
10
17800
20
-24000
11
17700
21
-24100
 0
LINE
8
COUCHE_1
 6
CONTINUOUS
62
5
10
17800
20
-24000
11
17700
21
-23900
0
TEXT
8
COUCHE_1
 10
18000
 20
-23800
 11
18000
 21
-23800
 40
150
 1
P1.2
50
0
 72
0
 73
3
62
0
 0
LINE
8
COUCHE_1
 6
CONTINUOUS
62
5
10
17800
20
-23200
11
17700
21
-23300
 0
LINE
8
COUCHE_1
 6
CONTINUOUS
62
5
10
17800
20
-23200
11
17700
21
-23100
0
TEXT
8
COUCHE_1
 10
18000
 20
-23000
 11
18000
 21
-23000
 40
150
 1
P1.1
50
0
 72
0
 73
3
62
0
 0
LINE
8
COUCHE_1
 6
CONTINUOUS
62
5
10
17800
20
-22200
11
17700
21
-22300
 0
LINE
8
COUCHE_1
 6
CONTINUOUS
62
5
10
17800
20
-22200
11
17700
21
-22100
0
TEXT
8
COUCHE_1
 10
18000
 20
-22000
 11
18000
 21
-22000
 40
150
 1
P1.0
50
0
 72
0
 73
3
62
0
 0
LINE
8
COUCHE_1
 6
CONTINUOUS
62
5
10
17800
20
-21400
11
17700
21
-21500
 0
LINE
8
COUCHE_1
 6
CONTINUOUS
62
5
10
17800
20
-21400
11
17700
21
-21300
0
TEXT
8
COUCHE_1
 10
18000
 20
-21200
 11
18000
 21
-21200
 40
150
 1
P0.7
50
0
 72
0
 73
3
62
0
 0
LINE
8
COUCHE_1
 6
CONTINUOUS
62
5
10
17800
20
-20400
11
17700
21
-20500
 0
LINE
8
COUCHE_1
 6
CONTINUOUS
62
5
10
17800
20
-20400
11
17700
21
-20300
0
TEXT
8
COUCHE_1
 10
18000
 20
-20200
 11
18000
 21
-20200
 40
150
 1
P0.6
50
0
 72
0
 73
3
62
0
 0
LINE
8
COUCHE_1
 6
CONTINUOUS
62
5
10
17800
20
-19600
11
17700
21
-19700
 0
LINE
8
COUCHE_1
 6
CONTINUOUS
62
5
10
17800
20
-19600
11
17700
21
-19500
0
TEXT
8
COUCHE_1
 10
18000
 20
-19400
 11
18000
 21
-19400
 40
150
 1
P0.5
50
0
 72
0
 73
3
62
0
 0
LINE
8
COUCHE_1
 6
CONTINUOUS
62
5
10
17800
20
-18600
11
17700
21
-18700
 0
LINE
8
COUCHE_1
 6
CONTINUOUS
62
5
10
17800
20
-18600
11
17700
21
-18500
0
TEXT
8
COUCHE_1
 10
18000
 20
-18400
 11
18000
 21
-18400
 40
150
 1
P0.4
50
0
 72
0
 73
3
62
0
 0
LINE
8
COUCHE_1
 6
CONTINUOUS
62
5
10
17800
20
-13600
11
17700
21
-13700
 0
LINE
8
COUCHE_1
 6
CONTINUOUS
62
5
10
17800
20
-13600
11
17700
21
-13500
0
TEXT
8
COUCHE_1
 10
18000
 20
-13400
 11
18000
 21
-13400
 40
150
 1
GND_25
50
0
 72
0
 73
3
62
0
 0
LINE
8
COUCHE_1
 6
CONTINUOUS
62
5
10
17800
20
-12600
11
17700
21
-12700
 0
LINE
8
COUCHE_1
 6
CONTINUOUS
62
5
10
17800
20
-12600
11
17700
21
-12500
0
TEXT
8
COUCHE_1
 10
18000
 20
-12400
 11
18000
 21
-12400
 40
150
 1
5V_2
50
0
 72
0
 73
3
62
0
 0
LINE
8
COUCHE_1
 6
CONTINUOUS
62
5
10
17800
20
-17800
11
17700
21
-17900
 0
LINE
8
COUCHE_1
 6
CONTINUOUS
62
5
10
17800
20
-17800
11
17700
21
-17700
0
TEXT
8
COUCHE_1
 10
18000
 20
-17600
 11
18000
 21
-17600
 40
150
 1
P0.3
50
0
 72
0
 73
3
62
0
 0
LINE
8
COUCHE_1
 6
CONTINUOUS
62
5
10
17800
20
-16800
11
17700
21
-16900
 0
LINE
8
COUCHE_1
 6
CONTINUOUS
62
5
10
17800
20
-16800
11
17700
21
-16700
0
TEXT
8
COUCHE_1
 10
18000
 20
-16600
 11
18000
 21
-16600
 40
150
 1
P0.2
50
0
 72
0
 73
3
62
0
 0
LINE
8
COUCHE_1
 6
CONTINUOUS
62
5
10
17800
20
-16000
11
17700
21
-16100
 0
LINE
8
COUCHE_1
 6
CONTINUOUS
62
5
10
17800
20
-16000
11
17700
21
-15900
0
TEXT
8
COUCHE_1
 10
18000
 20
-15800
 11
18000
 21
-15800
 40
150
 1
P0.1
50
0
 72
0
 73
3
62
0
 0
LINE
8
COUCHE_1
 6
CONTINUOUS
62
5
10
17800
20
-15000
11
17700
21
-15100
 0
LINE
8
COUCHE_1
 6
CONTINUOUS
62
5
10
17800
20
-15000
11
17700
21
-14900
0
TEXT
8
COUCHE_1
 10
18000
 20
-14800
 11
18000
 21
-14800
 40
150
 1
P0.0
50
0
 72
0
 73
3
62
0
 0
LINE
8
COUCHE_1
 6
CONTINUOUS
62
5
10
17800
20
-11600
11
17700
21
-11700
 0
LINE
8
COUCHE_1
 6
CONTINUOUS
62
5
10
17800
20
-11600
11
17700
21
-11500
0
TEXT
8
COUCHE_1
 10
18000
 20
-11400
 11
18000
 21
-11400
 40
150
 1
P2.0
50
0
 72
0
 73
3
62
0
 0
LINE
8
COUCHE_1
 6
CONTINUOUS
62
5
10
17800
20
-10600
11
17700
21
-10700
 0
LINE
8
COUCHE_1
 6
CONTINUOUS
62
5
10
17800
20
-10600
11
17700
21
-10500
0
TEXT
8
COUCHE_1
 10
18000
 20
-10400
 11
18000
 21
-10400
 40
150
 1
P2.1
50
0
 72
0
 73
3
62
0
 0
LINE
8
COUCHE_1
 6
CONTINUOUS
62
5
10
17800
20
-9800
11
17700
21
-9900
 0
LINE
8
COUCHE_1
 6
CONTINUOUS
62
5
10
17800
20
-9800
11
17700
21
-9700
0
TEXT
8
COUCHE_1
 10
18000
 20
-9600
 11
18000
 21
-9600
 40
150
 1
P2.2
50
0
 72
0
 73
3
62
0
 0
LINE
8
COUCHE_1
 6
CONTINUOUS
62
5
10
33800
20
-15600
11
33900
21
-15500
 0
LINE
8
COUCHE_1
 6
CONTINUOUS
62
5
10
33800
20
-15600
11
33900
21
-15700
0
TEXT
8
COUCHE_1
 10
34000
 20
-15400
 11
34000
 21
-15400
 40
150
 1
GND_25
50
0
 72
0
 73
3
62
0
 0
LINE
8
COUCHE_1
 6
CONTINUOUS
62
5
10
17800
20
-8800
11
17700
21
-8900
 0
LINE
8
COUCHE_1
 6
CONTINUOUS
62
5
10
17800
20
-8800
11
17700
21
-8700
0
TEXT
8
COUCHE_1
 10
18000
 20
-8600
 11
18000
 21
-8600
 40
150
 1
P2.3
50
0
 72
0
 73
3
62
0
 0
LINE
8
COUCHE_1
 6
CONTINUOUS
62
0
10
10600
20
-8800
11
16000
21
-8800
 0
LINE
8
COUCHE_1
 6
CONTINUOUS
62
0
10
16200
20
-8800
11
16000
21
-8800
 0
LINE
8
COUCHE_1
 6
CONTINUOUS
62
0
10
16200
20
-8800
11
17800
21
-8800
 0
LINE
8
COUCHE_1
 6
CONTINUOUS
62
0
10
6200
20
-25400
11
6200
21
-24500
 0
LINE
8
COUCHE_1
 6
CONTINUOUS
62
0
10
6600
20
-25400
11
6600
21
-24500
 0
LINE
8
COUCHE_1
 6
CONTINUOUS
62
0
10
6200
20
-24500
11
6600
21
-24500
 0
LINE
8
COUCHE_1
 6
CONTINUOUS
62
0
10
6200
20
-25400
11
6600
21
-25400
 0
LINE
8
COUCHE_1
 6
CONTINUOUS
62
0
10
6200
20
-24500
11
6200
21
-23600
 0
LINE
8
COUCHE_1
 6
CONTINUOUS
62
0
10
6600
20
-24500
11
6600
21
-23600
 0
LINE
8
COUCHE_1
 6
CONTINUOUS
62
0
10
6200
20
-23600
11
6600
21
-23600
 0
LINE
8
COUCHE_1
 6
CONTINUOUS
62
0
10
6200
20
-24500
11
6600
21
-24500
 0
LINE
8
COUCHE_1
 6
CONTINUOUS
62
0
10
6200
20
-23600
11
6200
21
-22700
 0
LINE
8
COUCHE_1
 6
CONTINUOUS
62
0
10
6600
20
-23600
11
6600
21
-22700
 0
LINE
8
COUCHE_1
 6
CONTINUOUS
62
0
10
6200
20
-22700
11
6600
21
-22700
 0
LINE
8
COUCHE_1
 6
CONTINUOUS
62
0
10
6200
20
-23600
11
6600
21
-23600
 0
LINE
8
COUCHE_1
 6
CONTINUOUS
62
0
10
6200
20
-22700
11
6200
21
-21800
 0
LINE
8
COUCHE_1
 6
CONTINUOUS
62
0
10
6600
20
-22700
11
6600
21
-21800
 0
LINE
8
COUCHE_1
 6
CONTINUOUS
62
0
10
6200
20
-21800
11
6600
21
-21800
 0
LINE
8
COUCHE_1
 6
CONTINUOUS
62
0
10
6200
20
-22700
11
6600
21
-22700
 0
LINE
8
COUCHE_1
 6
CONTINUOUS
62
0
10
6200
20
-21800
11
6200
21
-20900
 0
LINE
8
COUCHE_1
 6
CONTINUOUS
62
0
10
6600
20
-21800
11
6600
21
-20900
 0
LINE
8
COUCHE_1
 6
CONTINUOUS
62
0
10
6200
20
-20900
11
6600
21
-20900
 0
LINE
8
COUCHE_1
 6
CONTINUOUS
62
0
10
6200
20
-21800
11
6600
21
-21800
 0
LINE
8
COUCHE_1
 6
CONTINUOUS
62
0
10
6200
20
-20900
11
6200
21
-20000
 0
LINE
8
COUCHE_1
 6
CONTINUOUS
62
0
10
6600
20
-20900
11
6600
21
-20000
 0
LINE
8
COUCHE_1
 6
CONTINUOUS
62
0
10
6200
20
-20000
11
6600
21
-20000
 0
LINE
8
COUCHE_1
 6
CONTINUOUS
62
0
10
6200
20
-20900
11
6600
21
-20900
 0
LINE
8
COUCHE_1
 6
CONTINUOUS
62
0
10
6200
20
-20000
11
6200
21
-19100
 0
LINE
8
COUCHE_1
 6
CONTINUOUS
62
0
10
6600
20
-20000
11
6600
21
-19100
 0
LINE
8
COUCHE_1
 6
CONTINUOUS
62
0
10
6200
20
-19100
11
6600
21
-19100
 0
LINE
8
COUCHE_1
 6
CONTINUOUS
62
0
10
6200
20
-20000
11
6600
21
-20000
 0
LINE
8
COUCHE_1
 6
CONTINUOUS
62
0
10
6200
20
-19100
11
6200
21
-18200
 0
LINE
8
COUCHE_1
 6
CONTINUOUS
62
0
10
6600
20
-19100
11
6600
21
-18200
 0
LINE
8
COUCHE_1
 6
CONTINUOUS
62
0
10
6200
20
-18200
11
6600
21
-18200
 0
LINE
8
COUCHE_1
 6
CONTINUOUS
62
0
10
6200
20
-19100
11
6600
21
-19100
 0
LINE
8
COUCHE_1
 6
CONTINUOUS
62
0
10
6600
20
-25600
11
6600
21
-26500
 0
LINE
8
COUCHE_1
 6
CONTINUOUS
62
0
10
6200
20
-25600
11
6200
21
-26500
 0
LINE
8
COUCHE_1
 6
CONTINUOUS
62
0
10
6600
20
-26500
11
6200
21
-26500
 0
LINE
8
COUCHE_1
 6
CONTINUOUS
62
0
10
6600
20
-25600
11
6200
21
-25600
 0
LINE
8
COUCHE_1
 6
CONTINUOUS
62
0
10
6600
20
-26500
11
6600
21
-27400
 0
LINE
8
COUCHE_1
 6
CONTINUOUS
62
0
10
6200
20
-26500
11
6200
21
-27400
 0
LINE
8
COUCHE_1
 6
CONTINUOUS
62
0
10
6600
20
-27400
11
6200
21
-27400
 0
LINE
8
COUCHE_1
 6
CONTINUOUS
62
0
10
6600
20
-26500
11
6200
21
-26500
 0
LINE
8
COUCHE_1
 6
CONTINUOUS
62
0
10
6200
20
-12000
11
6200
21
-11100
 0
LINE
8
COUCHE_1
 6
CONTINUOUS
62
0
10
6600
20
-12000
11
6600
21
-11100
 0
LINE
8
COUCHE_1
 6
CONTINUOUS
62
0
10
6200
20
-11100
11
6600
21
-11100
 0
LINE
8
COUCHE_1
 6
CONTINUOUS
62
0
10
6200
20
-12000
11
6600
21
-12000
 0
LINE
8
COUCHE_1
 6
CONTINUOUS
62
0
10
6200
20
-11100
11
6200
21
-10200
 0
LINE
8
COUCHE_1
 6
CONTINUOUS
62
0
10
6600
20
-11100
11
6600
21
-10200
 0
LINE
8
COUCHE_1
 6
CONTINUOUS
62
0
10
6200
20
-10200
11
6600
21
-10200
 0
LINE
8
COUCHE_1
 6
CONTINUOUS
62
0
10
6200
20
-11100
11
6600
21
-11100
 0
LINE
8
COUCHE_1
 6
CONTINUOUS
62
0
10
6200
20
-10200
11
6200
21
-9300
 0
LINE
8
COUCHE_1
 6
CONTINUOUS
62
0
10
6600
20
-10200
11
6600
21
-9300
 0
LINE
8
COUCHE_1
 6
CONTINUOUS
62
0
10
6200
20
-9300
11
6600
21
-9300
 0
LINE
8
COUCHE_1
 6
CONTINUOUS
62
0
10
6200
20
-10200
11
6600
21
-10200
 0
LINE
8
COUCHE_1
 6
CONTINUOUS
62
0
10
6200
20
-9300
11
6200
21
-8400
 0
LINE
8
COUCHE_1
 6
CONTINUOUS
62
0
10
6600
20
-9300
11
6600
21
-8400
 0
LINE
8
COUCHE_1
 6
CONTINUOUS
62
0
10
6200
20
-8400
11
6600
21
-8400
 0
LINE
8
COUCHE_1
 6
CONTINUOUS
62
0
10
6200
20
-9300
11
6600
21
-9300
 0
LINE
8
COUCHE_1
 6
CONTINUOUS
62
0
10
6200
20
-8400
11
6200
21
-7500
 0
LINE
8
COUCHE_1
 6
CONTINUOUS
62
0
10
6600
20
-8400
11
6600
21
-7500
 0
LINE
8
COUCHE_1
 6
CONTINUOUS
62
0
10
6200
20
-7500
11
6600
21
-7500
 0
LINE
8
COUCHE_1
 6
CONTINUOUS
62
0
10
6200
20
-8400
11
6600
21
-8400
 0
LINE
8
COUCHE_1
 6
CONTINUOUS
62
0
10
6200
20
-7500
11
6200
21
-6600
 0
LINE
8
COUCHE_1
 6
CONTINUOUS
62
0
10
6600
20
-7500
11
6600
21
-6600
 0
LINE
8
COUCHE_1
 6
CONTINUOUS
62
0
10
6200
20
-6600
11
6600
21
-6600
 0
LINE
8
COUCHE_1
 6
CONTINUOUS
62
0
10
6200
20
-7500
11
6600
21
-7500
 0
LINE
8
COUCHE_1
 6
CONTINUOUS
62
0
10
6200
20
-6600
11
6200
21
-5700
 0
LINE
8
COUCHE_1
 6
CONTINUOUS
62
0
10
6600
20
-6600
11
6600
21
-5700
 0
LINE
8
COUCHE_1
 6
CONTINUOUS
62
0
10
6200
20
-5700
11
6600
21
-5700
 0
LINE
8
COUCHE_1
 6
CONTINUOUS
62
0
10
6200
20
-6600
11
6600
21
-6600
 0
LINE
8
COUCHE_1
 6
CONTINUOUS
62
0
10
6200
20
-5700
11
6200
21
-4800
 0
LINE
8
COUCHE_1
 6
CONTINUOUS
62
0
10
6600
20
-5700
11
6600
21
-4800
 0
LINE
8
COUCHE_1
 6
CONTINUOUS
62
0
10
6200
20
-4800
11
6600
21
-4800
 0
LINE
8
COUCHE_1
 6
CONTINUOUS
62
0
10
6200
20
-5700
11
6600
21
-5700
 0
LINE
8
COUCHE_1
 6
CONTINUOUS
62
0
10
6600
20
-12200
11
6600
21
-13100
 0
LINE
8
COUCHE_1
 6
CONTINUOUS
62
0
10
6200
20
-12200
11
6200
21
-13100
 0
LINE
8
COUCHE_1
 6
CONTINUOUS
62
0
10
6600
20
-13100
11
6200
21
-13100
 0
LINE
8
COUCHE_1
 6
CONTINUOUS
62
0
10
6600
20
-12200
11
6200
21
-12200
 0
LINE
8
COUCHE_1
 6
CONTINUOUS
62
0
10
6600
20
-13100
11
6600
21
-14000
 0
LINE
8
COUCHE_1
 6
CONTINUOUS
62
0
10
6200
20
-13100
11
6200
21
-14000
 0
LINE
8
COUCHE_1
 6
CONTINUOUS
62
0
10
6600
20
-14000
11
6200
21
-14000
 0
LINE
8
COUCHE_1
 6
CONTINUOUS
62
0
10
6600
20
-13100
11
6200
21
-13100
 0
LINE
8
COUCHE_1
 6
CONTINUOUS
62
0
10
6600
20
-14600
11
6600
21
-15500
 0
LINE
8
COUCHE_1
 6
CONTINUOUS
62
0
10
6200
20
-14600
11
6200
21
-15500
 0
LINE
8
COUCHE_1
 6
CONTINUOUS
62
0
10
6600
20
-15500
11
6200
21
-15500
 0
LINE
8
COUCHE_1
 6
CONTINUOUS
62
0
10
6600
20
-14600
11
6200
21
-14600
 0
LINE
8
COUCHE_1
 6
CONTINUOUS
62
0
10
6600
20
-15500
11
6600
21
-16400
 0
LINE
8
COUCHE_1
 6
CONTINUOUS
62
0
10
6200
20
-15500
11
6200
21
-16400
 0
LINE
8
COUCHE_1
 6
CONTINUOUS
62
0
10
6600
20
-16400
11
6200
21
-16400
 0
LINE
8
COUCHE_1
 6
CONTINUOUS
62
0
10
6600
20
-15500
11
6200
21
-15500
 0
LINE
8
COUCHE_1
 6
CONTINUOUS
62
0
10
6600
20
-16400
11
6600
21
-17300
 0
LINE
8
COUCHE_1
 6
CONTINUOUS
62
0
10
6200
20
-16400
11
6200
21
-17300
 0
LINE
8
COUCHE_1
 6
CONTINUOUS
62
0
10
6600
20
-17300
11
6200
21
-17300
 0
LINE
8
COUCHE_1
 6
CONTINUOUS
62
0
10
6600
20
-16400
11
6200
21
-16400
 0
LINE
8
COUCHE_1
 6
CONTINUOUS
62
0
10
6600
20
-17300
11
6600
21
-18200
 0
LINE
8
COUCHE_1
 6
CONTINUOUS
62
0
10
6200
20
-17300
11
6200
21
-18200
 0
LINE
8
COUCHE_1
 6
CONTINUOUS
62
0
10
6600
20
-18200
11
6200
21
-18200
 0
LINE
8
COUCHE_1
 6
CONTINUOUS
62
0
10
6600
20
-17300
11
6200
21
-17300
 0
LINE
8
COUCHE_1
 6
CONTINUOUS
62
0
10
6600
20
-2000
11
6600
21
-2700
 0
LINE
8
COUCHE_1
 6
CONTINUOUS
62
0
10
6200
20
-2000
11
6200
21
-2700
 0
LINE
8
COUCHE_1
 6
CONTINUOUS
62
0
10
6600
20
-2700
11
6200
21
-2700
 0
LINE
8
COUCHE_1
 6
CONTINUOUS
62
0
10
6600
20
-2000
11
6200
21
-2000
 0
LINE
8
COUCHE_1
 6
CONTINUOUS
62
0
10
6600
20
-2700
11
6600
21
-3400
 0
LINE
8
COUCHE_1
 6
CONTINUOUS
62
0
10
6200
20
-2700
11
6200
21
-3400
 0
LINE
8
COUCHE_1
 6
CONTINUOUS
62
0
10
6600
20
-3400
11
6200
21
-3400
 0
LINE
8
COUCHE_1
 6
CONTINUOUS
62
0
10
6600
20
-2700
11
6200
21
-2700
 0
LINE
8
COUCHE_1
 6
CONTINUOUS
62
0
10
6600
20
-3400
11
6600
21
-4100
 0
LINE
8
COUCHE_1
 6
CONTINUOUS
62
0
10
6200
20
-3400
11
6200
21
-4100
 0
LINE
8
COUCHE_1
 6
CONTINUOUS
62
0
10
6600
20
-4100
11
6200
21
-4100
 0
LINE
8
COUCHE_1
 6
CONTINUOUS
62
0
10
6600
20
-3400
11
6200
21
-3400
 0
LINE
8
COUCHE_1
 6
CONTINUOUS
62
0
10
6600
20
-4100
11
6600
21
-4800
 0
LINE
8
COUCHE_1
 6
CONTINUOUS
62
0
10
6200
20
-4100
11
6200
21
-4800
 0
LINE
8
COUCHE_1
 6
CONTINUOUS
62
0
10
6600
20
-4800
11
6200
21
-4800
 0
LINE
8
COUCHE_1
 6
CONTINUOUS
62
0
10
6600
20
-4100
11
6200
21
-4100
0
TEXT
8
COUCHE_1
 10
10200
 20
-24600
 11
10200
 21
-24600
 40
150
 1
V.chariot entré
50
0
 72
0
 73
3
62
0
0
TEXT
8
COUCHE_1
 10
10200
 20
-23600
 11
10200
 21
-23600
 40
150
 1
V.Chariot sorti
50
0
 72
0
 73
3
62
0
0
TEXT
8
COUCHE_1
 10
10200
 20
-22800
 11
10200
 21
-22800
 40
150
 1
V.Porte entré
50
0
 72
0
 73
3
62
0
0
TEXT
8
COUCHE_1
 10
10200
 20
-21800
 11
10200
 21
-21800
 40
150
 1
V.Porte sorti
50
0
 72
0
 73
3
62
0
0
TEXT
8
COUCHE_1
 10
10200
 20
-21000
 11
10200
 21
-21000
 40
150
 1
Sens horraire Moteur1
50
0
 72
0
 73
3
62
0
0
TEXT
8
COUCHE_1
 10
10200
 20
-20000
 11
10200
 21
-20000
 40
150
 1
Sens antihorraire Moteur1
50
0
 72
0
 73
3
62
0
0
TEXT
8
COUCHE_1
 10
10200
 20
-19200
 11
10200
 21
-19200
 40
150
 1
Sens horraire Moteur2
50
0
 72
0
 73
3
62
0
0
TEXT
8
COUCHE_1
 10
10200
 20
-18200
 11
10200
 21
-18200
 40
150
 1
Sens antihorraire Moteur2
50
0
 72
0
 73
3
62
0
0
TEXT
8
COUCHE_1
 10
6200
 20
-25200
 11
6200
 21
-25200
 40
150
 1
J3.1
50
90
 72
0
 73
3
62
0
0
TEXT
8
COUCHE_1
 10
6200
 20
-24400
 11
6200
 21
-24400
 40
150
 1
J3.2
50
90
 72
0
 73
3
62
0
0
TEXT
8
COUCHE_1
 10
6200
 20
-23400
 11
6200
 21
-23400
 40
150
 1
J3.3
50
90
 72
0
 73
3
62
0
0
TEXT
8
COUCHE_1
 10
6200
 20
-22400
 11
6200
 21
-22400
 40
150
 1
J3.4
50
90
 72
0
 73
3
62
0
0
TEXT
8
COUCHE_1
 10
6200
 20
-21600
 11
6200
 21
-21600
 40
150
 1
J3.5
50
90
 72
0
 73
3
62
0
0
TEXT
8
COUCHE_1
 10
6200
 20
-20800
 11
6200
 21
-20800
 40
150
 1
J3.6
50
90
 72
0
 73
3
62
0
0
TEXT
8
COUCHE_1
 10
6200
 20
-19800
 11
6200
 21
-19800
 40
150
 1
J3.7
50
90
 72
0
 73
3
62
0
0
TEXT
8
COUCHE_1
 10
6200
 20
-19000
 11
6200
 21
-19000
 40
150
 1
J3.8
50
90
 72
0
 73
3
62
0
0
TEXT
8
COUCHE_1
 10
10200
 20
-17400
 11
10200
 21
-17400
 40
150
 1
Sécurité porte 1
50
0
 72
0
 73
3
62
0
0
TEXT
8
COUCHE_1
 10
10200
 20
-15400
 11
10200
 21
-15400
 40
150
 1
Présence air
50
0
 72
0
 73
3
62
0
0
TEXT
8
COUCHE_1
 10
10200
 20
-14600
 11
10200
 21
-14600
 40
150
 1
Départ cycle
50
0
 72
0
 73
3
62
0
0
TEXT
8
COUCHE_1
 10
10200
 20
-11000
 11
10200
 21
-11000
 40
150
 1
Posage
50
0
 72
0
 73
3
62
0
0
TEXT
8
COUCHE_1
 10
10200
 20
-8400
 11
10200
 21
-8400
 40
150
 1
Vérin bridage entré
50
0
 72
0
 73
3
62
0
0
TEXT
8
COUCHE_1
 10
10200
 20
-9200
 11
10200
 21
-9200
 40
150
 1
Vérin bridage sorti
50
0
 72
0
 73
3
62
0
0
TEXT
8
COUCHE_1
 10
10200
 20
-10200
 11
10200
 21
-10200
 40
150
 1
Vérin marquage sorti
50
0
 72
0
 73
3
62
0
0
TEXT
8
COUCHE_1
 10
6200
 20
-11800
 11
6200
 21
-11800
 40
150
 1
J4.1
50
90
 72
0
 73
3
62
0
0
TEXT
8
COUCHE_1
 10
6200
 20
-11000
 11
6200
 21
-11000
 40
150
 1
J4.2
50
90
 72
0
 73
3
62
0
0
TEXT
8
COUCHE_1
 10
6200
 20
-10000
 11
6200
 21
-10000
 40
150
 1
J4.3
50
90
 72
0
 73
3
62
0
0
TEXT
8
COUCHE_1
 10
6200
 20
-9000
 11
6200
 21
-9000
 40
150
 1
J4.4
50
90
 72
0
 73
3
62
0
0
TEXT
8
COUCHE_1
 10
6200
 20
-8200
 11
6200
 21
-8200
 40
150
 1
J4.5
50
90
 72
0
 73
3
62
0
0
TEXT
8
COUCHE_1
 10
6200
 20
-7400
 11
6200
 21
-7400
 40
150
 1
J4.6
50
90
 72
0
 73
3
62
0
0
TEXT
8
COUCHE_1
 10
6200
 20
-6400
 11
6200
 21
-6400
 40
150
 1
J4.7
50
90
 72
0
 73
3
62
0
0
TEXT
8
COUCHE_1
 10
6200
 20
-5600
 11
6200
 21
-5600
 40
150
 1
J4.8
50
90
 72
0
 73
3
62
0
0
TEXT
8
COUCHE_1
 10
6200
 20
-27200
 11
6200
 21
-27200
 40
150
 1
J0.5
50
90
 72
0
 73
3
62
0
0
TEXT
8
COUCHE_1
 10
6200
 20
-26200
 11
6200
 21
-26200
 40
150
 1
J0.6
50
90
 72
0
 73
3
62
0
0
TEXT
8
COUCHE_1
 10
6200
 20
-13800
 11
6200
 21
-13800
 40
150
 1
J0.7
50
90
 72
0
 73
3
62
0
0
TEXT
8
COUCHE_1
 10
6200
 20
-12800
 11
6200
 21
-12800
 40
150
 1
J0.8
50
90
 72
0
 73
3
62
0
0
TEXT
8
COUCHE_1
 10
19800
 20
-22400
 11
19800
 21
-22400
 40
200
 1
Sorties cartes optocoupleurs Inputs PC
50
0
 72
0
 73
3
62
0
0
TEXT
8
COUCHE_1
 10
19400
 20
-1800
 11
19400
 21
-1800
 40
200
 1
Vers NI USB 6501
50
0
 72
0
 73
3
62
0
0
TEXT
8
COUCHE_1
 10
10200
 20
-16400
 11
10200
 21
-16400
 40
150
 1
Sécurité porte 2
50
0
 72
0
 73
3
62
0
0
TEXT
8
COUCHE_1
 10
28800
 20
-9400
 11
28800
 21
-9400
 40
150
 1
NI USB 6501
50
0
 72
0
 73
3
62
0
0
TEXT
8
COUCHE_1
 10
6200
 20
-18000
 11
6200
 21
-18000
 40
150
 1
J3.9
50
90
 72
0
 73
3
62
0
0
TEXT
8
COUCHE_1
 10
6200
 20
-17200
 11
6200
 21
-17200
 40
150
 1
J3.10
50
90
 72
0
 73
3
62
0
0
TEXT
8
COUCHE_1
 10
6200
 20
-16200
 11
6200
 21
-16200
 40
150
 1
J3.11
50
90
 72
0
 73
3
62
0
0
TEXT
8
COUCHE_1
 10
6200
 20
-15400
 11
6200
 21
-15400
 40
150
 1
J3.12
50
90
 72
0
 73
3
62
0
0
TEXT
8
COUCHE_1
 10
6200
 20
-4800
 11
6200
 21
-4800
 40
150
 1
J4.9
50
90
 72
0
 73
3
62
0
0
TEXT
8
COUCHE_1
 10
6200
 20
-4000
 11
6200
 21
-4000
 40
125
 1
J4.10
50
90
 72
0
 73
3
62
0
0
TEXT
8
COUCHE_1
 10
6200
 20
-3400
 11
6200
 21
-3400
 40
125
 1
J4.11
50
90
 72
0
 73
3
62
0
0
TEXT
8
COUCHE_1
 10
6200
 20
-2600
 11
6200
 21
-2600
 40
125
 1
J4.12
50
90
 72
0
 73
3
62
0
0
TEXT
8
COUCHE_1
 10
10400
 20
-2800
 11
10400
 21
-2800
 40
150
 1
Réserve
50
0
 72
0
 73
3
62
0
0
TEXT
8
COUCHE_1
 10
5400
 20
-27000
 11
5400
 21
-27000
 40
150
 1
CO_I1
50
90
 72
0
 73
3
62
0
0
TEXT
8
COUCHE_1
 10
5400
 20
-13800
 11
5400
 21
-13800
 40
150
 1
CO_I2
50
90
 72
0
 73
3
62
0
 0
LINE
8
COUCHE_1
 6
CONTINUOUS
62
0
10
1200
20
-1200
11
41600
21
-1200
 0
LINE
8
COUCHE_1
 6
CONTINUOUS
62
0
10
1600
20
-1600
11
41600
21
-1600
 0
LINE
8
COUCHE_1
 6
CONTINUOUS
62
0
10
3200
20
-1200
11
3200
21
-1600
 0
LINE
8
COUCHE_1
 6
CONTINUOUS
62
0
10
4800
20
-1200
11
4800
21
-1600
 0
LINE
8
COUCHE_1
 6
CONTINUOUS
62
0
10
6400
20
-1200
11
6400
21
-1600
 0
LINE
8
COUCHE_1
 6
CONTINUOUS
62
0
10
8000
20
-1200
11
8000
21
-1600
 0
LINE
8
COUCHE_1
 6
CONTINUOUS
62
0
10
9600
20
-1200
11
9600
21
-1600
 0
LINE
8
COUCHE_1
 6
CONTINUOUS
62
0
10
11200
20
-1200
11
11200
21
-1600
 0
LINE
8
COUCHE_1
 6
CONTINUOUS
62
0
10
12800
20
-1200
11
12800
21
-1600
 0
LINE
8
COUCHE_1
 6
CONTINUOUS
62
0
10
14400
20
-1200
11
14400
21
-1600
 0
LINE
8
COUCHE_1
 6
CONTINUOUS
62
0
10
16000
20
-1200
11
16000
21
-1600
 0
LINE
8
COUCHE_1
 6
CONTINUOUS
62
0
10
17600
20
-1200
11
17600
21
-1600
 0
LINE
8
COUCHE_1
 6
CONTINUOUS
62
0
10
19200
20
-1200
11
19200
21
-1600
 0
LINE
8
COUCHE_1
 6
CONTINUOUS
62
0
10
20800
20
-1200
11
20800
21
-1600
 0
LINE
8
COUCHE_1
 6
CONTINUOUS
62
0
10
22400
20
-1200
11
22400
21
-1600
 0
LINE
8
COUCHE_1
 6
CONTINUOUS
62
0
10
24000
20
-1200
11
24000
21
-1600
 0
LINE
8
COUCHE_1
 6
CONTINUOUS
62
0
10
25600
20
-1200
11
25600
21
-1600
 0
LINE
8
COUCHE_1
 6
CONTINUOUS
62
0
10
27200
20
-1200
11
27200
21
-1600
 0
LINE
8
COUCHE_1
 6
CONTINUOUS
62
0
10
28800
20
-1200
11
28800
21
-1600
 0
LINE
8
COUCHE_1
 6
CONTINUOUS
62
0
10
30400
20
-1200
11
30400
21
-1600
 0
LINE
8
COUCHE_1
 6
CONTINUOUS
62
0
10
32000
20
-1200
11
32000
21
-1600
 0
LINE
8
COUCHE_1
 6
CONTINUOUS
62
0
10
33600
20
-1200
11
33600
21
-1600
 0
LINE
8
COUCHE_1
 6
CONTINUOUS
62
0
10
35200
20
-1200
11
35200
21
-1600
 0
LINE
8
COUCHE_1
 6
CONTINUOUS
62
0
10
36800
20
-1200
11
36800
21
-1600
 0
LINE
8
COUCHE_1
 6
CONTINUOUS
62
0
10
38400
20
-1200
11
38400
21
-1600
 0
LINE
8
COUCHE_1
 6
CONTINUOUS
62
0
10
40000
20
-1200
11
40000
21
-1600
 0
LINE
8
COUCHE_1
 6
CONTINUOUS
62
0
10
41600
20
-1200
11
41600
21
-1600
 0
LINE
8
COUCHE_1
 6
CONTINUOUS
62
0
10
41600
20
-1200
11
41600
21
-1600
 0
LINE
8
COUCHE_1
 6
CONTINUOUS
62
0
10
1200
20
-29300
11
41600
21
-29300
0
TEXT
8
COUCHE_1
 10
2400
 20
-1250
 11
2400
 21
-1250
 40
150
 1
A
50
0
 72
1
 73
3
62
0
0
TEXT
8
COUCHE_1
 10
4000
 20
-1250
 11
4000
 21
-1250
 40
150
 1
B
50
0
 72
1
 73
3
62
0
0
TEXT
8
COUCHE_1
 10
5600
 20
-1250
 11
5600
 21
-1250
 40
150
 1
C
50
0
 72
1
 73
3
62
0
0
TEXT
8
COUCHE_1
 10
7200
 20
-1250
 11
7200
 21
-1250
 40
150
 1
D
50
0
 72
1
 73
3
62
0
0
TEXT
8
COUCHE_1
 10
8800
 20
-1250
 11
8800
 21
-1250
 40
150
 1
E
50
0
 72
1
 73
3
62
0
0
TEXT
8
COUCHE_1
 10
10400
 20
-1250
 11
10400
 21
-1250
 40
150
 1
F
50
0
 72
1
 73
3
62
0
0
TEXT
8
COUCHE_1
 10
12000
 20
-1250
 11
12000
 21
-1250
 40
150
 1
G
50
0
 72
1
 73
3
62
0
0
TEXT
8
COUCHE_1
 10
13600
 20
-1250
 11
13600
 21
-1250
 40
150
 1
H
50
0
 72
1
 73
3
62
0
0
TEXT
8
COUCHE_1
 10
15200
 20
-1250
 11
15200
 21
-1250
 40
150
 1
I
50
0
 72
1
 73
3
62
0
0
TEXT
8
COUCHE_1
 10
16800
 20
-1250
 11
16800
 21
-1250
 40
150
 1
J
50
0
 72
1
 73
3
62
0
0
TEXT
8
COUCHE_1
 10
18400
 20
-1250
 11
18400
 21
-1250
 40
150
 1
K
50
0
 72
1
 73
3
62
0
0
TEXT
8
COUCHE_1
 10
20000
 20
-1250
 11
20000
 21
-1250
 40
150
 1
L
50
0
 72
1
 73
3
62
0
0
TEXT
8
COUCHE_1
 10
21600
 20
-1250
 11
21600
 21
-1250
 40
150
 1
M
50
0
 72
1
 73
3
62
0
0
TEXT
8
COUCHE_1
 10
23200
 20
-1250
 11
23200
 21
-1250
 40
150
 1
N
50
0
 72
1
 73
3
62
0
0
TEXT
8
COUCHE_1
 10
24800
 20
-1250
 11
24800
 21
-1250
 40
150
 1
O
50
0
 72
1
 73
3
62
0
0
TEXT
8
COUCHE_1
 10
26400
 20
-1250
 11
26400
 21
-1250
 40
150
 1
P
50
0
 72
1
 73
3
62
0
0
TEXT
8
COUCHE_1
 10
28000
 20
-1250
 11
28000
 21
-1250
 40
150
 1
Q
50
0
 72
1
 73
3
62
0
0
TEXT
8
COUCHE_1
 10
29600
 20
-1250
 11
29600
 21
-1250
 40
150
 1
R
50
0
 72
1
 73
3
62
0
0
TEXT
8
COUCHE_1
 10
31200
 20
-1250
 11
31200
 21
-1250
 40
150
 1
S
50
0
 72
1
 73
3
62
0
0
TEXT
8
COUCHE_1
 10
32800
 20
-1250
 11
32800
 21
-1250
 40
150
 1
T
50
0
 72
1
 73
3
62
0
0
TEXT
8
COUCHE_1
 10
34400
 20
-1250
 11
34400
 21
-1250
 40
150
 1
U
50
0
 72
1
 73
3
62
0
0
TEXT
8
COUCHE_1
 10
36000
 20
-1250
 11
36000
 21
-1250
 40
150
 1
V
50
0
 72
1
 73
3
62
0
0
TEXT
8
COUCHE_1
 10
37600
 20
-1250
 11
37600
 21
-1250
 40
150
 1
W
50
0
 72
1
 73
3
62
0
0
TEXT
8
COUCHE_1
 10
39200
 20
-1250
 11
39200
 21
-1250
 40
150
 1
X
50
0
 72
1
 73
3
62
0
0
TEXT
8
COUCHE_1
 10
40800
 20
-1250
 11
40800
 21
-1250
 40
150
 1
Y
50
0
 72
1
 73
3
62
0
 0
LINE
8
COUCHE_1
 6
CONTINUOUS
62
0
10
1200
20
-1200
11
1200
21
-29300
 0
LINE
8
COUCHE_1
 6
CONTINUOUS
62
0
10
1600
20
-1600
11
1600
21
-29300
 0
LINE
8
COUCHE_1
 6
CONTINUOUS
62
0
10
1200
20
-3200
11
1600
21
-3200
 0
LINE
8
COUCHE_1
 6
CONTINUOUS
62
0
10
1200
20
-4800
11
1600
21
-4800
 0
LINE
8
COUCHE_1
 6
CONTINUOUS
62
0
10
1200
20
-6400
11
1600
21
-6400
 0
LINE
8
COUCHE_1
 6
CONTINUOUS
62
0
10
1200
20
-8000
11
1600
21
-8000
 0
LINE
8
COUCHE_1
 6
CONTINUOUS
62
0
10
1200
20
-9600
11
1600
21
-9600
 0
LINE
8
COUCHE_1
 6
CONTINUOUS
62
0
10
1200
20
-11200
11
1600
21
-11200
 0
LINE
8
COUCHE_1
 6
CONTINUOUS
62
0
10
1200
20
-12800
11
1600
21
-12800
 0
LINE
8
COUCHE_1
 6
CONTINUOUS
62
0
10
1200
20
-14400
11
1600
21
-14400
 0
LINE
8
COUCHE_1
 6
CONTINUOUS
62
0
10
1200
20
-16000
11
1600
21
-16000
 0
LINE
8
COUCHE_1
 6
CONTINUOUS
62
0
10
1200
20
-17600
11
1600
21
-17600
 0
LINE
8
COUCHE_1
 6
CONTINUOUS
62
0
10
1200
20
-19200
11
1600
21
-19200
 0
LINE
8
COUCHE_1
 6
CONTINUOUS
62
0
10
1200
20
-20800
11
1600
21
-20800
 0
LINE
8
COUCHE_1
 6
CONTINUOUS
62
0
10
1200
20
-22400
11
1600
21
-22400
 0
LINE
8
COUCHE_1
 6
CONTINUOUS
62
0
10
1200
20
-24000
11
1600
21
-24000
 0
LINE
8
COUCHE_1
 6
CONTINUOUS
62
0
10
1200
20
-25600
11
1600
21
-25600
 0
LINE
8
COUCHE_1
 6
CONTINUOUS
62
0
10
1200
20
-27200
11
1600
21
-27200
 0
LINE
8
COUCHE_1
 6
CONTINUOUS
62
0
10
1200
20
-28800
11
1600
21
-28800
 0
LINE
8
COUCHE_1
 6
CONTINUOUS
62
0
10
1200
20
-29300
11
1600
21
-29300
 0
LINE
8
COUCHE_1
 6
CONTINUOUS
62
0
10
41600
20
-1200
11
41600
21
-29300
0
TEXT
8
COUCHE_1
 10
1400
 20
-2250
 11
1400
 21
-2250
 40
150
 1
1
50
0
 72
1
 73
3
62
0
0
TEXT
8
COUCHE_1
 10
1400
 20
-3850
 11
1400
 21
-3850
 40
150
 1
2
50
0
 72
1
 73
3
62
0
0
TEXT
8
COUCHE_1
 10
1400
 20
-5450
 11
1400
 21
-5450
 40
150
 1
3
50
0
 72
1
 73
3
62
0
0
TEXT
8
COUCHE_1
 10
1400
 20
-7050
 11
1400
 21
-7050
 40
150
 1
4
50
0
 72
1
 73
3
62
0
0
TEXT
8
COUCHE_1
 10
1400
 20
-8650
 11
1400
 21
-8650
 40
150
 1
5
50
0
 72
1
 73
3
62
0
0
TEXT
8
COUCHE_1
 10
1400
 20
-10250
 11
1400
 21
-10250
 40
150
 1
6
50
0
 72
1
 73
3
62
0
0
TEXT
8
COUCHE_1
 10
1400
 20
-11850
 11
1400
 21
-11850
 40
150
 1
7
50
0
 72
1
 73
3
62
0
0
TEXT
8
COUCHE_1
 10
1400
 20
-13450
 11
1400
 21
-13450
 40
150
 1
8
50
0
 72
1
 73
3
62
0
0
TEXT
8
COUCHE_1
 10
1400
 20
-15050
 11
1400
 21
-15050
 40
150
 1
9
50
0
 72
1
 73
3
62
0
0
TEXT
8
COUCHE_1
 10
1400
 20
-16650
 11
1400
 21
-16650
 40
150
 1
10
50
0
 72
1
 73
3
62
0
0
TEXT
8
COUCHE_1
 10
1400
 20
-18250
 11
1400
 21
-18250
 40
150
 1
11
50
0
 72
1
 73
3
62
0
0
TEXT
8
COUCHE_1
 10
1400
 20
-19850
 11
1400
 21
-19850
 40
150
 1
12
50
0
 72
1
 73
3
62
0
0
TEXT
8
COUCHE_1
 10
1400
 20
-21450
 11
1400
 21
-21450
 40
150
 1
13
50
0
 72
1
 73
3
62
0
0
TEXT
8
COUCHE_1
 10
1400
 20
-23050
 11
1400
 21
-23050
 40
150
 1
14
50
0
 72
1
 73
3
62
0
0
TEXT
8
COUCHE_1
 10
1400
 20
-24650
 11
1400
 21
-24650
 40
150
 1
15
50
0
 72
1
 73
3
62
0
0
TEXT
8
COUCHE_1
 10
1400
 20
-26250
 11
1400
 21
-26250
 40
150
 1
16
50
0
 72
1
 73
3
62
0
0
TEXT
8
COUCHE_1
 10
1400
 20
-27850
 11
1400
 21
-27850
 40
150
 1
17
50
0
 72
1
 73
3
62
0
 0
LINE
8
COUCHE_1
 6
CONTINUOUS
62
0
10
1600
20
-27800
11
41600
21
-27800
 0
LINE
8
COUCHE_1
 6
CONTINUOUS
62
0
10
41600
20
-27800
11
39800
21
-29200
 0
LINE
8
COUCHE_1
 6
CONTINUOUS
62
0
10
11200
20
-29200
11
11200
21
-27800
 0
LINE
8
COUCHE_1
 6
CONTINUOUS
62
0
10
35200
20
-27800
11
35200
21
-29200
 0
LINE
8
COUCHE_1
 6
CONTINUOUS
62
0
10
39800
20
-27800
11
39800
21
-29200
0
TEXT
8
COUCHE_1
 10
40100
 20
-28200
 11
40100
 21
-28200
 40
200
 1
06
50
0
 72
0
 73
3
62
0
0
TEXT
8
COUCHE_1
 10
40800
 20
-28900
 11
40800
 21
-28900
 40
200
 1
14
50
0
 72
0
 73
3
62
0
0
TEXT
8
COUCHE_1
 10
38700
 20
-28000
 11
38700
 21
-28000
 40
150
 1
14/02/2018
50
0
 72
2
 73
3
62
0
0
TEXT
8
COUCHE_1
 10
38700
 20
-28400
 11
38700
 21
-28400
 40
150
 1
1/2
50
0
 72
2
 73
3
62
0
0
TEXT
8
COUCHE_1
 10
22400
 20
-28600
 11
22400
 21
-28600
 40
250
 1
Adapatation 24V_5V
50
0
 72
0
 73
3
62
0
0
TEXT
8
COUCHE_1
 10
35400
 20
-28000
 11
35400
 21
-28000
 40
150
 1
Dessiné le :
50
0
 72
0
 73
3
62
0
0
TEXT
8
COUCHE_1
 10
35400
 20
-28400
 11
35400
 21
-28400
 40
150
 1
Echelle :
50
0
 72
0
 73
3
62
0
0
TEXT
8
COUCHE_1
 10
38700
 20
-28800
 11
38700
 21
-28800
 40
150
 1
DN_DM
50
0
 72
2
 73
3
62
0
0
TEXT
8
COUCHE_1
 10
35400
 20
-28800
 11
35400
 21
-28800
 40
150
 1
Par : 
50
0
 72
0
 73
3
62
0
0
TEXT
8
COUCHE_1
 10
21400
 20
-28000
 11
21400
 21
-28000
 40
300
 1
Carte NI USB Inputs PC
50
0
 72
0
 73
3
62
0
 0
ENDSEC
 0
EOF
