M48
INCH
T01C0.0600
T02C0.0300
T03C0.0400
%
T01
X-019720Y-005830
X-018220Y-005830
X-016720Y-005830
X-015220Y-005830
X-013720Y-005830
X-012220Y-005830
X-010720Y-005830
X-009220Y-005830
X-007720Y-005830
X-006220Y-005830
X-004720Y-005830
X-003220Y-005830
X-021170Y+024460
X-019670Y+024460
X-018170Y+024460
X-016670Y+024460
X-015170Y+024460
X-013670Y+024460
X-012170Y+024460
X-010670Y+024460
X-009170Y+024460
X-007670Y+024460
X-006170Y+024460
X-004670Y+024460
X+000670Y-005750
X-000830Y-005750
X-002610Y+024490
X-001110Y+024490
T02
X-017980Y+013120
X-018980Y+013120
X-019980Y+013120
X-020980Y+013120
X-021980Y+013120
X-022980Y+013120
X-023980Y+013120
X-024980Y+013120
X-024980Y+010120
X-023980Y+010120
X-022980Y+010120
X-021980Y+010120
X-020980Y+010120
X-019980Y+010120
X-018980Y+010120
X-017980Y+010120
X-008370Y+013040
X-009370Y+013040
X-010370Y+013040
X-011370Y+013040
X-012370Y+013040
X-013370Y+013040
X-014370Y+013040
X-015370Y+013040
X-015370Y+010040
X-014370Y+010040
X-013370Y+010040
X-012370Y+010040
X-011370Y+010040
X-010370Y+010040
X-009370Y+010040
X-008370Y+010040
X+000960Y+013020
X-000040Y+013020
X-001040Y+013020
X-002040Y+013020
X-003040Y+013020
X-004040Y+013020
X-005040Y+013020
X-006040Y+013020
X-006040Y+010020
X-005040Y+010020
X-004040Y+010020
X-003040Y+010020
X-002040Y+010020
X-001040Y+010020
X-000040Y+010020
X+000960Y+010020
X-032730Y+015260
X-032730Y+019260
X-032020Y+021900
X-032020Y+017900
X-023980Y+004320
X-023980Y+000320
X-023010Y+005130
X-023010Y+001130
X-028870Y+015230
X-028870Y+019230
X-028130Y+021850
X-028130Y+017850
X-025120Y+015260
X-025120Y+019260
X-024300Y+021880
X-024300Y+017880
X-021210Y+015250
X-021210Y+019250
X-020350Y+021890
X-020350Y+017890
X-016860Y+015210
X-016860Y+019210
X-016040Y+021900
X-016040Y+017900
X-012880Y+015320
X-012880Y+019320
X-012220Y+021860
X-012220Y+017860
X-008960Y+015180
X-008960Y+019180
X-008250Y+021850
X-008250Y+017850
X-005020Y+015190
X-005020Y+019190
X-004290Y+021850
X-004290Y+017850
X+011480Y+017840
X+011480Y+021840
X+010540Y+019230
X+010540Y+015230
X+006960Y+015220
X+006960Y+019220
X+007650Y+021920
X+007650Y+017920
X+003780Y+021900
X+003780Y+017900
X+003070Y+015200
X+003070Y+019200
X-000950Y+019210
X-000950Y+015210
X-000250Y+021870
X-000250Y+017870
X-018370Y-002960
X-018370Y-002160
X-018370Y-001360
X-020310Y-002940
X-020310Y-002140
X-020310Y-001340
X-016410Y-002950
X-016410Y-002150
X-016410Y-001350
X-014420Y-002970
X-014420Y-002170
X-014420Y-001370
X-012440Y-003020
X-012440Y-002220
X-012440Y-001420
X-010490Y-002990
X-010490Y-002190
X-010490Y-001390
X-008550Y-003010
X-008550Y-002210
X-008550Y-001410
X-006580Y-003020
X-006580Y-002220
X-006580Y-001420
X-004650Y-002980
X-004650Y-002180
X-004650Y-001380
X-002630Y-003010
X-002630Y-002210
X-002630Y-001410
X-000720Y-002970
X-000720Y-002170
X-000720Y-001370
X-022250Y-002980
X-022250Y-002180
X-022250Y-001380
X-020830Y+005140
X-020830Y+001140
X-021830Y+004310
X-021830Y+000310
X-018600Y+005170
X-018600Y+001170
X-019550Y+004310
X-019550Y+000310
X-016390Y+005160
X-016390Y+001160
X-017370Y+004310
X-017370Y+000310
X-014190Y+005160
X-014190Y+001160
X-015190Y+004280
X-015190Y+000280
X-012010Y+005130
X-012010Y+001130
X-013060Y+004280
X-013060Y+000280
X-009860Y+005150
X-009860Y+001150
X-010900Y+004270
X-010900Y+000270
X-007790Y+005150
X-007790Y+001150
X-008790Y+004280
X-008790Y+000280
X-005660Y+005120
X-005660Y+001120
X-006680Y+004290
X-006680Y+000290
X-003500Y+005050
X-003500Y+001050
X-004510Y+004240
X-004510Y+000240
X-001420Y+005120
X-001420Y+001120
X-002440Y+004240
X-002440Y+000240
X+000670Y+005240
X+000670Y+001240
X-000350Y+004290
X-000350Y+000290
T03
X-034950Y+015370
X-034950Y+019370
X-033830Y+017810
X-033830Y+021810
X-023990Y+006840
X-022990Y+006840
X-029840Y+017760
X-029840Y+021760
X-031110Y+015330
X-031110Y+019330
X-026150Y+017730
X-026150Y+021730
X-027220Y+015360
X-027220Y+019360
X-022240Y+017720
X-022240Y+021720
X-023390Y+015340
X-023390Y+019340
X-018030Y+017750
X-018030Y+021750
X-019290Y+015310
X-019290Y+019310
X-013990Y+017700
X-013990Y+021700
X-015090Y+015340
X-015090Y+019340
X-009950Y+017740
X-009950Y+021740
X-011130Y+015280
X-011130Y+019280
X-006080Y+017740
X-006080Y+021740
X-007260Y+015280
X-007260Y+019280
X-001990Y+017770
X-001990Y+021770
X-003150Y+015290
X-003150Y+019290
X+002090Y+017820
X+002090Y+021820
X+000930Y+015230
X+000930Y+019230
X+004830Y+015210
X+004830Y+019210
X+008680Y+015280
X+008680Y+019280
X+005930Y+017750
X+005930Y+021750
X+009750Y+017770
X+009750Y+021770
X-021850Y+006890
X-020850Y+006890
X-019580Y+006870
X-018580Y+006870
X-017360Y+006840
X-016360Y+006840
X-015190Y+006880
X-014190Y+006880
X-013040Y+006870
X-012040Y+006870
X-010910Y+006890
X-009910Y+006890
X-008780Y+006880
X-007780Y+006880
X-006670Y+006870
X-005670Y+006870
X-004500Y+006900
X-003500Y+006900
X-002390Y+006920
X-001390Y+006920
X-000270Y+006970
X+000730Y+006970
M30
